<?xml version="1.0" encoding="utf-8"?>
<!-- Generator: Adobe Illustrator 19.1.0, SVG Export Plug-In . SVG Version: 6.00 Build 0)  -->
<svg version="1.1" id="Isolation_Mode" xmlns="http://www.w3.org/2000/svg" xmlns:xlink="http://www.w3.org/1999/xlink" x="0px"
	 y="0px" viewBox="0 0 53.6 36" style="enable-background:new 0 0 53.6 36;" xml:space="preserve">
	<style type="text/css">
		.st0{fill-rule:evenodd;clip-rule:evenodd;fill:#FFFFFF;}
	</style>
	<defs>
		<filter id="dropshadow" height="130%">
		  <feGaussianBlur in="SourceAlpha" stdDeviation="2"/> <!-- stdDeviation is how much to blur -->
		  <feOffset dx="0" dy="0" result="offsetblur"/> <!-- how much to offset -->
			<feComponentTransfer>
        <feFuncA type="linear" slope="0.3"/>
      </feComponentTransfer>
		  <feMerge>
		    <feMergeNode/> <!-- this contains the offset blurred image -->
		    <feMergeNode in="SourceGraphic"/> <!-- this contains the element that the filter is applied to -->
		  </feMerge>
		</filter>
	</defs>
<g>
	<path class="st0" filter="url(#dropshadow)" d="M13.3,19.4l0-3l0.1-9.8L16,6.8l0,1.6c0.5-1.2,1.7-1.6,3-1.5c1.7,0.1,3,0.6,3.6,2.2c0.6-1.3,1.5-1.7,3-1.6
		c2.8,0.2,3.6,1.3,3.6,3.9v1.6l0,5l-1.6,0.2c0-1.7,0-3.4,0-5.1l0-1.2c0-1.2-0.2-2.7-1.8-2.7c-0.6,0-1.5,0.1-1.9,0.6
		c-0.9,1.3-0.6,7.1-0.7,8.9C22.5,18.9,21.8,19,21,19c0-1.3,0.2-8.3-0.1-9c-0.4-0.9-1.3-1.2-2.2-1.3c-3.4-0.2-2.7,4.8-2.7,6.8l0,3.8
		l-1.3,0L13.3,19.4z"/>
	<path class="st0" filter="url(#dropshadow)" d="M28.2,32.8c-1.4,0-2.8,0-4.3,0c-1,0-1.6-0.8-1.8-1.6c-0.4-3-0.6-6-0.6-9c2.3-0.2,4.5-0.6,6.6-1l0,0.1
		c0.4,0.9,1.1,1.6,2,2.1c0.6,0.3,2.5,0.6,5.6,0.6c1.3,0,2.4,0.1,3.1,0.1c2,0.1,3.2,0.4,3.7,0.8c0.5,0.5,0.7,1.4,0.7,2.7
		c0,1.4-0.3,2.4-0.9,2.9c-0.6,0.5-2.2,0.9-4.8,1.2c-2.5,0.2-4.2,0.1-5.1-0.4c-0.9-0.5-1.4-1.5-1.4-2.9V28l-3.8,0.2v0.7
		C27.3,30.5,27.6,31.8,28.2,32.8z M49.7,28.6c-0.1,0.6-0.4,1.1-0.8,1.3c-1,0.3-2.1,0.6-3.2,0.9c0.3-0.8,0.5-1.9,0.5-3.4
		c0-1.5-0.2-2.6-0.5-3.4c-0.3-0.8-0.9-1.4-1.7-1.8c-0.4-0.2-1-0.4-1.9-0.5c-0.9-0.1-2.3-0.2-4-0.4c-0.3,0-0.7,0-1.3-0.1
		c-2.3-0.1-3.8-0.3-4.5-0.7c-0.1-0.1-0.2-0.2-0.3-0.2c0.5-0.2,0.8-0.8,0.8-1.3c0.1-1.5,0.2-3,0.3-4.4c0.9-0.2,2.3-0.2,4.1-0.1
		c2.4,0.2,3.9,0.5,4.7,1c0.7,0.4,1.1,1.1,1.1,2v0.2l2.7,0.2c0-0.9-0.1-1.8-0.3-2.4c1.3,0.3,2.5,0.6,3.7,0.9c0.5,0.2,0.8,0.8,0.8,1.3
		"/>
	<path class="st0" filter="url(#dropshadow)" d="M9.5,4C8.7,4,8.2,4.8,8.1,5.6c-0.5,5.1-0.5,10.4,0.1,15.5c0.1,0.8,0.7,1.5,1.5,1.5c8.7,0.4,16.2-0.5,22.2-2.3
		c0.4-0.2,0.7-0.7,0.8-1.3c0.3-3.8,0.4-7.5,0.1-11.3c-0.1-0.6-0.3-1.2-0.8-1.3C25.9,4.6,18.4,3.7,9.5,4z M5.6,2.3
		c11.7,0,21.1,1.2,28.4,3.3c0.5,0.2,0.9,0.8,0.9,1.5c0.3,4.1,0.3,8.3-0.1,12.4c-0.1,0.6-0.4,1.3-0.9,1.5c-7.2,2.2-16.5,3.5-28.1,3.3
		c-1.1-0.1-1.8-0.9-2-1.8C3,16.4,2.9,10.2,3.6,4.1C3.8,3.2,4.5,2.4,5.6,2.3z"/>
</g>
</svg>
