<svg version="1.1" xmlns="http://www.w3.org/2000/svg" xmlns:xlink="http://www.w3.org/1999/xlink" x="0px" y="0px"
	 viewBox="0 0 879.9 427.1" enable-background="new 0 0 879.9 427.1" xml:space="preserve">
<g id="flexibility-cloud">
	<path fill="#F7F5F5" d="M50.3,107c2.5,0,4.9,0.3,7.3,0.7c1.2-6.8,3.9-16.6,11.2-24.6c14.5-15.9,30.5-20,50.2-14.5
		c1.3-3.2,2.3-6,3.5-8.8c10.8-25.2,42.3-32.9,61-13.2c8.2,8.6,14.7,10.7,24.4,5.7c1.1-0.5,2.2-0.9,3.4-1.3c0.1-0.3,0.2-0.5,0.2-0.8
		c0.1-1.3,0.1-2.6,0.2-3.8v3.1c1.3-3.6,2.8-7.2,4.6-10.5c9.7-18.4,26.8-32.3,47.3-37.1c31.2-7.3,64.4,6.7,78.7,36.1
		c7.2,14.9,12.5,26.4,31.2,30.6c17.1,3.8,24.5,20.5,27.6,38.8c3-0.8,6-1.2,9.2-1.2c21.8,0,39.4,19,39.4,42.5
		c0,23.5-18.6,43.2-44.1,42.2c-2-0.1-3.8-0.3-5.6-0.7c-114.1,0.5-228.3,0.7-342.4,1c-2.4,0.5-4.8,0.7-7.3,0.7
		c-21.8,0-39.4-19-39.4-42.5C10.9,126,28.5,107,50.3,107z"/>

		<text transform="matrix(1 0 0 1 154.5059 101.1961)" fill="#F36D21" font-family="'chelthmitc_bk_btbold_italic'" font-size="32px">flexibility</text>
	<rect x="47.9" y="122.8" fill="none" width="360.9" height="53.6"/>
	<text transform="matrix(1 0 0 1 84.2228 131.9525)"><tspan x="0" y="0" font-family="'Open Sans'" font-size="12px">“I have the flexibility to work wherever and whenever I </tspan><tspan x="-30.1" y="17" font-family="'Open Sans'" font-size="12px">want as long as I deliver my work. I find that many companies say </tspan><tspan x="27" y="34" font-family="'Open Sans'" font-size="12px">they are flexible. Media Suite means it.” </tspan><tspan x="240" y="34" font-family="'Open Sans'" class="bold" font-size="12px">- Ed</tspan></text>
</g>
<g id="accountability-cloud">
	<path fill="#FFFFFF" d="M412.9,169.9c0-5.4,1.3-10.5,3.5-15.2c1-4.1,2.8-8,5.4-11.5c8.7-11.6,22.1-15.5,36-10.5
		c1.4,0.1,2.7,0.3,4,0.6c0.4-2.8,0.7-5.2,1.1-7.6c3.9-24.7,23.4-42.8,47.7-43.8c4.1-0.2,5.2-1.5,6-5.4c7-33.9,36.2-60.3,69-62.7
		c36.1-2.6,68.5,18.2,80,52.6c0.5,1.5,1.3,8.1,1.7,9.6c0,0,17.9,22,39.9,12.4c9.4-4.2,15.3-6.3,24.9-5.3c20.5,2.2,32.5,15,37.7,35.5
		c1.2-0.2,1.9-0.3,2.6-0.5c21.4-7,38.8-1.2,52.7,16.8c1,1.3,4,1.8,5.7,1.3c14.9-4.1,29.5,0.7,38.7,13.2c0.1,0.1,0.2,0.2,0.2,0.3
		c6.2,6.6,9.9,15.1,9.9,24.4c0,7-2.1,13.5-5.7,19.1c-2.6,5.5-6.9,10.1-12.8,13.3c-4.7,2.5-9.6,3.8-14.7,4.4
		c-2.4,0.4-4.9,0.6-7.5,0.6c-0.5,0-1.1,0-1.6,0c-1.7,0-3.4,0-5.2,0c-126-0.3-251.9-0.7-377.9-0.9c-12.5,0-22.1-5-29.6-14.1
		C417.5,189.6,412.9,180.3,412.9,169.9z"/>

		<text transform="matrix(1 0 0 1 513.5988 126.7881)" fill="#F36D21" font-family="'chelthmitc_bk_btbold_italic'" font-size="32px">accountability</text>
	<rect x="430.3" y="146.2" fill="none" width="421.8" height="68.2"/>
	<text transform="matrix(1 0 0 1 449.7962 155.3162)"><tspan x="0" y="0" font-family="'Open Sans'" font-size="12px">This isn’t just somewhere we work; it’s something we are all responsible </tspan><tspan x="5.8" y="17" font-family="'Open Sans'" font-size="12px">for building. Wherever you fit in, we are relying on your initiative, your </tspan><tspan x="2.3" y="34" font-family="'Open Sans'" font-size="12px">creativity and your drive to make it (and us) better at what we do. </tspan><tspan x="353.9" y="34" font-family="'Open Sans'" class="bold" font-size="12px">- Abi</tspan></text>
</g>
<g id="freedom-cloud">
	<path fill="#F7F5F5" d="M453.4,353c-1.2-9,2.1-16.9,8.5-23.4c7-7.2,15.5-8.6,24.9-6.9c1.9,0.4,5,0.1,6-1.3
		c10.8-14.3,24.6-17.2,40.9-12.5c-3.8-28,37.3-46.2,53.2-19.3c3.9-1.4,16.3-1.3,21.2-3.4c6.1-30.5,30.1-44.6,54.4-45
		c25.7-0.4,49,18,55.7,44.5c1.1,4.6,3,5.7,7.3,6.2c16.5,1.9,27,11.5,31.9,27.7c1,3.2,1.6,6.6,2.4,9.8c4-0.6,7.3-1.5,10.7-1.5
		c15.9-0.3,26.1,16.5,25.3,32.9c-1.1,21.7-18.3,29.7-31.6,29.7c-93.4,0.2-178.2,0.4-271.6,0.5c-3.4,0-6.9-0.4-10.2-0.6
		c-14.8-0.8-25.3-17.1-28.1-27C453.2,359.6,453,356.2,453.4,353z"/>
	<text transform="matrix(1 0 0 1 578.5059 320.1961)"><tspan x="0" y="0" fill="#F36D21" font-family="'chelthmitc_bk_btbold_italic'" font-size="32px">f</tspan><tspan x="11.5" y="0" fill="#F36D21" font-family="'chelthmitc_bk_btbold_italic'" font-size="32px">r</tspan><tspan x="26.1" y="0" fill="#F36D21" font-family="'chelthmitc_bk_btbold_italic'" font-size="32px">eedom</tspan></text>
	<rect x="505.7" y="332.8" fill="none" width="252" height="53.6"/>
	<text transform="matrix(1 0 0 1 514.4127 341.953)"><tspan x="0" y="0" font-family="'Open Sans'" font-size="12px">“I get to travel the world and work remotely. </tspan><tspan x="0.4" y="17" font-family="'Open Sans'" font-size="12px">That’s pretty rad.” </tspan><tspan x="97.4" y="17" font-family="'Open Sans'" class="bold" font-size="12px">- Patrick (based in Bali)</tspan></text>
</g>
<g id="trust-cloud">
	<path fill="#FFFFFF" d="M19.9,349.8c10.2-4.9,20.5-3.9,31,0.7c4.7-36.3,23.6-57.1,59.8-58.6c9.4-52.3,53.9-77.8,91.9-75.4
		c30.4,2,67.4,24.8,78.1,66.6l43.5,16.3c9-5.6,19.7-7.6,32.2-5.1c20.2,4,32,17.7,37.1,38.6c1.7-0.3,2.9-0.4,4.1-0.7
		c23.3-6.9,42.2-0.8,56.9,18.6c2.4,3.1,4.4,2.8,7.4,1.9c16.1-4.8,32,0.6,42.3,14.1c16.8,22,7.7,49.4-18.7,55.7
		c-6.4,1.5-13.2,2.1-19.8,2c-141.1-0.3-282.1-0.7-423.2-1c-11.9,0-21.8-4.5-30.1-13.1C-6.8,390.6-3.2,360.9,19.9,349.8z"/>
	<text transform="matrix(1 0 0 1 191.5059 324.1961)"><tspan x="0" y="0" fill="#F36D21" font-family="'chelthmitc_bk_btbold_italic'" font-size="32px">t</tspan><tspan x="11.6" y="0" fill="#F36D21" font-family="'chelthmitc_bk_btbold_italic'" font-size="32px">r</tspan><tspan x="26.2" y="0" fill="#F36D21" font-family="'chelthmitc_bk_btbold_italic'" font-size="32px">ust</tspan></text>
	<rect x="14.7" y="345.8" fill="none" width="462" height="81.3"/>
	<text transform="matrix(1 0 0 1 69.7931 354.953)"><tspan x="0" y="0" font-family="'Open Sans'" font-size="12px">“High performing teams are built on trust - and that trust rests on </tspan><tspan x="-46.1" y="17" font-family="'Open Sans'" font-size="12px">openness, respect and great communication.  We’re not necessarily looking for the </tspan><tspan x="-50.2" y="34" font-family="'Open Sans'" font-size="12px">best and brightest individuals – but the kind of people we can trust to bring the right </tspan><tspan x="-41.2" y="51" font-family="'Open Sans'" font-size="12px">diversity, knowledge and mindset to make our team better (not just bigger)” </tspan><tspan x="366.5" y="51" font-family="'Open Sans'" class="bold" font-size="12px">- Abi</tspan></text>
</g>
</svg>
