<svg version="1.1" xmlns="http://www.w3.org/2000/svg" xmlns:xlink="http://www.w3.org/1999/xlink" x="0px" y="0px"
	 viewBox="0 0 242.3 241.2" enable-background="new 0 0 242.3 241.2" xml:space="preserve">
<g id="help-bulb">
	<g id="help-bulb-bulb">
		<path id="B1XMLID_257_" fill="#FFFFFF" stroke="#000000" stroke-width="7.1743" stroke-miterlimit="10" d="M208.1,63.8
			c40.1,39.1,40.8,103.2,1.8,143.3s-103.2,40.8-143.3,1.8C42.9,185.8,33,154,36.8,123.5c6.5-32.2-17.3-29.7-9.4-51.7
			c3.4-9.5,10.5-17.5,18-25.2c7.2-7.4,15.1-13.7,23.8-18.1c22.6-11.4,23.3,15.6,51.9,7.8C151.7,31.4,184.2,40.5,208.1,63.8z"/>
		<path fill="#F3E064" d="M206,203.4c34.7-35.6,35.9-99.3-2.7-136.9c-23-22.4-57.7-27.7-85.9-24.3c-26.2,6.1-27.8-18.8-48.3-9.1
			c-7.9,3.7-15,9.3-21.4,15.9C41.1,55.8,34.8,62.9,32,71.6c-6.5,20.1,15.5,18.6,10.6,48.1c-2.5,28,3.7,62.2,26.5,84.4
			C107.6,241.7,171.3,239,206,203.4z M73.9,74.5c34.5-35.4,91.2-36.1,126.6-1.6s36.1,91.2,1.6,126.6s-91.2,36.1-126.6,1.6
			S39.4,109.9,73.9,74.5z"/>
		<g id="B1XMLID_243_">
			<g id="B1XMLID_254_">
				<path id="B1XMLID_255_" d="M6.4,6.9C12.7,0.4,23-1.7,31.5,1.5c1.3,0.5,2,0.8,3.3,1.3c1.5-0.5,3.1-0.9,4.7-1.2c0.1,0,0.1,0,0.1,0
					c0.9-0.2,1.5-0.3,1.8-0.3c2.4-0.4,4.8,0.1,6.9,1.2c0.6,0.3,1.2,0.7,1.6,1.2c0.9,0.8,1.6,1.8,2.1,3c0.4,0.6,0.9,1,1.6,1.3
					c0.4,0,0.7,0.1,1.1,0.1c0.3,0,0.4,0,0.7,0c0.1,0.1,0.1,0.1,0.2,0.2c0.8,0.2,1.6,0.5,2.4,0.9c0.5,0.3,1,0.6,1.4,1
					c1.1,0.9,1.9,2.1,2.3,3.5c0.7,1.2,1.8,1.6,2.7,1.8c0.4,0,0.9,0.1,1,0.1c0,0,0,0,0.1,0c1.2,0.2,2.2,0.5,3.2,1
					c2.1,1.1,3.5,3,3.8,5.2c0.5,4.8-3.6,9.1-7.7,11.3c-3.7,2.8-5.5,4.2-9.2,7c-8.5,7.7-17.5,16-22.1,26.7c-0.3,0.8-0.6,1.4-1,2.1
					c-2.3,3.9-7.2,6.7-11.6,4.5c-2-1-3.5-3.4-3.9-6.1c0-0.1,0-0.2,0-0.4l0,0c-0.1-0.7-0.5-2.2-2-3c-1.6-0.6-4.1-2.5-4.4-5.9
					c-0.2-2-0.6-2.8-3-4.5c-1-0.4-1.8-0.9-2.6-1.7c-1.4-1.4-2.3-3.3-2.7-5.4c-0.6-1.3-2.6-6.3-0.9-11.3c0.3-0.8,0.5-1.4,0.6-1.8
					c-0.2-0.5-0.3-0.8-0.5-1.4C-1.7,23.3,0.2,13.3,6.4,6.9z"/>
			</g>
			<g>
				<g>
					<path id="B1XMLID_252_" fill="#6B6263" d="M46.1,40.2c-9.7,5.6-16.9,13-22.7,22.5c0,0,0,0.1-0.1,0.1c-0.6,0.9-0.6,1.7-0.5,2.2
						c0.1,0.9,0.6,1.5,1,1.7c0.8,0.4,2.3,0.8,3.5-1.2c0.1-0.2,0.3-0.6,0.5-1.2C31.9,54.9,38.9,47.3,46.1,40.2z"/>
				</g>
				<g>
					<defs>
						<path id="B1SVGID_11_" d="M46.1,40.2c-9.7,5.6-16.9,13-22.7,22.5c0,0,0,0.1-0.1,0.1c-0.6,0.9-0.6,1.7-0.5,2.2
							c0.1,0.9,0.6,1.5,1,1.7c0.8,0.4,2.3,0.8,3.5-1.2c0.1-0.2,0.3-0.6,0.5-1.2C31.9,54.9,38.9,47.3,46.1,40.2z"/>
					</defs>
					<clipPath id="B1SVGID_1_">
						<use xlink:href="#B1SVGID_11_"  overflow="visible"/>
					</clipPath>
					<path id="B1XMLID_253_" clip-path="url(#B1SVGID_1_)" fill="#6B6263" d="M50.5,44.5c0,0,0.7-1.9-3.7-3.6s-5.2-2-4.7-5.7
						c0.5-3.8-2.6-4.3-4.4-3.2c-1.6,1-4.9-0.5-4.4-4.9c0.4-4.4-3.1-4.1-4.6-3.1c-2.3,1.5-3.8-2.1-2.9-4s-1.1-5.2-3.6-3.6
						C19.7,18,15,14.5,18,11.6c1.5-1.4-0.3-4.6-4.3-3S12.4,5.1,3.2,8.4C-6.1,11.7-8.3,36.2-8.3,36.2s7.9,18,8.6,18.6
						s10.1,9.8,10.1,9.8l9.1,10.1l12.1,2.2l22.3-22L50.5,44.5z"/>
				</g>
			</g>
			<g>
				<g>
					<path id="B1XMLID_250_" fill="#FFFFFF" d="M64.8,25.3c0.6-0.6,0.9-1.4,0.8-2.1c-0.1-0.7-0.5-1.2-1.1-1.6
						c-0.6-0.3-1.4-0.5-2.1-0.3C48,24.4,34.8,32.8,24.4,43c-3,2.9-5.8,6.4-8.3,9.9c-0.9,1.2-0.7,2.9,0.3,3.9c1,0.9,2.6,0.6,3.5-0.5
						c7.5-10,16.8-18.7,28.1-24.2c4.8-2.4,9.9-4.6,15.1-5.8C63.7,26,64.3,25.7,64.8,25.3z"/>
				</g>
				<g>
					<defs>
						<path id="B1SVGID_13_" d="M64.8,25.3c0.6-0.6,0.9-1.4,0.8-2.1c-0.1-0.7-0.5-1.2-1.1-1.6c-0.6-0.3-1.4-0.5-2.1-0.3
							C48,24.4,34.8,32.8,24.4,43c-3,2.9-5.8,6.4-8.3,9.9c-0.9,1.2-0.7,2.9,0.3,3.9c1,0.9,2.6,0.6,3.5-0.5
							c7.5-10,16.8-18.7,28.1-24.2c4.8-2.4,9.9-4.6,15.1-5.8C63.7,26,64.3,25.7,64.8,25.3z"/>
					</defs>
					<clipPath id="B1SVGID_2_">
						<use xlink:href="#B1SVGID_13_"  overflow="visible"/>
					</clipPath>
					<path id="B1XMLID_251_" clip-path="url(#B1SVGID_2_)" fill="#6B6263" d="M50.5,44.5c0,0,0.7-1.9-3.7-3.6s-5.2-2-4.7-5.7
						c0.5-3.8-2.6-4.3-4.4-3.2c-1.6,1-4.9-0.5-4.4-4.9c0.4-4.4-3.1-4.1-4.6-3.1c-2.3,1.5-3.8-2.1-2.9-4s-1.1-5.2-3.6-3.6
						C19.7,18,15,14.5,18,11.6c1.5-1.4-0.3-4.6-4.3-3S12.4,5.1,3.2,8.4C-6.1,11.7-8.3,36.2-8.3,36.2s7.9,18,8.6,18.6
						s10.1,9.8,10.1,9.8l9.1,10.1l12.1,2.2l22.3-22L50.5,44.5z"/>
				</g>
			</g>
			<g>
				<g>
					<path id="B1XMLID_248_" fill="#FFFFFF" d="M55.1,18c0.5-0.6,0.8-1.3,0.7-2c-0.1-0.6-0.5-1.2-1.1-1.5c-0.6-0.4-1.3-0.5-2.1-0.3
						c-13.8,2.7-26.5,10.2-36.3,19.9c-2.7,2.7-5.3,5.9-7.7,9.4C7.8,44.6,8,46.3,9,47.3c1,0.9,2.5,0.7,3.3-0.4
						c7-9.5,15.8-17.4,26.6-22.7c4.6-2.3,9.7-4.2,14.6-5.2C54.1,18.7,54.7,18.4,55.1,18z"/>
				</g>
				<g>
					<defs>
						<path id="B1SVGID_15_" d="M55.1,18c0.5-0.6,0.8-1.3,0.7-2c-0.1-0.6-0.5-1.2-1.1-1.5c-0.6-0.4-1.3-0.5-2.1-0.3
							c-13.8,2.7-26.5,10.2-36.3,19.9c-2.7,2.7-5.3,5.9-7.7,9.4C7.8,44.6,8,46.3,9,47.3c1,0.9,2.5,0.7,3.3-0.4
							c7-9.5,15.8-17.4,26.6-22.7c4.6-2.3,9.7-4.2,14.6-5.2C54.1,18.7,54.7,18.4,55.1,18z"/>
					</defs>
					<clipPath id="B1SVGID_3_">
						<use xlink:href="#B1SVGID_15_"  overflow="visible"/>
					</clipPath>
					<path id="B1XMLID_249_" clip-path="url(#B1SVGID_3_)" fill="#6B6263" d="M50.5,44.5c0,0,0.7-1.9-3.7-3.6s-5.2-2-4.7-5.7
						c0.5-3.8-2.6-4.3-4.4-3.2c-1.6,1-4.9-0.5-4.4-4.9c0.4-4.4-3.1-4.1-4.6-3.1c-2.3,1.5-3.8-2.1-2.9-4s-1.1-5.2-3.6-3.6
						C19.7,18,15,14.5,18,11.6c1.5-1.4-0.3-4.6-4.3-3S12.4,5.1,3.2,8.4C-6.1,11.7-8.3,36.2-8.3,36.2s7.9,18,8.6,18.6
						s10.1,9.8,10.1,9.8l9.1,10.1l12.1,2.2l22.3-22L50.5,44.5z"/>
				</g>
			</g>
			<g>
				<g>
					<path id="B1XMLID_246_" fill="#FFFFFF" d="M45.3,10.4c0.5-0.5,0.8-1.3,0.6-2c-0.2-0.6-0.6-1.1-1.2-1.5c-0.6-0.3-1.3-0.4-2-0.3
						l0,0c-0.1,0-0.6,0.1-1.3,0.3c-12.7,3.6-23.7,11.5-30.3,23.8c5.3-6.1,12.1-10.6,19-14.3c4.3-2.3,9.1-4.1,13.8-5.2
						C44.4,11,44.9,10.8,45.3,10.4z"/>
				</g>
				<g>
					<defs>
						<path id="B1SVGID_17_" d="M45.3,10.4c0.5-0.5,0.8-1.3,0.6-2c-0.2-0.6-0.6-1.1-1.2-1.5c-0.6-0.3-1.3-0.4-2-0.3l0,0
							c-0.1,0-0.6,0.1-1.3,0.3c-12.7,3.6-23.7,11.5-30.3,23.8c5.3-6.1,12.1-10.6,19-14.3c4.3-2.3,9.1-4.1,13.8-5.2
							C44.4,11,44.9,10.8,45.3,10.4z"/>
					</defs>
					<clipPath id="B1SVGID_4_">
						<use xlink:href="#B1SVGID_17_"  overflow="visible"/>
					</clipPath>
					<path id="B1XMLID_247_" clip-path="url(#B1SVGID_4_)" fill="#6B6263" d="M50.5,44.5c0,0,0.7-1.9-3.7-3.6s-5.2-2-4.7-5.7
						c0.5-3.8-2.6-4.3-4.4-3.2c-1.6,1-4.9-0.5-4.4-4.9c0.4-4.4-3.1-4.1-4.6-3.1c-2.3,1.5-3.8-2.1-2.9-4s-1.1-5.2-3.6-3.6
						C19.7,18,15,14.5,18,11.6c1.5-1.4-0.3-4.6-4.3-3S12.4,5.1,3.2,8.4C-6.1,11.7-8.3,36.2-8.3,36.2s7.9,18,8.6,18.6
						s10.1,9.8,10.1,9.8l9.1,10.1l12.1,2.2l22.3-22L50.5,44.5z"/>
				</g>
			</g>
			<g>
				<g>
					<path id="B1XMLID_244_" fill="#FFFFFF" d="M27,5.8c-5.9-1.1-12.1,1.1-16.2,5.4c-4.1,4.2-6.1,10.2-5,16c2.1-4.6,5.4-8.7,8.7-12.1
						C17.9,11.5,22.1,8,27,5.8z"/>
				</g>
				<g>
					<defs>
						<path id="B1SVGID_19_" d="M27,5.8c-5.9-1.1-12.1,1.1-16.2,5.4c-4.1,4.2-6.1,10.2-5,16c2.1-4.6,5.4-8.7,8.7-12.1
							C17.9,11.5,22.1,8,27,5.8z"/>
					</defs>
					<clipPath id="B1SVGID_5_">
						<use xlink:href="#B1SVGID_19_"  overflow="visible"/>
					</clipPath>
					<path id="B1XMLID_245_" clip-path="url(#B1SVGID_5_)" fill="#6B6263" d="M50.5,44.5c0,0,0.7-1.9-3.7-3.6s-5.2-2-4.7-5.7
						c0.5-3.8-2.6-4.3-4.4-3.2c-1.6,1-4.9-0.5-4.4-4.9c0.4-4.4-3.1-4.1-4.6-3.1c-2.3,1.5-3.8-2.1-2.9-4s-1.1-5.2-3.6-3.6
						C19.7,18,15,14.5,18,11.6c1.5-1.4-0.3-4.6-4.3-3S12.4,5.1,3.2,8.4C-6.1,11.7-8.3,36.2-8.3,36.2s7.9,18,8.6,18.6
						s10.1,9.8,10.1,9.8l9.1,10.1l12.1,2.2l22.3-22L50.5,44.5z"/>
				</g>
			</g>
		</g>
		<path id="B1XMLID_242_" fill="none" stroke="#000000" stroke-width="6.2775" stroke-miterlimit="10" d="M208.1,63.8
			c40.1,39.1,40.8,103.2,1.8,143.3s-103.2,40.8-143.3,1.8C42.9,185.8,33,154,36.8,123.5c6.5-32.2-17.3-29.7-9.4-51.7
			c3.4-9.5,10.5-17.5,18-25.2c7.2-7.4,15.1-13.7,23.8-18.1c22.6-11.4,23.3,15.6,51.9,7.8C151.7,31.4,184.2,40.5,208.1,63.8z"/>
	</g>
	<text transform="matrix(1 0 0 1 121.0281 208.7247)" font-family="'Open Sans'" class="bold" font-size="11px">- Ersin</text>
	<rect x="63.8" y="118.4" fill="none" width="150" height="76"/>
	<text transform="matrix(1 0 0 1 72.2026 126.7346)"><tspan x="0" y="0" font-family="'Open Sans'" font-size="11px">If we don’t understand why </tspan><tspan x="1.2" y="15" font-family="'Open Sans'" font-size="11px">something is done, we just </tspan><tspan x="-7.9" y="30" font-family="'Open Sans'" font-size="11px">ask so we can learn. The more </tspan><tspan x="-7.5" y="45" font-family="'Open Sans'" font-size="11px">we learn, the more we can do, </tspan><tspan x="2" y="60" font-family="'Open Sans'" font-size="11px">and the more we can surf.</tspan></text>
	<text transform="matrix(1 0 0 1 85.0674 84.3648)" enable-background="new    "><tspan x="0" y="0" fill="#F27C00" font-family="'CheltenhamITCbyBT-BoldItalic'" font-size="22px">asking for</tspan><tspan x="30.3" y="22" fill="#F27C00" font-family="'CheltenhamITCbyBT-BoldItalic'" font-size="22px">help</tspan></text>
</g>
</svg>
