<svg version="1.1" xmlns="http://www.w3.org/2000/svg" xmlns:xlink="http://www.w3.org/1999/xlink" x="0px" y="0px"
	 viewBox="0 0 234 260.4" enable-background="new 0 0 234 260.4" xml:space="preserve">
<g id="teamwork-bulb">
	<path id="b4XMLID_289_" fill="#FFFFFF" stroke="#000000" stroke-width="7.3432" stroke-miterlimit="10" d="M189.3,216.5
		C154.2,261.8,89,270,43.8,234.9C-1.5,199.8-9.7,134.6,25.4,89.4c20.7-26.7,52-40.6,83.4-40.2c33.5,2.9,28.2-21,51.5-15.6
		c10.1,2.3,19,8.7,27.7,15.4c8.3,6.5,15.7,13.7,21.2,22.1c14.2,21.7-13.1,25.5-1.9,53.7C215.8,155.4,210.3,189.5,189.3,216.5z"/>
	<path fill="#F3E064" d="M47.2,230.6c40.2,31.2,105.1,25,138.9-18.6c20.2-26,21.5-61.9,14.7-90.1c-9.3-25.9,15.9-30.5,3.7-50.2
		c-4.7-7.6-11.2-14.2-18.6-19.9c-7.7-5.9-15.6-11.5-24.8-13.4C140,34.2,144,56.3,113.4,54.8c-28.8,0.8-62.8,11-82.8,36.7
		C-3.2,134.9,7,199.4,47.2,230.6z M162.9,81.3c40,31,47.3,88.6,16.3,128.5s-88.6,47.3-128.5,16.3S3.4,137.5,34.4,97.6
		C65.3,57.6,122.9,50.3,162.9,81.3z"/>
	<g id="b4XMLID_275_">
		<g id="b4XMLID_286_">
			<path id="b4XMLID_287_" d="M223.8,4.8c7.3,5.7,10.7,15.9,8.4,24.9c-0.4,1.4-0.5,2.1-0.9,3.5c0.6,1.5,1.2,3,1.8,4.6
				c0,0.1,0,0.1,0,0.1c0.3,0.9,0.5,1.5,0.5,1.8c0.6,2.4,0.5,4.9-0.4,7.2c-0.3,0.6-0.6,1.3-1,1.8c-0.7,1.1-1.7,1.9-2.8,2.4
				c-0.6,0.4-1,1-1.1,1.8c0,0.4,0,0.7,0,1.1c0,0.3,0.1,0.4,0.1,0.7c-0.1,0.1-0.1,0.2-0.2,0.3c-0.1,0.9-0.3,1.7-0.7,2.5
				c-0.2,0.6-0.5,1.1-0.8,1.6c-0.8,1.2-1.9,2.2-3.3,2.7c-1.1,0.8-1.5,2.1-1.5,3c0,0.4,0,1,0,1.1c0,0,0,0,0,0.1
				c0,1.2-0.3,2.3-0.7,3.4c-0.9,2.3-2.7,4-4.8,4.4c-4.8,1.1-9.6-2.6-12.3-6.5c-3.3-3.4-4.9-5.1-8.2-8.5
				c-8.8-7.8-18.3-15.9-29.7-19.4c-0.8-0.2-1.5-0.5-2.3-0.8c-4.3-1.9-7.7-6.5-5.9-11.2c0.8-2.1,3.1-3.9,5.8-4.7
				c0.1,0,0.2-0.1,0.4-0.1l0,0c0.7-0.2,2.2-0.8,2.8-2.4c0.4-1.7,2.1-4.5,5.5-5.2c2-0.4,2.8-1,4.3-3.6c0.3-1,0.7-2,1.4-2.9
				c1.2-1.6,3.1-2.7,5.1-3.3c1.3-0.8,6.1-3.3,11.4-2.2c0.8,0.2,1.5,0.3,1.9,0.4c0.5-0.3,0.8-0.4,1.3-0.7
				C206.2-1.6,216.5-0.8,223.8,4.8z"/>
		</g>
		<g>
			<g>
				<path id="b4XMLID_284_" fill="#FFFFFF" d="M194.6,49c-6.8-9.2-15.2-15.7-25.5-20.5c0,0-0.1,0-0.1-0.1c-1-0.5-1.8-0.4-2.3-0.3
					c-0.9,0.2-1.4,0.8-1.6,1.2c-0.3,0.9-0.5,2.5,1.7,3.4c0.2,0.1,0.7,0.2,1.3,0.4C177.9,36.2,186.5,42.5,194.6,49z"/>
			</g>
			<g>
				<defs>
					<path id="b4SVGID_11_" d="M194.6,49c-6.8-9.2-15.2-15.7-25.5-20.5c0,0-0.1,0-0.1-0.1c-1-0.5-1.8-0.4-2.3-0.3
						c-0.9,0.2-1.4,0.8-1.6,1.2c-0.3,0.9-0.5,2.5,1.7,3.4c0.2,0.1,0.7,0.2,1.3,0.4C177.9,36.2,186.5,42.5,194.6,49z"/>
				</defs>
				<clipPath id="b4SVGID_1_">
					<use xlink:href="#b4SVGID_11_"  overflow="visible"/>
				</clipPath>
				<path id="b4XMLID_285_" clip-path="url(#b4SVGID_1_)" fill="#FFFFFF" d="M190.7,54c0,0,2,0.5,3.2-4.1s1.4-5.5,5.3-5.4
					c3.9,0.1,4.1-3.2,2.7-4.8c-1.2-1.5-0.1-5,4.4-5.1s3.8-3.6,2.7-5c-1.8-2.2,1.7-4.1,3.7-3.4c2,0.7,5.2-1.7,3.2-4
					c-1.9-2.3,1.1-7.5,4.4-4.8c1.6,1.4,4.7-0.8,2.6-4.7c-2.1-3.8,3.4-1.7-1-10.7s-29.6-8.5-29.6-8.5S174.9,3.7,174.4,4.4
					c-0.6,0.7-8.8,11.4-8.8,11.4l-9.3,10.4l-0.8,12.5l25,20.1L190.7,54z"/>
			</g>
		</g>
		<g>
			<g>
				<path id="b4XMLID_282_" fill="#7A6F72" d="M211.9,66.3c0.7,0.5,1.5,0.7,2.3,0.5c0.7-0.2,1.2-0.6,1.5-1.3c0.3-0.7,0.3-1.4,0.1-2.2
					c-4.9-14.3-14.9-26.8-26.4-36.1c-3.3-2.7-7.2-5.2-11-7.3c-1.3-0.7-3.1-0.4-3.9,0.7c-0.8,1.1-0.4,2.7,1,3.5
					c11,6.4,20.9,14.9,27.9,25.7c3,4.6,5.8,9.6,7.6,14.7C211,65.3,211.4,65.9,211.9,66.3z"/>
			</g>
			<g>
				<defs>
					<path id="b4SVGID_13_" d="M211.9,66.3c0.7,0.5,1.5,0.7,2.3,0.5c0.7-0.2,1.2-0.6,1.5-1.3c0.3-0.7,0.3-1.4,0.1-2.2
						c-4.9-14.3-14.9-26.8-26.4-36.1c-3.3-2.7-7.2-5.2-11-7.3c-1.3-0.7-3.1-0.4-3.9,0.7c-0.8,1.1-0.4,2.7,1,3.5
						c11,6.4,20.9,14.9,27.9,25.7c3,4.6,5.8,9.6,7.6,14.7C211,65.3,211.4,65.9,211.9,66.3z"/>
				</defs>
				<clipPath id="b4SVGID_2_">
					<use xlink:href="#b4SVGID_13_"  overflow="visible"/>
				</clipPath>
				<path id="b4XMLID_283_" clip-path="url(#b4SVGID_2_)" fill="#FFFFFF" d="M190.7,54c0,0,2,0.5,3.2-4.1s1.4-5.5,5.3-5.4
					c3.9,0.1,4.1-3.2,2.7-4.8c-1.2-1.5-0.1-5,4.4-5.1s3.8-3.6,2.7-5c-1.8-2.2,1.7-4.1,3.7-3.4c2,0.7,5.2-1.7,3.2-4
					c-1.9-2.3,1.1-7.5,4.4-4.8c1.6,1.4,4.7-0.8,2.6-4.7c-2.1-3.8,3.4-1.7-1-10.7s-29.6-8.5-29.6-8.5S174.9,3.7,174.4,4.4
					c-0.6,0.7-8.8,11.4-8.8,11.4l-9.3,10.4l-0.8,12.5l25,20.1L190.7,54z"/>
			</g>
		</g>
		<g>
			<g>
				<path id="b4XMLID_280_" fill="#7A6F72" d="M218.2,55.6c0.6,0.5,1.4,0.7,2.2,0.5c0.6-0.2,1.1-0.6,1.4-1.3c0.3-0.6,0.3-1.4,0.1-2.1
					C217.6,39,208.4,27,197.4,18.1c-3.1-2.5-6.7-4.7-10.4-6.8c-1.3-0.7-3-0.3-3.8,0.8s-0.4,2.6,0.8,3.3c10.5,6,19.5,14,26.1,24.4
					c2.8,4.4,5.4,9.3,7,14.2C217.3,54.7,217.7,55.2,218.2,55.6z"/>
			</g>
			<g>
				<defs>
					<path id="b4SVGID_15_" d="M218.2,55.6c0.6,0.5,1.4,0.7,2.2,0.5c0.6-0.2,1.1-0.6,1.4-1.3c0.3-0.6,0.3-1.4,0.1-2.1
						C217.6,39,208.4,27,197.4,18.1c-3.1-2.5-6.7-4.7-10.4-6.8c-1.3-0.7-3-0.3-3.8,0.8s-0.4,2.6,0.8,3.3c10.5,6,19.5,14,26.1,24.4
						c2.8,4.4,5.4,9.3,7,14.2C217.3,54.7,217.7,55.2,218.2,55.6z"/>
				</defs>
				<clipPath id="b4SVGID_3_">
					<use xlink:href="#b4SVGID_15_"  overflow="visible"/>
				</clipPath>
				<path id="b4XMLID_281_" clip-path="url(#b4SVGID_3_)" fill="#FFFFFF" d="M190.7,54c0,0,2,0.5,3.2-4.1s1.4-5.5,5.3-5.4
					c3.9,0.1,4.1-3.2,2.7-4.8c-1.2-1.5-0.1-5,4.4-5.1s3.8-3.6,2.7-5c-1.8-2.2,1.7-4.1,3.7-3.4c2,0.7,5.2-1.7,3.2-4
					c-1.9-2.3,1.1-7.5,4.4-4.8c1.6,1.4,4.7-0.8,2.6-4.7c-2.1-3.8,3.4-1.7-1-10.7s-29.6-8.5-29.6-8.5S174.9,3.7,174.4,4.4
					c-0.6,0.7-8.8,11.4-8.8,11.4l-9.3,10.4l-0.8,12.5l25,20.1L190.7,54z"/>
			</g>
		</g>
		<g>
			<g>
				<path id="b4XMLID_278_" fill="#7A6F72" d="M224.8,44.7c0.6,0.5,1.4,0.6,2.2,0.4c0.6-0.2,1.1-0.7,1.3-1.4c0.3-0.7,0.3-1.4,0.1-2.1
					l0,0c0-0.1-0.2-0.6-0.5-1.3c-5.1-12.5-14.5-22.7-27.7-28.1c6.8,4.7,12.1,11,16.7,17.7c2.8,4.1,5.3,8.8,6.9,13.4
					C224,43.9,224.4,44.4,224.8,44.7z"/>
			</g>
			<g>
				<defs>
					<path id="b4SVGID_17_" d="M224.8,44.7c0.6,0.5,1.4,0.6,2.2,0.4c0.6-0.2,1.1-0.7,1.3-1.4c0.3-0.7,0.3-1.4,0.1-2.1l0,0
						c0-0.1-0.2-0.6-0.5-1.3c-5.1-12.5-14.5-22.7-27.7-28.1c6.8,4.7,12.1,11,16.7,17.7c2.8,4.1,5.3,8.8,6.9,13.4
						C224,43.9,224.4,44.4,224.8,44.7z"/>
				</defs>
				<clipPath id="b4SVGID_4_">
					<use xlink:href="#b4SVGID_17_"  overflow="visible"/>
				</clipPath>
				<path id="b4XMLID_279_" clip-path="url(#b4SVGID_4_)" fill="#FFFFFF" d="M190.7,54c0,0,2,0.5,3.2-4.1s1.4-5.5,5.3-5.4
					c3.9,0.1,4.1-3.2,2.7-4.8c-1.2-1.5-0.1-5,4.4-5.1s3.8-3.6,2.7-5c-1.8-2.2,1.7-4.1,3.7-3.4c2,0.7,5.2-1.7,3.2-4
					c-1.9-2.3,1.1-7.5,4.4-4.8c1.6,1.4,4.7-0.8,2.6-4.7c-2.1-3.8,3.4-1.7-1-10.7s-29.6-8.5-29.6-8.5S174.9,3.7,174.4,4.4
					c-0.6,0.7-8.8,11.4-8.8,11.4l-9.3,10.4l-0.8,12.5l25,20.1L190.7,54z"/>
			</g>
		</g>
		<g>
			<g>
				<path id="b4XMLID_276_" fill="#7A6F72" d="M227.3,25.6c0.4-6.2-2.5-12.1-7.4-15.9c-4.7-3.7-11.1-5-16.9-3.3
					c4.9,1.6,9.5,4.4,13.3,7.4C220.4,17,224.5,20.9,227.3,25.6z"/>
			</g>
			<g>
				<defs>
					<path id="b4SVGID_19_" d="M227.3,25.6c0.4-6.2-2.5-12.1-7.4-15.9c-4.7-3.7-11.1-5-16.9-3.3c4.9,1.6,9.5,4.4,13.3,7.4
						C220.4,17,224.5,20.9,227.3,25.6z"/>
				</defs>
				<clipPath id="b4SVGID_5_">
					<use xlink:href="#b4SVGID_19_"  overflow="visible"/>
				</clipPath>
				<path id="b4XMLID_277_" clip-path="url(#b4SVGID_5_)" fill="#FFFFFF" d="M190.7,54c0,0,2,0.5,3.2-4.1s1.4-5.5,5.3-5.4
					c3.9,0.1,4.1-3.2,2.7-4.8c-1.2-1.5-0.1-5,4.4-5.1s3.8-3.6,2.7-5c-1.8-2.2,1.7-4.1,3.7-3.4c2,0.7,5.2-1.7,3.2-4
					c-1.9-2.3,1.1-7.5,4.4-4.8c1.6,1.4,4.7-0.8,2.6-4.7c-2.1-3.8,3.4-1.7-1-10.7s-29.6-8.5-29.6-8.5S174.9,3.7,174.4,4.4
					c-0.6,0.7-8.8,11.4-8.8,11.4l-9.3,10.4l-0.8,12.5l25,20.1L190.7,54z"/>
			</g>
		</g>
	</g>
	<path id="b4XMLID_274_" fill="none" stroke="#000000" stroke-width="6.4253" stroke-miterlimit="10" d="M189.3,216.5
		C154.2,261.8,89,270,43.8,234.9C-1.5,199.8-9.7,134.6,25.4,89.4c20.7-26.7,52-40.6,83.4-40.2c33.5,2.9,28.2-21,51.5-15.6
		c10.1,2.3,19,8.7,27.7,15.4c8.3,6.5,15.7,13.7,21.2,22.1c14.2,21.7-13.1,25.5-1.9,53.7C215.8,155.4,210.3,189.5,189.3,216.5z"/>
	<g id="text_1_">
		<text transform="matrix(1 0 0 1 78.7148 227.2919)" font-family="'Open Sans'" class="bold" font-size="11px">- Jonathan</text>

			<text transform="matrix(1 0 0 1 55.7239 101.932)" fill="#F27C00" font-family="'chelthmitc_bk_btbold_italic'" font-size="22px">teamwork</text>
		<rect x="31.5" y="114.5" fill="none" width="150" height="98.4"/>
		<text transform="matrix(1 0 0 1 62.7688 122.9019)"><tspan x="0" y="0" font-family="'Open Sans'" font-size="11px">It’s a collaborative </tspan><tspan x="-22.3" y="14" font-family="'Open Sans'" font-size="11px">organisation; if one person </tspan><tspan x="-31.1" y="28" font-family="'Open Sans'" font-size="11px">has a problem, we are all keen </tspan><tspan x="-23" y="42" font-family="'Open Sans'" font-size="11px">to help out. We deliver as a </tspan><tspan x="-13.3" y="56" font-family="'Open Sans'" font-size="11px">team, not as a series of </tspan><tspan x="-20.4" y="70" font-family="'Open Sans'" font-size="11px">individuals, which is a very </tspan><tspan x="-11.4" y="84" font-family="'Open Sans'" font-size="11px">refreshing experience.</tspan></text>
	</g>
</g>
</svg>
