<svg version="1.1" xmlns="http://www.w3.org/2000/svg" xmlns:xlink="http://www.w3.org/1999/xlink" x="0px" y="0px"
	 viewBox="0 0 320.7 246.7" enable-background="new 0 0 320.7 246.7" xml:space="preserve">
<g id="improving-bulb">
	<path id="b2XMLID_321_" fill="#FFFFFF" stroke="#000000" stroke-width="8.4318" stroke-miterlimit="10" d="M248.5,15.8
		c59.4,28.2,84.7,99.3,56.4,158.7c-28.2,59.4-99.3,84.7-158.7,56.4c-35.1-16.7-58.3-48.3-65.5-83.7c-5-38.3-30.5-26.4-30.1-53.9
		c0.2-11.9,5.1-23.5,10.4-34.8c5.2-10.9,11.6-21,19.6-29.2c20.8-21.2,31.8,8.5,60.7-11C173.5,1.1,213-1.1,248.5,15.8z"/>
	<path fill="#F3E064" d="M299.2,171.8c25.1-52.8,2.2-124.1-55-151.3c-34.1-16.2-74.7-8.9-104.7,5.6c-26.8,16.8-38.1-10.3-57.2,8.2
		c-7.4,7.2-13.2,16.1-17.8,25.8c-4.8,10-9.1,20.4-8.9,31.1C56,116,79.9,106,85.7,140.7c7.9,32.1,27.7,67.8,61.5,83.9
		C204.3,251.8,274.1,224.5,299.2,171.8z M103.3,78.7C128.2,26.2,191,3.9,243.5,28.9s74.8,87.7,49.8,140.2
		c-24.9,52.5-87.7,74.8-140.2,49.8S78.4,131.1,103.3,78.7z"/>
	<g id="b2XMLID_307_">
		<g id="b2XMLID_318_">
			<path id="b2XMLID_319_" d="M2.5,29.2c4.6-9.6,15.2-15.9,25.8-15.6c1.7,0.1,2.5,0.1,4.2,0.1c1.5-1.1,3.1-2.1,4.7-3.1
				c0.1,0,0.1,0,0.1-0.1c1-0.6,1.6-0.9,1.8-1c2.5-1.3,5.4-1.8,8.2-1.3c0.8,0.1,1.6,0.4,2.3,0.7c1.4,0.6,2.5,1.4,3.4,2.5
				c0.6,0.6,1.4,0.8,2.3,0.8c0.4-0.1,0.8-0.2,1.2-0.3c0.3-0.1,0.4-0.2,0.7-0.3c0.1,0.1,0.2,0.1,0.3,0.2c1-0.1,2,0,3,0.1
				c0.7,0.1,1.3,0.3,2,0.5c1.6,0.6,2.9,1.6,3.9,3c1.2,1.1,2.7,1.1,3.7,1c0.5-0.1,1.1-0.3,1.2-0.3c0,0,0,0,0.1,0
				c1.4-0.2,2.7-0.3,4-0.1c2.8,0.5,5.1,2,6.2,4.3c2.4,5.1-0.6,11.4-4.3,15.4c-3,4.6-4.6,6.8-7.6,11.3c-6.6,11.8-13.4,24.5-14.4,38.1
				c-0.1,1-0.2,1.8-0.3,2.7c-1.1,5.3-5.4,10.2-11.2,9.3c-2.6-0.4-5.2-2.5-6.6-5.4c-0.1-0.1-0.1-0.3-0.2-0.4l0,0
				c-0.4-0.7-1.5-2.3-3.3-2.6c-2-0.1-5.5-1.3-7.2-4.9c-1-2.1-1.8-2.9-5.1-3.9c-1.2,0-2.4-0.3-3.6-0.9c-2.1-1-3.8-2.8-5-4.9
				c-1.2-1.2-5.2-6-5.3-12.2c0-1,0-1.7,0-2.3c-0.4-0.5-0.7-0.8-1.1-1.3C-0.3,50.4-2,38.7,2.5,29.2z"/>
		</g>
		<g>
			<g>
				<path id="b2XMLID_316_" fill="#6B6263" d="M59.4,51c-8.7,9.9-13.8,20.9-16.7,33.7c0,0.1,0,0.1,0,0.2c-0.3,1.2,0,2.1,0.3,2.7
					c0.5,0.9,1.2,1.4,1.8,1.5c1,0.1,2.9,0,3.4-2.7c0.1-0.3,0.1-0.8,0.2-1.5C49.1,72.9,54.1,61.7,59.4,51z"/>
			</g>
			<g>
				<defs>
					<path id="b2SVGID_11_" d="M59.4,51c-8.7,9.9-13.8,20.9-16.7,33.7c0,0.1,0,0.1,0,0.2c-0.3,1.2,0,2.1,0.3,2.7
						c0.5,0.9,1.2,1.4,1.8,1.5c1,0.1,2.9,0,3.4-2.7c0.1-0.3,0.1-0.8,0.2-1.5C49.1,72.9,54.1,61.7,59.4,51z"/>
				</defs>
				<clipPath id="b2SVGID_1_">
					<use xlink:href="#b2SVGID_11_"  overflow="visible"/>
				</clipPath>
				<path id="b2XMLID_317_" clip-path="url(#b2SVGID_1_)" fill="#6B6263" d="M65.9,54.1c0,0,0-2.4-5.4-2.6s-6.5-0.2-7.4-4.6
					s-4.6-3.8-6.1-1.8c-1.4,1.8-5.6,1.3-6.8-3.7c-1.2-5.1-5-3.4-6.3-1.7c-2,2.5-5-0.9-4.8-3.3c0.3-2.4-3.2-5.4-5.3-2.6
					s-8.7,0.6-6.5-3.7c1.1-2.2-2.1-5-5.9-1.7S8.6,25-0.4,32.2c-9.1,7.2-2.2,35.3-2.2,35.3s15.7,17,16.6,17.4
					c1,0.5,14.9,7.1,14.9,7.1l14,7.8l14.3-2.2l16.4-33L65.9,54.1z"/>
			</g>
		</g>
		<g>
			<g>
				<path id="b2XMLID_314_" fill="#FFFFFF" d="M74.4,27.3c0.4-0.9,0.5-1.9,0.1-2.7c-0.4-0.7-1-1.2-1.8-1.3c-0.8-0.2-1.7,0-2.4,0.5
					c-14.8,9-26.4,23.2-34,38.5c-2.2,4.4-4,9.4-5.4,14.1c-0.5,1.7,0.3,3.6,1.8,4.2c1.5,0.7,3.1-0.3,3.6-1.9
					c4.5-13.9,11.6-27.2,22-37.6c4.5-4.4,9.3-8.9,14.6-12.2C73.6,28.6,74.1,28,74.4,27.3z"/>
			</g>
			<g>
				<defs>
					<path id="b2SVGID_13_" d="M74.4,27.3c0.4-0.9,0.5-1.9,0.1-2.7c-0.4-0.7-1-1.2-1.8-1.3c-0.8-0.2-1.7,0-2.4,0.5
						c-14.8,9-26.4,23.2-34,38.5c-2.2,4.4-4,9.4-5.4,14.1c-0.5,1.7,0.3,3.6,1.8,4.2c1.5,0.7,3.1-0.3,3.6-1.9
						c4.5-13.9,11.6-27.2,22-37.6c4.5-4.4,9.3-8.9,14.6-12.2C73.6,28.6,74.1,28,74.4,27.3z"/>
				</defs>
				<clipPath id="b2SVGID_2_">
					<use xlink:href="#b2SVGID_13_"  overflow="visible"/>
				</clipPath>
				<path id="b2XMLID_315_" clip-path="url(#b2SVGID_2_)" fill="#6B6263" d="M65.9,54.1c0,0,0-2.4-5.4-2.6s-6.5-0.2-7.4-4.6
					s-4.6-3.8-6.1-1.8c-1.4,1.8-5.6,1.3-6.8-3.7c-1.2-5.1-5-3.4-6.3-1.7c-2,2.5-5-0.9-4.8-3.3c0.3-2.4-3.2-5.4-5.3-2.6
					s-8.7,0.6-6.5-3.7c1.1-2.2-2.1-5-5.9-1.7S8.6,25-0.4,32.2c-9.1,7.2-2.2,35.3-2.2,35.3s15.7,17,16.6,17.4
					c1,0.5,14.9,7.1,14.9,7.1l14,7.8l14.3-2.2l16.4-33L65.9,54.1z"/>
			</g>
		</g>
		<g>
			<g>
				<path id="b2XMLID_312_" fill="#FFFFFF" d="M61,22.9c0.4-0.8,0.4-1.8,0-2.5s-1-1.1-1.8-1.3c-0.8-0.2-1.7,0-2.4,0.4
					C42.5,27.7,31.2,41,24,55.5c-2,4.1-3.7,8.6-5,13.3c-0.5,1.6,0.4,3.4,1.8,4.1c1.5,0.7,3.1-0.2,3.6-1.7
					c4.2-13.2,11-25.3,20.9-35.3c4.2-4.2,9.1-8.3,14.2-11.4C60.1,24.1,60.7,23.6,61,22.9z"/>
			</g>
			<g>
				<defs>
					<path id="b2SVGID_15_" d="M61,22.9c0.4-0.8,0.4-1.8,0-2.5s-1-1.1-1.8-1.3c-0.8-0.2-1.7,0-2.4,0.4C42.5,27.7,31.2,41,24,55.5
						c-2,4.1-3.7,8.6-5,13.3c-0.5,1.6,0.4,3.4,1.8,4.1c1.5,0.7,3.1-0.2,3.6-1.7c4.2-13.2,11-25.3,20.9-35.3
						c4.2-4.2,9.1-8.3,14.2-11.4C60.1,24.1,60.7,23.6,61,22.9z"/>
				</defs>
				<clipPath id="b2SVGID_3_">
					<use xlink:href="#b2SVGID_15_"  overflow="visible"/>
				</clipPath>
				<path id="b2XMLID_313_" clip-path="url(#b2SVGID_3_)" fill="#6B6263" d="M65.9,54.1c0,0,0-2.4-5.4-2.6s-6.5-0.2-7.4-4.6
					s-4.6-3.8-6.1-1.8c-1.4,1.8-5.6,1.3-6.8-3.7c-1.2-5.1-5-3.4-6.3-1.7c-2,2.5-5-0.9-4.8-3.3c0.3-2.4-3.2-5.4-5.3-2.6
					s-8.7,0.6-6.5-3.7c1.1-2.2-2.1-5-5.9-1.7S8.6,25-0.4,32.2c-9.1,7.2-2.2,35.3-2.2,35.3s15.7,17,16.6,17.4
					c1,0.5,14.9,7.1,14.9,7.1l14,7.8l14.3-2.2l16.4-33L65.9,54.1z"/>
			</g>
		</g>
		<g>
			<g>
				<path id="b2XMLID_310_" fill="#FFFFFF" d="M47.1,18.2c0.4-0.8,0.4-1.7-0.1-2.5c-0.4-0.6-1.1-1-1.9-1.2c-0.8-0.1-1.6,0-2.4,0.4l0,0
					c-0.1,0.1-0.6,0.3-1.4,0.8c-12.7,8.8-22,21.8-24.7,37.9c3.5-8.8,9.4-16.3,15.7-23.1c3.9-4.2,8.6-8.1,13.4-11
					C46.4,19.3,46.8,18.8,47.1,18.2z"/>
			</g>
			<g>
				<defs>
					<path id="b2SVGID_17_" d="M47.1,18.2c0.4-0.8,0.4-1.7-0.1-2.5c-0.4-0.6-1.1-1-1.9-1.2c-0.8-0.1-1.6,0-2.4,0.4l0,0
						c-0.1,0.1-0.6,0.3-1.4,0.8c-12.7,8.8-22,21.8-24.7,37.9c3.5-8.8,9.4-16.3,15.7-23.1c3.9-4.2,8.6-8.1,13.4-11
						C46.4,19.3,46.8,18.8,47.1,18.2z"/>
				</defs>
				<clipPath id="b2SVGID_4_">
					<use xlink:href="#b2SVGID_17_"  overflow="visible"/>
				</clipPath>
				<path id="b2XMLID_311_" clip-path="url(#b2SVGID_4_)" fill="#6B6263" d="M65.9,54.1c0,0,0-2.4-5.4-2.6s-6.5-0.2-7.4-4.6
					s-4.6-3.8-6.1-1.8c-1.4,1.8-5.6,1.3-6.8-3.7c-1.2-5.1-5-3.4-6.3-1.7c-2,2.5-5-0.9-4.8-3.3c0.3-2.4-3.2-5.4-5.3-2.6
					s-8.7,0.6-6.5-3.7c1.1-2.2-2.1-5-5.9-1.7S8.6,25-0.4,32.2c-9.1,7.2-2.2,35.3-2.2,35.3s15.7,17,16.6,17.4
					c1,0.5,14.9,7.1,14.9,7.1l14,7.8l14.3-2.2l16.4-33L65.9,54.1z"/>
			</g>
		</g>
		<g>
			<g>
				<path id="b2XMLID_308_" fill="#FFFFFF" d="M25,20.1c-7,1-13,5.8-16,12.2C6.1,38.5,6.1,46,9.5,52c0.6-5.9,2.6-11.7,5.1-16.8
					C17.1,29.9,20.5,24.4,25,20.1z"/>
			</g>
			<g>
				<defs>
					<path id="b2SVGID_19_" d="M25,20.1c-7,1-13,5.8-16,12.2C6.1,38.5,6.1,46,9.5,52c0.6-5.9,2.6-11.7,5.1-16.8
						C17.1,29.9,20.5,24.4,25,20.1z"/>
				</defs>
				<clipPath id="b2SVGID_5_">
					<use xlink:href="#b2SVGID_19_"  overflow="visible"/>
				</clipPath>
				<path id="b2XMLID_309_" clip-path="url(#b2SVGID_5_)" fill="#6B6263" d="M65.9,54.1c0,0,0-2.4-5.4-2.6s-6.5-0.2-7.4-4.6
					s-4.6-3.8-6.1-1.8c-1.4,1.8-5.6,1.3-6.8-3.7c-1.2-5.1-5-3.4-6.3-1.7c-2,2.5-5-0.9-4.8-3.3c0.3-2.4-3.2-5.4-5.3-2.6
					s-8.7,0.6-6.5-3.7c1.1-2.2-2.1-5-5.9-1.7S8.6,25-0.4,32.2c-9.1,7.2-2.2,35.3-2.2,35.3s15.7,17,16.6,17.4
					c1,0.5,14.9,7.1,14.9,7.1l14,7.8l14.3-2.2l16.4-33L65.9,54.1z"/>
			</g>
		</g>
	</g>
	<path id="b2XMLID_306_" fill="none" stroke="#000000" stroke-width="7.3779" stroke-miterlimit="10" d="M248.5,15.8
		c59.4,28.2,84.7,99.3,56.4,158.7c-28.2,59.4-99.3,84.7-158.7,56.4c-35.1-16.7-58.3-48.3-65.5-83.7c-5-38.3-30.5-26.4-30.1-53.9
		c0.2-11.9,5.1-23.5,10.4-34.8c5.2-10.9,11.6-21,19.6-29.2c20.8-21.2,31.8,8.5,60.7-11C173.5,1.1,213-1.1,248.5,15.8z"/>
	<text transform="matrix(1 0 0 1 176.532 209.5639)" font-family="'Open Sans'" class="bold" font-size="11px">- Richie</text>
	<rect x="109.1" y="75.2" fill="none" width="181" height="126"/>
	<text transform="matrix(1 0 0 1 116.2032 83.5742)"><tspan x="0" y="0" font-family="'Open Sans'" font-size="11px">While we have had a great culture </tspan><tspan x="4.8" y="15" font-family="'Open Sans'" font-size="11px">up until this point, an absolutely </tspan><tspan x="-6.1" y="30" font-family="'Open Sans'" font-size="11px">essential part of everything at Media </tspan><tspan x="-0.7" y="45" font-family="'Open Sans'" font-size="11px">Suite is about positive change and </tspan><tspan x="-0.7" y="60" font-family="'Open Sans'" font-size="11px">growth. Learning what’s going well </tspan><tspan x="1.3" y="75" font-family="'Open Sans'" font-size="11px">and celebrating it, learning what’s </tspan><tspan x="-3.5" y="90" font-family="'Open Sans'" font-size="11px">not going so well and changing it to </tspan><tspan x="21.2" y="105" font-family="'Open Sans'" font-size="11px">try to make things better.</tspan></text>
	<text transform="matrix(1 0 0 1 142.126 59.204)" enable-background="new    "><tspan x="0" y="0" fill="#F27C00" font-family="'chelthmitc_bk_btbold_italic'" font-size="22px">imp</tspan><tspan x="40.4" y="0" fill="#F27C00" font-family="'chelthmitc_bk_btbold_italic'" font-size="22px">r</tspan><tspan x="50.5" y="0" fill="#F27C00" font-family="'chelthmitc_bk_btbold_italic'" font-size="22px">oving</tspan></text>
</g>
</svg>
