<svg version="1.1" xmlns="http://www.w3.org/2000/svg" xmlns:xlink="http://www.w3.org/1999/xlink" x="0px" y="0px"
	 viewBox="0 0 247.7 210.7" enable-background="new 0 0 247.7 210.7" xml:space="preserve">
<g id="passion-bulb">
	<path id="b3XMLID_273_" fill="#FFFFFF" stroke="#000000" stroke-width="6.8227" stroke-miterlimit="10" d="M45.7,179.6
		C1.7,149.7-9.8,89.8,20,45.7C49.9,1.7,109.8-9.8,153.9,20c26,17.7,40.7,45.8,42.2,75c-0.7,31.2,21.1,24.9,17.5,46.8
		c-1.6,9.5-6.9,18.2-12.6,26.6c-5.5,8.1-11.8,15.4-19.3,21c-19.3,14.4-24.4-10.7-49.9,1.4C103.9,200.5,72,197.4,45.7,179.6z"/>
	<path fill="#F3E064" d="M24.3,48.6c-26.5,39.1-16.9,99,25.5,127.7c25.3,17.2,58.7,16.3,84.5,8.3c23.5-10.1,29.2,12.9,46.8,0.5
		c6.8-4.8,12.5-11.2,17.4-18.4c5-7.4,9.8-15.2,10.9-23.8c2.7-19.9-17.6-14.8-18-43.3C189,73,177.5,42,152.5,25
		C110-3.8,50.8,9.5,24.3,48.6z M169.5,147.1c-26.4,38.9-79.3,49.1-118.2,22.7C12.4,143.4,2.2,90.5,28.6,51.6s79.3-49.1,118.2-22.7
		C185.8,55.2,195.9,108.2,169.5,147.1z"/>
	<g id="b3XMLID_259_">
		<g id="b3XMLID_270_">
			<path id="b3XMLID_271_" d="M244.1,199c-4.9,7.1-14.1,10.8-22.6,9.3c-1.3-0.3-2-0.4-3.3-0.6c-1.3,0.7-2.7,1.3-4.2,1.9h-0.1
				c-0.9,0.3-1.4,0.5-1.6,0.6c-2.2,0.7-4.5,0.8-6.7,0c-0.6-0.2-1.2-0.5-1.7-0.8c-1-0.6-1.8-1.4-2.4-2.4c-0.4-0.5-1-0.8-1.7-0.9
				c-0.3,0-0.7,0.1-1,0.1c-0.3,0.1-0.4,0.1-0.6,0.1c-0.1-0.1-0.1-0.1-0.2-0.2c-0.8-0.1-1.6-0.2-2.4-0.5c-0.5-0.2-1-0.4-1.5-0.7
				c-1.2-0.7-2.1-1.7-2.7-2.9c-0.8-1-2-1.2-2.9-1.2c-0.4,0-0.9,0.1-1,0.1c0,0,0,0-0.1,0c-1.1,0-2.2-0.1-3.2-0.4
				c-2.2-0.7-3.8-2.2-4.4-4.2c-1.3-4.4,1.9-9.1,5.3-11.8c3-3.3,4.5-4.9,7.4-8.1c6.7-8.6,13.7-17.9,16.2-28.7
				c0.2-0.8,0.4-1.5,0.6-2.2c1.5-4.1,5.6-7.5,10.1-6.1c2,0.6,3.8,2.6,4.7,5.1c0,0.1,0.1,0.2,0.1,0.3l0,0c0.2,0.6,0.9,2,2.4,2.5
				c1.6,0.3,4.3,1.7,5.1,4.8c0.5,1.8,1.1,2.5,3.6,3.7c1,0.2,1.9,0.6,2.7,1.2c1.5,1.1,2.7,2.7,3.4,4.6c0.8,1.1,3.4,5.4,2.7,10.4
				c-0.1,0.8-0.2,1.4-0.3,1.8c0.3,0.5,0.4,0.7,0.7,1.2C248.9,182.4,248.8,192,244.1,199z"/>
		</g>
		<g>
			<g>
				<path id="b3XMLID_268_" fill="#6B6263" d="M201.3,174.6c8.1-6.9,13.6-15,17.5-24.9v-0.1c0.4-0.9,0.3-1.7,0.1-2.2
					c-0.3-0.8-0.8-1.3-1.2-1.4c-0.8-0.2-2.3-0.3-3.1,1.7c-0.1,0.2-0.2,0.7-0.3,1.2C212.2,158.4,206.8,166.7,201.3,174.6z"/>
			</g>
			<g>
				<defs>
					<path id="b3SVGID_11_" d="M201.3,174.6c8.1-6.9,13.6-15,17.5-24.9v-0.1c0.4-0.9,0.3-1.7,0.1-2.2c-0.3-0.8-0.8-1.3-1.2-1.4
						c-0.8-0.2-2.3-0.3-3.1,1.7c-0.1,0.2-0.2,0.7-0.3,1.2C212.2,158.4,206.8,166.7,201.3,174.6z"/>
				</defs>
				<clipPath id="b3SVGID_1_">
					<use xlink:href="#b3SVGID_11_"  overflow="visible"/>
				</clipPath>
				<path id="b3XMLID_269_" clip-path="url(#b3SVGID_1_)" fill="#6B6263" d="M196.5,171.3c0,0-0.3,1.9,4,2.7s5.2,1,5.4,4.6
					s3.2,3.6,4.6,2.2c1.3-1.2,4.7-0.4,5,3.8s3.6,3.3,4.8,2.2c1.9-1.8,3.9,1.3,3.4,3.2s1.9,4.7,3.9,2.8c2.1-1.9,7.1,0.6,4.7,3.8
					c-1.2,1.6,1.1,4.3,4.5,2.1s1.8,3.1,9.9-1.6c8.1-4.6,6.1-28,6.1-28s-10.4-15.5-11.1-16c-0.7-0.5-11.1-7.5-11.1-7.5l-10.2-8h-11.7
					l-17.2,24.3L196.5,171.3z"/>
			</g>
		</g>
		<g>
			<g>
				<path id="b3XMLID_266_" fill="#434244" d="M186.3,191.7c-0.4,0.7-0.6,1.4-0.4,2.1c0.2,0.6,0.6,1,1.3,1.3c0.6,0.2,1.3,0.2,2-0.1
					c13-5.3,23.9-15.4,31.9-26.6c2.3-3.3,4.4-7,6.1-10.6c0.6-1.3,0.2-2.9-0.9-3.6c-1.1-0.7-2.5-0.2-3.2,1.1
					c-5.3,10.6-12.6,20.3-22.2,27.3c-4.1,3-8.5,5.9-13.2,8C187.2,190.8,186.7,191.2,186.3,191.7z"/>
			</g>
			<g>
				<defs>
					<path id="b3SVGID_13_" d="M186.3,191.7c-0.4,0.7-0.6,1.4-0.4,2.1c0.2,0.6,0.6,1,1.3,1.3c0.6,0.2,1.3,0.2,2-0.1
						c13-5.3,23.9-15.4,31.9-26.6c2.3-3.3,4.4-7,6.1-10.6c0.6-1.3,0.2-2.9-0.9-3.6c-1.1-0.7-2.5-0.2-3.2,1.1
						c-5.3,10.6-12.6,20.3-22.2,27.3c-4.1,3-8.5,5.9-13.2,8C187.2,190.8,186.7,191.2,186.3,191.7z"/>
				</defs>
				<clipPath id="b3SVGID_2_">
					<use xlink:href="#b3SVGID_13_"  overflow="visible"/>
				</clipPath>
				<path id="b3XMLID_267_" clip-path="url(#b3SVGID_2_)" fill="#6B6263" d="M196.5,171.3c0,0-0.3,1.9,4,2.7s5.2,1,5.4,4.6
					s3.2,3.6,4.6,2.2c1.3-1.2,4.7-0.4,5,3.8s3.6,3.3,4.8,2.2c1.9-1.8,3.9,1.3,3.4,3.2s1.9,4.7,3.9,2.8c2.1-1.9,7.1,0.6,4.7,3.8
					c-1.2,1.6,1.1,4.3,4.5,2.1s1.8,3.1,9.9-1.6c8.1-4.6,6.1-28,6.1-28s-10.4-15.5-11.1-16c-0.7-0.5-11.1-7.5-11.1-7.5l-10.2-8h-11.7
					l-17.2,24.3L196.5,171.3z"/>
			</g>
		</g>
		<g>
			<g>
				<path id="b3XMLID_264_" fill="#434244" d="M196.6,196.9c-0.4,0.6-0.6,1.4-0.3,2c0.2,0.6,0.7,1,1.3,1.2s1.3,0.2,2,0
					c12.4-4.8,23.1-14,30.6-24.7c2.1-3,4-6.5,5.7-10.1c0.6-1.2,0.1-2.8-1-3.5s-2.5-0.3-3.1,0.9c-5,10.1-11.9,18.9-21.1,25.7
					c-3.9,2.9-8.3,5.5-12.8,7.3C197.4,196,196.9,196.4,196.6,196.9z"/>
			</g>
			<g>
				<defs>
					<path id="b3SVGID_15_" d="M196.6,196.9c-0.4,0.6-0.6,1.4-0.3,2c0.2,0.6,0.7,1,1.3,1.2s1.3,0.2,2,0c12.4-4.8,23.1-14,30.6-24.7
						c2.1-3,4-6.5,5.7-10.1c0.6-1.2,0.1-2.8-1-3.5s-2.5-0.3-3.1,0.9c-5,10.1-11.9,18.9-21.1,25.7c-3.9,2.9-8.3,5.5-12.8,7.3
						C197.4,196,196.9,196.4,196.6,196.9z"/>
				</defs>
				<clipPath id="b3SVGID_3_">
					<use xlink:href="#b3SVGID_15_"  overflow="visible"/>
				</clipPath>
				<path id="b3XMLID_265_" clip-path="url(#b3SVGID_3_)" fill="#6B6263" d="M196.5,171.3c0,0-0.3,1.9,4,2.7s5.2,1,5.4,4.6
					s3.2,3.6,4.6,2.2c1.3-1.2,4.7-0.4,5,3.8s3.6,3.3,4.8,2.2c1.9-1.8,3.9,1.3,3.4,3.2s1.9,4.7,3.9,2.8c2.1-1.9,7.1,0.6,4.7,3.8
					c-1.2,1.6,1.1,4.3,4.5,2.1s1.8,3.1,9.9-1.6c8.1-4.6,6.1-28,6.1-28s-10.4-15.5-11.1-16c-0.7-0.5-11.1-7.5-11.1-7.5l-10.2-8h-11.7
					l-17.2,24.3L196.5,171.3z"/>
			</g>
		</g>
		<g>
			<g>
				<path id="b3XMLID_262_" fill="#434244" d="M207.1,202.3c-0.4,0.6-0.5,1.4-0.2,2c0.3,0.5,0.7,1,1.4,1.2c0.6,0.2,1.3,0.2,2-0.1l0,0
					c0.1,0,0.5-0.2,1.2-0.5c11.3-5.5,20.2-14.8,24.4-27.3c-3.9,6.6-9.5,11.9-15.4,16.6c-3.6,2.9-7.9,5.4-12.1,7.1
					C207.8,201.6,207.4,201.9,207.1,202.3z"/>
			</g>
			<g>
				<defs>
					<path id="b3SVGID_17_" d="M207.1,202.3c-0.4,0.6-0.5,1.4-0.2,2c0.3,0.5,0.7,1,1.4,1.2c0.6,0.2,1.3,0.2,2-0.1l0,0
						c0.1,0,0.5-0.2,1.2-0.5c11.3-5.5,20.2-14.8,24.4-27.3c-3.9,6.6-9.5,11.9-15.4,16.6c-3.6,2.9-7.9,5.4-12.1,7.1
						C207.8,201.6,207.4,201.9,207.1,202.3z"/>
				</defs>
				<clipPath id="b3SVGID_4_">
					<use xlink:href="#b3SVGID_17_"  overflow="visible"/>
				</clipPath>
				<path id="b3XMLID_263_" clip-path="url(#b3SVGID_4_)" fill="#6B6263" d="M196.5,171.3c0,0-0.3,1.9,4,2.7s5.2,1,5.4,4.6
					s3.2,3.6,4.6,2.2c1.3-1.2,4.7-0.4,5,3.8s3.6,3.3,4.8,2.2c1.9-1.8,3.9,1.3,3.4,3.2s1.9,4.7,3.9,2.8c2.1-1.9,7.1,0.6,4.7,3.8
					c-1.2,1.6,1.1,4.3,4.5,2.1s1.8,3.1,9.9-1.6c8.1-4.6,6.1-28,6.1-28s-10.4-15.5-11.1-16c-0.7-0.5-11.1-7.5-11.1-7.5l-10.2-8h-11.7
					l-17.2,24.3L196.5,171.3z"/>
			</g>
		</g>
		<g>
			<g>
				<path id="b3XMLID_260_" fill="#434244" d="M225,203.6c5.7,0,11.1-3.1,14.3-7.8c3.1-4.6,4-10.6,2-15.8c-1.2,4.7-3.6,9-6.1,12.8
					C232.5,196.7,229.1,200.7,225,203.6z"/>
			</g>
			<g>
				<defs>
					<path id="b3SVGID_19_" d="M225,203.6c5.7,0,11.1-3.1,14.3-7.8c3.1-4.6,4-10.6,2-15.8c-1.2,4.7-3.6,9-6.1,12.8
						C232.5,196.7,229.1,200.7,225,203.6z"/>
				</defs>
				<clipPath id="b3SVGID_5_">
					<use xlink:href="#b3SVGID_19_"  overflow="visible"/>
				</clipPath>
				<path id="b3XMLID_261_" clip-path="url(#b3SVGID_5_)" fill="#6B6263" d="M196.5,171.3c0,0-0.3,1.9,4,2.7s5.2,1,5.4,4.6
					s3.2,3.6,4.6,2.2c1.3-1.2,4.7-0.4,5,3.8s3.6,3.3,4.8,2.2c1.9-1.8,3.9,1.3,3.4,3.2s1.9,4.7,3.9,2.8c2.1-1.9,7.1,0.6,4.7,3.8
					c-1.2,1.6,1.1,4.3,4.5,2.1s1.8,3.1,9.9-1.6c8.1-4.6,6.1-28,6.1-28s-10.4-15.5-11.1-16c-0.7-0.5-11.1-7.5-11.1-7.5l-10.2-8h-11.7
					l-17.2,24.3L196.5,171.3z"/>
			</g>
		</g>
	</g>
	<path id="b3XMLID_258_" fill="none" stroke="#000000" stroke-width="5.9699" stroke-miterlimit="10" d="M45.7,179.6
		C1.7,149.7-9.8,89.8,20,45.7C49.9,1.7,109.8-9.8,153.9,20c26,17.7,40.7,45.8,42.2,75c-0.7,31.2,21.1,24.9,17.5,46.8
		c-1.6,9.5-6.9,18.2-12.6,26.6c-5.5,8.1-11.8,15.4-19.3,21c-19.3,14.4-24.4-10.7-49.9,1.4C103.9,200.5,72,197.4,45.7,179.6z"/>
	<text transform="matrix(1 0 0 1 84.0343 161.727)" font-family="'Open Sans'" class="bold" font-size="11px">- Pete</text>
	<rect x="24.6" y="70.4" fill="none" width="150" height="76"/>
	<text transform="matrix(1 0 0 1 31.5133 78.7369)"><tspan x="0" y="0" font-family="'Open Sans'" font-size="11px">Media Suite work is fun and </tspan><tspan x="18.2" y="15" font-family="'Open Sans'" font-size="11px">exciting for me. I am </tspan><tspan x="-0.6" y="30" font-family="'Open Sans'" font-size="11px">passionate and enthusiastic </tspan><tspan x="0.2" y="45" font-family="'Open Sans'" font-size="11px">about working again for the </tspan><tspan x="16.7" y="60" font-family="'Open Sans'" font-size="11px">first time in 10 years.</tspan></text>
	<text transform="matrix(1 0 0 1 59.8011 54.3671)" fill="#F27C00" font-family="'CheltenhamITCbyBT-BoldItalic'" font-size="22px">passion</text>
</g>
</svg>
