<svg version="1.1" xmlns="http://www.w3.org/2000/svg" xmlns:xlink="http://www.w3.org/1999/xlink" x="0px" y="0px"
	 viewBox="0 0 500.6 345.6" enable-background="new 0 0 500.6 345.6" xml:space="preserve">
<g id="dude">
	<path fill="#A88651" d="M84.2,338.3c0,0,43,3.1,46-4.9s101.7-2.7,101.7-2.7s32.5-13.1,83.6-4.6c51,8.6,181.1-5.7,185-9.2
		c3.9-3.6-45.4-4.5-88.3-7s-160.3,3.6-160.3,3.6s-5.3-2.9-24.3-0.9c-19,2-140.6,9.5-140.6,9.5L84.2,338.3z"/>
	<g>
		<polygon fill="#E6E6E7" points="489.4,76.1 486.7,82.3 486,82.3 488.1,76.4 		"/>
		<path d="M476.8,61.3c0.2,0.6,0.3,1.3,0.2,2c-0.1,1.3-0.6,2.6-1.4,3.6c-5.7,14.7-11.5,29.3-17.4,43.9c-4.5,11-9,22-13.6,33
			c-0.3,0.7-0.6,1.4-0.9,2.1c-3.5,8.4-7,16.7-10.6,25c3.3,10.3,3.8,21.4,1.2,32.1c-4.6,19-17.3,32.2-33.2,40.8
			c-7.7,17-15.5,34-23.9,50.7l-0.8-0.4c0,0,0-0.1,0.1-0.1c7.5-16.5,15.4-32.8,23-49.3c-3.6,1.9-7.4,3.5-11.3,4.9
			c0.4,2,0.8,4.1,1,6.1c0,0.3,0.1,0.5,0.1,0.8c-0.3,0.1-0.6,0.3-0.9,0.4c-2.3,0.9-5,1.5-7.5,2c-0.6,0.1-1.3,0.2-1.9,0.4
			c-0.3-0.2-0.6-0.4-0.9-0.6c-0.7-0.5-1.3-1-1.8-1.6c-0.2,0.2-0.3,0.3-0.5,0.4c-0.8,0.8-1.6,1.6-2.5,2.3
			c-6.5,10.9-13.1,21.9-19.7,32.7c-0.3,0.5-0.6,1-0.9,1.6c-0.3,0-0.6-0.1-0.9-0.1c-6.9-1.1-13.9-2.5-20.8-3.9c0,0,0,0-0.1,0
			c-0.3-0.1-0.5-0.1-0.8-0.2c-0.9-0.2-1.9-0.4-2.8-0.5c-33.2-6.2-66.3-13-99.1-21c-3.2,1.3-4.5,5-2.8,7.6c0.2,0.3,0.4,0.6,0.6,0.8
			c0.4,0.4,0.9,0.8,1.5,1.1c0.1,0.1,0.2,0.1,0.2,0.2l-0.2,0.8c-0.1,0-0.2-0.1-0.3-0.1c0,0,0,0,0,0c-0.1,0-0.1,0-0.2-0.1
			c-0.7-0.3-1.3-0.8-1.8-1.3l0,0c-0.3-0.3-0.5-0.6-0.7-0.9c-1.9-2.9-1-7,2-8.7c-0.3-0.1-0.7-0.2-1-0.2c-0.2-0.1-0.5-0.1-0.7-0.2
			c0,0,0,0-0.1,0c-0.1,0.1-0.2,0.1-0.4,0.1c0,0.1-0.1,0.2-0.2,0.3c-3,1.5-3.2,5.6-1.5,8.2c0.2,0.3,0.4,0.5,0.6,0.8
			c-0.2,0-0.3,0.2-0.3,0.3l-0.6,0.2c-0.5-0.6-0.8-1.2-1.1-1.9c-1-2.3-0.8-5.2,0.8-7c-10.2,3.5-20.8,6.2-31.1,9.3
			c-3.1,0.9-6.2,1.9-9.3,2.8c-0.7,0.2-1.5,0.4-2.2,0.7c-0.5,0.1-1,0.3-1.5,0.4c-0.2,0.1-0.4,0.1-0.6,0.2c0.1,0.3,0.2,0.5,0.3,0.8
			c1.2,3.8,2,7.7,2.4,11.6c0,0.4,0.1,0.9,0.2,1.4h0c-0.3,0.2-0.7,0.4-1,0.5c-0.2-4.7-1.3-9.4-2.8-13.9c-0.1,0-0.2,0-0.3-0.1
			c-1,0.3-1.9,0.6-2.9,0.9c-3.6,1.1-7.2,2.4-10.8,3.4c-0.1,0.1-0.2,0.2-0.4,0.3c-1.1,0.8-2.4,1-3.7,0.8c-0.5-0.1-1-0.2-1.5-0.4
			c-0.5-0.2-1-0.5-1.5-0.9c-0.9-0.7-1.5-1.5-2.1-2.5c-3,0.8-6,1.7-9,2.5c-6.9,2-13.8,3.9-20.6,5.9c-7,2-14.1,4.1-21.1,6.1
			c-3.5,1-7,2.1-10.5,3c-1.2-0.1-2.4-0.2-3.5,0c0-0.1,0-0.1-0.1-0.2c-0.2,0-0.4,0-0.6,0.1c-5.8,0.4-11.7,0.1-17.5-0.5
			c-4.7-0.5-9.5-1.2-14.1-2.4c0.3,0.4,0.7,0.7,1,1.1c0.5,0.5-0.2,1.2-0.8,0.8c-1-0.9-2.1-1.8-3.1-2.7c-0.5-0.4-1-0.9-1.4-1.3
			c-1.8-1.7-3.6-3.4-5.6-5c-2.5-2.1-5.3-4-7.9-6c-0.1,0.3-0.6,0.3-0.7,0c-0.1-0.2-0.2-0.5-0.2-0.7c-0.1-0.5-0.3-0.9-0.4-1.4
			c-0.9-3.9-1.1-8.3,0.1-12.2c0.1-0.4,0.2-0.7,0.4-1.1c0.1-0.2,0.2-0.5,0.3-0.7c-0.9-0.1-1.7-0.2-2.5-0.1c-0.8,0-1.5,0.1-2.2,0.4
			c-0.5,0.1-1,0.3-1.4,0.5c-1.6,0.7-2.6,1.7-3.7,2.9c-0.1,1.1-0.2,2.2-0.2,3.4c0,2,0.5,3.9,0.7,5.9c0.1,0.4-0.5,0.4-0.7,0.1
			c-0.8-2-1.1-4.4-1-6.7c0,0-0.1,0-0.1,0c-1.4,0.4-2.7,1.1-3.7,2.2c-0.5,0.5-0.9,1.1-1.2,1.6c1.9,1.7,3.8,3.7,5.4,5.6
			c0.3,0.4-0.2,0.8-0.5,0.5c-1.2-1-2.3-2.3-3.4-3.4c-0.2-0.2-0.4-0.4-0.6-0.6c-1.1,1.4-2,2.9-2.5,4.6c-0.2,0.7-0.3,1.4-0.4,2.1
			l-0.7,0.1c-0.1-0.4-0.2-0.7-0.2-1.2c0-0.1,0-0.3,0-0.4c0-0.1,0.1-0.2,0.2-0.2c0.6-2.1,1.9-4,3.2-5.4c-0.3-0.3-0.5-0.6-0.8-0.9
			c-0.3-0.3-0.5-0.6-0.8-0.9c0.1-0.2,0.2-0.4,0.3-0.6c1.2-1.9,3.6-3.4,5.6-3.9c0.1,0,0.3,0,0.4,0.1c0-0.3,0-0.6,0.1-0.8
			c0.1-0.7,0.2-1.4,0.3-2.1c0.3-0.4,0.6-0.7,0.9-1c1-0.9,2.2-1.6,3.5-2.1c-7.1-3.5-14.5-9.7-14.3-17.8c-3.5-0.2-6.2,0.6-9.2,2.3
			c-0.5,2.8-0.4,5.4,0,8.3c0.9-0.2,1.8-0.2,2.7-0.1c0.5,0.1,0.9,0.2,1.4,0.3c0.2,0.3,0.3,0.6,0.5,1c1.2,3,0.9,6.7-0.8,9.4
			c-0.1,0.2-0.2,0.3-0.3,0.5c0.1,0.1,0.2,0.3,0.3,0.5c1.1,1.9,1.1,4.4,0.5,6.5c0,0,0,0,0,0c0.1,0,0.1,0.1,0.2,0.1
			c0.3,0.3,0.7,0.6,0.9,0.9c1.5,1.8,1.7,4.5,1,6.8l-0.7-0.1c0.7-2.2,0.1-4.5-1.3-6.5c-0.2,0-0.4,0-0.5,0c-0.3,0-0.5,0-0.8,0.1
			c-1.1,0.1-2.3,0.1-3.4,0.1c0,0.2-0.1,0.3-0.1,0.5l-0.7-0.1c0-0.1,0-0.3,0.1-0.4c-0.5,0-1,0-1.5,0c-0.3,0-0.6,0-0.9,0
			c-0.1-0.2-0.1-0.4-0.2-0.7c-0.6-2.4-0.9-4.9-1-7.4c0-0.2,0-0.4,0-0.7c0-3.1,0.3-6.2,1.2-9.2c0-0.2,0-0.3,0.1-0.4
			c0,0,0.1,0,0.1-0.1c0.2-0.1,0.5-0.2,0.7-0.3c0.5-0.2,1.1-0.4,1.7-0.6c-0.7-2.5-0.6-5.4,0-8c0.1-0.5,0.2-0.9,0.4-1.4
			c0.3-0.2,0.5-0.4,0.8-0.5c2.6-1.6,6-2.1,8.9-1.6c0.4,0.1,0.8,0.2,1.2,0.3c0,0,0,0,0,0c0.3,0.1,0.3,0.5,0,0.6
			c0.8,8.6,7.2,13.9,14.8,17.3c1.6-0.3,3.2-0.2,4.6,0.2c0.3,0.1,0.5,0.2,0.8,0.3c-0.1,0.2-0.1,0.4-0.2,0.6c-0.1,0.3-0.2,0.6-0.2,0.9
			c0.5,0.2,1,0.3,1.6,0.5c10.9,3.3,22,5.2,33.2,7c9.9-2.9,19.8-5.9,29.6-9c-1.7-0.2-3.4,0.1-5.1,1.4c0,0-0.1,0,0,0
			c1.9-1.7,4.4-2.5,6.8-1.9c1.7-0.5,3.4-1,5.1-1.6c1.6-1.3,3.7-2,5.7-1.8c3.3-1,6.6-2,9.8-3c-1.7-0.3-3.5,0.1-5.3,1.3c0,0-0.1,0,0,0
			c1.9-1.7,4.5-2.5,6.9-1.8c6.2-1.9,12.4-3.7,18.6-5.4c0.2-1.2,0.5-2.5,1.1-3.5c0.3-0.6,0.8-1,1.3-1.4c0.4-0.2,0.8-0.4,1.2-0.5
			c0.2,0,0.4-0.1,0.6-0.1c0.3,0,0.6,0,0.9,0c2.5-0.5,4.9-1,7.4-1.5c-2.8,0.2-5.6,0.4-8.4,0.6c-2.1,0.2-4.2,0.3-6.3,0.5
			c-9.3,0.7-18.6,1.4-27.8,1.9c-0.1,0-0.1,0-0.2,0l0-0.8c9.2-0.8,18.4-1.5,27.5-2.2c5.2-0.4,10.5-0.8,15.7-1.2
			c3.1-0.2,6.3-0.6,9.5-0.9c0.1,0,0.3,0,0.4,0c0.3,0,0.7,0,1-0.1c0.1,0,0.2,0,0.2,0c2.2-0.3,4.4-0.6,6.6-1
			c16.5-2.4,33.1-4.9,49.6-7.2c0.2,0,0.3,0,0.5-0.1c2.4-0.3,4.7-0.6,7.1-0.9c1.2-0.2,2.3-0.3,3.4-0.4c1.8-0.2,3.6-0.5,5.3-0.7
			c-0.1-0.4,0-0.8-0.1-1.2c0-0.3,0-0.6,0-0.9c-1,0.2-2,0.3-3,0.5c-0.3,0-0.6,0.1-0.8,0.1c-2.1,0.3-4.2,0.5-6.2,0.8
			c-0.1,0.1-0.3,0.1-0.4,0c-1.6,0.2-3.1,0.4-4.7,0.6c-0.2,0-0.4,0-0.6,0.1c-0.3,0-0.5,0.1-0.8,0.1c-6.1,0.8-12.2,1.6-18.3,2.4
			c-12.1,1.6-24.2,3.5-36.4,4.7c-0.3,0-0.6,0.1-0.8,0.1c-0.3,0-0.7,0.1-1,0.1c-0.1,0-0.1,0-0.2,0c0,0-0.1,0-0.1,0l-0.1-0.7
			c0.4-0.1,0.8-0.1,1.1-0.2c-0.1-0.4-0.3-0.8-0.4-1.2c-0.1-0.2-0.1-0.3-0.2-0.5c-2.2-7.1-4-14.5-6-21.7c-2.3-8.2-4.6-16.5-6.9-24.7
			c-4.5-16.2-9.4-32.3-13.5-48.6l0.5-0.2c5,16.1,9.2,32.4,13.7,48.6c2.3,8.2,4.7,16.4,7,24.7c2,7.2,4.4,14.5,6.2,21.8
			c4.5-0.6,9-1.2,13.4-1.9c7.9-1.1,15.7-2.2,23.6-3.1c0,0,0.1,0,0.1,0c4.3-0.5,8.6-1,12.9-1.4c0.1,0,0.2,0.1,0.3,0.2
			c1.6-0.1,3.2-0.3,4.9-0.5c0.2,0,0.5,0,0.7-0.1c1-0.1,1.9-0.2,2.9-0.3c0.7-0.1,1.3-0.1,2-0.2c0.2,0,0.5-0.1,0.7-0.1
			c0.8-0.1,1.5-0.2,2.3-0.3c-0.8-0.1-1.6-0.2-2.4-0.3c-0.3,0-0.5-0.1-0.8-0.1c-0.1-0.4-0.1-0.9-0.2-1.3c-0.3-2.6-0.3-5.2,0.2-7.7
			c-0.5-0.1-1-0.3-1.6-0.4c-1.2,2.4-2.5,4.7-3.8,7.1c-0.2,0.3-0.4,0.7-0.6,1c-0.2-0.1-0.5-0.1-0.7-0.2c-2.9-0.8-5.8-1.9-8.5-3.1
			c-0.2-0.1-0.4-0.2-0.6-0.3c0-0.3,0.1-0.7,0.2-1c0.5-2.7,1.3-5.5,2.4-8c-0.4-0.2-0.8-0.5-1.2-0.7c-1.6,2.2-3.4,4.4-5.3,6.5
			c-0.2,0.3-0.4,0.5-0.7,0.8c-0.2-0.1-0.4-0.3-0.7-0.4c-2.1-1.4-4.2-3-6.1-4.8c-0.2-0.2-0.4-0.4-0.6-0.6c0.2-0.3,0.4-0.6,0.6-0.9
			c1.4-2.3,3-4.6,4.6-6.7c-0.4-0.3-0.7-0.7-1-1l-0.3-0.8c0.2-0.1,0.3-0.1,0.5-0.2c0.2,0.2,0.4,0.4,0.5,0.5c0.3,0.3,0.6,0.5,0.8,0.8
			c0.3-0.3,0.8,0.1,0.6,0.4c0,0,0,0,0,0c-0.1,0.3-0.3,0.5-0.4,0.7c-1.4,2.3-3,4.6-4.6,6.7c1.8,1.8,3.8,3.4,6,4.8
			c1.6-2.2,3.3-4.5,5.2-6.5c0.2-0.2,0.4-0.5,0.6-0.7c0.3,0.2,0.5,0.3,0.8,0.5c0.4,0.2,0.7,0.4,1.1,0.6c0.3,0.2,0.6,0.3,0.9,0.5
			c-0.1,0.3-0.2,0.5-0.3,0.8c1.6,0.3,3.1,1,4.6,1.6c1.7,0.6,3.4,1.2,5.1,1.9c0.1-0.1,0.1-0.3,0.2-0.4c0.3,0.1,0.7,0.2,1,0.3
			c0.5,0.1,0.9,0.2,1.4,0.3c0.4,0.1,0.7,0.2,1.1,0.3c0,0.3-0.1,0.6-0.1,0.8c-0.3,2.6-0.5,5-0.4,7.6c2.4,0.4,4.8,0.6,7.3,0.8
			c0.7-2.3,1.5-4.5,2.4-6.7c0.1-0.3,0.2-0.5,0.3-0.8c0.3-0.7,0.6-1.4,0.9-2.1c0.2-0.4,0.8-0.1,0.7,0.3c-0.2,0.6-0.4,1.3-0.6,1.9
			c3.6,0.5,7.3,0.9,10.9,1.5c0.5,0.1,1,0.2,1.4,0.2c1.2,0.2,2.4,0.4,3.6,0.7c0.4,0.1,0.3,0.7-0.1,0.7c-0.6-0.1-1.3-0.1-1.9-0.2
			c0.6,0.4,1.2,0.8,1.8,1.2c0.4,0.3,0.8,0.6,1.2,0.8c6.5,4.3,13.3,8.2,20.3,11.4c1.3,0.6,2.6,1.2,3.9,1.8c6.4,2.7,12.9,5,19.6,6.9
			c16.8,4.6,34.4,6.4,51.7,5c2.4-0.2,4.7-0.4,7.1-0.7c0.4,0,0.7-0.1,1.1-0.1c1-0.1,2-0.3,3-0.4c0.1-8.9-1.5-18.1-4-26.8
			c-0.8,0.1-1.5,0.3-2.3,0.4c-0.2,0-0.4,0.1-0.7,0.1c-7.7,1.1-15.7,1.4-23.3,1.2c-3-0.1-6-0.2-9-0.4c2.3,2.7,3,7,3,10.7
			c0,0.1-0.1,0.1-0.1,0c-0.6-3.6-1.6-8.1-4.3-10.8c-2-0.1-3.9-0.3-5.9-0.5c2.1,2.7,2.7,6.8,2.6,10.3c0,0.1-0.1,0.1-0.1,0
			c-0.6-3.4-1.5-7.8-3.9-10.5c-2.4-0.3-4.8-0.6-7.2-1c1.8,2.7,2.4,6.5,2.3,9.8c0,0.1-0.1,0.1-0.1,0c-0.5-3.3-1.4-7.3-3.6-10.1
			c-13.2-2.1-26.1-5.6-38.4-10.6c-0.5-0.2-1-0.4-1.5-0.6c-0.2-0.1-0.4-0.2-0.7-0.3c-0.4-0.2-0.8-0.3-1.2-0.5l0.3-0.8
			c0.7,0.3,1.4,0.5,2.1,0.8c1.9-2.5,3.7-5,5.5-7.6c2.7-3.9,5.2-7.9,7.7-11.9c-8.7,1.2-18-0.6-25.6-4.7c-5.5-3-10.2-7.2-13.9-12.2
			c-1.8,0.7-3.6,1.4-5.5,1.9c-0.2,0.1-0.5,0.1-0.7,0.2c-0.2-0.3-0.3-0.5-0.5-0.8c-0.7-1.3-1.2-2.7-1.8-4c-0.4-0.8-0.8-1.7-1.1-2.5
			c-0.2-0.5-0.4-1-0.6-1.6c0.1-0.3,0.2-0.6,0.4-0.9c0.3-0.7,0.7-1.3,1.2-1.9c-0.2-0.1-0.3-0.2-0.5-0.4c-0.4-0.3-0.8-0.6-1.2-0.9
			c-0.1-0.4-0.1-0.8-0.1-1.2c0,0,0,0,0.1,0c-0.5-2.2-1-4.4-1.5-6.6c-0.1-0.4-0.2-0.9-0.2-1.3c0.2-0.2,0.5-0.4,0.8-0.7
			c1-0.8,2.1-1.6,3.3-2.2c-0.3-6.1,0.6-12.3,2.7-18.1c7.2-20.5,25.3-33.9,44.7-42c-2.6-9.5,6.3-18.7,13.8-23.5
			c3.5-2.2,7.5-5,11.7-6.5c-6.9-2.3-13.5-5.5-19.7-9.3c-3.2-1.9-6.2-4-9.1-6.3c-2.8-2.2-6-4.6-8.2-7.5c-2.7-3.6-2.7-8.6,1.1-10.9
			c0-0.3,0.1-0.6,0.5-0.6c0.2,0,0.4,0,0.6,0c0.1-0.1,0.3-0.1,0.4-0.2c3.1-1.1,6.4-0.3,9.4,0.6c1.7,0.5,3.3,1,5,1.6
			c2.6,0.4,5.1,0.9,7.6,1.4c7.6,1.4,15.1,3.1,22.6,4.9c2.5,0.6,5,1.3,7.5,1.9c5.9-14.4,18.8-25.6,33.6-30.6
			c15.3-5.2,32.2-3.1,46.5,4c15.3,7.6,27,20.6,33.7,36.3c3.7,8.7,5.8,17.9,6.4,27.2c2.8-0.8,5.6-1.8,8.3-3.3
			c3.4-1.9,6.4-4.2,9.3-6.7c0.6-1.5,1.3-3,2-4.6c0-0.1,0.1-0.1,0.1-0.1c0.9-2,2.9-3.4,5-3.9c1-0.6,2.1-0.7,3.5-0.1
			C475.8,59.5,476.5,60.4,476.8,61.3z M474.2,67.4c0.8-2.1,3.1-5.9-0.1-7.2c-1.9-0.8-3.3,0.5-4.3,2.2c-3.2,8.8-6.8,17.5-10.4,26.2
			c-6.1,14.9-12.5,29.7-19.2,44.3c-0.1,0.2-0.2,0.5-0.3,0.7c-0.1,0.2-0.2,0.4-0.3,0.7c-0.1,0.1-0.1,0.2-0.2,0.4
			c-0.3,0.6-0.5,1.1-0.8,1.7c0,0.1-0.1,0.1-0.1,0.2c-0.6,1.3-1.2,2.6-1.8,3.9c0,0,0,0,0,0c-0.4,0.8-0.7,1.6-1.1,2.4
			c-1.2,2.5-2.3,5.1-3.5,7.5c0,0,0,0,0,0c-1.4,2.9-2.8,5.8-4.2,8.7c1.9,3.4,3.5,6.9,4.8,10.5c3.3-7.7,6.6-15.5,9.8-23.2
			c0.3-0.7,0.6-1.4,0.9-2.1c10.6-25.3,20.9-50.8,30.8-76.4C474.2,67.7,474.2,67.6,474.2,67.4z M467.8,64.6c0.2-0.8,0.5-1.6,0.9-2.4
			c-0.7,0.6-1.3,1.2-2,1.9c-0.2,0.7-0.5,1.5-0.7,2.2c-2.3,6.6-5.9,15.4-8.5,21.8c-3.1,7.7-6.3,15.3-9.6,22.9
			c-6.7,15.4-13.5,30.8-21.2,45.7c0.3,0.5,0.6,0.9,0.9,1.4c1.3-2.8,2.7-5.6,4-8.4c0.3-0.6,0.6-1.3,0.9-1.9c0,0,0.1,0,0.1,0
			c0.9-1.9,1.8-3.9,2.7-5.8c0.7-1.6,1.5-3.4,2.3-5.2l1.2-2.8c0.2-0.5,0.4-0.9,0.6-1.4c2.8-6.3,5.6-12.6,8.4-18.9
			C454.4,98.2,461.5,80.1,467.8,64.6z M456.9,86.3c2.1-5.3,4.1-10.6,6.2-15.9c-2.4,2-5,3.6-7.7,5c-2.7,1.4-5.7,2.7-8.7,3.5
			c0.4,7.7-0.2,15.5-1.7,23.1c-0.7,3.6-1.6,7.2-2.6,10.7c-0.2,0.7-0.4,1.5-0.7,2.2c-1.7,5.5-3.7,10.8-6,16.1
			c-0.2,0.5-0.5,1.1-0.7,1.6c-0.2,0.5-0.4,1-0.7,1.5c-0.2,0.5-0.5,1-0.7,1.5c0.1,0,0.1,0,0.2,0c0.1,0,0.2,0.1,0.3,0.2
			c0.1,0.1,0.2,0.4,0.1,0.6c-0.1,0.3-0.3,0.6-0.4,0.9c-1.1,2.3-2.3,4.6-3.4,6.9c-0.8,1.5-1.4,3.2-2.3,4.7c-0.4,0.7-0.9,1.4-1.4,2.1
			v0h0c-0.1,0.1-0.2,0.1-0.3,0.1c-0.2,0.1-0.4,0.1-0.6,0.2c-0.4,0.7-0.8,1.5-1.2,2.2c0.6,0.9,1.3,1.8,1.8,2.7
			c2.8-6.1,5.6-12.2,8.4-18.3c4.1-9,8.1-17.9,12-27C450.2,102.7,453.6,94.5,456.9,86.3z M444.3,97.9c1-6.1,1.3-12.4,1-18.5
			c0-0.4,0-0.7-0.1-1.1c-1.8-26.9-16.2-52.5-42-63.8c-14.7-6.4-31.3-7.2-46.3-1.1c-12.9,5.2-23.6,15.3-29.4,27.8
			c22.9,6.1,45.7,14,66.5,25.2c1,0.5,2,1.1,3,1.6c0.4,0.2,0.8,0.5,1.2,0.7c0.3,0.2,0.7,0.4,1,0.6c0.9,0.5,1.8,1.1,2.7,1.6
			c8,4.9,15.5,10.6,22.2,17.1c6.7,6.5,12.9,14.1,17.2,22.6C442.6,106.5,443.6,102.2,444.3,97.9z M434,130.5
			c2.5-5.7,4.8-11.5,6.7-17.5c-5.7-10.5-12.7-19.7-21.7-27.7c-6.2-5.5-13-10.3-20.1-14.5c-1,0-2,0-2.9,0c-3.2,2.8-6.7,5.5-9.9,8.2
			c-2.5,2.2-5.1,4.3-7.6,6.5c-1.4,1.2-2.8,2.5-4.2,3.7c1.2,1.7,2.3,3.4,3.4,5.2c0.5,0.7,1,1.4,1.5,2.1c6.1-3.9,13.1-7.7,20.1-8.7
			c6.3-0.9,13.3,0.9,17,6.5c4.7,7.1,2.8,15.8,2.9,23.7c0.1,8.2,4.2,17.7,13.1,16.7c0.4-0.9,0.8-1.8,1.2-2.6
			C433.6,131.5,433.8,131,434,130.5C434,130.5,434,130.5,434,130.5z M434.2,198.3c1.5-8.7,0.9-17.6-1.6-25.9c-0.1-0.5-0.3-1-0.4-1.5
			c-1.2-3.8-2.8-7.4-4.7-10.9c-0.2-0.3-0.3-0.6-0.5-0.9c-0.3-0.5-0.6-1-0.9-1.4l-0.3-0.4c-0.6-1-1.2-1.9-1.9-2.8
			c-0.3-0.4-0.5-0.7-0.8-1.1c-0.3-0.4-0.6-0.7-0.8-1.1c0,0-0.1,0-0.1,0c-9.2,2.5-18.5,4.7-27.8,6.7c-15.4,3.2-31.2,6-47,7.4
			c-0.4,0-0.8,0.1-1.3,0.1c-0.2-0.5-0.4-1-0.7-1.5c-1.2-2.8-2.5-5.7-3.9-8.4c-2.1-3.9-4.6-7.5-6.9-11.2c-5,1.8-10.1,3.5-15,5.6
			c-5.5,2.4-10.7,5.2-16.1,8c0,0-0.1,0-0.1,0.1c-0.1,0.3-0.2,0.6-0.4,0.9c-0.3,0.7-0.5,1.3-0.8,2c-0.8,2-1.7,3.9-2.6,5.9
			c-0.3,0.7-0.6,1.4-0.9,2c-3.7,8.1-7.9,16-12.4,23.6c-0.3,0.5-0.6,1-0.9,1.4c0,0,0,0,0,0.1c-3.1,5.2-6.4,10.3-9.9,15.2
			c-1.2,1.7-2.5,3.4-3.7,5.1c9.8,3.6,19.8,6.6,30.1,8.7c2,0.4,4.1,0.8,6.1,1.2c-1-0.8-2.3-1.3-3.8-1.4c-0.2,0-0.2-0.3,0-0.3
			c2.4,0,4.2,0.8,5.6,2.1c2.3,0.4,4.6,0.7,6.9,1c-1-0.6-2.1-1.1-3.5-1.2c-0.2,0-0.2-0.3,0-0.3c2.2,0,3.9,0.6,5.2,1.7
			c1.9,0.2,3.7,0.4,5.6,0.6c-0.9-0.5-1.9-0.9-3.1-1c-0.2,0-0.2-0.3,0-0.3c2,0,3.6,0.5,4.9,1.5c11.2,1,22.6,0.9,33.5-0.9
			c0-0.9,0-1.7,0-2.6c0,0,0,0,0,0c0-0.4,0-0.7,0-1.1c0.3-0.2,0.6-0.3,1-0.5c2.3-1,4.9-1.7,7.3-2.3c2.1-0.5,4.4-1.1,6.6-1.3
			c0.4,0,0.9-0.1,1.3-0.1c0.3,0.4,0.6,0.8,0.8,1.2c0.4,0.6,0.8,1.3,1.1,1.9c6.5-2.5,12.6-6,18-10.4c-0.3,0.6-0.6,1.2-0.9,1.8
			c0.3-0.2,0.6-0.4,0.8-0.7c0.6-0.8,1.1-1.7,1.6-2.5c7.9-7,13.7-16,15.7-26.7c0-0.2,0.1-0.4,0.1-0.6c0-0.1,0.1-0.2,0.1-0.3
			c0-0.1,0-0.1,0-0.2c0-0.1,0-0.2,0-0.3c0,0,0,0.1-0.1,0.1c-0.1-0.3-0.1-0.6-0.1-0.8c0-0.1-0.1-0.2-0.1-0.4c-0.5,0.7-0.9,1.3-1.3,2
			c-0.4,0.1-0.9,0.1-1.3,0.2c-4,0.4-8,0.9-12,1.1c-0.4,0-0.5-0.7-0.1-0.7c2.3-0.4,4.6-0.6,6.9-0.9c1.2-0.1,2.4-0.3,3.6-0.4
			c1.9-0.2,4.1-0.1,2.3-3c-2.1-3.6-6.9-6.3-10.6-7.9c-0.3-0.1-0.1-0.7,0.2-0.6c2.8,1.1,5.4,2.5,7.7,4.4c1.3,1,4.5,3.4,5,5.5
			c0.1-0.3,0.6-0.3,0.5,0c-0.2,2.8-0.7,5.6-1.5,8.3c-0.4,1.4-0.9,2.7-1.4,4c-1.2,2.9-2.7,5.8-4.5,8.4c0,0,0,0,0,0.1
			c0,0,0,0.1-0.1,0.1c-1.9,2.8-4.1,5.5-6.5,7.9c-6.2,6.3-13.6,10.7-21.6,13.7c0.6,1.3,1.2,2.5,1.8,3.8c1.5,3.1,2.9,6.3,4.1,9.6
			c0.2,0.6,0.5,1.3,0.7,1.9c0.1,0.4,0.3,0.8,0.4,1.3c1,2.9,1.9,5.9,2.6,9c4.2-1.5,8.3-3.3,12.3-5.5c0.6-0.3,1.1-0.6,1.7-0.9
			c0.8-0.5,1.7-1,2.5-1.5C419.9,231.3,431.2,216.3,434.2,198.3z M432.3,137.6c-0.6,0.1-1.1,0.2-1.7,0.3c-0.4,0.1-0.9,0.2-1.3,0.2
			c-4.8,0.9-9.6,1.6-14.4,2.3c-9.2,1.3-18.4,2.4-27.6,3.2c-9.5,0.8-19,1.3-28.6,1.5c-7.6,0.2-15.2,0.3-22.8,0
			c2.4,3.4,4.5,7.2,6.4,10.8c1.5,2.8,3.1,5.7,4.4,8.7c6.7-0.8,13.4-1.5,20.1-2.5c9.3-1.4,18.5-3,27.6-5c9-1.9,17.9-4,26.7-6.4
			c0.2-0.1,0.4-0.1,0.6-0.2c0.1,0,0.3-0.1,0.4-0.1c0.9-0.2,1.8-0.5,2.6-0.7c0.5-0.1,1.1-0.3,1.6-0.4c0.7-2,1.9-3.9,2.8-5.7
			C430.3,141.7,431.2,139.6,432.3,137.6z M429.4,136.6c-4-0.6-7.8-3.9-9.5-7.3c-3.6-7.4-1.5-16-1.9-23.8c-0.2-4.5-1.4-9.3-4.8-12.5
			c-2.9-2.7-7-3.9-10.9-3.9c-8.3,0-15.4,4.7-22.5,8.5c-0.4,0.2-0.8,0.4-1.2,0.7c-0.2-0.4-0.4-0.7-0.6-1.1c-0.4-0.8-0.9-1.5-1.4-2.3
			c-1.1-1.7-2.1-3.4-3.2-5.2c-0.2-0.4-0.5-0.8-0.7-1.2c0.2-0.2,0.4-0.4,0.7-0.6c1.7-1.5,3.6-2.9,5.3-4.4c2.4-2,4.8-4.1,7.3-6.1
			c2.5-2.1,4.9-4.3,7.4-6.5c-2,0.1-3.9,0.4-5.8,0.6c-7.7,1-15.3,2.6-23.1,2.3c-12.1-0.5-22-6.9-31.3-14.1c-2.4-1.8-4.8-3.6-7.2-5.3
			c-0.9,3.7-1.6,7.5-2.2,11.3c0.2,0.1,0.4,0.4,0.2,0.6c-0.1,0.1-0.2,0.2-0.3,0.3c-0.4,0.4-0.8,0.9-1.2,1.3c-0.1,0.1-0.3,0.3-0.4,0.4
			l-0.8-0.6c-2.2-2.8-6.3-3.4-10-2.5c-0.4,0.1-0.7,0.2-1.1,0.3c-0.1,0-0.2,0.1-0.3,0.1c-4.7,1.7-9.2,4.6-13.4,7.3
			c-1.4,0.9-2.8,2-4.1,3.2c-5.5,4.8-9.6,11.5-8.1,18.7c0.1,0.3,0.1,0.6,0.2,0.8c0.3,1,0.7,2.1,1.2,3.1c0.2,0.3-0.3,0.6-0.5,0.3
			c-0.6-1-1.1-2-1.5-3c-9.8,4.4-19.3,9.8-27.3,17c-11.6,10.6-19.9,26.1-19.3,41.7c0,0.3,0,0.6,0,0.9c0.1,1.1,0.2,2.2,0.3,3.3
			c8.4-1.4,16.7-4.5,24.3-8.4c-0.1-0.5-0.2-0.9-0.3-1.4c0-0.3-0.1-0.5-0.1-0.8c-0.4-3.4-0.2-7,0.7-10.4c4-14.6,19.3-21.1,32.5-25.5
			c0.2-0.1,0.4-0.1,0.6-0.2c0.1,0.2,0.2,0.4,0.3,0.5c4.1,6.8,12,8.9,19.2,5.7c0.8-3.5,1.5-7.1,2.2-10.6c-0.4-0.1-0.9-0.1-1.3-0.2
			c-1.4,0-2.8,0-4.3,0c-1.6,0-3.2,0-4.8,0.1c-2.7,0.4-5.4,1.1-8.1,2.2c-0.3,0.1-0.5-0.4-0.2-0.5c1.3-0.6,2.7-1.2,4.1-1.6
			c-2.3,0-4.7,0-7-0.1c-0.2,0-0.4,0-0.7,0c0-0.3,0-0.7,0-1c0,0,0,0,0,0l0.7,0c4.2-0.2,8.4,0,12.6,0c2.2-0.2,4.4-0.2,6.5,0
			c0.9,0,1.8,0,2.7,0c0.2-1,0.4-2,0.5-3c-4.4-0.3-8.9-0.7-13.3-1.1l0.1-0.8c4.5,0.1,9,0.2,13.5,0.4c0.5,0,0.9,0,1.4,0.1
			c0.4,0,0.9,0,1.3,0.1c2.7,0.1,5.5,0.5,8.1-0.5c1.3-0.5,2.9-1.5,3.6-2.8c1.3-2.4-0.7-5.5-3.5-4.9c-0.4,0.1-0.5-0.5-0.2-0.6
			c2.3-0.9,4.6,0.4,5.2,2.8c0.7,2.8-1,5.5-3.5,6.7c-3.5,1.6-7.6,1-11.3,0.7c-0.2,1-0.3,2-0.5,2.9c0,0.2-0.1,0.5-0.1,0.7
			c0,0.1,0,0.1,0,0.2c0,0.1-0.1,0.3-0.1,0.4c-0.6,3.2-1.2,6.4-1.9,9.6c-0.1,0.3-0.1,0.6-0.2,1c-1.2,5.5-2.7,10.9-4.3,16.3
			c-0.1,0.5-0.3,1-0.5,1.6c-2.1,6.8-4.4,13.5-7,20.1c0.3,0,0.5,0.1,0.8,0.1c4.8-2.8,10-5.1,15.1-7.2c3.9-1.6,7.9-3.3,11.9-4.7
			c0.7-0.2,1.4-0.5,2.1-0.7c0.3-0.1,0.6-0.2,0.9-0.3c0.4-0.1,0.7-0.2,1.1-0.3c0,0,0,0,0,0c1,0,1.9,0,2.9,0c6.6,0,13.1,0.1,19.7,0
			c9.4-0.3,18.7-0.8,28-1.6c9.6-0.8,19.2-1.9,28.7-3.3C420.1,138.1,424.8,137.4,429.4,136.6z M423.6,152.3c0.1-0.2,0.2-0.4,0.3-0.5
			c-0.2,0.1-0.4,0.1-0.6,0.2C423.4,152.1,423.5,152.2,423.6,152.3z M395.6,69.1c0,0,0.1-0.1,0.1-0.1c-14-7.9-29.2-13.7-44.3-18.9
			c-8.1-2.8-16.3-5.3-24.6-7.5c-0.3-0.1-0.6-0.2-0.9-0.2c-4.4-1.2-8.8-2.3-13.2-3.3c-5.2-1.2-10.5-2.3-15.8-3.2
			c10.1,4.2,19.7,9.6,28.6,16c0.3,0.2,0.6,0.4,0.8,0.6c1.4,1,2.8,2,4.2,3.1c5.3,4,10.5,8.1,16.4,11.3c6.7,3.6,13.8,5.3,21.5,5
			c7.6-0.3,15.1-2,22.7-2.5C392.7,69.1,394.2,69.1,395.6,69.1z M388.1,255.9c-0.4-1.9-0.8-3.9-1.3-5.8c-0.1-0.3-0.2-0.7-0.2-1
			c-0.6-2.7-1.3-5.4-2.1-8.1c-0.1-0.4-0.3-0.9-0.4-1.3c-0.3-0.8-0.6-1.7-0.9-2.5c-1.3-3.6-2.8-7.1-4.6-10.6c-0.5-1-1.1-2-1.7-3
			c-0.3-0.4-0.5-0.9-0.8-1.3c-0.4-0.7-0.9-1.5-1.2-2.2c-2.3,0.4-4.7,0.6-7,1.1c-2,0.5-4,1.3-6,1.9c0.4,0.9,0.8,1.8,1.2,2.7
			c0.2,0.4,0.3,0.8,0.5,1.3c1.4,3.8,2.5,7.6,3.1,11.7c0.8,5,0.8,10.1,0.4,15.1c0,0.4-0.1,0.8-0.1,1.2c0,0.4-0.1,0.8-0.1,1.2
			c0,0.4-0.6,0.4-0.6,0c0-0.4,0-0.7,0-1.1c-0.8,0.1-1.6,0.3-2.4,0.4c0.2,0.4,0.4,0.7,0.6,1.1c0.2,0.4,0.5,0.8,0.7,1.2
			c1.7-0.1,3.4-0.2,5.1-0.3c0.4,0,0.8,0,1.3,0c0.6,0,1.2,0,1.8-0.1c0.2,0,0.5,0,0.7,0c0.1,0,0.2,0,0.3,0.1c0.3-0.2,0.5-0.5,0.8-0.7
			c0,0,0,0,0.1-0.1c0.1-0.2,0.3-0.3,0.5-0.5c0.2-0.2,0.4-0.5,0.7-0.7c0.3,0.3,0.6,0.6,0.9,0.9c0.5,0.5,0.9,1,1.5,1.4
			c0.3,0.2,0.5,0.3,0.8,0.5C382.2,257.3,385.3,256.3,388.1,255.9z M372.7,258.7c-0.6,0-1.2,0.1-1.8,0.1c-0.9,1.5-1.9,2.9-2.7,4.4
			c-2,3.3-4,6.6-5.9,9.9c-3.8,6.3-7.4,12.8-11.4,19c0.6,0.1,1.3,0.2,1.9,0.4C359.3,281.2,365.9,269.9,372.7,258.7z M368.6,258.9
			c-0.9,0-1.7,0.1-2.6,0.1c-0.5,0-0.9,0-1.4,0h0c-0.2-0.3-0.4-0.6-0.6-1c-0.4-0.7-0.8-1.5-1.1-2.3c-3.7,0.5-7.4,0.9-11,1.1
			c-24.5,1.4-49.2-3.4-71.3-13.7c-6.3-0.7-12.6-1.6-18.9-2.2c-7-0.7-14.1-1.2-21.2-2.1c-0.5-0.1-1.1-0.1-1.6-0.2
			c-0.4-0.1-0.8-0.1-1.3-0.2c-20.7,3.1-41.5,5.8-62.2,8.5c-1.5,0.2-3,0.4-4.5,0.6c-0.4,0.1-0.8,0.2-1.3,0.2c-0.3,0.1-0.7,0.1-1,0.2
			c-1.2,0.2-2.4,0.4-3.6,0.7c-2,0.4-4,0.8-6,1.2c-2.1,0.4-4.2,0.9-6.3,1.4c1.2,0.6,2.2,1.6,3,2.7c2.4,3.3,4,7.5,5.2,11.4
			c0.5,1.6,1,3.2,1.4,4.9c0.1,0.5,0.2,1,0.3,1.5c0.3,1.5,0.6,3,0.8,4.4c0,0.3,0.1,0.6,0.1,0.9c0,0.3,0.1,0.5,0.1,0.8
			c0,0,0,0.1,0,0.1c0,0.3,0.1,0.7,0.1,1.1c0.2,1.6,0.3,3.4-0.1,5c0.1,0.3,0.2,0.5,0.3,0.8c2.9-0.9,5.9-1.6,8.8-2.5
			c0.4-0.1,0.9-0.3,1.3-0.4c0.6-0.2,1.2-0.4,1.7-0.5c0,0,0,0,0,0c0,0,0,0,0.1,0c0.3-0.1,0.6-0.2,0.9-0.3c0.2-0.1,0.4-0.1,0.6-0.2
			c0.7-0.2,1.4-0.4,2.2-0.7c3.5-1.1,6.9-2.1,10.4-3.2c5.9-1.8,11.8-3.6,17.7-5.4c5-1.5,9.9-3.2,14.9-4.6c0.5-0.1,1-0.3,1.5-0.4
			c0,0,0-0.1,0-0.1c0-0.1,0-0.1,0-0.2c0.3-6.3-2.3-11.1-6.9-15.2c-0.2-0.2,0.1-0.5,0.3-0.4c5.2,3.1,8.1,9.8,7.6,15.7
			c0.1,0,0.2,0,0.2-0.1c1.9-4.7,2.4-9.6,1.9-14.8c0-0.3,0.4-0.3,0.5-0.1c1,5.1,0.3,10.4-1.7,15.2c0,0,0,0.1,0,0.1
			c0.9,0.2,1.7,0.4,2.6,0.6c0.3,0.1,0.7,0.1,1,0.2c6.7,1.5,13.3,2.9,19.9,4.4c18,4,36.1,7.8,54.2,11.3c6.8,1.3,13.5,2.7,20.3,3.9
			c0,0-0.1,0-0.1-0.1c-0.3-0.2,0-0.6,0.3-0.5c1,0.4,1.9,0.8,2.9,1.1c1.2,0.2,2.4,0.4,3.6,0.7c1.2,0.2,2.3,0.4,3.5,0.6
			c1.6,0,3.2-0.1,4.9-0.4c4.6-0.9,9.1-3.1,12.7-6C359.5,276.6,364.2,267.6,368.6,258.9z M360.2,226.3c0.6-0.1,1.2-0.2,1.8-0.3
			c-0.3-0.9-0.6-1.8-0.9-2.7c-0.3,0.1-0.5,0.2-0.8,0.2C360.3,224.5,360.3,225.4,360.2,226.3z M358.6,277.4c-2.3,2.9-5,5.5-8.1,7.7
			c-3.3,2.3-7.4,4.1-11.7,5c3.7,0.6,7.5,1.3,11.2,1.9C352.7,287,355.7,282.2,358.6,277.4z M322.2,66.8c0.7-4.4,1.6-8.8,2.8-13.1
			c-7.7-5.5-15.6-10.6-24.4-14.6c-3.9-1.8-7.9-3.4-12-4.9c-2.2-0.8-4.5-1.5-6.7-2.1c-1.9-0.5-4.5-0.8-6.7-0.3
			c-2,0.5-3.6,1.8-3.7,4.4c-0.2,3.6,3,6.4,5.5,8.5c9.9,8.7,21.1,15.1,33.3,19.9c1.4-0.4,2.9-0.6,4.4-0.6c2.5,0,5.4,1.2,7.1,3.1
			C321.9,67.1,322.1,67,322.2,66.8z M313.8,122.1c0.2-0.8,0.4-1.5,0.6-2.3c-7,3.5-15.9,0.2-19.6-6.6c-6.8,2.5-13.7,5.2-19.7,9.3
			c-5.8,4-10.6,9.6-12.3,16.5c-0.7,3-0.9,6.2-0.5,9.3c0.1,0,0.3,0,0.4-0.1c0.1,0,0.1,0,0.2,0c0.3,0,0.6-0.1,0.9-0.1
			c0.2,0.3,0.3,0.5,0.5,0.8c0.1,0.2,0.2,0.4,0.3,0.5c0,0,0,0.1,0.1,0.1c1.1,1.9,2.1,3.8,3.1,5.7c0.9,1.7,1.9,3.3,2.8,5
			c0.1,0.2,0.2,0.5,0.4,0.7c-0.3,0.3-0.6,0.6-0.9,0.9c-0.3,0.4-0.7,0.7-1,1c3.7,4,8.7,6.6,14.2,7.5c5.2,0.8,10,0.1,14.5-1.8
			c1.3-2.9,2.6-5.8,3.8-8.7c0.1-0.3,0.3-0.7,0.4-1c0,0,0,0,0,0c0.1-0.4,0.3-0.7,0.4-1.1c0-0.1-0.1-0.1-0.1-0.2
			c-5.9-0.6-12.3-3.3-16.6-7.4c-0.3-0.3-0.5-0.5-0.8-0.8c0.2-0.3,0.4-0.6,0.6-0.9c1.6-2.5,3.5-4.8,5.2-7c1.3-1.7,2.7-3.3,4.1-5
			c0.2-0.2,0.3-0.4,0.5-0.6c-0.1-0.3-0.1-0.6-0.2-0.9c0.3,0,0.7,0,1,0c0,0,0,0,0,0c0,0,0,0,0,0c0.3,0,0.7,0,1,0
			c4.4,0,8.8,0.1,13.2,0.1C311.5,130.8,312.7,126.4,313.8,122.1z M309.7,136.7c-4.4,0.1-8.7,0.1-13.1-0.1c1.2,3.1,2,6.3,3,9.3
			c1.1,3.3,2.3,6.7,3.3,10.1C305.4,149.7,307.7,143.3,309.7,136.7z M301.7,156.3c-1.1-3-2-6.1-2.9-9.1c-1.1-3.4-2.4-6.8-3.4-10.3
			c-1.5,1.8-3,3.6-4.4,5.5c-1.6,2.2-3.1,4.5-4.7,6.8c2.2,1.7,4.5,3.4,7.1,4.6C296.1,155.1,298.9,155.8,301.7,156.3z M296.7,170.5
			c-5.1,1.7-10.8,1.9-15.8,0.7c-5.1-1.2-9.4-3.9-12.7-7.5c-1.6,1.3-3.3,2.5-4.9,3.7c-2.7,2-5.5,3.8-8.4,5.5c-3.2,1.8-6.5,3.5-9.9,5
			c4.1,5.5,9.6,10,15.9,12.9c7.6,3.4,15.6,4.1,23.6,3c0.7-1.2,1.4-2.3,2.1-3.5C290.2,183.7,293.6,177.2,296.7,170.5z M268.1,162
			c0.4-0.4,0.9-0.7,1.3-1c-1-1.8-1.9-3.8-2.9-5.7c-0.9-1.7-1.8-3.4-2.6-5.1c-0.1-0.2-0.2-0.4-0.3-0.6c-0.1-0.2-0.2-0.4-0.3-0.6
			c-0.3,0-0.6,0.1-0.9,0.1c0,0.4,0.1,0.7,0.2,1c0.1,0.3,0.1,0.6,0.2,0.9c-0.3,0.2-0.6,0.4-0.9,0.6c-7.5,4.6-15.7,7.1-24.4,8.1
			c-0.3,0-0.7,0.1-1,0.1c-0.6,0.1-1.2,0.1-1.8,0.2c-0.4,0-0.3-0.5,0-0.6c0.6-0.1,1.1-0.1,1.7-0.2c-0.1-0.9-0.2-1.9-0.3-2.8
			c-0.5,0.3-1.1,0.7-1.6,1.1c-0.5,0.4-1,0.8-1.4,1.2c0.7,2.6,1.2,5.2,1.7,7.8c0,0.1,0,0.2,0,0.3c0.4,0.3,0.7,0.5,1,0.8
			c0.1,0.1,0.2,0.2,0.3,0.2c0.2,0.2,0.5,0.3,0.7,0.5c-0.2,0.3-0.4,0.6-0.6,0.9c-0.4,0.5-0.7,1-1,1.5c-0.1,0.3-0.2,0.6-0.3,0.9
			c0.7,1.3,1.2,2.6,1.8,4c0.5,1.1,1.2,2.3,1.6,3.5c1.7-0.7,3.4-1.3,5.1-2c0.3-0.1,0.6-0.3,0.9-0.4c3.6-1.5,7.1-3.1,10.5-5.1
			c2.8-1.6,5.4-3.3,8-5.2c1.6-1.1,3.1-2.5,4.6-3.7C267.6,162.4,267.8,162.2,268.1,162z M262.7,240.1c4.7,0.5,9.5,0.9,14.3,1.4
			c-6.3-3.1-12.3-6.7-18.1-10.7c-5.2,2.5-10.6,4.8-15.9,7.1C249.6,238.4,256.2,239.4,262.7,240.1z M257.7,229.8
			c-0.8-0.6-1.6-1.2-2.4-1.8c-4.3-0.5-8.6-1.2-12.8-1.9c-0.7,2.2-1.6,4.4-2.5,6.6c0.4,0,0.8,0.1,1.2,0.1c0.3,0,0.6,0,0.8,0
			c0.1-0.3,0.6-0.3,0.7,0c0,0,0,0.1,0,0.2c0,0,0,0,0,0c0,0.1,0,0.3,0,0.4c0,0.2,0,0.5,0.1,0.7c0,0.1,0,0.1,0,0.2c0.1,0,0.3,0,0.4,0
			c-0.1,0-0.3,0.1-0.4,0.1c0,0.3,0,0.6,0.1,0.9c0,0.4,0.1,0.9,0.1,1.3c0,0,0,0,0,0C247.9,234.2,252.8,231.9,257.7,229.8z
			 M227.4,225.3c0.2-0.5,0.5-0.9,0.7-1.4c-1.8-0.6-3.5-1.4-5.2-2.1c-1.4-0.6-2.9-1-4.2-1.8c-0.2,0.6-0.5,1.1-0.7,1.7
			c1.9,0.4,3.7,1.2,5.5,1.8C224.9,223.9,226.4,224.4,227.4,225.3z M226.8,235.4c-0.2,0-0.3,0-0.5,0c0,0,0,0,0,0
			C226.5,235.4,226.7,235.4,226.8,235.4z M224.9,230.5c0.7-1.5,1.4-3.1,2.2-4.6c-1.6-0.1-3.2-0.9-4.6-1.5c-1.6-0.6-3.2-1.3-4.7-2.1
			c-0.6,1.6-1.2,3.3-1.6,5C219,228.7,221.9,229.8,224.9,230.5z M225.6,235.6C225.6,235.5,225.6,235.5,225.6,235.6
			c-3.9,0.3-7.7,0.7-11.6,1c-1.4,0.1-2.8,0.3-4.1,0.4c-13.1,1.8-26.3,3.2-39.4,4.7c0.1,0.4,0.2,0.8,0.3,1.1
			c11.8-1.9,23.7-3.2,35.5-4.7C212.7,237.3,219.2,236.4,225.6,235.6z M163.5,285.1C163.4,285.1,163.4,285,163.5,285.1
			C163.4,285.1,163.4,285.1,163.5,285.1C163.4,285.1,163.4,285.1,163.5,285.1z M162.7,283.3c0.1-0.6,0.1-1.3,0.1-1.9
			c0,0,0-0.1,0-0.1c-0.2,0.1-0.4,0.2-0.6,0.2c-2.6,1-5.4,1.5-8,2.2c0.5,0.9,1.2,1.7,2.2,2.2c0.6,0.4,1.4,0.6,2.1,0.7
			c1.1,0.1,2.3-0.1,3.1-0.9c0.1-0.1,0.2-0.2,0.2-0.3C162.4,284.9,162.6,284.1,162.7,283.3z M162.7,280.4c0,0,0.1,0,0.1,0
			c0-0.6-0.1-1.2-0.1-1.7c0-0.4-0.1-0.7-0.1-1.1c0-0.3-0.1-0.5-0.1-0.8c0-0.3-0.1-0.6-0.1-0.9c0-0.3-0.1-0.6-0.1-0.9
			c-0.1-0.9-0.3-1.7-0.5-2.6c-0.5-2.1-1-4.2-1.7-6.2c-0.1-0.2-0.1-0.4-0.2-0.6c0-0.1,0-0.1-0.1-0.2c-0.9-2.6-2.5-7.9-5.1-11.2
			c0,0-0.1,0.1-0.2,0.1c-2.8,0.9-5.7,1.8-8.5,2.7c-0.2,0.1-0.5,0.2-0.7,0.2c-5.6,1.7-11.2,3.5-16.8,5.2c1.7,1.1,2.9,3,3,5.1
			c0,0.1-0.1,0.1-0.1,0c-0.8-2.1-2.4-3.8-4.2-4.8c-3.3,1-6.5,2-9.8,3c2.1,1.1,3.5,3.2,3.6,5.5c0,0.1-0.1,0.1-0.1,0
			c-0.9-2.4-2.7-4.2-4.9-5.1c-3.2,1-6.5,2-9.7,2.9c1.9,1.1,3.1,3.1,3.2,5.3c0,0.1-0.1,0.1-0.1,0c-0.9-2.2-2.5-4-4.4-4.9
			c-9.8,2.9-19.7,5.9-29.5,8.7c-0.6,0.2-1.3,0.4-1.9,0.6c-0.8-0.1-1.6-0.1-2.5-0.2c-5.5-0.6-10.9-1.7-16.2-2.8
			c-5.6-1.2-11.2-2.5-16.6-4.3h0c-0.4,1.8-0.8,3.5-0.9,5.4c-0.1,2.4,0.2,4.7,0.7,7c3.1,1.8,6,4.2,8.7,6.5c2.6,2.1,5.3,4.3,7.8,6.7
			c5.5,1.1,11,2.3,16.7,2.8c6.7,0.6,13.3,0.6,20,0.5c0.1,0,0.2,0,0.2,0.1c3.7-1,7.5-2,11.2-3c6.9-2,13.8-4,20.6-6
			c7-2,14.1-4.1,21.1-6.1c2.8-0.8,5.5-1.6,8.3-2.3c0.3-0.1,0.7-0.2,1.1-0.3c0.2-0.1,0.5-0.1,0.7-0.2c2.5-0.7,5-1.6,7.6-2
			C162.2,280.5,162.4,280.4,162.7,280.4z M154.4,253.7c-0.9-1.1-2-1.9-3.1-2.2c-0.5-0.1-1-0.1-1.6,0c-0.7,0.1-1.2,0.4-1.7,0.8
			c-0.9,0.8-1.4,2.2-1.7,3.6C149,255.1,151.7,254.4,154.4,253.7z M110,266.7c1.1-0.3,2.2-0.7,3.4-1C112.2,265.7,111.1,266,110,266.7
			z M11.7,279.9c0.4-1.2,0.5-2.5,0.2-3.8c-0.2-0.9-0.5-1.6-1-2.4c-0.1-0.1-0.2-0.3-0.3-0.4c-0.1,0-0.2,0-0.2,0c-2,0.1-4,0-6-0.2
			c0.1,2.4,0.4,4.8,0.9,7.2C7.5,280.1,9.6,279.9,11.7,279.9z M11.2,272.1c1.6-3.2,1.6-6.2,0.2-9.5c-1-0.1-2-0.1-3,0
			c-0.3,0-0.5,0.1-0.8,0.1c-0.7,0.2-1.5,0.4-2.2,0.8c0,0,0,0,0,0c-0.6,2.9-0.9,5.8-0.9,8.7c1.8-0.1,3.6-0.2,5.5-0.1
			c0.4,0,0.8,0,1.2,0.1C11.1,272.2,11.2,272.1,11.2,272.1z"/>
		<path fill="#A88651" d="M474.1,60.2c3.3,1.3,0.9,5.1,0.1,7.2c-0.1,0.1,0,0.2,0.1,0.3c-10,25.6-20.2,51.1-30.8,76.4
			c-0.3,0.7-0.6,1.4-0.9,2.1c-3.2,7.7-6.5,15.5-9.8,23.2c-1.3-3.7-2.9-7.2-4.8-10.5c1.4-2.9,2.8-5.8,4.2-8.7c0,0,0,0,0,0
			c1.2-2.4,2.4-5,3.5-7.5c0.4-0.8,0.7-1.6,1.1-2.4c0,0,0,0,0,0c0.6-1.3,1.2-2.6,1.8-3.9c0-0.1,0.1-0.1,0.1-0.2
			c0.3-0.6,0.5-1.1,0.8-1.7c0.1-0.1,0.1-0.2,0.2-0.4c0.1-0.2,0.2-0.4,0.3-0.7c0.1-0.2,0.2-0.5,0.3-0.7c6.7-14.6,13.1-29.4,19.2-44.3
			c3.5-8.7,7.2-17.4,10.4-26.2C470.8,60.8,472.2,59.4,474.1,60.2z M443,134.1c0,0,0.1,0,0.1,0C443.1,134.1,443.1,134.1,443,134.1
			C443.1,134.1,443,134.1,443,134.1z"/>
		<path d="M467.5,64.9c0.1-0.1,0.2-0.2,0.3-0.3c-0.1,0.1-0.3,0.3-0.6,0.5C467.3,65.1,467.4,65,467.5,64.9z"/>
		<path fill="#B5986C" d="M467.2,65.1c0.3-0.3,0.5-0.4,0.6-0.5c-6.2,15.5-13.4,33.6-20,49c-2.7,6.3-5.5,12.7-8.4,18.9
			c-0.2,0.5-0.4,0.9-0.6,1.4l-1.2,2.8c-0.8,1.8-1.6,3.6-2.3,5.2c-0.9,1.9-1.8,3.9-2.7,5.8c0,0-0.1,0-0.1,0c-0.3,0.6-0.6,1.3-0.9,1.9
			c-1.3,2.8-2.7,5.6-4,8.4c-0.3-0.5-0.6-0.9-0.9-1.4c7.7-14.9,14.5-30.3,21.2-45.7c3.3-7.6,6.5-15.2,9.6-22.9
			c2.6-6.4,6.2-15.2,8.5-21.8c0.3-0.2,0.5-0.5,0.8-0.7c0.1-0.1,0.1-0.1,0.2-0.2C467,65.3,467.1,65.2,467.2,65.1z"/>
		<path d="M466.7,65.5c-0.3,0.2-0.5,0.5-0.8,0.7C466.3,66,466.5,65.7,466.7,65.5z"/>
		<path fill="#D4623F" d="M463.1,70.4c-2.1,5.3-4.1,10.6-6.2,15.9c-3.3,8.2-6.7,16.4-10.2,24.6c-3.9,9.1-7.9,18-12,27l-1-0.4
			c0.1-0.3,0.3-0.6,0.4-0.9c0.1-0.2,0-0.4-0.1-0.6c-0.1-0.1-0.2-0.1-0.3-0.2c0,0-0.1,0-0.2,0c0.2-0.5,0.5-1,0.7-1.5
			c0.2-0.5,0.4-1,0.7-1.5c0.2-0.5,0.5-1.1,0.7-1.6c2.3-5.3,4.3-10.7,6-16.1c0.2-0.7,0.5-1.5,0.7-2.2c1-3.5,1.9-7.1,2.6-10.7
			c1.5-7.6,2.1-15.4,1.7-23.1c3.1-0.9,6-2.2,8.7-3.5C458.1,74.1,460.8,72.4,463.1,70.4z"/>
		<g>
			<defs>
				<path id="xmlid2_86_" d="M445.2,79.3c0.3,6.2,0,12.4-1,18.5c-0.7,4.4-1.7,8.6-2.9,12.8c-4.3-8.4-10.5-16-17.2-22.6
					c-6.7-6.6-14.2-12.2-22.2-17.1c-0.9-0.5-1.8-1.1-2.7-1.6c-0.3-0.2-0.7-0.4-1-0.6c-0.4-0.2-0.8-0.5-1.2-0.7c-1-0.6-2-1.1-3-1.6
					c-20.8-11.2-43.6-19.1-66.5-25.2c5.8-12.6,16.5-22.6,29.4-27.8c15-6.1,31.5-5.3,46.3,1.1c25.8,11.3,40.2,36.9,42,63.8
					C445.2,78.6,445.2,79,445.2,79.3z"/>
			</defs>
			<use xlink:href="#xmlid2_86_"  overflow="visible" fill="#707D4B"/>
			<clipPath id="xmlid2_3_">
				<use xlink:href="#xmlid2_86_"  overflow="visible"/>
			</clipPath>
			<path opacity="0.43" clip-path="url(#xmlid2_3_)" fill="#F3E064" d="M327.5,41.2c0,0,22-46.1,81.4-23.9
				c50.8,19-37.1-42.7-37.1-42.7L333.1-8.6L320.3,23L327.5,41.2z"/>
			<path clip-path="url(#xmlid2_3_)" fill="#515A37" d="M418.4,23.8c0,0,28.8,34.6,16.6,76.7c-12.2,42.2,15.1,2.2,15.1,2.2l3.5-64.2
				L418.4,23.8z"/>
		</g>
		<path d="M443.2,134.1c0,0-0.1,0-0.1,0C443,134.1,443.1,134.1,443.2,134.1C443.1,134.1,443.1,134.1,443.2,134.1z"/>
		<g>
			<defs>
				<path id="xmlid2_1_" d="M440.7,113c-1.9,6-4.1,11.8-6.7,17.5c0,0,0,0,0,0c-0.2,0.5-0.4,1-0.6,1.4c-0.4,0.9-0.8,1.8-1.2,2.6
					c-8.9,1-13-8.5-13.1-16.7c-0.1-7.9,1.8-16.7-2.9-23.7c-3.7-5.5-10.7-7.3-17-6.5c-7,1-14,4.8-20.1,8.7c-0.5-0.7-1-1.4-1.5-2.1
					c-1.1-1.7-2.3-3.5-3.4-5.2c1.5-1.2,2.8-2.5,4.2-3.7c2.5-2.2,5.1-4.3,7.6-6.5c3.2-2.7,6.7-5.4,9.9-8.2c1,0,2-0.1,2.9,0
					c7.1,4.2,13.9,9,20.1,14.5C428,93.3,434.9,102.5,440.7,113z"/>
			</defs>
			<use xlink:href="#xmlid2_1_"  overflow="visible" fill="#A88651"/>
			<clipPath id="xmlid2_4_">
				<use xlink:href="#xmlid2_1_"  overflow="visible"/>
			</clipPath>
			<polygon clip-path="url(#xmlid2_4_)" fill="#BE9D62" points="371.4,88.1 376.5,98.3 385.5,93.5 383,78.6 			"/>
			<polygon clip-path="url(#xmlid2_4_)" fill="#BE9D62" points="384.1,79 386.4,93 387.7,92.2 385.4,77.9 			"/>
			<path clip-path="url(#xmlid2_4_)" fill="#7C613D" d="M398.8,70.8c0,0,29.5,19.8,41.2,44.1l1.6-2.5l-11.2-26.9l-26-12.9L398.8,70.8
				z"/>
			<polygon clip-path="url(#xmlid2_4_)" fill="#7C613D" points="440.7,106.9 429.6,135.5 432.3,135.5 442.4,109.3 			"/>
			<polygon clip-path="url(#xmlid2_4_)" fill="#BE9D62" points="386.9,77.1 389.2,91.2 390.5,90.4 388.1,76.1 			"/>
		</g>
		<path fill="#AE5235" d="M433.7,137.4l1,0.4c-2.8,6.1-5.6,12.2-8.4,18.3c-0.6-0.9-1.2-1.8-1.8-2.7c0.4-0.7,0.8-1.5,1.2-2.2
			c0.2-0.1,0.4-0.1,0.6-0.2c0.1,0,0.2,0,0.3-0.1h0v0c0.5-0.6,1-1.3,1.4-2.1c0.9-1.5,1.5-3.2,2.3-4.7
			C431.4,142,432.6,139.7,433.7,137.4z"/>
		<g>
			<defs>
				<path id="xmlid2_85_" d="M432.6,172.4c2.5,8.3,3.1,17.1,1.6,25.9c-3.1,18.1-14.3,33-29.8,42.5c-0.8,0.5-1.6,1-2.5,1.5
					c-0.6,0.3-1.1,0.6-1.7,0.9c-4,2.1-8.1,3.9-12.3,5.5c-0.7-3-1.6-6.1-2.6-9c-0.1-0.4-0.3-0.8-0.4-1.3c-0.2-0.6-0.5-1.3-0.7-1.9
					c-1.2-3.3-2.6-6.5-4.1-9.6c-0.6-1.2-1.2-2.5-1.8-3.8c8-3,15.4-7.4,21.6-13.7c2.4-2.4,4.6-5.1,6.5-7.9c0,0,0,0,0.1-0.1
					c0,0,0,0,0-0.1c1.8-2.7,3.3-5.5,4.5-8.4c0.5-1.3,1-2.7,1.4-4c0.8-2.7,1.3-5.5,1.5-8.3c0-0.3-0.5-0.3-0.5,0
					c-0.5-2.1-3.7-4.4-5-5.5c-2.3-1.9-4.9-3.3-7.7-4.4c-0.3-0.1-0.6,0.4-0.2,0.6c3.7,1.6,8.5,4.3,10.6,7.9c1.7,2.9-0.4,2.8-2.3,3
					c-1.2,0.1-2.4,0.3-3.6,0.4c-2.3,0.3-4.6,0.5-6.9,0.9c-0.4,0.1-0.3,0.7,0.1,0.7c4-0.2,8-0.6,12-1.1c0.4,0,0.9-0.1,1.3-0.2
					c-1.1,1.8-2,3.7-3,5.5c-1.7,2.9-3.3,5.9-4.9,8.9c-2.6,4.7-5.5,9.3-7.9,14.2c-5.3,4.4-11.5,7.9-18,10.4c-0.4-0.7-0.7-1.3-1.1-1.9
					c-0.3-0.4-0.5-0.8-0.8-1.2c-0.4,0-0.9,0.1-1.3,0.1c-2.3,0.2-4.6,0.8-6.6,1.3c-2.3,0.6-5,1.2-7.3,2.3c-0.3,0.2-0.7,0.3-1,0.5
					c0,0.4,0,0.7,0,1.1c0,0,0,0,0,0c0,0.9,0,1.7,0,2.6c-11,1.7-22.3,1.8-33.5,0.9c-1.3-0.9-2.9-1.5-4.9-1.5c-0.2,0-0.2,0.3,0,0.3
					c1.2,0.1,2.2,0.4,3.1,1c-1.9-0.2-3.7-0.4-5.6-0.6c-1.3-1.1-3-1.8-5.2-1.7c-0.2,0-0.2,0.3,0,0.3c1.3,0.1,2.5,0.5,3.5,1.2
					c-2.3-0.3-4.6-0.7-6.9-1c-1.4-1.3-3.2-2.1-5.6-2.1c-0.2,0-0.2,0.3,0,0.3c1.5,0.1,2.8,0.6,3.8,1.4c-2.1-0.4-4.1-0.8-6.1-1.2
					c-10.3-2.1-20.3-5.1-30.1-8.7c1.3-1.7,2.5-3.4,3.7-5.1c3.5-4.9,6.8-10,9.9-15.2c0,0,0,0,0-0.1c0.3-0.5,0.6-1,0.9-1.4
					c4.5-7.7,8.7-15.5,12.4-23.6c0.3-0.7,0.6-1.3,0.9-2c0.9-2,1.7-3.9,2.6-5.9c0.3-0.7,0.6-1.3,0.8-2c0.1-0.3,0.2-0.6,0.4-0.9
					c0,0,0.1,0,0.1-0.1c5.3-2.7,10.6-5.6,16.1-8c4.9-2.1,10-3.8,15-5.6c2.3,3.7,4.8,7.3,6.9,11.2c1.5,2.7,2.7,5.6,3.9,8.4
					c0.2,0.5,0.4,1,0.7,1.5c0.4,0,0.8-0.1,1.3-0.1c15.8-1.3,31.6-4.2,47-7.4c9.3-1.9,18.6-4.1,27.8-6.7c0,0,0.1,0,0.1,0
					c0.3,0.4,0.6,0.7,0.8,1.1c0.3,0.4,0.5,0.7,0.8,1.1c0.7,0.9,1.3,1.9,1.9,2.8c-0.1,0.2-0.2,0.4-0.3,0.6c-0.1,0.2,0.2,0.4,0.3,0.2
					c0.1-0.1,0.1-0.2,0.2-0.3c0.3,0.5,0.6,0.9,0.9,1.4c0.2,0.3,0.3,0.6,0.5,0.9c1.9,3.5,3.5,7.1,4.7,10.9
					C432.4,171.4,432.5,171.9,432.6,172.4z"/>
			</defs>
			<use xlink:href="#xmlid2_85_"  overflow="visible" fill="#F4E7E3"/>
			<clipPath id="xmlid2_5_">
				<use xlink:href="#xmlid2_85_"  overflow="visible"/>
			</clipPath>
			<path clip-path="url(#xmlid2_5_)" fill="#DDDDEF" d="M334.7,145.2c0,0,10.5,19.7,11.4,24c0,0,59.9-9.1,77-15.9
				c17.2-6.8-16.3-6.4-16.3-6.4L334.7,145.2z"/>
			<path clip-path="url(#xmlid2_5_)" fill="#DDDDEF" d="M425.2,156.3c0,0,36.1,53.8-37.3,92.2l6.9,6.3l50-24.2l-5.2-53.9L425.2,156.3
				z"/>
			<path clip-path="url(#xmlid2_5_)" fill="#DDDDEF" d="M400.3,171.2c0,0,7.3,4.7,7.1,7.9s-9.3,4.3-9.3,4.3l10.5-1.1l2.8-0.3l1.8-1.6
				l-5-5.5L400.3,171.2z"/>
			<path clip-path="url(#xmlid2_5_)" fill="#DDDDEF" d="M387.6,253.3l-8.3,1.6c0,0-7-23.6-8.3-24.2c-1.3-0.6-1.2,4.9,0,14
				c1.2,9.1,0.8,11.1,0.8,11.1l-4.8,0.5l-0.5-2.3l-2.4,1.6l1.3,2.3l13,5.9l12.9-3.3L387.6,253.3z"/>
			<path clip-path="url(#xmlid2_5_)" fill="#DDDDEF" d="M387.7,218.5c0.4-0.3,0.9-0.6,1.4-0.9c1.5-1.5,3.6-2.5,5.4-3.7
				c0.4-0.3,0.9-0.6,1.3-0.9c1.7-1.5,3.2-3.1,4.7-4.8c1.3-1.8,2.9-3.5,4.4-5.1l8-20.4c0,0-17.2,16.1-25.2,35.3
				c-0.1,0.2-0.2,0.5-0.3,0.7C387.5,218.6,387.6,218.5,387.7,218.5z"/>
		</g>
		<path fill="#F4E7E3" d="M430.6,137.9c0.6-0.1,1.1-0.2,1.7-0.3c-1.1,2-2,4-3,6.1c-0.9,1.8-2.1,3.7-2.8,5.7
			c-0.5,0.1-1.1,0.3-1.6,0.4c-0.9,0.2-1.8,0.5-2.6,0.7c-0.1,0-0.3,0.1-0.4,0.1c-0.2,0.1-0.4,0.1-0.6,0.2c-8.8,2.4-17.8,4.5-26.7,6.4
			c-9.2,1.9-18.4,3.6-27.6,5c-6.7,1-13.4,1.7-20.1,2.5c-1.3-3-2.9-6-4.4-8.7c-1.9-3.6-4-7.4-6.4-10.8c7.6,0.3,15.3,0.2,22.8,0
			c9.5-0.2,19.1-0.7,28.6-1.5c9.2-0.8,18.4-1.8,27.6-3.2c4.8-0.7,9.6-1.5,14.4-2.3C429.7,138.1,430.2,138,430.6,137.9z"/>
		<path fill="#F4E7E3" d="M425.8,157.3l0.3,0.4c-0.1,0.1-0.1,0.2-0.2,0.3c-0.1,0.2-0.4,0-0.3-0.2
			C425.7,157.7,425.7,157.5,425.8,157.3z"/>
		<g>
			<defs>
				<path id="xmlid2_84_" d="M419.9,129.3c1.7,3.4,5.5,6.7,9.5,7.3c-4.6,0.8-9.2,1.6-13.9,2.2c-9.5,1.4-19.1,2.5-28.7,3.3
					c-9.3,0.8-18.7,1.3-28,1.6c-6.6,0.2-13.1,0.1-19.7,0c-1,0-1.9,0-2.9,0c0,0,0,0,0,0c-0.4,0.1-0.7,0.2-1.1,0.3
					c-0.3,0.1-0.6,0.2-0.9,0.3c-0.7,0.2-1.4,0.4-2.1,0.7c-4.1,1.4-8.1,3.1-11.9,4.7c-5.1,2.2-10.2,4.5-15.1,7.2
					c-0.3,0-0.5-0.1-0.8-0.1c2.6-6.6,5-13.3,7-20.1c0.2-0.5,0.3-1,0.5-1.6c1.6-5.4,3-10.8,4.3-16.3c0.1-0.3,0.1-0.6,0.2-1
					c0.7-3.2,1.3-6.4,1.9-9.6c0-0.1,0.1-0.3,0.1-0.4c0-0.1,0-0.1,0-0.2c0-0.3,0.1-0.5,0.1-0.7c0.2-1,0.3-2,0.5-2.9
					c3.7,0.2,7.9,0.9,11.3-0.7c2.4-1.2,4.2-3.9,3.5-6.7c-0.6-2.4-3-3.6-5.2-2.8c-0.4,0.1-0.2,0.7,0.2,0.6c2.8-0.6,4.8,2.5,3.5,4.9
					c-0.7,1.3-2.2,2.3-3.6,2.8c-2.6,0.9-5.4,0.6-8.1,0.5c-0.4,0-0.9,0-1.3-0.1c-0.5,0-0.9,0-1.4-0.1c-4.5-0.2-9-0.3-13.5-0.4
					c2.4-6.3,4.6-12.6,7.7-18.6c1-1.9,2-3.7,3.1-5.5c0.1-0.2,0.3-0.5,0.5-0.7c1.9-3,4-5.8,6.2-8.5c0,0.1,0.2-0.1,0.2-0.2
					c0.1-0.1,0.2-0.3,0.4-0.4c0.4-0.5,0.8-0.9,1.2-1.3c0.1-0.1,0.2-0.7,0.2-1c0.6-3.8,1.3-7.6,2.2-11.3c2.4,1.7,4.8,3.5,7.2,5.3
					c9.4,7.2,19.2,13.6,31.3,14.1c7.8,0.3,15.4-1.3,23.1-2.3c1.9-0.2,3.9-0.5,5.8-0.6c-2.5,2.1-5,4.4-7.4,6.5
					c-2.4,2-4.8,4.1-7.3,6.1c-1.7,1.5-3.6,2.9-5.3,4.4c-0.2,0.2-0.4,0.4-0.7,0.6c0.2,0.4,0.5,0.8,0.7,1.2c1,1.7,2.1,3.4,3.2,5.2
					c0.5,0.7,0.9,1.5,1.4,2.3c0.2,0.4,0.4,0.7,0.6,1.1c0.4-0.2,0.8-0.4,1.2-0.7c7.1-3.8,14.2-8.6,22.5-8.5c3.9,0,8,1.1,10.9,3.9
					c3.4,3.2,4.6,8,4.8,12.5C418.4,113.3,416.3,121.9,419.9,129.3z"/>
			</defs>
			<use xlink:href="#xmlid2_84_"  overflow="visible" fill="#D7A671"/>
			<clipPath id="xmlid2_6_">
				<use xlink:href="#xmlid2_84_"  overflow="visible"/>
			</clipPath>
			<path opacity="0.4" clip-path="url(#xmlid2_6_)" fill="#9C2629" d="M216.2,38.2c0,0,2.8-3.8,3.3,0.2c1.2,10.2,11.1,25.2,11.1,25.2
				l-0.9,4.1l-2,3.1l-26-1.2l3.9-14.1l6.2-10.4L216.2,38.2z"/>
			<path opacity="0.6" clip-path="url(#xmlid2_6_)" fill="#B2683C" d="M318.9,72.6c0,0,1.8,1,5.7,6.1c3.8,5,12.5,8.9,21.3,8
				c18.3-1.8,34.6-11.2,47.5-15.6c12.1-4.2-48.3-17.2-48.3-17.2l-23.9-11.9"/>
			<path opacity="0.6" clip-path="url(#xmlid2_6_)" fill="#B2683C" d="M407.4,89.7c0,0,12.8,2.5,9.1,24.1
				c-2.3,13.5,4.3,22.8,4.3,22.8s-61.2,9.5-82.7,7.6s70.7,6,70.7,6l27.1-12.9l-2.4-20.9l-14-37.3L403,83.5L407.4,89.7z"/>
			<path opacity="0.6" clip-path="url(#xmlid2_6_)" fill="#B2683C" d="M408.3,103.3c0,0,2.7,7.1,0.1,11.5c-2.6,4.4-10.8,2.8-10.8,2.8
				s8.7-1.4,9.9-7.5S408.3,103.3,408.3,103.3z"/>
			<path opacity="0.6" clip-path="url(#xmlid2_6_)" fill="#B2683C" d="M333.7,96.5c0,0,2,3.6-1.6,6.8c-2.9,2.5-13.3,1.7-13.3,1.7
				l0.2-1l12.2-2l2-3.4L333.7,96.5z"/>
			<path opacity="0.8" clip-path="url(#xmlid2_6_)" fill="#B2683C" d="M310.7,137.3c0,0,40.4,2.1,49.6-15.4c0,0-13.3,12.5-39.9,11.2
				l-8.4-0.5L310.7,137.3z"/>
			<path opacity="0.6" clip-path="url(#xmlid2_6_)" fill="#B2683C" d="M375.2,89.2l-2.5,1.9l6.1,9c0,0,14-12.8,30.1-10.9
				c16.1,1.9-9.5-10-9.5-10L375.2,89.2z"/>
			<path opacity="0.6" clip-path="url(#xmlid2_6_)" fill="#B2683C" d="M364.6,102c0,0,4.6,5.8,4.7,11.7
				C369.3,113.7,373.9,106.7,364.6,102z"/>
			<path clip-path="url(#xmlid2_6_)" fill="#EFD49D" d="M318.9,72.6c0,0-10.1,18.6-12.2,26.4c0,0-1.9,2.9,2.3,3.2
				c4.2,0.2,4.2,0.2,4.2,0.2l-12.8,2l13-29.8L318.9,72.6z"/>
		</g>
		<path d="M419.7,319.6c0.3,0.1,0.6,0.3,0.9,0.4c0,0.1-0.1,0.1-0.1,0.2c-0.4,0.3-0.9,0.6-1.4,0.9c-2.7,1.4-5.9,2.2-8.6,3.2
			c-1.8,0.7-3.6,1.3-5.5,1.9c-0.3,0.1-0.7,0.2-1,0.4c-0.1,0-0.3,0.1-0.4,0.1c-0.7,0.2-1.4,0.5-2.1,0.7c-0.5-0.1-1.1-0.3-1.6-0.4
			c-14.7-3.8-29.3-7.8-43.9-11.7c-5.2-1.4-10.4-2.8-15.6-4.1c-0.6-0.2-1.2-0.3-1.8-0.5c-2.9-0.8-5.8-1.5-8.7-2.3
			c1.1,0.6,2.1,1.3,3.2,1.9c4.4,2.6,8.8,5,13.3,7.4c1.9,1,3.9,2,5.9,2.9c-0.2,0-0.3,0-0.5,0.1c0,0,0,0,0.1,0.1
			c-0.5,0.2-1,0.4-1.6,0.6c-3.1,1.2-6.4,2.2-9.7,3h0c-0.1,0.1-0.3,0.2-0.5,0.1c0,0,0,0,0,0c-0.2,0-0.3,0.1-0.5,0.1
			c-0.9,0.2-1.7,0.4-2.6,0.6c-0.9-0.2-1.9-0.5-2.8-0.7c-11.8-3.1-23.5-6.2-35.3-9.4c-2.3,2.3-4.7,4.6-7.1,6.9c2.3,0.2,4.6,0.5,6.9,1
			c0.7,0.1,0.5,1.3-0.2,1.2c-2.7-0.3-5.4-0.6-8.1-0.8c-0.4,0-0.9-0.1-1.3-0.1c-3.3-0.3-6.5-0.5-9.9-0.5c-1.4,0-2.8,0-4.1,0.1
			c-0.7,0-1.4,0.1-2.1,0.1c-0.3,0-0.6,0-1,0.1c-0.6,0-1.2,0.1-1.7,0.1c-3.5,0.2-6.9,0.6-10.4,0.7c-0.3,0-0.4-0.5-0.1-0.6
			c3.9-0.9,8-1.4,12-1.6c3.4-3.1,6.8-6.2,10.1-9.3c0.5-0.5,1-0.9,1.5-1.4l0.6,0.6c-0.6,0.6-1.2,1.1-1.8,1.7
			c-2.9,2.7-5.8,5.5-8.7,8.2c0.3,0,0.6,0,0.9,0c3-2.8,6-5.7,9-8.5c0.5-0.5,1.1-1,1.6-1.5c0.4-0.3,0.7-0.7,1.1-1
			c0.1-0.1,0.1-0.1,0.2-0.2c0.3-0.3,0.7-0.7,1-1c3.3-3.1,6.6-6.3,9.9-9.4c0.3-0.3,0.7-0.6,1-1c0.1-0.1,0.3-0.3,0.4-0.4
			c-0.1,0-0.3-0.1-0.4-0.1c-1.1-0.3-3.4-0.9-4.5-1.2c-10.4-2.8-20.8-5.5-31.1-8.3c-0.3-0.1-0.6-0.1-0.8-0.2
			c-0.3-0.1-0.5-0.1-0.8-0.2c-0.3-0.1-0.5-0.1-0.8-0.2c-11.1-3-22.1-6-33.1-9.2l0.2-0.8c11.8,3,23.6,6.2,35.4,9.4
			c0.1,0,0.2,0.1,0.4,0.1c11.6,3.1,23.3,6.2,34.9,9.4c0.4,0.1,0.8,0.2,1.2,0.3c0.1,0,0.3,0.1,0.4,0.1c0.4,0.1,0.7,0.2,1.1,0.3
			c-0.3,0.3-0.7,0.7-1,1c-0.1,0.1-0.2,0.3-0.4,0.4c-0.3,0.3-0.6,0.7-1,1c-3.2,3.2-6.5,6.3-9.8,9.4c-0.3,0.3-0.7,0.7-1,1
			c-0.1,0.1-0.1,0.1-0.2,0.2c-0.4,0.3-0.7,0.7-1.1,1c-0.9,0.8-1.7,1.6-2.5,2.4c-2.5,2.4-5,4.8-7.5,7.2c0.9,0,1.8,0,2.8,0
			c3.7,0,7.5,0.1,11.2,0.4c2.4-2.4,4.8-4.7,7.2-7.1c0.4-0.3,0.7-0.7,1.1-1c0.1-0.1,0.1-0.1,0.2-0.2c0.3-0.3,0.7-0.7,1-1
			c3.3-3.2,6.5-6.3,9.8-9.5c0.3-0.3,0.7-0.6,1-1c0.1-0.1,0.2-0.2,0.4-0.3c0.4-0.3,0.7-0.7,1.1-1c0.3,0.1,0.5,0.1,0.8,0.2
			c6.8,1.8,13.6,3.7,20.4,5.5c11.8,3.2,23.7,6.4,35.6,9.5c11.5,3.1,23.2,5.9,34.6,9.4c2-0.8,3.9-1.5,5.9-2.3c2.5-0.9,5.1-2.2,7.8-3
			c-1.3-0.7-2.5-1.4-3.8-2c-4.6-2.4-9.2-5-13.8-7.6c-7.8-4.6-15.7-9.4-23-14.9c-0.2-0.2-0.5-0.3-0.7-0.5c0.1-0.3,0.3-0.6,0.4-0.8
			l0.8,0.4c7.7,5,15.2,10.2,23.2,14.8c4.4,2.6,8.8,5,13.3,7.4C415.8,317.7,417.8,318.6,419.7,319.6z M401.8,326.2
			c0.1,0,0.2-0.1,0.3-0.1c-4.1-1-8.2-2-12.3-3.1C393.7,324.1,397.8,325.1,401.8,326.2z M386.7,322.2c-7.5-2-15.1-4.2-22.6-6.2
			c-8.7-2.3-17.5-4.7-26.3-7c-0.1,0-0.3-0.1-0.4-0.1c-8.4-2.3-16.9-4.5-25.3-6.8c-0.1,0.1-0.2,0.2-0.3,0.3c5.1,1.3,10.2,2.7,15.3,4
			c3.4,0.9,6.8,1.8,10.2,2.7c0.3,0.1,0.7,0.2,1,0.3C354.5,313.6,370.6,317.9,386.7,322.2z M348.8,320.5c-0.9-0.5-1.7-0.9-2.6-1.4
			c-4.6-2.4-9.2-5-13.8-7.6c-2.4-1.4-4.7-2.8-7.1-4.2c-4.9-1.3-9.7-2.6-14.6-3.9c-3.2,3.2-6.3,6.4-9.5,9.5c1.2,0.3,2.5,0.7,3.7,1
			c11.3,3,22.7,5.8,34,9.2C342.2,322.1,345.5,321.2,348.8,320.5z M336.5,323.8c0.1,0,0.2-0.1,0.3-0.1c-3.8-0.9-7.5-1.9-11.2-2.9
			C329.2,321.8,332.9,322.8,336.5,323.8z M300.1,314.1c7.5,2,15,4,22.5,6c-7.5-2-14.9-4.1-22.3-6.1C300.2,314,300.2,314,300.1,314.1
			z"/>
		<path fill="#A88651" d="M413.6,318.1c1.3,0.7,2.5,1.4,3.8,2c-2.7,0.8-5.3,2.1-7.8,3c-2,0.7-3.9,1.5-5.9,2.3
			c-11.4-3.5-23.1-6.3-34.6-9.4c-11.8-3.2-23.7-6.4-35.6-9.5c-6.8-1.8-13.6-3.7-20.4-5.5c-0.3-0.1-0.5-0.1-0.8-0.2
			c-0.4,0.3-0.7,0.7-1.1,1c-0.1,0.1-0.2,0.2-0.4,0.3c-0.3,0.3-0.7,0.7-1,1c-3.3,3.1-6.6,6.3-9.8,9.5c-0.3,0.3-0.7,0.7-1,1
			c-0.1,0-0.1,0.1-0.2,0.2c-0.4,0.3-0.7,0.7-1.1,1c-2.4,2.3-4.8,4.7-7.2,7.1c-3.7-0.3-7.5-0.4-11.2-0.4c-0.9,0-1.8,0-2.8,0
			c2.5-2.4,5-4.8,7.5-7.2c0.8-0.8,1.7-1.6,2.5-2.4c0.4-0.3,0.7-0.7,1.1-1c0.1-0.1,0.1-0.1,0.2-0.2c0.3-0.3,0.7-0.7,1-1
			c3.3-3.1,6.6-6.2,9.8-9.4c0.3-0.3,0.7-0.6,1-1c0.1-0.1,0.3-0.3,0.4-0.4c0.3-0.3,0.7-0.7,1-1c-0.4-0.1-0.7-0.2-1.1-0.3
			c-0.1,0-0.3-0.1-0.4-0.1c-0.4-0.1-0.8-0.2-1.2-0.3c-11.6-3.1-23.3-6.2-34.9-9.4c-0.1,0-0.2-0.1-0.4-0.1
			c-11.8-3.2-23.6-6.4-35.4-9.4c0-0.1-0.1-0.2-0.2-0.2c-0.6-0.3-1.1-0.7-1.5-1.1c-0.3-0.3-0.5-0.5-0.6-0.8c-1.7-2.7-0.4-6.3,2.8-7.6
			c32.8,8,66,14.8,99.1,21c0.9,0.2,1.9,0.4,2.8,0.5c0.3,0,0.5,0.1,0.8,0.2c0,0,0,0,0.1,0c6.9,1.3,13.8,2.8,20.8,3.9
			c0.3,0,0.6,0.1,0.9,0.1c0.3-0.5,0.6-1,0.9-1.6c6.6-10.9,13.2-21.8,19.7-32.7c0.9-0.6,1.7-1.5,2.5-2.3c0.2-0.1,0.3-0.3,0.5-0.4
			c0.5,0.6,1.1,1.2,1.8,1.6c0.3,0.2,0.6,0.4,0.9,0.6c0.6-0.1,1.2-0.2,1.9-0.4c2.5-0.5,5.2-1.1,7.5-2c0.3-0.1,0.6-0.3,0.9-0.4
			c0-0.3,0-0.5-0.1-0.8c-0.2-2.1-0.6-4.1-1-6.1c3.9-1.4,7.7-3,11.3-4.9c-7.5,16.5-15.5,32.8-23,49.3c0,0,0,0.1-0.1,0.1
			c-0.1,0.3-0.3,0.6-0.4,0.8c0.2,0.2,0.5,0.3,0.7,0.5c7.3,5.5,15.2,10.3,23,14.9C404.4,313.1,408.9,315.6,413.6,318.1z"/>
		<path d="M413,182.4c0,0.1-0.1,0.2-0.1,0.3c0-0.1,0-0.3,0.1-0.5C413,182.2,413,182.3,413,182.4z"/>
		<path fill="#F4E7E3" d="M413,181.9c0,0.1,0,0.2,0,0.3c0-0.1,0-0.1,0-0.2C413,182,413,181.9,413,181.9z"/>
		<path d="M412.9,182c0,0.1,0,0.1,0,0.2c0,0.2,0,0.3-0.1,0.5c-2.4,5-5.7,9.8-8.5,14.5c-2.5,4.2-4.8,8.7-7.3,12.9
			c-0.5,0.5-1,0.9-1.6,1.3c2.4-4.8,5.3-9.5,7.9-14.2c1.6-3,3.3-5.9,4.9-8.9c1-1.8,2-3.7,3-5.5C412,182.7,412.6,182.5,412.9,182z"/>
		<path fill="#B5986C" d="M412.9,182.6c0,0.2-0.1,0.4-0.1,0.6c-2,10.7-7.8,19.8-15.7,26.7c2.6-4.2,4.9-8.6,7.3-12.9
			C407.2,192.4,410.5,187.6,412.9,182.6z"/>
		<path d="M412.8,181.2c0,0.3,0.1,0.6,0.1,0.8c-0.3,0.5-0.9,0.7-1.5,0.8c0.4-0.7,0.8-1.4,1.3-2C412.7,180.9,412.8,181.1,412.8,181.2
			z"/>
		<path d="M395.5,211.4c0.5-0.4,1.1-0.9,1.6-1.3c-0.5,0.9-1.1,1.7-1.6,2.5c-0.3,0.2-0.6,0.4-0.8,0.7
			C394.9,212.6,395.2,212,395.5,211.4z"/>
		<path fill="#707D4B" d="M395.7,69c0,0-0.1,0.1-0.1,0.1c-1.4,0-2.9,0-4.4,0.1c-7.6,0.5-15.1,2.2-22.7,2.5c-7.6,0.3-14.8-1.4-21.5-5
			c-5.9-3.2-11.1-7.3-16.4-11.3c-1.4-1-2.8-2.1-4.2-3.1c-0.3-0.2-0.6-0.4-0.8-0.6c-9-6.3-18.5-11.7-28.6-16c5.3,1,10.5,2,15.8,3.2
			c4.4,1,8.8,2.2,13.2,3.3c0.3,0.1,0.6,0.2,0.9,0.2c8.3,2.3,16.5,4.8,24.6,7.5C366.5,55.3,381.7,61.1,395.7,69z"/>
		<path fill="#F4E7E3" d="M386.9,250.1c0.4,1.9,0.9,3.9,1.3,5.8c-2.9,0.4-5.9,1.4-8.7,2.3c-0.3-0.1-0.5-0.3-0.8-0.5
			c-0.6-0.4-1.1-0.9-1.5-1.4c-0.3-0.3-0.6-0.6-0.9-0.9c-0.2,0.2-0.4,0.5-0.7,0.7c-0.2,0.2-0.3,0.3-0.5,0.5c0,0,0,0-0.1,0.1
			c-0.3,0.2-0.5,0.5-0.8,0.7c-0.1,0-0.2-0.1-0.3-0.1c-0.2,0-0.5,0-0.7,0c-0.6,0-1.2,0-1.8,0.1c-0.4,0-0.8,0-1.3,0
			c-1.7,0.1-3.4,0.1-5.1,0.3c-0.3-0.4-0.5-0.8-0.7-1.2c-0.2-0.4-0.4-0.7-0.6-1.1c0.8-0.1,1.6-0.2,2.4-0.4c0,0.4,0,0.7,0,1.1
			c0,0.4,0.6,0.4,0.6,0c0-0.4,0.1-0.8,0.1-1.2c0-0.4,0.1-0.8,0.1-1.2c0.3-5.1,0.3-10.1-0.4-15.1c-0.6-4.1-1.6-8-3.1-11.7
			c-0.2-0.4-0.3-0.8-0.5-1.3c-0.4-0.9-0.8-1.8-1.2-2.7c2-0.7,4-1.5,6-1.9c2.3-0.6,4.7-0.8,7-1.1c0.4,0.7,0.8,1.5,1.2,2.2
			c0.3,0.4,0.5,0.9,0.8,1.3c0.6,1,1.2,2,1.7,3c1.7,3.4,3.2,7,4.6,10.6c0.3,0.8,0.6,1.6,0.9,2.5c0.1,0.4,0.3,0.9,0.4,1.3
			c0.8,2.7,1.5,5.4,2.1,8.1C386.7,249.4,386.8,249.8,386.9,250.1z M379.6,252.6c0.1,0.4,0.7,0.2,0.6-0.2c0-0.1,0-0.1-0.1-0.2
			c-0.1-0.3-0.2-0.7-0.3-1c-0.2-0.5-0.3-1-0.5-1.5c-0.1-0.5-0.3-0.9-0.4-1.4c-0.9-2.9-1.9-5.8-2.9-8.7c-1.4-3.9-2.4-8.2-4.4-11.8
			c-0.2-0.4-0.7-0.1-0.6,0.3c0,0.3,0.1,0.5,0.1,0.8c0.8,3.9,2.6,7.8,3.9,11.5c1,3,2.1,5.9,3.3,8.9c0.2,0.4,0.3,0.9,0.5,1.3
			c0.1,0.3,0.2,0.5,0.3,0.8c0.1,0.3,0.3,0.7,0.4,1C379.5,252.5,379.5,252.5,379.6,252.6z M371.5,251.8c0.1,0,0.2-0.1,0.2-0.3
			c-0.1-4.1-0.3-8.3-0.6-12.4c-0.3-3.3-0.4-6.8-1.1-10.1c-0.1-0.5-0.2-0.9-0.4-1.4c-0.1-0.2-0.3-0.3-0.4-0.2c-0.1,0-0.2,0.1-0.2,0.3
			c-0.2,3.9,0.6,8,1,11.9c0.4,4,0.8,7.9,1.2,11.9C371.2,251.8,371.4,251.9,371.5,251.8z"/>
		<path d="M380.2,252.4c0.1,0.4-0.5,0.5-0.6,0.2c0-0.1-0.1-0.1-0.1-0.2c-0.1-0.3-0.3-0.7-0.4-1c-0.1-0.3-0.2-0.5-0.3-0.8
			c-0.2-0.4-0.3-0.9-0.5-1.3c-1.1-2.9-2.2-5.9-3.3-8.9c-1.3-3.7-3.1-7.6-3.9-11.5c-0.1-0.3-0.1-0.5-0.1-0.8
			c-0.1-0.4,0.4-0.6,0.6-0.3c2,3.6,3,7.9,4.4,11.8c1,2.9,2,5.8,2.9,8.7c0.1,0.5,0.3,0.9,0.4,1.4c0.1,0.5,0.3,1,0.5,1.5
			c0.1,0.3,0.2,0.7,0.3,1C380.1,252.3,380.2,252.4,380.2,252.4z"/>
		<path fill="#B5986C" d="M370.8,258.8c0.6,0,1.2-0.1,1.8-0.1c-6.7,11.2-13.4,22.5-20,33.8c-0.6-0.1-1.3-0.2-1.9-0.4
			c4-6.2,7.6-12.7,11.4-19c2-3.3,4-6.6,5.9-9.9C369,261.7,369.9,260.3,370.8,258.8z"/>
		<path d="M371.7,251.6c0,0.2-0.1,0.3-0.2,0.3c-0.2,0-0.3-0.1-0.4-0.3c-0.4-4-0.8-7.9-1.2-11.9c-0.4-3.9-1.2-8-1-11.9
			c0-0.2,0.1-0.3,0.2-0.3c0.2-0.1,0.4,0,0.4,0.2c0.1,0.5,0.3,0.9,0.4,1.4c0.7,3.3,0.9,6.8,1.1,10.1
			C371.5,243.3,371.6,247.4,371.7,251.6z"/>
		<path fill="#334A5D" d="M365.9,259c0.9,0,1.7-0.1,2.6-0.1c-4.4,8.7-9,17.7-16.7,23.9c-3.7,3-8.1,5.1-12.7,6
			c-1.7,0.3-3.3,0.5-4.9,0.4c-1.2-0.2-2.3-0.4-3.5-0.6c-1.2-0.2-2.4-0.4-3.6-0.7c-0.9-0.3-1.9-0.7-2.9-1.1c-0.3-0.1-0.6,0.3-0.3,0.5
			c0,0,0.1,0,0.1,0.1c-6.8-1.3-13.5-2.6-20.3-3.9c-18.1-3.6-36.2-7.4-54.2-11.3c-6.6-1.5-13.3-2.9-19.9-4.4c-0.3-0.1-0.7-0.1-1-0.2
			c-0.9-0.2-1.7-0.4-2.6-0.6c0,0,0-0.1,0-0.1c1.9-4.8,2.7-10.1,1.7-15.2c-0.1-0.3-0.5-0.2-0.5,0.1c0.4,5.1,0,10-1.9,14.8
			c-0.1,0-0.2,0-0.2,0.1c0.5-5.9-2.4-12.6-7.6-15.7c-0.2-0.1-0.5,0.2-0.3,0.4c4.6,4.1,7.2,8.9,6.9,15.2c0,0.1,0,0.1,0,0.2
			c0,0,0,0.1,0,0.1c-0.5,0.1-1,0.3-1.5,0.4c-5,1.4-9.9,3.1-14.9,4.6c-5.9,1.8-11.8,3.6-17.7,5.4c-3.5,1.1-6.9,2.1-10.4,3.2
			c-0.7,0.2-1.4,0.4-2.2,0.7c-0.2,0.1-0.4,0.1-0.6,0.2c-0.3,0.1-0.6,0.2-0.9,0.3c0,0-0.1,0-0.1,0c0,0,0,0,0,0
			c-0.6,0.2-1.1,0.4-1.7,0.5c-0.4,0.1-0.9,0.3-1.3,0.4c-2.9,0.9-5.8,1.7-8.8,2.5c-0.1-0.3-0.2-0.5-0.3-0.8c0.4-1.6,0.2-3.4,0.1-5
			c0-0.4-0.1-0.7-0.1-1.1c0,0,0-0.1,0-0.1c0-0.3-0.1-0.5-0.1-0.8c0-0.3-0.1-0.6-0.1-0.9c-0.2-1.5-0.5-3-0.8-4.4
			c-0.1-0.5-0.2-1-0.3-1.5c-0.4-1.6-0.9-3.3-1.4-4.9c-1.3-3.8-2.9-8-5.2-11.4c-0.8-1.1-1.8-2.1-3-2.7c2.1-0.5,4.2-1,6.3-1.4
			c2-0.4,4-0.8,6-1.2c1.2-0.2,2.4-0.4,3.6-0.7c0.3-0.1,0.7-0.1,1-0.2c0.4-0.1,0.8-0.2,1.3-0.2c1.5-0.2,3-0.4,4.5-0.6
			c20.7-2.7,41.5-5.4,62.2-8.5c0.4,0.1,0.8,0.1,1.3,0.2c0.5,0.1,1.1,0.1,1.6,0.2c7,0.9,14.2,1.3,21.2,2.1c6.3,0.7,12.6,1.6,18.9,2.2
			c22.1,10.3,46.9,15.1,71.3,13.7c3.6-0.2,7.3-0.6,11-1.1c0.3,0.8,0.7,1.5,1.1,2.3c0.2,0.3,0.4,0.6,0.6,1h0
			C365,259,365.5,259,365.9,259z"/>
		<path fill="#A88651" d="M364.2,316c7.5,2,15,4.2,22.6,6.2c-16.1-4.3-32.2-8.6-48.4-12.8c-0.3-0.1-0.7-0.2-1-0.3
			c-3.4-0.9-6.8-1.8-10.2-2.7c-5.1-1.3-10.2-2.7-15.3-4c0.1-0.1,0.2-0.2,0.3-0.3c8.4,2.3,16.9,4.5,25.3,6.8c0.1,0,0.3,0.1,0.4,0.1
			C346.7,311.3,355.4,313.6,364.2,316z"/>
		<g>
			<defs>
				<path id="xmlid2_77_" d="M362.4,227.3c2.5,8.6,4.1,17.8,4,26.8c-1,0.2-2,0.3-3,0.4c-0.4,0.1-0.7,0.1-1.1,0.1
					c-2.4,0.3-4.7,0.6-7.1,0.7c-17.4,1.4-34.9-0.4-51.7-5c-6.7-1.8-13.2-4.1-19.6-6.9c-1.3-0.6-2.6-1.1-3.9-1.8
					c-7.1-3.3-13.9-7.1-20.3-11.4c-0.4-0.3-0.8-0.5-1.2-0.8c-0.6-0.4-1.2-0.8-1.8-1.2c0.6,0.1,1.3,0.1,1.9,0.2
					c0.4,0,0.5-0.6,0.1-0.7c-1.2-0.3-2.4-0.5-3.6-0.7c-0.5-0.1-1-0.2-1.4-0.2c-3.6-0.6-7.3-1-10.9-1.5c0.2-0.6,0.4-1.3,0.6-1.9
					c0.1-0.4-0.5-0.7-0.7-0.3c-0.3,0.7-0.6,1.4-0.9,2.1c-0.1,0.3-0.2,0.5-0.3,0.8c-0.9,2.2-1.7,4.4-2.4,6.7
					c-2.4-0.2-4.9-0.4-7.3-0.8c-0.1-2.6,0.1-5,0.4-7.6c0-0.3,0.1-0.6,0.1-0.8c-0.4-0.1-0.7-0.2-1.1-0.3c-0.5-0.1-0.9-0.2-1.4-0.3
					c-0.3-0.1-0.7-0.2-1-0.3c-0.1,0.1-0.1,0.3-0.2,0.4c-1.7-0.7-3.4-1.3-5.1-1.9c-1.5-0.5-3-1.3-4.6-1.6c0.1-0.3,0.2-0.5,0.3-0.8
					c-0.3-0.2-0.6-0.3-0.9-0.5c-0.4-0.2-0.7-0.4-1.1-0.6c-0.3-0.2-0.5-0.3-0.8-0.5c-0.2,0.2-0.4,0.4-0.6,0.7
					c-1.8,2.1-3.5,4.3-5.2,6.5c-2.2-1.4-4.2-3-6-4.8c1.6-2.2,3.3-4.4,4.6-6.7c0.1-0.3,0.3-0.5,0.4-0.7c0,0,0,0,0,0
					c0.2-0.3-0.3-0.8-0.6-0.4c-0.3-0.3-0.6-0.5-0.8-0.8c-0.2-0.2-0.4-0.4-0.5-0.5c-0.2,0.1-0.3,0.1-0.5,0.2c-0.1,0-0.2,0.1-0.3,0.1
					c-2.3,1-4.7,2.3-6.9,3.6c-1.4-2.1-2.7-4.3-3.6-6.7c1.9-1,3.7-2,5.6-3.1c0.2-0.1,0.4-0.2,0.6-0.3c11.2-6,23-11.2,36.1-8.7
					c6.4,1.2,12.4,4.2,17.6,8.2c2.6,2,5,4.2,7.2,6.6c0.7,0.8,1.4,1.6,2.1,2.5c0.3,0.4,0.6,0.8,1,1.2c0.5,0.2,0.9,0.4,1.4,0.6
					c0.4,0.2,0.8,0.3,1.2,0.5c0.2,0.1,0.4,0.2,0.7,0.3c0.5,0.2,1,0.4,1.5,0.6c12.3,5,25.3,8.4,38.4,10.6c2.2,2.7,3.1,6.8,3.6,10.1
					c0,0.1,0.1,0.1,0.1,0c0.1-3.3-0.5-7.1-2.3-9.8c2.4,0.4,4.8,0.7,7.2,1c2.4,2.7,3.4,7,3.9,10.5c0,0.1,0.1,0.1,0.1,0
					c0.1-3.5-0.6-7.6-2.6-10.3c2,0.2,3.9,0.4,5.9,0.5c2.7,2.7,3.7,7.2,4.3,10.8c0,0.1,0.1,0.1,0.1,0c0.1-3.7-0.6-8-3-10.7
					c3,0.2,6,0.4,9,0.4c7.6,0.2,15.5-0.1,23.3-1.2c0.2,0,0.4-0.1,0.7-0.1C360.9,227.6,361.6,227.4,362.4,227.3z M241.1,220.6
					c0.1,0,0.1-0.1,0-0.1c-0.7-0.6-1.7-0.7-2.7-0.9c-0.7-0.1-1.7-0.5-2.4-0.2c0,0,0,0,0,0c0.5,0.6,1.7,0.7,2.4,0.9
					C239.4,220.5,240.2,220.8,241.1,220.6z M229.2,217.7c0.1,0,0.1-0.1,0-0.2c-0.7-0.6-1.8-0.5-2.7-0.8c-0.8-0.3-1.7-0.9-2.5-1
					c0,0,0,0,0,0c0.3,0.8,1.5,1.3,2.3,1.6C227.2,217.8,228.3,218.2,229.2,217.7z M218.8,213.6c0.1,0,0.1-0.1,0-0.2
					c-0.8-0.4-1.6-0.7-2.4-1.1c-0.9-0.4-1.6-1.1-2.3-1.8c0,0,0,0,0,0C214.5,212.5,216.9,214.3,218.8,213.6z M210.2,208.6
					C210.3,208.6,210.4,208.5,210.2,208.6c-0.7-0.7-1.1-1.7-1.6-2.6c-0.4-0.7-0.6-1.6-1.1-2.2c0,0-0.1,0-0.1,0c-0.4,0.8,0,2,0.4,2.7
					C208.3,207.5,209.2,208,210.2,208.6z"/>
			</defs>
			<use xlink:href="#xmlid2_77_"  overflow="visible" fill="#D7A671"/>
			<clipPath id="xmlid2_7_">
				<use xlink:href="#xmlid2_77_"  overflow="visible"/>
			</clipPath>
			<path clip-path="url(#xmlid2_7_)" fill="#B2683C" d="M256.7,228.2c0,0,56.3,34.8,110.5,22.7l1.7,6.8l-80-4.9l-32.2-17.4V228.2z"/>
			<path clip-path="url(#xmlid2_7_)" fill="#B2683C" d="M207.3,203.8c0,0-1.6,1.7-0.2,3.3c1.5,1.6,3.1,1.3,3.1,1.3l-2.8-2.8
				L207.3,203.8z"/>
			<path clip-path="url(#xmlid2_7_)" fill="#B2683C" d="M214.1,210.5c0,0-0.7,2.3,1.3,3.2s3.4-0.2,3.4-0.2l-3.1-0.9L214.1,210.5z"/>
			<path clip-path="url(#xmlid2_7_)" fill="#B2683C" d="M224,215.8c0,0,0.7,1.7,2.3,2.2c1.6,0.5,2.5-0.1,2.5-0.1l-3.2-1L224,215.8z"
				/>
			<path clip-path="url(#xmlid2_7_)" fill="#B2683C" d="M236.5,219.7c0,0,1.6,2.2,4.6,0.8l-2.6-1L236.5,219.7z"/>
			<path clip-path="url(#xmlid2_7_)" fill="#B2683C" d="M258.7,227.7c0,0-8.6-3.7-15.4-4.4l-1.1,2.2L258.7,227.7z"/>
			<path clip-path="url(#xmlid2_7_)" fill="#B2683C" d="M242.6,223.1c0,0-3.5,7.8-4.3,8.2c0,0-2.5,0.9-6.8-0.2v1.3l7.2,1L242.6,223.1
				z"/>
			<path clip-path="url(#xmlid2_7_)" fill="#B2683C" d="M216.4,217.1c0,0-5.2,5.5-6.1,5.9s-5.2-4.2-5.2-4.2l-1.1,1.5l6.1,4.8
				L216.4,217.1z"/>
			<path clip-path="url(#xmlid2_7_)" fill="#B2683C" d="M207.8,210.2c0,0-6.2,2.4-7.4,2.5c-1.2,0.1-2.9-6.5-2.9-6.5l-1.7,1l4.2,7.9
				L207.8,210.2z"/>
			<path clip-path="url(#xmlid2_7_)" fill="#EFD49D" d="M200.3,205.3c0,0,26.6-15,47.7-6.9s-21.1-8.2-21.1-8.2l-18.2,1.5L200.3,205.3
				z"/>
			<path clip-path="url(#xmlid2_7_)" fill="#EFD49D" d="M266.5,214c0,0,46.1,25.5,95.9,13.3l-37.4-2l-51.3-12.8L266.5,214z"/>
		</g>
		<path fill="#AE5235" d="M350.6,285c3.1-2.2,5.7-4.8,8.1-7.7c-2.9,4.8-5.9,9.6-8.6,14.6c-3.7-0.7-7.5-1.3-11.2-1.9
			C343.1,289.2,347.3,287.3,350.6,285z"/>
		<path fill="#7C613D" d="M346.2,319.1c0.9,0.5,1.7,0.9,2.6,1.4c-3.3,0.8-6.6,1.6-9.9,2.6c-11.2-3.4-22.6-6.1-34-9.2
			c-1.2-0.3-2.5-0.7-3.7-1c3.2-3.2,6.4-6.3,9.5-9.5c4.9,1.3,9.7,2.6,14.6,3.9c2.3,1.4,4.7,2.8,7.1,4.2
			C337,314.1,341.6,316.7,346.2,319.1z"/>
		<path fill="#A88651" d="M322.6,320c-7.5-2-15-4-22.5-6c0.1,0,0.1-0.1,0.2-0.2C307.7,315.9,315.1,318,322.6,320z"/>
		<path fill="#515A37" d="M325,53.7c-1.2,4.3-2.1,8.7-2.8,13.1c-0.1,0.1-0.3,0.3-0.4,0.5c-1.7-1.9-4.6-3.1-7.1-3.1
			c-1.5,0-2.9,0.2-4.4,0.6C298.1,60,286.8,53.6,277,44.9c-2.5-2.2-5.6-4.9-5.5-8.5c0.1-2.6,1.7-3.9,3.7-4.4c2.2-0.5,4.8-0.2,6.7,0.3
			c2.3,0.6,4.5,1.3,6.7,2.1c4.1,1.4,8.1,3.1,12,4.9C309.4,43.2,317.3,48.2,325,53.7z"/>
		<path d="M322,68.4c0,0.1-4.5,5.7-6.4,8.7c-0.2,0.2-0.3,0.5-0.5,0.7c-1.1,1.8-2.2,3.7-3.1,5.5c-3.1,6-5.3,12.3-7.7,18.6l-0.1,0.8
			c-0.1,0-0.2,0-0.3,0c-0.1,0.1-0.3,0.1-0.4,0c0,0-0.1-0.1,0-0.2c0-0.2,0-0.4,0-0.5c0.7-8.6,4.4-16.8,9.4-24c-2.3,0-4.6,0.1-6.9,0.1
			c-3.5,0-7.2,0.3-10.8,0c0.3,4.9,0.1,9.9,0.1,14.8c0,4.6,0,9.3-0.1,13.9l-0.7,0c-0.1-4.6-0.1-9.3-0.1-13.9c0-4.9-0.2-9.9,0.1-14.9
			c0-0.3,0-0.6,0.1-1c0.2,0,0.4,0,0.6,0c3.6-0.2,7.3,0,10.8,0c2.5,0,5,0,7.5,0.1c2.4-3.3,5-6.4,7.7-9.3L322,68.4z"/>
		<path fill="#6B6263" d="M317.5,103.8c-0.2,1-0.3,2-0.5,3c-0.9,0-1.8,0-2.7,0c-2.2-0.3-4.4-0.3-6.5,0c-4.2-0.1-8.4-0.2-12.6,0
			c0.1-4.6,0.1-9.3,0.1-13.9c0-4.9,0.2-9.9-0.1-14.8c3.6,0.2,7.2,0,10.8,0c2.3,0,4.6,0,6.9-0.1c-5,7.2-8.7,15.4-9.4,24
			c0,0.2,0,0.4,0,0.5c0,0.1,0,0.1,0,0.2c0.1,0.1,0.3,0.1,0.4,0c0.1,0,0.2,0,0.3,0C308.7,103.1,313.1,103.5,317.5,103.8z M303.7,92.2
			c0-1.6-1.3-3-3-3s-3,1.3-3,3c0,1.6,1.3,3,3,3S303.7,93.8,303.7,92.2z"/>
		<g>
			<defs>
				<path id="xmlid2_76_" d="M315.5,107.8c0.4,0.1,0.9,0.1,1.3,0.2c-0.7,3.6-1.4,7.1-2.2,10.6c-7.2,3.2-15.1,1.1-19.2-5.7
					c-0.1-0.2-0.2-0.4-0.3-0.5c-0.2,0.1-0.4,0.1-0.6,0.2c-13.2,4.4-28.5,10.8-32.5,25.5c-0.9,3.5-1.2,7-0.7,10.4
					c0,0.3,0.1,0.5,0.1,0.8c0.1,0.5,0.2,0.9,0.3,1.4c-7.6,3.9-15.9,7-24.3,8.4c-0.2-1.1-0.3-2.2-0.3-3.3c0-0.3,0-0.6,0-0.9
					c-0.5-15.6,7.7-31.2,19.3-41.7c8-7.3,17.4-12.7,27.3-17c0.3,1,0.8,2,1.5,3c0.2,0.3,0.7,0,0.5-0.3c-0.5-1-0.9-2.1-1.2-3.1
					c-0.1-0.3-0.1-0.6-0.2-0.8c-1.5-7.1,2.7-13.8,8.1-18.7c1.3-1.2,2.7-2.2,4.1-3.2c4.2-2.7,8.7-5.6,13.4-7.3c0.1,0,0.2-0.1,0.3-0.1
					c0.4-0.1,0.7-0.2,1.1-0.3c3.7-0.9,7.8-0.3,10,2.5c-2.8,2.8-5.4,5.9-7.7,9.3c-2.5,0-5-0.1-7.5-0.1c-3.6,0-7.3-0.3-10.8,0
					c-0.2,0-0.4,0-0.6,0c0,0.3,0,0.6-0.1,1c-0.3,4.9-0.1,9.9-0.1,14.9c0,4.6,0,9.3,0.1,13.9c0,0,0,0,0,0c0,0.3,0,0.7,0,1
					c0.2,0,0.4,0,0.7,0c2.3,0.1,4.7,0.1,7,0.1c-1.4,0.4-2.8,1-4.1,1.6c-0.3,0.1-0.1,0.6,0.2,0.5c2.7-1.1,5.4-1.8,8.1-2.2
					c1.6,0,3.2-0.1,4.8-0.1C312.6,107.8,314,107.8,315.5,107.8z"/>
			</defs>
			<use xlink:href="#xmlid2_76_"  overflow="visible" fill="#D7A671"/>
			<clipPath id="xmlid2_8_">
				<use xlink:href="#xmlid2_76_"  overflow="visible"/>
			</clipPath>
			<path clip-path="url(#xmlid2_8_)" fill="#B2683C" d="M312.5,116.1c0,0-8.9,4.8-17.3-4.7c0,0-44.3,11.7-33.6,39.4
				c10.7,27.7,28.1-16.4,28.1-16.4l22.9-11.2V116.1z"/>
			<path clip-path="url(#xmlid2_8_)" fill="#EFD49D" d="M321.2,67.9c0,0-5.6-5.1-19.7,2.9c-14.1,8-17.6,19-17.3,23.3
				S275.4,83,275.4,83l12.8-17.9l24.3-3l9.5,1.2L321.2,67.9z"/>
			<path clip-path="url(#xmlid2_8_)" fill="#EFD49D" d="M283.5,96.1c0,0-42.2,18.3-46.6,57.3l-3.1-30.3c0,0,16.4-28.3,16.3-28.3
				c-0.1,0,25.3,0,25.3,0L283.5,96.1z"/>
		</g>
		<path fill="#F4E7E3" d="M296.6,136.6c4.4,0.1,8.7,0.2,13.1,0.1c-2,6.5-4.3,13-6.8,19.4c-0.9-3.4-2.2-6.8-3.3-10.1
			C298.6,142.9,297.8,139.7,296.6,136.6z"/>
		<path d="M300.7,89.2c1.6,0,3,1.3,3,3c0,1.6-1.3,3-3,3s-3-1.3-3-3C297.7,90.5,299,89.2,300.7,89.2z M302.6,92.2
			c0-1.1-0.9-1.9-1.9-1.9c-1.1,0-1.9,0.9-1.9,1.9s0.9,1.9,1.9,1.9C301.7,94.1,302.6,93.2,302.6,92.2z"/>
		<circle fill="#6B6263" cx="300.7" cy="92.2" r="1.9"/>
		<path fill="#DDDDEF" d="M298.8,147.3c1,3,1.8,6.1,2.9,9.1c-2.8-0.5-5.6-1.3-8.3-2.5c-2.7-1.2-4.9-2.9-7.1-4.6
			c1.6-2.2,3.1-4.6,4.7-6.8c1.4-1.9,2.9-3.7,4.4-5.5C296.4,140.4,297.7,143.9,298.8,147.3z"/>
		<path fill="#B5986C" d="M299,298.5c-0.1,0.1-0.3,0.3-0.4,0.4c-0.3,0.3-0.7,0.6-1,1c-3.3,3.1-6.6,6.2-9.9,9.4c-0.3,0.3-0.7,0.7-1,1
			c-0.1,0.1-0.1,0.1-0.2,0.2c-0.4,0.3-0.7,0.7-1.1,1c-0.5,0.5-1.1,1-1.6,1.5c-3,2.8-6,5.7-9,8.5c-0.3,0-0.6,0-0.9,0
			c2.9-2.7,5.8-5.5,8.7-8.2c0.6-0.6,1.2-1.1,1.8-1.7c0.1-0.1,0.3-0.2,0.4-0.4c0.4-0.3,0.7-0.7,1.1-1c0.1-0.1,0.1-0.1,0.2-0.2
			c0.4-0.3,0.7-0.7,1.1-1c1.7-1.6,3.4-3.1,5.1-4.7c1.2-1.1,2.4-2.2,3.7-3.3c0.5-0.4,1-0.9,1.5-1.3c0.3-0.3,0.6-0.6,0.9-0.8h0
			c0,0,0,0,0.1-0.1c0,0,0.1-0.1,0.1-0.1c0.1-0.1,0.3-0.2,0.3-0.3C298.7,298.5,298.9,298.5,299,298.5z"/>
		<path fill="#7C613D" d="M298.6,298.4c-0.1,0.1-0.2,0.2-0.3,0.3c0,0-0.1,0.1-0.1,0.1c0,0,0,0-0.1,0.1h0c-7.7-2-16.5-4.5-24.2-6.5
			c-3.8-1-7.6-2-11.4-3c-0.3-0.1-0.6-0.2-0.9-0.2c-0.2-0.1-0.4-0.1-0.7-0.2c-0.3-0.1-0.6-0.2-0.9-0.3c-2.7-0.7-5.4-1.4-8.1-2.2
			c-7-1.9-14.2-3.5-21.2-5.5c-2.1-0.6-4.4-1.4-6.2-2.7c0,0,0.1,0,0.1-0.1c-0.1,0-0.2-0.1-0.3-0.1c-0.3-0.2-0.5-0.4-0.7-0.6
			c-0.1-0.1-0.3-0.3-0.4-0.4h0c-0.2,0-0.3,0.1-0.3,0.3c0-0.2,0.1-0.3,0.3-0.3c-0.2-0.2-0.4-0.5-0.6-0.8c-1.7-2.6-1.5-6.8,1.5-8.2
			c0.1-0.1,0.2-0.2,0.2-0.3c0.1,0,0.3-0.1,0.4-0.1c0,0,0,0,0.1,0c0.2,0.1,0.5,0.1,0.7,0.2c0.3,0.1,0.7,0.2,1,0.2
			c-3,1.6-3.9,5.8-2,8.7c0.2,0.3,0.4,0.6,0.7,0.9l0,0c0.5,0.5,1.1,0.9,1.8,1.3c0.1,0,0.1,0.1,0.2,0.1c0,0,0,0,0,0
			c0.1,0,0.2,0.1,0.3,0.1c11,3.2,22,6.2,33.1,9.2c0.3,0.1,0.5,0.1,0.8,0.2c0.3,0.1,0.5,0.1,0.8,0.2c0.3,0.1,0.6,0.2,0.8,0.2
			c10.4,2.8,20.8,5.5,31.1,8.3C295.2,297.5,297.5,298.1,298.6,298.4z"/>
		<path d="M298.1,298.9c-0.3,0.3-0.6,0.6-0.9,0.8c-0.5,0.4-1,0.9-1.5,1.3l-0.4-0.5c-0.2,0-0.3,0-0.5,0c0.4-0.4,0.8-0.8,1.2-1.1
			c-7.5-2-14.9-4-22.4-5.9c-0.1,0-0.2-0.1-0.3-0.1c-0.1,0-0.2-0.1-0.4-0.1c-3.8-1-7.5-2-11.3-3c-0.3-0.1-0.7-0.2-1-0.3
			c-0.2,0-0.3-0.1-0.5-0.1c-0.4-0.1-0.8-0.2-1.1-0.3c-9.1-2.4-18.3-4.9-27.4-7.3c-2.6-0.7-5.6-1.6-7.8-3.3c-3.5,3-7.3,5.6-11.1,7.8
			c-0.9,0.5-1.8,1-2.7,1.6c1,0.3,2.1,0.6,3.1,0.8c-1.5-0.3-3-0.7-4.5-1.1c-0.1,0-0.1,0-0.2,0l-0.3-0.6c1.3-0.6,2.5-1.3,3.8-2
			c3.9-2.2,7.4-4.7,10.9-7.4c-0.2-0.2-0.3-0.4-0.5-0.5l0.6-0.2c0-0.2,0.1-0.3,0.3-0.3h0c0.1,0.1,0.2,0.3,0.4,0.4
			c0.2,0.2,0.5,0.4,0.7,0.6c0.1,0,0.2,0.1,0.3,0.1c0,0-0.1,0.1-0.1,0.1c1.8,1.4,4.1,2.1,6.2,2.7c7,2,14.1,3.7,21.2,5.5
			c2.7,0.7,5.4,1.4,8.1,2.2c0.3,0.1,0.6,0.2,0.9,0.3c0.2,0.1,0.4,0.1,0.7,0.2c0.3,0.1,0.6,0.2,0.9,0.2c3.8,1,7.6,2,11.4,3
			C281.6,294.4,290.4,296.9,298.1,298.9z"/>
		<path fill="#AE5235" d="M273.6,293.5c7.5,2,14.9,3.9,22.4,5.9c-0.4,0.4-0.8,0.8-1.2,1.1c-27.7-0.8-54.9-5-81.8-11.3
			c-1-0.3-2.1-0.6-3.1-0.8c0.9-0.5,1.8-1,2.7-1.6c3.8-2.3,7.7-4.9,11.1-7.8c2.2,1.7,5.3,2.6,7.8,3.3c9.1,2.5,18.2,4.9,27.4,7.3
			c0.4,0.1,0.8,0.2,1.1,0.3c0.2,0,0.3,0.1,0.5,0.1c0.3,0.1,0.7,0.2,1,0.3c3.8,1,7.5,2,11.3,3c0.1,0,0.2,0.1,0.4,0.1
			C273.3,293.4,273.5,293.5,273.6,293.5z"/>
		<path d="M176,298c0.1,0.2,0.1,0.4-0.1,0.5c-1.6,1-3.1,1.9-4.8,2.7c0.4,0.5,0.9,1,1.5,1.3c1.3,0.8,3.3,1.1,4.7,0.3
			c0.2-0.1,0.4-0.3,0.5-0.4c1.2-1.1,1.2-3,1.2-4.4c0-0.5,0-1.1-0.1-1.6c0.3-0.2,0.7-0.4,1-0.5h0c0.2,1.8,0.3,3.9-0.3,5.6
			c2.6-1.6,5.4-3,8-4.4c2.5-1.4,5-2.9,7.6-4.2c1.1-1.5,2.5-2.9,3.9-4.1c0.4-0.3,0.7-0.6,1.1-0.9c0.2-0.2,0.4-0.3,0.6-0.5
			c0.4-0.3,0.9-0.7,1.3-1c0.1-0.1,0.1-0.1,0.2-0.2c2.8-2.2,5.7-4.2,8.8-5.9c0.3-0.2,0.6,0.3,0.3,0.5c-2.8,1.9-5.5,3.8-8,5.9
			c-0.3,0.3-0.7,0.6-1,0.8c-0.1,0.1-0.1,0.1-0.2,0.2c-0.2,0.2-0.3,0.3-0.5,0.5c-0.3,0.3-0.6,0.6-1,0.9c-0.7,0.7-1.4,1.4-2,2.1
			c-0.2,0.2-0.5,0.5-0.7,0.7c0.6-0.2,1.2-0.4,1.8-0.6c0.9-0.3,1.7-0.6,2.6-1c0.3-0.1,0.7-0.3,1-0.4c0.6-0.2,1.1-0.5,1.7-0.7
			c0.3-0.1,0.5-0.2,0.8-0.4c0.6-0.3,1.2-0.6,1.8-0.9c0.1-0.1,0.3-0.1,0.4-0.2l0.3,0.6c-0.2,0.1-0.2,0.4,0,0.5
			c8.8,2.6,17.7,4.7,26.7,6.5c4.7,1.3,9.3,2.5,14,3.8c0.3,0.1,0.7,0.2,1,0.3c0.2,0.1,0.4,0.1,0.6,0.2c0.5,0.1,0.9,0.3,1.4,0.4
			c-0.3,0.3-0.7,0.7-1,1c-0.1,0.1-0.2,0.2-0.3,0.3c-0.3,0.3-0.7,0.7-1,1c-2,1.9-4,3.8-5.9,5.6c-1.6,1.5-3.1,3-4.7,4.5
			c4.2,0.2,8.5,0.6,12.6,1.4c0.1,0,0.1,0,0.2,0.1c3-2.9,5.9-5.8,8.9-8.7c0.3-0.3,0.7-0.7,1-1c0.1-0.1,0.2-0.2,0.3-0.3
			c0.3-0.3,0.7-0.7,1-1c0.4,0.1,0.7,0.2,1.1,0.3c1.8,0.5,3.5,0.9,5.3,1.4c5.5,1.5,11.1,3,16.6,4.4c2.1-1.9,4.1-3.9,6.2-5.8
			c0.6-0.5,1.1-1.1,1.7-1.6c0.4-0.3,0.9-0.5,1.3-0.8c0,0,0,0,0,0l0.4,0.5c-1.2,1.1-2.5,2.2-3.7,3.3c-1.7,1.6-3.4,3.1-5.1,4.7
			c-0.4,0.3-0.7,0.7-1.1,1c-0.1,0.1-0.1,0.1-0.2,0.2c-0.4,0.3-0.7,0.7-1.1,1c-0.1,0.1-0.3,0.2-0.4,0.4l-0.6-0.6
			c-7.3-1.9-14.5-3.8-21.8-5.8c-3.3,3.2-6.6,6.5-9.9,9.6l-0.2-0.2c-0.1,0.1-0.2,0.1-0.4,0.1c-0.2,0-0.5,0-0.7-0.1
			c-4.4-0.5-8.7-0.9-13.1-1.2c-0.6,0-1.2-0.1-1.8-0.1c-0.3,0-0.6,0-0.9,0c-0.5,0-1,0-1.5,0c-0.4,0-0.9,0-1.3,0
			c-6.5,0-12.8,0.7-19.3,1.1c-0.3,0-0.4-0.5-0.1-0.6c6.2-1.5,13-1.8,19.4-1.9c0.9,0,1.8,0,2.7,0c2.3-2.1,4.6-4.2,6.9-6.3
			c1.6-1.5,3.3-3,4.9-4.6c-12.5-3.3-25-6.6-37.5-9.9c-1-0.3-2.1-0.6-3.1-0.8c-3.4,1.7-7,3.1-10.5,3.7c0,0,0,0-0.1,0
			c-0.1,0.1-0.1,0.1-0.2,0.1c-2.3,1.3-4.6,2.5-6.9,3.7c-3.1,1.7-6.3,3.6-9.6,5.2c-0.2,0.2-0.4,0.4-0.6,0.6c-2,1.5-4.9,0.9-6.7-0.6
			c-0.5-0.4-0.9-0.9-1.3-1.4c-10.6,5.3-22.4,8.3-33.9,10.8c-7.2,1.5-14.4,2.8-21.6,4.2c-6.5,1.2-13,2.6-19.5,3.7
			c0.6,2.3,0.6,4.8-0.1,7c-1.9,6.5-7.9,10.7-14.4,11.8c-5.8,1-13.3,0.1-17.5-4.6c-2.3-2.6-2.1-5.4-2.5-8.7c-0.5-4.2-4.2-6.5-7.6-5.9
			c-6.7,7.1-18.9,7.8-26.8,1.6c-6.5-5.2-9-13.2-7.7-20.7c-2.3-0.4-4.2-2.7-4.6-4.8c-0.3,0-0.6,0-0.9,0c-0.7-0.1-1.5-0.2-2.1-0.5
			c-0.2-0.3-0.4-0.7-0.5-1.1c-0.6-1.6-0.7-3.6-0.5-4.9c-0.1,0-0.3,0.1-0.4,0.1c-0.3,0.1-0.6,0.1-1,0.2c-0.1-0.2-0.3-0.4-0.4-0.6
			c-1.3-2.3-1.8-4.9-1.3-7.5l0.7,0.1c-0.4,2.5,0.2,5,1.5,7.1c0.9-0.2,1.7-0.4,2.6-0.6c0.7-0.1,1.3-0.3,2-0.5c0-0.1,0.1-0.2,0.1-0.3
			l0.7,0.1c0.1,0,0.2,0,0.3,0c0.1-0.4,0.6-0.5,0.8-0.1c0.6,1.1,0.7,2.5,1,3.7c0.2,0.8,0.4,1.7,0.5,2.5c0.1,0.4,0.1,0.8,0.2,1.2
			c0,0,0,0,0,0.1c0,0.3-0.3,0.4-0.6,0.3c-0.6,0.3-1.4,0.5-2,0.6c0.4,0.9,0.9,1.8,1.6,2.4c0.7,0.7,1.5,1,2.4,1.3
			c0.7-3,1.9-5.9,3.8-8.4c0,0-0.1,0-0.1,0c-0.7-0.1-1.3-0.4-1.9-0.7c-0.5-0.3-0.9-0.7-1.2-1.1c-0.2-0.3-0.4-0.7-0.5-1l0.7-0.1
			c0.6,1.3,1.9,2.2,3.4,2.2c0.1,0,0.2,0,0.2,0c0.5,0,0.9-0.2,1.4-0.3c0.5-0.1,1-0.2,1.6-0.1c1.2,0.2,2.1,1.5,1.3,2.5
			c-0.2,0.3-0.6,0-0.5-0.3c0.3-1.5-1.6-1.3-3.1-1.1c-2.1,2.8-3.5,6.1-4.1,9.4c-1.4,7,0.6,14.4,6.5,19.5c6.9,6,15.9,5.9,22.7,1.5
			c0.7-0.8,1.5-1.4,2.4-1.8c1.9-1.6,3.5-3.6,4.7-6c0.2-0.3,0.7-0.1,0.6,0.2c-0.7,1.9-1.6,3.6-2.7,5c2-0.2,4,0.4,5.6,2
			c2.1,2,2.2,4.5,2.4,7.2c0.4,4.2,2.8,6.9,6.6,8.5c7,2.9,16.5,1.7,21.8-3.9c2.6-2.7,4.3-6.4,3.9-10.2c-0.1-0.7-0.2-1.4-0.4-2.1
			c-0.1-0.3-0.2-0.7-0.3-1c-1-2.5-2.9-4.5-5.2-6.2c-0.3-0.2-0.1-0.8,0.3-0.7c3,1,5.1,3.6,6.1,6.6c13.3-3,26.8-4.9,40.1-7.8
			c11.9-2.6,23.3-6,34.4-10.9c0.3-0.1,0.7-0.3,1-0.4c1.7-0.8,3.4-1.6,5.1-2.4C175.6,297.7,175.9,297.8,176,298z M284.7,310
			c0.1-0.1,0.1-0.1,0.2-0.2c-7.3-1.9-14.5-3.9-21.8-5.8c-0.1,0.1-0.2,0.2-0.3,0.3C270.2,306.2,277.5,308.1,284.7,310z M249.2,300.6
			c0.1-0.1,0.2-0.2,0.3-0.3c-0.2-0.1-0.4-0.1-0.6-0.2c-0.3-0.1-0.7-0.2-1-0.3c-6-1.6-12-3.2-18-4.8c-7.2-1.9-14.5-3.9-21.7-5.8
			c-0.2,0.1-0.5,0.3-0.7,0.4c13.4,3.5,26.8,7,40.1,10.6c0.3,0.1,0.7,0.2,1,0.3c-0.3,0.3-0.7,0.6-1,1c-1.9,1.8-3.8,3.5-5.6,5.3
			c-1.9,1.8-3.8,3.6-5.7,5.4c0.3,0,0.6,0,0.9,0c2-1.9,4-3.8,6-5.7c1.7-1.6,3.3-3.2,5-4.8C248.5,301.3,248.9,301,249.2,300.6z
			 M16.4,294.1c-0.3-1-0.5-1.9-0.8-2.9c-0.2-0.9-0.6-1.9-0.7-2.8c-0.2,0.1-0.4,0.1-0.7,0.2c-0.3,0.1-0.6,0.1-0.9,0.2c0,0,0,0,0,0
			c-0.6,0.1-1.3,0.2-1.9,0.4c-0.2,0-0.3,0.1-0.5,0.1c0,0,0,0.1,0,0.2c-0.1,1.4,0,2.8,0.5,4.1c0.2,0.5,0.5,1,0.9,1.4
			c0.8,0.1,1.6,0.2,2.4,0C15.3,294.7,15.9,294.4,16.4,294.1z"/>
		<path d="M295.3,300.6C295.3,300.6,295.2,300.6,295.3,300.6c-0.5,0.3-0.9,0.5-1.3,0.8c0.3-0.3,0.6-0.6,0.9-0.8
			C294.9,300.6,295.1,300.6,295.3,300.6z"/>
		<path d="M294.8,300.6c-0.3,0.3-0.6,0.6-0.9,0.8c0,0-0.1,0.1-0.1,0.1c-19.6-0.6-39.4-2.5-58.8-6.3c-7.4-2-14.7-3.9-22.1-5.9
			C239.9,295.6,267.1,299.8,294.8,300.6z"/>
		<path fill="#7C613D" d="M293.8,301.5c0,0,0.1-0.1,0.1-0.1c-0.6,0.6-1.1,1.1-1.7,1.6c-2.1,1.9-4.1,3.9-6.2,5.8
			c-5.5-1.5-11.1-3-16.6-4.4c-1.8-0.5-3.5-0.9-5.3-1.4c-0.4-0.1-0.7-0.2-1.1-0.3c-0.3,0.3-0.7,0.7-1,1c-0.1,0.1-0.2,0.2-0.3,0.3
			c-0.3,0.3-0.7,0.7-1,1c-3,2.9-5.9,5.8-8.9,8.7c-0.1,0-0.1-0.1-0.2-0.1c-4.1-0.8-8.4-1.2-12.6-1.4c1.6-1.5,3.1-3,4.7-4.5
			c2-1.9,3.9-3.8,5.9-5.6c0.3-0.3,0.7-0.7,1-1c0.1-0.1,0.2-0.2,0.3-0.3c0.3-0.3,0.7-0.7,1-1c-0.5-0.1-0.9-0.3-1.4-0.4
			c-0.2,0-0.4-0.1-0.6-0.2c-0.3-0.1-0.7-0.2-1-0.3c-4.7-1.3-9.3-2.5-14-3.8C254.4,298.9,274.2,300.9,293.8,301.5z"/>
		<g>
			<defs>
				<path id="xmlid2_75_" d="M280.9,171.1c5,1.2,10.7,1.1,15.8-0.7c-3.1,6.7-6.5,13.3-10.3,19.7c-0.7,1.2-1.4,2.3-2.1,3.5
					c-8,1.1-16,0.4-23.6-3c-6.3-2.8-11.8-7.3-15.9-12.9c3.4-1.5,6.8-3.2,9.9-5c2.9-1.7,5.7-3.5,8.4-5.5c1.6-1.2,3.3-2.3,4.9-3.7
					C271.5,167.2,275.8,169.9,280.9,171.1z"/>
			</defs>
			<use xlink:href="#xmlid2_75_"  overflow="visible" fill="#F4E7E3"/>
			<clipPath id="xmlid2_9_">
				<use xlink:href="#xmlid2_75_"  overflow="visible"/>
			</clipPath>
			<path clip-path="url(#xmlid2_9_)" fill="#DDDDEF" d="M277,167.3c0,0,6.7,9.4,9.2,11s7.6,0,7.6,0l5.9-10.6c0,0-3-4-5.9-4
				C290.8,163.5,277,167.3,277,167.3z"/>
			<path clip-path="url(#xmlid2_9_)" fill="#DDDDEF" d="M244.9,177.7c0,0,15.3,16.1,41.4,15.6c26.2-0.6-15.5,6.7-15.5,6.7l-25.9-10.6
				V177.7z"/>
			<path clip-path="url(#xmlid2_9_)" fill="#DDDDEF" d="M268.2,163.6c0,0-7,10.9-23.2,14.1s12.8-10.4,12.8-10.4L268.2,163.6z"/>
		</g>
		<g>
			<defs>
				<path id="xmlid2_64_" d="M269.4,161c-0.4,0.3-0.9,0.7-1.3,1c-0.2,0.2-0.5,0.4-0.7,0.6c-1.5,1.3-3,2.6-4.6,3.7
					c-2.6,1.9-5.3,3.6-8,5.2c-3.4,2-6.9,3.6-10.5,5.1c-0.3,0.1-0.6,0.3-0.9,0.4c-1.7,0.7-3.4,1.4-5.1,2c-0.4-1.2-1.1-2.3-1.6-3.5
					c-0.6-1.3-1.2-2.7-1.8-4c0.1-0.3,0.2-0.6,0.3-0.9c0.3-0.6,0.6-1,1-1.5c0.2-0.3,0.4-0.6,0.6-0.9c-0.2-0.2-0.5-0.3-0.7-0.5
					c-0.1-0.1-0.2-0.1-0.3-0.2c-0.3-0.2-0.7-0.5-1-0.8c0-0.1,0-0.2,0-0.3c-0.6-2.6-1.1-5.2-1.7-7.8c0.5-0.4,0.9-0.8,1.4-1.2
					c0.5-0.4,1.1-0.8,1.6-1.1c0.1,0.9,0.2,1.9,0.3,2.8c-0.6,0.1-1.1,0.2-1.7,0.2c-0.3,0-0.4,0.6,0,0.6c0.6-0.1,1.2-0.1,1.8-0.2
					c0.3,0,0.7-0.1,1-0.1c8.8-1.1,16.9-3.5,24.4-8.1c0.3-0.2,0.6-0.4,0.9-0.6c-0.1-0.3-0.1-0.6-0.2-0.9c-0.1-0.3-0.1-0.7-0.2-1
					c0.3,0,0.6-0.1,0.9-0.1c0.1,0.2,0.2,0.4,0.3,0.6c0.1,0.2,0.2,0.4,0.3,0.6c0.9,1.7,1.8,3.4,2.6,5.1
					C267.5,157.2,268.4,159.2,269.4,161z M261,159.8c0.2-0.2,0-0.6-0.3-0.5c0,0,0,0-0.1,0c-3.5,1.3-6.8,3.5-10.1,5.3
					c-3.4,1.9-6.7,3.8-10,5.8c-0.2,0.1-0.5,0.3-0.7,0.4c0,0-0.1,0.1-0.1,0.1c-0.1,0.2,0,0.4,0.2,0.4c0.1,0,0.1,0,0.2,0
					c0.2-0.1,0.5-0.2,0.7-0.4c3.4-1.8,6.9-3.5,10.3-5.4C254.4,163.8,258,162.1,261,159.8z M260.8,158c0.3-0.1,0.1-0.6-0.2-0.6
					c-3.4,0.4-6.8,1.7-10.1,2.6c-3.7,1-7.3,2.1-11,3c-0.2,0-0.2,0.2-0.2,0.3c0,0.1,0.1,0.3,0.3,0.2c3.7-0.8,7.5-1.5,11.2-2.5
					c3.1-0.8,6.5-1.5,9.4-2.8C260.4,158.2,260.6,158.1,260.8,158z"/>
			</defs>
			<use xlink:href="#xmlid2_64_"  overflow="visible" fill="#F4E7E3"/>
			<clipPath id="xmlid2_10_">
				<use xlink:href="#xmlid2_64_"  overflow="visible"/>
			</clipPath>
			<path clip-path="url(#xmlid2_10_)" fill="#DDDDEF" d="M240.6,170.4l20-11.1c0,0-4.1-1.8-10.1,0.7
				C244.5,162.6,240.6,170.4,240.6,170.4z"/>
			<polygon clip-path="url(#xmlid2_10_)" fill="#DDDDEF" points="262.7,151.1 268.1,162 271.8,159.1 262.9,146.2 262.4,149.2 			"/>
		</g>
		<path d="M268.2,213.7l-0.3,0.8c-0.5-0.2-0.9-0.4-1.4-0.6c-0.3-0.4-0.6-0.8-1-1.2c-0.7-0.9-1.4-1.7-2.1-2.5
			c-2.2-2.4-4.6-4.6-7.2-6.6c-5.2-4-11.1-7-17.6-8.2c-13.1-2.5-24.9,2.7-36.1,8.7c-0.2,0.1-0.4,0.2-0.6,0.3c-1.9,1-3.8,2-5.6,3.1
			c1,2.4,2.2,4.6,3.6,6.7c2.3-1.3,4.6-2.5,6.9-3.6c0.1,0,0.2-0.1,0.3-0.1l0.3,0.8c-2.2,1.3-4.6,2.5-7,3.6c-0.3,0.2-0.7,0.3-1,0.5
			c-0.2-0.2-0.3-0.4-0.4-0.6c-1.5-2.1-2.6-4.4-3.5-6.8c-0.1-0.3-0.2-0.6-0.3-0.9c0.2-0.2,0.5-0.3,0.7-0.5c1.7-1.1,3.5-2.2,5.3-3.2
			c0.2-0.1,0.4-0.2,0.6-0.3c11.2-6.4,24-11.2,36.8-8.9c6.7,1.2,13,4.3,18.3,8.5C261,205.6,265.3,209.4,268.2,213.7z"/>
		<path fill="#334A5D" d="M277,241.4c-4.8-0.5-9.6-0.9-14.3-1.4c-6.5-0.7-13.1-1.7-19.7-2.3c5.4-2.2,10.7-4.6,15.9-7.1
			C264.7,234.7,270.7,238.3,277,241.4z"/>
		<path d="M260.7,159.3c0.3-0.1,0.5,0.3,0.3,0.5c-3,2.3-6.6,3.9-9.9,5.8c-3.4,1.9-6.8,3.6-10.3,5.4c-0.2,0.1-0.5,0.2-0.7,0.4
			c-0.1,0-0.1,0-0.2,0c-0.2,0-0.3-0.3-0.2-0.4c0,0,0.1-0.1,0.1-0.1c0.2-0.1,0.5-0.3,0.7-0.4c3.3-2,6.6-3.9,10-5.8
			C253.8,162.8,257.1,160.6,260.7,159.3C260.6,159.3,260.7,159.3,260.7,159.3z"/>
		<path d="M260.6,157.5c0.3,0,0.4,0.4,0.2,0.6c-0.2,0.1-0.4,0.2-0.6,0.3c-3,1.3-6.3,2-9.4,2.8c-3.7,1-7.4,1.7-11.2,2.5
			c-0.2,0-0.3-0.1-0.3-0.2c0-0.1,0-0.2,0.2-0.3c3.7-1,7.3-2,11-3C253.8,159.2,257.2,157.9,260.6,157.5z"/>
		<path fill="#A88651" d="M249.6,300.3c-0.1,0.1-0.2,0.2-0.3,0.3c-0.3,0.3-0.7,0.7-1,1c-1.7,1.6-3.3,3.2-5,4.8c-2,1.9-4,3.8-6,5.7
			c-0.3,0-0.6,0-0.9,0c1.9-1.8,3.8-3.6,5.7-5.4c1.9-1.8,3.8-3.5,5.6-5.3c0.3-0.3,0.7-0.7,1-1c-0.3-0.1-0.7-0.2-1-0.3
			c-13.4-3.5-26.8-7-40.1-10.6c0.2-0.1,0.5-0.3,0.7-0.4c7.2,1.9,14.5,3.8,21.7,5.8c6,1.6,12,3.2,18,4.8c0.3,0.1,0.7,0.2,1,0.3
			C249.2,300.2,249.4,300.3,249.6,300.3z"/>
		<g>
			<defs>
				<path id="xmlid2_63_" d="M242.2,236.6c-1.8,0.2-3.6,0.4-5.3,0.7c-1.2,0.1-2.3,0.3-3.4,0.4c-2.4,0.3-4.7,0.6-7.1,0.9
					c-0.2,0-0.3,0-0.5,0.1c-16.6,2.2-33.1,4.7-49.6,7.2c-2.2,0.3-4.4,0.7-6.6,1c-0.1,0-0.2,0-0.2,0c-0.3,0-0.7,0-1,0.1
					c-0.1,0-0.3,0-0.4,0c-3.2,0.3-6.4,0.7-9.5,0.9c-5.2,0.4-10.5,0.8-15.7,1.2c-9.2,0.7-18.4,1.4-27.5,2.2
					c-4.3-13.7-9.1-27.2-13.5-40.8c-4.9-15-9.8-30.1-14.8-45.1c9.3-3,18.5-6.3,27.7-9.4c5.6-1.9,11.1-3.8,16.7-5.7
					c3.3-1.1,6.7-2.1,10-3.3c8.4,32.2,17.3,64.4,26.7,96.4c0.1,0.2,0.1,0.4,0.2,0.6c0.1,0,0.2,0,0.3,0c0.1,0,0.3,0,0.4,0
					c0,0,0.1,0,0.1,0c0.1,0,0.1,0,0.2,0c0.3,0,0.7-0.1,1-0.1c0.3,0,0.6-0.1,0.8-0.1c12.1-1.2,24.3-3.1,36.4-4.7
					c6.1-0.8,12.2-1.6,18.3-2.4c0.3,0,0.5-0.1,0.8-0.1c0.2,0,0.4,0,0.6-0.1c1.5-0.2,3.1-0.4,4.7-0.6c0.1,0.1,0.3,0,0.4,0
					c2.1-0.2,4.2-0.5,6.2-0.8c0.3,0,0.6-0.1,0.8-0.1c1-0.1,2-0.3,3-0.5c0,0.3,0,0.6,0,0.9C242.2,235.8,242.2,236.2,242.2,236.6z
					 M133.5,199.8c0.1,0.1,0.3,0,0.3-0.2c-0.1-0.5-0.3-0.9-0.7-1.2c-1.4-2.3-4.3-2.3-5.7-0.2c-1.3-1.4-3.6-1.6-5.2-0.2
					c-2.1,1.8-1.9,5.1-0.4,7.3c3.4,4.9,11.4,3,11.7-3.2c0-0.2-0.2-0.3-0.4-0.3c-0.6,0.1-0.5,0.1-0.9,0.3c0,0,0,0,0,0c0,0,0,0-0.1,0
					c-0.2,0.2-0.2,0.4-0.2,0.7c-1.5,0-2.8-1.4-2-3C130.7,198.2,132.4,198.9,133.5,199.8z M129.1,194.7c0.9-1.3,1.3-3,0.7-4.5
					c0-0.1-0.1-0.1-0.1,0c-0.1,1.4-0.5,2.7-1.5,3.8c-0.4,0.4-0.8,0.8-1.4,1.1c-0.1,0-0.1,0.1-0.2,0.1c0.3-1.8,1.3-3.3,2.6-4.6
					c0.1-0.1,0-0.2-0.1-0.1c-1.8,1-2.8,2.9-2.9,4.9c-0.3,0.1-0.6,0.3-0.8,0.6c-0.1,0.2-0.2,0.5,0.1,0.6
					C126.8,197.2,128.4,195.7,129.1,194.7z"/>
			</defs>
			<use xlink:href="#xmlid2_63_"  overflow="visible" fill="#BBBCBF"/>
			<clipPath id="xmlid2_11_">
				<use xlink:href="#xmlid2_63_"  overflow="visible"/>
			</clipPath>
			<linearGradient id="SVGID_1_" gradientUnits="userSpaceOnUse" x1="104.46" y1="191.7363" x2="146.2526" y2="191.7363">
				<stop  offset="0" style="stop-color:#FFFFFF;stop-opacity:0.3"/>
				<stop  offset="1" style="stop-color:#B4D6C7;stop-opacity:0.3"/>
			</linearGradient>
			<polygon clip-path="url(#xmlid2_11_)" fill="url(#SVGID_1_)" points="144.6,156.3 104.5,218.7 107.3,227.1 146.3,164.1 			"/>
			<linearGradient id="SVGID_2_" gradientUnits="userSpaceOnUse" x1="108.5005" y1="211.1796" x2="155.0475" y2="211.1796">
				<stop  offset="0" style="stop-color:#FFFFFF;stop-opacity:0.3"/>
				<stop  offset="1" style="stop-color:#B4D6C7;stop-opacity:0.3"/>
			</linearGradient>
			<polygon clip-path="url(#xmlid2_11_)" fill="url(#SVGID_2_)" points="147,168.7 108.5,230.7 114.9,253.6 155,192.8 			"/>
			<linearGradient id="SVGID_3_" gradientUnits="userSpaceOnUse" x1="121.6575" y1="202.3503" x2="133.1154" y2="202.3503">
				<stop  offset="0" style="stop-color:#FFFFFF;stop-opacity:0.3"/>
				<stop  offset="1" style="stop-color:#B4D6C7;stop-opacity:0.3"/>
			</linearGradient>
			<polygon clip-path="url(#xmlid2_11_)" fill="url(#SVGID_3_)" points="127.4,198.2 123.2,197.4 121.7,201 121.9,204 125.3,207.7
				129.3,207 132.4,204.9 133.1,202.3 132.2,202 131.9,202.9 129.8,202.5 129.1,200.2 130.1,198.4 132.4,198.7 132,197.8 129.8,197
							"/>
			<linearGradient id="SVGID_4_" gradientUnits="userSpaceOnUse" x1="126.4668" y1="193.2161" x2="129.7188" y2="193.2161">
				<stop  offset="0" style="stop-color:#FFFFFF;stop-opacity:0.3"/>
				<stop  offset="1" style="stop-color:#B4D6C7;stop-opacity:0.3"/>
			</linearGradient>
			<polygon clip-path="url(#xmlid2_11_)" fill="url(#SVGID_4_)" points="126.5,196.2 127,193.4 128.1,191.3 129.7,190.2 129.7,192.6
				128.1,194.9 			"/>
		</g>
		<path d="M241.2,220.4c0.1,0,0,0.1,0,0.1c-0.9,0.3-1.8-0.1-2.6-0.3c-0.8-0.2-1.9-0.3-2.4-0.9c0,0,0,0,0,0c0.7-0.4,1.7,0,2.4,0.2
			C239.4,219.7,240.4,219.8,241.2,220.4z"/>
		<path d="M213,289.2c7.4,2,14.7,3.9,22.1,5.9c-9-1.8-17.9-3.9-26.7-6.5c-0.3-0.1-0.2-0.4,0-0.5c0.1,0,0.1,0,0.2,0
			C210,288.5,211.5,288.9,213,289.2z"/>
		<path d="M229.2,217.5c0.1,0,0.1,0.1,0,0.2c-0.9,0.5-2,0.1-2.9-0.3c-0.8-0.3-2-0.8-2.3-1.6c0,0,0,0,0,0c0.9,0,1.7,0.7,2.5,1
			C227.4,217,228.5,217,229.2,217.5z"/>
		<path fill="#D68430" d="M228.2,223.9c-0.2,0.5-0.5,0.9-0.7,1.4c-1.1-0.9-2.6-1.3-3.9-1.8c-1.8-0.7-3.6-1.4-5.5-1.8
			c0.2-0.6,0.4-1.1,0.7-1.7c1.3,0.8,2.8,1.2,4.2,1.8C224.7,222.5,226.4,223.3,228.2,223.9z"/>
		<g>
			<defs>
				<path id="xmlid2_62_" d="M227.1,226c-0.7,1.5-1.5,3-2.2,4.6c-3-0.8-5.9-1.8-8.8-3.1c0.4-1.7,1-3.4,1.6-5c1.5,0.8,3.1,1.4,4.7,2.1
					C223.9,225.1,225.5,225.9,227.1,226z"/>
			</defs>
			<use xlink:href="#xmlid2_62_"  overflow="visible" fill="#D7A671"/>
			<clipPath id="xmlid2_12_">
				<use xlink:href="#xmlid2_62_"  overflow="visible"/>
			</clipPath>
			<path clip-path="url(#xmlid2_12_)" fill="#B2683C" d="M228.6,223l-1.5,3l-1.5-0.3c0,0-0.3,2.5-1.1,3.5c-0.8,1-8.4-2.8-8.4-2.8v0.9
				l8.4,3.3l0.8,0.6L228.6,223z"/>
		</g>
		<path fill="#272525" d="M225.6,235.5C225.6,235.5,225.6,235.5,225.6,235.5c-6.4,0.9-12.9,1.8-19.3,2.6
			c-11.8,1.5-23.7,2.8-35.5,4.7c-0.1-0.4-0.2-0.8-0.3-1.1c13.1-1.5,26.3-2.9,39.4-4.7c1.4-0.1,2.8-0.3,4.1-0.4
			C217.9,236.2,221.8,235.9,225.6,235.5z"/>
		<path fill="#334A5D" d="M222.2,277.6c0.2,0.2,0.3,0.4,0.5,0.5c-3.5,2.7-7,5.2-10.9,7.4c-1.2,0.7-2.5,1.4-3.8,2
			c-0.1,0.1-0.3,0.1-0.4,0.2c-0.6,0.3-1.2,0.6-1.8,0.9c-0.3,0.1-0.5,0.3-0.8,0.4c-0.5,0.3-1.1,0.5-1.7,0.7c-0.3,0.1-0.7,0.3-1,0.4
			c-0.8,0.3-1.7,0.7-2.6,1c-0.6,0.2-1.2,0.4-1.8,0.6c0.2-0.2,0.5-0.5,0.7-0.7c0.7-0.7,1.4-1.4,2-2.1c0.3-0.3,0.6-0.6,1-0.9
			c0.2-0.2,0.3-0.3,0.5-0.5c0.1-0.1,0.1-0.1,0.2-0.2c0.3-0.3,0.7-0.6,1-0.8c2.6-2.2,5.2-4,8-5.9c0.3-0.2,0-0.7-0.3-0.5
			c-3.1,1.7-6.1,3.7-8.8,5.9c-0.1,0.1-0.1,0.1-0.2,0.2c-0.4,0.3-0.8,0.6-1.3,1c-0.2,0.1-0.4,0.3-0.6,0.5c-0.4,0.3-0.7,0.6-1.1,0.9
			c-1.5,1.3-2.9,2.6-3.9,4.1c-2.6,1.3-5.1,2.9-7.6,4.2c-2.6,1.5-5.4,2.9-8,4.4c0.6-1.7,0.5-3.8,0.3-5.6c-0.1-0.5-0.1-1-0.2-1.4
			c-0.4-3.9-1.2-7.8-2.4-11.6c-0.1-0.3-0.2-0.5-0.3-0.8c0.2-0.1,0.4-0.1,0.6-0.2c0.5-0.1,1-0.3,1.5-0.4c0.7-0.2,1.5-0.4,2.2-0.7
			c3.1-0.9,6.2-1.9,9.3-2.8c10.3-3.1,20.9-5.9,31.1-9.3c-1.5,1.9-1.7,4.7-0.8,7C221.4,276.4,221.8,277,222.2,277.6z"/>
		<path d="M218.9,213.4c0.1,0,0,0.2,0,0.2c-1.9,0.7-4.4-1.1-4.8-3c0,0,0,0,0,0c0.7,0.7,1.4,1.3,2.3,1.8
			C217.2,212.7,218.1,213,218.9,213.4z"/>
		<path d="M210.3,208.5C210.4,208.5,210.3,208.6,210.3,208.5c-1-0.5-2-1-2.5-2c-0.4-0.7-0.8-1.9-0.4-2.7c0,0,0.1-0.1,0.1,0
			c0.5,0.6,0.7,1.5,1.1,2.2C209.1,206.9,209.5,207.8,210.3,208.5z"/>
		<path fill="#1F1E26" d="M179,298c0,1.5-0.1,3.3-1.2,4.4c-0.2,0.2-0.4,0.3-0.5,0.4c-1.4,0.8-3.4,0.5-4.7-0.3
			c-0.6-0.4-1.1-0.8-1.5-1.3c1.6-0.8,3.2-1.8,4.8-2.7c0.2-0.1,0.2-0.4,0.1-0.5c1-0.5,2-1.1,3-1.6C179,296.9,179,297.5,179,298z"/>
		<g>
			<defs>
				<path id="xmlid2_61_" d="M179,296.4c-1,0.5-2,1.1-3,1.6c-0.1-0.2-0.3-0.3-0.5-0.1c-1.7,0.8-3.4,1.6-5.1,2.4
					c-0.3,0.1-0.7,0.3-1,0.4c-11.1,4.9-22.5,8.3-34.4,10.9c-13.3,2.9-26.8,4.8-40.1,7.8c-1-3-3.1-5.6-6.1-6.6
					c-0.4-0.1-0.6,0.4-0.3,0.7c2.4,1.7,4.3,3.6,5.2,6.2c0.1,0.3,0.2,0.6,0.3,1c0.2,0.6,0.3,1.3,0.4,2.1c0.3,3.8-1.3,7.5-3.9,10.2
					c-5.4,5.6-14.8,6.8-21.8,3.9c-3.8-1.6-6.2-4.3-6.6-8.5c-0.2-2.7-0.3-5.2-2.4-7.2c-1.6-1.6-3.7-2.2-5.6-2c1.2-1.4,2.1-3.1,2.7-5
					c0.1-0.3-0.4-0.6-0.6-0.2c-1.3,2.3-2.9,4.3-4.7,6c-0.9,0.4-1.7,1-2.4,1.8c-6.8,4.4-15.8,4.4-22.7-1.5
					c-5.9-5.1-7.9-12.5-6.5-19.5c0.6-3.3,2-6.6,4.1-9.4c1.4-0.2,3.3-0.4,3.1,1.1c0,0.3,0.3,0.6,0.5,0.3c0.8-1-0.1-2.3-1.3-2.5
					c-0.5-0.1-1.1,0-1.6,0.1c-0.4,0.1-0.9,0.2-1.4,0.3c-0.1,0-0.2,0-0.2,0c-1.5,0-2.7-0.9-3.4-2.2c0.1-0.7,0.2-1.4,0.4-2.1
					c0.5-1.7,1.4-3.2,2.5-4.6c0.2,0.2,0.4,0.4,0.6,0.6c1.1,1.2,2.2,2.4,3.4,3.4c0.4,0.3,0.8-0.2,0.5-0.5c-1.6-2-3.5-3.9-5.4-5.6
					c0.3-0.6,0.7-1.1,1.2-1.6c1-1.1,2.3-1.8,3.7-2.2c0,0,0.1,0,0.1,0c-0.1,2.3,0.2,4.7,1,6.7c0.1,0.3,0.7,0.3,0.7-0.1
					c-0.3-2-0.7-3.9-0.7-5.9c0-1.1,0.1-2.3,0.2-3.4c1-1.2,2.1-2.2,3.7-2.9c0.5-0.2,0.9-0.4,1.4-0.5c0.7-0.2,1.5-0.3,2.2-0.4
					c0.8,0,1.7,0,2.5,0.1c-0.1,0.2-0.2,0.5-0.3,0.7c-0.1,0.4-0.3,0.7-0.4,1.1c-1.2,3.9-1.1,8.3-0.1,12.2c0.1,0.5,0.3,1,0.4,1.4
					c0.1,0.2,0.1,0.5,0.2,0.7c0.1,0.4,0.6,0.3,0.7,0c2.6,2,5.4,3.9,7.9,6c1.9,1.6,3.7,3.3,5.6,5c0.5,0.4,0.9,0.9,1.4,1.3
					c1,0.9,2,1.8,3.1,2.7c0.5,0.5,1.2-0.2,0.8-0.8c-0.3-0.4-0.7-0.7-1-1.1c4.6,1.2,9.5,1.9,14.1,2.4c5.8,0.6,11.7,0.9,17.5,0.5
					c0.2,0,0.4,0,0.6-0.1c0,0.1,0,0.1,0.1,0.2c1.1-0.1,2.3,0,3.5,0c3.5-1,7-2.1,10.5-3c7.1-2,14.1-4,21.1-6.1c6.9-2,13.8-4,20.6-5.9
					c3-0.9,6-1.7,9-2.5c0.5,1,1.2,1.8,2.1,2.5c0.4,0.3,1,0.6,1.5,0.9c0.5,0.2,1,0.4,1.5,0.4c1.3,0.2,2.6,0,3.7-0.8
					c0.1-0.1,0.3-0.2,0.4-0.3c3.6-1.1,7.3-2.4,10.8-3.4c1-0.3,1.9-0.6,2.9-0.9c0.1,0,0.2,0.1,0.3,0.1
					C177.7,287,178.8,291.7,179,296.4z"/>
			</defs>
			<use xlink:href="#xmlid2_61_"  overflow="visible" fill="#D7A671"/>
			<clipPath id="xmlid2_13_">
				<use xlink:href="#xmlid2_61_"  overflow="visible"/>
			</clipPath>
			<path clip-path="url(#xmlid2_13_)" fill="#B2683C" d="M177.2,276.7l-29.6,2.2l-55.7,22.6c0,0,40.7-6.2,60.8-14.9
				c0,0,6.4,4.5,10.7,1.4l11-3.3c0,0,2.9,4.2,2.7,8.4c-0.1,4.2-52.6,22.4-82.3,26.2c-0.2,0-0.4,0.1-0.7,0.1l0,0
				c0.2,0.2,0.3,0.4,0.3,0.6c17.6-1.1,76-6.4,76-6.4l14.3-22L177.2,276.7z"/>
			<path clip-path="url(#xmlid2_13_)" fill="#B2683C" d="M89.5,314.3c0,0,8.1,9.7-1.7,18.3s-19.2,4.6-23.3,1.4s-1.3-7.7-2-10.9
				c-0.7-3.2-3.7-7.2-6.4-7.4l-4.5,5.9l3.6,24.1l35.2-3.4c0,0,11.1-11.5,10.5-12.3s-8.3-14.6-8.3-14.6L89.5,314.3z"/>
			<path clip-path="url(#xmlid2_13_)" fill="#B2683C" d="M19.8,312.1c0,0,15.2,23.6,35.9,2.5l-5.5,10.8l-25,3.2l-6.8-14.4L19.8,312.1
				z"/>
			<path clip-path="url(#xmlid2_13_)" fill="#EFD49D" d="M27.7,276.3c0,0,1.7-6.4,9.8-6.3c8,0.1-1.1-7.5-1.1-7.5l-9.8,6.2L27.7,276.3
				z"/>
			<path clip-path="url(#xmlid2_13_)" fill="#EFD49D" d="M21.8,279.4c0,0,2.3-2.5,5.1-2.4l0-2.1l-4.2,1.9l-1.3,2.7H21.8z"/>
			<path clip-path="url(#xmlid2_13_)" fill="#EFD49D" d="M21.7,282.9c0,0-2.3,4.6-0.8,6.8s-3.5-2.5-3.5-2.5l2.2-4.7L21.7,282.9z"/>
		</g>
		<path fill="#BBBCBF" d="M169.6,241.8c0.1,0.4,0.2,0.8,0.4,1.2c-0.4,0.1-0.8,0.1-1.1,0.2c-0.1-0.5-0.2-0.9-0.4-1.4c0,0,0-0.1,0-0.1
			c0,0,0,0,0,0c0,0,0,0,0,0v0c-8.4-31.7-17.3-63.4-26.6-94.9c0,0,0,0,0,0c0.4-0.2,0.9-0.3,1.3-0.5c4.1,16.3,9,32.4,13.5,48.6
			c2.3,8.2,4.6,16.5,6.9,24.7c2,7.2,3.8,14.5,6,21.7C169.4,241.4,169.5,241.6,169.6,241.8z"/>
		<path d="M168.8,243.1l0.1,0.7c-0.1,0-0.3,0-0.4,0c-0.1,0-0.2,0-0.3,0c-0.1-0.2-0.1-0.4-0.2-0.6c-9.4-32-18.3-64.2-26.7-96.4
			l0.5-0.1c9.3,31.4,18.3,63.1,26.6,94.9v0c0,0,0,0,0,0c0,0,0,0,0,0c0,0,0,0.1,0,0.1C168.5,242.2,168.7,242.7,168.8,243.1z"/>
		<path fill="#1F1E26" d="M162.8,281.4c0,0.6,0,1.2-0.1,1.9c-0.1,0.8-0.4,1.6-0.9,2.3c-0.1,0.1-0.1,0.2-0.2,0.3
			c-0.8,0.8-2,1-3.1,0.9c-0.8-0.1-1.5-0.4-2.1-0.7c-0.9-0.6-1.6-1.3-2.2-2.2c2.6-0.7,5.4-1.3,8-2.2c0.2-0.1,0.4-0.2,0.6-0.2
			C162.8,281.3,162.8,281.4,162.8,281.4z"/>
		<g>
			<defs>
				<path id="xmlid2_60_" d="M162.8,280.4c0,0-0.1,0-0.1,0c-0.2,0-0.5,0.1-0.7,0.1c-2.6,0.4-5.1,1.4-7.6,2c-0.2,0.1-0.5,0.1-0.7,0.2
					c-0.4,0.1-0.7,0.2-1.1,0.3c-2.8,0.8-5.5,1.5-8.3,2.3c-7,2-14.1,4-21.1,6.1c-6.9,2-13.8,4-20.6,6c-3.7,1.1-7.4,2-11.2,3
					c-0.1,0-0.1-0.1-0.2-0.1c-6.7,0-13.3,0.1-20-0.5c-5.7-0.6-11.1-1.7-16.7-2.8c-2.4-2.4-5.2-4.6-7.8-6.7c-2.7-2.2-5.6-4.6-8.7-6.5
					c-0.5-2.3-0.8-4.6-0.7-7c0.1-1.9,0.5-3.6,0.9-5.4h0c5.4,1.8,11,3.1,16.6,4.3c5.3,1.1,10.8,2.2,16.2,2.8c0.8,0.1,1.6,0.2,2.5,0.2
					c0.6-0.2,1.3-0.4,1.9-0.6c9.8-2.9,19.7-5.8,29.5-8.7c1.9,0.9,3.5,2.7,4.4,4.9c0,0.1,0.1,0.1,0.1,0c-0.1-2.2-1.3-4.2-3.2-5.3
					c3.3-1,6.5-2,9.7-2.9c2.1,0.8,3.9,2.7,4.9,5.1c0,0.1,0.1,0.1,0.1,0c-0.1-2.3-1.5-4.4-3.6-5.5c3.3-1,6.5-2,9.8-3
					c1.8,0.9,3.3,2.6,4.2,4.8c0,0.1,0.1,0.1,0.1,0c-0.1-2.1-1.2-4-3-5.1c5.6-1.7,11.2-3.4,16.8-5.2c0.3-0.1,0.5-0.1,0.7-0.2
					c2.8-0.9,5.7-1.8,8.5-2.7c0.1,0,0.1-0.1,0.2-0.1c2.5,3.3,4.2,8.6,5.1,11.2c0,0.1,0,0.1,0.1,0.2c0.1,0.2,0.1,0.4,0.2,0.6
					c0.7,2,1.2,4.1,1.7,6.2c0.2,0.9,0.4,1.7,0.5,2.6c0.1,0.3,0.1,0.6,0.1,0.9c0,0.3,0.1,0.6,0.1,0.9c0,0.3,0.1,0.5,0.1,0.8
					c0,0.4,0.1,0.7,0.1,1.1C162.8,279.2,162.8,279.8,162.8,280.4z"/>
			</defs>
			<use xlink:href="#xmlid2_60_"  overflow="visible" fill="#D7A671"/>
			<clipPath id="xmlid2_14_">
				<use xlink:href="#xmlid2_60_"  overflow="visible"/>
			</clipPath>
			<path clip-path="url(#xmlid2_14_)" fill="#EFD49D" d="M7.6,256.7c0,0,1.7-4.5,9.8-5.7l-7.8-2.2l-5.1,4.8L7.6,256.7z"/>
			<path clip-path="url(#xmlid2_14_)" fill="#EFD49D" d="M73.5,278.8c0,0,49.7-10.6,82.2-24.9c32.5-14.2-62.7,9.9-62.7,9.9l-17.1,9.3
				L73.5,278.8z"/>
		</g>
		<path fill="#1F1E26" d="M151.2,251.5c1.2,0.3,2.2,1.1,3.1,2.2c-2.7,0.7-5.4,1.5-8.1,2.2c0.3-1.4,0.7-2.8,1.7-3.6
			c0.4-0.4,1-0.7,1.7-0.8C150.2,251.4,150.7,251.4,151.2,251.5z"/>
		<path d="M143.3,145.4c0.1,0.2,0.1,0.4,0.2,0.7l-0.5,0.2c-0.4,0.2-0.9,0.3-1.3,0.5c0,0,0,0,0,0l-0.5,0.1c-3.3,1.2-6.7,2.2-10,3.3
			c-5.5,1.9-11.1,3.8-16.7,5.7c-9.2,3.1-18.4,6.5-27.7,9.4c5.1,15,9.9,30,14.8,45.1c4.5,13.6,9.3,27.1,13.5,40.8l0,0.8
			c-0.4,0-0.9,0.1-1.3,0.1c-0.1-0.2-0.2-0.5-0.2-0.7c-4.6-13.5-8.7-27.1-13.1-40.7c-4.9-15-9.9-30-14.6-45.1
			c-0.1-0.3-0.2-0.5-0.3-0.8c0.3-0.1,0.5-0.2,0.8-0.3c9-3.3,18.2-6.3,27.2-9.4c5.5-1.9,11.1-3.8,16.7-5.7c4.1-1.4,8.3-3.1,12.6-4.4
			c0,0.1,0.1,0.2,0.1,0.3C143.2,145.2,143.3,145.3,143.3,145.4z"/>
		<path d="M133.8,199.6c0,0.1-0.2,0.3-0.3,0.2c-1.1-0.8-2.7-1.6-3.6,0c-0.8,1.5,0.5,2.9,2,3c0-0.2,0.1-0.4,0.2-0.7c0,0,0,0,0.1,0
			c0,0,0,0,0,0c0.4-0.3,0.3-0.2,0.9-0.3c0.2,0,0.4,0.1,0.4,0.3c-0.3,6.1-8.3,8.1-11.7,3.2c-1.5-2.1-1.6-5.4,0.4-7.3
			c1.6-1.4,3.8-1.2,5.2,0.2c1.4-2.1,4.3-2.1,5.7,0.2C133.5,198.7,133.7,199.1,133.8,199.6z M132.4,202.9c0,0.2,0,0.3-0.2,0.4
			c-2.5,1-4.6-1.8-3.4-4c0.6-1,1.6-1.6,2.8-1.5c0.1,0,0.3,0,0.4,0.1c-1.4-0.9-3.4-0.5-4,1.4c-0.1,0.4-0.7,0.5-0.9,0.1
			c-2.2-3.5-5.5,0.4-5.2,3.1c0.3,2.1,2,3.9,4,4.5c2,0.5,4.1-0.2,5.5-1.8c0.6-0.7,1.9-2.2,0.9-2.8
			C132.4,202.5,132.4,202.7,132.4,202.9z"/>
		<g>
			<defs>
				<path id="xmlid2_59_" d="M132.2,203.3c0.2-0.1,0.2-0.2,0.2-0.4c0-0.2,0-0.4-0.1-0.6c1,0.5-0.3,2.1-0.9,2.8
					c-1.4,1.5-3.5,2.3-5.5,1.8c-2.1-0.6-3.7-2.3-4-4.5c-0.4-2.7,3-6.6,5.2-3.1c0.2,0.4,0.8,0.3,0.9-0.1c0.7-1.9,2.6-2.3,4-1.4
					c-0.1,0-0.3,0-0.4-0.1c-1.2-0.1-2.2,0.5-2.8,1.5C127.6,201.5,129.8,204.2,132.2,203.3z"/>
			</defs>
			<use xlink:href="#xmlid2_59_"  overflow="visible" fill="#BBBCBF"/>
			<clipPath id="xmlid2_15_">
				<use xlink:href="#xmlid2_59_"  overflow="visible"/>
			</clipPath>
			<linearGradient id="SVGID_5_" gradientUnits="userSpaceOnUse" x1="104.46" y1="191.7363" x2="146.2526" y2="191.7363">
				<stop  offset="0" style="stop-color:#FFFFFF;stop-opacity:0.3"/>
				<stop  offset="1" style="stop-color:#B4D6C7;stop-opacity:0.3"/>
			</linearGradient>
			<polygon clip-path="url(#xmlid2_15_)" fill="url(#SVGID_5_)" points="144.6,156.3 104.5,218.7 107.3,227.1 146.3,164.1 			"/>
			<linearGradient id="SVGID_6_" gradientUnits="userSpaceOnUse" x1="108.5005" y1="211.1796" x2="155.0475" y2="211.1796">
				<stop  offset="0" style="stop-color:#FFFFFF;stop-opacity:0.3"/>
				<stop  offset="1" style="stop-color:#B4D6C7;stop-opacity:0.3"/>
			</linearGradient>
			<polygon clip-path="url(#xmlid2_15_)" fill="url(#SVGID_6_)" points="147,168.7 108.5,230.7 114.9,253.6 155,192.8 			"/>
			<linearGradient id="SVGID_7_" gradientUnits="userSpaceOnUse" x1="121.6575" y1="202.3503" x2="133.1154" y2="202.3503">
				<stop  offset="0" style="stop-color:#FFFFFF;stop-opacity:0.3"/>
				<stop  offset="1" style="stop-color:#B4D6C7;stop-opacity:0.3"/>
			</linearGradient>
			<polygon clip-path="url(#xmlid2_15_)" fill="url(#SVGID_7_)" points="127.4,198.2 123.2,197.4 121.7,201 121.9,204 125.3,207.7
				129.3,207 132.4,204.9 133.1,202.3 132.2,202 131.9,202.9 129.8,202.5 129.1,200.2 130.1,198.4 132.4,198.7 132,197.8 129.8,197
							"/>
			<linearGradient id="SVGID_8_" gradientUnits="userSpaceOnUse" x1="126.4668" y1="193.2161" x2="129.7188" y2="193.2161">
				<stop  offset="0" style="stop-color:#FFFFFF;stop-opacity:0.3"/>
				<stop  offset="1" style="stop-color:#B4D6C7;stop-opacity:0.3"/>
			</linearGradient>
			<polygon clip-path="url(#xmlid2_15_)" fill="url(#SVGID_8_)" points="126.5,196.2 127,193.4 128.1,191.3 129.7,190.2 129.7,192.6
				128.1,194.9 			"/>
		</g>
		<path d="M129.9,190.2c0.6,1.5,0.2,3.2-0.7,4.5c-0.7,1-2.3,2.5-3.6,1.9c-0.2-0.1-0.2-0.4-0.1-0.6c0.2-0.3,0.5-0.4,0.8-0.6
			c0.1-2,1-3.9,2.9-4.9c0.1,0,0.1,0.1,0.1,0.1c-1.3,1.3-2.3,2.8-2.6,4.6c0.1,0,0.1-0.1,0.2-0.1c0.5-0.3,1-0.7,1.4-1.1
			c0.9-1.1,1.4-2.4,1.5-3.8C129.7,190.2,129.8,190.1,129.9,190.2z"/>
		<g>
			<defs>
				<path id="xmlid2_58_" d="M31.7,268.9c-1.3,0.5-2.5,1.2-3.5,2.1c-0.3,0.3-0.6,0.6-0.9,1c-0.1,0.7-0.3,1.4-0.3,2.1
					c0,0.3-0.1,0.6-0.1,0.8c-0.1-0.1-0.2-0.1-0.4-0.1c-2,0.5-4.3,1.9-5.6,3.9c-0.1,0.2-0.2,0.4-0.3,0.6c0.3,0.3,0.5,0.6,0.8,0.9
					c0.3,0.3,0.5,0.6,0.8,0.9c-1.3,1.4-2.6,3.4-3.2,5.4c-0.1,0-0.2,0.1-0.2,0.2c0,0.1,0,0.3,0,0.4c0,0.4,0.1,0.8,0.2,1.2
					c0.1,0.4,0.3,0.7,0.5,1c0.3,0.4,0.7,0.8,1.2,1.1c0.6,0.4,1.2,0.6,1.9,0.7c0,0,0,0,0.1,0c-1.9,2.6-3.1,5.4-3.8,8.4
					c-0.9-0.3-1.7-0.6-2.4-1.3c-0.7-0.7-1.3-1.5-1.6-2.4c0.6-0.1,1.4-0.3,2-0.6c0.2,0.1,0.6,0.1,0.6-0.3c0,0,0,0,0-0.1
					c-0.1-0.4-0.1-0.8-0.2-1.2c-0.2-0.8-0.3-1.7-0.5-2.5c-0.3-1.2-0.4-2.6-1-3.7c-0.2-0.4-0.7-0.2-0.8,0.1c-0.1,0-0.2,0-0.3,0
					c0.7-2.3,0.5-4.9-1-6.8c-0.3-0.3-0.6-0.7-0.9-0.9c-0.1,0-0.1-0.1-0.2-0.1c0,0,0,0,0,0c0.6-2.1,0.6-4.6-0.5-6.5
					c-0.1-0.2-0.2-0.3-0.3-0.5c0.1-0.2,0.2-0.3,0.3-0.5c1.6-2.7,2-6.5,0.8-9.4c-0.1-0.3-0.3-0.7-0.5-1c-0.4-0.1-0.9-0.2-1.4-0.3
					c-0.9-0.1-1.8-0.1-2.7,0.1c-0.4-2.9-0.6-5.5,0-8.3c2.9-1.7,5.7-2.5,9.2-2.3C17.2,259.1,24.5,265.4,31.7,268.9z"/>
			</defs>
			<use xlink:href="#xmlid2_58_"  overflow="visible" fill="#D7A671"/>
			<clipPath id="xmlid2_16_">
				<use xlink:href="#xmlid2_58_"  overflow="visible"/>
			</clipPath>
			<path clip-path="url(#xmlid2_16_)" fill="#EFD49D" d="M7.6,256.7c0,0,1.7-4.5,9.8-5.7l-7.8-2.2l-5.1,4.8L7.6,256.7z"/>
			<path clip-path="url(#xmlid2_16_)" fill="#EFD49D" d="M73.5,278.8c0,0,49.7-10.6,82.2-24.9c32.5-14.2-62.7,9.9-62.7,9.9l-17.1,9.3
				L73.5,278.8z"/>
		</g>
		<path fill="#D7A671" d="M15.6,291.2c0.3,1,0.5,2,0.8,2.9c-0.5,0.3-1.1,0.6-1.7,0.7c-0.8,0.2-1.6,0.1-2.4,0
			c-0.3-0.4-0.6-0.9-0.9-1.4c-0.5-1.3-0.7-2.7-0.5-4.1c0-0.1,0-0.1,0-0.2c0.2,0,0.3-0.1,0.5-0.1c0.6-0.1,1.3-0.2,1.9-0.4
			c0,0,0,0,0,0c0.3-0.1,0.6-0.1,0.9-0.2c0.2-0.1,0.4-0.1,0.7-0.2C15,289.3,15.4,290.3,15.6,291.2z"/>
		<path fill="#D7A671" d="M12.6,280.9c1.5,2,2,4.3,1.3,6.5c0,0.1-0.1,0.2-0.1,0.3c-0.7,0.1-1.3,0.3-2,0.5c-0.8,0.2-1.7,0.3-2.6,0.6
			c-1.3-2.1-1.9-4.6-1.5-7.1c0-0.2,0.1-0.3,0.1-0.5c1.1,0,2.3,0,3.4-0.1c0.3,0,0.5,0,0.8-0.1C12.2,281,12.4,281,12.6,280.9z"/>
		<g>
			<defs>
				<path id="xmlid2_57_" d="M11.9,276.1c0.3,1.3,0.2,2.6-0.2,3.8c-2.1,0-4.2,0.2-6.2,0.4c-0.6-2.4-0.9-4.8-0.9-7.2
					c1.9,0.2,4,0.3,6,0.2c0.1,0,0.2,0,0.2,0c0.1,0.1,0.2,0.3,0.3,0.4C11.4,274.4,11.8,275.2,11.9,276.1z"/>
			</defs>
			<use xlink:href="#xmlid2_57_"  overflow="visible" fill="#D7A671"/>
			<clipPath id="xmlid2_17_">
				<use xlink:href="#xmlid2_57_"  overflow="visible"/>
			</clipPath>
			<path clip-path="url(#xmlid2_17_)" fill="#EFD49D" d="M11.4,262.6c0,0-5.1,0-5.5,2.2c-0.4,2.1-1.4,6.2-0.5,15.6
				c1,9.5-3.9-3.2-3.9-3.6c0-0.4-1.5-15.9-1.5-15.9l7.9,0.8L11.4,262.6z"/>
		</g>
		<g>
			<defs>
				<path id="xmlid2_56_" d="M11.4,262.6c1.4,3.3,1.4,6.3-0.2,9.5c0,0,0,0.1-0.1,0.1c-0.4,0-0.8,0-1.2-0.1c-1.8-0.1-3.7,0-5.5,0.1
					c0-2.9,0.3-5.8,0.9-8.7c0,0,0,0,0,0c0.7-0.4,1.5-0.6,2.2-0.8c0.3-0.1,0.5-0.1,0.8-0.1C9.4,262.4,10.4,262.4,11.4,262.6z"/>
			</defs>
			<use xlink:href="#xmlid2_56_"  overflow="visible" fill="#D7A671"/>
			<clipPath id="xmlid2_18_">
				<use xlink:href="#xmlid2_56_"  overflow="visible"/>
			</clipPath>
			<path clip-path="url(#xmlid2_18_)" fill="#EFD49D" d="M11.4,262.6c0,0-5.1,0-5.5,2.2c-0.4,2.1-1.4,6.2-0.5,15.6
				c1,9.5-3.9-3.2-3.9-3.6c0-0.4-1.5-15.9-1.5-15.9l7.9,0.8L11.4,262.6z"/>
		</g>
		<g>
			<g>
				<path d="M401.5,206.4c2.2-3,4-6.2,5.9-9.3c1.7-2.7,3.6-5.4,4.8-8.4c0-0.1-0.1-0.2-0.2-0.1c-2,2.5-3.5,5.4-5.1,8.2
					C405,199.9,403.1,203,401.5,206.4C401.4,206.4,401.5,206.4,401.5,206.4L401.5,206.4z"/>
			</g>
		</g>
	</g>
	<g>
		<path fill="none" stroke="#000000" stroke-width="0.5355" stroke-miterlimit="10" d="M170.7,300.5c-0.1,0.1-0.1,0.2-0.2,0.3
			c1.8-1,3.6-1.9,5.4-2.9c1-0.5,2-1.1,3-1.6c0.3-0.2,0.7-0.4,1-0.5"/>
	</g>
	<g id="xmlid2_39_">
		<defs>
			<ellipse id="xmlid2_40_" cx="398.3" cy="106.8" rx="10.6" ry="10.8"/>
		</defs>
		<use xlink:href="#xmlid2_40_"  overflow="visible" fill="#272525"/>
		<clipPath id="xmlid2_19_">
			<use xlink:href="#xmlid2_40_"  overflow="visible"/>
		</clipPath>
		<circle id="xmlid2_41_" clip-path="url(#xmlid2_19_)" fill="#D7A671" cx="396.2" cy="106.8" r="10.8"/>
	</g>
	<rect x="387.7" y="95.9" fill="#D7A671" width="9.8" height="21.6"/>
	<g id="xmlid2_36_">
		<path id="xmlid2_38_" opacity="0.26" fill="#B2683C" d="M399.8,112.4l-0.9,0.2C399.2,112.5,399.5,112.5,399.8,112.4z"/>
		<path id="xmlid2_37_" opacity="0.26" fill="#B2683C" d="M398.1,100.1c-3.1,0-5.7,2.8-5.7,6.3c0,0.1,0,0.2,0,0.3l3.5-1.5l3.4,1.2
			l1.5,2.2l-0.9,3.8c2.3-0.8,4-3.2,4-6C403.8,102.9,401.3,100.1,398.1,100.1z"/>
	</g>
	<g id="xmlid2_32_">
		<path id="xmlid2_35_" fill="#272525" d="M402.2,102c0.1,0.1,0,0.2-0.1,0.2c-2.2-1.2-5.3-2-7.5-0.3c-1.1,0.9-1.8,2.2-1.7,3.6
			c0,0.1,0,0.3,0.1,0.4c-0.4,0.3-0.7,0.6-0.9,1c-0.3-0.6-0.4-1.2-0.4-1.7c0-1.6,0.6-3,1.8-4.1C396.1,98.7,400.1,99.5,402.2,102z"/>
		<path id="xmlid2_34_" fill="#272525" d="M393,105.9c0.9-0.8,2.1-1.3,3.1-1.5c2-0.4,4.3,0.9,5,2.8c0.7,2.2-0.1,4.6-2.2,5.7
			c-1.8,0.9-4.4,0.8-5.7-1c0,0,0-0.1,0.1-0.1c1.6,0.5,3.4,1,4.9,0c1.4-0.9,2.1-3,1.1-4.5c-0.9-1.3-2.7-1.8-4.3-1.5
			c-0.7,0.2-1.3,0.5-1.7,0.9C393.2,106.4,393.1,106.2,393,105.9z"/>
		<path id="xmlid2_33_" fill="#272525" d="M393.3,106.6c-0.3,0.2-0.6,0.5-0.9,0.8c-0.1-0.2-0.2-0.4-0.3-0.6c0.3-0.3,0.6-0.7,0.9-1
			C393.1,106.2,393.2,106.4,393.3,106.6L393.3,106.6z"/>
	</g>
	<g id="xmlid2_42_">
		<g id="xmlid2_44_">
			<g id="xmlid2_54_">
				<g>
					<path fill="#FFFFFF" d="M308.9,163.9c0.2,0.7,0.3,1.5,0.1,2.3c-0.3,1.2-1,2.2-1.8,2.6l-0.2-0.6c0.2,0,0.5-0.2,0.5-0.4
						c-0.1-0.7-0.5-1.3-0.8-2c0.6-0.5,1.1-0.9,1.7-1.4c0.2-0.2,0.2-0.3,0.1-0.5L308.9,163.9z"/>
					<path fill="#FFFFFF" d="M308.3,164c-0.1-0.3-0.5-0.4-0.8-0.2c-0.4,0.4-0.9,0.8-1.3,1.2c-0.2-0.5-0.4-1.1-0.7-1.5
						c-0.2-0.1-0.4-0.1-0.4,0.1c-0.2,0.6,0.1,1.5,0.3,2.1c-0.4,0.3-0.7,0.6-0.9,1c-0.1,0.2,0.1,0.5,0.3,0.4c0.3-0.1,0.6-0.3,0.9-0.6
						c0.2,0.6,0.5,1.2,1.1,1.6c0.1,0,0.1,0.1,0.2,0.1l0.2,0.6c-0.5,0.3-1.1,0.4-1.7,0.3c-0.7-0.2-1.3-0.7-1.7-1.4
						c-0.4-0.8-0.5-1.8-0.3-2.7c0.4-1.7,1.7-3,3-3c0.2,0,0.3,0,0.5,0c0.7,0.2,1.3,0.7,1.7,1.4c0.1,0.1,0.1,0.3,0.2,0.4L308.3,164z"
						/>
					<g>
						<path d="M306.7,168.3c0.1,0,0.1,0.1,0.2,0.1c0.2,0,0.5-0.2,0.5-0.4c-0.1-0.7-0.5-1.3-0.8-2c0.6-0.5,1.1-0.9,1.7-1.4
							c0.2-0.2,0.2-0.3,0.1-0.5c-0.1-0.3-0.5-0.4-0.8-0.2c-0.4,0.4-0.9,0.8-1.3,1.2c-0.2-0.5-0.4-1.1-0.7-1.5
							c-0.2-0.1-0.4-0.1-0.4,0.1c-0.2,0.6,0.1,1.5,0.3,2.1c-0.4,0.3-0.7,0.6-0.9,1c-0.1,0.2,0.1,0.5,0.3,0.4
							c0.3-0.1,0.6-0.3,0.9-0.6C305.9,167.3,306.2,167.9,306.7,168.3z"/>
						<path d="M310,163.3c-0.5-1-1.2-1.6-2.1-1.8c-0.4-0.1-0.9-0.1-1.3,0c-1.6,0.1-3,1.5-3.5,3.4c-0.2,1.1-0.1,2.2,0.3,3.1
							c0.4,0.9,1.2,1.5,2.1,1.7c0.2,0,0.3,0.1,0.5,0.1c0,0,0,0,0.1,0c0.2,0,0.4,0.1,0.6,0.1c0.7,0,1.4-0.3,2.1-0.8
							c0.8-0.6,1.4-1.6,1.6-2.7C310.5,165.3,310.4,164.2,310,163.3z M303.8,167.7c-0.4-0.8-0.5-1.8-0.3-2.7c0.4-1.7,1.7-3,3-3
							c0.2,0,0.3,0,0.5,0c0.7,0.2,1.3,0.7,1.7,1.4c0.1,0.1,0.1,0.3,0.2,0.4c0.2,0.7,0.3,1.5,0.1,2.3c-0.3,1.2-1,2.2-1.8,2.6
							c-0.5,0.3-1.1,0.4-1.7,0.3C304.8,169,304.2,168.5,303.8,167.7z"/>
					</g>
				</g>
				<g>
					<path fill="#FFFFFF" d="M300.2,185.5c0.1,0.7,0,1.5-0.4,2.3c-0.5,1.1-1.4,1.9-2.3,2.2l-0.1-0.6c0.2,0,0.5-0.1,0.5-0.3
						c0.1-0.7-0.2-1.4-0.4-2.1c0.6-0.3,1.3-0.7,1.9-1c0.2-0.1,0.3-0.3,0.2-0.5L300.2,185.5z"/>
					<path fill="#FFFFFF" d="M299.6,185.4c-0.1-0.3-0.4-0.5-0.7-0.3c-0.5,0.3-1,0.6-1.5,0.9c-0.1-0.6-0.1-1.2-0.4-1.6
						c-0.1-0.2-0.4-0.1-0.5,0c-0.3,0.6-0.2,1.4-0.1,2.2c-0.4,0.2-0.8,0.5-1.1,0.8c-0.2,0.2,0,0.5,0.2,0.5c0.4-0.1,0.7-0.2,1-0.4
						c0.1,0.6,0.3,1.3,0.7,1.8c0.1,0.1,0.1,0.1,0.2,0.1l0.1,0.6c-0.6,0.2-1.2,0.2-1.7-0.1c-0.7-0.3-1.1-0.9-1.4-1.7
						c-0.2-0.8-0.1-1.8,0.3-2.7c0.7-1.6,2.2-2.6,3.6-2.3c0.2,0,0.3,0.1,0.5,0.1c0.7,0.3,1.1,0.9,1.4,1.7c0,0.1,0.1,0.3,0.1,0.4
						L299.6,185.4z"/>
					<g>
						<path d="M297.2,189.3c0.1,0.1,0.1,0.1,0.2,0.1c0.2,0,0.5-0.1,0.5-0.3c0.1-0.7-0.2-1.4-0.4-2.1c0.6-0.3,1.3-0.7,1.9-1
							c0.2-0.1,0.3-0.3,0.2-0.5c-0.1-0.3-0.4-0.5-0.7-0.3c-0.5,0.3-1,0.6-1.5,0.9c-0.1-0.6-0.1-1.2-0.4-1.6c-0.1-0.2-0.4-0.1-0.5,0
							c-0.3,0.6-0.2,1.4-0.1,2.2c-0.4,0.2-0.8,0.5-1.1,0.8c-0.2,0.2,0,0.5,0.2,0.5c0.4-0.1,0.7-0.2,1-0.4
							C296.6,188.2,296.8,188.9,297.2,189.3z"/>
						<path d="M301.4,185.1c-0.3-1-0.9-1.8-1.7-2.2c-0.4-0.2-0.9-0.3-1.3-0.3c-1.5-0.2-3.3,0.8-4.1,2.6c-0.5,1-0.6,2.1-0.3,3.1
							c0.3,1,0.8,1.7,1.7,2.1c0.2,0.1,0.3,0.1,0.5,0.2c0,0,0,0,0.1,0c0.2,0.1,0.4,0.2,0.6,0.2c0.7,0.1,1.5,0,2.2-0.4
							c0.9-0.5,1.6-1.3,2.1-2.3C301.5,187.2,301.6,186.1,301.4,185.1z M294.5,188.2c-0.2-0.8-0.1-1.8,0.3-2.7
							c0.7-1.6,2.2-2.6,3.6-2.3c0.2,0,0.3,0.1,0.5,0.1c0.7,0.3,1.1,0.9,1.4,1.7c0,0.1,0.1,0.3,0.1,0.4c0.1,0.7,0,1.5-0.4,2.3
							c-0.5,1.1-1.4,1.9-2.3,2.2c-0.6,0.2-1.2,0.2-1.7-0.1C295.1,189.6,294.7,189,294.5,188.2z"/>
					</g>
				</g>
				<g>
					<path fill="#FFFFFF" d="M289.5,206.2c0,0.7-0.2,1.5-0.7,2.2c-0.6,1-1.6,1.7-2.6,1.9l0-0.6c0.2,0.1,0.5,0,0.6-0.3
						c0.2-0.7-0.1-1.4-0.2-2.1c0.7-0.3,1.4-0.5,2-0.8c0.2-0.1,0.3-0.3,0.3-0.4L289.5,206.2z"/>
					<path fill="#FFFFFF" d="M288.9,206.1c0-0.3-0.3-0.6-0.7-0.4c-0.6,0.2-1.1,0.5-1.6,0.7c0-0.6,0-1.2-0.2-1.6
						c-0.1-0.2-0.3-0.2-0.5,0c-0.4,0.5-0.4,1.4-0.4,2.1c-0.4,0.2-0.9,0.4-1.2,0.7c-0.2,0.2-0.1,0.5,0.2,0.5c0.4,0,0.7-0.1,1.1-0.3
						c0,0.7,0.1,1.4,0.5,1.9c0,0.1,0.1,0.1,0.2,0.1l0,0.6c-0.6,0.1-1.2,0-1.7-0.3c-0.6-0.4-1-1.1-1.1-1.9c-0.1-0.9,0.1-1.8,0.6-2.6
						c0.9-1.5,2.6-2.3,3.8-1.8c0.1,0.1,0.3,0.1,0.4,0.2c0.6,0.4,1,1.1,1.1,1.9c0,0.1,0,0.3,0,0.4L288.9,206.1z"/>
					<g>
						<path d="M286,209.6c0,0.1,0.1,0.1,0.2,0.1c0.2,0.1,0.5,0,0.6-0.3c0.2-0.7-0.1-1.4-0.2-2.1c0.7-0.3,1.4-0.5,2-0.8
							c0.2-0.1,0.3-0.3,0.3-0.4c0-0.3-0.3-0.6-0.7-0.4c-0.6,0.2-1.1,0.5-1.6,0.7c0-0.6,0-1.2-0.2-1.6c-0.1-0.2-0.3-0.2-0.5,0
							c-0.4,0.5-0.4,1.4-0.4,2.1c-0.4,0.2-0.9,0.4-1.2,0.7c-0.2,0.2-0.1,0.5,0.2,0.5c0.4,0,0.7-0.1,1.1-0.3
							C285.5,208.4,285.6,209.1,286,209.6z"/>
						<path d="M290.7,205.9c-0.1-1.1-0.6-1.9-1.4-2.4c-0.4-0.2-0.8-0.4-1.3-0.4c-1.5-0.4-3.3,0.4-4.4,2.1c-0.6,0.9-0.8,2-0.7,3
							c0.1,1,0.6,1.8,1.4,2.3c0.2,0.1,0.3,0.2,0.5,0.2c0,0,0,0,0.1,0c0.2,0.1,0.4,0.2,0.6,0.3c0.7,0.2,1.5,0.2,2.2-0.1
							c1-0.3,1.8-1.1,2.4-2C290.5,208,290.8,207,290.7,205.9z M283.4,208.1c-0.1-0.9,0.1-1.8,0.6-2.6c0.9-1.5,2.6-2.3,3.8-1.8
							c0.1,0.1,0.3,0.1,0.4,0.2c0.6,0.4,1,1.1,1.1,1.9c0,0.1,0,0.3,0,0.4c0,0.7-0.2,1.5-0.7,2.2c-0.6,1-1.6,1.7-2.6,1.9
							c-0.6,0.1-1.2,0-1.7-0.3C283.9,209.7,283.5,209,283.4,208.1z"/>
					</g>
				</g>
			</g>
		</g>
	</g>
	<g id="xmlid2_29_">
		<circle id="xmlid2_31_" cx="340.6" cy="78.4" r="3.9"/>
		<circle id="xmlid2_30_" fill="#FFFFFF" cx="339.9" cy="77.5" r="1.1"/>
	</g>
	<g>
		<path fill="#211516" stroke="#3E1919" stroke-width="1.2723" stroke-miterlimit="10" d="M311.9,129.2l28.6,0.5l15.3-8.9
			c0,0,1.5-6.6,1.4-6.9s-3.9-4.6-3.9-4.6l-9.4,4.5l-15.5,4.6l-12.6,0"/>
		<path fill="#9DA6A5" d="M344.8,113.8C344.8,113.8,344.8,113.9,344.8,113.8C344.8,113.9,344.8,113.9,344.8,113.8l-0.3,0v-1.9h0.5
			v3.6c0,2,2,3.7,4.4,3.7h0.6c2.4,0,4.4-1.7,4.4-3.7v0.5c0,2.3-2.1,4.2-4.7,4.2h-0.6c-2,0-3.8-1.2-4.4-2.8V113.8
			C344.8,113.8,344.8,113.8,344.8,113.8z"/>
		<path fill="#FFFFFF" d="M354.5,111.9C354.5,111.9,354.5,111.9,354.5,111.9C354.5,111.9,354.5,111.9,354.5,111.9l0,3.6
			c0,2-2,3.7-4.4,3.7h-0.6c-2.4,0-4.4-1.7-4.4-3.7v-3.6h3.9L354.5,111.9C354.5,111.9,354.5,111.9,354.5,111.9z"/>
		<path fill="#9DA6A5" d="M335.1,116.4C335.1,116.4,335.1,116.5,335.1,116.4C335.1,116.5,335.1,116.5,335.1,116.4l-0.3,0v-2.6h0.5
			v5.6c0,2,2,3.7,4.4,3.7h0.6c2.4,0,4.4-1.7,4.4-3.7v0.5c0,2.3-2.1,4.2-4.7,4.2h-0.6c-2,0-3.8-1.2-4.4-2.8V116.4
			C335.1,116.4,335.1,116.4,335.1,116.4z"/>
		<path fill="#FFFFFF" d="M344.8,117.4v2c0,2-2,3.7-4.4,3.7h-0.6c-2.4,0-4.4-1.7-4.4-3.7v-5.6h3.9h5.3v2.2
			C344.5,116.5,344.6,117,344.8,117.4z"/>
		<path fill="#FFFFFF" d="M344.8,113.9C344.8,113.9,344.8,113.8,344.8,113.9C344.8,113.8,344.8,113.8,344.8,113.9l0,3.5
			c-0.2-0.4-0.3-0.9-0.3-1.4v-2.2L344.8,113.9C344.8,113.9,344.8,113.9,344.8,113.9z"/>
		<path fill="#9DA6A5" d="M325.4,118.4C325.4,118.4,325.4,118.4,325.4,118.4C325.3,118.4,325.3,118.4,325.4,118.4l-0.3,0v-1.9h0.5
			v5.6c0,2,2,3.7,4.4,3.7h0.6c2.4,0,4.4-1.7,4.4-3.7v0.5c0,2.3-2.1,4.2-4.7,4.2h-0.6c-2.2,0-4-1.4-4.6-3.2c0.1-0.3,0.1-0.7,0.1-1
			V122V118.4C325.4,118.4,325.4,118.4,325.4,118.4z"/>
		<path fill="#FFFFFF" d="M335.1,121.3v0.8c0,2-2,3.7-4.4,3.7h-0.6c-2.4,0-4.4-1.7-4.4-3.7v-5.6h3.9h5.3v3.4
			C334.8,120.4,334.9,120.8,335.1,121.3z"/>
		<path fill="#FFFFFF" d="M335.1,116.5C335.1,116.5,335.1,116.4,335.1,116.5C335.1,116.4,335.1,116.4,335.1,116.5l0,4.8
			c-0.2-0.4-0.3-0.9-0.3-1.4v-3.4L335.1,116.5C335.1,116.5,335.1,116.5,335.1,116.5z"/>
		<path fill="#9DA6A5" d="M325.4,122v0.5c0,0.3,0,0.7-0.1,1c0-0.1-0.1-0.2-0.1-0.4C325.3,122.8,325.4,122.4,325.4,122z"/>
		<path fill="#FFFFFF" d="M325.3,118.4C325.4,118.4,325.4,118.4,325.3,118.4C325.4,118.4,325.4,118.4,325.3,118.4l0,3.6
			c0,0.4-0.1,0.8-0.2,1.1c0-0.2-0.1-0.4-0.1-0.7v-4.1L325.3,118.4C325.3,118.4,325.3,118.4,325.3,118.4z"/>
		<path fill="#9DA6A5" d="M325.2,123.2c0,0.1,0,0.2,0.1,0.4c-0.5,1.8-2.4,3.2-4.6,3.2h-0.6c-2.6,0-4.7-1.9-4.7-4.2v-4.1h0.5v3.6
			c0,2,2,3.7,4.4,3.7h0.6C322.9,125.8,324.6,124.7,325.2,123.2z"/>
		<path fill="#FFFFFF" d="M325.1,122.5c0,0.2,0,0.4,0.1,0.7c-0.6,1.5-2.3,2.6-4.2,2.6h-0.6c-2.4,0-4.4-1.7-4.4-3.7v-3.6h3.9h5.3
			V122.5z"/>
		<path fill="#D4623F" stroke="#A6272B" stroke-width="1.909" stroke-miterlimit="10" d="M356.8,108.1c-3.4-2.7-8.7-2.2-12.4,1.2
			c-10.3,8-21.1,7.1-32,5.3c-0.9,0.2-2,0.9-2.5,2.6c-0.5,2,0.5,3.3,1.4,3.5c12.3,2,25.6,2.3,37-6.6l0.2-0.2c1.4-1.3,3.8-1.3,4.4-1
			c0.6,0.2,1.6,0.4,2.2,2.4c0,0.9-0.4,2.2-1.7,3.4c-12.9,10.4-29.2,11-43.4,8.5l0,0c0,0-2.8-0.6-3.4,2.1c-0.4,1.9-0.1,3.4,1.8,3.9
			c3.8,0.7,7.6,1,11.4,1c12.1,0,26.9-2.1,37.6-10.8l0.2-0.1c2.4-2.3,3.7-5.4,3.7-8.3C361.3,111.1,356.8,108.1,356.8,108.1z"/>
		<path fill="#A6272B" d="M356.8,108.1c-3.4-2.7-8.7-2.2-12.4,1.2c-10.3,8-21.1,7.1-32,5.3c-0.9,0.2-2,0.9-2.5,2.6
			c-0.5,2,0.5,3.3,1.4,3.5c12.3,2,25.6,2.3,37-6.6l0.2-0.2c1.4-1.3,3.8-1.3,4.4-1c0.6,0.2,1.6,0.4,2.2,2.4c0,0.9-0.4,2.2-1.7,3.4
			c-12.9,10.4-29.2,11-43.4,8.5l0,0c0,0-2.8-0.6-3.4,2.1c-0.4,1.9-0.1,3.4,1.8,3.9c3.8,0.7,7.6,1,11.4,1c12.1,0,26.9-2.1,37.6-10.8
			l0.2-0.1c2.4-2.3,3.7-5.4,3.7-8.3C361.3,111.1,356.8,108.1,356.8,108.1z"/>
		<path fill="#D4623F" d="M356.8,107.7c-3.4-2.7-8.7-2.2-12.4,1.2c-10.3,8-21.1,7.1-32,5.3c-0.9,0.2-2,0.9-2.5,2.6
			c-0.5,2,0.5,3.3,1.4,3.5c12.3,2,25.6,2.3,37-6.6l0.2-0.2c1.4-1.3,3.8-1.3,4.4-1c0.6,0.2,1.6,0.4,2.2,2.4c0,0.9-0.4,2.2-1.7,3.4
			c-12.9,10.4-29.2,11-43.4,8.5l0,0c0,0-2.8-0.6-3.4,2.1c-0.4,1.9-0.1,3.4,1.8,3.9c3.8,0.7,7.6,1,11.4,1c12.1,0,26.9-2.1,37.6-10.8
			l0.2-0.1c2.4-2.3,3.7-5.4,3.7-8.3C361.3,110.6,356.8,107.7,356.8,107.7z"/>
	</g>
	<g>
		<g>
			<path fill="#6B6263" d="M306.9,102.4c-0.8-1.3-1.6-2.7-2.3-4c-1.3-2.2-4.7-0.2-3.4,2c0.8,1.3,1.6,2.7,2.3,4
				C304.8,106.6,308.2,104.6,306.9,102.4L306.9,102.4z"/>
		</g>
	</g>
	<g>
		<g>
			<path d="M305.1,95.4c-1.4,2-1.9,5.8,0.5,7.3c1.3,0.7,2.8,0.6,4.2,0.6c1.8,0,3.9,0.6,5.6-0.1c0.1-0.1,0.1-0.3,0-0.3
				c-1.9-1.1-4.8-0.6-6.9-0.9c-0.6-0.1-1.6-0.2-2.1-0.6c-1-0.9-1-2.1-0.7-3.2c0.3-1,0.4-1.6,0.2-2.6C305.9,95,305.3,95.1,305.1,95.4
				L305.1,95.4z"/>
		</g>
	</g>
</g>
</svg>
