<?xml version="1.0" encoding="utf-8"?>
<!-- Generator: Adobe Illustrator 21.1.0, SVG Export Plug-In . SVG Version: 6.00 Build 0)  -->
<svg version="1.1" id="Layer_1" xmlns="http://www.w3.org/2000/svg" xmlns:xlink="http://www.w3.org/1999/xlink" x="0px" y="0px"
	 viewBox="0 0 1188.2 699.9" style="enable-background:new 0 0 1188.2 699.9;" xml:space="preserve">
<path id="mountain" d="M1080.9,0l-99.1,133.8L748.7,327.9l-64.9-19.2l-58.6,66.9c0.3-1,0.5-2.4-0.1-3.9c-1.1-2.8-5.1-0.6-7.2,0.6
	c-2.1,1.1-3.7,0-3.4-2.1s6.1-5.7,5.4-6.8c-0.7-1.1-3.6,1.4-3.6,1.4l2-4.2h-0.6c2.1-8,8.4-31.7,8.8-32.4c2.5-5.2-1.6-6.4-1.6-6.4
	l-36.1-11.9v-0.6l0.7-31.5c50.9-17.7,55.4,3.4,55.4,3.4c-1.8,1.6-3.7,5.5-3.7,5.5l1.8,1.5l4-2.5l4.4,2.4l0,0
	c3.1,2.4,4.4,4.8,4.4,4.8c2.1,0.8,3.8-1.3,3.8-1.3c-0.1-1.7-1.4-3.3-2.2-4.2c0.6-0.2,1.1-0.4,1.6-0.7c2.3,1.4,4.8,3,4.8,3
	c2.1-0.5,2.5-1.6,2.5-1.6c-0.8-1.3-2.7-2.6-3.8-3.2c0.3-0.2,0.7-0.4,1-0.6c0,0,2.7,1.5,4.6,2.3c0,0,1.7-1.3,1.6-1.9
	c0,0-1.5-1.7-3-2.6c0.2-0.2,0.5-0.4,0.7-0.6c1.5,0.5,3.3,0.8,3.3,0.8c1.1-0.8,1.8-2.1,1.8-2.1l-2.7-1.1l-3.4-1.1
	c-5.9-1.4-12.9,0-12.9,0s-3-9-16.2-14.9c-13.6-6-39.2-0.7-47.3,1.3l0.1-6.6c0.1-2.1,1.1-2.3,1.1-2.3s3.7-1.7,5.3-2.4
	s1.3-1.9,1.3-1.9c-0.5-8.9-3.1-22-5.6-33c6.2-4.1,3.5-10.2,3.5-10.2l-0.9-1.5l-5.1,1.5l0,0c-1.5-6.1-2.7-10.2-2.7-10.2
	s6.5-3.2,6.2-9.2s-6.3-7-6.3-7s1.2,1.2,0.4,4.3c-0.8,3-5.4,2.4-5.7,2.4c0.2,0,0.9-0.1,0.9-3.9c0-4.2-4.2-5.1-4.2-5.1
	c2.3,6.5-5,7-5,7s0.9-0.6,0.4-4.2c-0.5-3.5-5-2.7-5-2.7s1.8,0.1,1.8,3.8c0.1,3.8-6.2,4.5-6.2,4.5s0.4-0.6,0-4
	c-0.4-3.5-6.3-2.9-6.3-2.9c1.6,0.4,3.2,1.5,3,4.3s-4.3,4.2-4.3,4.2s1.5-1.8-1-4.3s-7.6,0.6-7.6,0.6s2.4-0.8,3.8,1.8
	c1.4,2.6-1.8,3.8-1.8,3.8s-10.5,3.7-18.4,10.7s-4.2,13.4-4.2,13.4s15.3,41.2,16.6,43.8c1.3,2.7,1.1,3.6,1.1,3.6l-0.7,13.6
	c-11.2,2.4-32.7,10.5-49.8,37.8c-0.2,0.4-0.5,0.7-0.7,1.1c-0.9,0-1.5,0.2-1.5,0.2s-4.9-3.1-6,4.3c0,0-5.2,0.6-7.6,6.1
	c-0.7,0.1-1.7,0.5-2.3,1.8c-0.8,1.8-0.3,4.4,0,5.5c-15.4,9.7-34,8.8-53.6,0.7l-4.7-30.2c0-0.4,3.6-2.8,4.8-4.3c0,0,1-0.7,0.5-1.6
	s-7.9-8.2-7.9-8.2s-1.2-11-6.7-16.5c0,0,14.7-9.1-5.9-20c0,0,3.9,5.5-0.4,8c0,0-0.5-8.4-7.9-8.7c0,0,4,4.1-0.5,8
	c0,0,1.2-5.2-3.8-6.1c0,0,3.1,3.8,0.8,6.5c0,0-2.1-5.6-11.6-4.2c0,0,0.1,0,0.4,0c1,0.2,3.8,0.9,3.6,3.9c-0.3,3.7-2.6,6.8-9.1,7.9
	s-16.5,4.8-17.9,13.6c-0.6,3.9,6,34.7,13.5,67.7c-12,3.4-28.8,11.7-43.7,31.9c-0.3,0.4-0.5,0.7-0.8,1c-0.9,0-1.6,0.1-1.6,0.1
	s-4.6-3.5-6.3,3.8c0,0-5.3,0.2-8,5.5c-0.8,0-1.7,0.4-2.4,1.6c-0.9,1.7-0.6,4.5-0.4,5.6c-15.6,7.9-33,3.9-52.5-6.7
	c-6.5-3.6-11.8-4-16-2.6l-0.1-0.1l-13,5.8l-1.3-2.1c8.5-4.6,8.6-5,10.5-8.6c0,0,4.7-19.8-14-37.3c-1.3-1.2-2.7-2.2-4.1-3
	c0.1-0.1,0.2-0.2,0.4-0.3c10.9-10.3,19.2,4,21.2,10c1.9,5.9,10,5.5,10,5.5c-6.8-1.1-8.7-7.5-8.7-7.5s4.7,5.9,19.6,5.1
	s21.3-13.7,19.5-16.7c-1.6-2.6-4.5-2.4-5.3-2.3c2-0.2,7.8,4.2-1.5,7.3c-9.5,3.2-26.3-16.3-26.3-16.3c5.5,1.4,6.4-1.9,6.4-1.9
	c-6.5,1.3-13.4-12.9-29.4-5.9s-10.8,21-10.8,21l-0.1,0.1c-19-5-43.7,15.6-37,27.4c0,0,0.8,1.4,2.1,1.8c0,0-0.5-3.5,3-3.5
	c0,0,0.3,3.8,0.9,7c0.1,0.4,0.2,0.9,0.3,1.6c-0.5,1.5-1.6,4.2-3.6,6.5c0,0-1.5,1.3,0,1.8c1.3,0.5,3.3,1.3,6.3,1.5
	c0.6,1.8,1.3,3.8,2.1,5.7c2-0.3,8.7-1.4,15.6-4.5c0,0,0.7,4.7-5.6,7.3c-3.4,1.4-6.1,1.8-7.8,1.9c1.1,2.1,2.3,4.2,3.6,6.1
	c0,0,0.6,2,3.8,1.7c1.8-0.2,6.7-1.5,12.5-3.7l1.1,1.8l-7.9,3.5c-9.5,3.8-32.5,16.3-44.3,50.7c0,0.1-0.1,0.3-0.2,0.4
	c-1.4-0.2-4.7-0.2-4.2,5.7c0,0-5,1.8-6,7.7c-0.7,0.3-1.5,0.9-1.8,2.3s0.3,3.2,0.8,4.4c-13.2,15.4-33,19.7-55.9,16.3l-4.5-21.4
	c-3,1.4-7.1,2.8-8.8,0.4c-2.8-4,8-4.6,8-4.6l-1.2-5.5c0-0.4,3.6-2.8,4.8-4.3c0,0,1-0.7,0.5-1.6s-7.9-8.2-7.9-8.2s-1.2-11-6.7-16.5
	c0,0,6.2-11.2-8.6-13.5c0,0-35.7,6.5-35.5,6.5c1,0.2,1,4.6-2,5.7c-1.7,0.6-4.8,1.5-6.2,10.3c-0.6,3.8,5.8,32.1,13.4,63.2
	c-9.5,2.5-22.1,8-34.6,20.3v17.6c16.9-16.3,20.6-23.3,37.4-26.3c9.3,37.8,19.1,75.6,19.1,75.6l2.8,8.6l1.9,7.1c0,0-3.3,0.5-5.3,3
	c-1.3,1.7-8.3,11.3-13,17.4l-1.4-0.3c-0.4,1.2-0.6,1.9-0.6,1.9s-4.2,1.4-5.2,6l-1.2,1.4l5,4.3l1.3-1.4c0,0,0.2,3.1,1.3,4.5
	c1.1,1.5,3.6,3.8,3.9,3.8c0.1,0,1.6,0.4,3.2,0.7L10.5,672L0,673.3v26.6l1188.2,0V147.8L1080.9,0z M593.9,209.1
	c0.9,3-0.8,5.3-2.4,6.7c-0.4-1.8-0.8-3.6-1.3-5.2L593.9,209.1z M54.9,645.5c0.3-0.7,0.4-1.7-0.5-2.7c-1.8-2.2-4.7-2.8-4.7-2.8
	l-0.9-4.7c0,0,2.3,0.6,2.9-1.3c0.6-1.9-1.5-3.3-1.5-3.3l0.6-0.9l-0.5-0.1l22.9-20.1c0.8-0.1,1.8-0.6,2.4-2.1c0.9-2.2,0.4-2.9,0-3.2
	c0-0.5,0-1.1,0.1-1.8c0.5-9.2-1.4-32.1-1.4-32.1l20.9-9l9.9,0.7l9.5,0.4c0,0-2.5,2.1-3.1,5.7c-0.6,3.6-2.4,23.5-2.4,23.5
	s-3.7,2.3-3.6,7.1l-0.8,1.7l5.9,3.1l1-1.7c0,0,0.9,2.9,2.3,4.1c0.9,0.8,2.6,1.8,3.6,2.3L54.9,645.5z M192.8,565l-36.2,44.5
	l-16.2-15.2l-14.1,8.5c-0.1-0.5-0.4-1-1-1.4c-2.3-1.7-5.2-1.6-5.2-1.6l-2-4.4c0,0,2.4,0.1,2.5-1.9c0.2-2-2.3-2.8-2.3-2.8l10.3-31.2
	c0,0,1.8-3.3,0.9-4.8c-2.1-3.2-3.8-2.5-3.8-2.5s-12.1-7.2-25.8-8.4l-7.4-35.5c9.7,1.4,40.7,3.4,61.2-23.9c4,0.8,8.4-1.6,9.3-7.5
	c0,0,9.1-7.3,4.9-15c-0.2-0.3-0.4-0.6-0.6-0.9c13.1-25.2,14-31.9,36.1-41.7l20.8,41.3c0,0-12.2,39.8-12.7,42.4
	c0,0.1-0.1,0.2-0.1,0.2c-6.5,6.4-8.2,25.1-10.4,36.1c-0.2,0.8-1,1.4-1.8,1.3l-0.9-0.1c-0.5,0-0.9,0.3-0.8,0.8l0.4,5.8
	c0,0.3-0.1,0.5-0.2,0.7c-1.5,2.5-1.9,7.2-2.1,9.5c0,0.7,0.5,1.2,1.1,1.3l4,0.4c0.5,0,1-0.3,1.3-0.7l0,0c0.3-0.7,1.1-1,1.7-0.6
	c0.6,0.4,1.4,0.5,2.2,0.6L192.8,565z M286.4,501.1c-2.7,2.9-3.1,10.8-3.1,10.8l5.4-0.3l-9.6,1.2l-28.4,60l-22.4-26.4l-11.7,6.1
	c0.4-1,0.8-3-0.2-5c-1.4-2.8-5-0.1-7,1.3c-2,1.4-3.6,0.4-3.5-1.8s5.4-6.4,4.5-7.4c-0.3-0.4-0.8-0.3-1.3,0c-0.6,0.4-1.3-0.2-1.1-0.9
	l12.1-34.9c0-0.1,0.1-0.1,0.1-0.2c0.5-0.5,2.9-2.7,2.8-3.4c-0.1-0.6-0.4-1.1-0.7-1.4c-0.1-0.1-0.1-0.3-0.1-0.5l6.6-13.9
	c3.3,0.1,3.7-2,3.7-2l5.6-14.1l17.7-9.2l13.4,2.4c0,0,1.7,1.7,4.4-1.5l17.3,2.3c-5.1,6.9-1.9,31.7-1.9,31.7l-3.8,0.6L286.4,501.1z
	 M289.7,511.5l0.8-2c0.6,0.8,2,1.2,3.7,1.4L289.7,511.5z M363.3,462.2c0,0-2.9,2.8-4.3,6.7c-1.4,3.8-1.8,7.7-0.4,8.4
	c0,0,2.3,1.2,4.6,0.3l-45,30.2l-13.6,1.8c0.6-0.6,1.2-1.5,1.3-2.7c0.5-3.9-3.4-3.1-3.4-3.1s-6.6,1-7.2-2.9c-0.4-2.6,0.1-6.7,0.1-6.7
	s5.1-35.6,5.6-36.5c2-4.2-1.7-4.4-1.7-4.4l-33.1-9.5l-3.8-1.5l-17.4-38c1.7-0.2,3.2-0.1,4.6,0.5c8.6,3.9,35.7,19,63.6,2.5
	c3.5,1.6,8.1,0.5,10.6-4.5c0,0,10-3.8,9.4-11.8c19.6-18.3,22.9-26.1,39.8-29.6c8.6,37.3,17.4,73.6,17.4,73.6l4.3-2v9.1
	c0,0-0.3-1.6-3.1,0c-2.8,1.6-17.3,14.5-17.3,14.5s-2.7-3-8.1-1.8l-1.8-0.7l-2.5,7.8L363.3,462.2z M413.1,444.1l-48.6,32.6
	c0.3-0.3,0.6-0.7,0.9-1.1c2.5-4,5.6-9.9,7-10.6c0,0,3.7,1.6,4.5-1.8l30.8-15.5c0,0,2.3-1.6,2.1-4.5c-0.2-2.9,0-32.2,0-32.2l33.3-4.5
	v-4l8.5-0.6c0,0-1.7,2.8-1.1,6.4s5.3,23,5.3,23s-2.8,3.4-1.1,7.9l-0.2,1.8l6.5,1l0.4-1.9c0,0,1.2,1.6,2.6,2.6L413.1,444.1z
	 M514.7,392.7l-2.2,9.1l-2.5,1.6c-1.8-3.1-4.2-3.3-4.2-3.3c-5.8-1.3-7.5,5-7.9,8.2l-3.2-0.5l-17.6,34.5l-1.9,0.1
	c1.1-0.6,2-1.3,1.9-2c-0.4-1.8-0.8-1.3-0.8-1.3s1-2.9-1.7-3.8s-5.5,0.1-5.5,0.1l-3.3-3.5c0,0,2.3-0.7,1.8-2.6s-3.1-1.9-3.1-1.9
	l-0.4-32.8c0,0,3.1-4-0.2-5.9c-3.3-1.8-4.9-0.1-4.9-0.1s-13.8-2.9-27.1,0.4l-6.2-39.9c10.5,3.7,35.6,9.6,58.5-8.4
	c3.6,1,7.7-0.6,9.7-5.5c0,0,10.2-4.9,8.3-13.1c18.8-21.8,21.1-28.8,41.9-33.2l-1.8,35.8c0,0-13.5,37.5-13.5,38.1
	c-2.9,4.7-9.8,22.7-13.1,31.3L514.7,392.7z M559.3,450.8l-25.6-36.7l-14.8-2.4c3.3-6.2,1.6-7.8,1.6-7.8l4-7.2l-0.5-0.2l0,0
	l17.8-36.2l17.3-27.1l23.6-8.9l30.6,8.8c-2.8,3.9-4.3,22.8-4.7,27.9c-0.5,1.3-0.8,2-0.8,2l-1.6-0.3l-0.3,6.9
	c-2.6,2.8-3.6,10.5-3.6,10.5l6.1,1.2l1.4-2.4c0.4,2.8,7.8,2.4,7.8,2.4l5-3.2L559.3,450.8z"/>
</svg>
