<svg version="1.1" xmlns="http://www.w3.org/2000/svg" xmlns:xlink="http://www.w3.org/1999/xlink" x="0px" y="0px"
	 viewBox="0 0 303.6 254.5" enable-background="new 0 0 303.6 254.5" xml:space="preserve">
<g id="picnic-dude">
	<defs>
		<rect id="PDSVGID_1_" x="-2.8" y="-0.5" width="306.6" height="253.8"/>
	</defs>
	<clipPath id="PDSVGID_2_">
		<use xlink:href="#PDSVGID_1_"  overflow="visible"/>
	</clipPath>
	<g id="man" clip-path="url(#PDSVGID_2_)">
		<path opacity="0.6" fill="#2D4C34" d="M320,38.8c-0.6,0.5-1.1,1-1.6,1.5c0-0.9,0-1.9,0-2.8c0.7-0.7,1.2-1.5,1.7-2.4
			c0.3-0.4-0.2-0.8-0.6-0.6c-0.4,0.2-0.8,0.4-1.1,0.6c0-2-0.1-4.1-0.1-6.1c0-1.1,0-2.1-0.1-3.2c0-1.1,0-2.2-0.1-3.3
			c-0.1-6.3-0.2-12.5-0.4-18.8c0-1.3,0-2.7,0-4c0-0.9,0-1.8,0-2.7c-0.6-0.1-1.2-0.2-1.8-0.3c-36.9-5.4-74.5-4.6-111.7-4
			c-9.8,0.2-19.7,0.3-29.5,0.5c-0.4-1-0.9-2-1.3-2.9c-0.1-0.2-0.4-0.1-0.4,0.1c0,1,0.1,1.9,0.3,2.9C139.4-6,105.7-5.5,71.9-4.9
			c-2.5,0-5,0.1-7.4,0.1c-0.3-1.4-0.6-2.7-1-4.1c-0.1-0.3-0.6-0.2-0.5,0.1c0.2,1.3,0.4,2.6,0.6,4c-9.5,0.2-17.2,0.3-26.7,0.5
			C30.1-4.1,26.3-4.2,19.6-4c-0.2-1.4-0.4-2.9-0.6-4.3c-0.1-0.5-0.8-0.5-0.7,0c0,1.4,0.1,2.9,0.2,4.3c-0.8,0-1.6,0-2.3,0.1
			c-1.6-1.8-3.2-3.5-4.9-5.2c-0.5-0.5-1.2,0.2-0.8,0.8c1.2,1.5,2.5,3,3.7,4.5c0.7,0.8,1.3,1.6,1.9,2.4C17-0.3,17.9,0.8,18.8,2
			c1,13.3,2.5,26.8,5.3,39.8c3.4,15.6,8.6,30.6,17.2,44c7.8,12.1,16,23,27.8,31.2c6.3,4.4,13,8,20,11c0.3,0.5,0.6,1.1,0.9,1.6
			c5.1,9.6,10,19.5,15.4,29.1c-1.2,0.3-2.5,0.9-3.6,1.9c-2.5,2.3-3.6,5.9-5.1,9.1c-0.1-0.1-0.2-0.1-0.3-0.2
			c-0.2-0.2-0.4-0.3-0.7-0.4c-0.2,0.2-0.5,0.4-0.7,0.7c-0.1,0.1-0.2,0.2-0.3,0.4c-0.3,0.4-0.6,0.8-0.9,1.1c-0.2,0.3-0.5,0.7-0.8,1.2
			c-0.2,0.3-0.4,0.7-0.6,1.1c0.3,0.2,0.6,0.5,0.9,0.7c0.1,0.1,0.3,0.2,0.4,0.3c-1,1.4-2.2,2.6-3.3,3.9c-0.1-0.1-0.2-0.2-0.4-0.3
			c-0.2-0.2-0.4-0.4-0.7-0.6c-0.4,0.2-0.7,0.4-1,0.7c-0.6,0.4-1.1,1-1.5,1.4c-0.2,0.2-0.4,0.5-0.7,0.8c-0.3,0.3-0.5,0.7-0.7,1.1
			c0.3,0.3,0.6,0.5,1,0.8c0,0,0.1,0.1,0.1,0.1c-0.1,0.1-0.2,0.2-0.3,0.3c-0.3,0.3-0.6,0.6-0.9,0.8c-0.5,0.5-1.1,1-1.6,1.5
			c-0.4,0.4-0.9,0.8-1.3,1.2c-0.1-0.1-0.2-0.2-0.3-0.3c-0.3-0.2-0.5-0.4-0.8-0.7c-0.4,0.2-0.8,0.4-1.2,0.6c-0.7,0.4-1.4,1-2,1.7
			c-0.3,0.3-0.6,0.6-0.8,0.9c0.3,0.3,0.6,0.6,0.9,0.8c0.1,0.1,0.3,0.2,0.4,0.4c-0.8,0.7-1.7,1.4-2.6,2.1c-0.1-0.1-0.2-0.2-0.3-0.2
			c-0.3-0.2-0.6-0.4-0.9-0.7c-0.3,0.1-0.6,0.3-0.9,0.4c-0.9,0.4-1.6,1-2.3,1.7c-0.3,0.3-0.5,0.6-0.8,0.9c0.3,0.3,0.5,0.7,0.8,1
			c0,0,0.1,0.1,0.1,0.1c-0.9,0.7-1.9,1.4-2.8,2.1c-0.1-0.1-0.2-0.2-0.3-0.2c-0.3-0.3-0.7-0.6-1-0.8c-0.5,0.2-1,0.5-1.4,0.7
			c-0.1,0.1-0.2,0.1-0.3,0.2c-0.4,0.2-0.9,0.6-1.4,0.9c-0.3,0.3-0.7,0.5-1,0.8c0.3,0.3,0.6,0.7,0.9,1c0.1,0.1,0.2,0.2,0.2,0.3
			c-1.2,0.8-2.4,1.5-3.6,2.3c-0.1-0.1-0.2-0.2-0.2-0.3c-0.2-0.3-0.5-0.6-0.7-0.9c-0.4,0-0.8,0.1-1.2,0.2c-0.9,0.2-1.7,0.7-2.5,1.2
			c-0.4,0.3-0.7,0.6-1,0.9c0.2,0.4,0.5,0.8,0.8,1.3c0.1,0.1,0.2,0.2,0.2,0.4c-0.3,0.2-0.6,0.3-0.8,0.4c-0.5,0.3-1.1,0.5-1.6,0.8
			c-0.4,0.2-0.8,0.4-1.2,0.6c-3.9,1.9-8,3.6-12.2,5c-5.2,1.7-10.7,2.4-15.8,4.2c-6.6,2.3-8.9,8.1-8.6,14.1c-0.1,0.2-0.1,0.4,0,0.6
			c0,0,0,0.1,0,0.1c0,0.3,0,0.6,0.1,0.9c0,0-0.1,0.1-0.1,0.2c-0.1,0.2-0.1,0.4-0.2,0.7c-0.5,1.9-0.3,4.2,0.2,6.3
			c0.3,1.6,0.8,3.1,1.2,4.4c0.5,1.6,1.1,3.2,1.8,4.8c0.6,0.4,1.2,0.8,1.8,1.2c0.3,0.2,0.6,0.3,0.9,0.4c6,2.8,13.4,1.5,19.7,1.1
			c28-1.7,55.9-4.9,83.6-9.6c13.9-2.4,27.8-5.1,41.6-8.4c5-1.2,14.1-2.1,18.1-6.4c0.6-0.7,1.1-1.4,1.5-2.3c0-1.1-0.2-2.2-0.3-3.3
			c-0.1-0.9-0.2-1.7-0.4-2.5c-0.4-2.4-0.9-4.8-1.8-7.1c-0.1-0.2-0.2-0.4-0.3-0.6c-0.1-0.3-0.3-0.6-0.4-0.9c-0.2-0.3-0.3-0.6-0.5-0.9
			c-0.6-3.9-1.3-7.8-2.2-11.6c-1.1-5-2.3-10.4-3.8-15.5c-0.1-0.2-0.1-0.4-0.2-0.6c-0.2-0.7-0.5-1.5-0.7-2.2
			c-0.1-0.2-0.1-0.4-0.2-0.6c-0.5-1.4-1-2.8-1.6-4.1c0,0,0,0,0,0c-0.6-1.8-1.2-3.5-2-5.2c-2.4-4.9-6.4-5.3-10.5-3.5
			c-0.3-1.4-0.6-2.8-0.9-4.2c-0.3-1.7-0.7-3.3-1-5c0.5-0.1,1-0.1,1.5-0.2c-0.1-0.6-0.2-1.2-0.4-1.7c-0.6-3-1.3-5.9-2-8.9
			c-0.2-0.8-0.4-1.7-0.6-2.5c0.4,0,0.8,0,1.3,0c0,0,0,0,0.1,0c5.1,0.5,10.1,1,15.2,1.4c12.6,1,25.3,1.7,37.9,2.4
			c15.3,0.9,30.8,1.5,46-0.8c14.4-2.2,28-7.6,39.3-16.9c7.5-6.2,13.8-13.9,19-22.2c0.9-1.4,1.7-2.8,2.5-4.2c0-1.3,0-2.6,0-3.9
			c0-0.2,0-0.4,0-0.6c-0.2-12.6-0.3-25.1-0.5-37.7c-0.1-5.7-0.2-11.5-0.3-17.2c0.8-1.2,1.6-2.4,2.2-3.7
			C320.8,38.9,320.4,38.5,320,38.8z M18.2-1.5c0.1,0,0.2,0,0.3,0c0,0.1,0,0.3,0,0.4C18.5-1.2,18.4-1.3,18.2-1.5z M73.9,224.6
			c-2,0.3-4-1.1-4.3-3.1c-0.1-0.4-0.1-0.9,0-1.3c0.2,0.1,0.3,0.3,0.5,0.4c0,0.3,0,0.5,0,0.8c0.3,1.7,1.9,3,3.7,2.7
			c1.7-0.3,2.9-1.9,2.7-3.7c-0.2-1.5-1.5-2.6-3-2.7c-0.2-0.2-0.3-0.4-0.5-0.5c2-0.2,3.7,1.2,4,3.2C77.4,222.4,75.9,224.3,73.9,224.6
			z M84.7,218.5c-2,0.3-4-1.1-4.3-3.1c-0.1-0.6,0-1.2,0.1-1.7c0.2,0.1,0.3,0.2,0.5,0.3c-0.1,0.4-0.1,0.8-0.1,1.3
			c0.3,1.7,1.9,3,3.7,2.7c1.7-0.3,2.9-1.9,2.7-3.7c-0.2-1.6-1.7-2.8-3.3-2.7c-0.2-0.2-0.3-0.3-0.5-0.5c0,0,0,0,0,0
			c2-0.3,4,1.1,4.3,3.1C88.2,216.3,86.7,218.2,84.7,218.5z M182.3,212.7c-0.1,0.1-0.1,0.1-0.2,0.2c-0.1-1-0.2-2-0.3-3
			C182,210.8,182.1,211.7,182.3,212.7z M94,212.3c-2,0.3-4-1.1-4.3-3.1c0-0.2,0-0.3,0-0.5c0.2,0.1,0.4,0.2,0.6,0.3c0,0,0,0.1,0,0.1
			c0.3,1.7,1.9,2.9,3.7,2.7c1.7-0.3,3-1.9,2.7-3.7c-0.3-1.7-1.9-3-3.7-2.7c-0.1,0-0.2,0-0.3,0.1c-0.2-0.1-0.3-0.3-0.5-0.4
			c0.2-0.1,0.5-0.2,0.7-0.2c2.1-0.3,4,1.1,4.3,3.1C97.5,210.1,96.1,212,94,212.3z M102.5,205.2c-2,0.3-3.9-1-4.3-3
			c0.2,0.1,0.4,0.2,0.6,0.3c0.5,1.5,2,2.4,3.5,2.2c1.8-0.3,3-1.9,2.7-3.7c-0.3-1.7-1.9-3-3.7-2.7c-0.2,0-0.3,0.1-0.5,0.1
			c-0.2-0.1-0.4-0.2-0.6-0.3c0.3-0.1,0.6-0.3,1-0.3c2.1-0.3,4,1.1,4.3,3.1C106,202.9,104.6,204.9,102.5,205.2z M110.9,196.8
			c-2.1,0.3-4-1.1-4.3-3.1c0,0,0-0.1,0-0.1c0.2,0.1,0.4,0.1,0.6,0.2c0.3,1.7,1.9,2.8,3.6,2.5c1.7-0.3,2.9-1.9,2.7-3.7
			c-0.3-1.7-1.9-2.9-3.7-2.7c-0.4,0.1-0.7,0.2-1,0.3c-0.2-0.1-0.4-0.2-0.6-0.3c0.5-0.3,1-0.5,1.6-0.6c2-0.3,4,1.1,4.3,3.1
			C114.3,194.6,112.9,196.5,110.9,196.8z M117.1,187.5c-2,0.3-3.9-1-4.3-3c0.2,0.1,0.4,0.1,0.6,0.1c0.4,1.6,2,2.6,3.6,2.3
			c1.7-0.3,3-1.9,2.7-3.7c-0.3-1.8-1.9-3-3.7-2.7c-0.1,0-0.2,0-0.3,0.1c-0.3-0.1-0.5-0.2-0.8-0.3c0.3-0.1,0.6-0.3,1-0.3
			c2.1-0.3,4,1.1,4.3,3.1C120.6,185.2,119.2,187.2,117.1,187.5z M169.7,95.4c-4.9-0.1-9.9-0.4-14.8-0.7c-0.3-3.1-0.7-5-1.1-6.2
			c-0.3-0.8-0.7-1.2-1-1.5c0,0,0,0,0,0c-0.1-0.1-0.2-0.3-0.3-0.4c-3.2-1.1-6.9-1.5-10-1.8c-0.6-0.1-1.1-0.1-1.7-0.2
			c-2.5-6.7-5.1-13.4-7.8-20c5.9,2.5,12,4.8,18,6.9c6.2,2.2,12.5,4.1,18.8,5.8c2,0.5,4,1.1,6.1,1.6
			C173.6,84.3,171.2,89.8,169.7,95.4z"/>
		<g id="PDXMLID_27_">
			<path fill="#272525" d="M305.7,89.7c0,1.4,0,2.7,0,4.1c-5.1,8.3-11.4,15.9-19,22.2c-11.3,9.3-24.9,14.7-39.3,16.9
				c-15.2,2.4-30.7,1.7-46,0.8c-12.6-0.7-25.3-1.4-37.9-2.4v0c2.1,0.2,4.3,0.3,6.3,0.1c0.5,0,0.6-0.7,0.1-0.9
				c-0.8-0.2-1.5-0.4-2.3-0.6c12.2,0.6,24.3,1.4,36.5,2.1c29.8,1.6,61.8,1,84.9-20.7C295.9,104.8,301.3,97.5,305.7,89.7z"/>
			<path fill="#DD882F" d="M305.7,85.6c0,1.4,0,2.7,0,4.1c-4.4,7.8-9.8,15.1-16.6,21.5c-23,21.7-55.1,22.3-84.9,20.7
				c-12.2-0.6-24.3-1.5-36.5-2.1c-3.5-0.7-7.3-0.7-10.8-1c-2.1-0.2-4.3-0.4-6.4-0.5c-1.3-0.3-2.7-0.6-4-0.8
				c-0.6-0.1-1.2-0.2-1.9-0.3c-1.5-0.2-3-0.3-4.5-0.5c0.7-3.1,1.3-6.6,1.8-10c0.2-1.5,0.4-3,0.6-4.5c0.3-2.2,0.5-4.3,0.7-6.1
				c0.8-8.3,1.1-16.2,0.8-22.2c0-0.1,0-0.2,0-0.3c4.7,0.3,9.4,0.5,14.1,0.5c1.6,3.7,3.9,7,5.3,10.9c1.6,4.5,2.4,9,2.8,13.8
				c0,0.2,0.3,0.2,0.3,0c0.4-7.7-1.3-18-6.3-24.4c4,2.3,6.6,4.8,9.3,8.9c3,4.5,4.7,9.4,6.7,14.4c0,0.1,0.2,0.1,0.2,0
				c-0.8-5.9-3.6-11.8-7-16.6c-2.2-3.1-5.5-7.6-9.7-7.7c0-0.2-0.1-0.3-0.2-0.4c0,0,0,0,0,0c2.7-5.3,4.8-10.9,7.1-16.4
				c0.2-0.5,0.4-1,0.7-1.5c0-0.1,0.1-0.1,0.1-0.2c2.7-6.2,5.6-12.4,8.5-18.6c3-6.2,6.1-12.4,9.2-18.5c1.6-3.1,3.2-6.1,4.8-9.2
				c0.5-0.9,1-1.7,1.4-2.6c6.8,6.6,14.3,12.5,21,19.3c3.6,3.6,7.1,7.3,10.4,11.1c3.3,3.7,6.3,8.1,9.9,11.5c0.2,0.2,0.7,0.3,0.9,0
				c0.1-0.2,0.3-0.4,0.4-0.5c4.3-5.5,9.2-12.1,11-19c3.6,3.7,10.3,5.9,15,7.1c6.3,1.6,12.9,1.9,19.3,0.8c9-1.5,19.2-6.1,25.7-13.2
				c0,5.1,0.1,10.1,0.1,15.2C305.4,60.6,305.6,73.1,305.7,85.6z"/>
			<path fill="#272525" d="M305.2,29.7c0,1.1,0,2.2,0,3.3c-6.5,7.1-16.7,11.7-25.7,13.2c-6.4,1.1-13,0.8-19.3-0.8
				c-4.7-1.2-11.4-3.3-15-7.1c0.1-0.2,0.1-0.5,0.2-0.7c2.5,0.9,4.8,2.5,7.3,3.5c2.8,1.1,5.8,2,8.7,2.6c6.1,1.3,12.6,1.3,18.7,0.1
				c5.5-1.1,10.7-3.2,15.4-6.2C299.1,35.3,302.1,32.5,305.2,29.7z"/>
			<path fill="#DD882F" d="M305.1,26.9c0,0.9,0,1.8,0,2.8c-3,2.9-6.1,5.6-9.7,7.9c-4.7,2.9-10,5.1-15.4,6.2
				c-6.2,1.2-12.6,1.2-18.7-0.1c-3-0.6-5.9-1.5-8.7-2.6c-2.5-1-4.8-2.6-7.3-3.5c-0.3-0.1-0.6-0.2-0.9-0.3c0,0,0,0-0.1,0c0,0,0,0,0,0
				c-1.6,2.8-2.8,5.9-4.3,8.7c-2,3.6-4.1,7-6.7,10.2c-2.4-3.8-5.8-7.3-8.8-10.6c-3.5-4-7.2-7.8-10.9-11.6
				c-6.7-6.6-13.8-13.8-21.7-19.1c0.1-0.3,0.3-0.5,0.4-0.8c4.9,2.6,10.1,4.7,15.3,6.5c11.3,4,23.1,7,35,8.4c0.1,0,0.2,0,0.3,0
				c9.4,7.2,23.6,9.5,35.1,8c5.7-0.7,11.2-2.3,16.4-4.7c3.4-1.6,7.4-3.6,10.6-6.2C305.1,26.4,305.1,26.6,305.1,26.9z"/>
			<path fill="#272525" d="M305.1,23.7c0,0.8,0,1.6,0,2.4c-3.2,2.6-7.1,4.7-10.6,6.2c-5.2,2.4-10.7,4-16.4,4.7
				c-11.5,1.4-25.7-0.8-35.1-8c0.5,0.1,1.1,0.1,1.7,0.2c5,2.2,9.8,4.3,15.3,5.4c5.9,1.2,12.1,1.3,18.1,0.5
				c5.8-0.8,11.4-2.6,16.6-5.2c3.8-1.9,7-4.7,10.5-7C305.1,23.2,305.1,23.5,305.1,23.7z"/>
			<path fill="#D7A671" d="M305.1,17.6c0,1.8,0,3.6,0,5.4c-3.5,2.3-6.7,5.1-10.5,7c-5.2,2.6-10.8,4.4-16.6,5.2
				c-6,0.8-12.1,0.7-18.1-0.5c-5.5-1.1-10.3-3.2-15.3-5.4c12.7,1.3,25.6,0.6,38-2.6C290.3,24.6,298.1,21.7,305.1,17.6z"/>
			<path fill="#272525" d="M305,14.4c0,1.1,0,2.2,0,3.3c-6.9,4.1-14.8,7-22.3,9c-12.5,3.3-25.3,3.9-38,2.6c-0.7-0.3-1.3-0.6-2-0.9
				l0.2-1.8c11.3,1.3,22.9,1.1,34.1-1.2C287.3,23.3,296.3,19.4,305,14.4z"/>
			<g>
				<defs>
					<path id="PDXMLID_7_" d="M305,9.8c0,1.5,0,3,0,4.5c-8.7,5.1-17.8,9-28.1,11.1c-11.2,2.3-22.7,2.5-34.1,1.2c-4-0.5-8-1.1-11.9-1.9
						c-12.8-2.6-25.9-6.6-37.6-12.7c-0.4-0.2-0.9-0.5-1.3-0.7c-1.2-0.6-2.4-1.3-3.5-2c-6.2-3.7-11.9-8.3-16.5-13.9
						c-3.2-3.9-5.4-8.1-7.4-12.5c27.3-0.6,54.7-1.1,82-0.5c19.5,0.4,38.9,1.5,58.2,4.4c0,1.4,0,2.9,0,4.3C305-2.7,305,3.6,305,9.8z"
						/>
				</defs>
				<use xlink:href="#PDXMLID_7_"  overflow="visible" fill="#5F381E"/>
				<clipPath id="PDXMLID_2_">
					<use xlink:href="#PDXMLID_7_"  overflow="visible"/>
				</clipPath>
				<path clip-path="url(#PDXMLID_2_)" fill="#7E4A28" d="M163.7-31.8c0,0,24,29,59,36s59,0,59,0s-28-6.8-26-13.9s37,17,37,17
					s44-12.1,21-34.1s-46-57-46-57h-115L163.7-31.8z"/>
			</g>
			<path fill="#272525" d="M245.3,37.5c0,0.2-0.1,0.5-0.2,0.7c-0.3-0.3-0.5-0.6-0.8-0.9c0,0,0,0,0,0c0,0,0,0,0,0c0,0,0,0,0.1,0
				C244.8,37.3,245.1,37.4,245.3,37.5z"/>
			<path fill="#272525" d="M244.4,37.3c0.2,0.3,0.5,0.6,0.8,0.9c-1.8,7-6.7,13.5-11,19l-0.3-0.2c-0.2-0.3-0.3-0.5-0.5-0.8
				c2.6-3.2,4.7-6.6,6.7-10.2C241.6,43.2,242.8,40.1,244.4,37.3C244.4,37.3,244.4,37.3,244.4,37.3z"/>
			<path fill="#272525" d="M242.7,28.4c0.7,0.3,1.3,0.6,2,0.9c-0.5-0.1-1.1-0.1-1.7-0.2c-0.2-0.1-0.4-0.3-0.5-0.4
				C242.3,28.5,242.5,28.3,242.7,28.4z"/>
			<path fill="#272525" d="M243,29.1c-0.1,0-0.2,0-0.3,0c-11.9-1.4-23.8-4.3-35-8.4c-5.2-1.9-10.4-4-15.3-6.5c0.4-0.7,0.7-1.5,1-2.2
				c11.7,6.1,24.8,10.1,37.6,12.7c3.9,0.8,7.9,1.5,11.9,1.9l-0.2,1.8c-0.2-0.1-0.4,0.1-0.2,0.3C242.7,28.8,242.8,28.9,243,29.1z"/>
			<path fill="#272525" d="M234.2,57.3c-0.1,0.2-0.3,0.4-0.4,0.5c-0.2,0.3-0.7,0.2-0.9,0c-3.7-3.4-6.6-7.8-9.9-11.5
				c-3.4-3.8-6.9-7.5-10.4-11.1c-6.7-6.8-14.2-12.7-21-19.3c0.2-0.3,0.3-0.6,0.5-0.9c7.9,5.3,15,12.5,21.7,19.1
				c3.8,3.7,7.4,7.6,10.9,11.6c3,3.3,6.4,6.8,8.8,10.6c-0.2,0.2-0.4,0.5-0.5,0.7c0.3,0,0.7,0.1,1,0.1L234.2,57.3z"/>
			<path fill="#272525" d="M233.9,57c-0.3,0-0.7-0.1-1-0.1c0.2-0.2,0.4-0.4,0.5-0.7C233.5,56.5,233.7,56.8,233.9,57z"/>
			<path fill="#272525" d="M192.1,11.3c0.4,0.2,0.9,0.5,1.3,0.7c-0.3,0.8-0.6,1.5-1,2.2c-0.6-0.3-1.2-0.6-1.8-0.9
				C191.1,12.6,191.6,11.9,192.1,11.3z"/>
			<path fill="#272525" d="M192.4,14.2c-0.1,0.3-0.3,0.5-0.4,0.8c-0.5-0.3-1-0.6-1.5-1c-0.2-0.1-0.4,0-0.4,0.1l0,0
				c0.2-0.3,0.4-0.6,0.6-0.9C191.2,13.6,191.8,13.9,192.4,14.2z"/>
			<path fill="#272525" d="M192,15c-0.2,0.3-0.3,0.6-0.5,0.9c-0.5-0.4-0.9-0.9-1.4-1.4c-0.1-0.1-0.1-0.3,0-0.4
				c0.1-0.1,0.3-0.2,0.4-0.1C191,14.3,191.5,14.6,192,15z"/>
			<path fill="#272525" d="M190.1,14.5c0.5,0.5,0.9,0.9,1.4,1.4c-0.5,0.9-1,1.7-1.4,2.6c-1.6,3-3.2,6.1-4.8,9.2
				c-3.1,6.1-6.2,12.3-9.2,18.5c-2.9,6.2-5.8,12.4-8.5,18.6c-0.6-0.1-1.3-0.3-1.9-0.5c0.1-0.3,0.2-0.5,0.3-0.8
				c2.5-6,5.1-11.9,7.9-17.8c3-6.5,6.2-12.9,9.6-19.1c2.1-3.8,4-8.5,6.6-12.5l0,0C189.9,14.2,189.9,14.4,190.1,14.5z"/>
			<path fill="#272525" d="M192.1,11.3c-0.5,0.6-1,1.3-1.5,2c-4.9-2.7-9.6-5.8-13.8-9.5c-5.9-5.3-12-12.7-14.2-20.8c0.7,0,1.4,0,2,0
				c2,4.4,4.2,8.6,7.4,12.5c4.6,5.6,10.3,10.2,16.5,13.9C189.7,10,190.9,10.6,192.1,11.3z"/>
			<g>
				<defs>
					<path id="PDXMLID_3_" d="M190.6,13.2c-0.2,0.3-0.4,0.6-0.6,0.9c-2.6,3.9-4.6,8.7-6.6,12.5c-3.4,6.3-6.6,12.7-9.6,19.1
						c-2.8,5.9-5.4,11.8-7.9,17.8c-0.1,0.3-0.2,0.5-0.3,0.8c-2.6-0.6-5.2-1.2-7.7-2c-5.8-1.7-11.7-3.6-17.4-5.6
						c-6.6-2.3-13.2-4.9-19.7-7.7c-0.5-0.2-1.1-0.5-1.6-0.7c-5-2.2-10-4.4-14.9-6.8c-11.5-5.5-22.8-11.5-34-17.7
						c-3.8-2.1-7.6-4.2-11.4-6.4C57.2,6.7,56.2-4.5,54-15.1c21.3-0.3,42.7-0.7,64-1c14.9-0.2,29.7-0.6,44.6-0.9
						c2.1,8.1,8.2,15.5,14.2,20.8C181,7.5,185.7,10.6,190.6,13.2z"/>
				</defs>
				<use xlink:href="#PDXMLID_3_"  overflow="visible" fill="#334A5D"/>
				<clipPath id="PDXMLID_9_">
					<use xlink:href="#PDXMLID_3_"  overflow="visible"/>
				</clipPath>
				<path clip-path="url(#PDXMLID_9_)" fill="#263846" d="M53.1,10.9c0,0,68.7,42,130,50s-24.4,21.7-24.4,21.7L64.4,43.7l-34-26.8
					L53.1,10.9z"/>
			</g>
			<path fill="#272525" d="M176.5,107.6c0,0.1-0.2,0.1-0.2,0c-1.9-5-3.7-9.9-6.7-14.4c-2.7-4.1-5.4-6.6-9.3-8.9
				c-0.1-0.2-0.3-0.4-0.5-0.6c0.1-0.1,0.1-0.3,0.1-0.5c4.2,0.1,7.5,4.6,9.7,7.7C172.9,95.8,175.7,101.7,176.5,107.6z"/>
			<path fill="#272525" d="M170,130.5c0.5,0.1,0.4,0.8-0.1,0.9c-2,0.2-4.1,0.1-6.3-0.1c-2.8-0.3-5.6-0.7-8.2-1
				c-1.4-0.1-2.9-0.3-4.3-0.5c0.4,0,0.9-0.1,1.3-0.1c0.2,0,0.3-0.2,0.4-0.3c5,0.1,10,0.3,15,0.5C168.5,130.1,169.3,130.3,170,130.5z
				"/>
			<path fill="#272525" d="M167.5,64.8c0,0.1-0.1,0.1-0.1,0.2c-0.2,0.5-0.4,1-0.7,1.5c-0.6-0.1-1.3-0.3-1.9-0.5
				c0.2-0.6,0.5-1.1,0.7-1.7C166.2,64.5,166.8,64.6,167.5,64.8z"/>
			<path fill="#272525" d="M164.9,66c0.6,0.2,1.3,0.3,1.9,0.5c-2.3,5.5-4.4,11.1-7.1,16.4c-0.1-0.1-0.3-0.2-0.5-0.3
				c-0.1,0-0.3,0-0.4,0C160.2,77,162.6,71.5,164.9,66z"/>
			<path fill="#272525" d="M160.2,84.4c5,6.4,6.7,16.8,6.3,24.4c0,0.2-0.3,0.2-0.3,0c-0.4-4.7-1.2-9.3-2.8-13.8
				c-1.4-3.9-3.6-7.2-5.3-10.9c0.3,0,0.7,0,1,0c0.2,0,0.3,0,0.4-0.1C159.8,84.1,160,84.3,160.2,84.4z"/>
			<path fill="#272525" d="M165.6,64.3c-0.2,0.6-0.5,1.1-0.7,1.7c-2.1-0.5-4.1-1.1-6.1-1.6c-6.3-1.7-12.6-3.6-18.8-5.8
				c-6.1-2.1-12.1-4.5-18-6.9c-0.4-0.9-0.7-1.8-1.1-2.6c6.5,2.8,13,5.3,19.7,7.7c5.7,2,11.6,3.9,17.4,5.6
				C160.4,63.1,163,63.7,165.6,64.3z"/>
			<path fill="#272525" d="M156.9,128.9c3.5,0.3,7.3,0.3,10.8,1c-5-0.2-10-0.4-15-0.5c0.1-0.2,0-0.4-0.3-0.5c-0.7-0.2-1.3-0.4-2-0.5
				C152.7,128.5,154.8,128.7,156.9,128.9z"/>
			<path fill="#272525" d="M163.6,131.3L163.6,131.3c-5.1-0.4-10.2-0.8-15.2-1.4c0,0-0.1,0-0.1,0c0.9,0,1.8,0,2.7-0.1
				c1.5,0.2,2.9,0.3,4.3,0.5C158,130.6,160.8,131,163.6,131.3z"/>
			<path fill="#272525" d="M160.2,84.4c-0.2-0.1-0.4-0.3-0.7-0.4c0.1-0.1,0.1-0.1,0.2-0.2C159.9,84,160.1,84.2,160.2,84.4z"/>
			<path fill="#272525" d="M159.8,83.3c0,0.2,0,0.3-0.1,0.5c-0.1-0.1-0.2-0.3-0.3-0.4c0,0,0-0.1,0-0.1h0
				C159.6,83.3,159.7,83.3,159.8,83.3z"/>
			<path fill="#272525" d="M159.8,83.3c-0.1,0-0.3,0-0.4,0c0.1-0.1,0.1-0.3,0.2-0.4C159.7,83,159.8,83.2,159.8,83.3z"/>
			<path fill="#272525" d="M159.4,83.4c0.1,0.1,0.2,0.3,0.3,0.4c0,0.1-0.1,0.2-0.2,0.2c-0.1-0.1-0.2-0.1-0.4-0.2
				C159.2,83.7,159.3,83.5,159.4,83.4z"/>
			<path fill="#272525" d="M159.6,82.9C159.6,82.9,159.6,82.9,159.6,82.9c-0.1,0.1-0.1,0.3-0.2,0.4h0c0,0-0.1,0-0.1,0
				c-0.1-0.2-0.3-0.3-0.4-0.5c-0.1-0.1-0.1-0.1-0.2-0.1c0,0,0-0.1,0-0.1c0.1,0,0.3,0,0.4,0C159.3,82.6,159.5,82.7,159.6,82.9z"/>
			<path fill="#272525" d="M159.2,83.8c0.1,0.1,0.2,0.1,0.4,0.2c-0.1,0.1-0.3,0.1-0.4,0.1c-0.3,0-0.7,0-1,0
				c-0.1-0.2-0.2-0.4-0.3-0.7c-0.2-0.5,0.4-1,0.9-0.8c-0.1,0.3-0.1,0.6-0.2,0.8C158.4,84,158.9,84.2,159.2,83.8
				C159.2,83.8,159.2,83.8,159.2,83.8L159.2,83.8z"/>
			<path fill="#272525" d="M159.4,83.3C159.4,83.3,159.4,83.4,159.4,83.3c-0.1,0.1-0.1,0-0.1,0C159.4,83.3,159.4,83.3,159.4,83.3z"
				/>
			<path fill="#272525" d="M159.3,83.3C159.3,83.3,159.4,83.4,159.3,83.3c0,0.2-0.1,0.4-0.1,0.5h0c-0.1-0.1-0.2-0.1-0.3-0.2
				c-0.2-0.1-0.1-0.3,0.1-0.3C159,83.3,159.2,83.3,159.3,83.3z"/>
			<path fill="#272525" d="M158.9,82.9c0.1,0.1,0.3,0.3,0.4,0.5c-0.1,0-0.3,0-0.4,0c-0.1,0-0.2,0.2-0.1,0.3c0.1,0.1,0.2,0.1,0.3,0.2
				c0,0,0,0,0,0c-0.2,0.4-0.8,0.1-0.7-0.3c0.1-0.3,0.1-0.6,0.2-0.8C158.7,82.7,158.8,82.8,158.9,82.9z"/>
			<path fill="#272525" d="M158.7,82.6C158.7,82.6,158.7,82.7,158.7,82.6c-0.5-0.1-1.1,0.3-0.9,0.9c0.1,0.2,0.2,0.4,0.3,0.7
				c-4.7,0-9.4-0.2-14.1-0.5c0-0.6-0.1-1.2-0.1-1.8C148.8,82.3,153.8,82.5,158.7,82.6z"/>
			<path fill="#272525" d="M153,155.2c0.8-0.4,1.4,0.7,0.7,1.1c-0.7,0.5-1.5,1-2.3,1.5c-0.1-0.6-0.2-1.1-0.3-1.7
				C151.7,155.8,152.4,155.5,153,155.2z"/>
			<path fill="#272525" d="M152.5,128.9c0.3,0.1,0.3,0.3,0.3,0.5c-1.4,0-2.9-0.1-4.3-0.1c-0.1,0-0.2,0-0.2,0.1
				c-0.4-0.1-0.8-0.1-1.3-0.2c-0.1-0.3-0.2-0.7-0.3-1c1.3,0,2.6,0.1,3.9,0.2C151.2,128.5,151.8,128.7,152.5,128.9z"/>
			<path fill="#272525" d="M152.8,129.4c0,0.1-0.2,0.3-0.4,0.3c-0.4,0-0.9,0.1-1.3,0.1c-1-0.1-1.9-0.2-2.9-0.4
				c0-0.1,0.1-0.1,0.2-0.1C149.9,129.3,151.3,129.4,152.8,129.4z"/>
			<path fill="#272525" d="M151.9,162.9c0,0.6-0.8,0.6-0.9,0.1c-0.5-1.4-0.9-2.8-1.2-4.2c0.6-0.3,1.1-0.7,1.6-1
				C151.7,159.5,151.8,161.2,151.9,162.9z"/>
			<path fill="#272525" d="M151.1,156.1c0.1,0.6,0.2,1.1,0.3,1.7c-0.5,0.3-1.1,0.7-1.6,1c-0.1-0.6-0.3-1.2-0.4-1.8
				C149.9,156.7,150.5,156.4,151.1,156.1z"/>
			<path fill="#272525" d="M149.5,148.2c0.5,2.6,1.1,5.3,1.6,7.9c-0.6,0.3-1.2,0.6-1.8,0.9c-0.7-3.3-1.1-6.6-1.8-9.8
				c-0.3-1.3-0.5-2.6-0.8-3.8c0.5-0.1,1-0.1,1.5-0.2c0.1,0,0.1,0,0.2,0C148.8,144.9,149.2,146.5,149.5,148.2z"/>
			<path fill="#272525" d="M149.6,141.3c0.1,0.6,0.2,1.1,0.4,1.7c-0.5,0.1-1,0.1-1.5,0.2c0-0.1,0-0.1,0-0.2c-0.1,0-0.1,0-0.2,0
				c-0.1-0.5-0.2-1-0.3-1.6C148.5,141.4,149.1,141.3,149.6,141.3z"/>
			<path fill="#272525" d="M149.6,141.3c-0.6,0.1-1.2,0.1-1.7,0.2c-0.7-3.4-1.5-6.7-2.3-10.1c-0.1-0.5-0.3-1.1-0.4-1.6
				c0.6,0,1.2,0.1,1.8,0.1c0.2,0.8,0.4,1.7,0.6,2.5C148.3,135.3,149,138.3,149.6,141.3z"/>
			<path fill="#272525" d="M149.4,157c0.1,0.6,0.3,1.2,0.4,1.8c-7,4.2-15,7.6-22.9,8.3c-4.4,0.4-8.9-0.1-13.1-1.7
				c-1.8-0.7-3.4-1.6-5-2.8c-0.8-0.5-1.4-1.2-2.2-1.8c-0.9-0.9-1.9-1.6-3.1-2c-0.1-0.1-0.3-0.2-0.4-0.3c-0.2-0.4-0.3-0.8-0.5-1.1
				c3.4,0.9,6.5,4.4,9.4,5.9C125,170,137.7,163,149.4,157z"/>
			<path fill="#272525" d="M151.1,129.8c-0.9,0.1-1.8,0.1-2.7,0.1c-0.2-0.1-0.3-0.3-0.2-0.5C149.1,129.6,150.1,129.7,151.1,129.8z"
				/>
			<g>
				<defs>
					<path id="PDXMLID_8_" d="M147.6,147.2c0.7,3.2,1.1,6.5,1.8,9.8c-11.7,6-24.4,13-37.4,6.3c-2.9-1.5-5.9-5-9.4-5.9
						c-0.5-1.3-1.1-2.5-1.7-3.8c1.9-0.4,3.8-1.3,5.5-1.8c2.8-0.8,5.7-1.6,8.6-2.4c6.4-1.7,13-3.1,19.5-4.3c3.5-0.6,7.1-1.2,10.6-1.6
						c0.3,0,0.7-0.1,1-0.1c0.2,0,0.5-0.1,0.7-0.1C147,144.7,147.3,145.9,147.6,147.2z"/>
				</defs>
				<use xlink:href="#PDXMLID_8_"  overflow="visible" fill="#F1F1F2"/>
				<clipPath id="PDXMLID_10_">
					<use xlink:href="#PDXMLID_8_"  overflow="visible"/>
				</clipPath>
				<polyline clip-path="url(#PDXMLID_10_)" fill="#BBBCBF" points="141.2,139.6 146.7,170.9 159.4,162.1 151.9,134.8 141.2,139.6
									"/>
				<polyline clip-path="url(#PDXMLID_10_)" fill="#BBBCBF" points="135.7,141.6 139.5,169.9 140.8,166.1 137,139.6 134.7,143.4
					137,137.8 				"/>
				<use xlink:href="#PDXMLID_8_"  overflow="visible" fill="none" stroke="#D0D1D3" stroke-miterlimit="10"/>
			</g>
			<path fill="#272525" d="M148.5,143.2c-0.1,0-0.1,0-0.2,0c0-0.1,0-0.1,0-0.2c0.1,0,0.1,0,0.2,0
				C148.4,143.1,148.5,143.1,148.5,143.2z"/>
			<path fill="#272525" d="M148.3,129.9c-0.4,0-0.8,0-1.3,0c0-0.2-0.1-0.4-0.1-0.6c0.4,0.1,0.8,0.1,1.3,0.2
				C148.1,129.6,148.1,129.8,148.3,129.9z"/>
			<path fill="#272525" d="M148.2,143c0,0.1,0,0.1,0,0.2c-0.5,0.1-1,0.1-1.5,0.2c0-0.1,0-0.1,0-0.2
				C147.2,143.1,147.7,143.1,148.2,143z"/>
			<path fill="#272525" d="M147.9,141.5c0.1,0.5,0.2,1,0.3,1.6c-0.5,0.1-1,0.1-1.5,0.2c0,0.1,0,0.1,0,0.2c-0.2,0-0.5,0.1-0.7,0.1
				c-0.2-0.6-0.5-1.1-0.7-1.7C146.2,141.7,147,141.6,147.9,141.5z"/>
			<path fill="#272525" d="M146.5,127.6c1.4,0.2,2.7,0.5,4,0.8c-1.3-0.1-2.6-0.1-3.9-0.2C146.6,128,146.6,127.8,146.5,127.6z"/>
			<path fill="#272525" d="M146.9,129.2c0,0.2,0.1,0.4,0.1,0.6c-0.6,0-1.2,0-1.8-0.1c-0.1-0.3-0.1-0.6-0.2-0.9
				C145.7,129,146.3,129.1,146.9,129.2z"/>
			<path fill="#272525" d="M146.7,128.2c0.1,0.3,0.2,0.7,0.3,1c-0.6-0.1-1.3-0.2-1.9-0.3c-0.1-0.2-0.1-0.5-0.2-0.7
				C145.5,128.2,146.1,128.2,146.7,128.2z"/>
			<g>
				<defs>
					<path id="PDXMLID_5_" d="M145.6,131.4c0.8,3.3,1.5,6.7,2.3,10.1c-0.9,0.1-1.8,0.2-2.6,0.3c-0.2,0-0.4,0-0.7,0.1
						c-3.3,0.4-6.6,0.9-9.9,1.5c-6.8,1.2-13.6,2.7-20.2,4.5c-3.3,0.9-6.6,1.9-9.9,3c-1.4,0.5-2.9,0.8-4.3,1.4
						c-5-10.6-11.1-20.7-16.6-31c-0.9-1.7-1.8-3.3-2.7-5c6.2,2.4,12.5,4.4,18.9,6c3.4,0.9,6.9,1.6,10.3,2.3c0,0.2,0,0.5,0,0.7
						c0.3,5,0.8,7.5,1.5,8.8c-0.1,0-0.2,0-0.3,0c-0.1,0-0.1,0.1,0,0.1c0.2,0.1,0.4,0.2,0.6,0.3c0.4,0.7,0.9,0.9,1.4,0.9
						c0.1,0,0.1,0,0.2,0c0.2,0,0.3,0,0.5-0.1c3.1,1.1,6.6,1.5,9.8,1.9c3.4,0.3,7.4,0.8,11,0.3c0,0,0.1,0,0.1,0c0,0,0.1,0,0.1,0
						c0.2,0,0.4-0.1,0.7-0.2c0.5-0.2,0.9-0.8,1.4-1.5c0.9-1.5,1.7-3.8,2.5-6.7c1.9,0.2,3.8,0.4,5.7,0.5
						C145.4,130.3,145.5,130.9,145.6,131.4z"/>
				</defs>
				<use xlink:href="#PDXMLID_5_"  overflow="visible" fill="#334A5D"/>
				<clipPath id="PDXMLID_11_">
					<use xlink:href="#PDXMLID_5_"  overflow="visible"/>
				</clipPath>
				<path clip-path="url(#PDXMLID_11_)" fill="#263846" d="M110.4,46.9c0,0,27.7,56.3,31.3,98s17.7-2.2,17.7-2.2L134.9,24.9
					L110.4,46.9z"/>
			</g>
			<path fill="#272525" d="M146.5,127.6c0,0.2,0.1,0.4,0.1,0.6c-0.6,0-1.2,0-1.8,0c-0.1-0.3-0.1-0.6-0.2-0.9
				C145.3,127.4,145.9,127.5,146.5,127.6z"/>
			<path fill="#272525" d="M146,143.5c-0.3,0-0.7,0.1-1,0.1c-0.1-0.6-0.3-1.2-0.4-1.7c0.2,0,0.4-0.1,0.7-0.1
				C145.5,142.3,145.8,142.9,146,143.5z"/>
			<path fill="#272525" d="M145,128.9c0.1,0.3,0.1,0.6,0.2,0.9c-1.9-0.1-3.8-0.3-5.7-0.5c0.2-0.8,0.4-1.6,0.6-2.4
				c1.5,0.1,3,0.3,4.5,0.5c0.1,0.3,0.1,0.6,0.2,0.9c-0.8,0-1.6,0-2.4,0.1c-0.1,0-0.1,0.1,0,0.1C143.3,128.6,144.2,128.7,145,128.9z"
				/>
			<path fill="#272525" d="M144.9,128.2c0.1,0.2,0.1,0.5,0.2,0.7c-0.9-0.2-1.8-0.3-2.6-0.5c-0.1,0-0.1-0.1,0-0.1
				C143.2,128.2,144,128.2,144.9,128.2z"/>
			<path fill="#272525" d="M144.6,141.9c0.1,0.6,0.3,1.2,0.4,1.7c-3.5,0.5-7.1,1-10.6,1.6c-6.6,1.1-13.1,2.6-19.5,4.3
				c-2.9,0.8-5.7,1.6-8.6,2.4c-1.7,0.5-3.6,1.4-5.5,1.8c-0.2-0.5-0.4-0.9-0.6-1.4c1.4-0.6,2.9-1,4.3-1.4c3.3-1.1,6.6-2.1,9.9-3
				c6.7-1.8,13.4-3.3,20.2-4.5C138,142.8,141.3,142.3,144.6,141.9z"/>
			<path fill="#272525" d="M144,84c0.3,6,0,13.9-0.8,22.2c-0.2,1.8-0.4,3.9-0.7,6.1c-0.4-1.3-0.7-2.7-1.1-4c0.1-0.7,0.2-1.5,0.2-2.2
				c0.9-9.8,1-17.3,0.7-22.5c0.5,0,1.1,0.1,1.6,0.1C144,83.8,144,83.9,144,84z"/>
			<path fill="#272525" d="M144,83.7c-0.5,0-1.1-0.1-1.6-0.1c0-0.6-0.1-1.2-0.1-1.8c0.5,0,1.1,0.1,1.6,0.1
				C143.9,82.4,144,83,144,83.7z"/>
			<path fill="#272525" d="M143.9,81.9c-0.5,0-1.1-0.1-1.6-0.1c-0.3-3.9-0.9-6.1-1.5-6.3l0-0.1c0.7,0.1,1.3,0.3,2,0.4
				C143.2,76.8,143.6,78.8,143.9,81.9z"/>
			<path fill="#272525" d="M141.5,108.3c0.4,1.3,0.7,2.7,1.1,4c-0.2,1.5-0.4,3-0.6,4.5c-0.3-1.3-0.7-2.6-1-3.8
				C141.1,111.5,141.3,109.9,141.5,108.3z"/>
			<path fill="#DD882F" d="M142.4,83.6c0.3,5.2,0.2,12.7-0.7,22.5c-0.1,0.8-0.1,1.5-0.2,2.2c-0.2,1.6-0.3,3.2-0.5,4.7
				c-0.7,5.6-1.5,10.2-2.4,13.7c-0.2,0.9-0.4,1.6-0.6,2.4c-1,3.7-1.9,6-2.6,6.7c-0.2,0-0.4,0-0.6,0c-0.6,0-1.1,0-1.7,0
				c-2.6,0-5.2,0.3-7.8,0.1c-3.4-0.2-6.8-0.9-10.2-1.3v0c0.9-1.2,1.9-3.6,3.1-8.4c0,0,0,0,0,0c0.2-0.6,0.3-1.3,0.5-2
				c1.2-5.6,2.3-12.5,3-20c0.8-8.3,1.1-16.2,0.8-22.2c0-0.3,0-0.6-0.1-0.9c0-0.7-0.1-1.3-0.1-1.9c-0.3-3.4-0.8-5.2-1.4-6.3
				c2.5,0,5-0.1,7.6-0.1c0.6,0,1.2,0.1,1.8,0.1c0.2,0,0.4,0,0.6,0c2.8,0.3,5.6,1.2,8.3,1.9c0.6,0.1,1.1,0.3,1.7,0.4l0,0.1
				c0.6,0.2,1.2,2.4,1.5,6.3C142.3,82.3,142.4,82.9,142.4,83.6z"/>
			<path fill="#272525" d="M141.8,74.2c0.3,0.3,0.7,0.7,1,1.5c-0.7-0.1-1.3-0.2-2-0.4c-0.6-0.1-1.1-0.3-1.7-0.4
				c0.7-0.9,1.3-1.1,1.9-1.1c0.1,0,0.1,0,0.2,0c0,0,0.1,0,0.1,0c0,0,0,0,0.1,0C141.5,74,141.6,74,141.8,74.2
				C141.8,74.1,141.8,74.1,141.8,74.2z"/>
			<path fill="#272525" d="M140.9,113c0.3,1.3,0.7,2.6,1,3.8c-0.5,3.4-1.1,6.9-1.8,10c-0.5,0-1-0.1-1.6-0.1
				C139.4,123.1,140.2,118.5,140.9,113z"/>
			<path fill="#272525" d="M141.5,73.7c0.1,0.1,0.2,0.3,0.3,0.4c-0.1-0.1-0.3-0.2-0.4-0.2c0,0,0,0-0.1,0c0,0-0.1,0-0.1,0
				c-0.1,0-0.1,0-0.2,0c-0.5-0.1-1.2,0.1-1.9,1.1c-2.8-0.7-5.5-1.5-8.3-1.9c-0.2,0-0.4,0-0.6,0c-0.1-0.4-0.3-0.8-0.4-1.2
				c0.6,0.1,1.2,0.1,1.7,0.2C134.6,72.3,138.3,72.6,141.5,73.7z"/>
			<path fill="#272525" d="M141.8,74.1c-0.1-0.1-0.3-0.2-0.4-0.2C141.5,74,141.6,74,141.8,74.1z"/>
			<path fill="#272525" d="M141.3,73.9c0,0-0.1,0-0.1,0C141.2,73.9,141.3,73.9,141.3,73.9z"/>
			<path fill="#272525" d="M138.6,126.7c0.5,0,1,0.1,1.6,0.1c-0.2,0.8-0.4,1.7-0.6,2.4c-0.5-0.1-1-0.1-1.5-0.2
				C138.2,128.3,138.4,127.5,138.6,126.7z"/>
			<path fill="#272525" d="M138,129.1c0.5,0.1,1,0.1,1.5,0.2c-0.7,2.8-1.6,5.2-2.5,6.7c-0.5-0.1-1.1-0.1-1.7-0.1
				C136.1,135.1,137,132.8,138,129.1z"/>
			<path fill="#272525" d="M135.4,135.8c0.6,0,1.1,0.1,1.7,0.1c-0.4,0.7-0.9,1.2-1.4,1.5c-0.3,0.1-0.6,0.1-0.9,0.2
				c-0.6-0.1-1.2-0.5-1.7-1.8c0.6,0,1.1,0,1.7,0c0.1,0.1,0.2,0.2,0.3,0.3C135.1,136,135.3,135.9,135.4,135.8z"/>
			<path fill="#272525" d="M134.8,135.8c0.2,0,0.4,0,0.6,0c-0.1,0.1-0.2,0.2-0.3,0.2C135,136,134.9,135.9,134.8,135.8z"/>
			<path fill="#272525" d="M134.7,137.6c0.3,0,0.6-0.1,0.9-0.2c-0.2,0.1-0.4,0.2-0.7,0.2c0,0-0.1,0-0.1,0
				C134.8,137.6,134.8,137.6,134.7,137.6z"/>
			<path fill="#272525" d="M133.1,135.8c0.5,1.3,1.1,1.7,1.7,1.8c-3.6,0.5-7.6,0.1-11-0.3c-3.3-0.3-6.7-0.8-9.8-1.9
				c0.3-0.1,0.7-0.4,1.1-0.9c3.4,0.4,6.8,1.1,10.2,1.3C127.8,136,130.5,135.8,133.1,135.8z"/>
			<path fill="#272525" d="M129.7,71.8c0.2,0.4,0.3,0.8,0.4,1.2c-0.6-0.1-1.2-0.1-1.8-0.1c-0.1-0.4-0.3-0.9-0.5-1.3
				C128.5,71.6,129.1,71.7,129.7,71.8z"/>
			<path fill="#272525" d="M129.7,71.8c-0.6-0.1-1.2-0.1-1.8-0.2c-2.4-6.9-5-13.8-7.7-20.6c0.6,0.2,1.1,0.5,1.7,0.7
				C124.7,58.3,127.3,65,129.7,71.8z"/>
			<path fill="#272525" d="M127.9,71.6c0.2,0.4,0.3,0.9,0.5,1.3c-2.5-0.1-5,0.1-7.6,0.1c-0.4-0.7-0.8-1-1.2-1.1
				C122.3,71.4,125.2,71.4,127.9,71.6z"/>
			<g>
				<defs>
					<path id="PDXMLID_4_" d="M127.9,71.6c-2.8-0.2-5.6-0.2-8.3,0.2c-0.1,0-0.2,0-0.3-0.1c0,0-0.1,0-0.1,0c-0.3,0-0.6,0.1-0.9,0.4
						c-0.2,0.2-0.5,0.4-0.7,0.7c-0.8,1.1-1.6,2.8-2.3,5c-0.7-0.1-1.4-0.3-2.1-0.4c-13.4-3-27-7.7-36.6-18
						C66.2,48.3,62,34.6,59.4,20.3c3.7,2.1,7.4,4.1,11.1,6.2c11.4,6.3,22.9,12.3,34.7,17.8c5,2.3,10,4.6,15,6.7
						C122.9,57.8,125.5,64.7,127.9,71.6z"/>
				</defs>
				<use xlink:href="#PDXMLID_4_"  overflow="visible" fill="#334A5D"/>
				<clipPath id="PDXMLID_12_">
					<use xlink:href="#PDXMLID_4_"  overflow="visible"/>
				</clipPath>
				<path clip-path="url(#PDXMLID_12_)" fill="#263846" d="M110.4,46.9c0,0,27.7,56.3,31.3,98s17.7-2.2,17.7-2.2L134.9,24.9
					L110.4,46.9z"/>
			</g>
			<path fill="#272525" d="M122.4,81.9c0.3,6,0,13.9-0.8,22.2l-0.8-0.1l-0.8-0.1c1-10.2,1-18,0.7-23.2c0.5,0.1,1.1,0.2,1.6,0.3
				C122.4,81.3,122.4,81.6,122.4,81.9z"/>
			<path fill="#272525" d="M122.2,79.2c0.1,0.6,0.1,1.2,0.1,1.9c-0.5-0.1-1.1-0.2-1.6-0.3c-0.1-0.7-0.1-1.3-0.2-1.9
				C121.1,79,121.7,79.1,122.2,79.2z"/>
			<path fill="#272525" d="M122.2,79.2c-0.5-0.1-1.1-0.2-1.6-0.3c-0.3-3.4-0.9-5.3-1.4-5.6l0-0.4c0.5,0,1.1,0,1.6,0
				C121.4,73.9,121.9,75.8,122.2,79.2z"/>
			<path fill="#272525" d="M120.8,49.1c0.4,0.9,0.7,1.8,1.1,2.6c-0.6-0.2-1.1-0.5-1.7-0.7c-0.3-0.9-0.7-1.7-1-2.6
				C119.7,48.6,120.3,48.8,120.8,49.1z"/>
			<path fill="#272525" d="M120.9,104.1l0.8,0.1c-0.7,7.4-1.8,14.4-3,20c-0.5-0.1-1-0.2-1.5-0.3c1.1-4.9,2.2-11.5,3-19.8
				L120.9,104.1z"/>
			<path fill="#2D4C34" d="M120.8,80.8c0.4,5.2,0.3,13-0.7,23.2c-0.8,8.3-1.9,15-3,19.8c-0.2,0.7-0.3,1.4-0.5,2
				c-1.3,5.2-2.5,8-3.2,8.1c-0.7-0.3-1.4-3.4-1.7-9c1,0.2,2,0.4,3,0.6c-0.2,1-0.4,2-0.6,3c-0.1,0.3,0.4,0.4,0.5,0.1
				c0.3-1,0.6-2,0.8-3c0.2-0.7,0.3-1.3,0.5-2c1.7-6.9,2.8-14,3.4-21c0.4-4.5,0.6-9,0.7-13.5c0-2.7,0.2-5.7,0-8.5
				c0-0.6-0.1-1.3-0.2-1.9c-0.1-0.8-0.3-1.6-0.5-2.4c-0.1-0.3-0.6-0.3-0.6,0c-0.1,0.7-0.2,1.5-0.2,2.2c-0.6-0.1-1.2-0.2-1.8-0.3
				c0.9-3.1,1.8-4.7,2.3-4.8c0.5,0.2,1.1,2.1,1.4,5.6C120.7,79.5,120.7,80.1,120.8,80.8z"/>
			<path fill="#272525" d="M119.2,48.4c0.4,0.9,0.7,1.7,1,2.6c-5.1-2.1-10.1-4.4-15-6.7c-11.8-5.5-23.3-11.5-34.7-17.8
				c-3.7-2-7.4-4.1-11.1-6.2c-0.2-0.9-0.3-1.8-0.5-2.7c3.8,2.1,7.6,4.3,11.4,6.4c11.2,6.2,22.5,12.2,34,17.7
				C109.2,44,114.2,46.2,119.2,48.4z"/>
			<path fill="#272525" d="M120.1,80.7c0.2,2.8,0,5.8,0,8.5c-0.1,4.5-0.3,9-0.7,13.5c-0.6,7-1.7,14.1-3.4,21c-0.3,0-0.5-0.1-0.8-0.1
				c1.4-7.4,2.5-14.8,3.1-22.3c0.4-4.5,0.5-9,0.5-13.5c0-2.4-0.2-4.9-0.3-7.3C119.1,80.5,119.6,80.6,120.1,80.7z"/>
			<path fill="#272525" d="M120.1,80.7c-0.5-0.1-1-0.2-1.6-0.3c0-0.6,0-1.2,0-1.8c0.4,0.1,0.9,0.2,1.3,0.2
				C120,79.4,120.1,80,120.1,80.7z"/>
			<path fill="#272525" d="M119.9,78.8c-0.4-0.1-0.9-0.2-1.3-0.2c0-0.7,0.1-1.5,0.2-2.2c0.1-0.3,0.6-0.3,0.6,0
				C119.7,77.1,119.8,77.9,119.9,78.8z"/>
			<path fill="#272525" d="M119.6,71.8c0.4,0.1,0.8,0.4,1.2,1.1c-0.5,0-1.1,0-1.6,0c-0.5,0-1.1,0-1.6-0.1c0.2-0.3,0.5-0.5,0.7-0.7
				C118.7,72,119.2,71.9,119.6,71.8z"/>
			<path fill="#272525" d="M119.3,71.8c0.1,0,0.2,0,0.3,0.1c-0.5,0.1-0.9,0.2-1.3,0.3c0.3-0.2,0.6-0.4,0.9-0.4
				C119.3,71.8,119.3,71.8,119.3,71.8z"/>
			<path fill="#272525" d="M119.2,72.9l0,0.4c-0.5,0.1-1.4,1.7-2.3,4.8c-0.5-0.1-1-0.2-1.5-0.3c0.7-2.2,1.4-4,2.3-5
				C118.1,72.9,118.6,72.9,119.2,72.9z"/>
			<g>
				<defs>
					<path id="PDXMLID_6_" d="M118.6,80.4c0,2.4,0.3,4.9,0.3,7.3c0,4.5-0.2,9-0.5,13.5c-0.6,7.5-1.7,14.9-3.1,22.3
						c-1.2-0.2-2.3-0.4-3.5-0.7c-0.5-0.1-1.1-0.2-1.6-0.3c-0.7-0.1-1.3-0.3-2-0.4c-9.8-2.1-19.5-4.8-28.7-8.7
						c-1-0.4-1.9-0.8-2.9-1.3c-3.7-1.7-7.3-3.5-10.8-5.6C39.5,91.2,26.1,65.2,17.1,36.7C12.5,22.3,11.7,6.5,9.7-8.4
						C9.5-9.6,9.4-10.8,9.2-12c-0.1-0.8-0.2-1.6-0.3-2.3c5.1-0.1,10.2-0.3,15.3-0.3c11-0.1,17.2-0.3,28.1-0.5c0.2,0,0.4,0,0.6,0
						c1.4,10.4,2.3,21,4,31.5c0.1,0.9,0.3,1.8,0.5,2.8c1.8,9.9,4.4,19.6,9,28.6c4.6,9,11.4,16.7,20.1,21.9c8.7,5.2,18.5,8,28.4,10
						c0.5,0.1,1,0.2,1.5,0.3c0.2,0,0.3,0.1,0.5,0.1C117.4,80.2,118,80.3,118.6,80.4z"/>
				</defs>
				<use xlink:href="#PDXMLID_6_"  overflow="visible" fill="#EFD49D"/>
				<clipPath id="PDXMLID_13_">
					<use xlink:href="#PDXMLID_6_"  overflow="visible"/>
				</clipPath>
				<path clip-path="url(#PDXMLID_13_)" fill="#D7A671" d="M52.7-24.8c0,0-20,91,56,104s-45-135-45-135L52.7-24.8z"/>
				<path clip-path="url(#PDXMLID_13_)" fill="#D7A671" d="M120.7,113.2c0,0-64,4-102-67s-30,74-30,74l137,73L120.7,113.2z"/>
			</g>
			<path fill="#272525" d="M117.1,123.9c0.5,0.1,1,0.2,1.5,0.3c-0.1,0.7-0.3,1.3-0.5,2c-0.5-0.1-1-0.2-1.6-0.3
				C116.8,125.2,117,124.6,117.1,123.9z"/>
			<path fill="#272525" d="M116.8,78.2c0.6,0.1,1.2,0.2,1.8,0.3c0,0.6,0,1.2,0,1.8c-0.6-0.1-1.2-0.2-1.8-0.3c-0.2,0-0.3-0.1-0.5-0.1
				C116.5,79.3,116.7,78.7,116.8,78.2z"/>
			<path fill="#272525" d="M118.2,126.1C118.2,126.1,118.2,126.1,118.2,126.1c-1.2,4.9-2.2,7.3-3.1,8.4c-0.6-0.1-1.1-0.1-1.7-0.2
				l0-0.4c0.7-0.2,1.9-2.9,3.2-8.1C117.2,125.9,117.7,126,118.2,126.1z"/>
			<path fill="#272525" d="M115.3,77.9c0.5,0.1,1,0.2,1.5,0.3c-0.2,0.5-0.3,1.1-0.5,1.8c-0.5-0.1-1-0.2-1.5-0.3
				C115,79,115.2,78.4,115.3,77.9z"/>
			<path fill="#272525" d="M115.2,123.5c0.3,0,0.5,0.1,0.8,0.1c-0.2,0.7-0.3,1.3-0.5,2c-0.2,0-0.5-0.1-0.7-0.1
				C114.9,124.8,115.1,124.2,115.2,123.5z"/>
			<path fill="#272525" d="M114.8,125.5c0.2,0,0.5,0.1,0.7,0.1c-0.3,1-0.5,2-0.8,3c-0.1,0.3-0.5,0.2-0.5-0.1
				C114.4,127.5,114.6,126.5,114.8,125.5z"/>
			<path fill="#272525" d="M113.3,77.4c0.7,0.1,1.4,0.3,2.1,0.4c-0.2,0.6-0.3,1.2-0.5,1.8c-9.8-2-19.7-4.9-28.4-10
				c-8.8-5.2-15.5-12.8-20.1-21.9c-4.6-9-7.2-18.7-9-28.6c0.7,0.4,1.4,0.8,2.1,1.2c2.6,14.3,6.8,28,17.2,39.1
				C86.3,69.7,99.8,74.5,113.3,77.4z"/>
			<path fill="#272525" d="M115.2,123.5c-0.1,0.7-0.2,1.3-0.4,2c-1-0.2-2-0.4-3-0.6c0-0.7-0.1-1.4-0.1-2.1
				C112.8,123.1,114,123.3,115.2,123.5z"/>
			<path fill="#272525" d="M115.1,134.5L115.1,134.5c-0.4,0.5-0.8,0.8-1.1,0.9c-0.7-0.2-1.4-0.5-2.1-0.8c-0.1-0.1-0.1-0.2-0.2-0.4
				c0.6,0,1.1,0.1,1.7,0.1C114,134.4,114.5,134.4,115.1,134.5z"/>
			<path fill="#272525" d="M114,135.4c-0.2,0.1-0.4,0.1-0.5,0.1c-0.1,0-0.1,0-0.2,0c-0.4,0-0.9-0.2-1.4-0.9
				C112.6,134.9,113.3,135.2,114,135.4z"/>
			<path fill="#272525" d="M113.4,134l0,0.4c-0.6,0-1.1-0.1-1.7-0.1c-0.7-1.3-1.2-3.9-1.5-8.8c0-0.2,0-0.5,0-0.7
				c0.5,0.1,1.1,0.2,1.6,0.3C112,130.6,112.7,133.7,113.4,134z"/>
			<path fill="#272525" d="M111.7,134.2c0.1,0.1,0.1,0.3,0.2,0.4c-0.2-0.1-0.4-0.2-0.6-0.3c-0.1,0,0-0.1,0-0.1
				C111.5,134.2,111.6,134.2,111.7,134.2z"/>
			<path fill="#272525" d="M111.7,124.9c-0.5-0.1-1.1-0.2-1.6-0.3c0-0.7-0.1-1.4-0.1-2.1c0.5,0.1,1.1,0.2,1.6,0.3
				C111.7,123.6,111.7,124.3,111.7,124.9z"/>
			<path fill="#272525" d="M110.1,122.6c0,0.7,0,1.4,0.1,2.1c-3.5-0.7-6.9-1.4-10.3-2.3c-6.4-1.6-12.8-3.6-18.9-6
				c-0.5-1-1-1.9-1.5-2.9c9.2,3.9,18.9,6.6,28.7,8.7C108.7,122.3,109.4,122.4,110.1,122.6z"/>
			<path fill="#272525" d="M103.4,159.4c0.2,0.4-0.5,0.6-0.7,0.3c-0.3-0.5-0.6-0.9-0.9-1.4c0.4,0,0.8,0.1,1.3,0.3
				C103.2,158.9,103.3,159.1,103.4,159.4z"/>
			<path fill="#272525" d="M102.6,157.5c0.2,0.4,0.3,0.8,0.5,1.1c-0.5-0.2-0.9-0.3-1.3-0.3c-0.2-0.4-0.5-0.7-0.7-1.1
				C101.6,157.2,102.1,157.3,102.6,157.5z"/>
			<path fill="#272525" d="M101.1,157.2c0.2,0.4,0.5,0.7,0.7,1.1c-1.2,0.1-2.3,1.3-3.1,3.7c0,0,0,0.1,0,0.1c-2.3-1.4-2-3.7,0.5-4.5
				C99.8,157.3,100.4,157.2,101.1,157.2z"/>
			<path fill="#272525" d="M100.9,153.7c0.6,1.3,1.2,2.5,1.7,3.8c-0.5-0.1-1-0.2-1.5-0.2c-0.7-1.1-1.4-2.2-2.1-3.3
				C99.6,153.9,100.2,153.8,100.9,153.7z"/>
			<path fill="#272525" d="M100.2,152.3c0.2,0.5,0.4,0.9,0.6,1.4c-0.6,0.2-1.2,0.3-1.8,0.3c-0.2-0.3-0.3-0.5-0.5-0.8
				C99.1,152.8,99.6,152.5,100.2,152.3z"/>
			<path fill="#272525" d="M99,154c-0.4,0-0.9,0-1.3,0c0,0,0,0,0,0c0.3-0.3,0.5-0.5,0.8-0.7C98.7,153.5,98.8,153.7,99,154z"/>
			<path fill="#272525" d="M100.2,152.3c-0.6,0.2-1.1,0.5-1.7,0.9c-7.2-11.7-13.1-24.4-19.6-36.4c-0.3-0.5-0.6-1.1-0.9-1.6
				c1,0.4,1.9,0.8,2.9,1.2c0.9,1.7,1.8,3.3,2.7,5C89.1,131.5,95.2,141.7,100.2,152.3z"/>
			<path fill="#272525" d="M79.4,113.5c0.5,1,1,1.9,1.5,2.9c-1-0.4-1.9-0.8-2.9-1.2c-0.5-1-1.1-2-1.6-2.9
				C77.4,112.6,78.4,113.1,79.4,113.5z"/>
			<path fill="#272525" d="M76.5,112.2c0.5,1,1.1,2,1.6,2.9c-7-3-13.7-6.6-20-11C46.2,95.9,38,85.1,30.3,73
				C14.6,48.4,9.9,18.4,7.8-10.8C8.4-10,9.1-9.2,9.7-8.4c2,14.9,2.8,30.7,7.4,45.1c9,28.4,22.4,54.4,48.6,69.9
				C69.2,108.7,72.8,110.6,76.5,112.2z"/>
			<path fill="#272525" d="M59.4,20.3c-0.7-0.4-1.4-0.8-2.1-1.2c-0.2-0.9-0.3-1.8-0.5-2.8c0.7,0.4,1.4,0.8,2.1,1.2
				C59.1,18.5,59.3,19.4,59.4,20.3z"/>
			<path fill="#272525" d="M58.9,17.6c-0.7-0.4-1.4-0.8-2.1-1.2c-1.7-10.5-2.6-21.1-4-31.5c0.4,0,0.7,0,1.1,0
				C56.2-4.5,57.2,6.7,58.9,17.6z"/>
		</g>
		<g id="PDXMLID_24_">
			<path d="M4.8,219.4c-0.5,1.9-0.3,4.2,0.2,6.3c0.3,1.6,0.8,3.1,1.2,4.4c0.5,1.6,1.1,3.2,1.8,4.8c0.6,0.4,1.2,0.8,1.8,1.2
				c0.3,0.2,0.6,0.3,0.9,0.4c6,2.8,13.4,1.5,19.7,1.1c28-1.7,55.9-4.9,83.6-9.6c13.9-2.4,27.8-5.1,41.6-8.4c5-1.2,14.1-2.1,18.1-6.4
				c0.6-0.7,1.1-1.4,1.5-2.3c0-1.1-0.2-2.2-0.3-3.3c-0.1-0.9-0.2-1.7-0.4-2.5c-0.4-2.4-0.9-4.8-1.8-7.1c-0.1-0.2-0.2-0.4-0.3-0.6
				c-0.1-0.3-0.3-0.6-0.4-0.9l-1.2,0.5c0.2,0.9,0.3,1.9,0.5,2.8c-0.1,0.1-0.1,0.1-0.2,0.2l0.4,0.8c0.6,3.4,1.1,6.8,1.6,10.2
				c-2.6,2.7-7.1,3.3-10.9,4.1c-6.8,1.6-13.6,3.1-20.4,4.5c-23.8,5-47.9,8.8-72.1,11.5c-12.1,1.3-24.3,2.4-36.4,3.1
				c-5.8,0.4-12.2,1.4-17.9,0.3c-3.3-0.7-6-2.4-7.9-4.9c-0.5-1.7-0.8-3.5-1-5.3c0-0.3-0.1-0.6-0.1-1c-0.1-1.3,0-2.5-0.3-3.8
				L4.8,219.4z"/>
			<path d="M5,218.8c-0.1,0.2-0.1,0.4-0.2,0.7l1.1,0.2c0.8,1.3,1.8,2.4,3,3.2c0.7,0.5,1.3,0.9,2.1,1.2c0.6,0.3,1.3,0.5,1.9,0.7
				c1,0.3,2.1,0.5,3.2,0.7c0.6,0.1,1.3,0.1,1.9,0.2c5.4,0.3,11.3-0.7,15.6-1.1c3.2-0.3,6.4-0.6,9.6-0.9c0.9-0.1,1.7-0.2,2.6-0.3
				c0.7-0.1,1.4-0.1,2.1-0.2c0.5,0,1-0.1,1.4-0.1c20.9-2.2,41.7-5,62.4-8.4c7.5-1.2,15-2.5,22.4-3.9c0.5-0.1,1-0.2,1.5-0.3
				c0.6-0.1,1.2-0.2,1.8-0.4c0.6-0.1,1.1-0.2,1.7-0.3c3.8-0.7,7.5-1.5,11.3-2.3c5.5-1.1,11.4-1.9,16.7-3.8c0.7-0.3,1.5-0.6,2.2-1
				l-0.5-0.8c-3.7,1.9-9.2,2.3-12.2,2.9c-5.8,1.2-11.7,2.4-17.5,3.5c0.1-7.6,1.8-14.7,6.1-21.5c4.4-7,10.6-12,17.4-16.3l-0.3-0.9
				c-7.6,4-14.2,10.2-18.6,17.4c-3.8,6.2-6.4,14-6.3,21.6c-0.6,0.1-1.1,0.2-1.7,0.3c0.4-8.8,2.5-17.1,7.4-24.8
				c4.8-7.5,11.3-12.4,18.7-16.6l-0.3-1c-8,3.5-14.9,10.3-19.5,17.4c-4.7,7.3-7.7,16.4-7.8,25.2c-21.3,4-42.7,7.3-64.2,10
				c-7,0.9-14.1,1.7-21.1,2.4c-0.4-1.5-0.7-3.1-0.6-4.7c0.2-4,2.7-6.9,5.7-9.4c0.8-0.7,1.6-1.3,2.4-1.9c0.4,0.4,0.7,0.7,1.1,1.1
				c-0.3,0.8-0.4,1.6-0.2,2.4c0.4,2.8,3,4.7,5.8,4.2c2.8-0.4,4.7-3,4.2-5.8c-0.4-2.8-3-4.7-5.8-4.2c-0.2,0-0.4,0.1-0.6,0.1
				c-0.2-0.2-0.3-0.4-0.5-0.6l-0.8,0.5c0.1,0.1,0.3,0.3,0.4,0.4l0,0c0.3,0.3,0.6,0.7,1,1c0.1,0.1,0.3,0.3,0.4,0.4
				c-0.9,0.2-1.6,0.8-2,1.6c-0.1-0.2-0.3-0.3-0.4-0.4c-0.3-0.3-0.6-0.7-0.9-1c-0.2-0.2-0.4-0.4-0.6-0.6c-0.3-0.3-0.7-0.7-1-1
				c-0.3-0.3-0.6-0.6-0.9-0.9c-0.7-0.7-1.4-1.4-2.1-2.2c-0.6-0.6-1.1-1.2-1.6-1.8c-1.3-1.6-2.5-3.4-3.8-5.1
				c-0.6-0.8-1.1-1.6-1.7-2.4c-0.2-0.2-0.3-0.4-0.5-0.6c0.3-0.2,0.6-0.5,1-0.7c0.4-0.2,0.9-0.4,1.4-0.5c0.1,0.2,0.2,0.4,0.3,0.5
				c0.5,0.8,1.1,1.6,1.7,2.4c1.2,1.6,2.5,3.1,3.7,4.6c0.5,0.7,1.1,1.3,1.7,2l0.8-0.5c-0.5-0.6-0.9-1.1-1.3-1.7
				c-1.3-1.6-2.5-3.4-3.7-5.2c1.4-0.8,2.7-1.6,4-2.5c1.6,1.5,3.3,3,4.8,4.3c0.6,0.5,1.2,1.1,1.8,1.6l0.7-0.8c-0.5-0.4-1-0.9-1.5-1.3
				c-1.6-1.4-3.1-3.1-4.6-4.7c-0.7-0.7-1.4-1.5-2.1-2.2c-0.1-0.1-0.3-0.3-0.4-0.4c0.4-0.3,0.7-0.6,1.1-0.8c0.2-0.1,0.4-0.2,0.5-0.3
				c0.1,0.1,0.3,0.3,0.4,0.4c0.7,0.7,1.5,1.4,2.3,2.1c1.4,1.2,2.9,2.4,4.2,3.6c0.9,0.8,1.8,1.6,2.7,2.5c0.7,0.7,1.5,1.4,2.2,2
				c0.3,0.3,0.6,0.6,0.9,0.9c0.4,0.4,0.8,0.8,1.3,1.1c0.2,0.2,0.4,0.4,0.6,0.5c0.3,0.3,0.7,0.6,1.1,0.9c0.2,0.1,0.3,0.3,0.5,0.4
				c-0.7,0.3-1.2,0.7-1.6,1.3c-0.2-0.1-0.3-0.2-0.4-0.4c-0.3-0.2-0.6-0.5-0.9-0.7l-0.6,0.8c-0.3,0.8-0.5,1.8-0.3,2.7
				c0.4,2.8,3,4.7,5.8,4.2c2.8-0.4,4.7-3,4.2-5.8c-0.1-0.9-0.5-1.6-1-2.3c-1.1-1.4-2.9-2.2-4.8-1.9c-0.3,0-0.6,0.1-0.9,0.2
				c-0.2-0.2-0.4-0.4-0.7-0.7c0.2-0.2,0.5-0.3,0.7-0.5c1.2-0.8,2.4-1.6,3.6-2.5c0.4,0.3,0.8,0.5,1.2,0.7l0.5-0.8
				c-0.3-0.2-0.6-0.4-0.8-0.6c-0.5-0.3-1-0.7-1.5-1c-0.3-0.2-0.7-0.5-1-0.7c-0.8-0.6-1.6-1.2-2.4-1.8c-0.5-0.3-0.9-0.7-1.4-1.1
				c-2-1.6-3.8-3.5-5.7-5.3c-0.7-0.7-1.5-1.4-2.2-2.1c-0.1-0.1-0.3-0.3-0.4-0.4c0.6-0.6,1.2-1.2,2-1.6l-0.6-0.9
				c-0.9,0.4-1.6,1-2.3,1.7c-0.3,0.3-0.5,0.6-0.8,0.9c0.3,0.3,0.5,0.7,0.8,1c0,0,0.1,0.1,0.1,0.1c-0.9,0.7-1.9,1.4-2.8,2.1
				c-0.1-0.1-0.2-0.2-0.3-0.2c-0.3-0.3-0.7-0.6-1-0.8c-0.5,0.2-1,0.5-1.4,0.7c-0.1,0.1-0.2,0.1-0.3,0.2c-0.4,0.2-0.9,0.6-1.4,0.9
				c-0.3,0.3-0.7,0.5-1,0.8c0.3,0.3,0.6,0.7,0.9,1c0.1,0.1,0.2,0.2,0.2,0.3c-1.2,0.8-2.4,1.5-3.6,2.3c-0.1-0.1-0.2-0.2-0.2-0.3
				c-0.2-0.3-0.5-0.6-0.7-0.9c-0.4,0-0.8,0.1-1.2,0.2c-0.9,0.2-1.7,0.7-2.5,1.2c-0.4,0.3-0.7,0.6-1,0.9c0.2,0.4,0.5,0.8,0.8,1.3
				c0.1,0.1,0.2,0.2,0.2,0.4c-0.3,0.2-0.6,0.3-0.8,0.4c-0.5,0.3-1.1,0.5-1.6,0.8c-0.4,0.2-0.8,0.4-1.2,0.6c-3.9,1.9-8,3.6-12.2,5
				c-5.2,1.7-10.7,2.4-15.8,4.2C7,205.3,4.7,211,5,217.1c-0.1,0.2-0.1,0.4,0,0.6c0,0,0,0.1,0,0.1c0,0.3,0,0.6,0.1,0.9
				C5.1,218.6,5,218.7,5,218.8z M8.2,219.9c-0.8-4-0.9-8.1,2.1-11.4c2-2.2,5-3.3,8.1-4c2.5-0.6,5.2-1,7.4-1.6c6-1.7,11.9-4,17.5-6.8
				c0.4,0.5,0.9,1,1.3,1.5c-3.8,2.1-7.4,4.2-11.6,5.7c-2.8,1-5.8,1.7-8.7,2.2c-1.8,0.3-3.6,0.4-5.4,0.8c-0.5,0.1-1.1,0.3-1.6,0.4
				c-6.2,2.2-7.7,8.9-6.8,14.9C9.7,221.3,8.9,220.7,8.2,219.9z M12.5,222.8c-0.7-3.3-1.3-6.5,0.2-9.9c2.3-5.3,8-5.2,12.9-6.1
				c6.6-1.3,14.3-3.8,19.9-8.1c0.2,0.3,0.5,0.6,0.7,0.8c0.3,0.3,0.6,0.7,0.9,1c-3.7,1.8-7.3,3.5-11.2,4.9c-4.5,1.6-9.3,2.1-13.8,3.7
				c-6.1,2.3-7.5,8.7-6.4,14.5C14.6,223.4,13.6,223.1,12.5,222.8z M17.7,223.8c-0.8-3.3-1.4-6.7,0.6-9.9c2.5-4.2,7.9-4.3,12.2-5.5
				c6-1.6,11.9-4.1,17.2-7.4c0.7,0.8,1.5,1.6,2.3,2.4c-2.3,2.1-4.2,4.4-5.6,7.3c-1.7,3.4-2.5,7.6-1.5,11.3c-2.2,0.2-4.5,0.4-6.7,0.6
				c-5.6,0.5-11.4,1.3-17,1.3C18.6,223.9,18.2,223.9,17.7,223.8z M45.6,221.7c-1.3-6.9,1.9-12.1,6.7-16.4c0.1-0.1,0.2-0.2,0.4-0.3
				c0.6-0.5,1.2-1,1.9-1.5c0.3,0.3,0.5,0.6,0.8,0.9c-3.4,2.3-6.5,5.2-7.8,8.9c-0.9,2.7-0.8,5.6-0.1,8.3
				C46.9,221.6,46.2,221.6,45.6,221.7z M45.7,197.1c-0.4-0.5-0.7-1-1.1-1.5c0.8-0.4,1.6-0.8,2.3-1.2c0.4,0.5,0.8,1.1,1.3,1.6
				c0,0,0,0,0,0c0.8,1,1.6,1.9,2.3,2.8c0.2,0.2,0.4,0.4,0.5,0.6c0.5,0.6,1,1.2,1.5,1.8c-0.6,0.5-1.2,0.9-1.8,1.4
				c-0.7-0.8-1.4-1.5-2.2-2.2c-0.2-0.2-0.3-0.3-0.5-0.5c-0.5-0.5-1-1.1-1.5-1.6c-0.1-0.1-0.2-0.3-0.3-0.4
				C46.2,197.6,45.9,197.3,45.7,197.1z M58.6,208.7c-0.1-0.4-0.1-0.9,0-1.3c0.2,0.1,0.3,0.3,0.5,0.4c0,0.3,0,0.5,0,0.8
				c0.3,1.7,1.9,3,3.7,2.7c1.7-0.3,2.9-1.9,2.7-3.7c-0.2-1.5-1.5-2.6-3-2.7c-0.2-0.2-0.3-0.4-0.5-0.5c2-0.2,3.7,1.2,4,3.2
				c0.3,2.1-1.1,4-3.1,4.3S58.9,210.8,58.6,208.7z M60.6,208.8c-0.1-0.1-0.1-0.3-0.1-0.4c0-0.2,0-0.4,0-0.7c0.1-0.8,0.7-1.4,1.6-1.5
				c0.2,0,0.5,0,0.7,0c0.2,0.2,0.4,0.4,0.5,0.5c0.1,0.1,0.3,0.1,0.5,0.1c0.2,0.3,0.4,0.6,0.4,0.9c0.2,1-0.5,2-1.6,2.2
				C61.7,210.1,60.9,209.6,60.6,208.8z M60,186.1c0.9-0.7,1.9-1.3,2.8-2c1.9,1.8,4.1,3.4,5.9,4.8c0.5,0.4,1,0.8,1.5,1.2
				c-1.2,0.8-2.5,1.6-3.7,2.4c-0.7-0.6-1.4-1.3-2-1.9C63,189.3,61.5,187.7,60,186.1z M69.4,202.6c-0.1-0.6,0-1.2,0.1-1.7
				c0.2,0.1,0.3,0.2,0.5,0.3c-0.1,0.4-0.1,0.8-0.1,1.3c0.3,1.7,1.9,3,3.7,2.7c1.7-0.3,2.9-1.9,2.7-3.7c-0.2-1.6-1.7-2.8-3.3-2.7
				c-0.2-0.2-0.3-0.3-0.5-0.5c0,0,0,0,0,0c2-0.3,4,1.1,4.3,3.1s-1.1,4-3.1,4.3C71.7,206,69.7,204.6,69.4,202.6z M69.5,195.4
				c-0.3-0.3-0.6-0.6-0.9-0.8c0.3-0.2,0.7-0.4,1-0.7c1-0.6,2-1.3,2.9-2c0.3,0.2,0.7,0.5,1,0.7C72.3,193.5,70.9,194.5,69.5,195.4z
				 M71.3,202.3c0-0.1,0-0.1,0-0.2c0-0.3,0.1-0.6,0.2-0.9c0.3-0.5,0.8-0.9,1.4-1c0.2,0,0.3,0,0.5,0c0.5,0.1,1,0.3,1.3,0.8
				c0.2,0.2,0.3,0.5,0.3,0.8c0.2,1-0.5,2-1.6,2.2C72.4,204,71.4,203.3,71.3,202.3z"/>
			<path fill="#F7EFDD" d="M6.3,224.4c0.2,1.8,0.6,3.6,1,5.3c1.9,2.5,4.6,4.2,7.9,4.9c5.7,1.1,12.2,0,17.9-0.3
				c12.2-0.8,24.3-1.8,36.4-3.1c24.2-2.7,48.3-6.5,72.1-11.5c6.8-1.4,13.6-2.9,20.4-4.5c3.8-0.9,8.3-1.5,10.9-4.1
				c-0.5-3.4-1-6.8-1.6-10.2c-0.1,0.1-0.2,0.2-0.2,0.3c-0.3,0.4-0.7,0.7-1.2,1c-0.2,0.1-0.4,0.3-0.7,0.4c-0.7,0.4-1.4,0.7-2.2,1
				c-5.3,1.9-11.2,2.7-16.7,3.8c-3.8,0.8-7.5,1.5-11.3,2.3c-0.6,0.1-1.1,0.2-1.7,0.3c-0.6,0.1-1.2,0.2-1.8,0.4
				c-0.5,0.1-1,0.2-1.5,0.3c-7.5,1.4-14.9,2.7-22.4,3.9c-20.7,3.4-41.5,6.2-62.4,8.4c-0.5,0.1-1,0.1-1.4,0.1
				c-0.7,0.1-1.4,0.1-2.1,0.2c-0.9,0.1-1.7,0.2-2.6,0.3c-3.2,0.3-6.4,0.6-9.6,0.9c-4.3,0.4-10.2,1.4-15.6,1.1
				c-0.6,0-1.3-0.1-1.9-0.2c-1.1-0.1-2.2-0.4-3.2-0.7c-0.7-0.2-1.3-0.4-1.9-0.7c-0.7-0.3-1.4-0.7-2.1-1.2c-1.2-0.8-2.2-1.9-3-3.2
				c0.2,1.3,0.2,2.5,0.3,3.8C6.2,223.7,6.3,224.1,6.3,224.4z"/>
			<path fill="#F7EFDD" d="M10.3,208.5c-3,3.3-2.9,7.4-2.1,11.4c0.7,0.8,1.5,1.4,2.3,1.9c-0.9-6.1,0.5-12.8,6.8-14.9
				c0.5-0.2,1.1-0.3,1.6-0.4l-0.4-1.9C15.3,205.3,12.3,206.3,10.3,208.5z"/>
			<path fill="#F7EFDD" d="M12.7,212.9c-1.5,3.4-0.9,6.6-0.2,9.9c1,0.4,2.1,0.7,3.2,0.8c-1.1-5.8,0.2-12.3,6.4-14.5
				c4.4-1.7,9.3-2.2,13.8-3.7c3.9-1.3,7.6-3,11.2-4.9c-0.3-0.4-0.6-0.7-0.9-1c-0.2-0.3-0.5-0.5-0.7-0.8c-5.6,4.2-13.3,6.8-19.9,8.1
				C20.7,207.7,15,207.5,12.7,212.9z"/>
			<path fill="#F7EFDD" d="M18.3,213.9c-2,3.2-1.4,6.6-0.6,9.9c0.5,0,0.9,0.1,1.4,0.1c5.6,0.1,11.4-0.8,17-1.3
				c2.2-0.2,4.5-0.4,6.7-0.6c-1-3.7-0.2-7.8,1.5-11.3c1.4-2.8,3.3-5.2,5.6-7.3c-0.8-0.8-1.6-1.6-2.3-2.4c-5.3,3.3-11.2,5.7-17.2,7.4
				C26.2,209.6,20.8,209.8,18.3,213.9z"/>
			<path fill="#F7EFDD" d="M18.4,204.5l0.4,1.9c1.8-0.4,3.6-0.5,5.4-0.8c3-0.5,5.9-1.3,8.7-2.2c4.2-1.4,7.8-3.6,11.6-5.7
				c-0.4-0.5-0.9-1-1.3-1.5c-5.6,2.8-11.4,5.1-17.5,6.8C23.6,203.6,21,204,18.4,204.5z"/>
			<path fill="#DDDDEF" d="M52.3,205.3c-4.9,4.3-8.1,9.5-6.7,16.4c0.6-0.1,1.3-0.1,1.9-0.2c-0.8-2.7-0.9-5.6,0.1-8.3
				c1.3-3.7,4.4-6.6,7.8-8.9c-0.3-0.3-0.5-0.6-0.8-0.9c-0.7,0.5-1.3,1-1.9,1.5C52.6,205.1,52.4,205.2,52.3,205.3z"/>
			<path fill="#DDDDEF" d="M48.3,216.7c-0.1,1.6,0.2,3.2,0.6,4.7c7-0.7,14.1-1.5,21.1-2.4c21.5-2.7,42.9-6,64.2-10
				c0.1-8.9,3.1-17.9,7.8-25.2c4.5-7.1,11.5-13.8,19.5-17.4c-0.9-3-1.7-6.1-2.9-8.9c-0.1-0.2-0.2-0.4-0.3-0.5
				c-0.5-0.3-1.1-0.6-1.7-0.7c-2.2-0.6-5.1,1.7-6.8,2.7c-4.9,3-10.3,5.1-16,5.9c-5.8,0.9-11.6,0.5-17.3-0.9c-3.9-1-8.2-2.6-11.8,0.2
				c-1,0.8-1.8,1.7-2.7,2.7c0.1,0,0.2,0.1,0.3,0.1c0.7-0.5,1.5-0.9,2.3-1c2.8-0.4,5.4,1.5,5.8,4.3c0.4,2.8-1.5,5.4-4.2,5.8
				c-2.8,0.4-5.4-1.5-5.8-4.2c0-0.2,0-0.3,0-0.5c-0.4-0.1-0.9-0.3-1.3-0.4c-0.3,0.4-0.6,0.7-0.8,1.1c-1.2,1.4-2.4,2.8-3.6,4.2
				c0.3,0.1,0.6,0.3,0.9,0.4c0.1,0,0.2,0.1,0.2,0.1c0.7-0.7,1.6-1.1,2.7-1.3c2.8-0.4,5.4,1.5,5.8,4.2c0.4,2.8-1.5,5.4-4.2,5.8
				c-1.5,0.2-2.9-0.2-4-1.1l-1.7,0.6c0.8,0.8,1.5,1.8,1.6,3c0.4,2.8-1.5,5.4-4.3,5.8c-1.7,0.3-3.4-0.4-4.5-1.6l-1.1,0.2
				c0.7,0.7,1.1,1.6,1.3,2.7c0.4,2.8-1.5,5.4-4.2,5.8c-2,0.3-3.9-0.6-5-2.1l-1.1,0.3c0.5,0.7,0.8,1.4,1,2.3c0.4,2.8-1.5,5.4-4.2,5.8
				c-2.8,0.4-5.4-1.5-5.8-4.2c-0.1-1,0-1.9,0.3-2.7c-0.5-0.4-1-0.8-1.5-1.2c-2.1,1.3-4.3,2.5-6.4,3.8c0.2,0.2,0.3,0.4,0.5,0.6
				c0.2-0.1,0.4-0.1,0.6-0.1c2.8-0.4,5.4,1.5,5.8,4.2c0.4,2.8-1.5,5.4-4.2,5.8c-2.8,0.4-5.4-1.5-5.8-4.2c-0.1-0.8,0-1.7,0.2-2.4
				c-0.4-0.3-0.8-0.7-1.1-1.1c-0.8,0.6-1.6,1.2-2.4,1.9C51,209.8,48.6,212.6,48.3,216.7z"/>
			<path fill="#DDDDEF" d="M44.6,195.5c0.4,0.5,0.7,1,1.1,1.5c0.2,0.3,0.5,0.6,0.7,0.9c0.1,0.1,0.2,0.3,0.3,0.4
				c0.5,0.5,1,1.1,1.5,1.6c0.2,0.2,0.3,0.3,0.5,0.5c0.7,0.7,1.5,1.5,2.2,2.2c0.6-0.5,1.2-1,1.8-1.4c-0.5-0.6-1-1.2-1.5-1.8
				c-0.2-0.2-0.4-0.4-0.5-0.6c-0.8-0.9-1.6-1.8-2.3-2.8c0,0,0,0,0,0c-0.4-0.5-0.9-1.1-1.3-1.6C46.2,194.7,45.4,195.1,44.6,195.5z"/>
			<path fill="#F7EFDD" d="M46.1,190.5c0.2,0.2,0.3,0.4,0.5,0.6c0.6,0.8,1.1,1.6,1.7,2.4c1.2,1.7,2.4,3.5,3.8,5.1
				c0.5,0.6,1,1.2,1.6,1.8c0.7,0.7,1.4,1.4,2.1,2.2c0.3,0.3,0.6,0.6,0.9,0.9c0.3,0.3,0.7,0.7,1,1c0.2,0.2,0.4,0.4,0.6,0.6
				c0.3,0.3,0.6,0.7,0.9,1c0.1,0.1,0.3,0.3,0.4,0.4c0.4-0.8,1.1-1.3,2-1.6c-0.1-0.1-0.3-0.3-0.4-0.4c-0.3-0.3-0.7-0.7-1-1l0,0
				c-0.1-0.1-0.3-0.3-0.4-0.4c-0.3-0.3-0.6-0.7-0.9-1c-0.3-0.3-0.6-0.7-0.9-1c-0.7-0.7-1.3-1.5-1.9-2.2c-0.6-0.7-1.1-1.3-1.7-2
				c-1.2-1.5-2.5-3-3.7-4.6c-0.6-0.8-1.2-1.6-1.7-2.4c-0.1-0.2-0.2-0.3-0.3-0.5c-0.5,0.1-1,0.3-1.4,0.5
				C46.7,190,46.4,190.3,46.1,190.5z"/>
			<path fill="#DDDDEF" d="M51.7,191.6c1.2,1.7,2.4,3.5,3.7,5.2c0.4,0.6,0.9,1.1,1.3,1.7c0.3-0.2,0.5-0.3,0.8-0.5
				c1.6-1,3.1-1.9,4.7-2.8c-0.6-0.5-1.2-1.1-1.8-1.6c-1.5-1.4-3.2-2.8-4.8-4.3C54.4,189.9,53,190.8,51.7,191.6z"/>
			<path d="M56.7,198.4l-0.8,0.5c0.6,0.8,1.3,1.5,1.9,2.2c0.3,0.3,0.6,0.7,0.9,1c0.3,0.3,0.6,0.7,0.9,1l0.8-0.5
				c2.1-1.3,4.3-2.5,6.4-3.8c0.5,0.4,1,0.8,1.5,1.2l0.6-0.8c0,0-0.1-0.1-0.1-0.1c-0.4-0.3-0.7-0.6-1-0.8c-0.4-0.3-0.8-0.7-1.3-1
				c-0.4-0.3-0.7-0.6-1.1-0.9c-0.8-0.6-1.5-1.3-2.3-2c-0.1-0.1-0.2-0.1-0.2-0.2l-0.7,0.8c-1.6,0.9-3.1,1.9-4.7,2.8
				C57.3,198.1,57,198.2,56.7,198.4z M59.5,201.7c-0.3-0.3-0.6-0.7-0.9-1c2-1.3,4-2.5,5.9-3.6c0.4,0.3,0.7,0.6,1.1,0.9
				c-1.8,1.2-3.6,2.3-5.5,3.4C59.9,201.4,59.7,201.5,59.5,201.7z"/>
			<path fill="#F7EFDD" d="M54.3,185.7c0.1,0.1,0.3,0.3,0.4,0.4c0.7,0.7,1.4,1.4,2.1,2.2c1.5,1.6,3,3.2,4.6,4.7
				c0.5,0.4,1,0.9,1.5,1.3c0.1,0.1,0.2,0.1,0.2,0.2c0.8,0.7,1.5,1.3,2.3,2c0.4,0.3,0.7,0.6,1.1,0.9c0.4,0.3,0.8,0.7,1.3,1
				c0.4,0.3,0.7,0.6,1,0.8c0,0,0.1,0.1,0.1,0.1c0.3,0.2,0.6,0.5,0.9,0.7c0.1,0.1,0.3,0.2,0.4,0.4c0.4-0.6,0.9-1.1,1.6-1.3
				c-0.2-0.1-0.3-0.3-0.5-0.4c-0.4-0.3-0.7-0.6-1.1-0.9c-0.2-0.2-0.4-0.4-0.6-0.5c-0.4-0.4-0.8-0.8-1.3-1.1
				c-0.3-0.3-0.6-0.6-0.9-0.9c-0.7-0.7-1.5-1.4-2.2-2c-0.9-0.8-1.8-1.7-2.7-2.5c-1.3-1.2-2.7-2.3-4.2-3.6c-0.8-0.7-1.5-1.3-2.3-2.1
				c-0.1-0.1-0.3-0.3-0.4-0.4c-0.2,0.1-0.4,0.2-0.5,0.3C55.1,185.1,54.7,185.4,54.3,185.7z"/>
			<path fill="#DDDDEF" d="M58.6,200.6c0.3,0.3,0.6,0.7,0.9,1c0.2-0.1,0.4-0.2,0.6-0.4c1.9-1.1,3.7-2.3,5.5-3.4
				c-0.4-0.3-0.7-0.6-1.1-0.9C62.6,198.2,60.6,199.4,58.6,200.6z"/>
			<path fill="#596E92" d="M60.5,208.4c0,0.1,0.1,0.3,0.1,0.4c0.3,0.8,1.2,1.3,2,1.2c1-0.2,1.7-1.1,1.6-2.2
				c-0.1-0.4-0.2-0.7-0.4-0.9c-0.1,0.1-0.3,0.1-0.5-0.1c-0.2-0.2-0.4-0.4-0.5-0.5c-0.2-0.1-0.5-0.1-0.7,0c-0.8,0.1-1.4,0.7-1.6,1.5
				C60.4,208,60.4,208.2,60.5,208.4z"/>
			<path fill="#DDDDEF" d="M62.8,184.1c-0.9,0.7-1.8,1.4-2.8,2c1.5,1.5,3,3.2,4.4,4.5c0.7,0.6,1.3,1.3,2,1.9
				c1.2-0.8,2.5-1.6,3.7-2.4c-0.5-0.4-1-0.8-1.5-1.2C66.8,187.5,64.7,185.9,62.8,184.1z"/>
			<path fill="#F7EFDD" d="M61.4,180.7c0.1,0.1,0.3,0.3,0.4,0.4c0.8,0.7,1.5,1.4,2.2,2.1c1.9,1.8,3.7,3.7,5.7,5.3
				c0.4,0.4,0.9,0.7,1.4,1.1c0.8,0.6,1.6,1.2,2.4,1.8c0.3,0.2,0.7,0.5,1,0.7c0.5,0.3,1,0.7,1.5,1c0.3,0.2,0.6,0.4,0.8,0.6
				c0.3,0.2,0.6,0.4,0.9,0.6c0.4,0.3,0.8,0.5,1.2,0.7c0.2,0.1,0.3,0.2,0.5,0.3c0.2-0.9,0.7-1.6,1.5-2.1c-0.2-0.1-0.3-0.2-0.5-0.3
				c-0.4-0.3-0.7-0.5-1.1-0.8c-0.3-0.2-0.6-0.4-0.9-0.7c-0.5-0.3-0.9-0.7-1.4-1.1c-0.3-0.2-0.6-0.5-0.9-0.7
				c-0.8-0.6-1.5-1.2-2.3-1.8c-0.5-0.4-1-0.8-1.5-1.2c-2-1.6-4.1-3.3-6.1-5c-0.8-0.7-1.5-1.4-2.2-2.1c-0.2-0.2-0.3-0.3-0.4-0.5
				c-0.1,0-0.1,0.1-0.2,0.1C62.6,179.5,61.9,180.1,61.4,180.7z"/>
			<path d="M62.7,178.2l0.6,0.9c0.1,0,0.1-0.1,0.2-0.1c0.1,0.2,0.3,0.3,0.4,0.5c0.7,0.7,1.5,1.4,2.2,2.1c2,1.7,4.1,3.4,6.1,5
				c0.5,0.4,1,0.8,1.5,1.2c0.7,0.6,1.5,1.2,2.3,1.8c0.3,0.2,0.6,0.5,0.9,0.7c0.5,0.4,0.9,0.7,1.4,1.1c0.3,0.2,0.6,0.4,0.9,0.7
				c0.4,0.3,0.7,0.5,1.1,0.8c0.2,0.1,0.3,0.2,0.5,0.3c-0.7,0.5-1.3,1.2-1.5,2.1c-0.2-0.1-0.3-0.2-0.5-0.3c-0.4-0.2-0.8-0.5-1.2-0.7
				c-0.3-0.2-0.6-0.4-0.9-0.6l-0.5,0.8c0.4,0.2,0.8,0.5,1.2,0.7c-0.1,0.5-0.1,1,0,1.5c0.1,0.8,0.4,1.5,0.8,2.1c1.1,1.6,3,2.5,5,2.1
				c2.8-0.4,4.7-3,4.2-5.8c-0.2-1-0.6-2-1.3-2.7c-1.1-1.2-2.8-1.8-4.5-1.6c-0.6,0.1-1.2,0.3-1.7,0.6c-0.3-0.2-0.6-0.5-0.9-0.7
				c1.4-1.1,2.7-2.2,4.1-3.3c0.9,0.5,1.8,1,2.7,1.4c0,0.2,0,0.5,0.1,0.7c0.2,1,0.6,2,1.3,2.7c1.1,1.2,2.8,1.8,4.5,1.6
				c2.8-0.4,4.7-3,4.3-5.8c-0.2-1.2-0.8-2.3-1.6-3c-1.1-1-2.6-1.5-4.2-1.2c-0.8,0.1-1.5,0.4-2.2,0.9c-0.3-0.2-0.7-0.4-1-0.6
				c1.7-1.5,3.3-3.1,4.8-4.7c0.8,0.4,1.6,0.7,2.4,1c0,0.3,0,0.6,0.1,0.9c0.2,1.3,0.9,2.4,1.8,3.2c1.1,0.9,2.5,1.3,4,1.1
				c2.8-0.4,4.7-3,4.2-5.8c-0.4-2.8-3-4.7-5.8-4.2c-1,0.2-2,0.6-2.7,1.3c-0.1,0-0.2-0.1-0.2-0.1l-0.4,0.8c0.4,0.2,0.8,0.4,1.2,0.6
				c0.2,0.1,0.4,0.2,0.5,0.2c-0.5,0.5-0.9,1.3-0.9,2.1c-0.2-0.1-0.4-0.2-0.5-0.3c-0.4-0.2-0.8-0.4-1.2-0.6c-0.6-0.3-1.2-0.6-1.8-0.9
				c-0.5-0.2-0.9-0.4-1.3-0.7c-0.4-0.2-0.8-0.4-1.2-0.6c-0.9-0.4-1.7-0.9-2.6-1.3c-1-0.5-2-1.1-2.9-1.7c-1.9-1.2-3.8-2.5-5.6-3.9
				c-0.8-0.6-1.6-1.2-2.5-1.8c-0.1-0.1-0.3-0.2-0.4-0.3c0.2-0.2,0.3-0.5,0.5-0.7c0.4-0.5,0.9-1,1.4-1.4c0.2,0.2,0.3,0.3,0.5,0.5
				c0.7,0.7,1.5,1.3,2.3,1.9c1.8,1.4,3.8,2.7,5.5,3.8c0.5,0.3,1,0.7,1.5,1l0.5-0.8c-0.5-0.3-1-0.6-1.5-1c-1.8-1.2-3.6-2.5-5.3-3.9
				c1.3-1.3,2.4-2.7,3.5-4.1c2.1,1.4,4.3,2.6,6.5,3.7c0.4,0.2,0.8,0.4,1.2,0.6l0.5-0.9c-2.6-1.3-5-2.9-7.4-4.5
				c-0.8-0.6-1.6-1.1-2.5-1.7c-0.2-0.1-0.4-0.3-0.6-0.4c0.2-0.4,0.5-0.8,0.7-1.2c0.3-0.5,0.7-1,1.1-1.4l-0.9-0.2
				c-0.3,0.4-0.6,0.8-0.9,1.1c-0.2,0.3-0.5,0.7-0.8,1.2c-0.2,0.3-0.4,0.7-0.6,1.1c0.3,0.2,0.6,0.5,0.9,0.7c0.1,0.1,0.3,0.2,0.4,0.3
				c-1,1.4-2.2,2.6-3.3,3.9c-0.1-0.1-0.2-0.2-0.4-0.3c-0.2-0.2-0.4-0.4-0.7-0.6c-0.4,0.2-0.7,0.4-1,0.7c-0.6,0.4-1.1,1-1.5,1.4
				c-0.2,0.2-0.4,0.5-0.7,0.8c-0.3,0.3-0.5,0.7-0.7,1.1c0.3,0.3,0.6,0.5,1,0.8c0,0,0.1,0.1,0.1,0.1c-0.1,0.1-0.2,0.2-0.3,0.3
				c-0.3,0.3-0.6,0.6-0.9,0.8c-0.5,0.5-1.1,1-1.6,1.5c-0.4,0.4-0.9,0.8-1.3,1.2c-0.1-0.1-0.2-0.2-0.3-0.3c-0.3-0.2-0.5-0.4-0.8-0.7
				c-0.4,0.2-0.8,0.4-1.2,0.6c-0.7,0.4-1.4,1-2,1.7c-0.3,0.3-0.6,0.6-0.8,0.9c0.3,0.3,0.6,0.6,0.9,0.8c0.1,0.1,0.3,0.2,0.4,0.4
				c-0.8,0.7-1.7,1.4-2.6,2.1c-0.1-0.1-0.2-0.2-0.3-0.2c-0.3-0.2-0.6-0.4-0.9-0.7C63.3,177.9,63,178,62.7,178.2z M67.2,180.6
				c0.9-0.7,1.7-1.4,2.6-2.1c2.2,1.7,4.5,3.2,6.7,4.7c0.5,0.4,1.1,0.7,1.6,1.1c-0.6,0.5-1.3,1-1.9,1.5c-0.5,0.4-1.1,0.8-1.6,1.2
				c-0.4-0.3-0.8-0.7-1.2-1C71.3,184.3,69.2,182.4,67.2,180.6z M68.5,175.6c-0.2-0.2-0.4-0.3-0.6-0.5c0.3-0.3,0.6-0.6,0.9-0.9
				c0.3-0.3,0.6-0.5,1-0.7c0.2,0.2,0.4,0.3,0.5,0.5c0.7,0.7,1.5,1.3,2.4,1.9c1.8,1.3,3.7,2.6,5.3,3.7c1,0.7,2.1,1.4,3.1,2.1
				c0.8,0.5,1.7,1,2.5,1.5c0.4,0.2,0.8,0.4,1.1,0.7c0.5,0.3,0.9,0.5,1.4,0.8c0.3,0.2,0.7,0.4,1.1,0.5c0.4,0.2,0.8,0.4,1.2,0.6
				c0.2,0.1,0.4,0.2,0.5,0.3c-0.7,0.5-1.1,1.4-1.2,2.3c-0.2-0.1-0.4-0.2-0.5-0.3c-0.4-0.2-0.8-0.4-1.2-0.7c-0.6-0.3-1.2-0.7-1.9-1
				c-0.5-0.3-1-0.5-1.5-0.8c-0.4-0.2-0.8-0.4-1.1-0.6c-0.9-0.5-1.7-1-2.6-1.5c-0.6-0.4-1.3-0.8-1.9-1.2c-2.2-1.5-4.2-3.1-6.2-4.8
				C70.1,176.9,69.3,176.3,68.5,175.6z M73.6,175.1C73.6,175.1,73.6,175.1,73.6,175.1c1.4-1.3,2.9-2.6,4.3-3.9
				c2.2,1.5,4.4,2.8,6.5,4c0.8,0.4,1.5,0.9,2.3,1.3c-1.5,1.5-3.1,3-4.8,4.5c-1.3-0.8-2.6-1.6-3.8-2.5
				C76.6,177.4,75.1,176.3,73.6,175.1z M77.8,189.5c-0.3-0.2-0.6-0.5-0.9-0.7c1.3-1,2.5-2,3.8-3c0.4,0.2,0.7,0.4,1.1,0.7
				C80.4,187.5,79.1,188.6,77.8,189.5z M78.7,196.4c0-0.2,0-0.3,0-0.5c0.2,0.1,0.4,0.2,0.6,0.3c0,0,0,0.1,0,0.1
				c0.3,1.7,1.9,2.9,3.7,2.7c1.7-0.3,3-1.9,2.7-3.7c-0.3-1.7-1.9-3-3.7-2.7c-0.1,0-0.2,0-0.3,0.1c-0.2-0.1-0.3-0.3-0.5-0.4
				c0.2-0.1,0.5-0.2,0.7-0.2c2.1-0.3,4,1.1,4.3,3.1s-1.1,4-3.1,4.3C81,199.8,79.1,198.4,78.7,196.4z M80.6,196.1c0,0,0-0.1,0-0.1
				c-0.1-0.9,0.5-1.8,1.5-2c0,0,0.1,0,0.1,0c0.8-0.1,1.7,0.3,2,1.1c0.1,0.2,0.1,0.3,0.2,0.5c0.2,1-0.6,2-1.6,2.2
				c-0.4,0.1-0.8,0-1.2-0.2C81,197.2,80.7,196.7,80.6,196.1z M85.6,183.2c-0.4-0.2-0.8-0.4-1.2-0.7c1.6-1.5,3.3-3,4.8-4.6
				c0.4,0.2,0.8,0.4,1.2,0.6C88.9,180.1,87.3,181.7,85.6,183.2z M87.3,189.4c0.2,0.1,0.4,0.2,0.6,0.3c0.5,1.5,2,2.4,3.5,2.2
				c1.8-0.3,3-1.9,2.7-3.7c-0.3-1.7-1.9-3-3.7-2.7c-0.2,0-0.3,0.1-0.5,0.1c-0.2-0.1-0.4-0.2-0.6-0.3c0.3-0.1,0.6-0.3,1-0.3
				c2.1-0.3,4,1.1,4.3,3.1c0.3,2-1.1,4-3.1,4.3C89.5,192.7,87.7,191.3,87.3,189.4z M89.2,189.2c0-0.1,0-0.2-0.1-0.3
				c-0.1-1,0.5-1.9,1.4-2.1c0.1,0,0.1,0,0.2,0c0.5-0.1,1.1,0.1,1.5,0.4c0.4,0.3,0.6,0.7,0.7,1.2c0.2,1-0.6,2-1.6,2.2
				c-0.1,0-0.3,0-0.4,0C90.1,190.5,89.4,190,89.2,189.2z M95.6,180.9c0,0,0-0.1,0-0.1c0.2,0.1,0.4,0.1,0.6,0.2
				c0.3,1.7,1.9,2.8,3.6,2.5c1.7-0.3,2.9-1.9,2.7-3.7c-0.3-1.7-1.9-2.9-3.7-2.7c-0.4,0.1-0.7,0.2-1,0.3c-0.2-0.1-0.4-0.2-0.6-0.3
				c0.5-0.3,1-0.5,1.6-0.6c2-0.3,4,1.1,4.3,3.1c0.3,2.1-1.1,4-3.1,4.3C97.8,184.4,95.9,182.9,95.6,180.9z M97.5,180.9
				c0-0.1-0.1-0.2-0.1-0.3c-0.1-0.8,0.3-1.5,0.9-1.9c0.2-0.1,0.4-0.2,0.7-0.2c0.7-0.1,1.4,0.2,1.8,0.8c0.2,0.2,0.3,0.5,0.3,0.8
				c0.2,1-0.5,2-1.6,2.2c-0.7,0.1-1.3-0.2-1.8-0.7C97.7,181.3,97.6,181.1,97.5,180.9z"/>
			<path fill="#DDDDEF" d="M68.6,194.5c0.3,0.3,0.6,0.6,0.9,0.8c1.4-0.9,2.7-1.8,4.1-2.8c-0.3-0.2-0.7-0.5-1-0.7c-1,0.7-2,1.3-2.9,2
				C69.3,194.1,69,194.3,68.6,194.5z"/>
			<path fill="#596E92" d="M71.2,202.1c0,0.1,0,0.1,0,0.2c0.2,1,1.1,1.7,2.2,1.6c1-0.2,1.7-1.1,1.6-2.2c0-0.3-0.2-0.6-0.3-0.8
				c-0.3-0.4-0.8-0.7-1.3-0.8c-0.2,0-0.3,0-0.5,0c-0.6,0.1-1.2,0.5-1.4,1C71.3,201.4,71.2,201.8,71.2,202.1z"/>
			<path fill="#DDDDEF" d="M70.8,196.5c0.2,0.2,0.5,0.4,0.7,0.7c0.3-0.1,0.6-0.2,0.9-0.2c1.9-0.3,3.7,0.5,4.8,1.9l1.1-0.3
				c-0.4-0.6-0.7-1.3-0.8-2.1c-0.1-0.5-0.1-1,0-1.5c-0.4-0.2-0.8-0.5-1.2-0.7c-0.4-0.2-0.8-0.5-1.2-0.7c-1.2,0.8-2.4,1.7-3.6,2.5
				C71.2,196.2,71,196.4,70.8,196.5z"/>
			<path fill="#DDDDEF" d="M69.8,178.5c-0.9,0.7-1.7,1.4-2.6,2.1c2.1,1.8,4.1,3.7,6.2,5.4c0.4,0.3,0.8,0.7,1.2,1
				c0.5-0.4,1.1-0.8,1.6-1.2c0.7-0.5,1.3-1,1.9-1.5c-0.5-0.4-1.1-0.7-1.6-1.1C74.3,181.7,72,180.2,69.8,178.5z"/>
			<path fill="#F7EFDD" d="M67.9,175.2c0.2,0.2,0.4,0.3,0.6,0.5c0.8,0.6,1.6,1.3,2.4,1.9c2,1.7,4.1,3.3,6.2,4.8
				c0.6,0.4,1.2,0.8,1.9,1.2c0.8,0.5,1.7,1,2.6,1.5c0.4,0.2,0.8,0.4,1.1,0.6c0.5,0.3,1,0.5,1.5,0.8c0.6,0.3,1.2,0.7,1.9,1
				c0.4,0.2,0.8,0.4,1.2,0.7c0.2,0.1,0.3,0.2,0.5,0.3c0.1-0.9,0.5-1.7,1.2-2.3c-0.2-0.1-0.4-0.2-0.5-0.3c-0.4-0.2-0.8-0.4-1.2-0.6
				c-0.4-0.2-0.7-0.4-1.1-0.5c-0.5-0.3-1-0.5-1.4-0.8c-0.4-0.2-0.8-0.4-1.1-0.7c-0.8-0.5-1.7-1-2.5-1.5c-1.1-0.7-2.1-1.4-3.1-2.1
				c-1.6-1.1-3.5-2.3-5.3-3.7c-0.8-0.6-1.6-1.2-2.4-1.9c-0.2-0.2-0.4-0.3-0.5-0.5c-0.3,0.2-0.7,0.4-1,0.7
				C68.5,174.6,68.1,174.9,67.9,175.2z"/>
			<path fill="#DDDDEF" d="M73.7,175.1C73.6,175.1,73.6,175.1,73.7,175.1c1.4,1.2,2.9,2.3,4.4,3.4c1.3,0.9,2.5,1.7,3.8,2.5
				c1.6-1.4,3.2-2.9,4.8-4.5c-0.8-0.4-1.5-0.9-2.3-1.3c-2.1-1.2-4.4-2.5-6.5-4C76.5,172.6,75,173.8,73.7,175.1z"/>
			<path fill="#DDDDEF" d="M76.8,188.8c0.3,0.2,0.6,0.5,0.9,0.7c1.3-1,2.6-2,3.9-3.1c-0.4-0.2-0.7-0.4-1.1-0.7
				C79.4,186.8,78.1,187.8,76.8,188.8z"/>
			<path fill="#DDDDEF" d="M79.1,190.6c0.3,0.2,0.6,0.5,0.9,0.7c0.5-0.3,1.1-0.5,1.7-0.6c1.7-0.3,3.4,0.4,4.5,1.6l1.1-0.2
				c-0.7-0.7-1.1-1.6-1.3-2.7c0-0.2-0.1-0.5-0.1-0.7c-0.9-0.4-1.8-0.9-2.7-1.4C81.8,188.5,80.5,189.6,79.1,190.6z"/>
			<path fill="#F7EFDD" d="M76,168.2c0.1,0.1,0.3,0.2,0.4,0.3c0.8,0.6,1.6,1.2,2.5,1.8c1.8,1.4,3.6,2.7,5.6,3.9
				c1,0.6,1.9,1.1,2.9,1.7c0.9,0.5,1.7,0.9,2.6,1.3c0.4,0.2,0.8,0.4,1.2,0.6c0.4,0.2,0.9,0.4,1.3,0.7c0.6,0.3,1.2,0.6,1.8,0.9
				c0.4,0.2,0.8,0.4,1.2,0.6c0.2,0.1,0.4,0.2,0.5,0.3c0-0.8,0.4-1.5,0.9-2.1c-0.2-0.1-0.4-0.2-0.5-0.2c-0.4-0.2-0.8-0.4-1.2-0.6
				c-0.4-0.2-0.7-0.4-1.1-0.5c-0.4-0.2-0.9-0.4-1.3-0.7c-0.4-0.2-0.8-0.4-1.2-0.6c-0.8-0.5-1.7-0.9-2.5-1.4
				c-0.4-0.3-0.9-0.5-1.3-0.8c-0.5-0.3-1-0.7-1.5-1c-1.7-1.1-3.7-2.4-5.5-3.8c-0.8-0.6-1.6-1.3-2.3-1.9c-0.2-0.2-0.3-0.3-0.5-0.5
				c-0.5,0.4-1,0.9-1.4,1.4C76.3,167.7,76.1,167.9,76,168.2z"/>
			<path fill="#596E92" d="M80.6,195.9c0,0,0,0.1,0,0.1c0.1,0.6,0.5,1.1,1,1.4c0.4,0.2,0.8,0.3,1.2,0.2c1-0.2,1.7-1.1,1.6-2.2
				c0-0.2-0.1-0.4-0.2-0.5c-0.3-0.7-1.2-1.2-2-1.1c0,0-0.1,0-0.1,0C81.1,194.1,80.5,195,80.6,195.9z"/>
			<path fill="#DDDDEF" d="M84.4,182.5c0.4,0.2,0.8,0.4,1.2,0.7c1.7-1.5,3.3-3,4.9-4.6c-0.4-0.2-0.8-0.4-1.2-0.6
				C87.7,179.5,86.1,181,84.4,182.5z"/>
			<path fill="#F7EFDD" d="M82.8,160.2c0.2,0.1,0.4,0.3,0.6,0.4c0.8,0.6,1.6,1.2,2.5,1.7c2.4,1.6,4.8,3.2,7.4,4.5c0,0,0.1,0,0.1,0.1
				c0.5,0.2,0.9,0.4,1.4,0.6c0.9,0.4,1.8,0.7,2.7,1.1c0.3,0.1,0.7,0.2,1,0.4c0.5,0.2,1,0.4,1.5,0.6c0.2,0.1,0.4,0.1,0.5,0.2
				c0.4,0.1,0.8,0.3,1.3,0.5c0.2,0.1,0.4,0.1,0.5,0.2c0.1-0.9,0.7-1.7,1.5-2.2c-0.2-0.1-0.4-0.1-0.7-0.2c-0.4-0.1-0.9-0.3-1.3-0.5
				c0,0,0,0-0.1,0c-0.1,0-0.1,0-0.2-0.1c-0.5-0.2-1-0.4-1.5-0.6c-0.3-0.1-0.7-0.3-1-0.4c-0.8-0.3-1.6-0.7-2.4-1.1
				c-0.1,0-0.1-0.1-0.2-0.1c-1-0.5-2-1-2.9-1.5c-2-1.1-4.2-2.4-6.2-3.8c-0.8-0.6-1.7-1.2-2.4-1.9c-0.2-0.1-0.3-0.3-0.5-0.4
				c-0.4,0.5-0.8,0.9-1.1,1.4C83.3,159.4,83,159.8,82.8,160.2z"/>
			<path fill="#DDDDEF" d="M87,183.9c0.4,0.2,0.7,0.4,1,0.6c0.6-0.4,1.4-0.7,2.2-0.9c1.6-0.2,3.1,0.3,4.2,1.2l1.7-0.6
				c-0.9-0.8-1.6-1.9-1.8-3.2c0-0.3-0.1-0.6-0.1-0.9c-0.8-0.3-1.6-0.7-2.4-1C90.3,180.8,88.6,182.4,87,183.9z"/>
			<path fill="#DDDDEF" d="M85.1,163.5c-1.1,1.4-2.3,2.8-3.5,4.1c1.7,1.4,3.5,2.7,5.3,3.9c0.5,0.3,1,0.6,1.5,1
				c0.5,0.3,1,0.6,1.5,0.9c0.8-0.9,1.7-1.8,2.5-2.7c0.6-0.7,1.2-1.4,1.8-2.1c-0.4-0.2-0.9-0.4-1.3-0.7s-0.8-0.4-1.2-0.6
				C89.4,166.1,87.2,164.8,85.1,163.5z"/>
			<path d="M83.7,157.4l0.9,0.2c0.2,0.1,0.3,0.3,0.5,0.4c0.7,0.7,1.6,1.3,2.4,1.9c2,1.5,4.3,2.7,6.2,3.8c1,0.5,1.9,1.1,2.9,1.5
				c0.1,0,0.1,0.1,0.2,0.1l0.4-0.8c-1.2-0.6-2.3-1.2-3.4-1.8c-2-1.1-3.8-2.6-5.7-4c0.7-1.2,1.2-2.5,1.7-3.8c0.8-2.4,1.5-5.2,4-6.4
				c2.6-1.2,5.5,0,7.9,1.4c3.3,1.9,6.1,4.6,8.2,7.6l1.4-0.6c-4.3-6.9-13.7-15.3-20.6-9.1c-2.5,2.3-3.6,5.9-5.1,9.1
				c-0.1-0.1-0.2-0.1-0.3-0.2c-0.2-0.2-0.4-0.3-0.7-0.4c-0.2,0.2-0.5,0.4-0.7,0.7C83.9,157.1,83.8,157.2,83.7,157.4z"/>
			<path fill="#596E92" d="M89.1,188.9c0,0.1,0,0.2,0.1,0.3c0.2,0.8,0.9,1.3,1.7,1.3c0.1,0,0.3,0,0.4,0c1-0.2,1.7-1.1,1.6-2.2
				c-0.1-0.5-0.3-0.9-0.7-1.2c-0.4-0.3-0.9-0.5-1.5-0.4c-0.1,0-0.1,0-0.2,0C89.6,187.1,89,188,89.1,188.9z"/>
			<path d="M87.8,173.2c0.4,0.3,0.9,0.6,1.3,0.8c0.8,0.5,1.7,1,2.5,1.4c0.4,0.2,0.8,0.4,1.2,0.6c0.4,0.2,0.9,0.5,1.3,0.7
				c0.4,0.2,0.7,0.4,1.1,0.5l0.4-0.8c-0.3-0.1-0.6-0.3-0.9-0.4c1.2-1.4,2.4-2.8,3.6-4.2c0.3-0.3,0.6-0.7,0.8-1.1
				c0.4,0.2,0.9,0.3,1.3,0.4c0,0.2,0,0.3,0,0.5c0.4,2.8,3,4.7,5.8,4.2c2.8-0.4,4.7-3,4.2-5.8c-0.4-2.8-3-4.7-5.8-4.3
				c-0.9,0.1-1.7,0.5-2.3,1c-0.1,0-0.2-0.1-0.3-0.1l-0.3,0.7c0.4,0.2,0.9,0.3,1.3,0.5c0.2,0.1,0.4,0.2,0.7,0.2
				c-0.8,0.5-1.3,1.3-1.5,2.2c-0.2-0.1-0.3-0.1-0.5-0.2c-0.4-0.2-0.8-0.3-1.3-0.5c-0.2-0.1-0.4-0.1-0.5-0.2c-0.5-0.2-1-0.4-1.5-0.6
				c-0.3-0.1-0.7-0.2-1-0.4c-0.9-0.3-1.8-0.7-2.7-1.1c-0.5-0.2-0.9-0.4-1.4-0.6c0,0-0.1,0-0.1-0.1l-0.5,0.9c0.4,0.2,0.9,0.4,1.3,0.7
				c-0.6,0.7-1.2,1.4-1.8,2.1c-0.8,0.9-1.7,1.8-2.5,2.7c-0.5-0.3-1-0.6-1.5-0.9L87.8,173.2z M93.5,175.4c-0.4-0.2-0.8-0.4-1.2-0.6
				c1.5-1.6,3-3.3,4.4-5c0.3,0.2,0.7,0.3,1,0.4c-0.8,1.1-1.5,2.1-2.3,3C94.8,173.9,94.1,174.7,93.5,175.4z M101.9,171.7
				c0.2,0.1,0.4,0.1,0.6,0.1c0.4,1.6,2,2.6,3.6,2.3c1.7-0.3,3-1.9,2.7-3.7c-0.3-1.8-1.9-3-3.7-2.7c-0.1,0-0.2,0-0.3,0.1
				c-0.3-0.1-0.5-0.2-0.8-0.3c0.3-0.1,0.6-0.3,1-0.3c2.1-0.3,4,1.1,4.3,3.1c0.3,2-1.1,4-3.1,4.3C104.1,175,102.2,173.6,101.9,171.7z
				 M103.7,171.3c0-0.1,0-0.2,0-0.3c0-0.9,0.7-1.8,1.6-1.9c1-0.2,2,0.6,2.2,1.6c0.2,1-0.6,2-1.6,2.2c-0.7,0.1-1.4-0.2-1.8-0.7
				C103.9,171.9,103.8,171.6,103.7,171.3z"/>
			<path fill="#DDDDEF" d="M89.8,155c-0.5,1.3-1,2.6-1.7,3.8c1.8,1.4,3.6,2.8,5.7,4c1.1,0.6,2.3,1.2,3.4,1.8
				c0.6-0.8,1.2-1.5,1.8-2.3c1.8-2.2,3.8-4.2,6.7-4.7c1.4-0.3,2.9-0.2,4.3,0c-2.2-3.1-4.9-5.8-8.2-7.6c-2.4-1.3-5.3-2.6-7.9-1.4
				C91.3,149.8,90.6,152.6,89.8,155z"/>
			<path fill="#DDDDEF" d="M92.3,174.8c0.4,0.2,0.8,0.4,1.2,0.6c0.7-0.7,1.3-1.4,1.9-2.2c0.8-0.9,1.5-1.9,2.3-3
				c-0.3-0.1-0.7-0.3-1-0.4C95.3,171.5,93.8,173.1,92.3,174.8z"/>
			<path fill="#596E92" d="M97.4,180.6c0,0.1,0,0.2,0.1,0.3c0.1,0.2,0.2,0.4,0.3,0.6c0.4,0.5,1.1,0.8,1.8,0.7c1-0.2,1.7-1.1,1.6-2.2
				c0-0.3-0.2-0.6-0.3-0.8c-0.4-0.6-1.1-0.9-1.8-0.8c-0.2,0-0.5,0.1-0.7,0.2C97.7,179.1,97.3,179.8,97.4,180.6z"/>
			<path d="M97.2,164.6l-0.4,0.8c0.8,0.4,1.6,0.7,2.4,1.1c0.3,0.1,0.7,0.3,1,0.4c0.5,0.2,1,0.4,1.5,0.6c0.1,0,0.1,0,0.2,0.1
				c0,0,0,0,0.1,0l0.3-0.7c0.8-1,1.7-2,2.7-2.7c3.6-2.8,7.9-1.2,11.8-0.2c5.6,1.4,11.5,1.8,17.3,0.9c5.7-0.9,11.1-2.9,16-5.9
				c1.7-1,4.6-3.3,6.8-2.7c0.6,0.2,1.2,0.4,1.7,0.7c0.1,0.2,0.2,0.3,0.3,0.5c1.3,2.8,2.1,6,2.9,8.9l0.3,1c0.2,0.7,0.4,1.3,0.6,2
				l0.3,0.9c2.9,10.1,5.3,20.4,7.2,30.8c-0.3,0.2-0.6,0.4-1,0.6l0.5,0.8c0.2-0.1,0.5-0.3,0.7-0.4c0.4-0.3,0.8-0.6,1.2-1
				c0.1-0.1,0.2-0.2,0.2-0.3l-0.4-0.8c-0.1-1-0.2-2-0.3-3l1.2-0.5c-0.2-0.3-0.3-0.6-0.5-0.9c-0.6-3.9-1.3-7.8-2.2-11.6
				c-1.1-5-2.3-10.4-3.8-15.5c-0.1-0.2-0.1-0.4-0.2-0.6c-0.2-0.7-0.5-1.5-0.7-2.2c-0.1-0.2-0.1-0.4-0.2-0.6c-0.5-1.4-1-2.8-1.6-4.1
				c0,0,0,0,0,0c-0.6-1.8-1.2-3.5-2-5.2c-2.8-5.7-7.7-5.3-12.6-2.4c-6.5,3.9-13.4,6.5-21.1,6.8c-4.4,0.2-8.6-0.5-12.8-1.6
				c-0.8-0.2-1.6-0.4-2.5-0.7c-0.2-0.4-0.4-0.7-0.7-1.1l-1.4,0.6c-1.4-0.2-2.8-0.3-4.3,0c-2.9,0.6-4.9,2.5-6.7,4.7
				C98.4,163.1,97.8,163.9,97.2,164.6z M100.7,166.2c-0.3-0.1-0.7-0.3-1-0.4c1.1-1.6,2.3-3.1,3.8-4.2c2.5-2,5.5-1.5,8.4-0.8
				c0,0,0,0,0,0.1c0.1,0.2,0.2,0.3,0.3,0.3c0,0,0.1,0,0.1,0c0,0,0.1,0,0.1,0c0.1,0,0.3-0.1,0.4-0.1c0.4,0.1,0.7,0.2,1.1,0.3
				c5.6,1.5,11.3,2,17,1.2c6.2-0.8,12-2.9,17.3-6.2c1.6-1,3.3-2.2,5.2-2.5c1.7-0.2,2.8,0.3,3.7,1.2c-1.9-0.3-4.2,0.3-6.5,1.7
				c-6.8,4-13.7,6.8-21.7,7.1c-4.5,0.2-8.8-0.5-13.1-1.6c-1.2-0.3-2.4-0.7-3.6-0.9c0,0-0.1,0-0.1,0c0,0-0.1,0-0.1,0
				c-1.4-0.3-2.7-0.4-4.1-0.2C105.1,161.6,102.7,163.7,100.7,166.2z"/>
			<path fill="#DDDDEF" d="M99.7,165.8c0.3,0.1,0.7,0.3,1,0.4c2-2.5,4.4-4.6,7.4-5c1.4-0.2,2.8,0,4.1,0.2c0,0,0.1,0,0.1,0
				c0,0,0.1,0,0.1,0l0.1-0.3c0,0-0.1,0-0.1,0c0,0-0.1,0-0.1,0c-0.1-0.1-0.3-0.2-0.3-0.3c0,0,0,0,0-0.1c-2.9-0.7-5.9-1.2-8.4,0.8
				C102,162.7,100.8,164.2,99.7,165.8z"/>
			<path fill="#596E92" d="M103.7,171c0,0.1,0,0.2,0,0.3c0,0.3,0.2,0.6,0.3,0.8c0.4,0.5,1.1,0.9,1.8,0.7c1-0.2,1.7-1.1,1.6-2.2
				c-0.2-1-1.1-1.7-2.2-1.6C104.3,169.2,103.7,170.1,103.7,171z"/>
			<path fill="#DDDDEF" d="M112.5,161.2l-0.1,0.3c1.2,0.3,2.4,0.6,3.6,0.9c4.3,1.1,8.6,1.8,13.1,1.6c8-0.3,14.9-3.1,21.7-7.1
				c2.3-1.4,4.5-2,6.5-1.7c-0.9-0.9-2-1.4-3.7-1.2c-2,0.2-3.6,1.4-5.2,2.5c-5.3,3.2-11.2,5.4-17.3,6.2c-5.7,0.7-11.4,0.3-17-1.2
				c-0.4-0.1-0.7-0.2-1.1-0.3C112.8,161.1,112.6,161.2,112.5,161.2z"/>
			<path fill="#DDDDEF" d="M135.8,208.7c0.6-0.1,1.1-0.2,1.7-0.3c-0.1-7.6,2.5-15.4,6.3-21.6c4.4-7.2,11.1-13.4,18.6-17.4
				c-0.2-0.7-0.4-1.3-0.6-2c-7.4,4.2-13.8,9.1-18.7,16.6C138.3,191.6,136.2,199.9,135.8,208.7z"/>
			<path fill="#DDDDEF" d="M145.3,186.6c-4.3,6.8-6,13.9-6.1,21.5c5.8-1.1,11.7-2.3,17.5-3.5c3-0.6,8.5-1,12.2-2.9
				c0.3-0.2,0.7-0.4,1-0.6c-1.9-10.4-4.3-20.7-7.2-30.8C155.9,174.5,149.8,179.6,145.3,186.6z"/>
		</g>
		<g>
			<g>
				<path d="M19.5,55.3C19.5,55.3,19.5,55.2,19.5,55.3C19.4,55.2,19.4,55.3,19.5,55.3L19.5,55.3z"/>
			</g>
		</g>
		<g>
			<g>
				<path d="M19.4,55.3c5.8,3,14.4-1.4,17.6-6.3c0.1-0.2-0.1-0.5-0.3-0.3c-2.6,1.9-5.5,3.7-8.5,4.8c-2.9,1-5.9,0.9-8.7,1.8
					C19.4,55.2,19.4,55.3,19.4,55.3L19.4,55.3z"/>
			</g>
		</g>
		<g>
			<g>
				<path d="M24.4,65.7c5.7,3.5,14.4-0.3,17.6-5.5c0.1-0.2-0.2-0.4-0.4-0.3c-2.5,2-5.3,3.8-8.4,4.6c-2.9,0.8-5.7,0.5-8.7,0.7
					C24.2,65.2,24.1,65.5,24.4,65.7L24.4,65.7z"/>
			</g>
		</g>
		<g>
			<g>
				<path d="M28.9,75.2c7,5.2,17.4,0.7,21.2-6.2c0.1-0.2-0.2-0.5-0.4-0.3c-2.6,2.6-5.8,5.2-9.4,6.2C36.4,76,32.8,75.4,28.9,75.2
					C28.9,75.2,28.9,75.2,28.9,75.2L28.9,75.2z"/>
			</g>
		</g>
	</g>
</g>
</svg>
