<svg version="1.1" xmlns="http://www.w3.org/2000/svg" xmlns:xlink="http://www.w3.org/1999/xlink" x="0px" y="0px"
	 viewBox="0 0 363.5 307.1" enable-background="new 0 0 363.5 307.1" xml:space="preserve">
<g id="baby">
	<g opacity="0.6">
		<path fill="#2D4C34" d="M347.5,89.8l-0.1-4.1l-21.2,1.8l-83.5,39l-84.7,38.2l-56.6-31.7l-64.8,41.1c0,0,7.8,49.6,32.6,59.9
			c3.9,1.6,8.4,3.2,13.2,4.7l-16.3,31.3l-29.5,37h22.5l2.5-15c29.6-5.9,46.2-30.1,54.5-47.4c16.7,0.4,32.5-3.8,41.5-17.1
			c1.8-2.6,3.4-5.2,4.9-7.7c114.5-25.5,156.6-105.8,156.6-105.8c12.9-6.4,28.5-22,28.5-22L347.5,89.8z"/>
		<path fill="#2D4C34" d="M155,108.6c59,40.5,61.4-15.4,61.4-15.4l-55.7-22.9l-14.2-34.7l-40.9-18.3C105.6,17.3,96,68.1,155,108.6z"
			/>
	</g>
	<g>
		<g id="BABYXMLID_9_">
			<path d="M357.1,75.2c-0.2,0.2-0.5,0.4-0.8,0.6c-0.2-0.7-0.5-1.4-0.8-2.1c0.4-0.3,0.7-0.6,1.1-0.9C356.9,73.6,357,74.4,357.1,75.2
				z"/>
			<path d="M356.2,71.7c0.2,0.4,0.3,0.7,0.4,1.1c-0.4,0.3-0.7,0.6-1.1,0.9c-0.2-0.6-0.4-1.1-0.7-1.7c-0.4-1-0.9-1.9-1.4-2.9
				c-0.2-0.3-0.3-0.5-0.4-0.7c0.5-0.1,0.9-0.1,1.4-0.1c0,0,0.1,0,0.1,0C355.3,69.4,355.8,70.9,356.2,71.7z"/>
			<path d="M355.6,73.7c0.3,0.7,0.5,1.4,0.8,2.1c-3,2.4-6.2,4.5-9,6.6c-6.9,4.9-14,9.2-21.8,12.4c0.3-0.4,0.6-0.8,0.8-1.2
				c6.6-3.8,13.3-7.8,19.5-12.2c2.4-1.7,4.7-3.4,6.9-5.3C353.7,75.4,354.6,74.6,355.6,73.7z"/>
			<path fill="#E5D0B1" d="M354.9,72.1c0.2,0.6,0.4,1.1,0.7,1.7c-0.9,0.8-1.9,1.6-2.9,2.4l-0.3-0.4c0,0,0-0.1,0-0.1
				c-0.8-0.8-1.3-1.7-1.8-2.7c-0.4-1-0.6-2-1-3c0,0-0.1-0.1-0.1,0l-0.1-0.5c0.8-0.3,1.6-0.6,2.4-0.8c0.4-0.1,0.8-0.2,1.2-0.2
				c0.1,0.2,0.3,0.4,0.4,0.7C354,70.1,354.5,71.1,354.9,72.1z"/>
			<path d="M354.5,68.4c0,0-0.1,0-0.1,0c-0.5,0-0.9,0.1-1.4,0.1c-0.2-0.3-0.2-0.6-0.2-1c0,0,0-0.1,0-0.1c0.1,0,0.3-0.1,0.5-0.1
				C353.8,67.6,354.2,67.9,354.5,68.4z"/>
			<path d="M353.1,67.3c0.1,0,0.1,0,0.2,0.1c-0.2,0-0.3,0-0.5,0.1C352.9,67.4,353,67.3,353.1,67.3z"/>
			<path d="M352.9,67.5C352.8,67.5,352.8,67.5,352.9,67.5c-0.1,0.5,0,0.8,0.2,1.1c-0.4,0-0.8,0.1-1.2,0.2c-0.8,0.2-1.6,0.5-2.4,0.8
				c-0.2,0.1-0.5,0.2-0.8,0.2c-0.1-0.3-0.2-0.5-0.3-0.8c0.9-0.5,2-0.9,3-1.1C351.7,67.7,352.3,67.6,352.9,67.5z"/>
			<g>
				<defs>
					<path id="BABYXMLID_60_" d="M352.4,75.8l0.3,0.4c-2.2,1.8-4.5,3.6-6.9,5.3c-6.2,4.4-12.9,8.4-19.5,12.2c0.3-0.5,0.7-1,1-1.6
						c0.1-0.2-0.2-0.4-0.4-0.3c-1.2,1.1-2.3,2.2-3.4,3.4c-0.2,0.2-0.3,0.3-0.5,0.5c-2.9,3.2-5.6,6.8-8.7,9.8
						c-4.7,4.5-9.3,9.1-14.2,13.4c-4.6,4.1-9.4,8.1-14.4,11.9c-4.7,3.6-9.8,6.9-14.1,10.9c1.1-17.6,0-36.4-7.4-52.1
						c0.3-0.3,0.6-0.7,0.9-0.9c1.6-1.3,3.3-1.5,5.2-1.3c0.4,0,0.7,0.1,1.1,0.2c0.2,0,0.4,0.1,0.6,0.1c-3.5,10.5,2.4,22.2,11,28.6
						c0,0,0.1-0.1,0.1-0.1c-4.2-3.6-7.4-8.8-9-14.1c-1.6-5.2-1.1-10.2-0.3-15.3c6.1-2.3,12.1-4.6,18.4-6.4c7.4-2.1,15-2.6,22.3-4.5
						c0.3-0.1,0.2-0.4-0.1-0.5c-1.6-0.1-3.2-0.1-4.8,0c7.2-7.1,13.3-17.6,16.3-28l1.7,0.5c1.5,1.2,3.5,1.9,5.4,1.7l1.1,0.2
						c-0.1,0.4-0.1,0.8-0.2,1.2c0,0.5-0.1,1,0,1.4c0.1,0,0.1,0.1,0.2,0.1c0.4,0.3,0.7,0.5,1,0.8c0.1,0.1,0.2,0.1,0.3,0.2
						c0.3-0.3,0.6-0.7,0.9-1c0.3-0.4,0.7-0.7,1-1l0.9,0.9c-0.2,0.9,0.7,1.8,1.3,2.4c0.8,0.7,1.6,1.1,2.7,1.2c0,0,0,0,0,0l0.6,0.4
						c-0.3,0.5-0.7,0.9-1,1.3c-0.2,0.3-0.4,0.6-0.7,0.8c0,0.1,0.1,0.1,0.1,0.2c0,0,0,0.1,0.1,0.1c0.3,0.4,0.7,0.8,1,1.2
						c0.1,0.2,0.3,0.4,0.5,0.6c0.3-0.1,0.6-0.3,0.9-0.4c1-0.4,2-0.9,3-1.2c0.5-0.2,1-0.3,1.6-0.5c0.5,0.8,1,1.6,1.5,2.4
						c0.4,0.5,0.7,1.1,1.1,1.7c-0.5,0.7-1,1.4-1.5,1.9c-0.6,0.7-1.4,1.3-2.1,1.9c-0.2,0.2-0.4,0.3-0.5,0.5c0.1,0.2,0.2,0.4,0.3,0.5
						c0.4,0.7,0.7,1.4,1,2c0.1,0.2,0.2,0.4,0.3,0.6c0.2,0,0.3-0.1,0.5-0.1c0.2-0.1,0.5-0.2,0.8-0.2l0.1,0.5c0,0,0,0,0,0
						c-0.2,0.7-0.2,1.4,0,2.1C350,73.6,351.2,74.9,352.4,75.8C352.4,75.8,352.4,75.8,352.4,75.8z M347.9,64.3
						C348,64.3,348,64.3,347.9,64.3c-0.5-0.7-1.1-1.4-1.6-2.2c-0.2-0.4-0.3-0.7-0.5-1.1c-0.1-0.4-0.4-0.8-0.5-1.1
						c0-0.1-0.1-0.1-0.1,0c0,0.5-0.1,0.9,0,1.4c0.1,0.5,0.4,0.9,0.6,1.3C346.3,63.4,347,64,347.9,64.3z M333.3,83.1
						c1.4-2.1,0.6-5.7-0.7-7.8c-1.6-2.5-4.5-4.2-7.2-5.2c-0.1,0-0.2,0.1-0.1,0.2c2.6,1.1,4.4,3.1,5.6,5.7c0.5,1.2,1.1,2.3,1.4,3.6
						c0.3,1.3,0.3,2.3,0.8,3.5C333.1,83.1,333.2,83.2,333.3,83.1z"/>
				</defs>
				<use xlink:href="#BABYXMLID_60_"  overflow="visible" fill="#E5D0B1"/>
				<clipPath id="BABYXMLID_2_">
					<use xlink:href="#BABYXMLID_60_"  overflow="visible"/>
				</clipPath>
				<path clip-path="url(#BABYXMLID_2_)" fill="#DFB88D" d="M270.8,132.4l14.7-8.3l3-4.7c0,0,15.9-5.2,38.4-27.6l29.4-16l7.2-5.5
					l-52.7,42.3l-25.7,35.3h-14.3V132.4z"/>
				<polygon clip-path="url(#BABYXMLID_2_)" fill="#DFB88D" points="213.9,163.8 231.5,157.1 236.2,170.4 214.8,173.5 				"/>
				<path clip-path="url(#BABYXMLID_2_)" fill="#DFB88D" d="M226.8,179.1c0,0-7.3-56.3-23-87.7s32.3,35,32.3,35l16,37L226.8,179.1z"/>
				<path clip-path="url(#BABYXMLID_2_)" fill="#DFB88D" d="M158.4,45.2c0,0,67.6,12,72.4,20.9s-14,12-14,12l30.7-2.3l12.3-36.3
					l-56.7-23.3L158.4,45.2z"/>
				<path clip-path="url(#BABYXMLID_2_)" fill="#DFB88D" d="M268.5,86.7c0,0-0.3,18.7,11,27c0,0-9.3-16.2-6.7-26.8
					C275.5,76.4,268.5,86.7,268.5,86.7z"/>
				<path clip-path="url(#BABYXMLID_2_)" fill="#DFB88D" d="M115.8,42.2c0,0,12.4-9.4,21.2-12.1l-4.5,7.5L115.8,42.2z"/>
			</g>
			<path d="M352.4,75.7C352.4,75.7,352.4,75.8,352.4,75.7C352.4,75.8,352.4,75.8,352.4,75.7c-1.3-0.8-2.5-2.1-2.9-3.6
				c-0.2-0.7-0.2-1.4,0-2.1c0,0,0,0,0,0c0,0,0.1,0,0.1,0c0.4,1,0.6,2,1,3C351.1,74,351.6,74.9,352.4,75.7z"/>
			<path d="M351.5,61.4c0.2,0.4,0.3,0.8,0.5,1.2c-0.2,0.3-0.4,0.6-0.6,0.8c-0.2-0.4-0.4-0.8-0.6-1.1C351,62,351.3,61.7,351.5,61.4z"
				/>
			<path d="M351.5,61.4c-0.3,0.3-0.5,0.6-0.8,0.9c-0.3-0.6-0.7-1.1-1.1-1.7c-0.6-0.8-1-1.6-1.5-2.4c0.3-0.1,0.6-0.2,0.9-0.3
				c0.6,0.5,1.2,1.1,1.6,1.8C351,60.4,351.3,60.9,351.5,61.4z"/>
			<path d="M350.8,62.3c0.2,0.4,0.4,0.7,0.6,1.1c-0.4,0.5-0.9,0.9-1.3,1.3c-0.7,0.7-1.6,1.5-2.6,2.1c-0.1-0.2-0.2-0.5-0.3-0.7
				c0.7-0.6,1.4-1.2,2.1-1.9C349.8,63.7,350.3,63,350.8,62.3z"/>
			<path d="M348.6,69.7c-0.1,0.1-0.3,0.1-0.5,0.1c-0.1-0.2-0.2-0.4-0.3-0.6c0.1-0.1,0.3-0.2,0.5-0.3
				C348.5,69.2,348.6,69.5,348.6,69.7z"/>
			<path d="M349,58c-0.3,0.1-0.6,0.2-0.9,0.3c-0.2-0.3-0.4-0.6-0.6-0.9c0.2-0.1,0.3-0.1,0.5-0.2C348.4,57.4,348.7,57.7,349,58z"/>
			<path d="M348.4,68.9c-0.2,0.1-0.3,0.2-0.5,0.3c-0.3-0.7-0.6-1.4-1-2c0.2-0.1,0.4-0.2,0.6-0.3C347.8,67.6,348.1,68.2,348.4,68.9z"
				/>
			<path d="M348,64.2C348,64.3,348,64.3,348,64.2c-0.9-0.2-1.6-0.9-2.2-1.7c-0.2-0.4-0.5-0.8-0.6-1.3c-0.1-0.5,0-0.9,0-1.4
				c0-0.1,0.1-0.1,0.1,0c0.1,0.4,0.4,0.8,0.5,1.1c0.1,0.4,0.3,0.7,0.5,1.1C346.8,62.9,347.4,63.6,348,64.2z"/>
			<path d="M347.5,57.4c0.2,0.3,0.5,0.6,0.6,0.9c-0.6,0.2-1.1,0.3-1.6,0.5c-1,0.4-2,0.8-3,1.2c-0.1-0.2-0.3-0.4-0.5-0.6
				c1-0.5,1.9-0.9,2.9-1.3C346.5,57.8,347,57.6,347.5,57.4z"/>
			<path d="M347.2,66.1c0.1,0.2,0.2,0.5,0.3,0.7c-0.2,0.1-0.4,0.2-0.6,0.3c-0.1-0.2-0.2-0.4-0.3-0.5C346.8,66.5,347,66.3,347.2,66.1
				z"/>
			<path d="M346,52.8c-0.2,0.4-0.4,0.7-0.6,1.1c-0.2-0.3-0.4-0.6-0.6-0.9c0.2-0.4,0.5-0.9,0.7-1.3C345.7,52,345.9,52.4,346,52.8z"/>
			<path d="M345.5,51.7c-0.3,0.4-0.5,0.8-0.7,1.3c0-0.1-0.1-0.1-0.1-0.2c-0.6-0.9-1.3-1.6-2-2.4c-0.6-0.6-1.2-1.2-1.9-1.7
				c0.4-0.3,0.9-0.6,1.4-0.9c0.9,0.6,1.8,1.4,2.4,2.3C344.9,50.6,345.2,51.1,345.5,51.7z"/>
			<path d="M344.8,53c0.2,0.3,0.4,0.6,0.6,0.9c-1,1.5-2.2,2.8-3.4,4c-0.1-0.1-0.2-0.2-0.3-0.3c0.3-0.4,0.7-0.9,1-1.3
				c0.5-0.6,0.9-1.3,1.3-1.9C344.3,53.9,344.6,53.4,344.8,53z"/>
			<path fill="#E5D0B1" d="M344.7,52.8c0,0.1,0.1,0.1,0.1,0.2c-0.2,0.5-0.5,0.9-0.8,1.4c-0.4,0.7-0.8,1.3-1.3,1.9l-0.6-0.4
				c0,0,0,0,0,0c-0.8-0.5-1.7-1-2.4-1.7c-0.5-0.6-0.9-1.5-1.6-1.9c0,0-0.1,0-0.1,0c0,0,0,0,0,0l-0.9-0.9c1.1-1,2.2-1.9,3.5-2.7
				c0.7,0.5,1.3,1,1.9,1.7C343.4,51.1,344.1,51.9,344.7,52.8z"/>
			<path d="M343.1,59.3c0.2,0.2,0.3,0.4,0.5,0.6c-0.3,0.1-0.6,0.3-0.9,0.4c-0.2-0.2-0.3-0.4-0.5-0.6
				C342.6,59.6,342.9,59.5,343.1,59.3z"/>
			<path d="M343.1,59.3c-0.3,0.1-0.6,0.3-0.9,0.5c-0.3-0.4-0.6-0.8-1-1.2c0.2-0.2,0.5-0.5,0.7-0.7C342.4,58.4,342.8,58.8,343.1,59.3
				z"/>
			<path d="M342.2,55.8C342.2,55.8,342.2,55.8,342.2,55.8C342.2,55.8,342.2,55.9,342.2,55.8c-1.1,0-1.9-0.4-2.8-1.2
				c-0.6-0.5-1.6-1.5-1.3-2.4c0,0,0,0,0,0c0-0.1,0.1-0.1,0.1,0c0.7,0.3,1,1.3,1.6,1.9C340.5,54.7,341.3,55.3,342.2,55.8z"/>
			<path d="M341.7,57.6c0.1,0.1,0.2,0.2,0.3,0.3c-0.2,0.2-0.5,0.5-0.7,0.7c0,0-0.1-0.1-0.1-0.1c0-0.1-0.1-0.1-0.1-0.2
				C341.3,58.1,341.5,57.8,341.7,57.6z"/>
			<path d="M341.2,47.2c0.3,0.2,0.6,0.4,0.9,0.6c-0.5,0.3-1,0.6-1.4,0.9c-0.1-0.1-0.3-0.2-0.4-0.3c-0.1-0.1-0.3-0.2-0.4-0.2
				C340.4,47.8,340.8,47.5,341.2,47.2z"/>
			<path d="M340.3,48.4c0.2,0.1,0.3,0.2,0.4,0.3c-1.2,0.8-2.4,1.7-3.5,2.7c-0.4,0.3-0.7,0.7-1,1c-0.1-0.1-0.3-0.2-0.4-0.3
				c1.2-1.5,2.6-2.9,4.1-4C340,48.2,340.1,48.3,340.3,48.4z"/>
			<path d="M335.8,52.1c0.1,0.1,0.3,0.2,0.4,0.3c-0.3,0.3-0.6,0.6-0.9,1c-0.1-0.1-0.2-0.1-0.3-0.2C335.3,52.8,335.5,52.5,335.8,52.1
				z"/>
			<path d="M335.8,52.1c-0.3,0.4-0.5,0.7-0.8,1.1c-0.3-0.3-0.7-0.5-1-0.8c0.2-0.3,0.4-0.7,0.6-1.1C335,51.6,335.4,51.9,335.8,52.1z"
				/>
			<path d="M335,44.9c0.1,0.8,0.1,1.7,0,2.4c0,1.2,0,2.8-0.5,4c-0.2-0.1-0.5-0.3-0.8-0.4c0-0.4,0.1-0.8,0.2-1.2
				c0.1-0.8,0.2-1.6,0.2-2.3c0-0.9-0.2-1.8-0.3-2.7C334.3,44.7,334.6,44.8,335,44.9z"/>
			<path d="M334.7,43.2c0.2,0.5,0.2,1.1,0.3,1.7c-0.4-0.1-0.7-0.2-1-0.3c-0.1-0.6-0.2-1.1-0.2-1.7C334.1,43,334.4,43.1,334.7,43.2z"
				/>
			<path d="M333.8,50.9c0.3,0.1,0.5,0.3,0.8,0.4c-0.1,0.4-0.3,0.8-0.6,1.1c-0.1,0-0.1-0.1-0.2-0.1C333.7,51.9,333.8,51.4,333.8,50.9
				z"/>
			<path fill="#E5D0B1" d="M333.9,44.6c0.1,0.9,0.3,1.8,0.3,2.7c0,0.8-0.1,1.6-0.2,2.3l-1.1-0.2c-1.9,0.2-3.9-0.4-5.4-1.7l-1.7-0.5
				c0.5-1.7,0.9-3.4,1.2-5c1.5,0.4,3.1,1,4.6,1.4C332.3,43.9,333.1,44.3,333.9,44.6z"/>
			<path d="M333.7,42.9c0,0.6,0.1,1.1,0.2,1.7c-0.8-0.3-1.6-0.7-2.4-0.9c-1.5-0.5-3.1-1-4.6-1.4c0-0.2,0.1-0.3,0.1-0.5
				c1.6,0.1,3.2,0.2,4.8,0.7C332.5,42.6,333.1,42.7,333.7,42.9z"/>
			<path d="M332.6,75.3c1.3,2.1,2.1,5.7,0.7,7.8c-0.1,0.1-0.2,0.1-0.2,0c-0.5-1.2-0.5-2.3-0.8-3.5c-0.3-1.3-0.8-2.4-1.4-3.6
				c-1.2-2.6-3-4.5-5.6-5.7c-0.1,0,0-0.2,0.1-0.2C328.1,71.1,331,72.8,332.6,75.3z"/>
			<path d="M326.9,91.8c0.2-0.2,0.5,0.1,0.4,0.3c-0.3,0.5-0.6,1-1,1.6c-0.9,0.5-1.9,1.1-2.8,1.6C324.6,94,325.7,92.9,326.9,91.8z"/>
			<path d="M327,41.7c0,0.2-0.1,0.3-0.1,0.5c-0.4-0.1-0.7-0.2-1.1-0.3c0-0.1,0.1-0.2,0.1-0.2C326.3,41.7,326.7,41.7,327,41.7z"/>
			<path d="M325.9,41.9c0.4,0.1,0.7,0.2,1.1,0.3c-0.3,1.7-0.7,3.4-1.2,5c-3,10.3-9.1,20.8-16.3,28c-0.1,0-0.3,0-0.4,0
				c3.5-5.4,7.2-10.8,10.2-16.5C322,53.3,323.8,47.6,325.9,41.9z"/>
			<path d="M323.5,95.3c0.9-0.5,1.9-1.1,2.8-1.6c-0.3,0.4-0.5,0.8-0.8,1.2c-0.8,0.3-1.6,0.7-2.4,1C323.2,95.6,323.3,95.4,323.5,95.3
				z"/>
			<path d="M323,95.8c0.8-0.3,1.6-0.6,2.4-1c-3,4.1-7,7.8-10.3,11.6c-4.2,4.9-9,9.5-13.8,13.8c-8,7.3-17.1,15.8-27,20.9
				c0.6-0.5,1.3-1,1.9-1.5c0.3-0.2-0.1-0.7-0.4-0.5c-1.5,0.9-2.9,1.7-4.4,2.6c4.3-4,9.5-7.4,14.1-10.9c4.9-3.8,9.7-7.8,14.4-11.9
				c4.9-4.3,9.5-8.9,14.2-13.4C317.5,102.5,320.1,99,323,95.8z"/>
			<path d="M314.3,75.3c0.3,0,0.3,0.4,0.1,0.5c-7.3,1.9-14.9,2.4-22.3,4.5c-6.3,1.7-12.3,4.1-18.4,6.4c0.1-0.4,0.1-0.9,0.2-1.3
				c5.6-2.9,11.8-5,17.7-6.6c5.4-1.5,11.5-3,17.4-3.4c-0.1,0.2-0.3,0.5-0.4,0.7c0,0.1,0,0.1,0.1,0.1c0.3-0.2,0.5-0.5,0.8-0.8
				C311.1,75.2,312.7,75.2,314.3,75.3z"/>
			<path d="M309.5,75.3c-0.3,0.3-0.5,0.5-0.8,0.8c0,0-0.1,0-0.1-0.1c0.1-0.2,0.3-0.5,0.4-0.7C309.2,75.3,309.3,75.3,309.5,75.3z"/>
			<path d="M283,116.1C283.1,116.1,283,116.2,283,116.1c-8.6-6.3-14.6-17.9-11.1-28.5c0,0,0,0,0,0c0.5,0.1,0.9-0.3,0.9-0.7
				c0.3-0.1,0.6-0.2,0.9-0.3c-0.8,5.2-1.2,10.1,0.3,15.3C275.6,107.3,278.8,112.5,283,116.1z"/>
			<path d="M276,139.2c0.3-0.2,0.6,0.3,0.4,0.5c-0.6,0.5-1.3,1-1.9,1.5c-1,0.5-1.9,0.9-2.9,1.4c0-0.3,0-0.5,0-0.8v0
				C273,140.9,274.5,140,276,139.2z"/>
			<path d="M273.9,85.3c-0.1,0.4-0.1,0.9-0.2,1.3c-0.3,0.1-0.6,0.2-0.9,0.3c0-0.2-0.1-0.5-0.4-0.6c0-0.1,0.1-0.2,0.1-0.3
				C273,85.7,273.5,85.5,273.9,85.3z"/>
			<path d="M271.5,142.5c1-0.4,1.9-0.9,2.9-1.4c-1,0.7-1.9,1.5-2.9,2.2C271.5,143.1,271.5,142.8,271.5,142.5z"/>
			<path d="M272.1,87.2c0.2-0.1,0.5-0.2,0.8-0.3c0,0.4-0.3,0.8-0.9,0.7c0,0,0,0,0,0C272,87.5,272,87.4,272.1,87.2z"/>
			<path d="M272.8,87c-0.2,0.1-0.5,0.2-0.8,0.3c0.1-0.3,0.2-0.6,0.4-0.9C272.7,86.5,272.8,86.7,272.8,87z"/>
			<path d="M272.2,86.2c0.1-0.1,0.3-0.2,0.4-0.2c-0.1,0.1-0.1,0.2-0.1,0.3c0,0,0,0-0.1,0C272.3,86.2,272.2,86.2,272.2,86.2z"/>
			<path d="M272.4,86.3C272.4,86.3,272.4,86.3,272.4,86.3c-0.1,0.3-0.2,0.7-0.3,1c-0.2,0.1-0.5,0.2-0.7,0.3
				c-0.4-0.1-0.7-0.1-1.1-0.2c0,0,0-0.1,0.1-0.1c0.6-0.3,1.2-0.7,1.8-1C272.2,86.2,272.3,86.2,272.4,86.3z"/>
			<path d="M272.1,87.2c-0.1,0.1-0.1,0.2-0.1,0.4c-0.2-0.1-0.4-0.1-0.6-0.1C271.6,87.4,271.8,87.3,272.1,87.2z"/>
			<path d="M264.2,89.6c7.4,15.7,8.5,34.6,7.4,52.1v0c0,0,0,0,0,0c-0.4,0.2-0.8,0.4-1.1,0.6c0.2-17.4-0.6-35.4-7.4-50.9
				C263.3,90.8,263.7,90.1,264.2,89.6z"/>
			<path d="M271.6,141.7c0,0.3,0,0.5,0,0.8c-0.3,0.1-0.6,0.3-0.9,0.4c-0.1,0-0.2-0.1-0.1-0.1C270.8,142.4,271.2,142.1,271.6,141.7
				C271.5,141.7,271.5,141.7,271.6,141.7z"/>
			<path d="M271.5,141.7c-0.4,0.3-0.7,0.7-1.1,1c-0.1,0.1,0,0.2,0.1,0.1c0.3-0.1,0.6-0.3,0.9-0.4c0,0.3-0.1,0.6-0.1,0.8
				c-0.4,0.3-0.7,0.5-1.1,0.8c0-0.6,0-1.2,0-1.7C270.8,142.2,271.2,142,271.5,141.7z"/>
			<path d="M272.2,86.2c-0.6,0.3-1.2,0.7-1.8,1c0,0-0.1,0.1-0.1,0.1c-1.8-0.2-3.6,0-5.2,1.3c-0.3,0.3-0.6,0.6-0.9,0.9
				c-0.2-0.4-0.4-0.7-0.5-1.1c0.4-0.4,0.8-0.8,1.2-1.1C266.9,85.9,269.8,85.3,272.2,86.2z"/>
			<g>
				<defs>
					<path id="BABYXMLID_75_" d="M263,91.5c6.8,15.5,7.6,33.5,7.4,50.9c-1.1,0.6-2.2,1.2-3.3,1.9c0.1-0.8,0.1-1.5,0.2-2.2
						c0.2-2.2,0.3-4.8-0.7-6.9c0-0.1-0.2-0.1-0.2,0c-0.4,2.1-0.2,4.3-0.4,6.4c-0.1,0.8-0.3,1.7-0.6,2.5c-0.1,0.4-0.2,0.9-0.3,1.3
						c-0.1,0.1-0.2,0.1-0.3,0.2c-1.8,1-3.7,2-5.5,3c-0.3-0.5-0.7-1-1.1-1.6c-1-1.3-2-2.7-3.4-3.7c-0.1-0.1-0.3,0.1-0.2,0.2
						c0.6,1.6,1.6,2.9,2.5,4.3c0.3,0.5,0.7,1,1,1.4c-3.6,2-7.3,3.9-11.1,5.8c-0.1-2.7-0.5-5.5-0.8-8.2c0-0.4-0.1-0.7-0.1-1.1
						c-0.3,0-0.7,0.1-1,0.1c-1.3,0.2-2.6,0.8-3.8,1.1c-1.8,0.5-3.7,0.9-5.5,1.4c-0.2,0.1-0.4,0.1-0.7,0.2c0,0.2,0.1,0.5,0.1,0.7
						c0.3,1.9,1,3.8,1.5,5.6c0.4,1.5,0.8,3,1.3,4.5c-2.5,1.2-5.1,2.3-7.6,3.5c-1.5-5.6-3.4-11-5.2-16.4c-2.9-8.8-5.9-17.6-9.2-26.3
						c-4.6-12.1-9.2-24.5-14.7-36.4c-0.1-0.2-0.1-0.3-0.2-0.4c-0.2-0.5-0.5-1.1-0.7-1.6c1.7-0.2,3.3-0.4,5-0.6
						c1.1-0.1,2.2-0.3,3.3-0.4c0.4-0.1,0.8-0.1,1.2-0.2c0.2,0,0.4,0,0.5-0.1c0.6,0.8,1.1,1.6,1.6,2.4c1.2,1.8,2.3,3.8,3.6,5.5
						c0.1,0.2,0.3,0.3,0.4,0.5c0.1,0,0.2-0.1,0.3-0.1c1.2-0.5,2.3-1,3.5-1.6c1.3-0.6,2.6-1.1,3.8-1.8c0.2-0.1,0.5-0.2,0.7-0.3
						c-0.2-0.4-0.3-0.7-0.5-1.1c-0.5-1-1-2-1.5-2.9c-0.3-0.7-0.7-1.5-1-2.3c2.1-0.3,4.2-0.8,6.2-1.2c0.8-0.2,1.5-0.4,2.3-0.6
						c-0.1,2.4,0.6,4.9,2.4,6.5c0.1,0.1,0.2,0,0.1-0.1c-0.9-1.8-1.6-3.7-1.6-5.7c0-0.3,0-0.6,0-0.9l0-0.1c0.1,0,0.1,0,0.2-0.1
						c0,0,0,0,0,0c1.6-0.5,3.2-1.1,4.7-1.8c0.2-0.1,0.4-0.2,0.5-0.3c0.4,0.1,0.7,0.2,1,0.4c2.1,1,3.5,2.8,5.2,4.4
						c0.1,0.1,0.3,0,0.2-0.1c-0.5-2.7-2.7-4.4-5-5.6c0.7-0.5,1.3-1,1.9-1.6c0.7,0.7,1.4,1.3,2.2,1.7c0.7,0.4,1.8,1,2.7,0.9
						c0,0,0.1-0.1,0-0.1c-0.5-0.6-1.4-1-2.1-1.5c-0.8-0.6-1.5-1.2-2.1-1.9c1.4-1.7,1.7-3.7,1.2-5.7c1.8,1.2,3.6,2.4,5.3,3.8
						c7.2,5.9,12.3,12.9,15.8,20.6C262.6,90.6,262.8,91.1,263,91.5z M238.1,123.7c0.6-0.3,0.2-1.2-0.4-1.1c0,0-0.1,0-0.1,0
						c-3.9,0.8-7.9,1.7-11.8,2.5c-1.5,0.3-3,0.6-4.5,0.9c0,0-0.1,0-0.1,0.1c-0.6,0.3-0.2,1.1,0.4,1c0.1,0,0.1,0,0.1,0
						c4.1-0.8,8.3-1.7,12.4-2.5c-4.1,2.3-8.2,4.6-12.4,6.9c-0.4,0.2-0.3,1,0.2,1c5.7-0.5,10.9-2,15.8-4.9c0.2-0.1,0-0.4-0.2-0.3
						c-2.5,1.1-5,2.1-7.7,2.8c-1,0.3-1.9,0.5-2.9,0.7c-0.7,0.2-1.4,0.3-2.2,0.3c-0.2,0-0.5,0-0.6,0c1.4-1.2,4.5-2.2,5.9-3
						c2.6-1.4,5.2-2.8,7.8-4.3C238,123.8,238,123.8,238.1,123.7z M235.8,115.9c0.6-0.2,0.2-1-0.4-0.9c-0.1,0-0.1,0-0.1,0
						c-4.1,0.7-8.2,1.5-12.2,2.2c-1.3,0.2-2.6,0.5-3.9,0.7l0,0c0,0-0.1,0-0.1,0.1c-0.6,0.3-0.2,1.2,0.4,1.1c0.1,0,0.1,0,0.2,0
						c3.8-0.7,7.5-1.4,11.3-2.2c-4,1.7-7.9,3.4-11.9,5.1c0.2,0.4,0.3,0.8,0.5,1.1c1.9-0.8,3.8-1.6,5.6-2.5c3.5-1.6,7.1-3.2,10.6-4.7
						C235.7,116,235.7,115.9,235.8,115.9z M233.9,111.5c0.6-0.3,0.2-1.3-0.5-1.1c-0.1,0-0.1,0-0.1,0c-3.7,0.9-7.5,1.8-11.2,2.7
						c-1.6,0.4-3.3,0.8-4.9,1.2v0c-0.1,0-0.1,0-0.1,0.1c-0.6,0.3-0.2,1.3,0.4,1.1c0.1,0,0.1,0,0.2,0c3.8-0.9,7.6-1.9,11.4-2.8
						c1.6-0.4,3.2-0.8,4.7-1.2l0,0C233.8,111.6,233.8,111.5,233.9,111.5z M227,109.1c1.7-0.4,3.4-0.8,5.1-1.2
						c-0.2-0.4-0.3-0.8-0.5-1.2l0,0c-4.7,1.1-9.4,2.2-14,3.3c4-3.1,8.5-4.2,13.7-4.9c0.6-0.1,0.6-0.9,0-0.9
						c-6.2-0.8-12.2,2.2-16.5,6.4v0c-0.1,0.1-0.2,0.2-0.2,0.2c-0.5,0.5,0,1.3,0.6,1.2c0.1,0,0.2,0,0.3-0.1
						C219.4,111,223.2,110.1,227,109.1z"/>
				</defs>
				<use xlink:href="#BABYXMLID_75_"  overflow="visible" fill="#F1E9DE"/>
				<clipPath id="BABYXMLID_3_">
					<use xlink:href="#BABYXMLID_75_"  overflow="visible"/>
				</clipPath>
				<path clip-path="url(#BABYXMLID_3_)" fill="#E6E6E7" d="M251,73.1c0,0,16.2,31.1,15.4,62.1c0,0-13.9,11.9-43.4,19.4l7,17.5l42.5-4.7
					l10-57.8l-29.8-47.5L251,73.1z"/>
			</g>
			<path d="M270.4,142.4c0,0.6,0,1.2,0,1.7c-0.9,0.6-1.8,1.3-2.7,1.9c-0.2-0.2-0.5-0.4-0.8-0.7c0.1-0.4,0.1-0.7,0.2-1.1
				C268.2,143.6,269.3,143,270.4,142.4z"/>
			<path d="M267.7,146c-0.2,0.1-0.4,0.3-0.6,0.4c-0.1,0-0.3,0-0.5-0.1c0.1-0.3,0.2-0.6,0.2-1C267.2,145.6,267.5,145.8,267.7,146z"/>
			<path d="M266.6,135.1c1,2.1,0.9,4.7,0.7,6.9c-0.1,0.7-0.1,1.5-0.2,2.2c-0.3,0.2-0.6,0.3-0.9,0.5c-0.3-0.2-0.6-0.5-0.9-0.7
				c0.2-0.9,0.5-1.7,0.6-2.5c0.2-2.1,0-4.3,0.4-6.4C266.4,135,266.6,135,266.6,135.1z"/>
			<path d="M266.2,144.8c0.3-0.2,0.6-0.3,0.9-0.5c0,0.4-0.1,0.8-0.2,1.1C266.7,145.2,266.5,145,266.2,144.8z"/>
			<path d="M266.2,144.8c0.2,0.2,0.5,0.4,0.7,0.6c-0.1,0.3-0.1,0.7-0.2,1c-0.6-0.1-1.1-0.3-1.7-0.6c0-0.1,0-0.2,0.1-0.3
				C265.5,145.2,265.9,145,266.2,144.8z"/>
			<path d="M266.7,146.3c0.1,0,0.3,0.1,0.5,0.1c-0.2,0.2-0.5,0.3-0.7,0.5C266.6,146.7,266.6,146.5,266.7,146.3z"/>
			<path d="M266.7,146.3c-0.1,0.2-0.1,0.4-0.2,0.6c-0.5,0.4-1,0.7-1.5,1.1c0,0,0,0,0,0c-0.1-0.7-0.1-1.4,0-2.1
				C265.6,146,266.1,146.2,266.7,146.3z"/>
			<path d="M266.2,144.8c-0.4,0.2-0.8,0.4-1.2,0.6c0.1-0.4,0.2-0.9,0.3-1.3C265.7,144.3,266,144.5,266.2,144.8z"/>
			<path d="M265.1,145.4c0,0.1,0,0.2-0.1,0.3c-0.1,0-0.2-0.1-0.3-0.1C264.9,145.5,265,145.5,265.1,145.4z"/>
			<path d="M265,147.9C265,147.9,265,147.9,265,147.9c-1.5,1.1-3,2.1-4.6,3.1c-0.3-0.9-0.7-1.6-1.1-2.3c1.9-1,3.7-2,5.5-3
				c0.1,0.1,0.2,0.1,0.3,0.1C264.9,146.5,264.8,147.2,265,147.9z"/>
			<path d="M263.6,88.5c0.2,0.4,0.4,0.7,0.5,1.1c-0.5,0.6-0.9,1.2-1.2,1.9c-0.2-0.4-0.4-0.8-0.6-1.3C262.8,89.6,263.2,89,263.6,88.5
				z"/>
			<path d="M263.6,88.5c-0.5,0.5-0.9,1.1-1.2,1.7c-3.5-7.7-8.6-14.6-15.8-20.6c-1.7-1.4-3.5-2.7-5.3-3.8v0c-0.2-0.7-0.5-1.3-0.9-2
				c0-0.1-0.1-0.1-0.1-0.2c2.9,1.8,5.7,3.7,8.4,5.9C255.3,74.9,260.1,81.3,263.6,88.5z M262.5,89.7
				C262.5,89.7,262.4,89.7,262.5,89.7c-0.1,0-0.1,0.1-0.1,0.1c0,0.1,0.1,0.1,0.1,0C262.4,89.9,262.5,89.8,262.5,89.7z"/>
			<path d="M262.4,89.7C262.4,89.7,262.5,89.7,262.4,89.7c0.1,0.1,0.1,0.1,0.1,0.2c0,0.1-0.1,0-0.1,0
				C262.3,89.8,262.4,89.8,262.4,89.7z"/>
			<path d="M260.4,151c0.1,0.2-0.2,0.3-0.3,0.2c0,0-0.1,0-0.1,0C260.1,151.1,260.2,151,260.4,151C260.4,151,260.4,151,260.4,151z"/>
			<path d="M260.4,151c-0.1,0.1-0.2,0.2-0.4,0.2c-0.8-0.6-1.4-1.2-2-1.9c0.4-0.2,0.8-0.4,1.2-0.7C259.7,149.4,260.1,150.1,260.4,151
				z"/>
			<path d="M259.2,148.6c-0.4,0.2-0.8,0.4-1.2,0.7c-0.4-0.4-0.7-0.9-1-1.4c-0.9-1.4-1.9-2.7-2.5-4.3c-0.1-0.1,0.1-0.2,0.2-0.2
				c1.3,1,2.3,2.4,3.4,3.7C258.5,147.6,258.9,148.1,259.2,148.6z"/>
			<path d="M258,149.3c0.6,0.7,1.2,1.3,2,1.9c-4.2,2.7-8.4,5.2-12.8,7.6l-0.4-0.6c0,0,0,0,0-0.1c0.1-1,0.1-2,0.1-3
				C250.7,153.2,254.4,151.3,258,149.3z"/>
			<path d="M246.9,158.1l0.4,0.6c-2.6,1.4-5.2,2.8-7.9,4.1l-0.6-1.1c0,0,0,0,0,0c-0.1-0.9-0.2-1.7-0.4-2.6c2.6-1.2,5.1-2.5,7.7-3.7
				c0.2,0.9,0.4,1.8,0.7,2.6C246.8,158.1,246.8,158.1,246.9,158.1z"/>
			<path d="M246.9,155.1c0,1,0,2-0.1,3c0,0,0,0.1,0,0.1c0,0-0.1,0-0.1-0.1c-0.3-0.9-0.5-1.7-0.7-2.6
				C246.4,155.3,246.7,155.2,246.9,155.1z"/>
			<path d="M246.9,155.1c-0.3,0.1-0.6,0.3-0.9,0.4c-0.5-2.7-0.8-5.5-1-8.3c0.4-0.1,0.7-0.2,1-0.4
				C246.4,149.5,246.9,152.3,246.9,155.1z"/>
			<path d="M246,145.8c0,0.4,0.1,0.7,0.1,1.1c-0.3,0.1-0.7,0.3-1,0.4c0-0.4-0.1-0.9-0.1-1.3C245.3,145.8,245.6,145.8,246,145.8z"/>
			<path fill="#F7EFDD" d="M245.1,147.2c0.2,2.7,0.5,5.6,1,8.3c-2.6,1.3-5.1,2.5-7.7,3.7c-0.3-1.5-0.7-3-1-4.5
				c-0.4-1.8-0.7-3.8-1.4-5.6c1.8-0.4,3.7-0.8,5.5-1.2C242.6,147.6,243.9,147.5,245.1,147.2z"/>
			<path d="M245,145.9c0,0.4,0.1,0.9,0.1,1.3c-1.2,0.3-2.5,0.5-3.6,0.7c-1.8,0.4-3.6,0.9-5.5,1.2c-0.1-0.2-0.2-0.5-0.3-0.7
				c1.8-0.5,3.7-0.9,5.5-1.4C242.4,146.7,243.7,146.1,245,145.9z"/>
			<path d="M244.4,74.8C244.4,74.8,244.4,74.9,244.4,74.8c-0.9,0.2-2-0.4-2.7-0.8c-0.8-0.5-1.5-1.1-2.2-1.7c0.2-0.2,0.3-0.3,0.4-0.5
				c0.1-0.1,0.2-0.2,0.2-0.3c0.6,0.7,1.3,1.3,2.1,1.9C242.9,73.8,243.9,74.2,244.4,74.8z"/>
			<path d="M242.6,79.4c0,0.2-0.1,0.2-0.2,0.1c-1.7-1.6-3.1-3.4-5.2-4.4c-0.1-0.3-0.1-0.6-0.1-0.9c0.2-0.1,0.4-0.2,0.5-0.4
				C239.9,75,242.1,76.7,242.6,79.4z"/>
			<path d="M241.3,65.8c0.5,2,0.2,4-1.2,5.7c-0.1-0.1-0.2-0.2-0.2-0.3c-0.4-0.5-1.2,0.2-0.7,0.7c0.1,0.1,0.2,0.2,0.3,0.3
				c-0.6,0.6-1.2,1.1-1.9,1.6c-0.3-0.2-0.6-0.3-0.9-0.4c-0.5-0.2-1,0-1.1,0.6c0,0.3,0,0.7,0,1c-1.5,0.8-3.1,1.4-4.7,1.8c0,0,0,0,0,0
				c-0.1-0.1-0.3-0.2-0.4-0.3c-0.3-0.2-0.7,0.1-0.8,0.4c0,0.1,0,0.1,0,0.2c-0.8,0.2-1.6,0.4-2.3,0.6c-2.1,0.5-4.1,0.9-6.2,1.2
				c-0.3-0.8-0.7-1.6-1.2-2.3c0.7-0.1,1.4-0.2,2.1-0.3c4.5-0.8,9.2-1.7,13.3-3.8c3.4-1.7,5.1-4.9,3.9-8
				C240,64.9,240.7,65.4,241.3,65.8L241.3,65.8z"/>
			<path d="M240.5,63.8c0.4,0.7,0.7,1.3,0.9,2c-0.7-0.4-1.3-0.8-2-1.2c-0.3-0.8-0.8-1.6-1.6-2.4c0.9,0.5,1.7,1,2.6,1.5
				C240.4,63.7,240.4,63.7,240.5,63.8z"/>
			<path d="M240.1,71.5c-0.1,0.1-0.2,0.2-0.2,0.3c-0.1,0.2-0.3,0.3-0.4,0.5c-0.1-0.1-0.2-0.2-0.3-0.3c-0.5-0.5,0.3-1.2,0.7-0.7
				C240,71.3,240.1,71.4,240.1,71.5z"/>
			<g>
				<defs>
					<path id="BABYXMLID_55_" d="M239.3,64.6c1.1,3.1-0.5,6.3-3.9,8c-4.1,2.1-8.8,3-13.3,3.8c-0.7,0.1-1.4,0.2-2.1,0.3
						c-0.4,0.1-0.8,0.1-1.2,0.2c-2.9,0.5-5.9,0.9-8.8,1.3c-0.4,0.1-0.8,0.1-1.1,0.1c-3.2,0.4-6.5,0.8-9.7,1.1
						c-0.6,0.1-1.3,0.1-1.9,0.2c-1.9,0.2-3.8,0.4-5.6,0.5c-0.4,0-0.8,0.1-1.2,0.1c-0.5,0-0.9,0.1-1.4,0.1c-0.8,0.1-1.5,0.1-2.3,0.2
						c-16.4-3.7-33.4-6-48.4-14.2c-3.6-2-7.9-4.2-9.9-8c-2.3-4.4-0.1-9.6,1.8-13.7c1.4-3.1,3-6.1,4.7-9c0.4-0.6,0.7-1.2,1.1-1.8
						c0-0.1,0.1-0.1,0.1-0.2c2.1-3.4,5.1-6.5,6.4-10.2c0.1-0.2-0.2-0.4-0.3-0.2c-3.6,2.4-5.9,6.9-8.2,10.5c0,0,0,0,0,0.1
						c-6.5,0.6-13.2,4.5-18.1,8.4c-0.8-1.1-1.7-2.2-2.4-3.5c-0.8-1.4-1.3-2.8-1.8-4.3c0,0,0-0.1,0.1-0.1c0.7-0.8,1.5-1.6,2.5-2.2
						c0.4-0.3,1-0.5,1.5-0.7c0.3-0.1,0.6-0.2,0.8-0.4c-0.1-0.5-0.2-1-0.3-1.5c0-0.3-0.1-0.5-0.2-0.8c-0.1-0.4-0.2-0.7-0.2-1.1
						c-0.5,0.1-0.9,0.3-1.4,0.4c-0.2,0.1-0.4,0.1-0.6,0.2c-1.2,0.4-2.4,0.9-3.6,1.4c-0.3-0.9-0.7-1.8-0.9-2.6
						c-0.2-0.9-0.3-1.8-0.5-2.7c1.1-0.3,2.2-0.8,3.3-1.1c0.3-0.1,0.6-0.1,0.9-0.2c0.5-0.1,1.1-0.2,1.6-0.4c-0.1-0.3-0.1-0.7-0.2-1
						c0-0.2-0.1-0.4-0.1-0.6c-0.1-0.4-0.1-0.7-0.2-1.1c-0.5,0-1.1,0-1.6,0c-0.3,0-0.7,0.1-1,0.1c-1.1,0.1-2.3,0.2-3.4,0.5
						c-0.4-1.2-0.6-2.3-0.5-3.6c0.1-0.7,0.3-1.4,0.5-2.2c0.8-0.2,1.5-0.5,2.2-0.7c0.6-0.1,1.1-0.2,1.7-0.3c0.6-0.1,1.1-0.3,1.6-0.5
						c0-0.2,0-0.4,0-0.7c0-0.5,0.1-1,0.1-1.5c0-0.3,0.1-0.7,0.1-1c-0.5,0-1.1,0-1.7,0c-0.2,0-0.3,0-0.5,0c-1.1,0-2.2-0.1-3.3,0.1
						c-0.2-1.3-0.3-2.5-0.2-3.8c0.1-0.9,0.5-1.9,0.8-2.8c1.4-0.1,2.9-0.2,4.3-0.2c0.4,0,0.9,0,1.4-0.1c15-0.8,29.9-1.1,44.9,0
						c5.3,0.4,12.8,0.9,13.4,7.8c0.3,3.8-1.9,8.2-3.3,11.7c-3.1,7.3-6.7,14.4-10.6,21.3c-1.7-0.1-3.4,0-5,0.2c-0.2,0-0.2,0.4,0,0.4
						c1.4,0.4,2.8,0.6,4.2,0.7c0.1,0,0.3,0,0.4,0c2.2,0.2,4.4,0.2,6.5,0.4c4.9,0.5,9.7,1.3,14.5,2c8,1.2,15.9,2.8,23.7,4.6
						C215.9,54.9,228.5,58.1,239.3,64.6z"/>
				</defs>
				<use xlink:href="#BABYXMLID_55_"  overflow="visible" fill="#E5D0B1"/>
				<clipPath id="BABYXMLID_4_">
					<use xlink:href="#BABYXMLID_55_"  overflow="visible"/>
				</clipPath>
				<path clip-path="url(#BABYXMLID_4_)" fill="#DFB88D" d="M270.8,132.4l14.7-8.3l3-4.7c0,0,15.9-5.2,38.4-27.6l29.4-16l7.2-5.5
					l-52.7,42.3l-25.7,35.3h-14.3V132.4z"/>
				<polygon clip-path="url(#BABYXMLID_4_)" fill="#DFB88D" points="213.9,163.8 231.5,157.1 236.2,170.4 214.8,173.5 				"/>
				<path clip-path="url(#BABYXMLID_4_)" fill="#DFB88D" d="M226.8,179.1c0,0-7.3-56.3-23-87.7s32.3,35,32.3,35l16,37L226.8,179.1z"/>
				<path clip-path="url(#BABYXMLID_4_)" fill="#DFB88D" d="M158.4,45.2c0,0,67.6,12,72.4,20.9s-14,12-14,12l30.7-2.3l12.3-36.3
					l-56.7-23.3L158.4,45.2z"/>
				<path clip-path="url(#BABYXMLID_4_)" fill="#DFB88D" d="M268.5,86.7c0,0-0.3,18.7,11,27c0,0-9.3-16.2-6.7-26.8
					C275.5,76.4,268.5,86.7,268.5,86.7z"/>
				<path clip-path="url(#BABYXMLID_4_)" fill="#DFB88D" d="M115.8,42.2c0,0,12.4-9.4,21.2-12.1l-4.5,7.5L115.8,42.2z"/>
			</g>
			<path d="M238.8,161.8l0.6,1.1c-2.7,1.3-5.4,2.6-8.1,3.9c-0.3-1.3-0.6-2.5-1-3.8c2.6-1.1,5.1-2.3,7.6-3.5
				C238.1,160.2,238.4,161,238.8,161.8C238.8,161.8,238.8,161.8,238.8,161.8z"/>
			<path d="M238.8,161.8C238.8,161.8,238.8,161.8,238.8,161.8C238.8,161.8,238.8,161.8,238.8,161.8c-0.4-0.8-0.7-1.5-0.9-2.3
				c0.2-0.1,0.3-0.2,0.5-0.2C238.6,160.1,238.7,160.9,238.8,161.8z"/>
			<path d="M238.4,159.2c-0.2,0.1-0.3,0.2-0.5,0.2c-0.5-1.5-0.9-3-1.3-4.5c-0.5-1.8-1.2-3.7-1.5-5.6c0.3-0.1,0.6-0.1,0.9-0.2
				c0.7,1.8,0.9,3.8,1.4,5.6C237.7,156.2,238.1,157.7,238.4,159.2z"/>
			<path d="M237.6,122.6c0.7-0.1,1,0.8,0.4,1.1c-0.1,0-0.1,0-0.1,0.1l0,0c-0.1-0.4-0.3-0.7-0.4-1.1l0,0
				C237.6,122.7,237.6,122.6,237.6,122.6z"/>
			<path d="M237.8,62.2c0.8,0.8,1.3,1.6,1.6,2.4c-10.8-6.4-23.4-9.7-35.7-12.3c-7.9-1.7-15.8-3.4-23.7-4.6c-4.8-0.7-9.6-1.5-14.5-2
				c-2.1-0.2-4.3-0.2-6.5-0.4c0.3-0.5,0.6-0.9,0.9-1.4c2.5,0.2,5.1,0.5,7.5,0.7c4.3,0.4,8.6,0.6,12.9,1.2c8.7,1.2,17.4,2.6,25.9,4.8
				c8.1,2,16.3,4.5,24,7.9c-0.1,0-0.2,0-0.2-0.1c-0.1,0-0.1,0.1,0,0.1c0.3,0.1,0.5,0.1,0.8,0.2C233.1,59.7,235.5,60.9,237.8,62.2z"
				/>
			<path d="M237.9,123.8L237.9,123.8c-2.6,1.5-5.2,2.9-7.8,4.3c-1.5,0.8-4.5,1.8-5.9,3c-0.9,0-1.1,0.1-0.4,0.4
				c0.1-0.1,0.3-0.3,0.4-0.4c0.2,0,0.4,0,0.6,0c0.7-0.1,1.5-0.2,2.2-0.3c1-0.2,1.9-0.4,2.9-0.7c2.6-0.7,5.2-1.7,7.7-2.8
				c0.2-0.1,0.4,0.2,0.2,0.3c-4.9,2.9-10.2,4.3-15.8,4.9c-0.5,0-0.7-0.7-0.2-1c4.1-2.3,8.2-4.6,12.4-6.9
				C235.4,124.3,236.6,124,237.9,123.8z"/>
			<path d="M237.5,122.7c0.1,0.4,0.3,0.7,0.4,1.1c-1.3,0.3-2.6,0.5-3.9,0.8C235.2,123.9,236.4,123.3,237.5,122.7z"/>
			<path d="M237.5,122.7L237.5,122.7c-1.1,0.7-2.3,1.3-3.4,1.9c-4.1,0.8-8.3,1.7-12.4,2.5v0c1.4-0.7,2.7-1.3,4.1-2
				C229.6,124.3,233.6,123.5,237.5,122.7z"/>
			<path d="M237.6,73.8c-0.2,0.1-0.4,0.2-0.5,0.4c0-0.1,0-0.1,0-0.2c-0.3,0.2-0.6,0.5-0.9,0.7c0,0,0,0,0,0c-0.2,0.1-0.3,0.2-0.5,0.3
				c0-0.3,0-0.7,0-1c0-0.6,0.6-0.8,1.1-0.6C236.9,73.5,237.2,73.7,237.6,73.8z"/>
			<path d="M237,74.2c0,0.3,0.1,0.6,0.1,0.9c-0.3-0.1-0.7-0.3-1-0.4C236.4,74.6,236.7,74.4,237,74.2z"/>
			<path d="M237,74c0,0.1,0,0.1,0,0.2c-0.3,0.2-0.6,0.4-0.9,0.5c0,0,0,0,0,0C236.4,74.5,236.7,74.2,237,74z"/>
			<path d="M235.4,115c0.5-0.1,0.9,0.7,0.4,0.9c0,0-0.1,0-0.1,0.1l0,0c-0.1-0.3-0.2-0.6-0.4-0.9v0C235.3,115,235.3,115,235.4,115z"
				/>
			<path d="M235.7,148.4c0.1,0.2,0.2,0.5,0.3,0.7c-0.3,0.1-0.6,0.1-0.9,0.2c0-0.2-0.1-0.5-0.1-0.7
				C235.2,148.5,235.4,148.5,235.7,148.4z"/>
			<path d="M235.6,116L235.6,116c-3.5,1.6-7.1,3.2-10.6,4.7c-2,0.4-4,0.9-6.1,1.3c4-1.7,7.9-3.4,11.9-5.1
				C232.4,116.6,234,116.3,235.6,116z"/>
			<path d="M235.2,115c0.1,0.3,0.3,0.6,0.4,0.9c-1.6,0.3-3.2,0.6-4.8,0.9C232.3,116.3,233.8,115.7,235.2,115z"/>
			<path d="M235.2,115L235.2,115c-1.5,0.7-2.9,1.3-4.4,1.9c-3.7,0.8-7.5,1.5-11.3,2.2v0c1.1-0.6,2.3-1.2,3.5-1.8
				C227.1,116.5,231.2,115.7,235.2,115z"/>
			<path d="M233.4,110.4c0.7-0.2,1.1,0.8,0.5,1.1c-0.1,0-0.1,0-0.1,0.1l0,0c-0.1-0.4-0.3-0.7-0.4-1.1v0
				C233.3,110.4,233.4,110.4,233.4,110.4z"/>
			<path d="M233.7,111.6c-1.6,0.4-3.2,0.8-4.7,1.2c1.4-0.8,2.9-1.5,4.3-2.3C233.4,110.8,233.6,111.2,233.7,111.6z"/>
			<path d="M233.3,110.4L233.3,110.4c-1.4,0.8-2.9,1.5-4.3,2.3c-3.8,0.9-7.6,1.9-11.4,2.8v0c1.5-0.8,3-1.5,4.5-2.3
				C225.8,112.2,229.5,111.3,233.3,110.4z"/>
			<path d="M232.2,83.6c0,0.1-0.1,0.2-0.1,0.1c-1.8-1.6-2.5-4.1-2.4-6.5c0.3-0.1,0.7-0.2,1-0.3l0,0.1c-0.2,0.1-0.5,0.3-0.8,0.4
				c0.2,0.2,0.5,0.3,0.7,0.5C230.6,79.9,231.3,81.7,232.2,83.6z"/>
			<path d="M232.1,107.9c-1.7,0.4-3.4,0.8-5.1,1.2c1.6-0.8,3.1-1.6,4.7-2.4C231.8,107.1,232,107.5,232.1,107.9z"/>
			<path d="M231.7,106.7L231.7,106.7c-1.6,0.8-3.1,1.7-4.6,2.5c-3.8,0.9-7.6,1.8-11.4,2.8l0-0.1c0.7-0.7,1.4-1.3,2.1-1.8
				C222.3,108.9,227,107.8,231.7,106.7z"/>
			<path d="M231.4,104.2c0.6,0.1,0.6,0.8,0,0.9c-5.2,0.6-9.7,1.8-13.7,4.9c-0.9,0.2-1.8,0.4-2.7,0.7l-0.1-0.1v0
				C219.2,106.4,225.2,103.4,231.4,104.2z"/>
			<path d="M230.9,76.8c-0.1,0-0.1,0-0.2,0.1c-0.3,0.1-0.6,0.2-1,0.3c0-0.1,0-0.1,0-0.2c0-0.4,0.4-0.6,0.8-0.4
				C230.6,76.7,230.7,76.7,230.9,76.8z"/>
			<path d="M230.3,162.9c0.3,1.3,0.7,2.5,1,3.8c-0.4,0.2-0.8,0.4-1.2,0.6c-0.4-1.2-0.8-2.5-1.2-3.7
				C229.3,163.4,229.8,163.1,230.3,162.9z"/>
			<path d="M229.9,77.4c0.2-0.1,0.5-0.3,0.8-0.4c0,0.3-0.1,0.6,0,0.9C230.4,77.7,230.2,77.6,229.9,77.4z"/>
			<path d="M230.6,58.6c-0.3-0.1-0.5-0.1-0.8-0.2c-0.1,0,0-0.1,0-0.1c0.1,0,0.2,0,0.2,0.1C230.3,58.5,230.5,58.6,230.6,58.6z"/>
			<path d="M230.3,162.9c-0.5,0.2-1,0.4-1.5,0.6c-1.5-5-2.9-10.1-4.5-15c-2.7-8.6-5.7-17.1-8.8-25.5c-5.2-14-11.3-27.4-17.3-41
				c0.7-0.1,1.3-0.2,2-0.2c0.2,0.5,0.5,1.1,0.7,1.6c-0.1,0-0.2,0.1-0.2,0.1c-0.2,0.1-0.1,0.4,0.1,0.4c0.1,0,0.2,0,0.3-0.1
				c5.5,11.9,10.2,24.3,14.7,36.4c3.3,8.7,6.3,17.5,9.2,26.3C226.8,151.9,228.8,157.4,230.3,162.9z"/>
			<path d="M228.8,163.6c0.4,1.2,0.8,2.5,1.2,3.7c-5,2.2-10.1,4.3-15.2,6.3c0.3-1.5,0.5-3,0.7-4.5
				C219.9,167.3,224.4,165.5,228.8,163.6z"/>
			<path d="M225.7,125.1c-1.3,0.7-2.7,1.3-4.1,2c-0.1-0.4-0.3-0.7-0.4-1C222.7,125.8,224.2,125.4,225.7,125.1z"/>
			<path d="M225,120.7c-1.9,0.8-3.8,1.7-5.6,2.5c-0.1-0.4-0.3-0.8-0.5-1.1C221,121.6,223,121.1,225,120.7z"/>
			<g>
				<defs>
					<path id="BABYXMLID_61_" d="M224.3,148.5c1.6,4.9,2.9,10,4.5,15c-4.4,1.9-8.9,3.8-13.4,5.5c0.7-6.2,0.4-12.7,0.1-18.5
						c-0.5-9.7-2.1-19.3-4.6-28.6c-2.5-9.1-5.9-18-10.2-26.4c-2.2-4.4-4.6-8.8-7.5-13c1.7-0.2,3.3-0.3,5-0.5
						c5.9,13.6,12.1,27,17.3,41C218.6,131.5,221.6,140,224.3,148.5z"/>
				</defs>
				<use xlink:href="#BABYXMLID_61_"  overflow="visible" fill="#E5D0B1"/>
				<clipPath id="BABYXMLID_5_">
					<use xlink:href="#BABYXMLID_61_"  overflow="visible"/>
				</clipPath>
				<path clip-path="url(#BABYXMLID_5_)" fill="#DFB88D" d="M270.8,132.4l14.7-8.3l3-4.7c0,0,15.9-5.2,38.4-27.6l29.4-16l7.2-5.5
					l-52.7,42.3l-25.7,35.3h-14.3V132.4z"/>
				<polygon clip-path="url(#BABYXMLID_5_)" fill="#DFB88D" points="213.9,163.8 231.5,157.1 236.2,170.4 214.8,173.5 				"/>
				<path clip-path="url(#BABYXMLID_5_)" fill="#DFB88D" d="M226.8,179.1c0,0-7.3-56.3-23-87.7s32.3,35,32.3,35l16,37L226.8,179.1z"/>
				<path clip-path="url(#BABYXMLID_5_)" fill="#DFB88D" d="M158.4,45.2c0,0,67.6,12,72.4,20.9s-14,12-14,12l30.7-2.3l12.3-36.3
					l-56.7-23.3L158.4,45.2z"/>
				<path clip-path="url(#BABYXMLID_5_)" fill="#DFB88D" d="M268.5,86.7c0,0-0.3,18.7,11,27c0,0-9.3-16.2-6.7-26.8
					C275.5,76.4,268.5,86.7,268.5,86.7z"/>
				<path clip-path="url(#BABYXMLID_5_)" fill="#DFB88D" d="M115.8,42.2c0,0,12.4-9.4,21.2-12.1l-4.5,7.5L115.8,42.2z"/>
			</g>
			<path d="M223.8,131.5c-0.6-0.3-0.5-0.4,0.4-0.4C224.1,131.2,223.9,131.4,223.8,131.5z"/>
			<path d="M223.6,84.2c0.2,0.3,0.3,0.7,0.5,1.1c-0.2,0.1-0.5,0.2-0.7,0.3c-0.2-0.3-0.4-0.7-0.6-1C223.1,84.4,223.4,84.3,223.6,84.2
				z"/>
			<path d="M223.6,84.2c-0.3,0.1-0.5,0.2-0.8,0.4c-0.5-1-1-1.9-1.5-2.9c-0.4-0.8-1-1.7-1.4-2.5c0.4-0.1,0.8-0.1,1.2-0.2
				c0.3,0.8,0.7,1.6,1,2.3C222.6,82.2,223.1,83.2,223.6,84.2z"/>
			<path d="M222.9,84.6c0.2,0.4,0.4,0.7,0.6,1c-1.2,0.6-2.5,1.2-3.8,1.8c-1.2,0.5-2.3,1.1-3.5,1.6c-0.1-0.2-0.2-0.4-0.3-0.6
				c1.2-0.7,2.4-1.3,3.6-1.9C220.6,85.8,221.7,85.1,222.9,84.6z"/>
			<path d="M219.1,118c1.3-0.2,2.6-0.5,3.9-0.7c-1.1,0.6-2.3,1.2-3.5,1.8C219.4,118.7,219.2,118.3,219.1,118z"/>
			<path fill="#F7EFDD" d="M221.4,81.7c0.5,0.9,1,1.9,1.5,2.9c-1.1,0.6-2.3,1.2-3.4,1.8c-1.2,0.6-2.4,1.2-3.6,1.9
				c-1.1-2.1-2.4-4.1-3.6-6.1c-0.3-0.6-0.7-1.2-1-1.8c2.9-0.4,5.8-0.8,8.7-1.2C220.4,80,220.9,80.9,221.4,81.7z"/>
			<path d="M221.6,127.1L221.6,127.1c0,0-0.1,0-0.1,0c-0.6,0.1-1-0.7-0.4-1c0,0,0.1-0.1,0.1-0.1
				C221.4,126.4,221.5,126.7,221.6,127.1z"/>
			<path d="M221.1,79c-0.4,0.1-0.8,0.1-1.2,0.2c-0.4-0.8-0.9-1.5-1.2-2.3c0.4-0.1,0.8-0.1,1.2-0.2C220.4,77.4,220.8,78.2,221.1,79z"
				/>
			<path d="M222.1,113.1c-1.5,0.8-3,1.6-4.5,2.3c-0.2-0.4-0.3-0.8-0.5-1.1C218.8,114,220.4,113.6,222.1,113.1z"/>
			<path d="M219.6,119.1L219.6,119.1c-0.1,0-0.1,0.1-0.2,0.1c-0.6,0.1-1.1-0.8-0.4-1.1c0,0,0.1-0.1,0.1-0.1l0,0
				C219.2,118.3,219.4,118.7,219.6,119.1z"/>
			<path d="M218.8,76.8c0.3,0.8,0.7,1.6,1.2,2.3c-2.9,0.5-5.8,0.9-8.7,1.2c-0.4-0.8-0.9-1.5-1.3-2.3
				C212.9,77.7,215.8,77.3,218.8,76.8z"/>
			<path d="M214.9,110.7c0.9-0.2,1.8-0.4,2.7-0.7c-0.7,0.5-1.4,1.1-2.1,1.8C215.3,111.4,215.1,111,214.9,110.7z"/>
			<path d="M217.6,115.5L217.6,115.5c-0.1,0-0.1,0-0.2,0.1c-0.7,0.2-1.1-0.8-0.4-1.1c0.1,0,0.1-0.1,0.1-0.1v0
				C217.3,114.7,217.4,115.1,217.6,115.5z"/>
			<path d="M216.2,88.9c-0.1,0-0.2,0.1-0.3,0.1c-0.1-0.2-0.3-0.4-0.4-0.5c0.1-0.1,0.2-0.2,0.4-0.2C216,88.5,216.1,88.7,216.2,88.9z"
				/>
			<path d="M215.9,88.3c-0.1,0.1-0.2,0.1-0.4,0.2c-1.3-1.8-2.4-3.7-3.6-5.5c-0.5-0.8-1.1-1.6-1.6-2.4c0.3,0,0.7-0.1,1-0.1
				c0.3,0.6,0.7,1.2,1,1.8C213.5,84.2,214.8,86.2,215.9,88.3z"/>
			<path d="M215.5,150.5c0.3,5.8,0.6,12.3-0.1,18.5c-0.7,0.3-1.3,0.5-2,0.8c0.2-2,0.4-4,0.4-6c0.1-4.4,0.1-8.9-0.2-13.3
				c-0.6-9.5-2.2-18.9-4.7-28.1c-2.6-9.4-6.2-18.5-10.8-27.2c-2.3-4.3-5-8.4-7.7-12.5c0.9-0.1,1.8-0.2,2.7-0.2
				c2.8,4.2,5.2,8.6,7.5,13c4.3,8.4,7.7,17.3,10.2,26.4C213.4,131.3,215,140.9,215.5,150.5z"/>
			<path d="M215.6,111.8L215.6,111.8c-0.1,0.1-0.2,0.1-0.3,0.2c-0.7,0.2-1.1-0.7-0.6-1.2c0.1-0.1,0.1-0.2,0.2-0.2l0.1,0.1
				C215.1,111,215.3,111.4,215.6,111.8z"/>
			<path d="M215.4,169c-0.2,1.5-0.4,3-0.7,4.5c-0.6,0.2-1.1,0.4-1.7,0.6c0.1-1.5,0.2-2.9,0.4-4.4C214.1,169.5,214.8,169.3,215.4,169
				z"/>
			<g>
				<defs>
					<path id="BABYXMLID_63_" d="M213.7,150.5c0.3,4.4,0.3,8.9,0.2,13.3c0,2-0.2,4-0.4,6c-5,1.9-10.1,3.6-15.2,5.2
						c-10.2,3.2-20.5,5.8-31,7.8c0.8-0.9,1.4-1.9,1.9-2.6c2.9-4.4,5.3-9.1,7.4-13.9c4.4-9.9,6.9-19.8,7.2-30.6
						c0-0.2-0.3-0.3-0.3-0.1c-1.9,9-4.1,18.2-7.2,26.8c-1.6,4.3-3.4,8.5-5.5,12.6c-0.9,1.8-1.9,4.7-3.3,6.1c-0.4,1-1,1.5-1.9,1.7
						c-0.6,0.1-1.4,0-2.3-0.3c-0.2-1.1-0.3-2.2-0.4-3.4c-0.9-15.7-4.2-30.2-11.4-44.2c-0.2-0.4-0.8-0.1-0.6,0.3
						c4.8,9.9,7.7,20.4,8.7,31.3c0.4,4.7-0.3,9.6,0.5,14.2c0.2,1.2,0.7,2.4,1.5,3.2c-1.2,0.2-2.4,0.4-3.6,0.6
						c-11.4,2-23.1,3.7-34.8,4.8c-0.1-0.3-0.2-0.6-0.3-0.8c-0.1-0.2-0.3-0.1-0.3,0.1c0,0.3,0,0.6-0.1,0.8c0,0.3,0,0.7-0.1,1
						c-0.6,9.2-0.1,18.3-2.3,27.4c-0.6,2.6-1.4,5.2-2.3,7.8c-5.4,0.2-10.8-0.4-16.2-1.2c-1.4-0.2-5.1-1.5-5.3,0.9
						c-0.2,2,5.4,4.4,6.8,5c3.2,1.6,6.7,2.6,10.2,3.2c-3.9,1.2-7.8,2.7-11.7,3.7c-6.1,1.7-12.1,1.7-18.3,2.3c0,0-0.1,0.1,0,0.1
						c5.7,1.1,12.2,0.3,18-0.5c3.9-0.6,8.2-1.6,12-3.4c-1.7,3.2-3.7,6.3-6,9.3c-5.8,7.6-13,14-21,19.2c-3.6,2.3-7.3,4.4-11.1,6.2
						c-1.6,0.8-3.2,1.4-4.9,2.1c-0.4,0.2-0.8,0.3-1.2,0.5c-1,0.4-2,0.8-3,1.3c-0.1,0-0.1,0.1-0.2,0.1c-4.1-6.8-10.6-13.2-17.4-17.7
						c-0.6-0.4-1.2-0.8-1.8-1.1c0,0-0.1,0-0.1,0c0.4-0.1,0.8-0.2,1.2-0.3c0.6-0.2,1.2-0.3,1.7-0.6c0.2-0.1,0.4-0.1,0.6-0.2
						c1.2-0.4,2.4-0.9,3.6-1.5c0.2-0.1,0.4-0.2,0.5-0.2c12.7-6.4,22.8-19.7,26.5-32.7c2.4-8.4,2.5-17.6,0.5-26.1
						c-0.4-1.6-0.8-3.1-1.3-4.6c5.5-1.8,11.3-2.7,17.6-2.6c0.1,0,0.1-0.1,0-0.2c-5.9-1.5-12.4-1.1-18.3,1c-1.8-4.6-4.2-8.9-7.2-12.8
						c0.7-0.8,1.2-1.7,1.7-2.6c0.5-0.2,1.1-0.4,1.6-0.6c0.1,0,0.2-0.1,0.3-0.1c1.3-0.5,2.5-1.1,3.7-1.8c1.1,2.2,3.6,4.2,5.5,5.1
						c3.3,1.6,7.3,1.5,10.6-0.2c3.3-1.7,6-4.6,6.3-8.4c0.2-2-0.2-4.3-1.3-6.2c19.6-7.2,34.9-25,37-46.4c0.9-9.8-1.4-19.8-5.9-28.5
						c-1.2-2.3-2.6-4.6-4-6.7c-6.9-10-16.8-15.7-28.7-17.8c-8.5-1.6-17.1-1.9-25.5-0.4c2.9-4.9,8.3-8.3,13.9-9.4
						c8.8-1.7,17.5,2.1,24.5,7c6.5,4.5,12.4,10.1,16.9,16.5c2.1,2.9,4,6,5.6,9.2c0.1,0.3,0.3,0.5,0.4,0.8c0.2,0.4,0.4,0.8,0.6,1.3
						c0,0,0,0,0,0c0.8,0.1,1.6,0.1,2.3,0.2c4.1,0.2,8.4-0.2,12.4-0.3c2.9-0.1,5.9-0.2,8.8-0.3c2.2,2,5.2,3.5,7.4,5.7
						c2.9,2.8,5.7,5.6,8,9c4.7,6.9,7.6,14.4,8.6,22.6c0,0,0.1,0,0.1,0c-0.1-8.5-2.6-17.1-7.4-24.1c-2.2-3.3-4.8-6.5-7.9-9
						c-1.7-1.3-3.9-3.1-6.2-4.3c1.6-0.1,3.2-0.1,4.8-0.2c6.9,2.7,12.9,9.2,16.6,14.8c5,7.5,8,16.3,8.5,25.4c0,0.1,0.1,0.1,0.1,0
						c-0.2-10.5-3.4-20.4-9.6-28.9c-3-4.2-7.3-8.9-12.3-11.5c0.1,0,0.2,0,0.3,0c7-0.3,13.9-0.8,20.9-1.4c2.7,4.1,5.4,8.1,7.7,12.5
						c4.6,8.6,8.2,17.8,10.8,27.2C211.5,131.6,213.1,141,213.7,150.5z"/>
				</defs>
				<use xlink:href="#BABYXMLID_63_"  overflow="visible" fill="#DDDDEF"/>
				<clipPath id="BABYXMLID_6_">
					<use xlink:href="#BABYXMLID_63_"  overflow="visible"/>
				</clipPath>
				<path clip-path="url(#BABYXMLID_6_)" fill="#B6B6C7" d="M213.9,163.8c0,0-34.8,14.4-90.8,25.6c0,0,24.5,7.2,56,2.2s37-16,37-16
					L213.9,163.8z"/>
				<path clip-path="url(#BABYXMLID_6_)" fill="#B6B6C7" d="M122.3,189.4c0,0-6.7,61-56.7,86.8c0,0,34.4-8.1,48.4-20.2
					c14-12,20.5-44.5,20.5-44.5L122.3,189.4z"/>
				<path clip-path="url(#BABYXMLID_6_)" fill="#B6B6C7" d="M113.2,233.6c0,0-13.3-2.8-15.2-5.5c-1.9-2.7-0.6-4.7,3.4-3.6
					c4.1,1.1,16.1,1.4,16.1,1.4L113.2,233.6z"/>
				<path clip-path="url(#BABYXMLID_6_)" fill="#B6B6C7" d="M150.7,135.2c0,0,15.9,19.4,16.6,47.6c0.7,28.2-9.5,1.8-9.5,1.8
					s0.1-12.1,0.1-19.8S156.8,145.9,150.7,135.2z"/>
				<path clip-path="url(#BABYXMLID_6_)" fill="#B6B6C7" d="M166,84.4c0,0,17.5,8.7,16.5,34.7c0,0-5.7-23.9-16.4-28.7
					c-10.6-4.8-4.9-5.8-4.9-5.8L166,84.4z"/>
				<path clip-path="url(#BABYXMLID_6_)" fill="#B6B6C7" d="M190,122.6c0,0-7.8-31.2-20.6-38.3C169.4,84.2,193.5,101.6,190,122.6z"/>
				<path clip-path="url(#BABYXMLID_6_)" fill="#B6B6C7" d="M162.7,179.1c0,0,15.9-19,19.9-39c0,0-7.5,32.4-15.3,42.8
					C159.5,193.3,162.7,179.1,162.7,179.1z"/>
				<path clip-path="url(#BABYXMLID_6_)" fill="#B6B6C7" d="M81.5,195.9c0,0,1-7.5,7-9.2l-8.8,2.7L81.5,195.9z"/>
				<path clip-path="url(#BABYXMLID_6_)" fill="#B6B6C7" d="M133.5,116.6c0,0,23.5,47,17.5,71s-27.5,45.5-27.5,45.5s-20.5-20.9-49-13.5
					s-31.5-15-31.5-15l21-52L133.5,116.6z"/>
			</g>
			<path d="M213.4,169.8c-0.1,1.5-0.3,2.9-0.4,4.4c-4.3,1.6-8.7,3.1-13.1,4.4c-14,4.4-28.3,7.8-42.7,9.9
				c-11.4,1.6-22.5,2.1-33.8,1.9c-0.1-0.4-0.2-0.7-0.4-1.1c11.6-1.1,23.4-2.8,34.8-4.8c1.2-0.2,2.4-0.4,3.6-0.6
				c0.7,0.6,1.5,1,2.7,0.9c1.3-0.1,2.4-1,3.3-2c10.5-2.1,20.8-4.6,31-7.8C203.4,173.4,208.4,171.7,213.4,169.8z"/>
			<path d="M211.3,80.4c-0.3,0.1-0.7,0.1-1,0.1c-0.5-0.8-1-1.5-1.5-2.3c0.4,0,0.8-0.1,1.1-0.1C210.4,78.9,210.9,79.7,211.3,80.4z"/>
			<path d="M210.3,80.6c-0.2,0-0.4,0-0.5,0.1c0.3-0.3,0.1-0.9-0.4-0.9c-1.4,0-2.8,0.9-4.1,1.4c0,0-0.1,0-0.1,0
				c-1.7,0.2-3.3,0.4-5,0.6c-0.4-0.8-0.8-1.6-1.1-2.4c3.2-0.3,6.5-0.7,9.7-1.1C209.2,79.1,209.8,79.8,210.3,80.6z"/>
			<path d="M209.4,79.8c0.4,0,0.7,0.5,0.4,0.9c-0.4,0-0.8,0.1-1.2,0.2c-1.1,0.1-2.2,0.3-3.3,0.4c0,0,0,0,0.1,0
				C206.5,80.6,208,79.7,209.4,79.8z"/>
			<path d="M201.2,83.8c-0.1,0-0.2,0.1-0.3,0.1c-0.2,0.1-0.3-0.2-0.1-0.4c0.1,0,0.1-0.1,0.2-0.1C201,83.5,201.1,83.7,201.2,83.8z"/>
			<path d="M200.2,81.8c-0.7,0.1-1.3,0.2-2,0.2c-0.4-0.8-0.7-1.6-1.1-2.4c0.6-0.1,1.3-0.1,1.9-0.2C199.4,80.2,199.8,81,200.2,81.8z"
				/>
			<path d="M197.2,79.6c0.3,0.8,0.7,1.6,1.1,2.4c-1.7,0.2-3.3,0.3-5,0.5c-0.5-0.8-1.1-1.6-1.7-2.4C193.4,80,195.3,79.8,197.2,79.6z"
				/>
			<path d="M193.2,82.5c-0.9,0.1-1.8,0.2-2.7,0.2c-0.5-0.8-1-1.6-1.6-2.4c0.5,0,0.9-0.1,1.4-0.1c0.4,0,0.8-0.1,1.2-0.1
				C192.1,80.9,192.7,81.7,193.2,82.5z"/>
			<path d="M191.2,124.6C191.2,124.7,191.1,124.7,191.2,124.6c-0.6-9-3.6-17.8-8.6-25.4c-3.7-5.6-9.7-12.2-16.6-14.8
				c1.1,0,2.2-0.1,3.3-0.2c5,2.6,9.3,7.3,12.3,11.5C187.9,104.2,191.1,114.1,191.2,124.6z"/>
			<path d="M188.9,80.4c0.5,0.8,1,1.6,1.6,2.4c-6.9,0.6-13.9,1.1-20.9,1.4c-0.1,0-0.2,0-0.3,0c-2.5-1.3-5.2-2-7.9-1.8l0-0.1
				c5.9-0.3,11.8-0.7,17.8-1.2c3.3,0.4,6.6,0.6,9.7,0.8c0.5,0,0.6-0.8,0.1-0.9c-0.8-0.2-1.6-0.4-2.4-0.5
				C187.4,80.5,188.2,80.4,188.9,80.4z"/>
			<path d="M189.1,81.1c0.5,0.1,0.4,0.9-0.1,0.9c-3.2-0.2-6.4-0.5-9.7-0.8c2.5-0.2,5-0.4,7.5-0.6C187.5,80.7,188.3,80.9,189.1,81.1z
				"/>
			<path d="M183.4,135.6c0-0.2,0.4-0.1,0.3,0.1c-0.3,10.8-2.8,20.7-7.2,30.6c-2.1,4.8-4.5,9.6-7.4,13.9c-0.5,0.8-1.2,1.8-1.9,2.6
				c-0.6,0.1-1.2,0.2-1.8,0.4l-0.1-0.4c0.9-0.1,1.6-0.7,1.9-1.7c1.4-1.4,2.4-4.4,3.3-6.1c2.1-4.1,3.9-8.3,5.5-12.6
				C179.3,153.8,181.5,144.6,183.4,135.6z"/>
			<path d="M186.7,80.6c-2.5,0.2-5,0.4-7.5,0.6c-17.1-1.8-35.6-6.1-48.9-16.5c-6.2-4.9-6.4-11.2-3.3-18.1c1.6-3.6,3.5-7.1,5.6-10.5
				c0.8-0.1,1.6-0.2,2.4-0.4c-1.7,2.9-3.3,5.9-4.7,9c-1.9,4.1-4.1,9.3-1.8,13.7c1.9,3.8,6.3,6,9.9,8
				C153.3,74.6,170.2,76.8,186.7,80.6z"/>
			<path d="M182.8,122C182.8,122.1,182.7,122.1,182.8,122c-1.1-8.2-3.9-15.8-8.7-22.6c-2.3-3.4-5.1-6.2-8-9
				c-2.2-2.2-5.2-3.6-7.4-5.7c0.9,0,1.7-0.1,2.6-0.1c2.3,1.2,4.4,3,6.2,4.3c3.1,2.5,5.7,5.7,7.9,9
				C180.1,104.9,182.7,113.5,182.8,122z"/>
			<path d="M169.3,3c7,3,6.2,10,3.7,15.9c-3.7,8.6-8,17-13.1,24.9c-0.2,0-0.4,0-0.6,0c3.9-6.9,7.6-14,10.6-21.3
				c1.4-3.4,3.6-7.9,3.3-11.7c-0.5-6.9-8.1-7.4-13.4-7.8c-15-1.1-29.9-0.8-44.9,0c0-0.4,0.1-0.9,0.2-1.3c8.1-1.2,16.3-1.7,24.7-1.7
				c5.5,0,11.1,0.2,16.6,0.8C160.4,1.2,165.3,1.3,169.3,3z"/>
			<path d="M169.4,84.2c-1.1,0.1-2.2,0.1-3.3,0.2c-2.6-1-5.4-1.5-8.2-1c0,0,0,0-0.1,0c-0.1,0-0.1-0.1,0-0.1c1.3-0.5,2.5-0.8,3.8-0.9
				C164.2,82.2,166.9,82.9,169.4,84.2z"/>
			<path d="M165.5,183.2c0.6-0.1,1.2-0.2,1.8-0.4c-0.9,1.1-2,1.9-3.3,2c-1.1,0.1-2-0.3-2.7-0.9C162.8,183.7,164.1,183.5,165.5,183.2
				z"/>
			<path d="M166,84.4c-1.6,0.1-3.2,0.1-4.8,0.2c-1.2-0.6-2.4-1.1-3.5-1.2v0C160.6,82.9,163.4,83.4,166,84.4z"/>
			<path d="M165.4,182.8l0.1,0.4c-1.4,0.3-2.7,0.5-4.1,0.8c-0.8-0.8-1.3-2-1.5-3.2c-0.7-4.6,0-9.6-0.5-14.2c-1-10.9-4-21.4-8.7-31.3
				c-0.2-0.4,0.4-0.7,0.6-0.3c7.2,14.1,10.6,28.6,11.4,44.2c0,1.1,0.2,2.3,0.4,3.4C164,182.8,164.8,182.9,165.4,182.8z"/>
			<path d="M161.4,82.3L161.4,82.3c-1.2,0.2-2.5,0.5-3.8,1c0,0,0,0.1,0,0.1c0,0,0,0,0.1,0v0c-0.1,0-0.2,0.2-0.1,0.3
				c0.3,0.4,0.7,0.7,1,1c-2.9,0.1-5.9,0.2-8.8,0.3c-4,0.1-8.2,0.5-12.4,0.3c-0.3-0.6-0.6-1.2-0.9-1.8c7.8-1.3,16.4-0.7,24.1-1.1
				C160.9,82.4,161.2,82.3,161.4,82.3z"/>
			<path d="M161.3,84.6c-0.9,0-1.7,0.1-2.6,0.1c-0.4-0.3-0.7-0.7-1-1c-0.1-0.1,0-0.3,0.1-0.3C158.9,83.5,160.1,84,161.3,84.6z"/>
			<path d="M159.2,43.8c0.2,0,0.4,0,0.6,0c-0.3,0.5-0.6,0.9-0.9,1.4c-0.2,0-0.3,0-0.4,0C158.7,44.7,158.9,44.2,159.2,43.8z"/>
			<path d="M159.2,43.8c-0.2,0.5-0.5,0.9-0.8,1.4c-1.4-0.1-2.9-0.3-4.2-0.7c-0.2-0.1-0.2-0.4,0-0.4
				C155.8,43.7,157.5,43.7,159.2,43.8z"/>
			<path d="M142.2,23.2c0.2-0.1,0.4,0.1,0.3,0.2c-1.4,3.7-4.3,6.8-6.4,10.2c-0.7,0-1.4,0-2.2,0.1c0,0,0,0,0-0.1
				C136.2,30.1,138.6,25.6,142.2,23.2z"/>
			<path d="M131.3,84.9c4.5,8.8,6.8,18.7,5.9,28.5c-2,21.3-17.3,39.2-37,46.4c-0.3-0.6-0.8-1.2-1.2-1.8c7.8-3.7,14.8-8.5,20.9-15.2
				c9.5-10.4,14.9-24.7,13.3-38.9c-1.2-11-6.6-21.8-14.2-29.8c-8.5-9.1-20.9-11.4-32.9-11.8c-4.5-0.2-8.9,0.2-13.2,1
				c-0.2-0.7-0.4-1.3-0.7-1.9c0.2-0.5,0.5-1,0.8-1.5c8.4-1.5,17-1.1,25.5,0.4c11.9,2.2,21.7,7.9,28.7,17.8
				C128.8,80.3,130.1,82.5,131.3,84.9z"/>
			<path d="M136.6,83.5c0.3,0.6,0.6,1.2,0.9,1.8c-0.8,0-1.6-0.1-2.3-0.2c0,0,0,0,0,0c-0.2-0.4-0.4-0.9-0.6-1.3
				C135.2,83.7,135.9,83.6,136.6,83.5z"/>
			<path d="M136.1,33.7c0,0.1-0.1,0.1-0.1,0.2c-0.4,0.6-0.7,1.2-1.1,1.8c-0.8,0.1-1.6,0.2-2.4,0.4c0.5-0.8,0.9-1.5,1.4-2.3
				C134.7,33.7,135.4,33.7,136.1,33.7z"/>
			<path d="M136.6,83.5c-0.7,0.1-1.4,0.2-2.1,0.4c-0.1-0.3-0.2-0.5-0.4-0.8c-1.6-3.2-3.5-6.2-5.6-9.2c-4.6-6.4-10.5-12-16.9-16.5
				c-7-4.9-15.8-8.7-24.5-7c-5.7,1.1-11,4.5-13.9,9.4c-0.5,0.1-1,0.2-1.5,0.3c-0.1-0.2-0.3-0.4-0.4-0.6c2-4.4,5.7-7.9,10.3-10.1
				c7.8-3.5,16.5-2,24,1.7c9,4.4,16.3,11.7,22.4,19.5C130.7,74.3,134.1,78.8,136.6,83.5z"/>
			<path d="M133.9,33.8c-0.5,0.8-0.9,1.5-1.4,2.3c-1.8,0.3-3.7,0.6-5.5,1.2c-3.9,1.3-7.6,3-11,5.2c-0.1-0.1-0.1-0.2-0.2-0.3
				C120.7,38.2,127.5,34.4,133.9,33.8z"/>
			<path d="M123.4,190.4c3,8.6,1.7,18.9-0.5,27.4c-1.3,5.1-3.2,10-5.6,14.8c-0.9,0.2-1.9,0.4-2.8,0.7c1.2-2.4,2.2-4.9,3.1-7.4
				c0.1,0,0.2,0,0.3-0.1c0.1,0,0.1-0.1,0-0.1c-0.1,0-0.2,0-0.2,0c0.9-2.5,1.7-5.1,2.3-7.8c2.2-9.2,1.8-18.2,2.3-27.4
				C122.6,190.4,123,190.4,123.4,190.4z"/>
			<path d="M123,189.4c0.1,0.4,0.3,0.7,0.4,1.1c-0.4,0-0.8,0-1.2,0c0-0.3,0-0.7,0.1-1C122.6,189.4,122.8,189.4,123,189.4z"/>
			<path d="M122.7,188.5c0.1,0.3,0.2,0.6,0.3,0.8c-0.2,0-0.5,0-0.7,0.1c0-0.3,0-0.6,0.1-0.8C122.4,188.5,122.6,188.4,122.7,188.5z"
				/>
			<path d="M117.9,225.6c0.1,0,0.1,0.1,0,0.1c-0.1,0-0.2,0-0.3,0.1c0-0.1,0-0.1,0.1-0.2C117.7,225.6,117.8,225.6,117.9,225.6z"/>
			<path d="M117.6,225.6c0,0.1,0,0.1-0.1,0.2c-2.9,0.5-5.8,0.9-8.7,0.9c-2.8,0-5.7-0.8-8.4-0.8c-2.8,0-0.8,0.9,0.7,1.9
				c1.2,0.8,2.5,1.5,3.7,2.2c2.8,1.5,5.8,2.6,8.9,3.5c-0.2,0.1-0.4,0.1-0.6,0.2c-3.5-0.6-7-1.7-10.2-3.2c-1.4-0.7-7-3-6.8-5
				c0.2-2.4,3.9-1.1,5.3-0.9C106.8,225.2,112.2,225.9,117.6,225.6z"/>
			<path d="M117.2,232.6c-0.2,0.4-0.4,0.7-0.6,1.1c-1.1,0.8-2.3,1.5-3.5,2.1c0.4-0.7,0.7-1.3,1-2c0.4,0.1,0.8,0.1,1.3,0.2
				c0,0,0.1-0.1,0-0.1c-0.4-0.1-0.8-0.2-1.2-0.3c0.1-0.1,0.1-0.2,0.1-0.3C115.4,233,116.3,232.8,117.2,232.6z"/>
			<path d="M116.5,31.1c-0.3,0.1-0.5,0.2-0.8,0.4c-0.2-0.4-0.4-0.9-0.6-1.4c0.3-0.2,0.7-0.4,1.1-0.5C116.3,30,116.4,30.6,116.5,31.1
				z"/>
			<path d="M116,28.7c0.1,0.3,0.1,0.5,0.2,0.8c-0.4,0.1-0.7,0.3-1.1,0.5c-0.2-0.4-0.3-0.7-0.4-1.1C115.1,28.9,115.5,28.8,116,28.7z"
				/>
			<path d="M115.7,27.7c0.1,0.4,0.2,0.7,0.2,1.1c-0.4,0.1-0.9,0.1-1.3,0.2c-0.1-0.3-0.2-0.6-0.3-0.9
				C114.8,27.9,115.3,27.8,115.7,27.7z"/>
			<path d="M115.8,42.2c0.1,0.1,0.1,0.2,0.2,0.3c-0.3,0.2-0.5,0.3-0.8,0.5c-0.1-0.1-0.1-0.1-0.2-0.2
				C115.3,42.6,115.6,42.4,115.8,42.2z"/>
			<path d="M115.8,42.2c-0.2,0.2-0.5,0.4-0.7,0.6c-1.9-1.7-3.6-4.4-4.5-6.9c0.3-0.5,0.7-1,1-1.4c0.5,1.5,1,2.9,1.8,4.3
				C114.1,40,115,41.1,115.8,42.2z"/>
			<path d="M115.5,233.9c0.1,0,0,0.1,0,0.1c-0.4,0-0.9-0.1-1.3-0.2c0-0.1,0.1-0.1,0.1-0.2C114.7,233.7,115.1,233.8,115.5,233.9z"/>
			<path d="M115.1,30.1c0.2,0.5,0.4,0.9,0.6,1.4c-0.5,0.2-1,0.4-1.5,0.7c-0.9,0.6-1.8,1.4-2.5,2.2c0,0-0.1,0.1-0.1,0.1
				c-0.1-0.4-0.3-0.8-0.4-1.2c0.7-0.8,1.4-1.5,2-1.9C113.8,31,114.4,30.5,115.1,30.1z"/>
			<g>
				<defs>
					<path id="BABYXMLID_64_" d="M117.6,225.8c-0.9,2.5-1.9,5-3.1,7.4c-0.2,0.1-0.4,0.1-0.6,0.2c-3.1-0.9-6.1-2-8.9-3.5
						c-1.2-0.7-2.5-1.4-3.7-2.2c-1.5-0.9-3.5-1.9-0.7-1.9c2.7,0,5.6,0.8,8.4,0.8C111.8,226.7,114.7,226.3,117.6,225.8z"/>
				</defs>
				<use xlink:href="#BABYXMLID_64_"  overflow="visible" fill="#DDDDEF"/>
				<clipPath id="BABYXMLID_7_">
					<use xlink:href="#BABYXMLID_64_"  overflow="visible"/>
				</clipPath>
				<path clip-path="url(#BABYXMLID_7_)" fill="#B6B6C7" d="M213.9,163.8c0,0-34.8,14.4-90.8,25.6c0,0,24.5,7.2,56,2.2s37-16,37-16
					L213.9,163.8z"/>
				<path clip-path="url(#BABYXMLID_7_)" fill="#B6B6C7" d="M122.3,189.4c0,0-6.7,61-56.7,86.8c0,0,34.4-8.1,48.4-20.2
					c14-12,20.5-44.5,20.5-44.5L122.3,189.4z"/>
				<path clip-path="url(#BABYXMLID_7_)" fill="#B6B6C7" d="M113.2,233.6c0,0-13.3-2.8-15.2-5.5c-1.9-2.7-0.6-4.7,3.4-3.6
					c4.1,1.1,16.1,1.4,16.1,1.4L113.2,233.6z"/>
				<path clip-path="url(#BABYXMLID_7_)" fill="#B6B6C7" d="M150.7,135.2c0,0,15.9,19.4,16.6,47.6c0.7,28.2-9.5,1.8-9.5,1.8
					s0.1-12.1,0.1-19.8S156.8,145.9,150.7,135.2z"/>
				<path clip-path="url(#BABYXMLID_7_)" fill="#B6B6C7" d="M166,84.4c0,0,17.5,8.7,16.5,34.7c0,0-5.7-23.9-16.4-28.7
					c-10.6-4.8-4.9-5.8-4.9-5.8L166,84.4z"/>
				<path clip-path="url(#BABYXMLID_7_)" fill="#B6B6C7" d="M190,122.6c0,0-7.8-31.2-20.6-38.3C169.4,84.2,193.5,101.6,190,122.6z"/>
				<path clip-path="url(#BABYXMLID_7_)" fill="#B6B6C7" d="M162.7,179.1c0,0,15.9-19,19.9-39c0,0-7.5,32.4-15.3,42.8
					C159.5,193.3,162.7,179.1,162.7,179.1z"/>
				<path clip-path="url(#BABYXMLID_7_)" fill="#B6B6C7" d="M81.5,195.9c0,0,1-7.5,7-9.2l-8.8,2.7L81.5,195.9z"/>
			</g>
			<path d="M115,1.7c0,0.4-0.1,0.9-0.2,1.3c-0.5,0-0.9,0-1.4,0.1c0.1-0.4,0.2-0.8,0.3-1.2C114.2,1.8,114.6,1.8,115,1.7z"/>
			<path d="M114.7,29c-0.2,0-0.3,0.1-0.5,0.1c-1.3,0.3-2.6,0.7-3.9,1.1c0-0.1-0.1-0.3-0.1-0.4c1.1-0.6,2.4-1,3.6-1.4
				c0.2-0.1,0.4-0.1,0.6-0.2C114.5,28.4,114.6,28.7,114.7,29z"/>
			<path d="M114.4,21.6c0.1,0.3,0.1,0.7,0.2,1c-0.5,0.2-1.1,0.3-1.6,0.4c-0.1-0.3-0.1-0.7-0.2-1C113.3,21.8,113.9,21.7,114.4,21.6z"
				/>
			<path d="M114.4,233.3c0,0.1-0.1,0.2-0.1,0.3c-0.2,0-0.3-0.1-0.5-0.1C114,233.4,114.2,233.3,114.4,233.3z"/>
			<path d="M114.3,20.9c0,0.2,0.1,0.4,0.1,0.6c-0.5,0.1-1.1,0.2-1.6,0.4c-0.1-0.4-0.1-0.8-0.2-1.2C113.2,20.9,113.8,20.9,114.3,20.9
				z"/>
			<path d="M114.3,233.6c0,0.1-0.1,0.1-0.1,0.2c-0.3-0.1-0.7-0.1-1-0.2c0.2-0.1,0.4-0.1,0.6-0.2C114,233.5,114.1,233.5,114.3,233.6z
				"/>
			<path d="M114.1,19.8c0.1,0.4,0.1,0.7,0.2,1.1c-0.5,0-1.1-0.1-1.6-0.1c-0.1-0.3-0.1-0.7-0.1-1C113.1,19.8,113.6,19.8,114.1,19.8z"
				/>
			<path d="M113.2,233.6c0.3,0.1,0.7,0.1,1,0.2c-0.3,0.7-0.7,1.3-1,2c-3.8,1.8-8.1,2.9-12,3.4c-5.7,0.8-12.2,1.6-18,0.5
				c0,0,0-0.1,0-0.1c6.2-0.6,12.2-0.6,18.3-2.3C105.4,236.3,109.3,234.8,113.2,233.6z"/>
			<path d="M113.2,235.8c1.3-0.6,2.5-1.3,3.5-2.1c-2.3,4.4-4.9,8.5-7.9,12.4c-5.7,7.4-12.6,13.9-20.4,19.1c-4.6,3.1-10,6.6-15.7,8.9
				c-0.9-0.5-1.7-1-2.5-1.5c1.7-0.7,3.3-1.3,4.9-2.1c3.8-1.8,7.5-3.9,11.1-6.2c8-5.2,15.2-11.7,21-19.2
				C109.4,242.1,111.4,239,113.2,235.8z"/>
			<path d="M112.3,9.9c0.5,0,1.1,0,1.7,0c0,0.4-0.1,0.7-0.1,1c-0.6,0-1.1-0.1-1.6-0.1C112.2,10.5,112.3,10.2,112.3,9.9z"/>
			<path d="M113.9,10.9c0,0.5-0.1,1-0.1,1.5c-0.5-0.2-1.1-0.2-1.6-0.1c0-0.5,0.1-1.1,0.1-1.6C112.7,10.8,113.3,10.9,113.9,10.9z"/>
			<path d="M113.8,12.5c0,0.2,0,0.4,0,0.7c-0.5,0.3-1,0.4-1.6,0.5c0-0.4,0-0.8,0-1.3C112.7,12.3,113.2,12.3,113.8,12.5z"/>
			<path d="M113.8,1.9c-0.1,0.4-0.2,0.8-0.3,1.2c-1.4,0.1-2.9,0.2-4.3,0.2c0.1-0.2,0.1-0.4,0.2-0.6C110.8,2.4,112.3,2.1,113.8,1.9z"
				/>
			<path d="M112.8,22c0.1,0.3,0.1,0.7,0.2,1c-0.3,0.1-0.6,0.1-0.9,0.2c-1.1,0.3-2.2,0.8-3.3,1.1c0-0.2-0.1-0.4-0.1-0.6
				c0.9-0.5,1.9-0.9,2.9-1.3C112,22.4,112.4,22.2,112.8,22z"/>
			<path d="M112.5,19.9c0,0.3,0.1,0.6,0.1,1c-0.3,0-0.6,0-0.8,0c-1.2,0-2.3,0.2-3.5,0.2c-0.1-0.2-0.1-0.4-0.2-0.5
				c1.1-0.4,2.2-0.5,3.4-0.5C111.8,19.9,112.2,19.9,112.5,19.9z"/>
			<path d="M112.3,9.9c0,0.3-0.1,0.6-0.1,0.9c-0.2,0-0.3,0-0.4,0c-1,0-2.2,0-3.2-0.2c0-0.2-0.1-0.4-0.1-0.7c1.1-0.2,2.3-0.1,3.3-0.1
				C112,9.9,112.1,9.9,112.3,9.9z"/>
			<path d="M112.1,12.4c0,0.4,0,0.9,0,1.3c-0.6,0.1-1.1,0.2-1.7,0.3c-0.7,0.2-1.5,0.5-2.2,0.7c0.1-0.4,0.1-0.8,0.1-1.2
				c0.6-0.2,1.3-0.4,1.8-0.6C110.8,12.7,111.5,12.5,112.1,12.4z"/>
			<path d="M111.3,33.3c0.1,0.4,0.2,0.8,0.4,1.2c-0.4,0.4-0.7,0.9-1,1.4c-0.1-0.4-0.3-0.7-0.4-1.1C110.5,34.3,110.9,33.8,111.3,33.3
				z"/>
			<path d="M103.2,87.1c5.4,0.6,9,7.9,7,12.7c-0.1,0.1-0.3,0.1-0.3-0.1c0.2-2.9-0.1-6.2-2.2-8.4c-1.2-1.3-3.1-2.3-4.9-2.5
				c-2.9-0.2-5.2,1.9-4,4.8c0,0.1,0,0.1-0.1,0.1c-1.6-0.5-1.7-2.4-1.1-3.8C98.5,87.9,101,86.8,103.2,87.1z"/>
			<path d="M110.2,29.7c0,0.1,0.1,0.3,0.1,0.4c-0.2,0.1-0.4,0.1-0.6,0.2c0,0-0.1,0-0.1,0c0-0.1-0.1-0.1-0.1-0.1c0,0,0-0.1,0.1-0.1
				C109.8,29.9,110,29.8,110.2,29.7z"/>
			<path d="M110.2,29.7c-0.2,0.1-0.4,0.2-0.6,0.3c0,0-0.1,0.1-0.1,0.1c-0.6-1-0.9-2.2-1.1-3.1c-0.2-0.8-0.4-1.6-0.5-2.5
				c0.3-0.1,0.6-0.1,0.9-0.2c0.2,0.9,0.3,1.8,0.5,2.7C109.5,28,109.9,28.9,110.2,29.7z"/>
			<path d="M109.5,30.2c0,0,0,0.1,0.1,0.1C109.6,30.3,109.5,30.2,109.5,30.2z"/>
			<path d="M109.3,2.7c0,0.2-0.1,0.4-0.2,0.6c-0.4,0-0.8,0-1.3,0.1c0-0.1,0.1-0.3,0.2-0.4C108.4,2.9,108.9,2.8,109.3,2.7z"/>
			<path d="M108.7,23.8c0.1,0.2,0.1,0.4,0.1,0.6c-0.3,0.1-0.6,0.2-0.9,0.2c0-0.1,0-0.2,0-0.3C108.2,24.1,108.5,24,108.7,23.8z"/>
			<path d="M108.5,9.9c0,0.2,0.1,0.4,0.1,0.7c-0.2,0-0.5-0.1-0.7-0.1c-0.1-0.1-0.1-0.3-0.1-0.4C108,10,108.2,10,108.5,9.9z"/>
			<path d="M107.9,3.4c0.4,0,0.8,0,1.3-0.1c-0.3,0.9-0.7,1.9-0.8,2.8c-0.1,1.3,0,2.6,0.2,3.8c-0.2,0-0.5,0.1-0.7,0.2
				c-0.4-1.4-0.5-2.9-0.4-4.3C107.5,5.1,107.6,4.2,107.9,3.4z"/>
			<path d="M108.2,20.5c0.1,0.2,0.1,0.4,0.2,0.5c-0.1,0-0.2,0-0.3,0c-0.1-0.1-0.2-0.2-0.3-0.4C107.9,20.5,108,20.5,108.2,20.5z"/>
			<path d="M108.3,13.4c0,0.4-0.1,0.8-0.1,1.2c-0.4,0.1-0.8,0.2-1.2,0.2c0-0.3,0.1-0.5,0.2-0.8C107.5,13.8,107.9,13.6,108.3,13.4z"
				/>
			<path d="M108.1,83.8c0.1,0.2,0,0.4-0.2,0.3c-2.2-1.3-4.2-2.4-6.8-2c-2.2,0.4-3.5,1.5-5.2,2.9c0,0-0.1,0-0.1-0.1
				C97.9,80.5,105.3,80.1,108.1,83.8z"/>
			<path d="M108.2,20.5c-0.1,0-0.3,0.1-0.4,0.2c-0.6-0.9-0.8-1.9-0.9-3c-0.1-0.8-0.1-1.8,0.1-2.8c0.4,0,0.8-0.1,1.2-0.2
				c-0.2,0.7-0.4,1.5-0.5,2.2C107.6,18.1,107.8,19.3,108.2,20.5z"/>
			<path d="M100.3,159.7c1,1.9,1.4,4.3,1.3,6.2c-0.3,3.8-3,6.7-6.3,8.4c-3.2,1.7-7.3,1.8-10.6,0.2c-1.9-0.9-4.4-2.8-5.5-5.1
				c0.5-0.3,1-0.5,1.6-0.8c0.8,1.2,1.5,2.5,2.8,3.5c3,2.3,6.6,2.9,10,1.4c3.5-1.5,5.4-5,5.1-8.8c-0.1-1.6-0.7-2.9-1.4-4.1
				C98.3,160.4,99.3,160.1,100.3,159.7z"/>
			<path d="M99,95.4c5,1.7,5.4,8.1,1.7,11.4c-3.2,2.9-9.6,2.6-11.2-2c0,0,0,0,0.1,0c1.5,1.5,2.8,2.8,5,3c1.9,0.2,4-0.5,5.3-1.9
				c2.8-3.1,1.6-7.4-0.8-10.3C98.9,95.5,98.9,95.4,99,95.4z"/>
			<path d="M100.3,159.7c-1,0.4-2,0.7-3,1c-0.3-0.5-0.6-1-0.9-1.6c0.9-0.4,1.8-0.8,2.6-1.2C99.5,158.5,99.9,159.1,100.3,159.7z"/>
			<path fill="#E5D0B1" d="M98.8,164.9c0.3,3.8-1.6,7.2-5.1,8.8c-3.4,1.5-7.1,0.9-10-1.4c-1.3-1-2-2.3-2.8-3.5
				c-0.2-0.2-0.3-0.5-0.5-0.7c-0.5,0.2-1,0.4-1.4,0.6c-1.3,0.5-2.6,1-4,1.5c0-0.1-0.1-0.1-0.1-0.2c0.2-0.1,0.3-0.2,0.4-0.4
				c0.4-0.1,0.8-0.4,1.2-0.7c0.2-0.1,0.4-0.1,0.6-0.2c4.3-0.9,7.7-3.8,11.2-6.4l0,0c-0.3,0.1-0.2,0.5,0.1,0.4c3.1-0.4,6.1-1.1,9-1.9
				C98,162,98.7,163.3,98.8,164.9z"/>
			<path d="M97.3,186.6c0.1,0,0.1,0.2,0,0.2c-6.3-0.1-12.1,0.8-17.6,2.6c-0.2-0.6-0.4-1.2-0.7-1.8C84.9,185.5,91.5,185.1,97.3,186.6
				z"/>
			<path d="M96.4,159.2c0.3,0.5,0.6,1,0.9,1.6c-2.9,0.9-5.9,1.6-9,1.9c-0.3,0-0.4-0.3-0.1-0.4C91,161.3,93.8,160.3,96.4,159.2z"/>
			<path d="M96.6,94.4c0.2,0,0.4,0.2,0.2,0.4c-3.1,3.4-9.3,1.2-10.8-2.7c-0.7-1.8-0.6-3.9,0.5-5.5c1.1-1.7,2.4-2.2,4.4-2.3
				c0.1,0,0.1,0.2,0,0.2c-3.4,1-4.6,5.2-2.7,7.9C90.2,95.5,93.3,94.8,96.6,94.4z"/>
			<path d="M82.5,95C82.6,95,82.5,95.1,82.5,95c-1.9-2.1-2.7-5.6-1.2-8.2c0.1-0.1,0.3-0.1,0.2,0.1C81.3,89.7,81.2,92.3,82.5,95z"/>
			<path d="M81,194c2,8.5,1.9,17.6-0.5,26.1c-3.7,13-13.8,26.3-26.5,32.7c-0.2-0.1-0.4,0.1-0.5,0.2c-1.2,0.6-2.4,1.1-3.6,1.5
				c-0.2-0.5-0.4-1-0.6-1.5c0-0.1-0.1-0.1-0.1-0.1l-0.2-0.3c5.6-3,11-6.2,15.7-10.8c6.2-6,11-13.5,13.4-21.8
				c2.9-9.6,2.5-20.2-0.4-30c0.7-0.2,1.3-0.5,2-0.7C80.2,190.9,80.7,192.4,81,194z"/>
			<path d="M80.3,168c0.2,0.2,0.3,0.5,0.5,0.7c-0.5,0.3-1,0.6-1.6,0.8c-0.2-0.3-0.3-0.6-0.4-1C79.3,168.4,79.8,168.2,80.3,168z"/>
			<path d="M79.1,187.6c0.2,0.6,0.5,1.2,0.7,1.8c-0.7,0.2-1.3,0.4-2,0.7c-0.2-0.6-0.4-1.2-0.6-1.7C77.8,188.1,78.4,187.8,79.1,187.6
				z"/>
			<path d="M78.9,168.6c0.1,0.3,0.2,0.7,0.4,1c-1.2,0.7-2.5,1.2-3.7,1.8c-0.2-0.4-0.4-0.9-0.6-1.3C76.2,169.6,77.5,169.1,78.9,168.6
				z"/>
			<path d="M79.1,187.6c-0.7,0.2-1.3,0.5-1.9,0.8c-1.5-4.5-3.5-8.8-5.9-12.8c0.2-0.3,0.4-0.5,0.6-0.8
				C74.8,178.8,77.3,183,79.1,187.6z"/>
			<path d="M75.5,171.4c-0.1,0.1-0.2,0.1-0.3,0.1c-0.3-0.4-0.6-0.8-0.9-1.2c0,0,0-0.1,0-0.1c0.2-0.1,0.4-0.1,0.6-0.2
				C75.1,170.5,75.3,170.9,75.5,171.4z"/>
			<path d="M74.3,170.3c0.3,0.4,0.6,0.8,0.9,1.2c-0.5,0.2-1.1,0.4-1.6,0.6C73.9,171.5,74.1,170.9,74.3,170.3z"/>
			<path d="M74.2,170.3C74.3,170.3,74.3,170.2,74.2,170.3C74.3,170.2,74.3,170.3,74.2,170.3C74.3,170.3,74.3,170.3,74.2,170.3z"/>
			<path d="M74.2,170.3C74.3,170.3,74.3,170.3,74.2,170.3c-0.2,0.7-0.4,1.3-0.7,1.9c-1,0.4-2,0.7-3,1c-0.2-0.2-0.3-0.4-0.5-0.6
				c0.4-0.4,0.8-0.9,1.2-1.4C72.3,170.9,73.3,170.6,74.2,170.3z"/>
			<path d="M71.6,60.1c0.5-0.1,1-0.2,1.5-0.3c-0.3,0.5-0.6,1-0.8,1.5C72.2,61,71.9,60.6,71.6,60.1z"/>
			<path d="M72.4,61.4c0.3,0.6,0.6,1.2,0.7,1.9c-0.5,0.1-1,0.2-1.5,0.3C71.8,62.9,72,62.1,72.4,61.4z"/>
			<path d="M72.7,274.1c-0.2,0.1-0.5,0.2-0.8,0.3c-1-0.4-2-0.8-3-1.3c0.4-0.2,0.8-0.3,1.2-0.5C71,273,71.8,273.6,72.7,274.1z"/>
			<path d="M73.6,172.1c-0.5,0.9-1,1.8-1.7,2.6c-0.4-0.6-0.8-1.1-1.3-1.7C71.6,172.8,72.6,172.5,73.6,172.1z"/>
			<path d="M71.6,60.1c0.3,0.4,0.5,0.8,0.7,1.3c-0.3,0.7-0.6,1.5-0.8,2.2c-0.5,0.1-0.9,0.2-1.4,0.3c-0.1-0.2-0.1-0.4-0.2-0.5
				c0.2-1.1,0.5-2.1,0.9-3.1C71.1,60.3,71.4,60.2,71.6,60.1z"/>
			<path d="M71.9,174.8c-0.2,0.3-0.4,0.5-0.6,0.8c-0.5-0.8-0.9-1.5-1.4-2.2c0.3-0.1,0.5-0.2,0.8-0.2C71,173.7,71.5,174.2,71.9,174.8
				z"/>
			<path d="M71.6,60.1c-0.3,0.1-0.5,0.1-0.8,0.2c0.1-0.3,0.2-0.5,0.3-0.8C71.3,59.7,71.5,59.9,71.6,60.1z"/>
			<path d="M71.2,171.1c-0.4,0.4-0.8,0.9-1.2,1.4c-0.2-0.3-0.5-0.6-0.7-0.9C70,171.4,70.6,171.3,71.2,171.1z"/>
			<path d="M71.2,59.5c-0.1,0.3-0.2,0.5-0.3,0.8c-0.7,0.2-1.5,0.3-2.2,0.5c-0.2-0.2-0.4-0.5-0.6-0.7c-2.6-2.8-6.4-3.7-9.9-2.1
				c-3.6,1.6-5.7,5-5.9,8.9c0,0.1,0,0.3,0,0.4c-0.5,0.2-1,0.5-1.4,0.7c0-0.9,0-1.7,0.1-2.4c0.7-4.2,3.6-7.8,7.6-9.3
				c3.6-1.3,7.6-1.3,10.6,1.1C69.9,58.1,70.6,58.8,71.2,59.5z"/>
			<path d="M69.8,173.3c0.5,0.7,1,1.4,1.4,2.2c-2.1,2.4-4.8,4.4-7.1,5.9c-5.5,3.5-11.7,5.1-18.2,4.2c-10.5-1.4-19-9.7-21.8-19.7
				c0.4-0.6,0.7-1.2,0.9-1.8c0.5,0.4,1,0.8,1.5,1.2c3.4,8,10.4,14.2,19.2,16c5.5,1.2,12,0.1,16.9-2.5c2.8-1.4,4.7-3.4,6.5-5.4
				C69.4,173.5,69.6,173.4,69.8,173.3z"/>
			<path d="M70.1,172.5c0.2,0.2,0.4,0.4,0.5,0.6c-0.3,0.1-0.5,0.2-0.8,0.2c-0.1-0.1-0.1-0.2-0.2-0.3
				C69.8,172.9,69.9,172.7,70.1,172.5z"/>
			<path d="M70,63.4c0.1,0.2,0.1,0.3,0.2,0.5c-0.1,0-0.2,0-0.3,0.1C69.9,63.8,69.9,63.6,70,63.4z"/>
			<path d="M70.8,60.3c-0.4,1-0.7,2-0.9,3.1c-0.3-0.9-0.7-1.8-1.3-2.6C69.4,60.7,70.1,60.5,70.8,60.3z"/>
			<path d="M69.3,171.6c0.2,0.3,0.5,0.6,0.7,0.9c-0.2,0.2-0.3,0.4-0.5,0.6c-0.3-0.4-0.6-0.9-0.9-1.3
				C68.9,171.7,69.1,171.6,69.3,171.6z"/>
			<path d="M70,63.4c-0.1,0.2-0.1,0.4-0.1,0.6c-5.4,1.3-10.5,3.4-15.7,6.1c-0.4,0.2-0.8,0.4-1.2,0.6c-0.3-1.1-0.7-2.1-0.7-3.4
				c3.3-1.7,6.6-3.1,10-4.4c2.1-0.8,4.2-1.5,6.4-2.1C69.3,61.7,69.7,62.5,70,63.4z"/>
			<path d="M69.8,173.3c-0.2,0.1-0.4,0.1-0.6,0.2c0.1-0.2,0.3-0.3,0.4-0.5C69.7,173.2,69.7,173.2,69.8,173.3z"/>
			<path d="M69,273c1,0.5,2,1,3,1.3c-1.5,0.6-3.1,1.1-4.6,1.5c-0.4-0.3-0.9-0.5-1.3-0.8c0,0,0,0,0,0c0,0,0,0,0,0
				c0-0.2-0.1-0.5-0.1-0.7C66.9,273.8,68,273.4,69,273z"/>
			<path d="M69.6,173.1c-0.1,0.2-0.3,0.3-0.4,0.5c-14.7,3.9-30.7,0.8-42.6-8.1c-0.4-1-0.8-2-1.1-3c0-0.2,0.1-0.5,0.1-0.7
				C37.1,172,53.3,175,68.7,171.7C69,172.2,69.3,172.6,69.6,173.1z"/>
			<path fill="#E5D0B1" d="M68.1,60.1c0.2,0.2,0.4,0.5,0.6,0.7c-2.2,0.6-4.3,1.2-6.4,2.1c-3.3,1.3-6.7,2.8-10,4.4c0-0.1,0-0.3,0-0.4
				c0.2-3.9,2.3-7.2,5.9-8.9C61.6,56.5,65.4,57.4,68.1,60.1z"/>
			<path d="M67.4,275.8c-0.2,0.1-0.5,0.1-0.7,0.2c-0.2-0.3-0.4-0.6-0.6-1C66.5,275.3,66.9,275.6,67.4,275.8z"/>
			<path d="M66.1,275c0.2,0.3,0.4,0.6,0.6,1c-0.1,0-0.3,0.1-0.4,0.1C66.2,275.7,66.1,275.4,66.1,275L66.1,275
				C66.1,275,66.1,275,66.1,275z"/>
			<path d="M66.3,277c0.3,4.2-0.6,8.9-1.4,12.7c-1,5-2.7,9.8-5,14.4c-0.3,0-0.5-0.1-0.8-0.1c1-2.8,1.9-5.5,2.6-8.4
				c0.5-1.8,0.9-3.7,1.3-5.5c0.9-4.4,0.8-9.1,1.5-13.6c0.2,0,0.5-0.1,0.7-0.1c0.3,0.2,0.6,0.3,0.9,0.5
				C66.2,276.9,66.2,276.9,66.3,277z"/>
			<path d="M66.3,276.9c0,0,0,0.1,0,0.1c-0.1-0.1-0.1-0.1-0.2-0.2C66.2,276.8,66.2,276.9,66.3,276.9z"/>
			<path d="M66.3,276.9c-0.1,0-0.1-0.1-0.2-0.1c-0.2-0.2-0.3-0.4-0.5-0.6c0.2,0,0.4-0.1,0.6-0.1C66.3,276.4,66.3,276.6,66.3,276.9z"
				/>
			<path d="M66.2,276.1c-0.2,0-0.4,0.1-0.6,0.1c-0.3-0.3-0.5-0.6-0.8-0.9c0.1-0.1,0.2-0.3,0.1-0.3c0.2-0.1-0.1-0.1-0.2-0.1
				c0,0,0,0,0-0.1c0.2-0.1,0.4-0.2,0.7-0.3c0.2,0.2,0.5,0.3,0.7,0.5v0C66.1,275.4,66.2,275.7,66.2,276.1z"/>
			<path d="M65.6,276.2c0.2,0.2,0.3,0.4,0.5,0.6c-0.3-0.1-0.6-0.3-0.9-0.5C65.3,276.3,65.4,276.3,65.6,276.2z"/>
			<path d="M66.1,275C66.1,275,66.1,275,66.1,275L66.1,275L66.1,275C66.1,275,66.1,275,66.1,275z"/>
			<path d="M66.1,275C66.1,275,66.1,275,66.1,275c-0.2-0.1-0.5-0.3-0.7-0.5c0.1,0,0.2-0.1,0.3-0.1C65.8,274.6,66,274.8,66.1,275z"/>
			<path d="M65.9,274.3c0,0.2,0.1,0.5,0.1,0.7c-0.1-0.2-0.2-0.4-0.4-0.6C65.8,274.4,65.9,274.3,65.9,274.3z"/>
			<path d="M65.7,274.4c-0.1,0-0.2,0.1-0.3,0.1c-0.2-0.1-0.4-0.2-0.5-0.4c0,0.2-0.1,0.5-0.1,0.7c-0.1,0.1-0.1,0.1,0,0.1
				c0,0.1,0,0.1,0,0.2c-2.9-3.3-5.6-6.8-8.7-9.9c-3.1-3.1-6.4-5.8-9.7-8.7c0.7,0.1,1.3,0.1,1.9,0.1c0,0,0,0,0.1,0
				C55.1,261.2,61.6,267.6,65.7,274.4z"/>
			<path d="M65.6,276.2c-0.2,0-0.3,0.1-0.4,0.1c-0.2-0.1-0.4-0.2-0.6-0.4c0-0.1,0-0.2,0.1-0.3c0.1-0.1,0.2-0.2,0.2-0.3
				C65.1,275.7,65.3,275.9,65.6,276.2z"/>
			<path d="M65.4,274.5c-0.2,0.1-0.4,0.2-0.7,0.3c0-0.2,0.1-0.5,0.1-0.7C65,274.3,65.2,274.4,65.4,274.5z"/>
			<path d="M65.2,276.3c-0.2,0-0.5,0.1-0.7,0.1c0-0.2,0-0.3,0.1-0.5C64.7,276.1,64.9,276.2,65.2,276.3z"/>
			<path d="M64.7,274.9c0.1,0,0.4,0,0.2,0.1c0.1,0.1,0,0.2-0.1,0.3c-0.1-0.1-0.1-0.1-0.2-0.2C64.7,275.1,64.7,275,64.7,274.9z"/>
			<path d="M64.7,275.2c0,0.1,0.1,0.1,0.2,0.2c-0.1,0.1-0.2,0.2-0.2,0.3C64.6,275.5,64.6,275.3,64.7,275.2z"/>
			<path d="M64.7,274.9C64.7,274.9,64.7,274.9,64.7,274.9C64.6,274.9,64.6,274.9,64.7,274.9z"/>
			<path fill="#E5D0B1" d="M64.7,275.2c0,0.2-0.1,0.3-0.1,0.5c-0.1,0.1-0.2,0.2-0.1,0.3c0,0.1-0.1,0.3-0.1,0.5
				c-0.7,4.5-0.6,9.2-1.5,13.6c-0.4,1.9-0.8,3.7-1.3,5.5l-1.3-0.4c0,0,0-0.1-0.1-0.1c-0.6-0.1-1.1-0.1-1.7-0.2
				c-0.5-0.2-1-0.5-1.5-0.7c-0.1,0-0.1,0-0.1,0.1c0.1,0.1,0.1,0.2,0.2,0.3l-1.7,1.9c-0.4-0.2-0.8-0.4-1.2-0.6
				c-0.9-0.4-1.7-0.8-2.6-1.1c-0.4-0.2-0.8-0.3-1.2-0.5c-0.2,0.5-0.3,1.1-0.5,1.6c-0.1,0.5-0.3,1.1-0.5,1.6c-0.3,1-0.7,1.9-0.9,2.9
				c-0.1,0.2-0.1,0.4-0.2,0.7c-1.2-0.4-2.5-0.7-3.7-1.3c-1-0.4-1.9-1.2-2.9-1.8c0-0.1,0-0.3,0.1-0.4c0.2-1.1,0.5-2.2,0.8-3.3
				c0.1-0.4,0.3-0.9,0.5-1.3c0.3-0.6,0.5-1.1,0.8-1.7c-0.5-0.3-1-0.5-1.5-0.8c-0.6-0.4-1.2-0.7-1.8-1.1c-0.2-0.1-0.5-0.3-0.7-0.4
				c-0.2-0.1-0.3-0.2-0.5-0.3c-0.4,0.5-0.7,0.9-0.9,1.4c-0.4,0.7-0.8,1.5-1.3,2.2c-0.5,0.7-1.1,1.3-1.6,2c-0.1,0.1-0.2,0.3-0.3,0.4
				c-1.1-0.9-2.3-1.8-3.3-2.7c-0.6-0.6-1.2-1.2-1.8-1.9v0c0.4-0.7,0.9-1.3,1.4-1.9c0.7-0.8,1.4-1.5,2-2.3c0,0,0,0,0,0
				c0.2-0.3,0.4-0.6,0.6-1l0,0c-0.2-0.2-0.3-0.4-0.5-0.6c-0.7-0.8-1.5-1.6-2.2-2.3c-0.3-0.4-0.7-0.8-1.1-1.2c0,0,0,0,0,0
				c-0.2-0.2-0.4-0.4-0.6-0.6c0,0,0,0,0,0c-0.1-0.1-0.2-0.2-0.3-0.2c-0.3-0.2-0.5-0.4-0.8-0.5c0,0,0,0-0.1,0c0,0-0.1,0-0.1,0
				c0,0,0,0,0,0c-1,0.4-2,1.1-2.9,1.5c-0.7,0.3-1.4,0.6-2.1,1c-0.2,0.1-0.5,0.2-0.7,0.3c-0.6-0.8-1.1-1.7-1.6-2.6
				c-0.3-0.6-0.6-1.2-0.8-1.8c2.1-1.9,4.2-3.7,6.4-5.5c1.9-1.5,4.1-2.8,6.1-4.3c0.2-0.2,0.4-0.4,0.7-0.5c-0.4-0.3-0.9-0.6-1.3-0.9
				c-0.9-0.5-1.7-1-2.6-1.4c-1-0.5-2.1-1.1-3.3-1.6c0.4-1.3,0.5-2.8,1-4c0.3-0.9,0.9-1.9,1.3-2.8c2.8-0.3,5.6-0.7,8.4-0.7
				c3,0,6,0.6,9,0.8c3.2,2.8,6.6,5.6,9.7,8.7C59.1,268.4,61.8,271.9,64.7,275.2z M50.8,291.2C50.8,291.2,50.8,291.2,50.8,291.2
				c-0.6-0.5-1.6-0.7-2.3-1c-0.4-0.2-0.8-0.3-1.2-0.5c-0.4-0.2-0.9-0.3-1.2-0.5c-0.1-0.1-0.1,0.1-0.1,0.1c0.3,0.4,0.4,0.8,0.8,1.1
				c0.4,0.3,0.8,0.6,1.3,0.8C48.8,291.4,50.1,291.6,50.8,291.2z M41.2,286.4C41.3,286.4,41.3,286.3,41.2,286.4
				c-0.7-0.4-1.3-1.1-1.9-1.7c-0.6-0.5-1.3-1.2-1.8-1.9c0-0.1-0.2,0-0.1,0.1c0.2,1,0.4,1.7,1.2,2.4C39.4,286,40.2,286.2,41.2,286.4z
				 M33.1,277.1c0,0.1,0.1,0,0.1-0.1c-0.2-0.3-0.2-0.6-0.3-0.9c-0.2-0.3-0.3-0.7-0.5-1c-0.2-0.3-0.3-0.6-0.5-0.9
				c-0.2-0.3-0.5-0.5-0.8-0.8c-0.1-0.1-0.2,0-0.2,0.1c0.1,0.4,0,0.7,0.2,1.1c0.1,0.3,0.4,0.7,0.6,1c0.2,0.3,0.4,0.6,0.6,0.8
				C32.6,276.7,32.9,276.8,33.1,277.1z"/>
			<path d="M64.6,275.7c0,0.1,0,0.2-0.1,0.3C64.4,275.9,64.4,275.8,64.6,275.7z"/>
			<path fill="#E5D0B1" d="M69.2,173.5c-1.8,2.1-3.8,4-6.5,5.4c-5,2.5-11.4,3.6-16.9,2.5c-8.8-1.9-15.8-8.1-19.2-16
				C38.5,174.3,54.5,177.5,69.2,173.5z"/>
			<path fill="#E5D0B1" d="M60.3,295.2l1.3,0.4c-0.8,2.8-1.6,5.6-2.6,8.4c0,0,0,0.1,0,0.1c-0.6-0.1-1.2-0.2-1.8-0.4
				c-0.7-0.2-1.5-0.6-2.3-0.9c0-0.1,0-0.2,0-0.4c0-1.5,0.2-3.5,0.5-5.2c0-0.2,0.1-0.4,0.1-0.6l1.7-1.9
				C57.9,295.4,59.5,295.8,60.3,295.2C60.3,295.3,60.3,295.2,60.3,295.2z"/>
			<path d="M60.3,295.1c0.1,0,0.1,0.1,0.1,0.1c0,0,0,0.1,0,0.1c-0.9,0.5-2.4,0.1-3.1-0.6c-0.1-0.1-0.2-0.2-0.2-0.3
				c0-0.1,0-0.2,0.1-0.1c0.6,0.1,1,0.5,1.5,0.7C59.2,295,59.7,295,60.3,295.1z"/>
			<path d="M59.9,304.1c0,0,0,0.1-0.1,0.1c-0.3-0.1-0.5-0.1-0.8-0.1c0,0,0-0.1,0-0.1C59.3,304,59.6,304,59.9,304.1z"/>
			<path d="M59.8,304.2c-0.1,0.3-0.3,0.6-0.5,0.9c-0.2,0-0.5,0-0.7,0c0,0,0,0,0,0c0.1-0.3,0.2-0.7,0.4-1
				C59.3,304.1,59.5,304.2,59.8,304.2z"/>
			<path d="M59,304.1c-0.1,0.3-0.2,0.7-0.4,1c-0.5-0.1-1-0.2-1.4-0.3c-0.8-0.2-2-0.5-2.8-1c0,0,0-0.1,0-0.1c0.1,0,0.2,0.1,0.3,0.1
				c0.1,0,0.2,0,0.3,0c0-0.3-0.1-0.6-0.1-1.1c0.8,0.3,1.6,0.7,2.3,0.9C57.8,303.8,58.4,303.9,59,304.1z"/>
			<path d="M55.5,296.5c0,0.2,0,0.4-0.1,0.6c-0.4,0-0.9-0.1-1.4-0.2c0.1-0.3,0.1-0.7,0.2-1C54.7,296.1,55.1,296.3,55.5,296.5z"/>
			<path d="M55.4,297.1c-0.2,1.7-0.4,3.7-0.5,5.2c-0.3-0.1-0.6-0.2-1-0.2c-0.2-1.1-0.2-2.3-0.1-3.5c0-0.5,0.1-1.1,0.2-1.7
				C54.5,297,55,297.1,55.4,297.1z"/>
			<path d="M55,302.7c0,0.4,0,0.8,0.1,1.1c-0.1,0-0.2,0-0.3,0c-0.1,0-0.2,0-0.3-0.1c0,0-0.1,0-0.1,0c-0.1-0.4-0.2-0.8-0.2-1.2
				C54.4,302.5,54.7,302.6,55,302.7z"/>
			<path d="M55,302.4c0,0.1,0,0.2,0,0.4c-0.3-0.1-0.6-0.2-0.9-0.2c0-0.1-0.1-0.2-0.1-0.4C54.3,302.2,54.6,302.3,55,302.4z"/>
			<path d="M51.7,294.8c0.9,0.4,1.7,0.8,2.6,1.1c-0.1,0.3-0.1,0.7-0.2,1c-0.9-0.1-1.8-0.3-2.6-0.6C51.5,295.8,51.6,295.3,51.7,294.8
				z"/>
			<path d="M54,252.7c-0.2,0.1-0.4,0.2-0.5,0.2C53.6,252.8,53.8,252.7,54,252.7z"/>
			<path d="M53,70.7c-0.5,0.3-1,0.5-1.5,0.8c-0.4-1.1-0.6-2.3-0.6-3.4c0.5-0.3,1-0.5,1.4-0.7C52.3,68.6,52.6,69.6,53,70.7z"/>
			<path d="M51.7,294.8c0,0.5-0.1,1-0.2,1.5c-0.5-0.1-0.9-0.3-1.4-0.4c0.1-0.5,0.3-1.1,0.5-1.6C50.9,294.5,51.3,294.7,51.7,294.8z"
				/>
			<path d="M50.8,68.1c0,1.2,0.2,2.4,0.6,3.4c-8.9,4.7-17.8,10.1-25.1,17c-1.6,1.5-3.1,3.1-4.4,4.7c1.9-3.1,5-5.1,6.9-8.2
				c0.2-0.3-0.1-0.8-0.5-0.7c-2,0.7-3.9,2-5.5,3.6l-0.2-0.2c2.1-2.2,4.4-4.2,6.8-6C36,76.7,43.3,72,50.8,68.1z"/>
			<path d="M50.8,291.2C50.8,291.2,50.8,291.2,50.8,291.2c-0.7,0.5-2,0.3-2.7,0c-0.5-0.2-0.9-0.5-1.3-0.8c-0.4-0.4-0.5-0.7-0.8-1.1
				c-0.1,0,0-0.2,0.1-0.1c0.3,0.2,0.9,0.3,1.2,0.5c0.4,0.2,0.8,0.4,1.2,0.5C49.2,290.5,50.2,290.7,50.8,291.2z"/>
			<path d="M50,295.9c0.5,0.1,0.9,0.3,1.4,0.4c-0.3,1.6-0.8,3.2-1.6,4.5c-0.4-0.1-0.8-0.3-1.2-0.4c0.3-1,0.6-2,0.9-2.9
				C49.7,297,49.9,296.5,50,295.9z"/>
			<path d="M49.9,254.5c-0.2,0.1-0.4,0.1-0.6,0.2c-0.1-0.5-0.1-1.1-0.2-1.6c0,0,0-0.1,0-0.1c0.1,0,0.1,0,0.1,0.1
				C49.5,253.5,49.7,254,49.9,254.5z"/>
			<path d="M48.6,300.5c0.4,0.1,0.8,0.3,1.2,0.4c-0.1,0.2-0.2,0.4-0.3,0.6c-0.3-0.1-0.7-0.2-1-0.3C48.5,300.9,48.6,300.7,48.6,300.5
				z"/>
			<path d="M48.5,301.1c0.3,0.1,0.7,0.2,1,0.3c-0.1,0.2-0.2,0.4-0.4,0.6c-0.3,0-0.5,0-0.8,0C48.3,301.7,48.4,301.4,48.5,301.1z"/>
			<path d="M49.1,253c0,0.6,0.1,1.1,0.2,1.6c-0.6,0.2-1.2,0.4-1.7,0.6c-0.6-0.3-1.3-0.5-2-0.7c1.2-0.6,2.3-1.2,3.5-1.9L49.1,253
				C49.2,253,49.1,253,49.1,253z"/>
			<path d="M48.5,301.1c-0.1,0.3-0.1,0.6-0.2,0.8c-1.4-0.1-2.7-0.6-4-1.1c-0.9-0.4-2-0.8-2.8-1.5c0.1,0,0.1,0,0.2,0.1
				c0.1-0.5,0.1-0.9,0.2-1.4c1,0.5,1.9,1.3,2.9,1.8C46,300.4,47.2,300.8,48.5,301.1z"/>
			<path d="M48.3,256.7C48.3,256.7,48.3,256.7,48.3,256.7c-0.7,0-1.4,0-2-0.1c-0.3-0.3-0.6-0.6-1-0.8c0.3-0.1,0.7-0.1,1-0.2
				c0,0,0.1,0,0.1,0C47.1,256,47.7,256.3,48.3,256.7z"/>
			<path d="M47.6,255.2c-0.4,0.1-0.8,0.2-1.2,0.3c-0.4-0.3-0.9-0.5-1.3-0.8c0.2-0.1,0.3-0.2,0.5-0.2C46.3,254.7,46.9,255,47.6,255.2
				z"/>
			<path d="M46.5,255.6c0,0-0.1,0-0.1,0C46.4,255.6,46.4,255.6,46.5,255.6C46.4,255.6,46.5,255.6,46.5,255.6z"/>
			<path d="M46.4,255.6C46.4,255.6,46.4,255.6,46.4,255.6c-0.6-0.1-1.2-0.3-1.8-0.4c0,0,0-0.1-0.1-0.1c0.2-0.1,0.3-0.2,0.5-0.3
				C45.5,255,46,255.3,46.4,255.6z"/>
			<path d="M45.4,255.8c0.3,0.3,0.6,0.6,1,0.8c-3-0.2-6-0.8-9-0.8c-2.8,0-5.6,0.3-8.4,0.7c0.1-0.3,0.3-0.6,0.4-0.8
				c4.8-1.1,10.4-1.5,15.2-0.6c-0.5,0.2-0.9,0.5-1.4,0.7c0.4,0,0.8,0.1,1.2,0.2C44.6,256,45,255.9,45.4,255.8z"/>
			<path d="M46.4,255.6c-0.3,0.1-0.7,0.2-1,0.2c-0.2-0.2-0.5-0.4-0.7-0.6C45.2,255.3,45.8,255.4,46.4,255.6z"/>
			<path d="M44.6,255.2c0.2,0.2,0.5,0.4,0.7,0.6c-0.4,0.1-0.7,0.2-1.1,0.2c-0.4-0.1-0.8-0.1-1.2-0.2c0.5-0.2,0.9-0.5,1.4-0.7
				C44.5,255.1,44.6,255.1,44.6,255.2z"/>
			<path d="M44.6,255.1C44.6,255.1,44.6,255.1,44.6,255.1C44.6,255.1,44.5,255.1,44.6,255.1C44.5,255.1,44.5,255.1,44.6,255.1z"/>
			<path d="M42.6,290.5c0.5,0.3,1,0.5,1.5,0.8c-0.2,0.6-0.5,1.1-0.8,1.7c-0.5-0.3-1-0.6-1.5-0.9C42,291.5,42.3,290.9,42.6,290.5z"/>
			<path d="M43.3,293c-0.2,0.5-0.4,0.9-0.5,1.3c-0.4,1.1-0.6,2.2-0.8,3.3c-0.3-0.1-0.6-0.3-0.9-0.4c0-1.7,0.2-3.6,0.7-5.1
				C42.3,292.4,42.8,292.7,43.3,293z"/>
			<path d="M42.6,290.5c-0.3,0.5-0.6,1-0.8,1.6c-0.7-0.4-1.3-0.8-1.9-1.3c0.4-0.5,0.7-0.9,1-1.4C41.4,289.8,42,290.1,42.6,290.5z"/>
			<path d="M41.1,297.2c0.3,0.1,0.6,0.3,0.9,0.4c0,0.1,0,0.3-0.1,0.4c-0.3-0.1-0.5-0.3-0.8-0.3C41.1,297.6,41.1,297.4,41.1,297.2z"
				/>
			<path d="M41.9,298.1c-0.1,0.5-0.1,0.9-0.2,1.4c0,0-0.1,0-0.2-0.1c0,0,0,0,0,0c-0.1-0.1-0.2-0.2-0.3-0.2c0-0.5-0.1-0.9-0.1-1.4
				C41.4,297.8,41.6,297.9,41.9,298.1z"/>
			<path d="M41.2,299.1c0.1,0.1,0.2,0.2,0.3,0.2c-0.1,0-0.2-0.1-0.3-0.1C41.2,299.2,41.2,299.2,41.2,299.1z"/>
			<path d="M41.3,286.3C41.3,286.3,41.3,286.4,41.3,286.3c-1-0.1-1.8-0.3-2.6-1c-0.8-0.8-1-1.4-1.2-2.4c0-0.1,0.1-0.1,0.1-0.1
				c0.4,0.7,1.2,1.3,1.8,1.9C39.9,285.2,40.5,285.9,41.3,286.3z"/>
			<path d="M40.2,288.9c0.2,0.1,0.5,0.3,0.7,0.4c-0.2,0.5-0.6,1-1,1.4c-0.4-0.2-0.7-0.5-1.1-0.8c0.3-0.5,0.6-1,0.9-1.4
				C39.9,288.7,40,288.8,40.2,288.9z"/>
			<path d="M38.8,290c0.3,0.3,0.7,0.5,1.1,0.8c-0.7,0.8-1.4,1.5-1.9,2.3c-0.4,0.6-0.8,1.1-1.3,1.6c-0.3-0.2-0.5-0.4-0.8-0.5
				c0.6-0.7,1.1-1.3,1.6-2C38,291.6,38.4,290.8,38.8,290z"/>
			<path d="M36.7,294.7c-0.1,0.2-0.3,0.3-0.4,0.5c-0.2-0.2-0.5-0.4-0.7-0.6c0.1-0.1,0.2-0.3,0.3-0.4
				C36.2,294.3,36.4,294.5,36.7,294.7z"/>
			<path d="M36.3,295.2c-0.1,0.1-0.2,0.2-0.3,0.3c-0.3-0.1-0.6-0.3-0.9-0.4c0.2-0.2,0.3-0.4,0.5-0.5C35.8,294.8,36,295,36.3,295.2z"
				/>
			<path fill="#EFD49D" d="M35.6,119.8c0.4,2.7,0.6,5.6,0.1,8.2c-0.3,1.5-0.8,2.5-1.6,3.1c-0.4,0.3-0.8,0.5-1.3,0.6
				c-0.3,0.1-0.7,0.1-1.1,0c0.5-0.3,0.9-0.5,1.3-0.9c1.6-1.5,2.5-3.7,2.3-5.9c0-1.2-0.4-2.3-1.1-3.3c-1.8-2.6-5.3-3.7-8.1-3
				c1.7-0.8,3.5-1.2,5.3-0.8C32.9,118.1,34.3,118.8,35.6,119.8z"/>
			<g>
				<defs>
					<path id="BABYXMLID_10_" d="M133.3,103.9c-1.2-11-6.6-21.8-14.2-29.8c-8.5-9.1-20.9-11.4-32.9-11.8c-4.5-0.2-8.9,0.2-13.2,1
						c-0.5,0.1-1,0.2-1.5,0.3c-0.5,0.1-0.9,0.2-1.4,0.3C70,64,70,64,69.9,64c-5.4,1.3-10.5,3.4-15.7,6.1c-0.4,0.2-0.8,0.4-1.2,0.6
						c-0.5,0.3-1,0.5-1.5,0.8c-8.9,4.7-17.8,10.1-25.1,17c-1.6,1.5-3.1,3.1-4.4,4.7c0,0,0,0.1-0.1,0.1c0,0,0,0.1,0,0.1
						c-0.1,0.2-0.2,0.5-0.4,0.7c-1.1,1-1.8,2.2-2.5,3.5c-0.3,0.4-0.6,0.7-1,1.1c0,0,0,0,0,0c0,0.1-0.1,0.1-0.1,0.2
						c-0.8,1.1-1.5,2.2-2,3.4c-7.8,14.9-8,32.9,0.8,48.4c0.2,0.4,0.4,0.7,0.6,1c0.4,0.7,0.9,1.4,1.4,2.1c1.4,2,2.9,3.9,4.5,5.5
						c0.6,0.6,1.3,1.3,1.9,1.9c0,0,0-0.1,0-0.1c0,0.1,0,0.1,0,0.2c0,0,0,0,0,0c0.1,0.1,0.2,0.2,0.3,0.3
						C37.1,172,53.3,175,68.7,171.7c0.2,0,0.5-0.1,0.7-0.1c0.6-0.1,1.3-0.3,1.9-0.5c1-0.3,2-0.6,3-0.9c0,0,0,0,0.1,0
						c0.2,0,0.4-0.1,0.6-0.2c0-0.1-0.1-0.1-0.1-0.2c0.2-0.1,0.3-0.2,0.4-0.4c0.4-0.1,0.8-0.4,1.2-0.7c0.2-0.1,0.4-0.1,0.6-0.2
						c4.3-0.9,7.7-3.8,11.2-6.4l0,0c2.9-0.9,5.6-2,8.2-3.1c0.9-0.4,1.8-0.8,2.6-1.2c7.8-3.7,14.8-8.5,21-15.2
						C129.5,132.3,134.9,118,133.3,103.9z M108.1,83.8c0.1,0.2,0,0.4-0.2,0.3c-2.2-1.3-4.1-2.4-6.8-2c-2.2,0.3-3.5,1.5-5.2,2.9
						c0,0-0.1,0-0.1-0.1C97.9,80.5,105.3,80.1,108.1,83.8z M86.5,86.5c1.1-1.7,2.4-2.2,4.3-2.3c0.1,0,0.1,0.1,0,0.2
						c-3.4,1-4.6,5.2-2.7,7.9c2.1,3.2,5.2,2.5,8.5,2.1c0.2,0,0.4,0.2,0.2,0.4c-3.1,3.4-9.3,1.2-10.8-2.7
						C85.3,90.3,85.4,88.2,86.5,86.5z M81.3,86.8c0.1-0.1,0.3-0.1,0.2,0.1c-0.2,2.9-0.3,5.4,1,8.1c0,0,0,0.1-0.1,0
						C80.7,92.8,79.8,89.3,81.3,86.8z M100.7,106.8c-3.2,2.9-9.6,2.6-11.2-2c0,0,0-0.1,0,0c1.5,1.5,2.8,2.8,5,3
						c1.9,0.2,4-0.5,5.3-1.9c2.8-3.1,1.6-7.4-0.9-10.3c0-0.1,0-0.2,0.1-0.2C104,97.1,104.4,103.5,100.7,106.8z M110.2,99.8
						c0,0.1-0.3,0.1-0.3,0c0.2-2.9-0.1-6.2-2.2-8.4c-1.2-1.3-3.1-2.3-4.9-2.5c-2.9-0.2-5.2,1.9-4,4.8c0,0.1,0,0.1-0.1,0.1
						c-1.6-0.5-1.7-2.4-1.1-3.8c0.9-2.1,3.4-3.1,5.5-2.9C108.6,87.7,112.2,94.9,110.2,99.8z"/>
				</defs>
				<use xlink:href="#BABYXMLID_10_"  overflow="visible" fill="#F7E597"/>
				<clipPath id="BABYXMLID_8_">
					<use xlink:href="#BABYXMLID_10_"  overflow="visible"/>
				</clipPath>
				<path clip-path="url(#BABYXMLID_8_)" fill="#E5D0B1" d="M14.9,99.8c0,0-6.3,29.3,8.2,46.8s31.4,16.5,37.4,18.5s14.8,4.4,13.1,7
					c-1.7,2.6-20.6,8-20.6,8l-35-16.6L0,132.4v-31L14.9,99.8z"/>
				<path clip-path="url(#BABYXMLID_8_)" fill="#EFCA86" d="M121.5,75.6c0,0,18.5,34.5-6,57.5s-53,28-68.5,27c0,0,30.5,6.5,58-6.5
					s37-26.5,39-47.5s-13-33-13-33L121.5,75.6z"/>
			</g>
			<path d="M35.5,294.6c-0.1,0.2-0.3,0.4-0.5,0.5c-1.1-0.6-2.1-1.4-3.1-2.1c-0.7-0.6-1.5-1.2-2.2-1.9c0.2-0.4,0.4-0.7,0.6-1.1
				c0.6,0.6,1.2,1.3,1.8,1.9C33.3,292.8,34.4,293.7,35.5,294.6z"/>
			<path d="M33.9,284c0.2,0.2,0.3,0.4,0.5,0.6l0,0c-0.2,0.4-0.4,0.7-0.6,1c-0.1,0-0.1-0.1-0.2-0.1c-0.3-0.3-0.6-0.6-0.9-0.9
				C33.1,284.4,33.5,284.2,33.9,284z"/>
			<path d="M33.9,267.1c-0.2,0.2-0.4,0.4-0.7,0.5c-0.5-0.3-1-0.6-1.6-0.8c0.3-0.2,0.6-0.4,0.9-0.6C33,266.5,33.5,266.8,33.9,267.1z"
				/>
			<path d="M33.7,285.6c0.1,0,0.1,0.1,0.2,0.1c0,0,0,0,0,0C33.8,285.7,33.7,285.6,33.7,285.6z"/>
			<path d="M33.7,285.6c0,0.1,0.1,0.1,0.1,0.1c-0.6,0.8-1.3,1.5-2,2.3c-0.5,0.6-1,1.3-1.4,1.9c-0.2-0.3-0.5-0.5-0.8-0.8
				c0.6-1.8,1.5-3.4,2.9-4.4C32.9,285.1,33.3,285.3,33.7,285.6z"/>
			<path d="M32.8,284.6c0.3,0.3,0.6,0.6,0.9,0.9c-0.4-0.2-0.8-0.5-1.1-0.8C32.6,284.7,32.7,284.7,32.8,284.6z"/>
			<path d="M33.2,277c0,0.1-0.1,0.1-0.1,0.1c-0.2-0.2-0.5-0.4-0.8-0.7c-0.2-0.2-0.4-0.5-0.6-0.8c-0.2-0.3-0.4-0.7-0.6-1
				c-0.2-0.4-0.1-0.7-0.2-1.1c0-0.1,0.1-0.2,0.2-0.1c0.2,0.3,0.6,0.5,0.8,0.8c0.2,0.3,0.3,0.6,0.5,0.9c0.2,0.3,0.3,0.7,0.5,1
				C33,276.4,33.1,276.7,33.2,277z"/>
			<path d="M31.7,266.8c0.5,0.3,1,0.6,1.6,0.8c-2,1.5-4.2,2.8-6.1,4.3c-2.2,1.8-4.3,3.6-6.4,5.5c-0.1-0.2-0.2-0.5-0.3-0.7
				c2-2.3,4.3-4.5,6.7-6.5C28.6,269.2,30.1,267.9,31.7,266.8z"/>
			<path d="M33.9,284c-0.4,0.1-0.8,0.3-1.2,0.6c-0.1,0-0.1,0.1-0.2,0.1c-0.7-0.6-1.4-1.3-1.9-2c-0.5-0.7-1.2-1.5-1.6-2.4
				c0.3-0.2,0.6-0.4,0.8-0.7c0.1,0.1,0.2,0.2,0.3,0.2c-0.2,0.2-0.5,0.4-0.8,0.5c0.2,0.2,0.3,0.5,0.5,0.7c0.3-0.2,0.5-0.4,0.8-0.6
				c0.4,0.4,0.7,0.8,1.1,1.2C32.5,282.5,33.2,283.2,33.9,284z"/>
			<path d="M32.6,266.2c-0.3,0.2-0.6,0.4-0.9,0.6c-0.6-0.3-1.2-0.6-1.8-0.9c-1.1-0.5-2.4-0.9-3.6-1.5c0.2-0.4,0.3-0.7,0.5-1.1
				c1.2,0.4,2.3,1.1,3.3,1.6C30.8,265.3,31.7,265.7,32.6,266.2z"/>
			<path d="M30.7,280.5C30.7,280.5,30.7,280.5,30.7,280.5c-0.2-0.2-0.4-0.4-0.6-0.6c0,0,0,0,0,0C30.3,280.1,30.5,280.3,30.7,280.5z"
				/>
			<path d="M30.1,279.9c0.2,0.2,0.4,0.4,0.5,0.6c-0.3,0.2-0.5,0.4-0.8,0.6c-0.2-0.2-0.3-0.4-0.5-0.7
				C29.6,280.3,29.9,280.1,30.1,279.9z"/>
			<path d="M30.4,290L30.4,290c-0.3-0.2-0.5-0.4-0.8-0.7c0,0,0-0.1,0-0.1C29.9,289.4,30.2,289.7,30.4,290z"/>
			<path d="M30.4,290c-0.2,0.4-0.4,0.7-0.6,1.1c-0.2-0.2-0.4-0.4-0.5-0.6c0.1-0.4,0.2-0.8,0.4-1.2C29.9,289.5,30.1,289.8,30.4,290z"
				/>
			<path d="M29.8,279.7c-0.2,0.2-0.5,0.5-0.8,0.7c-0.2-0.4-0.2-0.7-0.2-1.1c0,0,0,0,0,0c0,0,0-0.1,0.1-0.1c0,0,0,0,0.1,0
				c0,0,0,0,0,0c0,0,0,0,0.1,0C29.3,279.3,29.6,279.5,29.8,279.7z"/>
			<path d="M29.3,255.7c-0.1,0.3-0.2,0.6-0.4,0.8c-0.5,0.1-1.1,0.1-1.7,0.2c0.1-0.2,0.2-0.4,0.3-0.6C28.1,256,28.7,255.8,29.3,255.7
				z"/>
			<path d="M28.9,279.2C28.9,279.2,28.9,279.2,28.9,279.2C28.9,279.2,28.9,279.2,28.9,279.2C28.9,279.2,28.9,279.2,28.9,279.2z"/>
			<path d="M28.9,279.1C28.9,279.1,28.9,279.1,28.9,279.1c0,0,0,0.1,0,0.1c0,0,0,0-0.1,0.1c0,0,0,0,0,0c0,0.4,0.1,0.7,0.2,1.1
				c-0.9,0.6-2,0.9-2.8,1.3c-0.7,0.3-1.6,0.8-2.5,1c-0.2-0.3-0.4-0.5-0.6-0.8c0.2-0.1,0.5-0.2,0.7-0.3c0.7-0.3,1.4-0.7,2.1-1
				C26.8,280.2,27.8,279.4,28.9,279.1C28.8,279.1,28.8,279.1,28.9,279.1z"/>
			<path d="M28.3,84.3c0.4-0.1,0.7,0.4,0.5,0.7c-1.9,3.1-5.1,5.1-6.9,8.2c0,0,0,0.1-0.1,0.1c-1.4,1.7-2.7,3.5-3.9,5.3
				c0-0.5,0-1,0.1-1.5c0.5-3.2,2.3-6.6,4.8-9.1C24.5,86.3,26.3,85,28.3,84.3z"/>
			<path d="M28.9,279.2C28.8,279.2,28.8,279.2,28.9,279.2C28.8,279.2,28.8,279.2,28.9,279.2z"/>
			<path d="M27.2,256.7c0.6-0.1,1.1-0.1,1.7-0.2c-0.4,0.9-1,1.8-1.3,2.8c-0.4,1.3-0.6,2.7-1,4c-0.4-0.1-0.9-0.3-1.3-0.3
				c0-1.5,0.7-3.2,1.1-4.5C26.7,258,27,257.3,27.2,256.7z"/>
			<path d="M26.7,263.3c-0.1,0.4-0.3,0.8-0.5,1.1c0,0-0.1,0-0.1-0.1c0-0.1,0-0.2,0-0.3c0-0.1-0.2-0.2-0.2-0.1c0,0.1-0.1,0.1-0.1,0.2
				c-0.1-0.1-0.2-0.1-0.3-0.2c-0.1-0.3-0.1-0.7-0.1-1C25.8,263,26.2,263.2,26.7,263.3z"/>
			<path d="M26.2,264.4c0,0.1-0.1,0.2-0.1,0.2c0,0,0,0,0-0.1c0-0.1,0-0.2,0-0.2C26.1,264.4,26.2,264.4,26.2,264.4z"/>
			<path d="M26.1,264.1c0,0.1,0,0.2,0,0.3c-0.1,0-0.2-0.1-0.3-0.1c0,0,0.1-0.1,0.1-0.2C25.9,263.9,26.1,264,26.1,264.1z"/>
			<path d="M26.1,264.4c0,0.1,0,0.2,0,0.2c0,0,0,0,0,0.1c0,0,0,0,0,0.1c-0.1-0.1-0.3-0.2-0.4-0.2c0-0.1,0.1-0.2,0.1-0.3
				C25.9,264.3,26,264.3,26.1,264.4z"/>
			<path d="M26.6,165.4c-0.5-0.4-1-0.8-1.5-1.2c0.2-0.6,0.4-1.2,0.4-1.8C25.8,163.4,26.1,164.4,26.6,165.4z"/>
			<path d="M25.2,161.4c0.1,0.1,0.2,0.2,0.3,0.3c0,0.2,0,0.5-0.1,0.7C25.4,162.1,25.3,161.7,25.2,161.4z"/>
			<path d="M25.2,161.4c0.1,0.3,0.2,0.7,0.3,1c-0.1,0.6-0.2,1.2-0.4,1.8c-0.4-0.3-0.7-0.6-1-0.9C24.5,162.7,24.9,162,25.2,161.4
				C25.1,161.3,25.2,161.3,25.2,161.4C25.2,161.4,25.2,161.4,25.2,161.4z"/>
			<path d="M25.2,161.2c0,0.1,0,0.1,0,0.2c0,0-0.1,0-0.1-0.1C25.1,161.2,25.1,161.2,25.2,161.2z"/>
			<path d="M25.1,161.3c-0.3,0.7-0.6,1.4-1.1,2.1c-0.2-0.2-0.4-0.3-0.6-0.5c-0.2-1.2-0.3-2.3-0.3-3.5
				C23.8,160,24.5,160.7,25.1,161.3z"/>
			<path d="M24,163.4c0.3,0.3,0.7,0.6,1,0.9c-0.2,0.6-0.5,1.2-0.9,1.8c-0.2-0.7-0.4-1.4-0.5-2.2C23.8,163.7,23.9,163.5,24,163.4z"/>
			<path d="M23.5,162.9c0.2,0.2,0.4,0.3,0.6,0.5c-0.1,0.2-0.2,0.3-0.4,0.5C23.6,163.5,23.5,163.2,23.5,162.9z"/>
			<path d="M23.6,163.9c0.1,0.7,0.3,1.4,0.5,2.2c-1.2,1.8-3.1,3-5.4,3.5c-3.9,0.8-7.7-1.6-9.4-5.1c-1.8-3.7-0.8-8.2,2.4-10.7
				c0.8-0.7,1.8-1.2,2.8-1.5c0.4,0.6,0.7,1.2,1.1,1.8c-1,0.2-1.9,0.7-2.8,1.5c-2.4,2.1-2.9,5.5-1.4,8.3
				C14.5,168.9,20.5,167.7,23.6,163.9z"/>
			<path fill="#DEC1BB" d="M23.5,162.9c0.1,0.3,0.1,0.7,0.2,1c-3.1,3.9-9.1,5.1-12.1-0.2c-1.6-2.8-1-6.2,1.4-8.3
				c0.9-0.8,1.8-1.3,2.8-1.5C17.9,157.3,20.6,160.3,23.5,162.9z"/>
			<path d="M23.2,281.8c0.2,0.3,0.4,0.6,0.6,0.8c-0.3,0.1-0.5,0.1-0.8,0.2c-0.2-0.2-0.4-0.4-0.6-0.6C22.6,282,22.9,281.9,23.2,281.8
				z"/>
			<path d="M23.2,159.4c0,1.2,0.1,2.3,0.3,3.5c-2.9-2.6-5.6-5.6-7.8-8.9c1-0.2,2-0.2,3-0.1C20.1,155.9,21.6,157.7,23.2,159.4z"/>
			<path d="M22.7,87.8l0.2,0.2c-2.5,2.6-4.3,5.9-4.8,9.1c-0.1,0.5-0.1,1-0.1,1.5c0,0.1-0.1,0.1-0.1,0.2c-0.8,1.1-1.5,2.2-2,3.4
				c-7.8,14.9-8,32.9,0.8,48.4c0.2,0.4,0.4,0.7,0.6,1c-0.9,0-1.9,0.2-2.8,0.5c-1.2-1.9-2.2-3.9-3.1-6.1c-4.5-10.7-5.9-22.9-3.1-34.2
				C10.7,102.6,16,94.5,22.7,87.8z"/>
			<path d="M23.2,281.8c-0.3,0.1-0.6,0.2-0.8,0.4c-0.7-0.8-1.2-1.6-1.8-2.4c-0.2-0.4-0.5-0.9-0.8-1.4c0.3-0.3,0.7-0.6,1-0.9
				c0.2,0.6,0.5,1.2,0.8,1.8C22.1,280.1,22.6,281,23.2,281.8z"/>
			<path d="M21.9,93.3C21.8,93.4,21.8,93.4,21.9,93.3c-0.2,0.3-0.3,0.6-0.4,0.8c-1.1,1-1.8,2.2-2.5,3.5c-0.3,0.3-0.6,0.7-1,1.1
				c0,0,0,0,0,0C19.1,96.8,20.4,95,21.9,93.3z"/>
			<path d="M20.8,277.4c-0.3,0.3-0.7,0.6-1,0.9c-0.1-0.2-0.2-0.3-0.3-0.5c0.3-0.4,0.6-0.8,1-1.1C20.6,277,20.7,277.2,20.8,277.4z"/>
			<path d="M18.7,153.8c-1-0.1-2-0.1-3,0.1c-0.4-0.6-0.8-1.1-1.1-1.8c0.9-0.3,1.8-0.5,2.8-0.5C17.8,152.5,18.2,153.2,18.7,153.8z"/>
		</g>
	</g>
	<g>
		<path fill="none" stroke="#000000" stroke-width="0.957" stroke-miterlimit="10" d="M332.9,49.5c-1.9,0.2-3.9-0.4-5.4-1.7"/>
		<path fill="none" stroke="#2D4C34" stroke-width="0.957" stroke-miterlimit="10" d="M113.3,34.9c0.3,2.1,1.3,4.2,2.8,5.7"/>
		<path fill="none" stroke="#000000" stroke-width="0.957" stroke-miterlimit="10" d="M110.8,28.9c-0.4-1.2-0.7-2.4-0.8-3.7"/>
		<path fill="none" stroke="#2D4C34" stroke-width="0.957" stroke-miterlimit="10" d="M108.9,19.4c-0.7-1.1-0.7-2.5-0.1-3.6"/>
		<path fill="none" stroke="#2D4C34" stroke-width="0.957" stroke-miterlimit="10" d="M109.7,8.8c-0.1-0.7-0.2-1.4-0.1-2.1
			c0.1-0.7,0.4-1.4,0.9-1.8c0.6-0.4,1.4-0.5,1.9-0.1"/>
	</g>
</g>
</svg>
