<?xml version="1.0" encoding="utf-8"?>
<!-- Generator: Adobe Illustrator 21.0.0, SVG Export Plug-In . SVG Version: 6.00 Build 0)  -->
<svg version="1.1" id="Layer_1" xmlns="http://www.w3.org/2000/svg" xmlns:xlink="http://www.w3.org/1999/xlink" x="0px" y="0px"
	 viewBox="0 0 326 270" enable-background="new 0 0 326 270" xml:space="preserve">
<g>
	<defs>
		<rect id="SVGID_3_" width="326" height="270"/>
	</defs>
	<clipPath id="SVGID_1_">
		<use xlink:href="#SVGID_3_"  overflow="visible"/>
	</clipPath>
	<g id="man" clip-path="url(#SVGID_1_)">
		<path opacity="0.6" fill="#2D4C34" d="M342.3,48.6c-0.6,0.5-1.1,1-1.6,1.5c0-0.9,0-1.9,0-2.8c0.7-0.7,1.2-1.5,1.7-2.4
			c0.3-0.4-0.2-0.8-0.6-0.6c-0.4,0.2-0.8,0.4-1.1,0.6c0-2-0.1-4.1-0.1-6.1c0-1.1,0-2.1-0.1-3.2c0-1.1,0-2.2-0.1-3.3
			c-0.1-6.3-0.2-12.5-0.4-18.8c0-1.3,0-2.7,0-4c0-0.9,0-1.8,0-2.7c-0.6-0.1-1.2-0.2-1.8-0.3c-36.9-5.4-74.5-4.6-111.7-4
			c-9.8,0.2-19.7,0.3-29.5,0.5c-0.4-1-0.9-2-1.3-2.9c-0.1-0.2-0.4-0.1-0.4,0.1c0,1,0.1,1.9,0.3,2.9c-33.8,0.6-67.5,1.1-101.2,1.7
			c-2.5,0-5,0.1-7.4,0.1c-0.3-1.4-0.6-2.7-1-4.1c-0.1-0.3-0.6-0.2-0.5,0.1c0.2,1.3,0.4,2.6,0.6,4c-9.5,0.2-17.2,0.3-26.7,0.5
			c-6.7,0.1-10.5,0.1-17.3,0.2c-0.2-1.4-0.4-2.9-0.6-4.3c-0.1-0.5-0.8-0.5-0.7,0c0,1.4,0.1,2.9,0.2,4.3c-0.8,0-1.6,0-2.3,0.1
			c-1.6-1.8-3.2-3.5-4.9-5.2c-0.5-0.5-1.2,0.2-0.8,0.8c1.2,1.5,2.5,3,3.7,4.5c0.7,0.8,1.3,1.6,1.9,2.4c0.9,1.2,1.8,2.3,2.8,3.5
			c1,13.3,2.5,26.8,5.3,39.8c3.4,15.6,8.6,30.6,17.2,44c7.8,12.1,16,23,27.8,31.2c6.3,4.4,13,8,20,11c0.3,0.5,0.6,1.1,0.9,1.6
			c5.1,9.6,10,19.5,15.4,29.1c-1.2,0.3-2.5,0.9-3.6,1.9c-2.5,2.3-3.6,5.9-5.1,9.1c-0.1-0.1-0.2-0.1-0.3-0.2
			c-0.2-0.2-0.4-0.3-0.7-0.4c-0.2,0.2-0.5,0.4-0.7,0.7c-0.1,0.1-0.2,0.2-0.3,0.4c-0.3,0.4-0.6,0.8-0.9,1.1c-0.2,0.3-0.5,0.7-0.8,1.2
			c-0.2,0.3-0.4,0.7-0.6,1.1c0.3,0.2,0.6,0.5,0.9,0.7c0.1,0.1,0.3,0.2,0.4,0.3c-1,1.4-2.2,2.6-3.3,3.9c-0.1-0.1-0.2-0.2-0.4-0.3
			c-0.2-0.2-0.4-0.4-0.7-0.6c-0.4,0.2-0.7,0.4-1,0.7c-0.6,0.4-1.1,1-1.5,1.4c-0.2,0.2-0.4,0.5-0.7,0.8c-0.3,0.3-0.5,0.7-0.7,1.1
			c0.3,0.3,0.6,0.5,1,0.8c0,0,0.1,0.1,0.1,0.1c-0.1,0.1-0.2,0.2-0.3,0.3c-0.3,0.3-0.6,0.6-0.9,0.8c-0.5,0.5-1.1,1-1.6,1.5
			c-0.4,0.4-0.9,0.8-1.3,1.2c-0.1-0.1-0.2-0.2-0.3-0.3c-0.3-0.2-0.5-0.4-0.8-0.7c-0.4,0.2-0.8,0.4-1.2,0.6c-0.7,0.4-1.4,1-2,1.7
			c-0.3,0.3-0.6,0.6-0.8,0.9c0.3,0.3,0.6,0.6,0.9,0.8c0.1,0.1,0.3,0.2,0.4,0.4c-0.8,0.7-1.7,1.4-2.6,2.1c-0.1-0.1-0.2-0.2-0.3-0.2
			c-0.3-0.2-0.6-0.4-0.9-0.7c-0.3,0.1-0.6,0.3-0.9,0.4c-0.9,0.4-1.6,1-2.3,1.7c-0.3,0.3-0.5,0.6-0.8,0.9c0.3,0.3,0.5,0.7,0.8,1
			c0,0,0.1,0.1,0.1,0.1c-0.9,0.7-1.9,1.4-2.8,2.1c-0.1-0.1-0.2-0.2-0.3-0.2c-0.3-0.3-0.7-0.6-1-0.8c-0.5,0.2-1,0.5-1.4,0.7
			c-0.1,0.1-0.2,0.1-0.3,0.2c-0.4,0.2-0.9,0.6-1.4,0.9c-0.3,0.3-0.7,0.5-1,0.8c0.3,0.3,0.6,0.7,0.9,1c0.1,0.1,0.2,0.2,0.2,0.3
			c-1.2,0.8-2.4,1.5-3.6,2.3c-0.1-0.1-0.2-0.2-0.2-0.3c-0.2-0.3-0.5-0.6-0.7-0.9c-0.4,0-0.8,0.1-1.2,0.2c-0.9,0.2-1.7,0.7-2.5,1.2
			c-0.4,0.3-0.7,0.6-1,0.9c0.2,0.4,0.5,0.8,0.8,1.3c0.1,0.1,0.2,0.2,0.2,0.4c-0.3,0.2-0.6,0.3-0.8,0.4c-0.5,0.3-1.1,0.5-1.6,0.8
			c-0.4,0.2-0.8,0.4-1.2,0.6c-3.9,1.9-8,3.6-12.2,5c-5.2,1.7-10.7,2.4-15.8,4.2c-6.6,2.3-8.9,8.1-8.6,14.1c-0.1,0.2-0.1,0.4,0,0.6
			c0,0,0,0.1,0,0.1c0,0.3,0,0.6,0.1,0.9c0,0-0.1,0.1-0.1,0.2c-0.1,0.2-0.1,0.4-0.2,0.7c-0.5,1.9-0.3,4.2,0.2,6.3
			c0.3,1.6,0.8,3.1,1.2,4.4c0.5,1.6,1.1,3.2,1.8,4.8c0.6,0.4,1.2,0.8,1.8,1.2c0.3,0.2,0.6,0.3,0.9,0.4c6,2.8,13.4,1.5,19.7,1.1
			c28-1.7,55.9-4.9,83.6-9.6c13.9-2.4,27.8-5.1,41.6-8.4c5-1.2,14.1-2.1,18.1-6.4c0.6-0.7,1.1-1.4,1.5-2.3c0-1.1-0.2-2.2-0.3-3.3
			c-0.1-0.9-0.2-1.7-0.4-2.5c-0.4-2.4-0.9-4.8-1.8-7.1c-0.1-0.2-0.2-0.4-0.3-0.6c-0.1-0.3-0.3-0.6-0.4-0.9c-0.2-0.3-0.3-0.6-0.5-0.9
			c-0.6-3.9-1.3-7.8-2.2-11.6c-1.1-5-2.3-10.4-3.8-15.5c-0.1-0.2-0.1-0.4-0.2-0.6c-0.2-0.7-0.5-1.5-0.7-2.2
			c-0.1-0.2-0.1-0.4-0.2-0.6c-0.5-1.4-1-2.8-1.6-4.1c0,0,0,0,0,0c-0.6-1.8-1.2-3.5-2-5.2c-2.4-4.9-6.4-5.3-10.5-3.5
			c-0.3-1.4-0.6-2.8-0.9-4.2c-0.3-1.7-0.7-3.3-1-5c0.5-0.1,1-0.1,1.5-0.2c-0.1-0.6-0.2-1.2-0.4-1.7c-0.6-3-1.3-5.9-2-8.9
			c-0.2-0.8-0.4-1.7-0.6-2.5c0.4,0,0.8,0,1.3,0c0,0,0,0,0.1,0c5.1,0.5,10.1,1,15.2,1.4c12.6,1,25.3,1.7,37.9,2.4
			c15.3,0.9,30.8,1.5,46-0.8c14.4-2.2,28-7.6,39.3-16.9c7.5-6.2,13.8-13.9,19-22.2c0.9-1.4,1.7-2.8,2.5-4.2c0-1.3,0-2.6,0-3.9
			c0-0.2,0-0.4,0-0.6c-0.2-12.6-0.3-25.1-0.5-37.7c-0.1-5.7-0.2-11.5-0.3-17.2c0.8-1.2,1.6-2.4,2.2-3.7
			C343.1,48.6,342.6,48.3,342.3,48.6z M40.5,8.3c0.1,0,0.2,0,0.3,0c0,0.1,0,0.3,0,0.4C40.7,8.6,40.6,8.4,40.5,8.3z M96.2,234.4
			c-2,0.3-4-1.1-4.3-3.1c-0.1-0.4-0.1-0.9,0-1.3c0.2,0.1,0.3,0.3,0.5,0.4c0,0.3,0,0.5,0,0.8c0.3,1.7,1.9,3,3.7,2.7
			c1.7-0.3,2.9-1.9,2.7-3.7c-0.2-1.5-1.5-2.6-3-2.7c-0.2-0.2-0.3-0.4-0.5-0.5c2-0.2,3.7,1.2,4,3.2C99.6,232.2,98.2,234.1,96.2,234.4
			z M107,228.3c-2,0.3-4-1.1-4.3-3.1c-0.1-0.6,0-1.2,0.1-1.7c0.2,0.1,0.3,0.2,0.5,0.3c-0.1,0.4-0.1,0.8-0.1,1.3
			c0.3,1.7,1.9,3,3.7,2.7c1.7-0.3,2.9-1.9,2.7-3.7c-0.2-1.6-1.7-2.8-3.3-2.7c-0.2-0.2-0.3-0.3-0.5-0.5c0,0,0,0,0,0
			c2-0.3,4,1.1,4.3,3.1C110.4,226,109,228,107,228.3z M204.6,222.5c-0.1,0.1-0.1,0.1-0.2,0.2c-0.1-1-0.2-2-0.3-3
			C204.2,220.6,204.4,221.5,204.6,222.5z M116.3,222.1c-2,0.3-4-1.1-4.3-3.1c0-0.2,0-0.3,0-0.5c0.2,0.1,0.4,0.2,0.6,0.3
			c0,0,0,0.1,0,0.1c0.3,1.7,1.9,2.9,3.7,2.7c1.7-0.3,3-1.9,2.7-3.7c-0.3-1.7-1.9-3-3.7-2.7c-0.1,0-0.2,0-0.3,0.1
			c-0.2-0.1-0.3-0.3-0.5-0.4c0.2-0.1,0.5-0.2,0.7-0.2c2.1-0.3,4,1.1,4.3,3.1C119.8,219.8,118.3,221.8,116.3,222.1z M124.8,215
			c-2,0.3-3.9-1-4.3-3c0.2,0.1,0.4,0.2,0.6,0.3c0.5,1.5,2,2.4,3.5,2.2c1.8-0.3,3-1.9,2.7-3.7c-0.3-1.7-1.9-3-3.7-2.7
			c-0.2,0-0.3,0.1-0.5,0.1c-0.2-0.1-0.4-0.2-0.6-0.3c0.3-0.1,0.6-0.3,1-0.3c2.1-0.3,4,1.1,4.3,3.1
			C128.3,212.7,126.9,214.6,124.8,215z M133.1,206.6c-2.1,0.3-4-1.1-4.3-3.1c0,0,0-0.1,0-0.1c0.2,0.1,0.4,0.1,0.6,0.2
			c0.3,1.7,1.9,2.8,3.6,2.5c1.7-0.3,2.9-1.9,2.7-3.7c-0.3-1.7-1.9-2.9-3.7-2.7c-0.4,0.1-0.7,0.2-1,0.3c-0.2-0.1-0.4-0.2-0.6-0.3
			c0.5-0.3,1-0.5,1.6-0.6c2-0.3,4,1.1,4.3,3.1C136.6,204.4,135.2,206.3,133.1,206.6z M139.4,197.3c-2,0.3-3.9-1-4.3-3
			c0.2,0.1,0.4,0.1,0.6,0.1c0.4,1.6,2,2.6,3.6,2.3c1.7-0.3,3-1.9,2.7-3.7c-0.3-1.8-1.9-3-3.7-2.7c-0.1,0-0.2,0-0.3,0.1
			c-0.3-0.1-0.5-0.2-0.8-0.3c0.3-0.1,0.6-0.3,1-0.3c2.1-0.3,4,1.1,4.3,3.1C142.9,195,141.5,196.9,139.4,197.3z M192,105.2
			c-4.9-0.1-9.9-0.4-14.8-0.7c-0.3-3.1-0.7-5-1.1-6.2c-0.3-0.8-0.7-1.2-1-1.5c0,0,0,0,0,0c-0.1-0.1-0.2-0.3-0.3-0.4
			c-3.2-1.1-6.9-1.5-10-1.8c-0.6-0.1-1.1-0.1-1.7-0.2c-2.5-6.7-5.1-13.4-7.8-20c5.9,2.5,12,4.8,18,6.9c6.2,2.2,12.5,4.1,18.8,5.8
			c2,0.5,4,1.1,6.1,1.6C195.8,94,193.5,99.5,192,105.2z"/>
		<g id="XMLID_27_">
			<path fill="#272525" d="M328,99.5c0,1.4,0,2.7,0,4.1c-5.1,8.3-11.4,15.9-19,22.2c-11.3,9.3-24.9,14.7-39.3,16.9
				c-15.2,2.4-30.7,1.7-46,0.8c-12.6-0.7-25.3-1.4-37.9-2.4v0c2.1,0.2,4.3,0.3,6.3,0.1c0.5,0,0.6-0.7,0.1-0.9
				c-0.8-0.2-1.5-0.4-2.3-0.6c12.2,0.6,24.3,1.4,36.5,2.1c29.8,1.6,61.8,1,84.9-20.7C318.2,114.6,323.6,107.3,328,99.5z"/>
			<path fill="#DD882F" d="M328,95.4c0,1.4,0,2.7,0,4.1c-4.4,7.8-9.8,15.1-16.6,21.5c-23,21.7-55.1,22.3-84.9,20.7
				c-12.2-0.6-24.3-1.5-36.5-2.1c-3.5-0.7-7.3-0.7-10.8-1c-2.1-0.2-4.3-0.4-6.4-0.5c-1.3-0.3-2.7-0.6-4-0.8
				c-0.6-0.1-1.2-0.2-1.9-0.3c-1.5-0.2-3-0.3-4.5-0.5c0.7-3.1,1.3-6.6,1.8-10c0.2-1.5,0.4-3,0.6-4.5c0.3-2.2,0.5-4.3,0.7-6.1
				c0.8-8.3,1.1-16.2,0.8-22.2c0-0.1,0-0.2,0-0.3c4.7,0.3,9.4,0.5,14.1,0.5c1.6,3.7,3.9,7,5.3,10.9c1.6,4.5,2.4,9,2.8,13.8
				c0,0.2,0.3,0.2,0.3,0c0.4-7.7-1.3-18-6.3-24.4c4,2.3,6.6,4.8,9.3,8.9c3,4.5,4.7,9.4,6.7,14.4c0,0.1,0.2,0.1,0.2,0
				c-0.8-5.9-3.6-11.8-7-16.6c-2.2-3.1-5.5-7.6-9.7-7.7c0-0.2-0.1-0.3-0.2-0.4c0,0,0,0,0,0c2.7-5.3,4.8-10.9,7.1-16.4
				c0.2-0.5,0.4-1,0.7-1.5c0-0.1,0.1-0.1,0.1-0.2c2.7-6.2,5.6-12.4,8.5-18.6c3-6.2,6.1-12.4,9.2-18.5c1.6-3.1,3.2-6.1,4.8-9.2
				c0.5-0.9,1-1.7,1.4-2.6c6.8,6.6,14.3,12.5,21,19.3c3.6,3.6,7.1,7.3,10.4,11.1c3.3,3.7,6.3,8.1,9.9,11.5c0.2,0.2,0.7,0.3,0.9,0
				c0.1-0.2,0.3-0.4,0.4-0.5c4.3-5.5,9.2-12.1,11-19c3.6,3.7,10.3,5.9,15,7.1c6.3,1.6,12.9,1.9,19.3,0.8c9-1.5,19.2-6.1,25.7-13.2
				c0,5.1,0.1,10.1,0.1,15.2C327.7,70.4,327.8,82.9,328,95.4z"/>
			<path fill="#272525" d="M327.4,39.4c0,1.1,0,2.2,0,3.3c-6.5,7.1-16.7,11.7-25.7,13.2c-6.4,1.1-13,0.8-19.3-0.8
				c-4.7-1.2-11.4-3.3-15-7.1c0.1-0.2,0.1-0.5,0.2-0.7c2.5,0.9,4.8,2.5,7.3,3.5c2.8,1.1,5.8,2,8.7,2.6c6.1,1.3,12.6,1.3,18.7,0.1
				c5.5-1.1,10.7-3.2,15.4-6.2C321.4,45.1,324.4,42.3,327.4,39.4z"/>
			<path fill="#DD882F" d="M327.4,36.7c0,0.9,0,1.8,0,2.8c-3,2.9-6.1,5.6-9.7,7.9c-4.7,2.9-10,5.1-15.4,6.2
				c-6.2,1.2-12.6,1.2-18.7-0.1c-3-0.6-5.9-1.5-8.7-2.6c-2.5-1-4.8-2.6-7.3-3.5c-0.3-0.1-0.6-0.2-0.9-0.3c0,0,0,0-0.1,0c0,0,0,0,0,0
				c-1.6,2.8-2.8,5.9-4.3,8.7c-2,3.6-4.1,7-6.7,10.2c-2.4-3.8-5.8-7.3-8.8-10.6c-3.5-4-7.2-7.8-10.9-11.6
				c-6.7-6.6-13.8-13.8-21.7-19.1c0.1-0.3,0.3-0.5,0.4-0.8c4.9,2.6,10.1,4.7,15.3,6.5c11.3,4,23.1,7,35,8.4c0.1,0,0.2,0,0.3,0
				c9.4,7.2,23.6,9.5,35.1,8c5.7-0.7,11.2-2.3,16.4-4.7c3.4-1.6,7.4-3.6,10.6-6.2C327.4,36.2,327.4,36.4,327.4,36.7z"/>
			<path fill="#272525" d="M327.4,33.5c0,0.8,0,1.6,0,2.4c-3.2,2.6-7.1,4.7-10.6,6.2c-5.2,2.4-10.7,4-16.4,4.7
				c-11.5,1.4-25.7-0.8-35.1-8c0.5,0.1,1.1,0.1,1.7,0.2c5,2.2,9.8,4.3,15.3,5.4c5.9,1.2,12.1,1.3,18.1,0.5
				c5.8-0.8,11.4-2.6,16.6-5.2c3.8-1.9,7-4.7,10.5-7C327.4,33,327.4,33.3,327.4,33.5z"/>
			<path fill="#D7A671" d="M327.3,27.4c0,1.8,0,3.6,0,5.4c-3.5,2.3-6.7,5.1-10.5,7c-5.2,2.6-10.8,4.4-16.6,5.2
				c-6,0.8-12.1,0.7-18.1-0.5c-5.5-1.1-10.3-3.2-15.3-5.4c12.7,1.3,25.6,0.6,38-2.6C312.6,34.4,320.4,31.5,327.3,27.4z"/>
			<path fill="#272525" d="M327.3,24.1c0,1.1,0,2.2,0,3.3c-6.9,4.1-14.8,7-22.3,9c-12.5,3.3-25.3,3.9-38,2.6c-0.7-0.3-1.3-0.6-2-0.9
				l0.2-1.8c11.3,1.3,22.9,1.1,34.1-1.2C309.5,33.1,318.6,29.2,327.3,24.1z"/>
			<g>
				<defs>
					<path id="XMLID_7_" d="M327.3,19.6c0,1.5,0,3,0,4.5c-8.7,5.1-17.8,9-28.1,11.1c-11.2,2.3-22.7,2.5-34.1,1.2
						c-4-0.5-8-1.1-11.9-1.9c-12.8-2.6-25.9-6.6-37.6-12.7c-0.4-0.2-0.9-0.5-1.3-0.7c-1.2-0.6-2.4-1.3-3.5-2
						c-6.2-3.7-11.9-8.3-16.5-13.9c-3.2-3.9-5.4-8.1-7.4-12.5c27.3-0.6,54.7-1.1,82-0.5c19.5,0.4,38.9,1.5,58.2,4.4
						c0,1.4,0,2.9,0,4.3C327.2,7.1,327.3,13.3,327.3,19.6z"/>
				</defs>
				<use xlink:href="#XMLID_7_"  overflow="visible" fill="#5F381E"/>
				<clipPath id="XMLID_2_">
					<use xlink:href="#XMLID_7_"  overflow="visible"/>
				</clipPath>
				<path clip-path="url(#XMLID_2_)" fill="#7E4A28" d="M186-22c0,0,24,29,59,36s59,0,59,0s-28-6.8-26-13.9s37,17,37,17
					S359,5,336-17s-46-57-46-57H175L186-22z"/>
			</g>
			<path fill="#272525" d="M267.6,47.3c0,0.2-0.1,0.5-0.2,0.7c-0.3-0.3-0.5-0.6-0.8-0.9c0,0,0,0,0,0s0,0,0,0c0,0,0,0,0.1,0
				C267,47.1,267.3,47.2,267.6,47.3z"/>
			<path fill="#272525" d="M266.7,47.1c0.2,0.3,0.5,0.6,0.8,0.9c-1.8,7-6.7,13.5-11,19l-0.3-0.2c-0.2-0.3-0.3-0.5-0.5-0.8
				c2.6-3.2,4.7-6.6,6.7-10.2C263.9,53,265.1,49.9,266.7,47.1C266.7,47.1,266.7,47.1,266.7,47.1z"/>
			<path fill="#272525" d="M265,38.2c0.7,0.3,1.3,0.6,2,0.9c-0.5-0.1-1.1-0.1-1.7-0.2c-0.2-0.1-0.4-0.3-0.5-0.4
				C264.6,38.3,264.8,38.1,265,38.2z"/>
			<path fill="#272525" d="M265.3,38.9c-0.1,0-0.2,0-0.3,0c-11.9-1.4-23.8-4.3-35-8.4c-5.2-1.9-10.4-4-15.3-6.5
				c0.4-0.7,0.7-1.5,1-2.2c11.7,6.1,24.8,10.1,37.6,12.7c3.9,0.8,7.9,1.5,11.9,1.9l-0.2,1.8c-0.2-0.1-0.4,0.1-0.2,0.3
				C264.9,38.6,265.1,38.7,265.3,38.9z"/>
			<path fill="#272525" d="M256.4,67.1c-0.1,0.2-0.3,0.4-0.4,0.5c-0.2,0.3-0.7,0.2-0.9,0c-3.7-3.4-6.6-7.8-9.9-11.5
				c-3.4-3.8-6.9-7.5-10.4-11.1c-6.7-6.8-14.2-12.7-21-19.3c0.2-0.3,0.3-0.6,0.5-0.9c7.9,5.3,15,12.5,21.7,19.1
				c3.8,3.7,7.4,7.6,10.9,11.6c3,3.3,6.4,6.8,8.8,10.6c-0.2,0.2-0.4,0.5-0.5,0.7c0.3,0,0.7,0.1,1,0.1L256.4,67.1z"/>
			<path fill="#272525" d="M256.1,66.8c-0.3,0-0.7-0.1-1-0.1c0.2-0.2,0.4-0.4,0.5-0.7C255.8,66.3,256,66.5,256.1,66.8z"/>
			<path fill="#272525" d="M214.4,21.1c0.4,0.2,0.9,0.5,1.3,0.7c-0.3,0.8-0.6,1.5-1,2.2c-0.6-0.3-1.2-0.6-1.8-0.9
				C213.3,22.3,213.8,21.7,214.4,21.1z"/>
			<path fill="#272525" d="M214.6,24c-0.1,0.3-0.3,0.5-0.4,0.8c-0.5-0.3-1-0.6-1.5-1c-0.2-0.1-0.4,0-0.4,0.1l0,0
				c0.2-0.3,0.4-0.6,0.6-0.9C213.4,23.4,214,23.7,214.6,24z"/>
			<path fill="#272525" d="M214.2,24.7c-0.2,0.3-0.3,0.6-0.5,0.9c-0.5-0.4-0.9-0.9-1.4-1.4c-0.1-0.1-0.1-0.3,0-0.4
				c0.1-0.1,0.3-0.2,0.4-0.1C213.2,24.1,213.7,24.4,214.2,24.7z"/>
			<path fill="#272525" d="M212.3,24.3c0.5,0.5,0.9,0.9,1.4,1.4c-0.5,0.9-1,1.7-1.4,2.6c-1.6,3-3.2,6.1-4.8,9.2
				c-3.1,6.1-6.2,12.3-9.2,18.5c-2.9,6.2-5.8,12.4-8.5,18.6c-0.6-0.1-1.3-0.3-1.9-0.5c0.1-0.3,0.2-0.5,0.3-0.8
				c2.5-6,5.1-11.9,7.9-17.8c3-6.5,6.2-12.9,9.6-19.1c2.1-3.8,4-8.5,6.6-12.5l0,0C212.2,24,212.2,24.2,212.3,24.3z"/>
			<path fill="#272525" d="M214.4,21.1c-0.5,0.6-1,1.3-1.5,2c-4.9-2.7-9.6-5.8-13.8-9.5c-5.9-5.3-12-12.7-14.2-20.8c0.7,0,1.4,0,2,0
				c2,4.4,4.2,8.6,7.4,12.5c4.6,5.6,10.3,10.2,16.5,13.9C212,19.8,213.2,20.4,214.4,21.1z"/>
			<g>
				<defs>
					<path id="XMLID_3_" d="M212.9,23c-0.2,0.3-0.4,0.6-0.6,0.9c-2.6,3.9-4.6,8.7-6.6,12.5c-3.4,6.3-6.6,12.7-9.6,19.1
						c-2.8,5.9-5.4,11.8-7.9,17.8c-0.1,0.3-0.2,0.5-0.3,0.8c-2.6-0.6-5.2-1.2-7.7-2c-5.8-1.7-11.7-3.6-17.4-5.6
						c-6.6-2.3-13.2-4.9-19.7-7.7c-0.5-0.2-1.1-0.5-1.6-0.7c-5-2.2-10-4.4-14.9-6.8c-11.5-5.5-22.8-11.5-34-17.7
						c-3.8-2.1-7.6-4.2-11.4-6.4c-1.8-10.9-2.8-22.1-4.9-32.7c21.3-0.3,42.7-0.7,64-1C155.2-6.6,170-7,184.9-7.3
						c2.1,8.1,8.2,15.5,14.2,20.8C203.3,17.3,207.9,20.4,212.9,23z"/>
				</defs>
				<use xlink:href="#XMLID_3_"  overflow="visible" fill="#334A5D"/>
				<clipPath id="XMLID_9_">
					<use xlink:href="#XMLID_3_"  overflow="visible"/>
				</clipPath>
				<path clip-path="url(#XMLID_9_)" fill="#263846" d="M75.3,20.7c0,0,68.7,42,130,50S181,92.4,181,92.4L86.7,53.5l-34-26.8
					L75.3,20.7z"/>
			</g>
			<path fill="#272525" d="M198.7,117.4c0,0.1-0.2,0.1-0.2,0c-1.9-5-3.7-9.9-6.7-14.4c-2.7-4.1-5.4-6.6-9.3-8.9
				c-0.1-0.2-0.3-0.4-0.5-0.6c0.1-0.1,0.1-0.3,0.1-0.5c4.2,0.1,7.5,4.6,9.7,7.7C195.1,105.6,198,111.5,198.7,117.4z"/>
			<path fill="#272525" d="M192.3,140.3c0.5,0.1,0.4,0.8-0.1,0.9c-2,0.2-4.1,0.1-6.3-0.1c-2.8-0.3-5.6-0.7-8.2-1
				c-1.4-0.1-2.9-0.3-4.3-0.5c0.4,0,0.9-0.1,1.3-0.1c0.2,0,0.3-0.2,0.4-0.3c5,0.1,10,0.3,15,0.5C190.8,139.9,191.6,140,192.3,140.3z
				"/>
			<path fill="#272525" d="M189.8,74.6c0,0.1-0.1,0.1-0.1,0.2c-0.2,0.5-0.4,1-0.7,1.5c-0.6-0.1-1.3-0.3-1.9-0.5
				c0.2-0.6,0.5-1.1,0.7-1.7C188.5,74.3,189.1,74.4,189.8,74.6z"/>
			<path fill="#272525" d="M187.1,75.8c0.6,0.2,1.3,0.3,1.9,0.5c-2.3,5.5-4.4,11.1-7.1,16.4c-0.1-0.1-0.3-0.2-0.5-0.3
				c-0.1,0-0.3,0-0.4,0C182.5,86.7,184.8,81.2,187.1,75.8z"/>
			<path fill="#272525" d="M182.5,94.2c5,6.4,6.7,16.8,6.3,24.4c0,0.2-0.3,0.2-0.3,0c-0.4-4.7-1.2-9.3-2.8-13.8
				c-1.4-3.9-3.6-7.2-5.3-10.9c0.3,0,0.7,0,1,0c0.2,0,0.3,0,0.4-0.1C182,93.9,182.3,94.1,182.5,94.2z"/>
			<path fill="#272525" d="M187.8,74.1c-0.2,0.6-0.5,1.1-0.7,1.7c-2.1-0.5-4.1-1.1-6.1-1.6c-6.3-1.7-12.6-3.6-18.8-5.8
				c-6.1-2.1-12.1-4.5-18-6.9c-0.4-0.9-0.7-1.8-1.1-2.6c6.5,2.8,13,5.3,19.7,7.7c5.7,2,11.6,3.9,17.4,5.6
				C182.7,72.9,185.3,73.5,187.8,74.1z"/>
			<path fill="#272525" d="M179.2,138.7c3.5,0.3,7.3,0.3,10.8,1c-5-0.2-10-0.4-15-0.5c0.1-0.2,0-0.4-0.3-0.5c-0.7-0.2-1.3-0.4-2-0.5
				C175,138.3,177.1,138.5,179.2,138.7z"/>
			<path fill="#272525" d="M185.9,141.1L185.9,141.1c-5.1-0.4-10.2-0.8-15.2-1.4c0,0-0.1,0-0.1,0c0.9,0,1.8,0,2.7-0.1
				c1.5,0.2,2.9,0.3,4.3,0.5C180.3,140.3,183.1,140.8,185.9,141.1z"/>
			<path fill="#272525" d="M182.5,94.2c-0.2-0.1-0.4-0.3-0.7-0.4c0.1-0.1,0.1-0.1,0.2-0.2C182.2,93.8,182.3,94,182.5,94.2z"/>
			<path fill="#272525" d="M182.1,93.1c0,0.2,0,0.3-0.1,0.5c-0.1-0.1-0.2-0.3-0.3-0.4c0,0,0-0.1,0-0.1h0
				C181.8,93.1,182,93.1,182.1,93.1z"/>
			<path fill="#272525" d="M182.1,93.1c-0.1,0-0.3,0-0.4,0c0.1-0.1,0.1-0.3,0.2-0.4C182,92.8,182.1,92.9,182.1,93.1z"/>
			<path fill="#272525" d="M181.7,93.2c0.1,0.1,0.2,0.3,0.3,0.4c0,0.1-0.1,0.2-0.2,0.2c-0.1-0.1-0.2-0.1-0.4-0.2
				C181.5,93.5,181.6,93.3,181.7,93.2z"/>
			<path fill="#272525" d="M181.9,92.7C181.9,92.7,181.9,92.7,181.9,92.7c-0.1,0.1-0.1,0.3-0.2,0.4h0c0,0-0.1,0-0.1,0
				c-0.1-0.2-0.3-0.3-0.4-0.5c-0.1-0.1-0.1-0.1-0.2-0.1c0,0,0-0.1,0-0.1c0.1,0,0.3,0,0.4,0C181.6,92.4,181.8,92.5,181.9,92.7z"/>
			<path fill="#272525" d="M181.4,93.6c0.1,0.1,0.2,0.1,0.4,0.2c-0.1,0.1-0.3,0.1-0.4,0.1c-0.3,0-0.7,0-1,0
				c-0.1-0.2-0.2-0.4-0.3-0.7c-0.2-0.5,0.4-1,0.9-0.8c-0.1,0.3-0.1,0.6-0.2,0.8C180.6,93.7,181.2,94,181.4,93.6
				C181.4,93.6,181.4,93.6,181.4,93.6L181.4,93.6z"/>
			<path fill="#272525" d="M181.7,93.1C181.7,93.1,181.7,93.1,181.7,93.1c-0.1,0.1-0.1,0-0.1,0C181.6,93.1,181.7,93.1,181.7,93.1z"
				/>
			<path fill="#272525" d="M181.6,93.1C181.6,93.1,181.6,93.1,181.6,93.1c0,0.2-0.1,0.4-0.1,0.5h0c-0.1-0.1-0.2-0.1-0.3-0.2
				c-0.2-0.1-0.1-0.3,0.1-0.3C181.3,93.1,181.4,93.1,181.6,93.1z"/>
			<path fill="#272525" d="M181.2,92.6c0.1,0.1,0.3,0.3,0.4,0.5c-0.1,0-0.3,0-0.4,0c-0.1,0-0.2,0.2-0.1,0.3c0.1,0.1,0.2,0.1,0.3,0.2
				c0,0,0,0,0,0c-0.2,0.4-0.8,0.1-0.7-0.3c0.1-0.3,0.1-0.6,0.2-0.8C181,92.5,181.1,92.6,181.2,92.6z"/>
			<path fill="#272525" d="M181,92.4C181,92.4,180.9,92.5,181,92.4c-0.5-0.1-1.1,0.3-0.9,0.9c0.1,0.2,0.2,0.4,0.3,0.7
				c-4.7,0-9.4-0.2-14.1-0.5c0-0.6-0.1-1.2-0.1-1.8C171.1,92,176,92.3,181,92.4z"/>
			<path fill="#272525" d="M175.3,165c0.8-0.4,1.4,0.7,0.7,1.1c-0.7,0.5-1.5,1-2.3,1.5c-0.1-0.6-0.2-1.1-0.3-1.7
				C174,165.6,174.6,165.3,175.3,165z"/>
			<path fill="#272525" d="M174.8,138.7c0.3,0.1,0.3,0.3,0.3,0.5c-1.4,0-2.9-0.1-4.3-0.1c-0.1,0-0.2,0-0.2,0.1
				c-0.4-0.1-0.8-0.1-1.3-0.2c-0.1-0.3-0.2-0.7-0.3-1c1.3,0,2.6,0.1,3.9,0.2C173.5,138.3,174.1,138.5,174.8,138.7z"/>
			<path fill="#272525" d="M175,139.2c0,0.1-0.2,0.3-0.4,0.3c-0.4,0-0.9,0.1-1.3,0.1c-1-0.1-1.9-0.2-2.9-0.4c0-0.1,0.1-0.1,0.2-0.1
				C172.1,139.1,173.6,139.1,175,139.2z"/>
			<path fill="#272525" d="M174.1,172.7c0,0.6-0.8,0.6-0.9,0.1c-0.5-1.4-0.9-2.8-1.2-4.2c0.6-0.3,1.1-0.7,1.6-1
				C173.9,169.3,174.1,171,174.1,172.7z"/>
			<path fill="#272525" d="M173.4,165.9c0.1,0.6,0.2,1.1,0.3,1.7c-0.5,0.3-1.1,0.7-1.6,1c-0.1-0.6-0.3-1.2-0.4-1.8
				C172.2,166.5,172.8,166.2,173.4,165.9z"/>
			<path fill="#272525" d="M171.8,158c0.5,2.6,1.1,5.3,1.6,7.9c-0.6,0.3-1.2,0.6-1.8,0.9c-0.7-3.3-1.1-6.6-1.8-9.8
				c-0.3-1.3-0.5-2.6-0.8-3.8c0.5-0.1,1-0.1,1.5-0.2c0.1,0,0.1,0,0.2,0C171.1,154.6,171.4,156.3,171.8,158z"/>
			<path fill="#272525" d="M171.9,151.1c0.1,0.6,0.2,1.1,0.4,1.7c-0.5,0.1-1,0.1-1.5,0.2c0-0.1,0-0.1,0-0.2c-0.1,0-0.1,0-0.2,0
				c-0.1-0.5-0.2-1-0.3-1.6C170.8,151.2,171.3,151.1,171.9,151.1z"/>
			<path fill="#272525" d="M171.9,151.1c-0.6,0.1-1.2,0.1-1.7,0.2c-0.7-3.4-1.5-6.7-2.3-10.1c-0.1-0.5-0.3-1.1-0.4-1.6
				c0.6,0,1.2,0.1,1.8,0.1c0.2,0.8,0.4,1.7,0.6,2.5C170.6,145.1,171.3,148.1,171.9,151.1z"/>
			<path fill="#272525" d="M171.6,166.8c0.1,0.6,0.3,1.2,0.4,1.8c-7,4.2-15,7.6-22.9,8.3c-4.4,0.4-8.9-0.1-13.1-1.7
				c-1.8-0.7-3.4-1.6-5-2.8c-0.8-0.5-1.4-1.2-2.2-1.8c-0.9-0.9-1.9-1.6-3.1-2c-0.1-0.1-0.3-0.2-0.4-0.3c-0.2-0.4-0.3-0.8-0.5-1.1
				c3.4,0.9,6.5,4.4,9.4,5.9C147.2,179.8,160,172.8,171.6,166.8z"/>
			<path fill="#272525" d="M173.3,139.6c-0.9,0.1-1.8,0.1-2.7,0.1c-0.2-0.1-0.3-0.3-0.2-0.5C171.4,139.3,172.4,139.5,173.3,139.6z"
				/>
			<g>
				<defs>
					<path id="XMLID_8_" d="M169.8,157c0.7,3.2,1.1,6.5,1.8,9.8c-11.7,6-24.4,13-37.4,6.3c-2.9-1.5-5.9-5-9.4-5.9
						c-0.5-1.3-1.1-2.5-1.7-3.8c1.9-0.4,3.8-1.3,5.5-1.8c2.8-0.8,5.7-1.6,8.6-2.4c6.4-1.7,13-3.1,19.5-4.3c3.5-0.6,7.1-1.2,10.6-1.6
						c0.3,0,0.7-0.1,1-0.1c0.2,0,0.5-0.1,0.7-0.1C169.3,154.4,169.6,155.7,169.8,157z"/>
				</defs>
				<use xlink:href="#XMLID_8_"  overflow="visible" fill="#F1F1F2"/>
				<clipPath id="XMLID_10_">
					<use xlink:href="#XMLID_8_"  overflow="visible"/>
				</clipPath>
				<polyline clip-path="url(#XMLID_10_)" fill="#BBBCBF" points="163.4,149.4 169,180.7 181.7,171.9 174.1,144.6 163.4,149.4 				
					"/>
				<polyline clip-path="url(#XMLID_10_)" fill="#BBBCBF" points="158,151.4 161.8,179.7 163.1,175.9 159.3,149.3 156.9,153.1 
					159.3,147.6 				"/>
				<use xlink:href="#XMLID_8_"  overflow="visible" fill="none" stroke="#D0D1D3" stroke-miterlimit="10"/>
			</g>
			<path fill="#272525" d="M170.7,153c-0.1,0-0.1,0-0.2,0c0-0.1,0-0.1,0-0.2c0.1,0,0.1,0,0.2,0C170.7,152.8,170.7,152.9,170.7,153z"
				/>
			<path fill="#272525" d="M170.6,139.7c-0.4,0-0.8,0-1.3,0c0-0.2-0.1-0.4-0.1-0.6c0.4,0.1,0.8,0.1,1.3,0.2
				C170.3,139.3,170.4,139.6,170.6,139.7z"/>
			<path fill="#272525" d="M170.5,152.8c0,0.1,0,0.1,0,0.2c-0.5,0.1-1,0.1-1.5,0.2c0-0.1,0-0.1,0-0.2
				C169.5,152.9,170,152.9,170.5,152.8z"/>
			<path fill="#272525" d="M170.2,151.3c0.1,0.5,0.2,1,0.3,1.6c-0.5,0.1-1,0.1-1.5,0.2c0,0.1,0,0.1,0,0.2c-0.2,0-0.5,0.1-0.7,0.1
				c-0.2-0.6-0.5-1.1-0.7-1.7C168.4,151.5,169.3,151.3,170.2,151.3z"/>
			<path fill="#272525" d="M168.8,137.4c1.4,0.2,2.7,0.5,4,0.8c-1.3-0.1-2.6-0.1-3.9-0.2C168.9,137.8,168.8,137.6,168.8,137.4z"/>
			<path fill="#272525" d="M169.2,139c0,0.2,0.1,0.4,0.1,0.6c-0.6,0-1.2,0-1.8-0.1c-0.1-0.3-0.1-0.6-0.2-0.9
				C167.9,138.8,168.6,138.9,169.2,139z"/>
			<path fill="#272525" d="M168.9,138c0.1,0.3,0.2,0.7,0.3,1c-0.6-0.1-1.3-0.2-1.9-0.3c-0.1-0.2-0.1-0.5-0.2-0.7
				C167.7,138,168.3,138,168.9,138z"/>
			<g>
				<defs>
					<path id="XMLID_5_" d="M167.9,141.2c0.8,3.3,1.5,6.7,2.3,10.1c-0.9,0.1-1.8,0.2-2.6,0.3c-0.2,0-0.4,0-0.7,0.1
						c-3.3,0.4-6.6,0.9-9.9,1.5c-6.8,1.2-13.6,2.7-20.2,4.5c-3.3,0.9-6.6,1.9-9.9,3c-1.4,0.5-2.9,0.8-4.3,1.4
						c-5-10.6-11.1-20.7-16.6-31c-0.9-1.7-1.8-3.3-2.7-5c6.2,2.4,12.5,4.4,18.9,6c3.4,0.9,6.9,1.6,10.3,2.3c0,0.2,0,0.5,0,0.7
						c0.3,5,0.8,7.5,1.5,8.8c-0.1,0-0.2,0-0.3,0c-0.1,0-0.1,0.1,0,0.1c0.2,0.1,0.4,0.2,0.6,0.3c0.4,0.7,0.9,0.9,1.4,0.9
						c0.1,0,0.1,0,0.2,0c0.2,0,0.3,0,0.5-0.1c3.1,1.1,6.6,1.5,9.8,1.9c3.4,0.3,7.4,0.8,11,0.3c0,0,0.1,0,0.1,0c0,0,0.1,0,0.1,0
						c0.2,0,0.4-0.1,0.7-0.2c0.5-0.2,0.9-0.8,1.4-1.5c0.9-1.5,1.7-3.8,2.5-6.7c1.9,0.2,3.8,0.4,5.7,0.5
						C167.6,140.1,167.8,140.6,167.9,141.2z"/>
				</defs>
				<use xlink:href="#XMLID_5_"  overflow="visible" fill="#334A5D"/>
				<clipPath id="XMLID_11_">
					<use xlink:href="#XMLID_5_"  overflow="visible"/>
				</clipPath>
				<path clip-path="url(#XMLID_11_)" fill="#263846" d="M132.7,56.7c0,0,27.7,56.3,31.3,98s17.7-2.2,17.7-2.2L157.2,34.7
					L132.7,56.7z"/>
			</g>
			<path fill="#272525" d="M168.8,137.4c0,0.2,0.1,0.4,0.1,0.6c-0.6,0-1.2,0-1.8,0c-0.1-0.3-0.1-0.6-0.2-0.9
				C167.5,137.2,168.2,137.3,168.8,137.4z"/>
			<path fill="#272525" d="M168.3,153.3c-0.3,0-0.7,0.1-1,0.1c-0.1-0.6-0.3-1.2-0.4-1.7c0.2,0,0.4-0.1,0.7-0.1
				C167.8,152.1,168.1,152.7,168.3,153.3z"/>
			<path fill="#272525" d="M167.3,138.7c0.1,0.3,0.1,0.6,0.2,0.9c-1.9-0.1-3.8-0.3-5.7-0.5c0.2-0.8,0.4-1.6,0.6-2.4
				c1.5,0.1,3,0.3,4.5,0.5c0.1,0.3,0.1,0.6,0.2,0.9c-0.8,0-1.6,0-2.4,0.1c-0.1,0-0.1,0.1,0,0.1C165.5,138.3,166.4,138.5,167.3,138.7
				z"/>
			<path fill="#272525" d="M167.1,138c0.1,0.2,0.1,0.5,0.2,0.7c-0.9-0.2-1.8-0.3-2.6-0.5c-0.1,0-0.1-0.1,0-0.1
				C165.5,138,166.3,138,167.1,138z"/>
			<path fill="#272525" d="M166.9,151.6c0.1,0.6,0.3,1.2,0.4,1.7c-3.5,0.5-7.1,1-10.6,1.6c-6.6,1.1-13.1,2.6-19.5,4.3
				c-2.9,0.8-5.7,1.6-8.6,2.4c-1.7,0.5-3.6,1.4-5.5,1.8c-0.2-0.5-0.4-0.9-0.6-1.4c1.4-0.6,2.9-1,4.3-1.4c3.3-1.1,6.6-2.1,9.9-3
				c6.7-1.8,13.4-3.3,20.2-4.5C160.2,152.6,163.5,152.1,166.9,151.6z"/>
			<path fill="#272525" d="M166.3,93.8c0.3,6,0,13.9-0.8,22.2c-0.2,1.8-0.4,3.9-0.7,6.1c-0.4-1.3-0.7-2.7-1.1-4
				c0.1-0.7,0.2-1.5,0.2-2.2c0.9-9.8,1-17.3,0.7-22.5c0.5,0,1.1,0.1,1.6,0.1C166.3,93.6,166.3,93.7,166.3,93.8z"/>
			<path fill="#272525" d="M166.3,93.5c-0.5,0-1.1-0.1-1.6-0.1c0-0.6-0.1-1.2-0.1-1.8c0.5,0,1.1,0.1,1.6,0.1
				C166.2,92.2,166.2,92.8,166.3,93.5z"/>
			<path fill="#272525" d="M166.2,91.7c-0.5,0-1.1-0.1-1.6-0.1c-0.3-3.9-0.9-6.1-1.5-6.3l0-0.1c0.7,0.1,1.3,0.3,2,0.4
				C165.5,86.6,165.9,88.5,166.2,91.7z"/>
			<path fill="#272525" d="M163.7,118.1c0.4,1.3,0.7,2.7,1.1,4c-0.2,1.5-0.4,3-0.6,4.5c-0.3-1.3-0.7-2.6-1-3.8
				C163.4,121.2,163.6,119.7,163.7,118.1z"/>
			<path fill="#DD882F" d="M164.7,93.3c0.3,5.2,0.2,12.7-0.7,22.5c-0.1,0.8-0.1,1.5-0.2,2.2c-0.2,1.6-0.3,3.2-0.5,4.7
				c-0.7,5.6-1.5,10.2-2.4,13.7c-0.2,0.9-0.4,1.6-0.6,2.4c-1,3.7-1.9,6-2.6,6.7c-0.2,0-0.4,0-0.6,0c-0.6,0-1.1,0-1.7,0
				c-2.6,0-5.2,0.3-7.8,0.1c-3.4-0.2-6.8-0.9-10.2-1.3v0c0.9-1.2,1.9-3.6,3.1-8.4c0,0,0,0,0,0c0.2-0.6,0.3-1.3,0.5-2
				c1.2-5.6,2.3-12.5,3-20c0.8-8.3,1.1-16.2,0.8-22.2c0-0.3,0-0.6-0.1-0.9c0-0.7-0.1-1.3-0.1-1.9c-0.3-3.4-0.8-5.2-1.4-6.3
				c2.5,0,5-0.1,7.6-0.1c0.6,0,1.2,0.1,1.8,0.1c0.2,0,0.4,0,0.6,0c2.8,0.3,5.6,1.2,8.3,1.9c0.6,0.1,1.1,0.3,1.7,0.4l0,0.1
				c0.6,0.2,1.2,2.4,1.5,6.3C164.6,92.1,164.7,92.7,164.7,93.3z"/>
			<path fill="#272525" d="M164,83.9c0.3,0.3,0.7,0.7,1,1.5c-0.7-0.1-1.3-0.2-2-0.4c-0.6-0.1-1.1-0.3-1.7-0.4
				c0.7-0.9,1.3-1.1,1.9-1.1c0.1,0,0.1,0,0.2,0c0,0,0.1,0,0.1,0c0,0,0,0,0.1,0C163.8,83.8,163.9,83.8,164,83.9
				C164,83.9,164,83.9,164,83.9z"/>
			<path fill="#272525" d="M163.2,122.7c0.3,1.3,0.7,2.6,1,3.8c-0.5,3.4-1.1,6.9-1.8,10c-0.5,0-1-0.1-1.6-0.1
				C161.7,132.9,162.5,128.3,163.2,122.7z"/>
			<path fill="#272525" d="M163.8,83.5c0.1,0.1,0.2,0.3,0.3,0.4c-0.1-0.1-0.3-0.2-0.4-0.2c0,0,0,0-0.1,0c0,0-0.1,0-0.1,0
				c-0.1,0-0.1,0-0.2,0c-0.5-0.1-1.2,0.1-1.9,1.1c-2.8-0.7-5.5-1.5-8.3-1.9c-0.2,0-0.4,0-0.6,0c-0.1-0.4-0.3-0.8-0.4-1.2
				c0.6,0.1,1.2,0.1,1.7,0.2C156.9,82,160.6,82.4,163.8,83.5z"/>
			<path fill="#272525" d="M164,83.9c-0.1-0.1-0.3-0.2-0.4-0.2C163.8,83.8,163.9,83.8,164,83.9z"/>
			<path fill="#272525" d="M163.6,83.7c0,0-0.1,0-0.1,0C163.5,83.7,163.5,83.7,163.6,83.7z"/>
			<path fill="#272525" d="M160.8,136.5c0.5,0,1,0.1,1.6,0.1c-0.2,0.8-0.4,1.7-0.6,2.4c-0.5-0.1-1-0.1-1.5-0.2
				C160.4,138.1,160.6,137.3,160.8,136.5z"/>
			<path fill="#272525" d="M160.2,138.9c0.5,0.1,1,0.1,1.5,0.2c-0.7,2.8-1.6,5.2-2.5,6.7c-0.5-0.1-1.1-0.1-1.7-0.1
				C158.3,144.8,159.3,142.6,160.2,138.9z"/>
			<path fill="#272525" d="M157.7,145.6c0.6,0,1.1,0.1,1.7,0.1c-0.4,0.7-0.9,1.2-1.4,1.5c-0.3,0.1-0.6,0.1-0.9,0.2
				c-0.6-0.1-1.2-0.5-1.7-1.8c0.6,0,1.1,0,1.7,0c0.1,0.1,0.2,0.2,0.3,0.3C157.4,145.8,157.5,145.7,157.7,145.6z"/>
			<path fill="#272525" d="M157,145.5c0.2,0,0.4,0,0.6,0c-0.1,0.1-0.2,0.2-0.3,0.2C157.2,145.8,157.1,145.7,157,145.5z"/>
			<path fill="#272525" d="M157,147.3c0.3,0,0.6-0.1,0.9-0.2c-0.2,0.1-0.4,0.2-0.7,0.2c0,0-0.1,0-0.1,0
				C157.1,147.4,157.1,147.4,157,147.3z"/>
			<path fill="#272525" d="M155.3,145.5c0.5,1.3,1.1,1.7,1.7,1.8c-3.6,0.5-7.6,0.1-11-0.3c-3.3-0.3-6.7-0.8-9.8-1.9
				c0.3-0.1,0.7-0.4,1.1-0.9c3.4,0.4,6.8,1.1,10.2,1.3C150.1,145.8,152.7,145.6,155.3,145.5z"/>
			<path fill="#272525" d="M152,81.5c0.2,0.4,0.3,0.8,0.4,1.2c-0.6-0.1-1.2-0.1-1.8-0.1c-0.1-0.4-0.3-0.9-0.5-1.3
				C150.8,81.4,151.4,81.5,152,81.5z"/>
			<path fill="#272525" d="M152,81.5c-0.6-0.1-1.2-0.1-1.8-0.2c-2.4-6.9-5-13.8-7.7-20.6c0.6,0.2,1.1,0.5,1.7,0.7
				C147,68.1,149.6,74.8,152,81.5z"/>
			<path fill="#272525" d="M150.2,81.4c0.2,0.4,0.3,0.9,0.5,1.3c-2.5-0.1-5,0.1-7.6,0.1c-0.4-0.7-0.8-1-1.2-1.1
				C144.6,81.1,147.4,81.2,150.2,81.4z"/>
			<g>
				<defs>
					<path id="XMLID_4_" d="M150.2,81.4c-2.8-0.2-5.6-0.2-8.3,0.2c-0.1,0-0.2,0-0.3-0.1c0,0-0.1,0-0.1,0c-0.3,0-0.6,0.1-0.9,0.4
						c-0.2,0.2-0.5,0.4-0.7,0.7c-0.8,1.1-1.6,2.8-2.3,5c-0.7-0.1-1.4-0.3-2.1-0.4c-13.4-3-27-7.7-36.6-18
						C88.5,58.1,84.2,44.4,81.7,30.1c3.7,2.1,7.4,4.1,11.1,6.2c11.4,6.3,22.9,12.3,34.7,17.8c5,2.3,10,4.6,15,6.7
						C145.2,67.6,147.8,74.5,150.2,81.4z"/>
				</defs>
				<use xlink:href="#XMLID_4_"  overflow="visible" fill="#334A5D"/>
				<clipPath id="XMLID_12_">
					<use xlink:href="#XMLID_4_"  overflow="visible"/>
				</clipPath>
				<path clip-path="url(#XMLID_12_)" fill="#263846" d="M132.7,56.7c0,0,27.7,56.3,31.3,98s17.7-2.2,17.7-2.2L157.2,34.7
					L132.7,56.7z"/>
			</g>
			<path fill="#272525" d="M144.7,91.7c0.3,6,0,13.9-0.8,22.2l-0.8-0.1l-0.8-0.1c1-10.2,1-18,0.7-23.2c0.5,0.1,1.1,0.2,1.6,0.3
				C144.6,91.1,144.7,91.4,144.7,91.7z"/>
			<path fill="#272525" d="M144.5,89c0.1,0.6,0.1,1.2,0.1,1.9c-0.5-0.1-1.1-0.2-1.6-0.3c-0.1-0.7-0.1-1.3-0.2-1.9
				C143.4,88.8,143.9,88.9,144.5,89z"/>
			<path fill="#272525" d="M144.5,89c-0.5-0.1-1.1-0.2-1.6-0.3c-0.3-3.4-0.9-5.3-1.4-5.6l0-0.4c0.5,0,1.1,0,1.6,0
				C143.7,83.7,144.2,85.6,144.5,89z"/>
			<path fill="#272525" d="M143.1,58.9c0.4,0.9,0.7,1.8,1.1,2.6c-0.6-0.2-1.1-0.5-1.7-0.7c-0.3-0.9-0.7-1.7-1-2.6
				C142,58.4,142.6,58.6,143.1,58.9z"/>
			<path fill="#272525" d="M143.1,113.9l0.8,0.1c-0.7,7.4-1.8,14.4-3,20c-0.5-0.1-1-0.2-1.5-0.3c1.1-4.9,2.2-11.5,3-19.8
				L143.1,113.9z"/>
			<path fill="#2D4C34" d="M143,90.6c0.4,5.2,0.3,13-0.7,23.2c-0.8,8.3-1.9,15-3,19.8c-0.2,0.7-0.3,1.4-0.5,2
				c-1.3,5.2-2.5,8-3.2,8.1c-0.7-0.3-1.4-3.4-1.7-9c1,0.2,2,0.4,3,0.6c-0.2,1-0.4,2-0.6,3c-0.1,0.3,0.4,0.4,0.5,0.1
				c0.3-1,0.6-2,0.8-3c0.2-0.7,0.3-1.3,0.5-2c1.7-6.9,2.8-14,3.4-21c0.4-4.5,0.6-9,0.7-13.5c0-2.7,0.2-5.7,0-8.5
				c0-0.6-0.1-1.3-0.2-1.9c-0.1-0.8-0.3-1.6-0.5-2.4c-0.1-0.3-0.6-0.3-0.6,0c-0.1,0.7-0.2,1.5-0.2,2.2c-0.6-0.1-1.2-0.2-1.8-0.3
				c0.9-3.1,1.8-4.7,2.3-4.8c0.5,0.2,1.1,2.1,1.4,5.6C142.9,89.3,143,89.9,143,90.6z"/>
			<path fill="#272525" d="M141.5,58.2c0.4,0.9,0.7,1.7,1,2.6c-5.1-2.1-10.1-4.4-15-6.7c-11.8-5.5-23.3-11.5-34.7-17.8
				c-3.7-2-7.4-4.1-11.1-6.2c-0.2-0.9-0.3-1.8-0.5-2.7c3.8,2.1,7.6,4.3,11.4,6.4c11.2,6.2,22.5,12.2,34,17.7
				C131.5,53.7,136.5,56,141.5,58.2z"/>
			<path fill="#272525" d="M142.4,90.4c0.2,2.8,0,5.8,0,8.5c-0.1,4.5-0.3,9-0.7,13.5c-0.6,7-1.7,14.1-3.4,21c-0.3,0-0.5-0.1-0.8-0.1
				c1.4-7.4,2.5-14.8,3.1-22.3c0.4-4.5,0.5-9,0.5-13.5c0-2.4-0.2-4.9-0.3-7.3C141.3,90.3,141.9,90.3,142.4,90.4z"/>
			<path fill="#272525" d="M142.4,90.4c-0.5-0.1-1-0.2-1.6-0.3c0-0.6,0-1.2,0-1.8c0.4,0.1,0.9,0.2,1.3,0.2
				C142.3,89.2,142.4,89.8,142.4,90.4z"/>
			<path fill="#272525" d="M142.2,88.6c-0.4-0.1-0.9-0.2-1.3-0.2c0-0.7,0.1-1.5,0.2-2.2c0.1-0.3,0.6-0.3,0.6,0
				C141.9,86.9,142.1,87.7,142.2,88.6z"/>
			<path fill="#272525" d="M141.9,81.6c0.4,0.1,0.8,0.4,1.2,1.1c-0.5,0-1.1,0-1.6,0c-0.5,0-1.1,0-1.6-0.1c0.2-0.3,0.5-0.5,0.7-0.7
				C141,81.8,141.4,81.7,141.9,81.6z"/>
			<path fill="#272525" d="M141.6,81.6c0.1,0,0.2,0,0.3,0.1c-0.5,0.1-0.9,0.2-1.3,0.3c0.3-0.2,0.6-0.4,0.9-0.4
				C141.5,81.6,141.6,81.6,141.6,81.6z"/>
			<path fill="#272525" d="M141.5,82.7l0,0.4c-0.5,0.1-1.4,1.7-2.3,4.8c-0.5-0.1-1-0.2-1.5-0.3c0.7-2.2,1.4-4,2.3-5
				C140.4,82.7,140.9,82.7,141.5,82.7z"/>
			<g>
				<defs>
					<path id="XMLID_6_" d="M140.8,90.2c0,2.4,0.3,4.9,0.3,7.3c0,4.5-0.2,9-0.5,13.5c-0.6,7.5-1.7,14.9-3.1,22.3
						c-1.2-0.2-2.3-0.4-3.5-0.7c-0.5-0.1-1.1-0.2-1.6-0.3c-0.7-0.1-1.3-0.3-2-0.4c-9.8-2.1-19.5-4.8-28.7-8.7
						c-1-0.4-1.9-0.8-2.9-1.3c-3.7-1.7-7.3-3.5-10.8-5.6C61.7,100.9,48.4,75,39.3,46.5C34.8,32.1,34,16.3,31.9,1.4
						c-0.2-1.2-0.3-2.4-0.5-3.6c-0.1-0.8-0.2-1.6-0.3-2.3c5.1-0.1,10.2-0.3,15.3-0.3c11-0.1,17.2-0.3,28.1-0.5c0.2,0,0.4,0,0.6,0
						c1.4,10.4,2.3,21,4,31.5c0.1,0.9,0.3,1.8,0.5,2.8c1.8,9.9,4.4,19.6,9,28.6c4.6,9,11.4,16.7,20.1,21.9c8.7,5.2,18.5,8,28.4,10
						c0.5,0.1,1,0.2,1.5,0.3c0.2,0,0.3,0.1,0.5,0.1C139.7,89.9,140.2,90,140.8,90.2z"/>
				</defs>
				<use xlink:href="#XMLID_6_"  overflow="visible" fill="#EFD49D"/>
				<clipPath id="XMLID_13_">
					<use xlink:href="#XMLID_6_"  overflow="visible"/>
				</clipPath>
				<path clip-path="url(#XMLID_13_)" fill="#D7A671" d="M75-15c0,0-20,91,56,104S86-46,86-46L75-15z"/>
				<path clip-path="url(#XMLID_13_)" fill="#D7A671" d="M143,123c0,0-64,4-102-67s-30,74-30,74l137,73L143,123z"/>
			</g>
			<path fill="#272525" d="M139.4,133.6c0.5,0.1,1,0.2,1.5,0.3c-0.1,0.7-0.3,1.3-0.5,2c-0.5-0.1-1-0.2-1.6-0.3
				C139.1,135,139.2,134.3,139.4,133.6z"/>
			<path fill="#272525" d="M139.1,88c0.6,0.1,1.2,0.2,1.8,0.3c0,0.6,0,1.2,0,1.8c-0.6-0.1-1.2-0.2-1.8-0.3c-0.2,0-0.3-0.1-0.5-0.1
				C138.8,89.1,138.9,88.5,139.1,88z"/>
			<path fill="#272525" d="M140.5,135.9C140.5,135.9,140.5,135.9,140.5,135.9c-1.2,4.9-2.2,7.3-3.1,8.4c-0.6-0.1-1.1-0.1-1.7-0.2
				l0-0.4c0.7-0.2,1.9-2.9,3.2-8.1C139.4,135.7,140,135.8,140.5,135.9z"/>
			<path fill="#272525" d="M137.6,87.6c0.5,0.1,1,0.2,1.5,0.3c-0.2,0.5-0.3,1.1-0.5,1.8c-0.5-0.1-1-0.2-1.5-0.3
				C137.2,88.8,137.4,88.2,137.6,87.6z"/>
			<path fill="#272525" d="M137.4,133.3c0.3,0,0.5,0.1,0.8,0.1c-0.2,0.7-0.3,1.3-0.5,2c-0.2,0-0.5-0.1-0.7-0.1
				C137.2,134.6,137.3,134,137.4,133.3z"/>
			<path fill="#272525" d="M137.1,135.3c0.2,0,0.5,0.1,0.7,0.1c-0.3,1-0.5,2-0.8,3c-0.1,0.3-0.5,0.2-0.5-0.1
				C136.7,137.3,136.9,136.3,137.1,135.3z"/>
			<path fill="#272525" d="M135.5,87.2c0.7,0.1,1.4,0.3,2.1,0.4c-0.2,0.6-0.3,1.2-0.5,1.8c-9.8-2-19.7-4.9-28.4-10
				c-8.8-5.2-15.5-12.8-20.1-21.9c-4.6-9-7.2-18.7-9-28.6c0.7,0.4,1.4,0.8,2.1,1.2c2.6,14.3,6.8,28,17.2,39.1
				C108.5,79.5,122.1,84.2,135.5,87.2z"/>
			<path fill="#272525" d="M137.4,133.3c-0.1,0.7-0.2,1.3-0.4,2c-1-0.2-2-0.4-3-0.6c0-0.7-0.1-1.4-0.1-2.1
				C135.1,132.9,136.3,133.1,137.4,133.3z"/>
			<path fill="#272525" d="M137.3,144.3L137.3,144.3c-0.4,0.5-0.8,0.8-1.1,0.9c-0.7-0.2-1.4-0.5-2.1-0.8c-0.1-0.1-0.1-0.2-0.2-0.4
				c0.6,0,1.1,0.1,1.7,0.1C136.2,144.2,136.8,144.2,137.3,144.3z"/>
			<path fill="#272525" d="M136.2,145.2c-0.2,0.1-0.4,0.1-0.5,0.1c-0.1,0-0.1,0-0.2,0c-0.4,0-0.9-0.2-1.4-0.9
				C134.8,144.7,135.5,145,136.2,145.2z"/>
			<path fill="#272525" d="M135.7,143.7l0,0.4c-0.6,0-1.1-0.1-1.7-0.1c-0.7-1.3-1.2-3.9-1.5-8.8c0-0.2,0-0.5,0-0.7
				c0.5,0.1,1.1,0.2,1.6,0.3C134.3,140.4,135,143.4,135.7,143.7z"/>
			<path fill="#272525" d="M133.9,144c0.1,0.1,0.1,0.3,0.2,0.4c-0.2-0.1-0.4-0.2-0.6-0.3c-0.1,0,0-0.1,0-0.1
				C133.7,144,133.8,144,133.9,144z"/>
			<path fill="#272525" d="M134,134.7c-0.5-0.1-1.1-0.2-1.6-0.3c0-0.7-0.1-1.4-0.1-2.1c0.5,0.1,1.1,0.2,1.6,0.3
				C134,133.4,134,134.1,134,134.7z"/>
			<path fill="#272525" d="M132.4,132.3c0,0.7,0,1.4,0.1,2.1c-3.5-0.7-6.9-1.4-10.3-2.3c-6.4-1.6-12.8-3.6-18.9-6
				c-0.5-1-1-1.9-1.5-2.9c9.2,3.9,18.9,6.6,28.7,8.7C131,132.1,131.7,132.2,132.4,132.3z"/>
			<path fill="#272525" d="M125.7,169.2c0.2,0.4-0.5,0.6-0.7,0.3c-0.3-0.5-0.6-0.9-0.9-1.4c0.4,0,0.8,0.1,1.3,0.3
				C125.4,168.7,125.6,168.9,125.7,169.2z"/>
			<path fill="#272525" d="M124.8,167.2c0.2,0.4,0.3,0.8,0.5,1.1c-0.5-0.2-0.9-0.3-1.3-0.3c-0.2-0.4-0.5-0.7-0.7-1.1
				C123.8,167,124.3,167.1,124.8,167.2z"/>
			<path fill="#272525" d="M123.3,167c0.2,0.4,0.5,0.7,0.7,1.1c-1.2,0.1-2.3,1.3-3.1,3.7c0,0,0,0.1,0,0.1c-2.3-1.4-2-3.7,0.5-4.5
				C122.1,167.1,122.7,167,123.3,167z"/>
			<path fill="#272525" d="M123.1,163.5c0.6,1.3,1.2,2.5,1.7,3.8c-0.5-0.1-1-0.2-1.5-0.2c-0.7-1.1-1.4-2.2-2.1-3.3
				C121.9,163.7,122.5,163.6,123.1,163.5z"/>
			<path fill="#272525" d="M122.5,162.1c0.2,0.5,0.4,0.9,0.6,1.4c-0.6,0.2-1.2,0.3-1.8,0.3c-0.2-0.3-0.3-0.5-0.5-0.8
				C121.3,162.6,121.9,162.3,122.5,162.1z"/>
			<path fill="#272525" d="M121.3,163.8c-0.4,0-0.9,0-1.3,0c0,0,0,0,0,0c0.3-0.3,0.5-0.5,0.8-0.7C121,163.3,121.1,163.5,121.3,163.8
				z"/>
			<path fill="#272525" d="M122.5,162.1c-0.6,0.2-1.1,0.5-1.7,0.9c-7.2-11.7-13.1-24.4-19.6-36.4c-0.3-0.5-0.6-1.1-0.9-1.6
				c1,0.4,1.9,0.8,2.9,1.2c0.9,1.7,1.8,3.3,2.7,5C111.4,141.3,117.4,151.5,122.5,162.1z"/>
			<path fill="#272525" d="M101.7,123.3c0.5,1,1,1.9,1.5,2.9c-1-0.4-1.9-0.8-2.9-1.2c-0.5-1-1.1-2-1.6-2.9
				C99.7,122.4,100.7,122.9,101.7,123.3z"/>
			<path fill="#272525" d="M98.7,122c0.5,1,1.1,2,1.6,2.9c-7-3-13.7-6.6-20-11c-11.8-8.3-20-19.1-27.8-31.2
				C36.8,58.2,32.2,28.2,30.1-1c0.6,0.8,1.3,1.6,1.9,2.4c2,14.9,2.8,30.7,7.4,45.1c9,28.4,22.4,54.4,48.6,69.9
				C91.5,118.5,95.1,120.3,98.7,122z"/>
			<path fill="#272525" d="M81.7,30.1c-0.7-0.4-1.4-0.8-2.1-1.2c-0.2-0.9-0.3-1.8-0.5-2.8c0.7,0.4,1.4,0.8,2.1,1.2
				C81.4,28.3,81.5,29.2,81.7,30.1z"/>
			<path fill="#272525" d="M81.2,27.4c-0.7-0.4-1.4-0.8-2.1-1.2c-1.7-10.5-2.6-21.1-4-31.5c0.4,0,0.7,0,1.1,0
				C78.4,5.3,79.4,16.5,81.2,27.4z"/>
			<path fill="#272525" d="M31.5-2.2c0.1,1.2,0.3,2.4,0.5,3.6c-0.6-0.8-1.3-1.6-1.9-2.4c-0.1-1-0.1-2.1-0.2-3.1
				C30.4-3.5,30.9-2.8,31.5-2.2z"/>
		</g>
		<g id="XMLID_24_">
			<path d="M27.1,229.2c-0.5,1.9-0.3,4.2,0.2,6.3c0.3,1.6,0.8,3.1,1.2,4.4c0.5,1.6,1.1,3.2,1.8,4.8c0.6,0.4,1.2,0.8,1.8,1.2
				c0.3,0.2,0.6,0.3,0.9,0.4c6,2.8,13.4,1.5,19.7,1.1c28-1.7,55.9-4.9,83.6-9.6c13.9-2.4,27.8-5.1,41.6-8.4c5-1.2,14.1-2.1,18.1-6.4
				c0.6-0.7,1.1-1.4,1.5-2.3c0-1.1-0.2-2.2-0.3-3.3c-0.1-0.9-0.2-1.7-0.4-2.5c-0.4-2.4-0.9-4.8-1.8-7.1c-0.1-0.2-0.2-0.4-0.3-0.6
				c-0.1-0.3-0.3-0.6-0.4-0.9l-1.2,0.5c0.2,0.9,0.3,1.9,0.5,2.8c-0.1,0.1-0.1,0.1-0.2,0.2l0.4,0.8c0.6,3.4,1.1,6.8,1.6,10.2
				c-2.6,2.7-7.1,3.3-10.9,4.1c-6.8,1.6-13.6,3.1-20.4,4.5c-23.8,5-47.9,8.8-72.1,11.5c-12.1,1.3-24.3,2.4-36.4,3.1
				c-5.8,0.4-12.2,1.4-17.9,0.3c-3.3-0.7-6-2.4-7.9-4.9c-0.5-1.7-0.8-3.5-1-5.3c0-0.3-0.1-0.6-0.1-1c-0.1-1.3,0-2.5-0.3-3.8
				L27.1,229.2z"/>
			<path d="M27.3,228.5c-0.1,0.2-0.1,0.4-0.2,0.7l1.1,0.2c0.8,1.3,1.8,2.4,3,3.2c0.7,0.5,1.3,0.9,2.1,1.2c0.6,0.3,1.3,0.5,1.9,0.7
				c1,0.3,2.1,0.5,3.2,0.7c0.6,0.1,1.3,0.1,1.9,0.2c5.4,0.3,11.3-0.7,15.6-1.1c3.2-0.3,6.4-0.6,9.6-0.9c0.9-0.1,1.7-0.2,2.6-0.3
				c0.7-0.1,1.4-0.1,2.1-0.2c0.5,0,1-0.1,1.4-0.1c20.9-2.2,41.7-5,62.4-8.4c7.5-1.2,15-2.5,22.4-3.9c0.5-0.1,1-0.2,1.5-0.3
				c0.6-0.1,1.2-0.2,1.8-0.4c0.6-0.1,1.1-0.2,1.7-0.3c3.8-0.7,7.5-1.5,11.3-2.3c5.5-1.1,11.4-1.9,16.7-3.8c0.7-0.3,1.5-0.6,2.2-1
				l-0.5-0.8c-3.7,1.9-9.2,2.3-12.2,2.9c-5.8,1.2-11.7,2.4-17.5,3.5c0.1-7.6,1.8-14.7,6.1-21.5c4.4-7,10.6-12,17.4-16.3l-0.3-0.9
				c-7.6,4-14.2,10.2-18.6,17.4c-3.8,6.2-6.4,14-6.3,21.6c-0.6,0.1-1.1,0.2-1.7,0.3c0.4-8.8,2.5-17.1,7.4-24.8
				c4.8-7.5,11.3-12.4,18.7-16.6l-0.3-1c-8,3.5-14.9,10.3-19.5,17.4c-4.7,7.3-7.7,16.4-7.8,25.2c-21.3,4-42.7,7.3-64.2,10
				c-7,0.9-14.1,1.7-21.1,2.4c-0.4-1.5-0.7-3.1-0.6-4.7c0.2-4,2.7-6.9,5.7-9.4c0.8-0.7,1.6-1.3,2.4-1.9c0.4,0.4,0.7,0.7,1.1,1.1
				c-0.3,0.8-0.4,1.6-0.2,2.4c0.4,2.8,3,4.7,5.8,4.2c2.8-0.4,4.7-3,4.2-5.8c-0.4-2.8-3-4.7-5.8-4.2c-0.2,0-0.4,0.1-0.6,0.1
				c-0.2-0.2-0.3-0.4-0.5-0.6l-0.8,0.5c0.1,0.1,0.3,0.3,0.4,0.4l0,0c0.3,0.3,0.6,0.7,1,1c0.1,0.1,0.3,0.3,0.4,0.4
				c-0.9,0.2-1.6,0.8-2,1.6c-0.1-0.2-0.3-0.3-0.4-0.4c-0.3-0.3-0.6-0.7-0.9-1c-0.2-0.2-0.4-0.4-0.6-0.6c-0.3-0.3-0.7-0.7-1-1
				c-0.3-0.3-0.6-0.6-0.9-0.9c-0.7-0.7-1.4-1.4-2.1-2.2c-0.6-0.6-1.1-1.2-1.6-1.8c-1.3-1.6-2.5-3.4-3.8-5.1
				c-0.6-0.8-1.1-1.6-1.7-2.4c-0.2-0.2-0.3-0.4-0.5-0.6c0.3-0.2,0.6-0.5,1-0.7c0.4-0.2,0.9-0.4,1.4-0.5c0.1,0.2,0.2,0.4,0.3,0.5
				c0.5,0.8,1.1,1.6,1.7,2.4c1.2,1.6,2.5,3.1,3.7,4.6c0.5,0.7,1.1,1.3,1.7,2l0.8-0.5c-0.5-0.6-0.9-1.1-1.3-1.7
				c-1.3-1.6-2.5-3.4-3.7-5.2c1.4-0.8,2.7-1.6,4-2.5c1.6,1.5,3.3,3,4.8,4.3c0.6,0.5,1.2,1.1,1.8,1.6l0.7-0.8c-0.5-0.4-1-0.9-1.5-1.3
				c-1.6-1.4-3.1-3.1-4.6-4.7c-0.7-0.7-1.4-1.5-2.1-2.2c-0.1-0.1-0.3-0.3-0.4-0.4c0.4-0.3,0.7-0.6,1.1-0.8c0.2-0.1,0.4-0.2,0.5-0.3
				c0.1,0.1,0.3,0.3,0.4,0.4c0.7,0.7,1.5,1.4,2.3,2.1c1.4,1.2,2.9,2.4,4.2,3.6c0.9,0.8,1.8,1.6,2.7,2.5c0.7,0.7,1.5,1.4,2.2,2
				c0.3,0.3,0.6,0.6,0.9,0.9c0.4,0.4,0.8,0.8,1.3,1.1c0.2,0.2,0.4,0.4,0.6,0.5c0.3,0.3,0.7,0.6,1.1,0.9c0.2,0.1,0.3,0.3,0.5,0.4
				c-0.7,0.3-1.2,0.7-1.6,1.3c-0.2-0.1-0.3-0.2-0.4-0.4c-0.3-0.2-0.6-0.5-0.9-0.7l-0.6,0.8c-0.3,0.8-0.5,1.8-0.3,2.7
				c0.4,2.8,3,4.7,5.8,4.2c2.8-0.4,4.7-3,4.2-5.8c-0.1-0.9-0.5-1.6-1-2.3c-1.1-1.4-2.9-2.2-4.8-1.9c-0.3,0-0.6,0.1-0.9,0.2
				c-0.2-0.2-0.4-0.4-0.7-0.7c0.2-0.2,0.5-0.3,0.7-0.5c1.2-0.8,2.4-1.6,3.6-2.5c0.4,0.3,0.8,0.5,1.2,0.7l0.5-0.8
				c-0.3-0.2-0.6-0.4-0.8-0.6c-0.5-0.3-1-0.7-1.5-1c-0.3-0.2-0.7-0.5-1-0.7c-0.8-0.6-1.6-1.2-2.4-1.8c-0.5-0.3-0.9-0.7-1.4-1.1
				c-2-1.6-3.8-3.5-5.7-5.3c-0.7-0.7-1.5-1.4-2.2-2.1c-0.1-0.1-0.3-0.3-0.4-0.4c0.6-0.6,1.2-1.2,2-1.6L85,188
				c-0.9,0.4-1.6,1-2.3,1.7c-0.3,0.3-0.5,0.6-0.8,0.9c0.3,0.3,0.5,0.7,0.8,1c0,0,0.1,0.1,0.1,0.1c-0.9,0.7-1.9,1.4-2.8,2.1
				c-0.1-0.1-0.2-0.2-0.3-0.2c-0.3-0.3-0.7-0.6-1-0.8c-0.5,0.2-1,0.5-1.4,0.7c-0.1,0.1-0.2,0.1-0.3,0.2c-0.4,0.2-0.9,0.6-1.4,0.9
				c-0.3,0.3-0.7,0.5-1,0.8c0.3,0.3,0.6,0.7,0.9,1c0.1,0.1,0.2,0.2,0.2,0.3c-1.2,0.8-2.4,1.5-3.6,2.3c-0.1-0.1-0.2-0.2-0.2-0.3
				c-0.2-0.3-0.5-0.6-0.7-0.9c-0.4,0-0.8,0.1-1.2,0.2c-0.9,0.2-1.7,0.7-2.5,1.2c-0.4,0.3-0.7,0.6-1,0.9c0.2,0.4,0.5,0.8,0.8,1.3
				c0.1,0.1,0.2,0.2,0.2,0.4c-0.3,0.2-0.6,0.3-0.8,0.4c-0.5,0.3-1.1,0.5-1.6,0.8c-0.4,0.2-0.8,0.4-1.2,0.6c-3.9,1.9-8,3.6-12.2,5
				c-5.2,1.7-10.7,2.4-15.8,4.2c-6.6,2.3-8.9,8.1-8.6,14.1c-0.1,0.2-0.1,0.4,0,0.6c0,0,0,0.1,0,0.1c0,0.3,0,0.6,0.1,0.9
				C27.3,228.4,27.3,228.5,27.3,228.5z M30.5,229.7c-0.8-4-0.9-8.1,2.1-11.4c2-2.2,5-3.3,8.1-4c2.5-0.6,5.2-1,7.4-1.6
				c6-1.7,11.9-4,17.5-6.8c0.4,0.5,0.9,1,1.3,1.5c-3.8,2.1-7.4,4.2-11.6,5.7c-2.8,1-5.8,1.7-8.7,2.2c-1.8,0.3-3.6,0.4-5.4,0.8
				c-0.5,0.1-1.1,0.3-1.6,0.4c-6.2,2.2-7.7,8.9-6.8,14.9C31.9,231.1,31.2,230.4,30.5,229.7z M34.8,232.5c-0.7-3.3-1.3-6.5,0.2-9.9
				c2.3-5.3,8-5.2,12.9-6.1c6.6-1.3,14.3-3.8,19.9-8.1c0.2,0.3,0.5,0.6,0.7,0.8c0.3,0.3,0.6,0.7,0.9,1c-3.7,1.8-7.3,3.5-11.2,4.9
				c-4.5,1.6-9.3,2.1-13.8,3.7c-6.1,2.3-7.5,8.7-6.4,14.5C36.9,233.2,35.8,232.9,34.8,232.5z M40,233.6c-0.8-3.3-1.4-6.7,0.6-9.9
				c2.5-4.2,7.9-4.3,12.2-5.5c6-1.6,11.9-4.1,17.2-7.4c0.7,0.8,1.5,1.6,2.3,2.4c-2.3,2.1-4.2,4.4-5.6,7.3c-1.7,3.4-2.5,7.6-1.5,11.3
				c-2.2,0.2-4.5,0.4-6.7,0.6c-5.6,0.5-11.4,1.3-17,1.3C40.9,233.7,40.4,233.6,40,233.6z M67.9,231.5c-1.3-6.9,1.9-12.1,6.7-16.4
				c0.1-0.1,0.2-0.2,0.4-0.3c0.6-0.5,1.2-1,1.9-1.5c0.3,0.3,0.5,0.6,0.8,0.9c-3.4,2.3-6.5,5.2-7.8,8.9c-0.9,2.7-0.8,5.6-0.1,8.3
				C69.1,231.4,68.5,231.4,67.9,231.5z M68,206.8c-0.4-0.5-0.7-1-1.1-1.5c0.8-0.4,1.6-0.8,2.3-1.2c0.4,0.5,0.8,1.1,1.3,1.6
				c0,0,0,0,0,0c0.8,1,1.6,1.9,2.3,2.8c0.2,0.2,0.4,0.4,0.5,0.6c0.5,0.6,1,1.2,1.5,1.8c-0.6,0.5-1.2,0.9-1.8,1.4
				c-0.7-0.8-1.4-1.5-2.2-2.2c-0.2-0.2-0.3-0.3-0.5-0.5c-0.5-0.5-1-1.1-1.5-1.6c-0.1-0.1-0.2-0.3-0.3-0.4
				C68.4,207.4,68.2,207.1,68,206.8z M80.9,218.5c-0.1-0.4-0.1-0.9,0-1.3c0.2,0.1,0.3,0.3,0.5,0.4c0,0.3,0,0.5,0,0.8
				c0.3,1.7,1.9,3,3.7,2.7c1.7-0.3,2.9-1.9,2.7-3.7c-0.2-1.5-1.5-2.6-3-2.7c-0.2-0.2-0.3-0.4-0.5-0.5c2-0.2,3.7,1.2,4,3.2
				c0.3,2.1-1.1,4-3.1,4.3S81.2,220.5,80.9,218.5z M82.8,218.6c-0.1-0.1-0.1-0.3-0.1-0.4c0-0.2,0-0.4,0-0.7c0.1-0.8,0.7-1.4,1.6-1.5
				c0.2,0,0.5,0,0.7,0c0.2,0.2,0.4,0.4,0.5,0.5c0.1,0.1,0.3,0.1,0.5,0.1c0.2,0.3,0.4,0.6,0.4,0.9c0.2,1-0.5,2-1.6,2.2
				C84,219.9,83.1,219.4,82.8,218.6z M82.3,195.9c0.9-0.7,1.9-1.3,2.8-2c1.9,1.8,4.1,3.4,5.9,4.8c0.5,0.4,1,0.8,1.5,1.2
				c-1.2,0.8-2.5,1.6-3.7,2.4c-0.7-0.6-1.4-1.3-2-1.9C85.3,199.1,83.8,197.4,82.3,195.9z M91.7,212.3c-0.1-0.6,0-1.2,0.1-1.7
				c0.2,0.1,0.3,0.2,0.5,0.3c-0.1,0.4-0.1,0.8-0.1,1.3c0.3,1.7,1.9,3,3.7,2.7c1.7-0.3,2.9-1.9,2.7-3.7c-0.2-1.6-1.7-2.8-3.3-2.7
				c-0.2-0.2-0.3-0.3-0.5-0.5c0,0,0,0,0,0c2-0.3,4,1.1,4.3,3.1s-1.1,4-3.1,4.3S92,214.4,91.7,212.3z M91.8,205.2
				c-0.3-0.3-0.6-0.6-0.9-0.8c0.3-0.2,0.7-0.4,1-0.7c1-0.6,2-1.3,2.9-2c0.3,0.2,0.7,0.5,1,0.7C94.5,203.3,93.2,204.2,91.8,205.2z
				 M93.5,212.1c0-0.1,0-0.1,0-0.2c0-0.3,0.1-0.6,0.2-0.9c0.3-0.5,0.8-0.9,1.4-1c0.2,0,0.3,0,0.5,0c0.5,0.1,1,0.3,1.3,0.8
				c0.2,0.2,0.3,0.5,0.3,0.8c0.2,1-0.5,2-1.6,2.2C94.7,213.8,93.7,213.1,93.5,212.1z"/>
			<path fill="#F7EFDD" d="M28.6,234.2c0.2,1.8,0.6,3.6,1,5.3c1.9,2.5,4.6,4.2,7.9,4.9c5.7,1.1,12.2,0,17.9-0.3
				c12.2-0.8,24.3-1.8,36.4-3.1c24.2-2.7,48.3-6.5,72.1-11.5c6.8-1.4,13.6-2.9,20.4-4.5c3.8-0.9,8.3-1.5,10.9-4.1
				c-0.5-3.4-1-6.8-1.6-10.2c-0.1,0.1-0.2,0.2-0.2,0.3c-0.3,0.4-0.7,0.7-1.2,1c-0.2,0.1-0.4,0.3-0.7,0.4c-0.7,0.4-1.4,0.7-2.2,1
				c-5.3,1.9-11.2,2.7-16.7,3.8c-3.8,0.8-7.5,1.5-11.3,2.3c-0.6,0.1-1.1,0.2-1.7,0.3c-0.6,0.1-1.2,0.2-1.8,0.4
				c-0.5,0.1-1,0.2-1.5,0.3c-7.5,1.4-14.9,2.7-22.4,3.9c-20.7,3.4-41.5,6.2-62.4,8.4c-0.5,0.1-1,0.1-1.4,0.1
				c-0.7,0.1-1.4,0.1-2.1,0.2c-0.9,0.1-1.7,0.2-2.6,0.3c-3.2,0.3-6.4,0.6-9.6,0.9c-4.3,0.4-10.2,1.4-15.6,1.1
				c-0.6,0-1.3-0.1-1.9-0.2c-1.1-0.1-2.2-0.4-3.2-0.7c-0.7-0.2-1.3-0.4-1.9-0.7c-0.7-0.3-1.4-0.7-2.1-1.2c-1.2-0.8-2.2-1.9-3-3.2
				c0.2,1.3,0.2,2.5,0.3,3.8C28.5,233.5,28.5,233.9,28.6,234.2z"/>
			<path fill="#F7EFDD" d="M32.6,218.3c-3,3.3-2.9,7.4-2.1,11.4c0.7,0.8,1.5,1.4,2.3,1.9c-0.9-6.1,0.5-12.8,6.8-14.9
				c0.5-0.2,1.1-0.3,1.6-0.4l-0.4-1.9C37.6,215,34.6,216.1,32.6,218.3z"/>
			<path fill="#F7EFDD" d="M35,222.7c-1.5,3.4-0.9,6.6-0.2,9.9c1,0.4,2.1,0.7,3.2,0.8c-1.1-5.8,0.2-12.3,6.4-14.5
				c4.4-1.7,9.3-2.2,13.8-3.7c3.9-1.3,7.6-3,11.2-4.9c-0.3-0.4-0.6-0.7-0.9-1c-0.2-0.3-0.5-0.5-0.7-0.8c-5.6,4.2-13.3,6.8-19.9,8.1
				C43,217.5,37.3,217.3,35,222.7z"/>
			<path fill="#F7EFDD" d="M40.5,223.7c-2,3.2-1.4,6.6-0.6,9.9c0.5,0,0.9,0.1,1.4,0.1c5.6,0.1,11.4-0.8,17-1.3
				c2.2-0.2,4.5-0.4,6.7-0.6c-1-3.7-0.2-7.8,1.5-11.3c1.4-2.8,3.3-5.2,5.6-7.3c-0.8-0.8-1.6-1.6-2.3-2.4c-5.3,3.3-11.2,5.7-17.2,7.4
				C48.4,219.4,43.1,219.6,40.5,223.7z"/>
			<path fill="#F7EFDD" d="M40.7,214.3l0.4,1.9c1.8-0.4,3.6-0.5,5.4-0.8c3-0.5,5.9-1.3,8.7-2.2c4.2-1.4,7.8-3.6,11.6-5.7
				c-0.4-0.5-0.9-1-1.3-1.5c-5.6,2.8-11.4,5.1-17.5,6.8C45.9,213.4,43.3,213.7,40.7,214.3z"/>
			<path fill="#DDDDEF" d="M74.6,215.1c-4.9,4.3-8.1,9.5-6.7,16.4c0.6-0.1,1.3-0.1,1.9-0.2c-0.8-2.7-0.9-5.6,0.1-8.3
				c1.3-3.7,4.4-6.6,7.8-8.9c-0.3-0.3-0.5-0.6-0.8-0.9c-0.7,0.5-1.3,1-1.9,1.5C74.8,214.9,74.7,215,74.6,215.1z"/>
			<path fill="#DDDDEF" d="M70.6,226.4c-0.1,1.6,0.2,3.2,0.6,4.7c7-0.7,14.1-1.5,21.1-2.4c21.5-2.7,42.9-6,64.2-10
				c0.1-8.9,3.1-17.9,7.8-25.2c4.5-7.1,11.5-13.8,19.5-17.4c-0.9-3-1.7-6.1-2.9-8.9c-0.1-0.2-0.2-0.4-0.3-0.5
				c-0.5-0.3-1.1-0.6-1.7-0.7c-2.2-0.6-5.1,1.7-6.8,2.7c-4.9,3-10.3,5.1-16,5.9c-5.8,0.9-11.6,0.5-17.3-0.9c-3.9-1-8.2-2.6-11.8,0.2
				c-1,0.8-1.8,1.7-2.7,2.7c0.1,0,0.2,0.1,0.3,0.1c0.7-0.5,1.5-0.9,2.3-1c2.8-0.4,5.4,1.5,5.8,4.3c0.4,2.8-1.5,5.4-4.2,5.8
				c-2.8,0.4-5.4-1.5-5.8-4.2c0-0.2,0-0.3,0-0.5c-0.4-0.1-0.9-0.3-1.3-0.4c-0.3,0.4-0.6,0.7-0.8,1.1c-1.2,1.4-2.4,2.8-3.6,4.2
				c0.3,0.1,0.6,0.3,0.9,0.4c0.1,0,0.2,0.1,0.2,0.1c0.7-0.7,1.6-1.1,2.7-1.3c2.8-0.4,5.4,1.5,5.8,4.2c0.4,2.8-1.5,5.4-4.2,5.8
				c-1.5,0.2-2.9-0.2-4-1.1l-1.7,0.6c0.8,0.8,1.5,1.8,1.6,3c0.4,2.8-1.5,5.4-4.3,5.8c-1.7,0.3-3.4-0.4-4.5-1.6l-1.1,0.2
				c0.7,0.7,1.1,1.6,1.3,2.7c0.4,2.8-1.5,5.4-4.2,5.8c-2,0.3-3.9-0.6-5-2.1l-1.1,0.3c0.5,0.7,0.8,1.4,1,2.3c0.4,2.8-1.5,5.4-4.2,5.8
				c-2.8,0.4-5.4-1.5-5.8-4.2c-0.1-1,0-1.9,0.3-2.7c-0.5-0.4-1-0.8-1.5-1.2c-2.1,1.3-4.3,2.5-6.4,3.8c0.2,0.2,0.3,0.4,0.5,0.6
				c0.2-0.1,0.4-0.1,0.6-0.1c2.8-0.4,5.4,1.5,5.8,4.2c0.4,2.8-1.5,5.4-4.2,5.8c-2.8,0.4-5.4-1.5-5.8-4.2c-0.1-0.8,0-1.7,0.2-2.4
				c-0.4-0.3-0.8-0.7-1.1-1.1c-0.8,0.6-1.6,1.2-2.4,1.9C73.3,219.5,70.8,222.4,70.6,226.4z"/>
			<path fill="#DDDDEF" d="M66.9,205.3c0.4,0.5,0.7,1,1.1,1.5c0.2,0.3,0.5,0.6,0.7,0.9c0.1,0.1,0.2,0.3,0.3,0.4
				c0.5,0.5,1,1.1,1.5,1.6c0.2,0.2,0.3,0.3,0.5,0.5c0.7,0.7,1.5,1.5,2.2,2.2c0.6-0.5,1.2-1,1.8-1.4c-0.5-0.6-1-1.2-1.5-1.8
				c-0.2-0.2-0.4-0.4-0.5-0.6c-0.8-0.9-1.6-1.8-2.3-2.8c0,0,0,0,0,0c-0.4-0.5-0.9-1.1-1.3-1.6C68.4,204.5,67.7,204.9,66.9,205.3z"/>
			<path fill="#F7EFDD" d="M68.4,200.3c0.2,0.2,0.3,0.4,0.5,0.6c0.6,0.8,1.1,1.6,1.7,2.4c1.2,1.7,2.4,3.5,3.8,5.1
				c0.5,0.6,1,1.2,1.6,1.8c0.7,0.7,1.4,1.4,2.1,2.2c0.3,0.3,0.6,0.6,0.9,0.9c0.3,0.3,0.7,0.7,1,1c0.2,0.2,0.4,0.4,0.6,0.6
				c0.3,0.3,0.6,0.7,0.9,1c0.1,0.1,0.3,0.3,0.4,0.4c0.4-0.8,1.1-1.3,2-1.6c-0.1-0.1-0.3-0.3-0.4-0.4c-0.3-0.3-0.7-0.7-1-1l0,0
				c-0.1-0.1-0.3-0.3-0.4-0.4c-0.3-0.3-0.6-0.7-0.9-1c-0.3-0.3-0.6-0.7-0.9-1c-0.7-0.7-1.3-1.5-1.9-2.2c-0.6-0.7-1.1-1.3-1.7-2
				c-1.2-1.5-2.5-3-3.7-4.6c-0.6-0.8-1.2-1.6-1.7-2.4c-0.1-0.2-0.2-0.3-0.3-0.5c-0.5,0.1-1,0.3-1.4,0.5
				C69,199.8,68.7,200,68.4,200.3z"/>
			<path fill="#DDDDEF" d="M73.9,201.4c1.2,1.7,2.4,3.5,3.7,5.2c0.4,0.6,0.9,1.1,1.3,1.7c0.3-0.2,0.5-0.3,0.8-0.5
				c1.6-1,3.1-1.9,4.7-2.8c-0.6-0.5-1.2-1.1-1.8-1.6c-1.5-1.4-3.2-2.8-4.8-4.3C76.6,199.7,75.3,200.6,73.9,201.4z"/>
			<path d="M79,208.2l-0.8,0.5c0.6,0.8,1.3,1.5,1.9,2.2c0.3,0.3,0.6,0.7,0.9,1c0.3,0.3,0.6,0.7,0.9,1l0.8-0.5
				c2.1-1.3,4.3-2.5,6.4-3.8c0.5,0.4,1,0.8,1.5,1.2l0.6-0.8c0,0-0.1-0.1-0.1-0.1c-0.4-0.3-0.7-0.6-1-0.8c-0.4-0.3-0.8-0.7-1.3-1
				c-0.4-0.3-0.7-0.6-1.1-0.9c-0.8-0.6-1.5-1.3-2.3-2c-0.1-0.1-0.2-0.1-0.2-0.2l-0.7,0.8c-1.6,0.9-3.1,1.9-4.7,2.8
				C79.6,207.8,79.3,208,79,208.2z M81.8,211.4c-0.3-0.3-0.6-0.7-0.9-1c2-1.3,4-2.5,5.9-3.6c0.4,0.3,0.7,0.6,1.1,0.9
				c-1.8,1.2-3.6,2.3-5.5,3.4C82.2,211.2,82,211.3,81.8,211.4z"/>
			<path fill="#F7EFDD" d="M76.6,195.5c0.1,0.1,0.3,0.3,0.4,0.4c0.7,0.7,1.4,1.4,2.1,2.2c1.5,1.6,3,3.2,4.6,4.7
				c0.5,0.4,1,0.9,1.5,1.3c0.1,0.1,0.2,0.1,0.2,0.2c0.8,0.7,1.5,1.3,2.3,2c0.4,0.3,0.7,0.6,1.1,0.9c0.4,0.3,0.8,0.7,1.3,1
				c0.4,0.3,0.7,0.6,1,0.8c0,0,0.1,0.1,0.1,0.1c0.3,0.2,0.6,0.5,0.9,0.7c0.1,0.1,0.3,0.2,0.4,0.4c0.4-0.6,0.9-1.1,1.6-1.3
				c-0.2-0.1-0.3-0.3-0.5-0.4c-0.4-0.3-0.7-0.6-1.1-0.9c-0.2-0.2-0.4-0.4-0.6-0.5c-0.4-0.4-0.8-0.8-1.3-1.1
				c-0.3-0.3-0.6-0.6-0.9-0.9c-0.7-0.7-1.5-1.4-2.2-2c-0.9-0.8-1.8-1.7-2.7-2.5c-1.3-1.2-2.7-2.3-4.2-3.6c-0.8-0.7-1.5-1.3-2.3-2.1
				c-0.1-0.1-0.3-0.3-0.4-0.4c-0.2,0.1-0.4,0.2-0.5,0.3C77.3,194.9,77,195.2,76.6,195.5z"/>
			<path fill="#DDDDEF" d="M80.9,210.4c0.3,0.3,0.6,0.7,0.9,1c0.2-0.1,0.4-0.2,0.6-0.4c1.9-1.1,3.7-2.3,5.5-3.4
				c-0.4-0.3-0.7-0.6-1.1-0.9C84.9,207.9,82.9,209.1,80.9,210.4z"/>
			<path fill="#596E92" d="M82.7,218.2c0,0.1,0.1,0.3,0.1,0.4c0.3,0.8,1.2,1.3,2,1.2c1-0.2,1.7-1.1,1.6-2.2
				c-0.1-0.4-0.2-0.7-0.4-0.9c-0.1,0.1-0.3,0.1-0.5-0.1c-0.2-0.2-0.4-0.4-0.5-0.5c-0.2-0.1-0.5-0.1-0.7,0c-0.8,0.1-1.4,0.7-1.6,1.5
				C82.7,217.8,82.7,218,82.7,218.2z"/>
			<path fill="#DDDDEF" d="M85,193.9c-0.9,0.7-1.8,1.4-2.8,2c1.5,1.5,3,3.2,4.4,4.5c0.7,0.6,1.3,1.3,2,1.9c1.2-0.8,2.5-1.6,3.7-2.4
				c-0.5-0.4-1-0.8-1.5-1.2C89.1,197.2,87,195.6,85,193.9z"/>
			<path fill="#F7EFDD" d="M83.6,190.5c0.1,0.1,0.3,0.3,0.4,0.4c0.8,0.7,1.5,1.4,2.2,2.1c1.9,1.8,3.7,3.7,5.7,5.3
				c0.4,0.4,0.9,0.7,1.4,1.1c0.8,0.6,1.6,1.2,2.4,1.8c0.3,0.2,0.7,0.5,1,0.7c0.5,0.3,1,0.7,1.5,1c0.3,0.2,0.6,0.4,0.8,0.6
				c0.3,0.2,0.6,0.4,0.9,0.6c0.4,0.3,0.8,0.5,1.2,0.7c0.2,0.1,0.3,0.2,0.5,0.3c0.2-0.9,0.7-1.6,1.5-2.1c-0.2-0.1-0.3-0.2-0.5-0.3
				c-0.4-0.3-0.7-0.5-1.1-0.8c-0.3-0.2-0.6-0.4-0.9-0.7c-0.5-0.3-0.9-0.7-1.4-1.1c-0.3-0.2-0.6-0.5-0.9-0.7
				c-0.8-0.6-1.5-1.2-2.3-1.8c-0.5-0.4-1-0.8-1.5-1.2c-2-1.6-4.1-3.3-6.1-5c-0.8-0.7-1.5-1.4-2.2-2.1c-0.2-0.2-0.3-0.3-0.4-0.5
				c-0.1,0-0.1,0.1-0.2,0.1C84.8,189.3,84.2,189.8,83.6,190.5z"/>
			<path d="M85,188l0.6,0.9c0.1,0,0.1-0.1,0.2-0.1c0.1,0.2,0.3,0.3,0.4,0.5c0.7,0.7,1.5,1.4,2.2,2.1c2,1.7,4.1,3.4,6.1,5
				c0.5,0.4,1,0.8,1.5,1.2c0.7,0.6,1.5,1.2,2.3,1.8c0.3,0.2,0.6,0.5,0.9,0.7c0.5,0.4,0.9,0.7,1.4,1.1c0.3,0.2,0.6,0.4,0.9,0.7
				c0.4,0.3,0.7,0.5,1.1,0.8c0.2,0.1,0.3,0.2,0.5,0.3c-0.7,0.5-1.3,1.2-1.5,2.1c-0.2-0.1-0.3-0.2-0.5-0.3c-0.4-0.2-0.8-0.5-1.2-0.7
				c-0.3-0.2-0.6-0.4-0.9-0.6l-0.5,0.8c0.4,0.2,0.8,0.5,1.2,0.7c-0.1,0.5-0.1,1,0,1.5c0.1,0.8,0.4,1.5,0.8,2.1c1.1,1.6,3,2.5,5,2.1
				c2.8-0.4,4.7-3,4.2-5.8c-0.2-1-0.6-2-1.3-2.7c-1.1-1.2-2.8-1.8-4.5-1.6c-0.6,0.1-1.2,0.3-1.7,0.6c-0.3-0.2-0.6-0.5-0.9-0.7
				c1.4-1.1,2.7-2.2,4.1-3.3c0.9,0.5,1.8,1,2.7,1.4c0,0.2,0,0.5,0.1,0.7c0.2,1,0.6,2,1.3,2.7c1.1,1.2,2.8,1.8,4.5,1.6
				c2.8-0.4,4.7-3,4.3-5.8c-0.2-1.2-0.8-2.3-1.6-3c-1.1-1-2.6-1.5-4.2-1.2c-0.8,0.1-1.5,0.4-2.2,0.9c-0.3-0.2-0.7-0.4-1-0.6
				c1.7-1.5,3.3-3.1,4.8-4.7c0.8,0.4,1.6,0.7,2.4,1c0,0.3,0,0.6,0.1,0.9c0.2,1.3,0.9,2.4,1.8,3.2c1.1,0.9,2.5,1.3,4,1.1
				c2.8-0.4,4.7-3,4.2-5.8c-0.4-2.8-3-4.7-5.8-4.2c-1,0.2-2,0.6-2.7,1.3c-0.1,0-0.2-0.1-0.2-0.1l-0.4,0.8c0.4,0.2,0.8,0.4,1.2,0.6
				c0.2,0.1,0.4,0.2,0.5,0.2c-0.5,0.5-0.9,1.3-0.9,2.1c-0.2-0.1-0.4-0.2-0.5-0.3c-0.4-0.2-0.8-0.4-1.2-0.6c-0.6-0.3-1.2-0.6-1.8-0.9
				c-0.5-0.2-0.9-0.4-1.3-0.7c-0.4-0.2-0.8-0.4-1.2-0.6c-0.9-0.4-1.7-0.9-2.6-1.3c-1-0.5-2-1.1-2.9-1.7c-1.9-1.2-3.8-2.5-5.6-3.9
				c-0.8-0.6-1.6-1.2-2.5-1.8c-0.1-0.1-0.3-0.2-0.4-0.3c0.2-0.2,0.3-0.5,0.5-0.7c0.4-0.5,0.9-1,1.4-1.4c0.2,0.2,0.3,0.3,0.5,0.5
				c0.7,0.7,1.5,1.3,2.3,1.9c1.8,1.4,3.8,2.7,5.5,3.8c0.5,0.3,1,0.7,1.5,1l0.5-0.8c-0.5-0.3-1-0.6-1.5-1c-1.8-1.2-3.6-2.5-5.3-3.9
				c1.3-1.3,2.4-2.7,3.5-4.1c2.1,1.4,4.3,2.6,6.5,3.7c0.4,0.2,0.8,0.4,1.2,0.6l0.5-0.9c-2.6-1.3-5-2.9-7.4-4.5
				c-0.8-0.6-1.6-1.1-2.5-1.7c-0.2-0.1-0.4-0.3-0.6-0.4c0.2-0.4,0.5-0.8,0.7-1.2c0.3-0.5,0.7-1,1.1-1.4l-0.9-0.2
				c-0.3,0.4-0.6,0.8-0.9,1.1c-0.2,0.3-0.5,0.7-0.8,1.2c-0.2,0.3-0.4,0.7-0.6,1.1c0.3,0.2,0.6,0.5,0.9,0.7c0.1,0.1,0.3,0.2,0.4,0.3
				c-1,1.4-2.2,2.6-3.3,3.9c-0.1-0.1-0.2-0.2-0.4-0.3c-0.2-0.2-0.4-0.4-0.7-0.6c-0.4,0.2-0.7,0.4-1,0.7c-0.6,0.4-1.1,1-1.5,1.4
				c-0.2,0.2-0.4,0.5-0.7,0.8c-0.3,0.3-0.5,0.7-0.7,1.1c0.3,0.3,0.6,0.5,1,0.8c0,0,0.1,0.1,0.1,0.1c-0.1,0.1-0.2,0.2-0.3,0.3
				c-0.3,0.3-0.6,0.6-0.9,0.8c-0.5,0.5-1.1,1-1.6,1.5c-0.4,0.4-0.9,0.8-1.3,1.2c-0.1-0.1-0.2-0.2-0.3-0.3c-0.3-0.2-0.5-0.4-0.8-0.7
				c-0.4,0.2-0.8,0.4-1.2,0.6c-0.7,0.4-1.4,1-2,1.7c-0.3,0.3-0.6,0.6-0.8,0.9c0.3,0.3,0.6,0.6,0.9,0.8c0.1,0.1,0.3,0.2,0.4,0.4
				c-0.8,0.7-1.7,1.4-2.6,2.1c-0.1-0.1-0.2-0.2-0.3-0.2c-0.3-0.2-0.6-0.4-0.9-0.7C85.6,187.7,85.3,187.8,85,188z M89.5,190.4
				c0.9-0.7,1.7-1.4,2.6-2.1c2.2,1.7,4.5,3.2,6.7,4.7c0.5,0.4,1.1,0.7,1.6,1.1c-0.6,0.5-1.3,1-1.9,1.5c-0.5,0.4-1.1,0.8-1.6,1.2
				c-0.4-0.3-0.8-0.7-1.2-1C93.5,194.1,91.5,192.2,89.5,190.4z M90.7,185.4c-0.2-0.2-0.4-0.3-0.6-0.5c0.3-0.3,0.6-0.6,0.9-0.9
				c0.3-0.3,0.6-0.5,1-0.7c0.2,0.2,0.4,0.3,0.5,0.5c0.7,0.7,1.5,1.3,2.4,1.9c1.8,1.3,3.7,2.6,5.3,3.7c1,0.7,2.1,1.4,3.1,2.1
				c0.8,0.5,1.7,1,2.5,1.5c0.4,0.2,0.8,0.4,1.1,0.7c0.5,0.3,0.9,0.5,1.4,0.8c0.3,0.2,0.7,0.4,1.1,0.5c0.4,0.2,0.8,0.4,1.2,0.6
				c0.2,0.1,0.4,0.2,0.5,0.3c-0.7,0.5-1.1,1.4-1.2,2.3c-0.2-0.1-0.4-0.2-0.5-0.3c-0.4-0.2-0.8-0.4-1.2-0.7c-0.6-0.3-1.2-0.7-1.9-1
				c-0.5-0.3-1-0.5-1.5-0.8c-0.4-0.2-0.8-0.4-1.1-0.6c-0.9-0.5-1.7-1-2.6-1.5c-0.6-0.4-1.3-0.8-1.9-1.2c-2.2-1.5-4.2-3.1-6.2-4.8
				C92.3,186.7,91.5,186.1,90.7,185.4z M95.9,184.9C95.9,184.9,95.9,184.9,95.9,184.9c1.4-1.3,2.9-2.6,4.3-3.9
				c2.2,1.5,4.4,2.8,6.5,4c0.8,0.4,1.5,0.9,2.3,1.3c-1.5,1.5-3.1,3-4.8,4.5c-1.3-0.8-2.6-1.6-3.8-2.5
				C98.8,187.2,97.3,186.1,95.9,184.9z M100,199.3c-0.3-0.2-0.6-0.5-0.9-0.7c1.3-1,2.5-2,3.8-3c0.4,0.2,0.7,0.4,1.1,0.7
				C102.7,197.3,101.4,198.3,100,199.3z M101,206.1c0-0.2,0-0.3,0-0.5c0.2,0.1,0.4,0.2,0.6,0.3c0,0,0,0.1,0,0.1
				c0.3,1.7,1.9,2.9,3.7,2.7s3-1.9,2.7-3.7c-0.3-1.7-1.9-3-3.7-2.7c-0.1,0-0.2,0-0.3,0.1c-0.2-0.1-0.3-0.3-0.5-0.4
				c0.2-0.1,0.5-0.2,0.7-0.2c2.1-0.3,4,1.1,4.3,3.1s-1.1,4-3.1,4.3C103.2,209.6,101.3,208.2,101,206.1z M102.9,205.9
				c0,0,0-0.1,0-0.1c-0.1-0.9,0.5-1.8,1.5-2c0,0,0.1,0,0.1,0c0.8-0.1,1.7,0.3,2,1.1c0.1,0.2,0.1,0.3,0.2,0.5c0.2,1-0.6,2-1.6,2.2
				c-0.4,0.1-0.8,0-1.2-0.2C103.3,206.9,102.9,206.5,102.9,205.9z M107.9,192.9c-0.4-0.2-0.8-0.4-1.2-0.7c1.6-1.5,3.3-3,4.8-4.6
				c0.4,0.2,0.8,0.4,1.2,0.6C111.2,189.9,109.5,191.5,107.9,192.9z M109.5,199.2c0.2,0.1,0.4,0.2,0.6,0.3c0.5,1.5,2,2.4,3.5,2.2
				c1.8-0.3,3-1.9,2.7-3.7c-0.3-1.7-1.9-3-3.7-2.7c-0.2,0-0.3,0.1-0.5,0.1c-0.2-0.1-0.4-0.2-0.6-0.3c0.3-0.1,0.6-0.3,1-0.3
				c2.1-0.3,4,1.1,4.3,3.1c0.3,2-1.1,4-3.1,4.3C111.8,202.5,109.9,201.1,109.5,199.2z M111.4,199c0-0.1,0-0.2-0.1-0.3
				c-0.1-1,0.5-1.9,1.4-2.1c0.1,0,0.1,0,0.2,0c0.5-0.1,1.1,0.1,1.5,0.4c0.4,0.3,0.6,0.7,0.7,1.2c0.2,1-0.6,2-1.6,2.2
				c-0.1,0-0.3,0-0.4,0C112.4,200.3,111.7,199.8,111.4,199z M117.9,190.7c0,0,0-0.1,0-0.1c0.2,0.1,0.4,0.1,0.6,0.2
				c0.3,1.7,1.9,2.8,3.6,2.5c1.7-0.3,2.9-1.9,2.7-3.7c-0.3-1.7-1.9-2.9-3.7-2.7c-0.4,0.1-0.7,0.2-1,0.3c-0.2-0.1-0.4-0.2-0.6-0.3
				c0.5-0.3,1-0.5,1.6-0.6c2-0.3,4,1.1,4.3,3.1c0.3,2.1-1.1,4-3.1,4.3C120.1,194.1,118.2,192.7,117.9,190.7z M119.8,190.7
				c0-0.1-0.1-0.2-0.1-0.3c-0.1-0.8,0.3-1.5,0.9-1.9c0.2-0.1,0.4-0.2,0.7-0.2c0.7-0.1,1.4,0.2,1.8,0.8c0.2,0.2,0.3,0.5,0.3,0.8
				c0.2,1-0.5,2-1.6,2.2c-0.7,0.1-1.3-0.2-1.8-0.7C119.9,191.1,119.8,190.9,119.8,190.7z"/>
			<path fill="#DDDDEF" d="M90.9,204.3c0.3,0.3,0.6,0.6,0.9,0.8c1.4-0.9,2.7-1.8,4.1-2.8c-0.3-0.2-0.7-0.5-1-0.7c-1,0.7-2,1.3-2.9,2
				C91.6,203.9,91.2,204.1,90.9,204.3z"/>
			<path fill="#596E92" d="M93.5,211.9c0,0.1,0,0.1,0,0.2c0.2,1,1.1,1.7,2.2,1.6c1-0.2,1.7-1.1,1.6-2.2c0-0.3-0.2-0.6-0.3-0.8
				c-0.3-0.4-0.8-0.7-1.3-0.8c-0.2,0-0.3,0-0.5,0c-0.6,0.1-1.2,0.5-1.4,1C93.6,211.2,93.5,211.5,93.5,211.9z"/>
			<path fill="#DDDDEF" d="M93,206.3c0.2,0.2,0.5,0.4,0.7,0.7c0.3-0.1,0.6-0.2,0.9-0.2c1.9-0.3,3.7,0.5,4.8,1.9l1.1-0.3
				c-0.4-0.6-0.7-1.3-0.8-2.1c-0.1-0.5-0.1-1,0-1.5c-0.4-0.2-0.8-0.5-1.2-0.7c-0.4-0.2-0.8-0.5-1.2-0.7c-1.2,0.8-2.4,1.7-3.6,2.5
				C93.5,206,93.3,206.2,93,206.3z"/>
			<path fill="#DDDDEF" d="M92,188.3c-0.9,0.7-1.7,1.4-2.6,2.1c2.1,1.8,4.1,3.7,6.2,5.4c0.4,0.3,0.8,0.7,1.2,1
				c0.5-0.4,1.1-0.8,1.6-1.2c0.7-0.5,1.3-1,1.9-1.5c-0.5-0.4-1.1-0.7-1.6-1.1C96.6,191.5,94.2,190,92,188.3z"/>
			<path fill="#F7EFDD" d="M90.1,184.9c0.2,0.2,0.4,0.3,0.6,0.5c0.8,0.6,1.6,1.3,2.4,1.9c2,1.7,4.1,3.3,6.2,4.8
				c0.6,0.4,1.2,0.8,1.9,1.2c0.8,0.5,1.7,1,2.6,1.5c0.4,0.2,0.8,0.4,1.1,0.6c0.5,0.3,1,0.5,1.5,0.8c0.6,0.3,1.2,0.7,1.9,1
				c0.4,0.2,0.8,0.4,1.2,0.7c0.2,0.1,0.3,0.2,0.5,0.3c0.1-0.9,0.5-1.7,1.2-2.3c-0.2-0.1-0.4-0.2-0.5-0.3c-0.4-0.2-0.8-0.4-1.2-0.6
				c-0.4-0.2-0.7-0.4-1.1-0.5c-0.5-0.3-1-0.5-1.4-0.8c-0.4-0.2-0.8-0.4-1.1-0.7c-0.8-0.5-1.7-1-2.5-1.5c-1.1-0.7-2.1-1.4-3.1-2.1
				c-1.6-1.1-3.5-2.3-5.3-3.7c-0.8-0.6-1.6-1.2-2.4-1.9c-0.2-0.2-0.4-0.3-0.5-0.5c-0.3,0.2-0.7,0.4-1,0.7
				C90.7,184.3,90.4,184.6,90.1,184.9z"/>
			<path fill="#DDDDEF" d="M95.9,184.9C95.9,184.9,95.9,184.9,95.9,184.9c1.4,1.2,2.9,2.3,4.4,3.4c1.3,0.9,2.5,1.7,3.8,2.5
				c1.6-1.4,3.2-2.9,4.8-4.5c-0.8-0.4-1.5-0.9-2.3-1.3c-2.1-1.2-4.4-2.5-6.5-4C98.7,182.3,97.3,183.6,95.9,184.9z"/>
			<path fill="#DDDDEF" d="M99.1,198.6c0.3,0.2,0.6,0.5,0.9,0.7c1.3-1,2.6-2,3.9-3.1c-0.4-0.2-0.7-0.4-1.1-0.7
				C101.6,196.6,100.4,197.6,99.1,198.6z"/>
			<path fill="#DDDDEF" d="M101.4,200.4c0.3,0.2,0.6,0.5,0.9,0.7c0.5-0.3,1.1-0.5,1.7-0.6c1.7-0.3,3.4,0.4,4.5,1.6l1.1-0.2
				c-0.7-0.7-1.1-1.6-1.3-2.7c0-0.2-0.1-0.5-0.1-0.7c-0.9-0.4-1.8-0.9-2.7-1.4C104.1,198.2,102.8,199.3,101.4,200.4z"/>
			<path fill="#F7EFDD" d="M98.2,178c0.1,0.1,0.3,0.2,0.4,0.3c0.8,0.6,1.6,1.2,2.5,1.8c1.8,1.4,3.6,2.7,5.6,3.9
				c1,0.6,1.9,1.1,2.9,1.7c0.9,0.5,1.7,0.9,2.6,1.3c0.4,0.2,0.8,0.4,1.2,0.6c0.4,0.2,0.9,0.4,1.3,0.7c0.6,0.3,1.2,0.6,1.8,0.9
				c0.4,0.2,0.8,0.4,1.2,0.6c0.2,0.1,0.4,0.2,0.5,0.3c0-0.8,0.4-1.5,0.9-2.1c-0.2-0.1-0.4-0.2-0.5-0.2c-0.4-0.2-0.8-0.4-1.2-0.6
				c-0.4-0.2-0.7-0.4-1.1-0.5c-0.4-0.2-0.9-0.4-1.3-0.7c-0.4-0.2-0.8-0.4-1.2-0.6c-0.8-0.5-1.7-0.9-2.5-1.4
				c-0.4-0.3-0.9-0.5-1.3-0.8c-0.5-0.3-1-0.7-1.5-1c-1.7-1.1-3.7-2.4-5.5-3.8c-0.8-0.6-1.6-1.3-2.3-1.9c-0.2-0.2-0.3-0.3-0.5-0.5
				c-0.5,0.4-1,0.9-1.4,1.4C98.6,177.5,98.4,177.7,98.2,178z"/>
			<path fill="#596E92" d="M102.8,205.7c0,0,0,0.1,0,0.1c0.1,0.6,0.5,1.1,1,1.4c0.4,0.2,0.8,0.3,1.2,0.2c1-0.2,1.7-1.1,1.6-2.2
				c0-0.2-0.1-0.4-0.2-0.5c-0.3-0.7-1.2-1.2-2-1.1c0,0-0.1,0-0.1,0C103.4,203.9,102.8,204.8,102.8,205.7z"/>
			<path fill="#DDDDEF" d="M106.7,192.3c0.4,0.2,0.8,0.4,1.2,0.7c1.7-1.5,3.3-3,4.9-4.6c-0.4-0.2-0.8-0.4-1.2-0.6
				C110,189.3,108.4,190.8,106.7,192.3z"/>
			<path fill="#F7EFDD" d="M105.1,170c0.2,0.1,0.4,0.3,0.6,0.4c0.8,0.6,1.6,1.2,2.5,1.7c2.4,1.6,4.8,3.2,7.4,4.5c0,0,0.1,0,0.1,0.1
				c0.5,0.2,0.9,0.4,1.4,0.6c0.9,0.4,1.8,0.7,2.7,1.1c0.3,0.1,0.7,0.2,1,0.4c0.5,0.2,1,0.4,1.5,0.6c0.2,0.1,0.4,0.1,0.5,0.2
				c0.4,0.1,0.8,0.3,1.3,0.5c0.2,0.1,0.4,0.1,0.5,0.2c0.1-0.9,0.7-1.7,1.5-2.2c-0.2-0.1-0.4-0.1-0.7-0.2c-0.4-0.1-0.9-0.3-1.3-0.5
				c0,0,0,0-0.1,0c-0.1,0-0.1,0-0.2-0.1c-0.5-0.2-1-0.4-1.5-0.6c-0.3-0.1-0.7-0.3-1-0.4c-0.8-0.3-1.6-0.7-2.4-1.1
				c-0.1,0-0.1-0.1-0.2-0.1c-1-0.5-2-1-2.9-1.5c-2-1.1-4.2-2.4-6.2-3.8c-0.8-0.6-1.7-1.2-2.4-1.9c-0.2-0.1-0.3-0.3-0.5-0.4
				c-0.4,0.5-0.8,0.9-1.1,1.4C105.5,169.2,105.3,169.6,105.1,170z"/>
			<path fill="#DDDDEF" d="M109.3,193.7c0.4,0.2,0.7,0.4,1,0.6c0.6-0.4,1.4-0.7,2.2-0.9c1.6-0.2,3.1,0.3,4.2,1.2l1.7-0.6
				c-0.9-0.8-1.6-1.9-1.8-3.2c0-0.3-0.1-0.6-0.1-0.9c-0.8-0.3-1.6-0.7-2.4-1C112.5,190.6,110.9,192.2,109.3,193.7z"/>
			<path fill="#DDDDEF" d="M107.4,173.2c-1.1,1.4-2.3,2.8-3.5,4.1c1.7,1.4,3.5,2.7,5.3,3.9c0.5,0.3,1,0.6,1.5,1
				c0.5,0.3,1,0.6,1.5,0.9c0.8-0.9,1.7-1.8,2.5-2.7c0.6-0.7,1.2-1.4,1.8-2.1c-0.4-0.2-0.9-0.4-1.3-0.7s-0.8-0.4-1.2-0.6
				C111.7,175.9,109.5,174.6,107.4,173.2z"/>
			<path d="M105.9,167.2l0.9,0.2c0.2,0.1,0.3,0.3,0.5,0.4c0.7,0.7,1.6,1.3,2.4,1.9c2,1.5,4.3,2.7,6.2,3.8c1,0.5,1.9,1.1,2.9,1.5
				c0.1,0,0.1,0.1,0.2,0.1l0.4-0.8c-1.2-0.6-2.3-1.2-3.4-1.8c-2-1.1-3.8-2.6-5.7-4c0.7-1.2,1.2-2.5,1.7-3.8c0.8-2.4,1.5-5.2,4-6.4
				c2.6-1.2,5.5,0,7.9,1.4c3.3,1.9,6.1,4.6,8.2,7.6l1.4-0.6c-4.3-6.9-13.7-15.3-20.6-9.1c-2.5,2.3-3.6,5.9-5.1,9.1
				c-0.1-0.1-0.2-0.1-0.3-0.2c-0.2-0.2-0.4-0.3-0.7-0.4c-0.2,0.2-0.5,0.4-0.7,0.7C106.1,166.9,106,167,105.9,167.2z"/>
			<path fill="#596E92" d="M111.4,198.7c0,0.1,0,0.2,0.1,0.3c0.2,0.8,0.9,1.3,1.7,1.3c0.1,0,0.3,0,0.4,0c1-0.2,1.7-1.1,1.6-2.2
				c-0.1-0.5-0.3-0.9-0.7-1.2c-0.4-0.3-0.9-0.5-1.5-0.4c-0.1,0-0.1,0-0.2,0C111.8,196.9,111.2,197.8,111.4,198.7z"/>
			<path d="M110.1,183c0.4,0.3,0.9,0.6,1.3,0.8c0.8,0.5,1.7,1,2.5,1.4c0.4,0.2,0.8,0.4,1.2,0.6c0.4,0.2,0.9,0.5,1.3,0.7
				c0.4,0.2,0.7,0.4,1.1,0.5l0.4-0.8c-0.3-0.1-0.6-0.3-0.9-0.4c1.2-1.4,2.4-2.8,3.6-4.2c0.3-0.3,0.6-0.7,0.8-1.1
				c0.4,0.2,0.9,0.3,1.3,0.4c0,0.2,0,0.3,0,0.5c0.4,2.8,3,4.7,5.8,4.2c2.8-0.4,4.7-3,4.2-5.8c-0.4-2.8-3-4.7-5.8-4.3
				c-0.9,0.1-1.7,0.5-2.3,1c-0.1,0-0.2-0.1-0.3-0.1l-0.3,0.7c0.4,0.2,0.9,0.3,1.3,0.5c0.2,0.1,0.4,0.2,0.7,0.2
				c-0.8,0.5-1.3,1.3-1.5,2.2c-0.2-0.1-0.3-0.1-0.5-0.2c-0.4-0.2-0.8-0.3-1.3-0.5c-0.2-0.1-0.4-0.1-0.5-0.2c-0.5-0.2-1-0.4-1.5-0.6
				c-0.3-0.1-0.7-0.2-1-0.4c-0.9-0.3-1.8-0.7-2.7-1.1c-0.5-0.2-0.9-0.4-1.4-0.6c0,0-0.1,0-0.1-0.1l-0.5,0.9c0.4,0.2,0.9,0.4,1.3,0.7
				c-0.6,0.7-1.2,1.4-1.8,2.1c-0.8,0.9-1.7,1.8-2.5,2.7c-0.5-0.3-1-0.6-1.5-0.9L110.1,183z M115.8,185.2c-0.4-0.2-0.8-0.4-1.2-0.6
				c1.5-1.6,3-3.3,4.4-5c0.3,0.2,0.7,0.3,1,0.4c-0.8,1.1-1.5,2.1-2.3,3C117.1,183.7,116.4,184.5,115.8,185.2z M124.1,181.4
				c0.2,0.1,0.4,0.1,0.6,0.1c0.4,1.6,2,2.6,3.6,2.3c1.7-0.3,3-1.9,2.7-3.7c-0.3-1.8-1.9-3-3.7-2.7c-0.1,0-0.2,0-0.3,0.1
				c-0.3-0.1-0.5-0.2-0.8-0.3c0.3-0.1,0.6-0.3,1-0.3c2.1-0.3,4,1.1,4.3,3.1c0.3,2-1.1,4-3.1,4.3
				C126.4,184.8,124.5,183.4,124.1,181.4z M126,181c0-0.1,0-0.2,0-0.3c0-0.9,0.7-1.8,1.6-1.9c1-0.2,2,0.6,2.2,1.6
				c0.2,1-0.6,2-1.6,2.2c-0.7,0.1-1.4-0.2-1.8-0.7C126.1,181.6,126,181.4,126,181z"/>
			<path fill="#DDDDEF" d="M112,164.8c-0.5,1.3-1,2.6-1.7,3.8c1.8,1.4,3.6,2.8,5.7,4c1.1,0.6,2.3,1.2,3.4,1.8
				c0.6-0.8,1.2-1.5,1.8-2.3c1.8-2.2,3.8-4.2,6.7-4.7c1.4-0.3,2.9-0.2,4.3,0c-2.2-3.1-4.9-5.8-8.2-7.6c-2.4-1.3-5.3-2.6-7.9-1.4
				C113.5,159.6,112.9,162.4,112,164.8z"/>
			<path fill="#DDDDEF" d="M114.6,184.5c0.4,0.2,0.8,0.4,1.2,0.6c0.7-0.7,1.3-1.4,1.9-2.2c0.8-0.9,1.5-1.9,2.3-3
				c-0.3-0.1-0.7-0.3-1-0.4C117.6,181.2,116.1,182.9,114.6,184.5z"/>
			<path fill="#596E92" d="M119.7,190.4c0,0.1,0,0.2,0.1,0.3c0.1,0.2,0.2,0.4,0.3,0.6c0.4,0.5,1.1,0.8,1.8,0.7
				c1-0.2,1.7-1.1,1.6-2.2c0-0.3-0.2-0.6-0.3-0.8c-0.4-0.6-1.1-0.9-1.8-0.8c-0.2,0-0.5,0.1-0.7,0.2
				C120,188.8,119.6,189.6,119.7,190.4z"/>
			<path d="M119.4,174.4l-0.4,0.8c0.8,0.4,1.6,0.7,2.4,1.1c0.3,0.1,0.7,0.3,1,0.4c0.5,0.2,1,0.4,1.5,0.6c0.1,0,0.1,0,0.2,0.1
				c0,0,0,0,0.1,0l0.3-0.7c0.8-1,1.7-2,2.7-2.7c3.6-2.8,7.9-1.2,11.8-0.2c5.6,1.4,11.5,1.8,17.3,0.9c5.7-0.9,11.1-2.9,16-5.9
				c1.7-1,4.6-3.3,6.8-2.7c0.6,0.2,1.2,0.4,1.7,0.7c0.1,0.2,0.2,0.3,0.3,0.5c1.3,2.8,2.1,6,2.9,8.9l0.3,1c0.2,0.7,0.4,1.3,0.6,2
				l0.3,0.9c2.9,10.1,5.3,20.4,7.2,30.8c-0.3,0.2-0.6,0.4-1,0.6l0.5,0.8c0.2-0.1,0.5-0.3,0.7-0.4c0.4-0.3,0.8-0.6,1.2-1
				c0.1-0.1,0.2-0.2,0.2-0.3l-0.4-0.8c-0.1-1-0.2-2-0.3-3l1.2-0.5c-0.2-0.3-0.3-0.6-0.5-0.9c-0.6-3.9-1.3-7.8-2.2-11.6
				c-1.1-5-2.3-10.4-3.8-15.5c-0.1-0.2-0.1-0.4-0.2-0.6c-0.2-0.7-0.5-1.5-0.7-2.2c-0.1-0.2-0.1-0.4-0.2-0.6c-0.5-1.4-1-2.8-1.6-4.1
				c0,0,0,0,0,0c-0.6-1.8-1.2-3.5-2-5.2c-2.8-5.7-7.7-5.3-12.6-2.4c-6.5,3.9-13.4,6.5-21.1,6.8c-4.4,0.2-8.6-0.5-12.8-1.6
				c-0.8-0.2-1.6-0.4-2.5-0.7c-0.2-0.4-0.4-0.7-0.7-1.1l-1.4,0.6c-1.4-0.2-2.8-0.3-4.3,0c-2.9,0.6-4.9,2.5-6.7,4.7
				C120.6,172.9,120,173.6,119.4,174.4z M123,176c-0.3-0.1-0.7-0.3-1-0.4c1.1-1.6,2.3-3.1,3.8-4.2c2.5-2,5.5-1.5,8.4-0.8
				c0,0,0,0,0,0.1c0.1,0.2,0.2,0.3,0.3,0.3c0,0,0.1,0,0.1,0c0,0,0.1,0,0.1,0c0.1,0,0.3-0.1,0.4-0.1c0.4,0.1,0.7,0.2,1.1,0.3
				c5.6,1.5,11.3,2,17,1.2c6.2-0.8,12-2.9,17.3-6.2c1.6-1,3.3-2.2,5.2-2.5c1.7-0.2,2.8,0.3,3.7,1.2c-1.9-0.3-4.2,0.3-6.5,1.7
				c-6.8,4-13.7,6.8-21.7,7.1c-4.5,0.2-8.8-0.5-13.1-1.6c-1.2-0.3-2.4-0.7-3.6-0.9c0,0-0.1,0-0.1,0c0,0-0.1,0-0.1,0
				c-1.4-0.3-2.7-0.4-4.1-0.2C127.4,171.4,125,173.5,123,176z"/>
			<path fill="#DDDDEF" d="M121.9,175.6c0.3,0.1,0.7,0.3,1,0.4c2-2.5,4.4-4.6,7.4-5c1.4-0.2,2.8,0,4.1,0.2c0,0,0.1,0,0.1,0
				c0,0,0.1,0,0.1,0l0.1-0.3c0,0-0.1,0-0.1,0c0,0-0.1,0-0.1,0c-0.1-0.1-0.3-0.2-0.3-0.3c0,0,0,0,0-0.1c-2.9-0.7-5.9-1.2-8.4,0.8
				C124.3,172.5,123.1,174,121.9,175.6z"/>
			<path fill="#596E92" d="M126,180.8c0,0.1,0,0.2,0,0.3c0,0.3,0.2,0.6,0.3,0.8c0.4,0.5,1.1,0.9,1.8,0.7c1-0.2,1.7-1.1,1.6-2.2
				c-0.2-1-1.1-1.7-2.2-1.6C126.6,179,125.9,179.8,126,180.8z"/>
			<path fill="#DDDDEF" d="M134.8,171l-0.1,0.3c1.2,0.3,2.4,0.6,3.6,0.9c4.3,1.1,8.6,1.8,13.1,1.6c8-0.3,14.9-3.1,21.7-7.1
				c2.3-1.4,4.5-2,6.5-1.7c-0.9-0.9-2-1.4-3.7-1.2c-2,0.2-3.6,1.4-5.2,2.5c-5.3,3.2-11.2,5.4-17.3,6.2c-5.7,0.7-11.4,0.3-17-1.2
				c-0.4-0.1-0.7-0.2-1.1-0.3C135,170.9,134.9,171,134.8,171z"/>
			<path fill="#DDDDEF" d="M158.1,218.5c0.6-0.1,1.1-0.2,1.7-0.3c-0.1-7.6,2.5-15.4,6.3-21.6c4.4-7.2,11.1-13.4,18.6-17.4
				c-0.2-0.7-0.4-1.3-0.6-2c-7.4,4.2-13.8,9.1-18.7,16.6C160.6,201.3,158.4,209.7,158.1,218.5z"/>
			<path fill="#DDDDEF" d="M167.6,196.3c-4.3,6.8-6,13.9-6.1,21.5c5.8-1.1,11.7-2.3,17.5-3.5c3-0.6,8.5-1,12.2-2.9
				c0.3-0.2,0.7-0.4,1-0.6c-1.9-10.4-4.3-20.7-7.2-30.8C178.2,184.3,172.1,189.4,167.6,196.3z"/>
		</g>
		<g>
			<g>
				<path d="M41.8,65.1c0.1,0,0.1-0.1,0-0.1C41.7,64.9,41.7,65.1,41.8,65.1L41.8,65.1z"/>
			</g>
		</g>
		<g>
			<g>
				<path d="M41.7,65.1c5.8,3,14.4-1.4,17.6-6.3c0.1-0.2-0.1-0.5-0.3-0.3c-2.6,1.9-5.5,3.7-8.5,4.8c-2.9,1-5.9,0.9-8.7,1.8
					C41.7,65,41.7,65,41.7,65.1L41.7,65.1z"/>
			</g>
		</g>
		<g>
			<g>
				<path d="M46.6,75.4c5.7,3.5,14.4-0.3,17.6-5.5c0.1-0.2-0.2-0.4-0.4-0.3c-2.5,2-5.3,3.8-8.4,4.6c-2.9,0.8-5.7,0.5-8.7,0.7
					C46.5,75,46.4,75.3,46.6,75.4L46.6,75.4z"/>
			</g>
		</g>
		<g>
			<g>
				<path d="M51.1,85c7,5.2,17.4,0.7,21.2-6.2c0.1-0.2-0.2-0.5-0.4-0.3c-2.6,2.6-5.8,5.2-9.4,6.2C58.7,85.8,55,85.1,51.1,85
					C51.1,85,51.1,85,51.1,85L51.1,85z"/>
			</g>
		</g>
	</g>
</g>
</svg>
