<svg version="1.1" xmlns="http://www.w3.org/2000/svg" xmlns:xlink="http://www.w3.org/1999/xlink" x="0px" y="0px"
	 viewBox="0 0 478.7 308.4" enable-background="new 0 0 478.7 308.4" xml:space="preserve">
<g id="bbq">
	<defs>
		<rect id="BBQSVGID_1_" width="478.7" height="308.4"/>
	</defs>
	<clipPath id="BBQSVGID_2_">
		<use xlink:href="#BBQSVGID_1_"  overflow="visible"/>
	</clipPath>
	<g id="bbq" clip-path="url(#BBQSVGID_2_)">
		<g>
			<g>

					<ellipse transform="matrix(0.2464 -0.9692 0.9692 0.2464 96.3881 482.9059)" fill="#1F1E26" cx="358.7" cy="179.5" rx="176.5" ry="176.5"/>
				<g>
					<defs>

							<ellipse id="BBQDXMLID_35_" transform="matrix(0.2464 -0.9692 0.9692 0.2464 96.3881 482.9059)" cx="358.7" cy="179.5" rx="153" ry="153"/>
					</defs>
					<use xlink:href="#BBQDXMLID_35_"  overflow="visible" fill="#1F1E26"/>
					<clipPath id="BBQDXMLID_2_">
						<use xlink:href="#BBQDXMLID_35_"  overflow="visible"/>
					</clipPath>
					<g clip-path="url(#BBQDXMLID_2_)">
						<defs>
							
								<rect id="BBQDXMLID_59_" x="-240.2" y="119.9" transform="matrix(-0.2464 0.9692 -0.9692 -0.2464 336.4858 -11.1778)" width="825.6" height="10.6"/>
						</defs>
						<use xlink:href="#BBQDXMLID_59_"  overflow="visible" fill="#7F2123"/>
						<clipPath id="BBQDXMLID_3_">
							<use xlink:href="#BBQDXMLID_59_"  overflow="visible"/>
						</clipPath>
						<polygon clip-path="url(#BBQDXMLID_3_)" fill="#A8272B" points="191.7,40.9 188.7,0.7 242,-50.8 245,-10.6 						"/>
						<polygon clip-path="url(#BBQDXMLID_3_)" fill="#30191A" points="156.5,113.4 171.9,64.1 199.9,79.3 184.5,128.6 						"/>
						<path clip-path="url(#BBQDXMLID_3_)" fill="#CC2229" d="M156.8,128.2L156.8,128.2c4.2-13.6,12.4-22.1,18.3-18.9l6.7,3.7
							c5.9,3.2,7.2,16.8,3,30.5l0,0c-4.2,13.6-12.4,22.1-18.3,18.9l-6.7-3.7C153.9,155.5,152.5,141.8,156.8,128.2z"/>
						<path clip-path="url(#BBQDXMLID_3_)" fill="#A8272B" d="M121.4,275.6l10-49.7c1.7-8.4,6.3-15.3,10.4-15.2l17.2,0.1
							c4,0,5.9,6.9,4.2,15.3l-10,49.7c-1.7,8.4-6.3,15.3-10.4,15.2l-17.2-0.1C121.6,290.9,119.7,284,121.4,275.6z"/>
						<polygon clip-path="url(#BBQDXMLID_3_)" fill="#591616" points="152.6,344.5 167.9,295.2 113.8,265.8 98.5,315.1 						"/>
						<polygon clip-path="url(#BBQDXMLID_3_)" fill="#591616" points="224.9,172.4 226.6,124.5 160.1,165.8 158.4,213.8 						"/>
						<polygon clip-path="url(#BBQDXMLID_3_)" fill="#611D19" points="197.4,46.3 199.1,-1.6 132.6,39.7 130.8,87.7 						"/>
					</g>
					<g clip-path="url(#BBQDXMLID_2_)">
						<defs>

								<rect id="BBQDXMLID_58_" x="-221.7" y="178" transform="matrix(-0.2464 0.9692 -0.9692 -0.2464 415.939 43.206)" width="825.6" height="10.6"/>
						</defs>
						<use xlink:href="#BBQDXMLID_58_"  overflow="visible" fill="#7F2123"/>
						<clipPath id="BBQDXMLID_4_">
							<use xlink:href="#BBQDXMLID_58_"  overflow="visible"/>
						</clipPath>
						<polygon clip-path="url(#BBQDXMLID_4_)" fill="#A8272B" points="210.3,99 207.3,58.8 260.5,7.2 263.6,47.4 						"/>
						<polygon clip-path="url(#BBQDXMLID_4_)" fill="#30191A" points="175.1,171.5 190.5,122.2 218.5,137.4 203.1,186.7 						"/>
						<path clip-path="url(#BBQDXMLID_4_)" fill="#CC2229" d="M175.3,186.3L175.3,186.3c4.2-13.6,12.4-22.1,18.3-18.9l6.7,3.7
							c5.9,3.2,7.2,16.8,3,30.5l0,0c-4.2,13.6-12.4,22.1-18.3,18.9l-6.7-3.7C172.4,213.5,171.1,199.9,175.3,186.3z"/>
						<path clip-path="url(#BBQDXMLID_4_)" fill="#A8272B" d="M140,333.6l10-49.7c1.7-8.4,6.3-15.3,10.4-15.2l17.2,0.1
							c4,0,5.9,6.9,4.2,15.3l-10,49.7c-1.7,8.4-6.3,15.3-10.4,15.2l-17.2-0.1C140.2,348.9,138.3,342.1,140,333.6z"/>
						<path clip-path="url(#BBQDXMLID_4_)" fill="#CC2229" d="M225.5-5.7L225.5-5.7c4.2-13.6,12.4-22.1,18.3-18.9l6.7,3.7
							c5.9,3.2,7.2,16.8,3,30.5l0,0c-4.2,13.6-12.4,22.1-18.3,18.9l-6.7-3.7C222.6,21.5,221.3,7.9,225.5-5.7z"/>
						<polygon clip-path="url(#BBQDXMLID_4_)" fill="#591616" points="243.4,230.5 245.2,182.5 178.7,223.9 176.9,271.8 						"/>
						<polygon clip-path="url(#BBQDXMLID_4_)" fill="#611D19" points="215.9,104.4 217.7,56.4 151.2,97.8 149.4,145.7 						"/>
					</g>
					<g clip-path="url(#BBQDXMLID_2_)">
						<defs>

								<rect id="BBQDXMLID_57_" x="-177.6" y="135.9" transform="matrix(-0.2464 0.9692 -0.9692 -0.2464 430.0068 -52.0438)" width="825.6" height="10.6"/>
						</defs>
						<use xlink:href="#BBQDXMLID_57_"  overflow="visible" fill="#7F2123"/>
						<clipPath id="BBQDXMLID_5_">
							<use xlink:href="#BBQDXMLID_57_"  overflow="visible"/>
						</clipPath>
						<polygon clip-path="url(#BBQDXMLID_5_)" fill="#A8272B" points="254.4,56.8 251.3,16.6 304.6,-34.9 307.6,5.3 						"/>
						<polygon clip-path="url(#BBQDXMLID_5_)" fill="#30191A" points="219.2,129.3 234.5,80 262.5,95.2 247.2,144.6 						"/>
						<path clip-path="url(#BBQDXMLID_5_)" fill="#CC2229" d="M219.4,144.1L219.4,144.1c4.2-13.6,12.4-22.1,18.3-18.9l6.7,3.7
							c5.9,3.2,7.2,16.8,3,30.5l0,0c-4.2,13.6-12.4,22.1-18.3,18.9l-6.7-3.7C216.5,171.4,215.2,157.8,219.4,144.1z"/>
						<path clip-path="url(#BBQDXMLID_5_)" fill="#A8272B" d="M184.1,291.5l10-49.7c1.7-8.4,6.3-15.3,10.4-15.2l17.2,0.1
							c4,0,5.9,6.9,4.2,15.3l-10,49.7c-1.7,8.4-6.3,15.3-10.4,15.2l-17.2-0.1C184.3,306.8,182.4,299.9,184.1,291.5z"/>
						<polygon clip-path="url(#BBQDXMLID_5_)" fill="#591616" points="215.2,360.4 230.6,311.1 176.5,281.7 161.1,331 						"/>
						<polygon clip-path="url(#BBQDXMLID_5_)" fill="#591616" points="287.5,188.4 289.3,140.4 222.8,181.7 221,229.7 						"/>
						<polygon clip-path="url(#BBQDXMLID_5_)" fill="#611D19" points="260,62.3 261.8,14.3 195.3,55.6 193.5,103.6 						"/>
					</g>
					<g clip-path="url(#BBQDXMLID_2_)">
						<defs>

								<rect id="BBQDXMLID_56_" x="-174.9" y="256.6" transform="matrix(-0.2464 0.9692 -0.9692 -0.2464 550.3259 95.8611)" width="825.6" height="10.6"/>
						</defs>
						<use xlink:href="#BBQDXMLID_56_"  overflow="visible" fill="#7F2123"/>
						<clipPath id="BBQDXMLID_6_">
							<use xlink:href="#BBQDXMLID_56_"  overflow="visible"/>
						</clipPath>
						<polygon clip-path="url(#BBQDXMLID_6_)" fill="#A8272B" points="257,177.5 254,137.3 307.3,85.8 310.3,126 						"/>
						<polygon clip-path="url(#BBQDXMLID_6_)" fill="#30191A" points="221.8,250.1 237.2,200.7 265.2,216 249.9,265.3 						"/>
						<path clip-path="url(#BBQDXMLID_6_)" fill="#CC2229" d="M222.1,264.9L222.1,264.9c4.2-13.6,12.4-22.1,18.3-18.9l6.7,3.7
							c5.9,3.2,7.2,16.8,3,30.5l0,0c-4.2,13.6-12.4,22.1-18.3,18.9l-6.7-3.7C219.2,292.1,217.8,278.5,222.1,264.9z"/>
						<path clip-path="url(#BBQDXMLID_6_)" fill="#CC2229" d="M272.2,72.9L272.2,72.9c4.2-13.6,12.4-22.1,18.3-18.9l6.7,3.7
							c5.9,3.2,7.2,16.8,3,30.5l0,0c-4.2,13.6-12.4,22.1-18.3,18.9l-6.7-3.7C269.3,100.1,268,86.5,272.2,72.9z"/>
						<polygon clip-path="url(#BBQDXMLID_6_)" fill="#591616" points="290.2,309.1 291.9,261.1 225.4,302.4 223.7,350.4 						"/>
						<polygon clip-path="url(#BBQDXMLID_6_)" fill="#611D19" points="262.7,183 264.4,135 197.9,176.3 196.2,224.3 						"/>
					</g>
					<g clip-path="url(#BBQDXMLID_2_)">
						<defs>

								<rect id="BBQDXMLID_54_" x="-111.8" y="139.3" transform="matrix(-0.2464 0.9692 -0.9692 -0.2464 515.3546 -111.6139)" width="825.6" height="10.6"/>
						</defs>
						<use xlink:href="#BBQDXMLID_54_"  overflow="visible" fill="#7F2123"/>
						<clipPath id="BBQDXMLID_7_">
							<use xlink:href="#BBQDXMLID_54_"  overflow="visible"/>
						</clipPath>
						<polygon clip-path="url(#BBQDXMLID_7_)" fill="#A8272B" points="320.2,60.2 317.2,20 370.4,-31.5 373.5,8.7 						"/>
						<polygon clip-path="url(#BBQDXMLID_7_)" fill="#30191A" points="285,132.7 300.4,83.4 328.4,98.6 313,148 						"/>
						<path clip-path="url(#BBQDXMLID_7_)" fill="#CC2229" d="M285.2,147.5L285.2,147.5c4.2-13.6,12.4-22.1,18.3-18.9l6.7,3.7
							c5.9,3.2,7.2,16.8,3,30.5v0c-4.2,13.6-12.4,22.1-18.3,18.9l-6.7-3.7C282.3,174.8,281,161.2,285.2,147.5z"/>
						<path clip-path="url(#BBQDXMLID_7_)" fill="#A8272B" d="M249.9,294.9l10-49.7c1.7-8.4,6.3-15.3,10.4-15.2l17.2,0.1
							c4,0,5.9,6.9,4.2,15.3l-10,49.7c-1.7,8.4-6.3,15.3-10.4,15.2l-17.2-0.1C250.1,310.2,248.2,303.3,249.9,294.9z"/>
						<polygon clip-path="url(#BBQDXMLID_7_)" fill="#591616" points="281,363.8 296.4,314.5 242.3,285.1 227,334.4 						"/>
						<polygon clip-path="url(#BBQDXMLID_7_)" fill="#591616" points="353.3,191.8 355.1,143.8 288.6,185.1 286.8,233.1 						"/>
						<polygon clip-path="url(#BBQDXMLID_7_)" fill="#611D19" points="325.8,65.7 327.6,17.7 261.1,59 259.3,107 						"/>
					</g>
					<g clip-path="url(#BBQDXMLID_2_)">
						<defs>

								<rect id="BBQDXMLID_44_" x="-83.6" y="159.8" transform="matrix(-0.2464 0.9692 -0.9692 -0.2464 570.2883 -113.3427)" width="825.6" height="10.6"/>
						</defs>
						<use xlink:href="#BBQDXMLID_44_"  overflow="visible" fill="#7F2123"/>
						<clipPath id="BBQDXMLID_8_">
							<use xlink:href="#BBQDXMLID_44_"  overflow="visible"/>
						</clipPath>
						<polygon clip-path="url(#BBQDXMLID_8_)" fill="#A8272B" points="348.3,80.7 345.3,40.5 398.6,-11 401.6,29.2 						"/>
						<polygon clip-path="url(#BBQDXMLID_8_)" fill="#30191A" points="313.1,153.2 328.5,103.9 356.5,119.1 341.2,168.5 						"/>
						<path clip-path="url(#BBQDXMLID_8_)" fill="#CC2229" d="M313.4,168L313.4,168c4.2-13.6,12.4-22.1,18.3-18.9l6.7,3.7
							c5.9,3.2,7.2,16.8,3,30.5v0c-4.2,13.6-12.4,22.1-18.3,18.9l-6.7-3.7C310.5,195.3,309.1,181.7,313.4,168z"/>
						<path clip-path="url(#BBQDXMLID_8_)" fill="#A8272B" d="M278.1,315.4l10-49.7c1.7-8.4,6.3-15.3,10.4-15.2l17.2,0.1
							c4,0,5.9,6.9,4.2,15.3l-10,49.7c-1.7,8.4-6.3,15.3-10.4,15.2l-17.2-0.1C278.3,330.7,276.4,323.8,278.1,315.4z"/>
						<path clip-path="url(#BBQDXMLID_8_)" fill="#CC2229" d="M363.5-24L363.5-24c4.2-13.6,12.4-22.1,18.3-18.9l6.7,3.7
							c5.9,3.2,7.2,16.8,3,30.5v0c-4.2,13.6-12.4,22.1-18.3,18.9l-6.7-3.7C360.6,3.3,359.3-10.4,363.5-24z"/>
						<polygon clip-path="url(#BBQDXMLID_8_)" fill="#591616" points="309.2,384.3 324.5,335 270.4,305.6 255.1,354.9 						"/>
						<polygon clip-path="url(#BBQDXMLID_8_)" fill="#591616" points="381.5,212.3 383.2,164.3 316.7,205.6 315,253.6 						"/>
						<polygon clip-path="url(#BBQDXMLID_8_)" fill="#611D19" points="354,86.2 355.7,38.2 289.2,79.5 287.5,127.5 						"/>
					</g>
					<g clip-path="url(#BBQDXMLID_2_)">
						<defs>

								<rect id="BBQDXMLID_42_" x="-52.3" y="167.7" transform="matrix(-0.2464 0.9692 -0.9692 -0.2464 617.0487 -133.7756)" width="825.6" height="10.6"/>
						</defs>
						<use xlink:href="#BBQDXMLID_42_"  overflow="visible" fill="#7F2123"/>
						<clipPath id="BBQDXMLID_9_">
							<use xlink:href="#BBQDXMLID_42_"  overflow="visible"/>
						</clipPath>
						<polygon clip-path="url(#BBQDXMLID_9_)" fill="#A8272B" points="379.7,88.7 376.6,48.5 429.9,-3.1 432.9,37.1 						"/>
						<polygon clip-path="url(#BBQDXMLID_9_)" fill="#30191A" points="344.5,161.2 359.8,111.9 387.8,127.1 372.5,176.4 						"/>
						<path clip-path="url(#BBQDXMLID_9_)" fill="#CC2229" d="M344.7,176L344.7,176c4.2-13.6,12.4-22.1,18.3-18.9l6.7,3.7
							c5.9,3.2,7.2,16.8,3,30.5v0c-4.2,13.6-12.4,22.1-18.3,18.9l-6.7-3.7C341.8,203.2,340.5,189.6,344.7,176z"/>
						<path clip-path="url(#BBQDXMLID_9_)" fill="#A8272B" d="M309.4,323.3l10-49.7c1.7-8.4,6.3-15.3,10.4-15.2l17.2,0.1
							c4,0,5.9,6.9,4.2,15.3l-10,49.7c-1.7,8.4-6.3,15.3-10.4,15.2l-17.2-0.1C309.6,338.6,307.7,331.8,309.4,323.3z"/>
						<path clip-path="url(#BBQDXMLID_9_)" fill="#CC2229" d="M394.9-16L394.9-16c4.2-13.6,12.4-22.1,18.3-18.9l6.7,3.7
							c5.9,3.2,7.2,16.8,3,30.5l0,0c-4.2,13.6-12.4,22.1-18.3,18.9l-6.7-3.7C392,11.2,390.6-2.4,394.9-16z"/>
						<polygon clip-path="url(#BBQDXMLID_9_)" fill="#591616" points="412.8,220.2 414.6,172.2 348.1,213.6 346.3,261.5 						"/>
						<polygon clip-path="url(#BBQDXMLID_9_)" fill="#611D19" points="385.3,94.1 387.1,46.1 320.6,87.5 318.8,135.4 						"/>
					</g>
					<g clip-path="url(#BBQDXMLID_2_)">
						<defs>

								<rect id="BBQDXMLID_41_" x="-49.6" y="288.5" transform="matrix(-0.2464 0.9692 -0.9692 -0.2464 737.3679 14.1292)" width="825.6" height="10.6"/>
						</defs>
						<use xlink:href="#BBQDXMLID_41_"  overflow="visible" fill="#7F2123"/>
						<clipPath id="BBQDXMLID_10_">
							<use xlink:href="#BBQDXMLID_41_"  overflow="visible"/>
						</clipPath>
						<polygon clip-path="url(#BBQDXMLID_10_)" fill="#A8272B" points="382.3,209.4 379.3,169.2 432.6,117.7 435.6,157.9 						"/>
						<polygon clip-path="url(#BBQDXMLID_10_)" fill="#30191A" points="347.1,281.9 362.5,232.6 390.5,247.8 375.1,297.2 						"/>
						<path clip-path="url(#BBQDXMLID_10_)" fill="#CC2229" d="M347.4,296.7L347.4,296.7c4.2-13.6,12.4-22.1,18.3-18.9l6.7,3.7
							c5.9,3.2,7.2,16.8,3,30.5l0,0c-4.2,13.6-12.4,22.1-18.3,18.9l-6.7-3.7C344.5,324,343.1,310.3,347.4,296.7z"/>
						<path clip-path="url(#BBQDXMLID_10_)" fill="#CC2229" d="M397.5,104.7L397.5,104.7c4.2-13.6,12.4-22.1,18.3-18.9l6.7,3.7
							c5.9,3.2,7.2,16.8,3,30.5l0,0c-4.2,13.6-12.4,22.1-18.3,18.9l-6.7-3.7C394.6,132,393.3,118.3,397.5,104.7z"/>
						<polygon clip-path="url(#BBQDXMLID_10_)" fill="#591616" points="415.5,341 417.2,293 350.7,334.3 349,382.3 						"/>
						<polygon clip-path="url(#BBQDXMLID_10_)" fill="#611D19" points="388,214.9 389.7,166.9 323.2,208.2 321.5,256.2 						"/>
					</g>
					<g clip-path="url(#BBQDXMLID_2_)">
						<defs>

								<rect id="BBQDXMLID_40_" x="10.4" y="183.6" transform="matrix(-0.2464 0.9692 -0.9692 -0.2464 710.5697 -174.6416)" width="825.6" height="10.6"/>
						</defs>
						<use xlink:href="#BBQDXMLID_40_"  overflow="visible" fill="#7F2123"/>
						<clipPath id="BBQDXMLID_13_">
							<use xlink:href="#BBQDXMLID_40_"  overflow="visible"/>
						</clipPath>
						<polygon clip-path="url(#BBQDXMLID_13_)" fill="#A8272B" points="442.3,104.6 439.3,64.4 492.6,12.9 495.6,53.1 						"/>
						<polygon clip-path="url(#BBQDXMLID_13_)" fill="#30191A" points="407.1,177.1 422.5,127.8 450.5,143 435.1,192.3 						"/>
						<path clip-path="url(#BBQDXMLID_13_)" fill="#CC2229" d="M407.4,191.9L407.4,191.9c4.2-13.6,12.4-22.1,18.3-18.9l6.7,3.7
							c5.9,3.2,7.2,16.8,3,30.5l0,0c-4.2,13.6-12.4,22.1-18.3,18.9l-6.7-3.7C404.5,219.2,403.1,205.5,407.4,191.9z"/>
						<path clip-path="url(#BBQDXMLID_13_)" fill="#A8272B" d="M372,339.3l10-49.7c1.7-8.4,6.3-15.3,10.4-15.2l17.2,0.1
							c4,0,5.9,6.9,4.2,15.3l-10,49.7c-1.7,8.4-6.3,15.3-10.4,15.2l-17.2-0.1C372.2,354.6,370.3,347.7,372,339.3z"/>
						<path clip-path="url(#BBQDXMLID_13_)" fill="#CC2229" d="M457.5-0.1L457.5-0.1c4.2-13.6,12.4-22.1,18.3-18.9l6.7,3.7
							c5.9,3.2,7.2,16.8,3,30.5v0c-4.2,13.6-12.4,22.1-18.3,18.9l-6.7-3.7C454.6,27.2,453.3,13.5,457.5-0.1z"/>
						<polygon clip-path="url(#BBQDXMLID_13_)" fill="#591616" points="475.5,236.2 477.2,188.2 410.7,229.5 408.9,277.5 						"/>
						<polygon clip-path="url(#BBQDXMLID_13_)" fill="#611D19" points="448,110 449.7,62.1 383.2,103.4 381.4,151.4 						"/>
					</g>
					<g clip-path="url(#BBQDXMLID_2_)">
						<defs>

								<rect id="BBQDXMLID_39_" x="13" y="304.4" transform="matrix(-0.2464 0.9692 -0.9692 -0.2464 830.8889 -26.7368)" width="825.6" height="10.6"/>
						</defs>
						<use xlink:href="#BBQDXMLID_39_"  overflow="visible" fill="#7F2123"/>
						<clipPath id="BBQDXMLID_14_">
							<use xlink:href="#BBQDXMLID_39_"  overflow="visible"/>
						</clipPath>
						<polygon clip-path="url(#BBQDXMLID_14_)" fill="#A8272B" points="445,225.3 441.9,185.1 495.2,133.6 498.2,173.8 						"/>
						<polygon clip-path="url(#BBQDXMLID_14_)" fill="#30191A" points="409.8,297.9 425.1,248.5 453.1,263.8 437.8,313.1 						"/>
						<path clip-path="url(#BBQDXMLID_14_)" fill="#CC2229" d="M410,312.7L410,312.7c4.2-13.6,12.4-22.1,18.3-18.9l6.7,3.7
							c5.9,3.2,7.2,16.8,3,30.5v0c-4.2,13.6-12.4,22.1-18.3,18.9l-6.7-3.7C407.1,339.9,405.8,326.3,410,312.7z"/>
						<path clip-path="url(#BBQDXMLID_14_)" fill="#CC2229" d="M460.2,120.6L460.2,120.6c4.2-13.6,12.4-22.1,18.3-18.9l6.7,3.7
							c5.9,3.2,7.2,16.8,3,30.5v0c-4.2,13.6-12.4,22.1-18.3,18.9l-6.7-3.7C457.3,147.9,455.9,134.3,460.2,120.6z"/>
						<polygon clip-path="url(#BBQDXMLID_14_)" fill="#611D19" points="450.6,230.8 452.4,182.8 385.9,224.1 384.1,272.1 						"/>
					</g>
					<g clip-path="url(#BBQDXMLID_2_)">
						<defs>

								<rect id="BBQDXMLID_38_" x="60.3" y="249.7" transform="matrix(-0.2464 0.9692 -0.9692 -0.2464 836.7834 -140.6907)" width="825.6" height="10.6"/>
						</defs>
						<use xlink:href="#BBQDXMLID_38_"  overflow="visible" fill="#7F2123"/>
						<clipPath id="BBQDXMLID_15_">
							<use xlink:href="#BBQDXMLID_38_"  overflow="visible"/>
						</clipPath>
						<polygon clip-path="url(#BBQDXMLID_15_)" fill="#30191A" points="457,243.2 472.4,193.8 500.4,209.1 485,258.4 						"/>
						<path clip-path="url(#BBQDXMLID_15_)" fill="#CC2229" d="M457.3,258L457.3,258c4.2-13.6,12.4-22.1,18.3-18.9l6.7,3.7
							c5.9,3.2,7.2,16.8,3,30.5v0c-4.2,13.6-12.4,22.1-18.3,18.9l-6.7-3.7C454.4,285.2,453,271.6,457.3,258z"/>
						<polygon clip-path="url(#BBQDXMLID_15_)" fill="#591616" points="525.4,302.2 527.1,254.2 460.6,295.5 458.9,343.5 						"/>
						<polygon clip-path="url(#BBQDXMLID_15_)" fill="#611D19" points="497.9,176.1 499.6,128.1 433.1,169.4 431.4,217.4 						"/>
					</g>
					<g clip-path="url(#BBQDXMLID_2_)">
						<defs>

								<rect id="BBQDXMLID_37_" x="75.7" y="320.3" transform="matrix(-0.2464 0.9692 -0.9692 -0.2464 924.4099 -67.6027)" width="825.6" height="10.6"/>
						</defs>
						<use xlink:href="#BBQDXMLID_37_"  overflow="visible" fill="#7F2123"/>
						<clipPath id="BBQDXMLID_16_">
							<use xlink:href="#BBQDXMLID_37_"  overflow="visible"/>
						</clipPath>
						<polygon clip-path="url(#BBQDXMLID_16_)" fill="#30191A" points="472.4,313.8 487.8,264.4 515.8,279.7 500.4,329 						"/>
						<polygon clip-path="url(#BBQDXMLID_16_)" fill="#611D19" points="513.3,246.7 515,198.7 448.5,240 446.7,288 						"/>
					</g>
					<g clip-path="url(#BBQDXMLID_2_)">
						<defs>

								<rect id="BBQDXMLID_36_" x="122.9" y="265.6" transform="matrix(-0.2464 0.9692 -0.9692 -0.2464 930.3044 -181.5566)" width="825.6" height="10.6"/>
						</defs>
						<use xlink:href="#BBQDXMLID_36_"  overflow="visible" fill="#7F2123"/>
						<clipPath id="BBQDXMLID_17_">
							<use xlink:href="#BBQDXMLID_36_"  overflow="visible"/>
						</clipPath>
					</g>
				</g>
			</g>
			<g>
				<g>
					<defs>
						<path id="BBQDXMLID_34_" d="M373.9,60.1l-35-1c0,0,3.5-19-16.2-15.3c-19.7,3.7-3.8,21.1-3.8,21.1s-11.8,5.1-5.8,16.5
							c6,11.4,20.2,9.9,23,2s2.8-7.8,2.8-7.8l38.6,6.4L373.9,60.1z"/>
					</defs>
					<use xlink:href="#BBQDXMLID_34_"  overflow="visible" fill="#E5D0B1"/>
					<clipPath id="BBQDXMLID_18_">
						<use xlink:href="#BBQDXMLID_34_"  overflow="visible"/>
					</clipPath>
					<path clip-path="url(#BBQDXMLID_18_)" fill="#F7EFDD" d="M372.5,54.2l-35-1c0,0,3.5-19-16.2-15.3c-19.7,3.7-3.8,21.1-3.8,21.1
						s-11.8,5.1-5.8,16.5s20.2,9.9,23,2s2.8-7.8,2.8-7.8l38.6,6.4L372.5,54.2z"/>
				</g>
				<g>
					<defs>
						<path id="BBQDXMLID_33_" d="M363.1,70.2c0,0-2.2-27,39.1-29.1s50.2,8.7,53.3,11.6s15.2,20.7,1.1,39.3s-65.3,8.3-65.3,8.3
							S365,96.4,363.1,70.2z"/>
					</defs>
					<use xlink:href="#BBQDXMLID_33_"  overflow="visible" fill="#7E4A28"/>
					<clipPath id="BBQDXMLID_19_">
						<use xlink:href="#BBQDXMLID_33_"  overflow="visible"/>
					</clipPath>
					<path clip-path="url(#BBQDXMLID_19_)" fill="#AA6631" d="M363.4,61.4c0,0-2.2-27,39.1-29.1s50.2,8.7,53.3,11.6s15.2,20.7,1.1,39.3
						s-65.3,8.3-65.3,8.3S365.3,87.5,363.4,61.4z"/>
				</g>
			</g>
			<g>
				<g>
					<defs>
						<path id="BBQDXMLID_32_" d="M224.5,149.7c1.6,48.4,16.3,92.2,44.3,131.7c5.6,8.5,19.4,10.9,29.2,4.5l0,0
							c8.2-6.5,10.9-18.1,4.9-25.5c-24.4-34.6-37-72.2-38.5-114.4c-0.5-8.9-8.1-18-19.3-17.4l0,0
							C232.7,128.4,224.8,140.3,224.5,149.7z"/>
					</defs>
					<use xlink:href="#BBQDXMLID_32_"  overflow="visible" fill="#7E4A28"/>
					<clipPath id="BBQDXMLID_20_">
						<use xlink:href="#BBQDXMLID_32_"  overflow="visible"/>
					</clipPath>
					<g clip-path="url(#BBQDXMLID_20_)">
						<path fill="#B65F30" d="M234.6,147.9c1.3,47.4,15.6,90.2,43.3,128.8c5.5,8.3,19.2,10.5,29.1,4.2l0,0c8.3-6.5,11-17.8,5-25
							c-24.1-33.8-36.4-70.5-37.6-111.9c-0.4-8.7-8-17.6-19.1-16.9l0,0C242.9,127,234.9,138.7,234.6,147.9z"/>
					</g>
				</g>
				<g>
					<path fill="#B65F30" d="M305.4,274l10.3,1.8c0,0,1,6.6-4,9.5l1.6,4.9c0,0-5.9,5.3-15.6,1.4l0.6-15.2L305.4,274z"/>
				</g>
				<g>
					<path fill="#B65F30" d="M254.1,131.8l7.1-7.7c0,0-3.2-5.8-8.9-5.2l-1.6-4.9c0,0-7.9-0.6-13.3,8.3l9.7,11.8L254.1,131.8z"/>
				</g>
			</g>
			<g>
				<path fill="#FFFFFF" d="M409.2,209.6c13.8,9.7,29.4-7.7,43-5c19.7,3.9,35.9,24.2,45.3,11.7c15.9-21.1,2.2-58.3-30.6-83.1
					C414,93.2,343.4,163.3,409.2,209.6z"/>
				<path fill="#A6272B" d="M411.3,214.4c13.8,9.7,29.4-7.7,43-5c19.7,3.9,28.2,26.8,45.3,11.7c19.8-17.5,2.2-58.3-30.6-83.1
					C416.1,98,345.5,168.1,411.3,214.4z"/>
				<g>
					<path fill="#FFFFFF" d="M423.5,183c8,6,19.3,4.4,25.3-3.5s4.4-19.3-3.5-25.3c-8-6-19.3-4.4-25.3,3.5
						C413.9,165.7,415.5,177,423.5,183z M425.7,180.1c-6.3-4.8-7.6-13.7-2.8-20.1c4.8-6.3,13.7-7.6,20.1-2.8
						c6.3,4.8,7.6,13.7,2.8,20.1C441,183.6,432,184.8,425.7,180.1z"/>

						<ellipse transform="matrix(0.6027 -0.798 0.798 0.6027 38.0087 413.6011)" fill="#FFFFFF" cx="434.4" cy="168.6" rx="9.3" ry="9.3"/>
				</g>
			</g>
			<g>
				<path fill="#969D43" d="M391.5,212.8c0,0-33.7,28.1-33.6,35.4c0.1,7.2-0.3,14.2-11.1,31.5l27.4-27.1l14.6-31.8L391.5,212.8z"/>
				<g>
					<defs>
						<polygon id="BBQDXMLID_31_" points="406.6,322.9 410.4,321 286.3,71.2 279.5,62.2 282.5,73.1 						"/>
					</defs>
					<use xlink:href="#BBQDXMLID_31_"  overflow="visible" fill="#BBBCBF"/>
					<clipPath id="BBQDXMLID_23_">
						<use xlink:href="#BBQDXMLID_31_"  overflow="visible"/>
					</clipPath>
					<polygon clip-path="url(#BBQDXMLID_23_)" fill="#FEFDFC" points="410.4,326.2 414.2,324.3 286.3,66.9 279.3,57.6 282.6,68.8
						"/>
				</g>
				<g>
					<g>
						<path fill="#F3E064" d="M293.8,153.2c4.5,17,12.9,27.7,28.2,36.1c2.2,0.9,5.9,0.9,5.9,0.9c5.2-11.4,1.4-31.5,9.6-42.1
							c3.6-3.5,6.9-10.6,5.8-13.4c0,0-3-1.1-5.9-0.9C322.9,140.2,308.3,146.7,293.8,153.2z"/>
					</g>
					<g>
						<path fill="#FCF0B4" d="M299.7,154.1c4.5,17,12.9,27.7,28.2,36.1c9.8-12.6,19.6-25.1,29.4-37.7c-7.5-3.4-12.5-9.8-14-17.9
							C328.7,141.1,314.2,147.6,299.7,154.1z"/>
					</g>
					<path fill="#F3E064" d="M351.6,154.6c0,0-12.4,17.5-22.7,26.8C328.8,180.9,338.8,164.1,351.6,154.6z"/>
					<path fill="#F3E064" d="M318.2,185c0,0,12.7-12.4,16.8-18c0,0-16,13.2-18,16.5C315,186.9,318.2,185,318.2,185z"/>
					<path fill="#F3E064" d="M319.8,168.8c0,0,16.9-9.7,26.7-22.7c0,0-25.2,18.4-28.1,22C315.4,171.8,319.8,168.8,319.8,168.8z"/>
					<polygon fill="#F3E064" points="303.8,169.4 330.5,148.6 301.4,165.4 					"/>
					<path fill="#F3E064" d="M320.6,149.2c0,0-12.4,9.1-21.8,11.7C298.9,160.9,308.9,152.9,320.6,149.2z"/>
				</g>
				<g>
					<g>
						<path fill="#E1D23F" d="M346.1,280.5c0.6,0.8,24.5-17.8,31.4-28.1c6.5-9.7,13.9-39.8,13.9-39.8c-1.1-0.3-12.6,25.5-19.6,36
							C364.6,259.4,346.1,280.5,346.1,280.5z"/>
					</g>
				</g>
				<g>
					<defs>
						<path id="BBQDXMLID_30_" d="M338.6,184.8c0,0,13.5-19.7,25.6-5.3s19.8,26.7,15.5,36.9s-6.6,12.1-10.2,15.8c-3.6,3.7-12,8.3-24.5,0
							s-25.1-27-19.4-38.5C331.3,182.2,338.6,184.8,338.6,184.8z"/>
					</defs>
					<use xlink:href="#BBQDXMLID_30_"  overflow="visible" fill="#7D2123"/>
					<clipPath id="BBQDXMLID_24_">
						<use xlink:href="#BBQDXMLID_30_"  overflow="visible"/>
					</clipPath>
					<path clip-path="url(#BBQDXMLID_24_)" fill="#A6272B" d="M349.6,179.1c0,0,13.5-19.7,25.6-5.3s19.8,26.7,15.5,36.9
						c-4.3,10.2-6.6,12.1-10.2,15.8s-12,8.3-24.5,0c-12.5-8.3-25.1-27-19.4-38.5C342.3,176.5,349.6,179.1,349.6,179.1z"/>
				</g>
				<g>
					<g>
						<g>
							<defs>
								<path id="BBQDXMLID_29_" d="M298.3,98.7l-3.6,5.4c0,0,3.8,2.4-0.7,4s-16.5,5.6-16.5,5.6s-4.7,1.6-2.9,7.1
									c1.9,5.5,2.9,8.7,2.9,8.7s1.8,4.6,7.5,2.7s15.3-5.2,15.3-5.2s4.2-1.2,2.7,3c-1.5,4.2,15.5-6.9,15.5-6.9l-6.4-24.5
									L298.3,98.7z"/>
							</defs>
							<use xlink:href="#BBQDXMLID_29_"  overflow="visible" fill="#FFFFFF"/>
							<clipPath id="BBQDXMLID_25_">
								<use xlink:href="#BBQDXMLID_29_"  overflow="visible"/>
							</clipPath>
							<path clip-path="url(#BBQDXMLID_25_)" fill="#E6E6E7" d="M317.6,89.2l-3.5,5.7c0,0,3.9,2.7-0.6,4.3s-16.5,5.6-16.5,5.6
								s-4.7,1.6-2.7,7.6c2,6,3.2,9.5,3.2,9.5s2,5.1,7.6,3.2c5.7-1.9,15.3-5.2,15.3-5.2s4.2-1.2,2.8,3.3s15.5-7,15.5-7l-7.1-26.6
								L317.6,89.2z"/>
						</g>
					</g>
					<path fill="#FFFFFF" d="M312.7,143.8c12.3-4.1,20.3-21,15-36.6c-5.3-15.6-21.9-24.2-34.1-20c-3.9,1.3-7.1,3.9-9.6,7.2
						c-5.2,7.1,13.1,3.6,19,21.2c1.8,5.5,1.3,10.3,0.1,14.4c-2.3,7.9-6.9,13-1,14.4C305.7,145.1,309.3,145,312.7,143.8z"/>
				</g>
				<g>
					<g>
						<g>
							<defs>
								<path id="BBQDXMLID_28_" d="M390.8,293.8l5.6-3.2c0,0-2.3-3.9,2.4-3.2c4.7,0.7,17.2,2.4,17.2,2.4s4.9,0.7,5.8-5
									c0.8-5.8,1.3-9.1,1.3-9.1s0.5-5-5.5-5.8c-5.9-0.8-16-2.3-16-2.3s-4.3-0.8-1.1-3.9s-16.9-0.8-16.9-0.8l-5.3,24.7L390.8,293.8
									z"/>
							</defs>
							<use xlink:href="#BBQDXMLID_28_"  overflow="visible" fill="#FFFFFF"/>
							<clipPath id="BBQDXMLID_26_">
								<use xlink:href="#BBQDXMLID_28_"  overflow="visible"/>
							</clipPath>
							<path clip-path="url(#BBQDXMLID_26_)" fill="#E6E6E7" d="M369.3,293.5l5.7-3.5c0,0-2.3-4.2,2.4-3.6c4.7,0.7,17.2,2.4,17.2,2.4
								s4.9,0.7,5.8-5.6c0.9-6.3,1.4-9.9,1.4-9.9s0.5-5.4-5.4-6.3c-5.9-0.8-16-2.3-16-2.3s-4.3-0.8-1.1-4.2c3.2-3.4-17-0.7-17-0.7
								l-5.6,27L369.3,293.5z"/>
						</g>
					</g>
					<path fill="#FFFFFF" d="M398.2,247c-12.8-1.8-27.6,9.6-29.9,26s8.7,31.4,21.5,33.2c4.1,0.6,8.1-0.2,11.8-2.1
						c7.8-4-10.1-9.1-7.5-27.5c0.8-5.7,3.5-9.8,6.3-12.9c5.6-6.1,12-8.5,7.3-12.4C405,249,401.8,247.5,398.2,247z"/>
				</g>
			</g>
		</g>
		<g>
			<g>
				<path fill="#272525" d="M460,132.4c-9-6.6-22.5-7.8-33.2-6.2c-10.7,1.6-20.7,6.5-28.4,14c-14.4,14.1-20,40-6.4,56.6
					c0.1,0.1,0.3,0,0.2-0.2c-4.7-9.9-7.5-20.1-5.5-31.1c1.7-9.7,6.8-18.5,14-25.1c7.3-6.7,16.6-11.1,26.5-12.4
					c11.7-1.6,21.6,1.9,32.6,5C460.1,133.1,460.2,132.6,460,132.4L460,132.4z"/>
			</g>
		</g>
		<g>
			<g>
				<path fill="#272525" d="M403.4,207.1c6.5,10.8,19.4,12.1,30.2,8c7.2-2.7,14.3-6.5,22.3-4.9c7.5,1.5,14.5,6.5,20.6,11
					c0.1,0,0.1-0.1,0.1-0.1c-9-8.1-18.7-15.5-31.5-12.2c-7.1,1.8-13.5,5.9-20.8,6.7c-8.1,0.8-15.1-3-20.6-8.7
					C403.6,206.8,403.3,207,403.4,207.1L403.4,207.1z"/>
			</g>
		</g>
		<g>
			<g>
				<path fill="#272525" d="M418.8,50.5c0.9,5.5,3.8,10.8,6.4,15.7c2.5,4.8,5.5,10.1,9.3,14c0.2,0.2,0.4,0,0.4-0.2
					c-1.2-5.4-3.9-10.9-6.5-15.7c-2.7-4.8-5.3-10.2-9.4-14C418.9,50.4,418.8,50.4,418.8,50.5L418.8,50.5z"/>
			</g>
		</g>
		<g>
			<g>
				<path fill="#272525" d="M403.8,53.2c4.4,12.4,10.2,23.1,18.7,33.2c0.1,0.1,0.2,0,0.1-0.1C417,74.8,410.6,64.1,403.8,53.2
					C403.9,53.1,403.8,53.2,403.8,53.2L403.8,53.2z"/>
			</g>
		</g>
		<g>
			<g>
				<path fill="#272525" d="M390.8,57.3c3.3,10.6,8.1,19.5,14.8,28.3c0.1,0.1,0.2,0,0.2-0.1C402.4,74.9,397.7,66,390.8,57.3
					C390.9,57.2,390.8,57.2,390.8,57.3L390.8,57.3z"/>
			</g>
		</g>
		<g>
			<g>
				<path fill="#272525" d="M234.6,190.5c8.3,4.7,16.9,9.2,26.5,10.9c0.1,0,0.1-0.1,0.1-0.1C253.2,195.8,243.9,193,234.6,190.5
					C234.6,190.4,234.6,190.5,234.6,190.5L234.6,190.5z"/>
			</g>
		</g>
		<g>
			<g>
				<path fill="#272525" d="M240.5,210.6c8.5,5.7,19.3,10.4,29.4,11.8c0.2,0,0.3-0.2,0.1-0.3c-8.4-6.1-19.3-10-29.4-11.8
					C240.4,210.3,240.3,210.5,240.5,210.6L240.5,210.6z"/>
			</g>
		</g>
		<g>
			<g>
				<path fill="#272525" d="M246.7,229.3c5.1,4.6,12.1,7.3,18.3,10.1c5.5,2.5,12.4,5.6,18.4,6.3c0.1,0,0.2-0.2,0.1-0.2
					c-4.9-4.3-12.4-7.4-18.4-10.1c-5.8-2.6-12-5.7-18.4-6.3C246.7,229.2,246.6,229.3,246.7,229.3L246.7,229.3z"/>
			</g>
		</g>
		<g>
			<g>
				<path fill="#272525" d="M339.1,132.6C339.1,132.6,339.1,132.5,339.1,132.6C339,132.5,339,132.6,339.1,132.6L339.1,132.6z"/>
			</g>
		</g>
		<g>
			<g>
				<path fill="#272525" d="M338.5,132.8c-0.5,0-1-0.1-1.5-0.1c-0.4,0-0.5,0.6-0.2,0.8c1.8,1,4.5,1.5,6.6,1.2c0.9-0.1,0.9-1.4,0-1.4
					c-1,0-2,0.1-3,0c-1.1-0.1-2.2-0.4-3.3-0.6c0,0.3,0,0.5,0,0.8c0.5-0.2,1-0.4,1.4-0.5C338.6,132.9,338.6,132.8,338.5,132.8
					L338.5,132.8z"/>
			</g>
		</g>
		<g>
			<g>
				<path fill="#272525" d="M344.1,133.9c-2.5,3.3,0.3,9.4,2.3,12.3c2.6,3.7,7.5,7.5,12.2,7.3c0.8,0,1.2-1.2,0.4-1.6
					c-4.2-2.1-8.1-3.3-10.9-7.4c-1.2-1.7-2-3.6-2.5-5.6C345,137.2,345.1,135.4,344.1,133.9C344.1,133.9,344.1,133.8,344.1,133.9
					L344.1,133.9z"/>
			</g>
		</g>
		<g>
			<g>
				<path fill="#272525" d="M391.2,212.2c-1.5,6.7-2.2,13.5-4.4,20.1c-2.3,6.9-5.6,13.6-9.5,19.7c-4,6.1-8.8,11.7-14.1,16.7
					c-2.8,2.6-5.9,5-9.1,7.1c-2.5,1.6-5.3,2.9-7.4,4.9c-0.2,0.2,0,0.4,0.2,0.4c6.4-1.2,12.7-7,17.6-11.2
					c5.5-4.7,10.2-10.2,14.2-16.3c7.6-11.4,14.4-27.3,12.9-41.3C391.4,212.1,391.2,212,391.2,212.2L391.2,212.2z"/>
			</g>
		</g>
		<g>
			<g>
				<path fill="#272525" d="M387.4,217.3c-5.1,9.3-9.7,18.9-15.3,28c-5.6,9.2-12.3,17.2-18.6,25.8c-0.1,0.1,0.1,0.2,0.1,0.1
					c7.8-7,14.5-16.3,20.2-25c5.9-8.9,11.1-18.5,14.1-28.8C388,217.3,387.5,217.1,387.4,217.3L387.4,217.3z"/>
			</g>
		</g>
		<g id="BBQDXMLID_21_">
			<g id="BBQDXMLID_22_">
				<g>
					<defs>
						<path id="BBQDXMLID_79_" d="M-8.4,451.6c8.8-0.4,17.7-0.3,26.5-0.1c8,0.1,16,0.3,24,0.8c2.6-17.7,6.6-35.5,10.7-52.9
							c4.3-18.7,9-37.4,14.8-55.8c0.2-0.7,0.4-1.3,0.7-2c0.3-0.1,0.6-0.2,0.9-0.3c3.6-1,7-2.3,10.4-4.5c5.8-3.6,10.8-8.6,14.9-14.1
							c8.6-11.5,11.4-25.1,5.7-38.1c-3,1.1-6.5,2.6-9.9,3.1c0.9,0.9,1.8,1.9,2.5,3c0.2,0.3-0.1,0.7-0.5,0.6c-2.1-0.4-4-1.6-5.7-3.3
							c-3.6-3.4-6.2-8.8-7.3-13.4c-0.1,0-0.1-0.1-0.1-0.2c-0.3-1.2-0.5-2.4-0.5-3.5c0-0.4,0.6-0.5,0.7-0.1c0.3,0.9,0.7,1.8,1,2.6
							c0.1-2.4,0.5-4.7,0.5-7.1c0-0.4,0-0.9-0.1-1.3c0,0,0-0.1,0-0.1c-0.4-3.4-1.3-6.7-2.5-9.9c-2.1-0.2-4.2-0.5-6.4-0.4
							c-1.4,0-2.9,0.3-4.4,0.6c0,0.1-0.1,0.2-0.1,0.4c-0.6,1.6-1.3,3.2-1.6,5c-0.3,1.9,0.1,3.9-0.2,5.8c0.2,0.7,0.1,1.3-0.2,1.7
							c-0.1,0.1-0.3,0.1-0.4,0.1c-0.6-0.4-0.5-0.9-0.7-1.5c0-0.2-0.1-0.4-0.1-0.5c0,0,0-0.1,0-0.1c-0.2-0.6-0.4-1.2-0.7-1.7
							c-0.4-0.8-0.9-1.5-1.4-2.1c0,0-0.1-0.1-0.1-0.1c0,0,0,0-0.1-0.1c-2.1-0.1-4.2-0.1-6.2,0.3c-1.9,0.3-3.6,0.9-5.4,1.5
							c0,0.1-0.1,0.3-0.1,0.4c-0.3,1.1-0.7,2.1-0.9,3.2c-0.3,1.7,0.1,3.7-0.6,5.2c-0.1,0.2-0.4,0.2-0.5,0c0-0.1-0.1-0.2-0.1-0.2
							c-0.1,0-0.1,0-0.1,0.1c-0.4-0.8-0.7-1.5-1.2-2.2c-0.2-0.3-0.4-0.7-0.7-1c-0.1-0.1-0.1-0.2-0.2-0.3c-0.2-0.4-0.5-0.7-0.8-1
							c-1.8,0.7-4.2,0.8-6.1,1.2c-1.6,0.3-3.3,0.8-5,0.9c-0.2,0.8-0.4,1.7-0.4,2.5c-0.1,0.7,0.1,1.6,0.1,2.3c0.5,0.7,0.8,1.4,0.8,2
							c0,0.4-0.6,0.7-0.9,0.4c-0.7-0.8-1.1-1.9-1.8-2.7c-0.4-0.4-0.9-0.8-1.4-1.1c-1.8,0.5-3.9,0.6-5.5,1c-1.5,0.4-3.1,1-4.6,1.5
							c0,1.7-0.2,3.5-0.3,5.2c-0.1,3.2-0.1,6.4,0,9.6c0.1,1.5,0.2,3,0.4,4.6c0.4,3.5,1.1,7.1,1.4,10.6c0.1,0.6,0.1,1.2,0.1,1.7
							c-0.1,0.5-0.3,1.1-0.4,1.6c-0.4,1.4-1,2.8-1.3,4.2c-0.7,3.3-1.1,6.6-1.1,9.9c0,3.3,0.4,6.7,1.1,10c0.3,1.1,0.7,2.2,1,3.3
							c0.2,0.6,0.4,1.3,0.6,1.9c0.3,0.9,0.4,1.8,0.5,2.8c0,0.2-0.3,0.3-0.4,0.2c-0.2-0.3-0.5-0.5-0.7-0.8c-2.7,8.6-6,17.1-8.6,25.6
							C9.2,377,6,387.8,3.1,398.8c-2.8,10.7-5.4,21.4-7.7,32.2C-6.1,437.8-7.1,444.7-8.4,451.6z M25.2,290c-0.1,0.1-0.3,0-0.2-0.2
							c0.6-2.9,5.5-4.4,8-3.3c0.3,0.1,0.1,0.6-0.1,0.6c-1.5,0.1-2.8,0.1-4.2,0.7C27.3,288.4,26.4,289.4,25.2,290z M40.6,283.8
							c-0.2,0.1-0.4-0.1-0.3-0.3c0.4-0.7,0.6-1.1,1.3-1.5c0.6-0.3,1.2-0.4,1.8-0.5c0.9-0.1,2.8-0.2,3.2,0.9c0,0.1,0,0.2-0.1,0.2
							c-0.3,0.2-0.6,0.1-1,0.1c-0.7-0.1-1.3-0.1-2,0c-0.5,0.1-1,0.3-1.4,0.5C41.7,283.4,41.2,283.5,40.6,283.8z M52.9,280.6
							c-0.2,0.1-0.3,0-0.3-0.2c0.5-3.9,5.8-4.9,8.8-3.8c0.3,0.1,0.3,0.7-0.1,0.6c-1.6-0.1-3.2,0.3-4.7,0.9
							C55.3,278.9,54.2,279.9,52.9,280.6z M68.6,274.8c-0.2,0.1-0.3-0.1-0.2-0.2c0.3-0.6,0.4-1.1,1-1.4c0.5-0.3,1.2-0.6,1.8-0.7
							c1.1-0.2,2.3-0.2,3.2,0.6c0.1,0.1,0,0.2-0.1,0.2c-1,0.1-2,0-3,0.3c-0.5,0.2-0.9,0.4-1.4,0.7C69.5,274.4,69,274.6,68.6,274.8z
							 M79.9,265.6C79.9,265.6,79.9,265.6,79.9,265.6C79.8,265.6,79.9,265.6,79.9,265.6C79.9,265.6,79.9,265.6,79.9,265.6z"/>
					</defs>
					<use xlink:href="#BBQDXMLID_79_"  overflow="visible" fill="#D69154"/>
					<clipPath id="BBQDXMLID_27_">
						<use xlink:href="#BBQDXMLID_79_"  overflow="visible"/>
					</clipPath>
					<path clip-path="url(#BBQDXMLID_27_)" fill="#D7A671" d="M79.1,274.5c0,0-5-2.8-9.2-0.3s-8.6,3.2-8.6,3.2s-8.2-0.7-8.8,3.1
						c-0.6,3.8-8.9,2.3-8.9,2.3s-5-0.1-7,2.9s-5.7,0-5.7,0s-10.5,4.1-10.6,9.5c-0.1,5.5,3.2,19.1,3.2,19.1l73.7-3l7-8.3v-5.3
						l-4.3-12.9l-13.4,3.2l-5-10L79.1,274.5z"/>
				</g>
				<path d="M20.2,338.9c0.3-0.8,0.7-1.6,1.1-2.4c-0.4-1.1-0.8-2.2-1-3.3c-0.8-3.3-1.1-6.6-1.1-10c0-3.4,0.4-6.7,1.1-9.9
					c0.3-1.4,0.8-2.8,1.3-4.2c-0.3-0.6-0.5-1.2-0.8-1.9c-1,1.6-1.7,3.6-2.1,5.6c0,0,0.1,0,0.1-0.1c0.6-0.3,1.1,0.6,0.5,0.9
					c-0.3,0.2-0.6,0.3-0.9,0.5c-0.6,3.2-0.7,6.6-0.7,9.2C17.6,327.7,17.9,334.4,20.2,338.9z"/>
				<path d="M69.1,341.3c-0.2,0.7-0.4,1.5-0.6,2.2c11.5-1.3,22.3-12.3,28.4-20.8c7.5-10.6,12.2-26.9,4.3-38.4
					c-0.3,0.1-0.6,0.2-0.9,0.3c-0.1,0-0.2,0.1-0.3,0.1c5.7,13,3,26.6-5.7,38.1c-4.1,5.5-9.1,10.5-14.9,14.1
					C76.1,339,72.7,340.3,69.1,341.3z"/>
				<path d="M8.8,316.8c0.5-0.3,1-0.6,1.6-0.8c-0.2-0.2-0.4-0.5-0.6-0.8c-1.1-1.7-2-3.6-2.6-5.6c-0.9-2.9-0.9-5.6-0.8-8.3
					c-0.4,0.1-0.9,0.3-1.3,0.4C4.4,306.5,5.8,312.9,8.8,316.8z"/>
				<path fill="#7E4A28" d="M9.8,315.3c0.2,0.3,0.4,0.5,0.6,0.8c0.8-0.3,1.6-0.5,2.3-0.8c2-0.7,3.9-1.5,5.9-2.4
					c0.5-2.1,1.1-4,2.1-5.6c-1.2-3.4-1.8-7.3-2.1-11c-2.2,1-4.5,1.9-6.7,2.8c-1.8,0.7-3.7,1.6-5.6,2.3c-0.1,2.8-0.1,5.5,0.8,8.3
					C7.8,311.6,8.7,313.5,9.8,315.3z"/>
				<path d="M21.5,309.1c0.2-0.5,0.3-1.1,0.4-1.6c0-0.6-0.1-1.1-0.1-1.7c-0.4,0.4-0.8,0.9-1.1,1.5C20.9,307.8,21.2,308.5,21.5,309.1
					z"/>
				<path d="M20.7,307.2c0.3-0.5,0.7-1,1.1-1.5c-0.3-3.5-0.9-7-1.4-10.6l0,0c0,0.1,0,0.2-0.2,0.3c-0.5,0.3-1.1,0.5-1.6,0.8
					C19,299.9,19.5,303.8,20.7,307.2z"/>
				<path d="M5,301.7c0.4-0.1,0.9-0.2,1.3-0.4c0-0.5,0-1,0.1-1.6c-0.4,0.2-0.8,0.3-1.1,0.5C5.2,300.7,5.1,301.2,5,301.7z"/>
				<path d="M6.4,299.7c0,0.5,0,1.1-0.1,1.6c1.9-0.6,3.8-1.5,5.6-2.3c2.2-0.9,4.5-1.8,6.7-2.8c0-0.3-0.1-0.6-0.1-0.9
					c-2.5,0.8-5.1,1.8-7.6,2.7C9.6,298.6,7.9,299.1,6.4,299.7z"/>
				<path d="M18.6,295.3c0,0.3,0,0.6,0.1,0.9c0.5-0.2,1.1-0.5,1.6-0.8c0.1-0.1,0.2-0.2,0.2-0.3c0-0.2-0.2-0.3-0.4-0.3
					C19.5,295,19.1,295.1,18.6,295.3z"/>
				<path d="M18.6,295.3c0.5-0.2,0.9-0.3,1.4-0.4c0.2-0.1,0.4,0.1,0.4,0.3l0,0c-0.2-1.5-0.3-3-0.4-4.6c-0.1-3.2-0.1-6.4,0-9.6
					c0.1-1.7,0.3-3.5,0.3-5.2c-0.5,0.2-1.1,0.3-1.6,0.4c-1.2,4.8-0.6,10.9-0.4,15.1C18.4,292.6,18.5,293.9,18.6,295.3z"/>
				<path d="M24.9,289.9c0,0.1,0.1,0.2,0.2,0.2c1.2-0.6,2.1-1.6,3.4-2.1c1.4-0.6,2.7-0.6,4.2-0.7c0.3,0,0.5-0.5,0.1-0.6
					C30.4,285.5,25.6,286.9,24.9,289.9z"/>
				<path d="M40.4,283.5c-0.1,0.2,0.1,0.3,0.3,0.3c0.5-0.2,1.1-0.3,1.6-0.6c0.5-0.2,1-0.4,1.4-0.5c0.7-0.2,1.3-0.1,2,0
					c0.4,0,0.6,0.1,1-0.1c0.1,0,0.1-0.2,0.1-0.2c-0.4-1-2.3-1-3.2-0.9c-0.6,0.1-1.2,0.2-1.8,0.5C41,282.4,40.7,282.8,40.4,283.5z"/>
				<path d="M19.2,274.7c-0.2,0.5-0.3,1-0.4,1.5c0.5-0.1,1.1-0.2,1.6-0.4c0-0.5,0-1.1-0.1-1.6C19.9,274.4,19.5,274.5,19.2,274.7z"/>
				<path d="M20.2,274.2c0.1,0.5,0.1,1.1,0.1,1.6c1.6-0.5,3.1-1.1,4.6-1.5c1.6-0.4,3.7-0.5,5.5-1c-0.4-0.3-0.7-0.6-1-0.9
					c0,0,0-0.1,0-0.1c-0.2-0.1-0.4-0.1-0.6-0.2c-1.4,0.2-2.8,0.6-3.8,0.9C23.5,273.2,21.8,273.6,20.2,274.2z"/>
				<path d="M33.7,277c0.3,0.3,0.9,0.1,0.9-0.4c0-0.6-0.3-1.3-0.8-2c0,0.4,0,0.8-0.2,1.1c-0.1,0.2-0.3,0.3-0.5,0.1
					c-0.6-0.7-0.7-1.7-0.6-2.6c-0.2-0.2-0.5-0.4-0.7-0.5c-0.4,0.2-0.8,0.4-1.3,0.5c0.5,0.3,1,0.7,1.4,1.1
					C32.6,275.2,32.9,276.2,33.7,277z"/>
				<path d="M86.5,288.1c1.7,1.7,3.7,2.8,5.7,3.3c0.3,0.1,0.7-0.3,0.5-0.6c-0.7-1.1-1.6-2.1-2.5-3c-1.2,0.2-2.3,0.3-3.4,0.2
					c0,0-0.1,0-0.1,0L86.5,288.1z"/>
				<path d="M33.1,275.9c0.2,0.2,0.4,0.1,0.5-0.1c0.1-0.3,0.2-0.7,0.2-1.1c-0.4-0.5-0.8-1-1.3-1.4C32.4,274.2,32.5,275.2,33.1,275.9
					z"/>
				<path d="M52.6,280.4c0,0.2,0.1,0.3,0.3,0.2c1.3-0.7,2.4-1.8,3.8-2.4c1.5-0.7,3.1-1,4.7-0.9c0.4,0,0.4-0.5,0.1-0.6
					C58.4,275.6,53.1,276.6,52.6,280.4z"/>
				<path d="M86.5,288.1l0.2-0.2c-0.1-0.1-0.1-0.3,0-0.3c0.7-0.4,1.4-0.8,2.2-1.1c-1.4-1.3-2.9-2.7-4-4.3c-1.4-2-2.5-4-3.4-6.1
					c-0.1,0.1-0.1,0.2-0.2,0.3c-0.2,0.4-0.7,0.2-0.8-0.2c-0.1-0.5-0.1-1.1-0.1-1.6c-0.3,0-0.7,0.1-1,0.1c-0.1,0-0.1,0-0.1,0
					C80.3,279.3,82.9,284.7,86.5,288.1z"/>
				<path d="M86.7,287.9c0,0,0.1,0,0.1,0c1.1,0.1,2.2,0,3.4-0.2c-0.4-0.4-0.9-0.9-1.3-1.3c-0.8,0.3-1.5,0.7-2.2,1.1
					C86.5,287.7,86.5,287.8,86.7,287.9z"/>
				<path d="M32.4,273.3c0.5,0.4,0.9,0.9,1.3,1.4c0-0.8-0.2-1.6-0.1-2.3c0.1-0.8,0.2-1.7,0.4-2.5c-0.3,0-0.6,0-0.9,0
					c-0.3,0.7-0.5,1.5-0.6,2.4C32.5,272.6,32.5,272.9,32.4,273.3z"/>
				<path d="M29.4,272.3c0.3,0.4,0.7,0.7,1,0.9c0.5-0.1,0.9-0.3,1.3-0.5c-0.8-0.5-1.6-0.7-2.3-0.6c0,0,0,0,0,0
					C29.3,272.2,29.3,272.3,29.4,272.3z"/>
				<path d="M88.9,286.5c0.4,0.4,0.9,0.9,1.3,1.3c3.4-0.6,6.9-2.1,9.9-3.1c-0.2-0.4-0.4-0.8-0.6-1.2c-0.1,0-0.2,0.1-0.2,0.1
					C96,284.6,92.1,285.2,88.9,286.5z"/>
				<path fill="#7E4A28" d="M88.9,286.5c3.3-1.3,7.2-1.9,10.4-3c0.1,0,0.2,0,0.2-0.1c0.3-0.1,0.6-0.2,0.9-0.3c2.6-1,5.3-2.3,8-3.1
					c0.3-0.1,0.7-0.2,1.1-0.3l0.2,0.7c0,0.1,0.1,0.3,0.2,0.4c0.8,1.6,2.6,2.5,4.4,1.9c0.9-0.3,1.6-0.9,2.1-1.8
					c0.4-0.9,0.5-1.8,0.2-2.7l-0.7-2.2l-0.4-1.3l-3.1-9.4l-0.5-1.3l-0.4-1.2c-0.3-0.9-0.9-1.6-1.8-2.1c-0.9-0.4-1.8-0.5-2.7-0.2
					c-0.9,0.3-1.6,0.9-2.1,1.8c-0.1,0.2-0.2,0.5-0.3,0.7c-0.1,0.5-0.1,1-0.1,1.4c0,0.2,0.1,0.4,0.1,0.6l0,0.1c0,0-0.1,0-0.1,0.1
					c0.7,1.1,0.9,2.5,1.3,3.7c0.7,1.9,1.4,3.8,2.1,5.7c0,0.1-0.1,0.1-0.1,0.1c-1.3-1.7-2.3-3.4-3.2-5.4c-0.5-1.2-1.1-2.3-1.3-3.5
					c-3.3,1.8-6.9,3.1-10.3,4.4c-0.4,0.2-0.8,0.3-1.2,0.5c-0.4,0.2-0.8,0.4-1.3,0.5c-2.7,1.1-5.5,2.4-8.3,3c-0.5,0.1-1,0.2-1.5,0.3
					c0.2,0.5,0.4,1,0.7,1.5c0.9,2.1,2,4.1,3.4,6.1C86,283.8,87.4,285.1,88.9,286.5z"/>
				<path d="M33.2,269.8c0.3,0,0.6,0,0.9,0c0.1-0.5,0.2-1,0.3-1.4c-0.1,0-0.3,0.1-0.4,0.1C33.7,268.9,33.4,269.4,33.2,269.8z"/>
				<path d="M34.4,268.4c-0.1,0.5-0.2,1-0.3,1.4c1.7-0.1,3.4-0.6,5-0.9c1.8-0.3,4.2-0.4,6.1-1.2c-0.1-0.1-0.2-0.2-0.3-0.3
					c-0.2-0.2-0.3-0.3-0.5-0.5c0-0.1-0.1-0.1-0.1-0.2c-1.6,0.1-3.2,0.6-4.6,0.8C38.1,267.8,36.1,267.9,34.4,268.4z"/>
				<path d="M48.3,272.5c0.1,0.2,0.4,0.2,0.5,0c0.7-1.6,0.3-3.5,0.6-5.2c0.2-1.1,0.6-2.1,0.9-3.2c-0.4,0.1-0.8,0.2-1.3,0.2
					c-0.4,1-0.7,2.1-0.8,3.1c-0.1,0.7-0.3,1.6-0.4,2.4c0.3,0.6,0.6,1.3,0.7,2c0,0.2-0.1,0.4-0.3,0.5
					C48.2,272.4,48.2,272.4,48.3,272.5z"/>
				<path d="M48,272.3c0,0,0.1,0,0.1-0.1c-0.4-0.7-0.5-1.6-0.4-2.5c-0.3-0.5-0.6-1-0.9-1.5c-0.2-0.3-0.5-0.6-0.8-0.9
					c-0.3,0.2-0.6,0.3-0.9,0.4c0.3,0.3,0.6,0.6,0.8,1c0.1,0.1,0.1,0.2,0.2,0.3c0.3,0.3,0.5,0.6,0.7,1
					C47.3,270.8,47.7,271.6,48,272.3z"/>
				<path d="M48.1,272.3c0.1-0.1,0.3-0.3,0.3-0.5c-0.1-0.7-0.3-1.4-0.7-2C47.7,270.7,47.8,271.5,48.1,272.3z"/>
				<path d="M100.1,284.7c0.1,0,0.2-0.1,0.3-0.1c0.3-0.1,0.6-0.2,0.9-0.3c-0.3-0.4-0.5-0.8-0.8-1.2c-0.3,0.1-0.6,0.2-0.9,0.3
					C99.7,283.9,99.9,284.3,100.1,284.7z"/>
				<path d="M100.4,283.1c0.3,0.4,0.6,0.8,0.8,1.2c2.4-0.8,5.3-1.7,7.6-2.9c-0.1-0.2-0.2-0.4-0.2-0.6l-0.3-0.8
					C105.7,280.8,103,282.1,100.4,283.1z"/>
				<path d="M68.3,274.6c-0.1,0.1,0.1,0.3,0.2,0.2c0.4-0.3,0.9-0.4,1.3-0.6c0.4-0.3,0.9-0.5,1.4-0.7c1-0.3,2-0.2,3-0.3
					c0.1,0,0.2-0.1,0.1-0.2c-0.9-0.7-2.1-0.8-3.2-0.6c-0.6,0.1-1.3,0.4-1.8,0.7C68.7,273.5,68.6,274,68.3,274.6z"/>
				<path d="M44.9,267.5c0.1,0.1,0.2,0.2,0.3,0.3c0.3-0.1,0.6-0.3,0.9-0.4c-0.2-0.2-0.3-0.3-0.5-0.5c0,0-0.1,0-0.1-0.1
					c-0.3,0-0.7,0-1,0c0,0.1,0,0.1,0.1,0.2C44.5,267.2,44.7,267.3,44.9,267.5z"/>
				<path d="M80.4,276.3c0.1,0.4,0.5,0.6,0.8,0.2c0.1-0.1,0.1-0.2,0.2-0.3c-0.2-0.5-0.5-1-0.7-1.5c-0.2,0-0.3,0-0.5,0.1
					C80.3,275.2,80.4,275.7,80.4,276.3z"/>
				<path d="M108.9,281.3c1,2.1,3.4,3.1,5.7,2.4c1.2-0.4,2.1-1.2,2.7-2.4c0.1-0.3,0.3-0.6,0.4-1c0.2-0.9,0.2-1.8-0.1-2.6l-0.7-2.2
					c-0.3,0.1-0.7,0.3-1,0.4l0.7,2.2c0.3,0.9,0.2,1.9-0.2,2.7c-0.4,0.9-1.2,1.5-2.1,1.8c-1.7,0.6-3.6-0.3-4.4-1.9
					C109.5,281,109.2,281.2,108.9,281.3z"/>
				<path d="M79.2,274.7c0,0,0.1,0,0.1,0c0.3,0,0.7,0,1-0.1c0-0.3,0-0.7,0-1c-0.4,0.2-0.8,0.5-1.1,0.7c0,0-0.1,0.1-0.1,0.1
					C79.1,274.6,79.1,274.6,79.2,274.7z"/>
				<path d="M79.2,274.7c0-0.1,0-0.1-0.1-0.2C79.1,274.6,79.1,274.7,79.2,274.7z"/>
				<path d="M79.1,274.5c0,0,0-0.1,0.1-0.1c0.4-0.2,0.7-0.5,1.1-0.7c0-0.1,0-0.1,0-0.2c-0.3-0.9-0.7-1.7-1-2.6
					c-0.1-0.4-0.7-0.3-0.7,0.1C78.7,272.1,78.8,273.3,79.1,274.5z"/>
				<path d="M80.3,274.7c0.2,0,0.3,0,0.5-0.1c-0.1-0.3-0.3-0.6-0.4-1c0,0,0,0-0.1,0C80.3,274,80.3,274.3,80.3,274.7z"/>
				<path d="M80.4,273.7c0.1,0.3,0.3,0.6,0.4,1c0.5-0.1,1-0.2,1.5-0.3c0.2-0.6,0.3-1.2,0.4-1.8C81.9,272.9,81.1,273.2,80.4,273.7z"
					/>
				<path d="M82.7,272.5c-0.1,0.6-0.2,1.2-0.4,1.8c2.8-0.6,5.6-1.9,8.3-3c-0.3-0.4-0.6-0.8-1-1.1C87.3,270.9,84.9,271.6,82.7,272.5z
					"/>
				<path d="M108.7,280.8c0.1,0.2,0.1,0.4,0.2,0.6c0.3-0.2,0.6-0.3,1-0.5c-0.1-0.1-0.1-0.3-0.2-0.4l-0.2-0.7
					c-0.4,0.1-0.7,0.2-1.1,0.3L108.7,280.8z"/>
				<path d="M80.3,273.7C80.3,273.7,80.4,273.7,80.3,273.7c0-0.1,0-0.1,0-0.2C80.3,273.6,80.3,273.6,80.3,273.7z"/>
				<path d="M80.3,273.5c0,0,0,0.1,0.1,0.1c0.7-0.4,1.5-0.8,2.3-1.1c0.3-2,0.3-4.2,0.1-6.1c-0.6-0.1-1.3-0.1-2,0
					C80.9,268.8,80.4,271.2,80.3,273.5z"/>
				<path d="M65,268.1c0.1,0.1,0.3,0,0.4-0.1c0.4-0.4,0.4-1,0.2-1.7c0,0.3-0.1,0.7-0.2,1c-0.1,0.3-0.4,0.3-0.6,0.1
					c-0.3-0.4-0.5-0.9-0.7-1.4c0.1,0.2,0.1,0.4,0.1,0.5C64.5,267.2,64.4,267.8,65,268.1z"/>
				<path d="M48.9,264.3c0.4,0,0.8-0.1,1.3-0.2c0-0.1,0.1-0.3,0.1-0.4c0,0,0,0,0,0c0.1-0.3,0.1-0.5,0.1-0.8c0-0.1,0-0.2,0-0.4
					c0-0.1,0-0.3,0-0.4c-0.1,0-0.1,0-0.2,0.1C49.7,262.8,49.2,263.5,48.9,264.3z"/>
				<path d="M64.9,267.5c0.2,0.2,0.5,0.2,0.6-0.1c0.1-0.3,0.2-0.6,0.2-1c-0.2-1-0.9-2.2-1.2-2.8c-0.1-0.2-0.3-0.5-0.5-0.8
					c-0.1,1.1,0,2.2,0.3,3.1c0,0,0,0.1,0,0.1C64.4,266.6,64.6,267.1,64.9,267.5z"/>
				<path d="M50.3,263.7C50.3,263.7,50.3,263.7,50.3,263.7c0.1-0.3,0.1-0.5,0.1-0.8C50.4,263.2,50.3,263.4,50.3,263.7z"/>
				<path d="M50.4,262.9c0,0.3-0.1,0.5-0.1,0.7c1.8-0.6,3.5-1.2,5.4-1.5c2.1-0.3,4.2-0.4,6.2-0.3c-0.4-0.4-0.7-0.7-0.9-1.2
					c-1.9-0.2-4.2,0.3-5.8,0.5c-1.4,0.2-3.2,0.4-4.7,0.9c0,0.1,0,0.2,0,0.4C50.5,262.7,50.4,262.8,50.4,262.9z"/>
				<path d="M50.5,262.5c0,0.1,0,0.2,0,0.4C50.4,262.8,50.5,262.7,50.5,262.5z"/>
				<path d="M50.3,262.2c0.1,0,0.1,0,0.2-0.1c0,0,0,0,0,0c0,0,0,0-0.1,0C50.4,262.2,50.3,262.2,50.3,262.2z"/>
				<path d="M63.5,264.2c0.3,0.6,0.5,1.1,0.7,1.7c-0.3-0.9-0.3-2-0.3-3.1c-0.3-0.4-0.6-0.9-1-1.3c-0.3,0.2-0.7,0.3-1,0.4
					c0,0,0.1,0.1,0.1,0.1C62.6,262.8,63.1,263.5,63.5,264.2z"/>
				<path d="M90.5,271.3c0.4-0.2,0.8-0.4,1.3-0.5c-0.3-0.4-0.6-0.7-0.9-1.1c-0.4,0.2-0.9,0.3-1.3,0.5
					C89.9,270.5,90.2,270.9,90.5,271.3z"/>
				<path fill="#D69154" d="M82.7,272.5c2.2-0.9,4.6-1.6,6.9-2.4c-0.7-0.8-1.5-1.5-2.3-2.1c-1.5-1-2.9-1.5-4.4-1.7
					C83,268.4,83,270.5,82.7,272.5z"/>
				<path d="M64.4,263.7c0.3,0.6,1,1.7,1.2,2.8c0.2-1.9-0.1-3.9,0.2-5.8c0.3-1.8,0.9-3.4,1.6-5c-0.4,0.1-0.8,0.2-1.2,0.3
					c-1.2,1.9-2.1,4.6-2.3,7C64.1,263.2,64.3,263.4,64.4,263.7z"/>
				<path d="M90.9,269.7c0.3,0.3,0.6,0.7,0.9,1.1c0.4-0.2,0.8-0.3,1.2-0.5c3.4-1.3,7.1-2.6,10.3-4.4c0-0.4-0.1-0.7,0-1.1
					c-3.9,1.2-7.7,3.1-11.4,4.6C91.6,269.5,91.2,269.6,90.9,269.7z"/>
				<path d="M89.6,270.2c0.5-0.1,0.9-0.3,1.3-0.5c-1.2-1.4-2.6-2.6-4.2-3.4c-1.3-0.7-2.7-1.2-4.1-1.2c0.1,0.4,0.1,0.9,0.2,1.4
					c1.5,0.1,2.9,0.6,4.4,1.7C88.1,268.7,88.9,269.4,89.6,270.2z"/>
				<path d="M107.8,274.7c0,0.1,0.2,0,0.1-0.1c-0.7-1.9-1.4-3.8-2.1-5.7c-0.4-1.2-0.7-2.6-1.3-3.7c-0.3,0.2-0.6,0.3-0.8,0.5
					c-0.1,0.1-0.2,0.1-0.3,0.1c0.2,1.2,0.8,2.3,1.3,3.5C105.5,271.3,106.5,273,107.8,274.7z"/>
				<path d="M115.8,275.9c0.3-0.1,0.7-0.2,1-0.4l-0.4-1.3c-0.3,0.1-0.7,0.2-1,0.4L115.8,275.9z"/>
				<path d="M61.9,261.9C61.9,262,61.9,262,61.9,261.9c0.4,0,0.8-0.1,1.1-0.3c-0.2-0.2-0.4-0.5-0.7-0.6c-0.4-0.1-0.8-0.2-1.3-0.3
					C61.2,261.2,61.5,261.6,61.9,261.9z"/>
				<path d="M116.4,274.3l0.4,1.3c5.7-2,11.3-4.3,17-6.3c5.7-2.1,11.6-4,17.2-6.3l-0.3-0.8c-6.1,1.9-12.1,4.4-18,6.5
					C127.3,270.5,121.8,272.3,116.4,274.3z"/>
				<path d="M80.8,266.4c0.7,0,1.3,0,2,0c0-0.5-0.1-1-0.2-1.4c0,0-0.1,0-0.2,0c-0.5,0-1.2,0-1.7,0.1
					C80.8,265.5,80.8,265.9,80.8,266.4z"/>
				<path d="M112.2,265.3l3.1,9.4c0.3-0.1,0.7-0.3,1-0.4l-3.1-9.3C112.9,265.1,112.6,265.2,112.2,265.3z"/>
				<path d="M79.8,265.6C79.9,265.6,79.9,265.6,79.8,265.6C79.9,265.6,79.9,265.6,79.8,265.6C79.9,265.6,79.8,265.6,79.8,265.6z"/>
				<g>
					<defs>
						<path id="BBQDXMLID_12_" d="M113.3,264.9l3.1,9.3c5.4-2,10.9-3.8,16.3-5.8c5.9-2.1,11.9-4.6,18-6.5c0.5-0.2,1.1-0.3,1.6-0.5
							l0.2,0.6l3.7,10.8c0.9,2.6,2.8,4.7,5.3,5.9c2.5,1.2,5.3,1.4,7.9,0.5l64.7-22.3c5.4-1.9,8.3-7.8,6.4-13.2l-11.5-33.6
							c-0.9-2.6-2.8-4.7-5.3-5.9c-2.5-1.2-5.3-1.4-7.9-0.5l-64.7,22.3c-5.4,1.9-8.3,7.8-6.4,13.2l3.9,11.3l0.3,0.8
							c-0.5,0.3-1,0.5-1.5,0.7c-2,0.9-4.1,1.5-6.1,2.3c-3.7,1.4-7.3,2.7-11,4C124.6,260.6,119,263.1,113.3,264.9z M178.5,267.5
							c-1.8,0.6-3.8-0.3-4.4-2.1L174,265c-0.3-0.9-0.2-1.8,0.2-2.7c0.4-0.8,1.1-1.5,2-1.8l43.8-15.1c1.8-0.6,3.8,0.3,4.4,2.2
							l0.1,0.3c0.2,0.7,0.2,1.3,0.1,2c-0.3,1.1-1.1,2-2.2,2.4L178.5,267.5z M175.2,257.7c-0.9,0.3-1.8,0.2-2.7-0.2
							c-0.8-0.4-1.5-1.1-1.8-2l-0.1-0.3c-0.3-0.9-0.2-1.8,0.2-2.7c0.4-0.8,1.1-1.5,2-1.8l43.8-15.1c1.8-0.6,3.8,0.3,4.4,2.1l0.1,0.3
							c0.2,0.6,0.2,1.3,0.1,2c-0.1,0.2-0.1,0.5-0.2,0.7c-0.4,0.8-1.1,1.5-2,1.8L175.2,257.7z M171.4,246.8c-0.9,0.3-1.8,0.2-2.7-0.2
							c-0.8-0.4-1.5-1.1-1.8-2l-0.1-0.3c-0.6-1.8,0.3-3.8,2.2-4.4l43.8-15.1c1.8-0.6,3.8,0.3,4.4,2.1l0.1,0.3c0.2,0.6,0.3,1.3,0.1,2
							c-0.1,0.2-0.1,0.5-0.3,0.7c-0.4,0.8-1.1,1.5-2,1.8L171.4,246.8z M168,237c-0.9,0.3-1.8,0.2-2.6-0.2c-0.8-0.4-1.5-1.1-1.8-2
							l-0.1-0.3c-0.6-1.8,0.3-3.8,2.2-4.4l43.8-15.1c1.8-0.6,3.8,0.3,4.4,2.2l0.1,0.3c0.2,0.7,0.2,1.3,0.1,2c-0.3,1.1-1.1,2-2.2,2.4
							L168,237z"/>
					</defs>
					<use xlink:href="#BBQDXMLID_12_"  overflow="visible" fill="#BBBCBF"/>
					<clipPath id="BBQDXMLID_43_">
						<use xlink:href="#BBQDXMLID_12_"  overflow="visible"/>
					</clipPath>
					<polygon clip-path="url(#BBQDXMLID_43_)" fill="#D0D1D3" points="145.2,219.8 224.8,271.4 248.8,259.6 166.8,211.8 					"/>
					<polygon clip-path="url(#BBQDXMLID_43_)" fill="#D0D1D3" points="180.8,213.1 255.8,255.1 251.2,246.6 182.2,209.3 					"/>
				</g>
				<path d="M80.7,265c0,0,0,0.1,0,0.1c0.6-0.1,1.2-0.1,1.7-0.1c0.1,0,0.1,0,0.2,0c0-0.3-0.1-0.5-0.1-0.8c-0.5-3.3-1.5-6.5-3.1-9.4
					c-0.4,0-0.8,0-1.3,0c0,0.1,0.1,0.1,0.1,0.2c0,0-0.1,0-0.1,0C79.4,258.3,80.4,261.5,80.7,265z"/>
				<path id="BBQDXMLID_11_" d="M160.8,280.5c2.9,1.4,6.2,1.6,9.2,0.6l64.7-22.3c4-1.4,6.8-4.6,7.8-8.4c0.6-2.2,0.5-4.6-0.3-6.9
					l-11.5-33.6c-1-3-3.2-5.5-6.1-6.9c-2.9-1.4-6.2-1.6-9.2-0.6l-64.7,22.3c-6.3,2.2-9.6,9-7.5,15.3l3.8,11.1
					c0.5-0.2,1.1-0.3,1.6-0.4l-3.9-11.3c-1.9-5.4,1-11.3,6.4-13.2l64.7-22.3c2.6-0.9,5.4-0.7,7.9,0.5c2.5,1.2,4.4,3.3,5.3,5.9
					l11.5,33.6c1.9,5.4-1,11.3-6.4,13.2l-64.7,22.3c-2.6,0.9-5.4,0.7-7.9-0.5c-2.5-1.2-4.4-3.3-5.3-5.9l-3.7-10.8
					c-0.5,0.2-1,0.5-1.5,0.7l3.7,10.7C155.7,276.6,157.9,279.1,160.8,280.5z"/>
				<path d="M103.3,265.8c0.1,0,0.2-0.1,0.3-0.1l-0.1-0.3c-0.1-0.2-0.1-0.4-0.2-0.6c0,0,0,0,0,0
					C103.3,265.1,103.3,265.5,103.3,265.8z"/>
				<path d="M103.6,265.7c0.3-0.2,0.6-0.3,0.8-0.5c-0.1-0.2-0.3-0.4-0.4-0.7c-0.2,0.1-0.4,0.1-0.7,0.2c0,0.2,0.1,0.4,0.2,0.6
					L103.6,265.7z"/>
				<path d="M66.2,255.9c0.4-0.1,0.8-0.2,1.2-0.3c0-0.1,0.1-0.2,0.1-0.4c-0.2,0-0.4,0.1-0.5,0.1c0.1-0.3,0.2-0.6,0.4-1
					c0.1-0.1,0.2-0.2,0.3-0.4C67.1,254.5,66.6,255.1,66.2,255.9z"/>
				<path d="M104.5,265.2c0,0,0.1,0,0.1-0.1l0-0.1c-0.1-0.2-0.1-0.4-0.1-0.6c-0.1,0-0.3,0.1-0.4,0.1
					C104.2,264.8,104.3,265,104.5,265.2z"/>
				<path d="M103.3,264.8C103.3,264.8,103.4,264.8,103.3,264.8c0,0,0-0.1,0-0.1C103.3,264.7,103.3,264.7,103.3,264.8z"/>
				<path d="M103.4,264.8c0.2-0.1,0.4-0.1,0.7-0.2c-0.1-0.1-0.2-0.2-0.3-0.3c-0.1-0.1-0.3-0.1-0.4,0.1c0,0.1,0,0.2-0.1,0.3
					C103.3,264.7,103.4,264.7,103.4,264.8z"/>
				<path d="M103.3,264.6c0-0.1,0-0.2,0.1-0.3c0-0.2,0.2-0.2,0.4-0.1c0.1,0.1,0.2,0.2,0.3,0.3c0.1,0,0.3-0.1,0.4-0.1
					c-0.1-0.5-0.1-1,0.1-1.4c0.1-0.3,0.2-0.5,0.3-0.7c0.4-0.9,1.2-1.5,2.1-1.8c0.9-0.3,1.9-0.2,2.7,0.2c0.9,0.4,1.5,1.2,1.8,2.1
					l0.4,1.2c0.3-0.1,0.7-0.3,1-0.4l-0.4-1.1c-0.4-1.2-1.2-2.1-2.4-2.7c-1.1-0.6-2.4-0.7-3.6-0.3C104.3,260.2,103,262.4,103.3,264.6
					z"/>
				<path d="M67,255.3c0.2,0,0.4-0.1,0.5-0.1c0.1-0.4,0.3-0.8,0.4-1.1c0-0.1-0.1-0.2-0.2-0.1c0,0,0,0,0,0c-0.1,0.1-0.2,0.3-0.3,0.4
					C67.2,254.7,67.1,255,67,255.3z"/>
				<path d="M67.9,254.1c-0.1,0.4-0.3,0.8-0.4,1.1c1.5-0.3,2.9-0.6,4.4-0.6c2.1-0.1,4.2,0.3,6.4,0.4c0-0.1-0.1-0.1-0.1-0.2
					c-0.2-0.4-0.3-0.9-0.5-1.3c-2.1-0.5-4.4-0.5-6.4-0.5c-1,0-2.1,0.1-3.3,0.2c-0.1,0.3-0.2,0.5-0.4,0.8c0,0,0,0,0,0
					C67.8,253.9,67.9,254,67.9,254.1z"/>
				<path d="M112.2,265.3c0.3-0.1,0.7-0.2,1-0.3l-0.5-1.4c-0.3,0.1-0.7,0.3-1,0.4L112.2,265.3z"/>
				<path d="M112.8,263.5l0.5,1.4c5.7-1.9,11.4-4.4,16.9-6.4c3.7-1.3,7.3-2.7,11-4c2-0.8,4.2-1.4,6.1-2.3l-0.4-1.1
					c-2.3,0.7-4.6,1.7-6.9,2.5c-3.7,1.3-7.3,2.7-11,4C123.8,259.7,118.1,261.3,112.8,263.5z"/>
				<path d="M78.2,254.8c0,0.1,0.1,0.1,0.1,0.2c0,0,0.1,0,0.1,0C78.3,255,78.3,254.9,78.2,254.8C78.2,254.8,78.2,254.8,78.2,254.8z"
					/>
				<path d="M78.2,254.8C78.2,254.8,78.2,254.8,78.2,254.8c-0.1-0.4-0.2-0.9-0.4-1.3c0,0-0.1,0-0.1,0C77.8,254,78,254.4,78.2,254.8z
					"/>
				<path d="M78.2,254.8c0.4,0,0.8,0,1.3,0c-0.2-0.4-0.5-0.8-0.7-1.2c-0.4-0.1-0.8-0.2-1.2-0.3c0,0.1,0,0.1,0.1,0.2c0,0,0.1,0,0.1,0
					C77.9,254,78.1,254.4,78.2,254.8z"/>
				<path d="M150.7,262l0.3,0.8c0.5-0.2,1-0.4,1.5-0.7l-0.2-0.6C151.8,261.7,151.3,261.9,150.7,262z"/>
				<path fill="#BBBCBF" d="M174.1,265.4c0.6,1.8,2.6,2.8,4.4,2.1l43.8-15.1c1.2-0.4,2-1.3,2.2-2.4c0.2-0.6,0.2-1.3-0.1-2l-0.1-0.3
					c-0.6-1.8-2.6-2.8-4.4-2.2l-43.8,15.1c-0.9,0.3-1.6,0.9-2,1.8c-0.4,0.8-0.5,1.8-0.2,2.7L174.1,265.4z M178,265.9
					c-0.9,0.3-2-0.2-2.3-1.1l-0.1-0.3c-0.2-0.4-0.1-0.9,0.1-1.4s0.6-0.7,1-0.9l43.8-15.1c0.9-0.3,2,0.2,2.3,1.1l0.1,0.3
					c0.3,0.9-0.2,2-1.1,2.3L178,265.9z"/>
				<path d="M147,251.1l0.4,1.1c0.5-0.2,1-0.5,1.5-0.7l-0.3-0.8C148.1,250.8,147.5,251,147,251.1z"/>
				<path fill="#BBBCBF" d="M172.5,257.5c0.8,0.4,1.8,0.5,2.7,0.2l43.8-15.1c0.9-0.3,1.6-0.9,2-1.8c0.1-0.2,0.2-0.4,0.2-0.7
					c0.2-0.6,0.1-1.3-0.1-2l-0.1-0.3c-0.6-1.8-2.6-2.8-4.4-2.1l-43.8,15.1c-0.9,0.3-1.6,0.9-2,1.8c-0.4,0.8-0.5,1.8-0.2,2.7l0.1,0.3
					C171,256.4,171.7,257.1,172.5,257.5z M174.6,256.1c-0.4,0.1-0.9,0.1-1.4-0.1c-0.4-0.2-0.7-0.6-0.9-1l-0.1-0.3
					c-0.2-0.4-0.1-0.9,0.1-1.4c0.2-0.4,0.6-0.8,1-0.9l43.8-15.1c0.9-0.3,2,0.2,2.3,1.1l0.1,0.3c0.1,0.4,0.1,0.9-0.1,1.4
					c-0.2,0.4-0.6,0.7-1,0.9L174.6,256.1z"/>
				<path fill="#BBBCBF" d="M168.8,246.7c0.8,0.4,1.8,0.5,2.7,0.2l43.8-15.1c0.9-0.3,1.6-0.9,2-1.8c0.1-0.2,0.2-0.4,0.3-0.7
					c0.2-0.6,0.1-1.3-0.1-2l-0.1-0.3c-0.6-1.8-2.6-2.8-4.4-2.1L169,239.9c-1.8,0.6-2.8,2.6-2.2,4.4l0.1,0.3
					C167.3,245.5,167.9,246.3,168.8,246.7z M170.9,245.2c-0.4,0.2-0.9,0.1-1.4-0.1c-0.4-0.2-0.8-0.6-0.9-1l-0.1-0.3
					c-0.1-0.3-0.1-0.7,0-1c0.1-0.6,0.6-1,1.2-1.3l43.8-15.1c0.9-0.3,2,0.2,2.3,1.1l0.1,0.3c0.2,0.4,0.1,0.9-0.1,1.4
					c-0.2,0.4-0.6,0.7-1,0.9L170.9,245.2z"/>
				<path fill="#BBBCBF" d="M165.4,236.8c0.8,0.4,1.8,0.5,2.6,0.2l43.8-15.1c1.2-0.4,2-1.3,2.2-2.4c0.2-0.6,0.2-1.3-0.1-2l-0.1-0.3
					c-0.6-1.8-2.6-2.8-4.4-2.2l-43.8,15.1c-1.8,0.6-2.8,2.6-2.2,4.4l0.1,0.3C163.9,235.7,164.6,236.4,165.4,236.8z M167.5,235.4
					c-0.4,0.2-0.9,0.1-1.4-0.1c-0.4-0.2-0.7-0.6-0.9-1l-0.1-0.3c-0.3-0.9,0.2-2,1.1-2.3l43.8-15.1c0.9-0.3,2,0.2,2.3,1.1l0.1,0.3
					c0.3,0.9-0.2,2-1.1,2.3L167.5,235.4z"/>
			</g>
		</g>
	</g>
</g>
</svg>
