<svg version="1.1" xmlns="http://www.w3.org/2000/svg" xmlns:xlink="http://www.w3.org/1999/xlink" x="0px" y="0px"
	 viewBox="0 0 310 238.5" enable-background="new 0 0 310 238.5" xml:space="preserve">
<g id="lady">
	<defs>
		<rect id="WLSVGID_1_" x="0.3" width="317.2" height="248.5"/>
	</defs>
	<clipPath id="WLSVGID_2_">
		<use xlink:href="#WLSVGID_1_"  overflow="visible"/>
	</clipPath>
	<g clip-path="url(#WLSVGID_2_)">
		<g opacity="0.6">
			<path fill="#2D4C34" d="M253.9,67.2c-0.6-0.1-1.1-0.2-1.7-0.2c0.4-0.4,0.7-0.9,1-1.3c0.3-0.4-0.2-0.9-0.5-0.5
				c-0.6,0.6-1.1,1.2-1.6,1.8c-9-1.1-18.3-1.3-27.3-1.8c-7.2-0.4-14.9-1.3-22.3-1.1c-0.3,0-0.7,0-1,0c-0.4,0.6-0.8,1.2-1.1,1.8
				c-2.8,4.5-5.4,9.2-8,13.8c-1.8,3.2-3.6,6.5-5.4,9.7c-1.5,2.7-3,6.4-5.3,8.4c-5,4.2-11.1,1.3-16.5,3.9c-3.5,1.7-6,5.3-7.2,9.3
				c-3.3,10.6,2.7,22.4,8,30.9c2.9,4.6,6.3,8.8,10,12.7c1.7,1.7,3.6,3.8,5.6,5.6c1.2,9,2.9,18,4.4,27c0.4,2.3,1.4,12,4.5,14.8
				c-0.7,0.7-1.3,1.5-1.6,2.6c-0.9,2.9,0.5,6.1,2.8,7.7c-1.2,1.7-1,3.8-0.1,5.5c-1.9,3.9,0.7,7.7,4.3,9.1c0.1,1.3,0.5,2.7,1,3.6
				c1.3,2.7,3.8,4.6,6.5,5.2c2.5,0.6,5.2-0.1,7-2.2c0.6-0.7,1.1-1.8,1.3-2.8c0.2-0.1,0.2-0.4,0.1-0.5c0,0,0,0,0-0.1
				c-0.4-0.7-0.9-1.1-1.4-1.6c-0.8-0.7-1.7-1.4-2.3-2.6c-0.7-1.3-0.9-2.6-0.8-3.9c2.7-4.3,3.5-10.2,3.1-15.8c1.8-4,3.4-8,4.9-12.3
				c3.8-11.3,6.6-23.2,8-35.2c2.4-19.3,0.3-39.1,3.5-58.1c1.9-2.6,3.9-5.1,5.9-7.7c6.4-8.2,13.1-16.2,19.4-24.4c1,0,2,0.1,3,0.1
				C254.8,68.7,254.7,67.3,253.9,67.2z"/>
		</g>
		<path opacity="0.6" fill="#2D4C34" d="M313.6-12.4c-0.9,1.4-1.8,2.8-2.7,4.2c-2.2-0.3-4.5-0.5-6.7-0.7c-0.8-0.1-1.7-0.2-2.5-0.3
			c-11.1-1.1-22.2-2.1-33.2-3c0.9-1.8,1.6-3.6,2.1-5.4c0.1-0.2-0.2-0.4-0.3-0.2c-1.7,1.6-3,3.5-4.2,5.5c-5.7-0.5-11.3-1-16.9-1.6
			c-2.1-0.2-4.3-0.4-6.4-0.6c-0.4,0-0.9-0.1-1.3-0.1c-4-0.4-8.1-0.8-12.2-1.2c-1.7-0.2-3.4-0.3-5.1-0.5c-16.2-1.6-32.5-3.3-48.7-5
			c-2.7-0.3-5.4-0.6-8.1-0.9c-0.7-0.1-1.4-0.1-2.1-0.2c-11.4-1.2-22.8-2.4-34.3-3.7c-0.7-0.1-1.5-0.2-2.2-0.2
			c-2.4-0.3-4.7-0.5-7.1-0.8c-0.6-0.1-1.3-0.1-1.9-0.2c-30-3.3-60-6.7-90.1-10.2C23-38.4,16.3-39.2,9.7-40c-0.5-0.1-1-0.1-1.5-0.2
			c-2.5-0.3-5.1-0.6-7.6-0.9c-0.4,0-0.9-0.1-1.3-0.2c-11.4-1.4-22.8-2.8-34.1-4.1c-0.3,0-0.6-0.1-0.9-0.1c0.2,0.7,0.3,1.3,0.5,2
			c8.2,34.4,30.6,64.1,61,78.4C33.7,61,57.3,80.8,80.2,89.8c2.4,2.3,5,4.2,7.3,6c4.9,3.7,10.2,6.7,15.7,9.1c10.9,4.7,23,7.2,34.7,6
			c11.3-1.2,22.3-5.2,32-11.6c2.2-1.5,4.4-3,6.4-4.8c4.2-0.9,8.4-1.8,12.5-2.9c10-2.6,19.8-5.9,29.4-9.9c7.9-3.3,16.1-6.9,23.4-11.6
			c1.6,2.5,3.2,5,5,7.4c0.2,0.3,0.4,0.6,0.7,0.9c0.3-0.1,0.5-0.1,0.8-0.2c4.6-1.3,8.9-3.7,12.9-6.6c2.9-2.1,6.2-4.5,8.8-7.5
			c0.7-0.7,1.3-1.5,1.8-2.3c-0.5-0.5-1.1-1-1.6-1.4c-0.1-0.1-0.2-0.2-0.4-0.3c1.6-1.5,2.9-3.4,4.1-4.9c1.8-2.2,3.3-4.6,4.7-7.2
			c0.2-0.3,0.3-0.6,0.4-0.8c-0.2-0.2-0.3-0.3-0.5-0.5c-0.6-0.5-1.1-1.1-1.7-1.6c1.3-1.6,2.5-3.3,3.8-4.9c4.1-5.2,8.1-10.5,11.9-16
			C299,14.9,305.6,5.3,311-4.9c0.5-1,1-2,1.5-3c0.7-1.3,1.3-2.6,1.9-3.9C314.7-12.5,313.9-12.9,313.6-12.4z"/>
		<g id="WLXMLID_19_">
			<g id="WLXMLID_20_">
				<path fill="#272525" d="M195.4,16.3c0.6-0.1,1.3-0.2,1.9-0.2c1-0.1,1.4,1.3,0.4,1.5c-1.1,0.3-2.2,0.5-3.2,0.8
					C194.8,17.7,195.1,17,195.4,16.3z"/>
				<path fill="#272525" d="M194.2,16.5c0.4-0.1,0.8-0.1,1.2-0.2c-0.3,0.7-0.6,1.4-1,2c-0.5,0.1-1,0.2-1.5,0.3
					C193.3,18,193.8,17.2,194.2,16.5z"/>
				<path fill="#272525" d="M195.4,16.3c-0.4,0.1-0.8,0.1-1.2,0.2c0.4-0.7,0.9-1.5,1.3-2.2c0.3-0.4,0.9-0.1,0.7,0.4
					C195.9,15.3,195.7,15.8,195.4,16.3z"/>
				<path fill="#272525" d="M179.8,47.7c-1.5,3-2.9,6.1-4.3,9.2c-0.1-1.1-0.1-2.2-0.2-3.3c0.9-2,1.9-3.9,2.8-5.9
					c4.7-9.7,9.4-19.6,14.8-29c0.5-0.1,1-0.2,1.5-0.3C189.7,28.2,184.6,37.8,179.8,47.7z"/>
				<path fill="#272525" d="M175.5,56.8c-0.6,1.2-1.1,2.4-1.7,3.6c-0.1-1.1-0.2-2.1-0.2-3.2c0.6-1.2,1.2-2.5,1.7-3.7
					C175.3,54.6,175.4,55.7,175.5,56.8z"/>
				<path fill="#272525" d="M164.5,22.3c9.8-2,19.7-4.4,29.7-5.8c-0.4,0.7-0.9,1.5-1.3,2.2c-9.2,2-18.6,3.5-27.9,5.4
					c-8.2,1.7-16.7,4.3-25.1,5.4c0.2-0.7,0.4-1.5,0.6-2.3C148.3,25,156.7,23.9,164.5,22.3z"/>
				<path fill="#272525" d="M192.1,188c0.1,0.1,0.1,0.4,0,0.5C192.1,188.3,192.1,188.1,192.1,188C192,187.9,192.1,188,192.1,188z"/>
				<path fill="#272525" d="M183.2,161.6c0.6-4.5,1.1-9,1.4-13.4c1-12.8,0.7-25.8-1-38.6c-1.7-12.5-5.3-24.5-7.8-36.8
					c-0.8-4.1-1.6-8.3-1.9-12.5c0.6-1.2,1.1-2.4,1.7-3.6c1.3,19.5,8.6,38.3,10.9,57.9c1.4,12.2,1.5,24.5,0.2,36.7
					c-0.5,4.6-1.2,9-2.1,13.4C184.1,163.7,183.6,162.7,183.2,161.6z"/>
				<path fill="#272525" d="M192,187.9c0,0.2,0.1,0.4,0.1,0.6c0,0-0.1,0-0.1,0.1c-0.7,0.3-1.4,0.3-2.1,0.1c0-0.6,0-1.2,0.1-2
					C190.8,187,191.5,187.4,192,187.9z"/>
				<path fill="#272525" d="M183.7,168.4c-0.3-1.2-0.6-2.5-1-3.7c0.2-1,0.3-2,0.4-3c0.5,1,0.9,2.1,1.3,3.2
					C184.2,166,184,167.2,183.7,168.4z"/>
				<path fill="#272525" d="M184.5,164.8c1.9,5.3,2.5,11.4,0.7,16.3c-0.3-1.4-0.3-2.9-0.5-4.5c0-0.2-0.2-0.3-0.3-0.1
					c0,0-0.1,0.1-0.1,0.1c0-0.2,0-0.5,0.1-0.7c0.2-2.6-0.1-5.1-0.6-7.6C184,167.2,184.2,166,184.5,164.8z"/>
				<path fill="#D39659" d="M173.9,187.4c-3.2-0.2-5.9-2.1-5.6-5.4c1.4,1,3.1,1.5,4.9,1.3c4.2-0.6,6.5-3.4,7.5-6.8
					c0.2-0.8,0.4-1.6,0.5-2.5c0.4-3.1,0.1-6.5-0.5-9.2l1.9-0.6c0.1,0.2,0.1,0.4,0.2,0.6c0.4,1.2,0.7,2.4,1,3.7
					c0.5,2.5,0.7,5,0.6,7.6c0,0.2,0,0.5-0.1,0.7c-0.1,1.3-0.4,2.6-0.8,3.8c-0.6,1.8-1.5,3.4-2.8,4.7c-0.6,0.6-1.4,1.1-2.2,1.5
					c-0.1,0.1-0.3,0.1-0.4,0.2c-0.8,0.3-1.7,0.5-2.6,0.6C174.9,187.4,174.4,187.4,173.9,187.4z"/>
				<path fill="#272525" d="M182.6,164.1c-0.9-2.8-2.1-5.5-3.4-8.2c-0.1-0.2,0.2-0.4,0.3-0.3c1.4,1.7,2.6,3.7,3.7,6
					c-0.1,1-0.3,2-0.4,3C182.7,164.5,182.6,164.3,182.6,164.1z"/>
				<path fill="#272525" d="M185.1,181.2c0.3,1.3,0.8,2.5,1.9,3.6c0.9,1,2,1.4,3.1,1.9c-0.2,0.7-0.2,1.3-0.1,2
					c-1.8-0.4-3.7-2.1-4.7-3.4c-0.4-0.6-0.8-1.2-1.1-1.9C184.5,182.6,184.9,181.9,185.1,181.2z"/>
				<path fill="#272525" d="M184.3,176.6c0.1-0.2,0.3-0.1,0.3,0.1c0.2,1.6,0.2,3.1,0.5,4.5c-0.3,0.7-0.6,1.4-1,2.1
					c-0.4-0.9-0.7-1.9-0.8-2.8c0.4-1.2,0.7-2.5,0.8-3.8C184.2,176.7,184.2,176.6,184.3,176.6z"/>
				<path fill="#D39659" d="M176.4,189.9c-0.2-0.3-0.3-0.6-0.5-0.9c1.9-0.1,3.9-0.8,5.4-2.2c1.2-1,2.1-2.2,2.8-3.5
					c0.3,0.7,0.7,1.4,1.1,1.9c1,1.3,2.8,3,4.7,3.4c0,1,0,1.9-1,3.1c-1.6,1.8-4.3,2.3-6.6,2C179.9,193.4,177.8,192,176.4,189.9z"/>
				<path fill="#272525" d="M181.1,173.9c-0.1,0.9-0.3,1.7-0.5,2.5C180.8,175.6,181,174.8,181.1,173.9z"/>
				<path fill="#272525" d="M139.9,29.6c-0.4,0.1-0.8,0.1-1.2,0.2c0.2-0.7,0.5-1.4,0.8-2.1c0.3-0.1,0.7-0.2,1-0.3
					C140.2,28.1,140.1,28.8,139.9,29.6z"/>
				<path fill="#272525" d="M178,186.8c0.1-0.1,0.3-0.1,0.4-0.2c-0.1,0.2-0.1,0.3-0.2,0.5c-0.1,0.2-0.4,0.1-0.3-0.1
					C177.9,187,178,186.9,178,186.8z"/>
				<path fill="#272525" d="M175.4,187.4c0.9-0.1,1.8-0.3,2.6-0.6c0,0.1,0,0.2-0.1,0.2c-0.1,0.2,0.2,0.3,0.3,0.1
					c0.1-0.2,0.1-0.3,0.2-0.5c0.8-0.4,1.6-0.8,2.2-1.5c1.3-1.3,2.2-3,2.8-4.7c0.1,1,0.4,1.9,0.8,2.8c-0.7,1.3-1.7,2.5-2.8,3.5
					c-1.5,1.4-3.5,2.1-5.4,2.2C175.7,188.5,175.5,188,175.4,187.4z"/>
				<path fill="#272525" d="M182.4,193.7c2.3,0.3,5-0.1,6.6-2c1-1.2,1-2.1,1-3.1c0.7,0.2,1.4,0.2,2.1-0.1c0,0,0.1,0,0.1-0.1
					c0.1,1-0.3,2.2-0.7,3.1c-1.3,2.6-4.1,4-6.9,4.1c-3.1,0.1-6.2-1-8.3-3.4c-0.7-0.8-1.5-2-2-3.3c0.5,0.1,1.1,0.1,1.7,0
					c0.1,0.3,0.3,0.6,0.5,0.9C177.8,192,179.9,193.4,182.4,193.7z"/>
				<path fill="#272525" d="M174.3,189c-0.2-0.5-0.3-1.1-0.4-1.6c0.5,0,1,0,1.5,0c0.2,0.5,0.3,1.1,0.6,1.6
					C175.4,189.1,174.8,189.1,174.3,189z"/>
				<path fill="#272525" d="M174,157.7c6.6,5.6,2.7,19.7-6.9,18.3c-0.1,0-0.2,0-0.2,0c0.1-0.5,0.3-0.9,0.6-1.4
					c1.5,0.2,3.2-0.2,4.5-1.1c2.7-1.7,3.9-5,3.8-8c-0.1-2.7-1.5-5-2.2-7.6C173.5,157.6,173.8,157.5,174,157.7z"/>
				<path fill="#272525" d="M180.6,164.7c0.6,2.7,0.9,6.1,0.5,9.2c-0.2,0.8-0.3,1.7-0.5,2.5c-1,3.5-3.2,6.3-7.5,6.8
					c-1.8,0.2-3.5-0.3-4.9-1.3c0-0.4,0.1-0.8,0.2-1.2c0.2,0.2,0.4,0.4,0.7,0.5c2.9,1.7,6.2,0.4,8.2-2c3.4-3.9,2.9-9.7,3-14.5
					C180.4,164.6,180.6,164.6,180.6,164.7z"/>
				<path fill="#272525" d="M164.2,164.2c0.6,0,1.4-0.1,2.1-0.4c0.4-0.1,0.6,0.4,0.4,0.7c0,0,0,0,0,0c-1.3,0.3-2.4,0.9-3.1,1.8
					c-0.5,0-0.9-0.1-1.4-0.3C162.7,165.2,163.4,164.6,164.2,164.2z"/>
				<path fill="#272525" d="M166.4,163.8c-0.8,0.3-1.5,0.4-2.1,0.4c0.9-0.5,1.9-0.7,3-0.6c0.5,0.1,0.5,0.7,0,0.7
					c-0.2,0-0.3,0.1-0.5,0.1c0,0,0,0,0,0C166.9,164.2,166.8,163.7,166.4,163.8z"/>
				<path fill="#272525" d="M167.5,174.6c-0.3,0.4-0.5,0.9-0.6,1.4c-0.3,0-0.6-0.1-0.9-0.2c0.2-0.4,0.4-0.9,0.8-1.3
					C167,174.5,167.2,174.5,167.5,174.6z"/>
				<path fill="#AC6B40" d="M167.1,176c9.6,1.4,13.5-12.8,6.9-18.3c-0.2-0.2-0.5,0-0.4,0.2c0.7,2.6,2.1,4.8,2.2,7.6
					c0.1,3.1-1.1,6.3-3.8,8c-1.4,0.9-3,1.3-4.5,1.1c-0.2,0-0.4-0.1-0.6-0.1c-1.5-0.3-2.9-1.2-3.7-2.7c-1.1-2-0.8-4,0.5-5.4
					c0.8-0.9,1.9-1.6,3.1-1.8c0.2,0,0.3-0.1,0.5-0.1c0.5-0.1,0.5-0.7,0-0.7c-1.1-0.1-2.1,0.1-3,0.6c-4.5,0.1-6.1-5.3-7.7-8.9
					c-1.9-4.2-3.8-8.4-5.7-12.6c-2.2-4.8-4.3-9.6-6.6-14.4c-0.5-1-1-2-1.4-3c-0.6-0.3-1.2-0.6-1.8-0.9c-1.8-0.9-3.5-1.8-5.1-2.8
					c-5-3.2-9.6-6.9-14-11c-8-7.4-19.9-19.9-13.1-31.5c3.3-5.5,9.5-5.3,14.7-8c3.8-2,5.5-5.5,6.8-9.4c3.6-10.5,6.9-21.3,9.6-32.1
					c8.4-1.2,16.9-3.8,25.1-5.4c9.2-1.9,18.7-3.4,27.9-5.4c-5.4,9.4-10.1,19.2-14.8,29c-0.9,1.9-1.9,3.9-2.8,5.9
					c-0.6,1.2-1.2,2.4-1.7,3.7c0,1.1,0.1,2.1,0.2,3.2c0.4,4.2,1.1,8.4,1.9,12.5c2.5,12.3,6.2,24.3,7.8,36.8c1.7,12.8,2,25.7,1,38.6
					c-0.3,4.4-0.8,8.9-1.4,13.4c-1.1-2.3-2.3-4.3-3.7-6c-0.2-0.2-0.4,0.1-0.3,0.3c1.3,2.7,2.5,5.4,3.4,8.2l-1.9,0.6
					c0-0.1-0.2-0.1-0.2,0c-0.1,4.8,0.4,10.6-3,14.5c-2,2.3-5.4,3.6-8.2,2c-0.2-0.1-0.5-0.3-0.7-0.5c-0.3-0.2-0.5-0.5-0.7-0.8
					c-0.9-1.1-1.2-2.6-0.9-4C167,176,167,176,167.1,176z"/>
				<path fill="#272525" d="M167.4,181.2c0.1-0.4,0.2-0.8,0.4-1.2c0.2,0.3,0.4,0.5,0.7,0.8c-0.1,0.4-0.2,0.8-0.2,1.2
					C167.9,181.7,167.6,181.5,167.4,181.2z"/>
				<path fill="#272525" d="M167.4,181.2c-1.5-1.5-2.1-3.5-1.3-5.5c0.3,0.1,0.6,0.2,0.9,0.2c-0.3,1.4,0,2.9,0.9,4
					C167.6,180.4,167.5,180.8,167.4,181.2z"/>
				<path fill="#272525" d="M174.3,189c-4.2-0.4-7.9-3.4-6.9-7.8c0.3,0.3,0.6,0.5,0.9,0.8c-0.3,3.4,2.5,5.2,5.6,5.4
					C173.9,187.9,174.1,188.5,174.3,189z"/>
				<path fill="#272525" d="M166,175.7c-2.9-0.9-5.1-3.7-4.9-6.8c0.1-1.1,0.5-2.1,1.1-3c0.4,0.2,0.9,0.3,1.4,0.3
					c-1.2,1.4-1.6,3.4-0.5,5.4c0.9,1.5,2.2,2.4,3.7,2.7C166.5,174.9,166.2,175.3,166,175.7z"/>
				<path fill="#272525" d="M162.2,166c-4.1-1.9-7.6-11.1-8.6-13.3c-3.8-8.4-7.9-16.7-11.4-25.3c0.7,0.3,1.3,0.6,2,0.9
					c2.3,4.8,4.4,9.6,6.6,14.4c1.9,4.2,3.8,8.4,5.7,12.6c1.6,3.6,3.2,9.1,7.7,8.9C163.4,164.6,162.7,165.2,162.2,166z"/>
				<path fill="#272525" d="M141,124.5c0.6,0.3,1.2,0.6,1.8,0.9c0.5,1,1,2,1.4,3c-0.7-0.3-1.4-0.5-2-0.9
					C141.8,126.5,141.4,125.5,141,124.5z"/>
				<path fill="#272525" d="M104.5,85.7c0.3-4.2,2-8.4,5.4-11.1c5.1-4.1,12.4-2.9,16.7-8.4c2-2.6,2.7-6.6,3.6-9.7
					c1.1-3.7,2.2-7.4,3.3-11c1.6-5.3,3.3-10.6,5.1-15.8c0.4,0,0.8-0.1,1.2-0.2c-2.7,10.8-6,21.6-9.6,32.1c-1.3,3.9-3,7.4-6.8,9.4
					c-5.1,2.7-11.4,2.5-14.7,8c-6.9,11.7,5.1,24.2,13.1,31.5c4.4,4,9,7.8,14,11c1.6,1,3.4,1.9,5.1,2.8c0.4,1,0.8,2,1.2,3
					c-2.6-1.2-5.2-2.7-7.4-4c-4.9-2.8-9.7-6-13.9-9.7C113,106.9,103.7,97,104.5,85.7z"/>
			</g>
			<g>
				<g>
					<path fill="#272525" d="M197.7,9.5c-5.3,7.7-9.4,16.7-13.5,25c-2,4.1-4.1,8.2-6,12.4c-1.8,3.8-4.3,7.8-4.8,12
						c0,0.2,0.2,0.4,0.4,0.2c3.2-3.2,4.9-7.9,7-11.9c2.1-4.1,4.1-8.2,6.1-12.3c4-8.2,8.5-16.6,11.3-25.3
						C198.2,9.4,197.8,9.3,197.7,9.5L197.7,9.5z"/>
				</g>
			</g>
		</g>
		<g id="WLXMLID_17_">
			<g id="WLXMLID_18_">
				<path fill="#272525" d="M239.4,64.3c1,0.1,1,1.6,0,1.6c-1.1,0-2.2,0-3.3-0.1c0.5-0.6,1-1.2,1.4-1.7
					C238.1,64.2,238.8,64.3,239.4,64.3z"/>
				<path fill="#272525" d="M234.5,65.8c0.6-0.6,1.2-1.2,1.8-1.8c0.4,0,0.8,0.1,1.2,0.1c-0.5,0.6-1,1.2-1.4,1.7
					C235.5,65.8,235,65.8,234.5,65.8z"/>
				<path fill="#272525" d="M236.3,64c0.6-0.6,1.2-1.2,1.8-1.8c0.4-0.4,0.9,0.2,0.6,0.6c-0.4,0.5-0.7,0.9-1.1,1.4
					C237.1,64.1,236.7,64,236.3,64z"/>
				<path fill="#272525" d="M214.6,90.6c-2.2,2.6-4.3,5.2-6.5,7.8c0.2-1.1,0.4-2.1,0.7-3.2c1.4-1.7,2.8-3.3,4.2-5
					c7-8.3,14-16.6,21.5-24.4c0.5,0,1.1,0,1.6,0C229.1,74.2,221.7,82.2,214.6,90.6z"/>
				<path fill="#272525" d="M208.1,98.4c-0.8,1-1.7,2-2.5,3c0.2-1,0.4-2.1,0.6-3.1c0.9-1,1.7-2.1,2.6-3.1
					C208.6,96.2,208.3,97.3,208.1,98.4z"/>
				<path fill="#272525" d="M206.1,64.1c-8.4-0.4-17.2,0-25.7-1c0.4-0.7,0.7-1.4,1.1-2c8.2-0.3,16.6,0.7,24.6,1.1
					c10,0.5,20.2,0.7,30.2,1.8c-0.6,0.6-1.2,1.2-1.8,1.8C225,65.5,215.5,64.6,206.1,64.1z"/>
				<path fill="#272525" d="M191.6,229.5c0.1,0.2,0,0.4-0.1,0.5C191.6,229.9,191.6,229.7,191.6,229.5
					C191.6,229.5,191.6,229.5,191.6,229.5z"/>
				<path fill="#272525" d="M189.5,201.8c1.7-4.2,3.3-8.5,4.7-12.7c4.2-12.2,7.1-24.8,8.6-37.6c1.5-12.5,0.9-25,1.5-37.6
					c0.2-4.1,0.5-8.4,1.2-12.6c0.8-1,1.7-2,2.5-3c-3.6,19.2-1.2,39.3-3.9,58.8c-1.6,12.1-4.6,24.1-8.9,35.6
					c-1.6,4.3-3.4,8.4-5.4,12.4C189.9,204.1,189.7,202.9,189.5,201.8z"/>
				<path fill="#272525" d="M191.4,230.1c-0.7,0.1-1.4-0.1-2-0.4c0.1-0.6,0.3-1.2,0.6-1.9c0.6,0.5,1.1,1,1.6,1.7
					c0,0.2,0,0.4-0.1,0.6C191.5,230.1,191.5,230.1,191.4,230.1z"/>
				<path fill="#272525" d="M190,205.2c-0.5,1.1-1.1,2.1-1.6,3.2c0.1-1.3,0.1-2.5,0-3.8c0.4-0.9,0.8-1.9,1.2-2.8
					C189.7,202.9,189.9,204.1,190,205.2z"/>
				<path fill="#272525" d="M188.4,208.4c0.6-1.1,1.1-2.1,1.6-3.2c0.5,5.6-0.4,11.7-3.4,16c0-1.5,0.4-2.9,0.6-4.5
					c0-0.2-0.2-0.3-0.3-0.2c0,0-0.1,0.1-0.1,0.1c0.1-0.2,0.2-0.5,0.2-0.7C187.8,213.5,188.3,211,188.4,208.4z"/>
				<path id="WLXMLID_15_" fill="#D39659" d="M186.3,204.2l2-0.1c0,0.2,0,0.4,0,0.6c0.1,1.3,0.1,2.5,0,3.8c-0.1,2.5-0.5,5-1.3,7.5
					c-0.1,0.2-0.2,0.5-0.2,0.7c-0.4,1.2-1,2.4-1.7,3.5c-1,1.6-2.3,2.9-3.9,3.9c-0.8,0.4-1.6,0.7-2.5,0.9c-0.1,0-0.3,0.1-0.4,0.1
					c-0.9,0.1-1.8,0.1-2.7-0.1c-0.5-0.1-1-0.2-1.4-0.4c-3-1-5.2-3.5-4.1-6.7c1.1,1.3,2.6,2.2,4.4,2.4c4.2,0.5,7.1-1.6,8.9-4.8
					c0.4-0.7,0.8-1.5,1.1-2.3C185.7,210.3,186.2,206.9,186.3,204.2z"/>
				<path fill="#272525" d="M187.4,195.1c0.9,1.9,1.6,4.3,2.1,6.7c-0.4,0.9-0.8,1.9-1.2,2.8c0-0.2,0-0.4,0-0.6
					c-0.2-2.9-0.7-5.9-1.3-8.8C187,195,187.3,194.9,187.4,195.1z"/>
				<path fill="#272525" d="M185.1,223.1c0.5-0.6,1-1.2,1.5-1.8c0,1.3,0.2,2.6,0.9,4c0.6,1.2,1.6,1.9,2.5,2.6
					c-0.4,0.6-0.5,1.3-0.6,1.9c-1.7-0.9-3-2.9-3.7-4.5C185.5,224.6,185.2,223.8,185.1,223.1z"/>
				<path fill="#272525" d="M186.6,221.2c-0.4,0.6-0.9,1.3-1.5,1.8c-0.2-1-0.2-2,0-2.9c0.7-1.1,1.3-2.3,1.7-3.5c0,0,0.1-0.1,0.1-0.1
					c0.1-0.1,0.3,0,0.3,0.2C187,218.3,186.6,219.8,186.6,221.2z"/>
				<g>
					<defs>
						<path id="WLXMLID_14_" d="M176,227.5c-0.1-0.3-0.2-0.6-0.2-1c1.9,0.4,3.9,0.2,5.8-0.8c1.4-0.7,2.6-1.6,3.6-2.7
							c0.1,0.8,0.3,1.5,0.6,2.2c0.6,1.5,2,3.6,3.7,4.5c-0.2,1-0.5,1.9-1.7,2.8c-2,1.4-4.7,1.2-6.8,0.3
							C178.5,231.7,176.8,229.9,176,227.5z"/>
					</defs>
					<use xlink:href="#WLXMLID_14_"  overflow="visible" fill="#D39659"/>
					<clipPath id="WLXMLID_3_">
						<use xlink:href="#WLXMLID_14_"  overflow="visible"/>
					</clipPath>
					<path clip-path="url(#WLXMLID_3_)" fill="#AC6B40" d="M191.5,230.1c0,0-12.3-1.2-11-7.9c1.3-6.7,7.7,0,7.7,0L191.5,230.1z"/>
				</g>
				<path fill="#272525" d="M184.5,213.2c-0.3,0.8-0.7,1.6-1.1,2.3C183.8,214.7,184.1,214,184.5,213.2z"/>
				<path fill="#272525" d="M179.2,63c0.4-0.6,0.8-1.2,1.3-1.8c0.4,0,0.7,0,1.1,0c-0.4,0.7-0.7,1.4-1.1,2
					C180,63.1,179.6,63,179.2,63z"/>
				<path fill="#272525" d="M178.3,224.9c0.1,0,0.3,0,0.4-0.1c-0.1,0.1-0.2,0.3-0.3,0.5c-0.1,0.2-0.4,0-0.3-0.2
					C178.2,225.1,178.2,225,178.3,224.9z"/>
				<path fill="#272525" d="M175.7,226.5c-0.1-0.6-0.1-1.1-0.1-1.7c0.9,0.2,1.8,0.2,2.7,0.1c0,0.1-0.1,0.1-0.1,0.2
					c-0.1,0.2,0.2,0.3,0.3,0.2c0.1-0.1,0.2-0.3,0.3-0.5c0.9-0.1,1.7-0.4,2.5-0.9c1.6-1,2.9-2.3,3.9-3.9c-0.1,1-0.1,2,0,2.9
					c-1,1.1-2.2,2-3.6,2.7C179.7,226.7,177.6,226.9,175.7,226.5z"/>
				<path fill="#272525" d="M180.8,232.7c2.1,0.9,4.8,1.1,6.8-0.3c1.2-0.9,1.5-1.8,1.7-2.8c0.6,0.3,1.3,0.5,2,0.4c0,0,0.1,0,0.1,0
					c-0.2,1-0.8,2.1-1.5,2.8c-1.9,2.2-4.9,2.8-7.7,2.3c-3-0.6-5.8-2.6-7.2-5.3c-0.5-1-1-2.4-1.1-3.7c0.5,0.2,1.1,0.3,1.6,0.4
					c0.1,0.3,0.1,0.7,0.2,1C176.8,229.9,178.5,231.7,180.8,232.7z"/>
				<path fill="#272525" d="M175.6,224.8c0,0.6,0.1,1.1,0.1,1.7c-0.6-0.1-1.1-0.2-1.6-0.4c-0.1-0.6,0-1.1,0-1.6
					C174.6,224.6,175.1,224.8,175.6,224.8z"/>
				<path fill="#272525" d="M181.7,195.7c5,7-2.3,19.8-11.2,16.1c-0.1,0-0.1-0.1-0.2-0.1c0.2-0.4,0.5-0.8,0.9-1.2
					c1.4,0.6,3.1,0.6,4.6,0.1c3-1,5-3.9,5.6-6.8c0.6-2.7-0.2-5.2-0.2-7.9C181.2,195.5,181.5,195.5,181.7,195.7z"/>
				<path fill="#272525" d="M171.1,217.3c2.3,2.3,5.9,1.9,8.4,0.1c4.2-3,5.2-8.7,6.5-13.3c0-0.1,0.2-0.1,0.2,0
					c-0.1,2.7-0.6,6.1-1.8,9c-0.4,0.8-0.7,1.5-1.1,2.3c-1.8,3.1-4.7,5.3-8.9,4.8c-1.8-0.2-3.3-1.2-4.4-2.4c0.1-0.4,0.3-0.7,0.5-1.1
					C170.8,216.9,170.9,217.1,171.1,217.3z"/>
				<path fill="#272525" d="M168.2,200.8c0.7-0.6,1.5-1,2.4-1.2c0.6,0.1,1.4,0.2,2.2,0.1c0.4,0,0.5,0.5,0.2,0.7c0,0,0,0,0,0
					c-1.3-0.1-2.5,0.3-3.5,1C168.9,201.3,168.5,201.1,168.2,200.8z"/>
				<path fill="#272525" d="M170.5,199.6c1-0.2,2.1-0.2,3.1,0.2c0.5,0.2,0.3,0.8-0.2,0.7c-0.2,0-0.4,0-0.5,0c0,0,0,0,0,0
					c0.3-0.2,0.2-0.8-0.2-0.7C171.9,199.8,171.2,199.8,170.5,199.6z"/>
				<path fill="#272525" d="M171.1,210.4c-0.4,0.4-0.7,0.8-0.9,1.2c-0.3-0.1-0.5-0.3-0.8-0.4c0.3-0.4,0.6-0.7,1.1-1.1
					C170.7,210.3,170.9,210.3,171.1,210.4z"/>
				<g>
					<defs>
						<path id="WLXMLID_23_" d="M169.4,201.5c1-0.7,2.2-1.1,3.5-1c0.2,0,0.4,0,0.5,0c0.5,0.1,0.6-0.5,0.2-0.7c-1-0.4-2.1-0.4-3.1-0.2
							c-4.4-1-4.6-6.7-5.3-10.6c-0.8-4.5-1.6-9.1-2.4-13.6c-0.9-5.2-1.8-10.4-2.8-15.6c-0.2-1.1-0.4-2.2-0.7-3.2
							c-0.5-0.4-1-0.9-1.5-1.3c-1.5-1.3-3-2.6-4.3-4c-4.1-4.4-7.6-9.1-10.8-14.1c-5.9-9.1-14.3-24.2-4.8-33.8
							c4.5-4.6,10.6-2.8,16.2-4.1c4.2-1,6.7-4,8.9-7.5c6.1-9.3,12-18.9,17.3-28.7c8.5,0.9,17.3,0.6,25.7,1
							c9.4,0.5,18.9,1.4,28.4,1.7c-7.5,7.8-14.5,16.1-21.5,24.4c-1.4,1.7-2.8,3.3-4.2,5c-0.9,1-1.7,2.1-2.6,3.1
							c-0.2,1-0.4,2.1-0.6,3.1c-0.7,4.2-1,8.4-1.2,12.6c-0.6,12.5-0.1,25.1-1.5,37.6c-1.5,12.8-4.4,25.4-8.6,37.6
							c-1.4,4.2-3,8.5-4.7,12.7c-0.5-2.5-1.2-4.8-2.1-6.7c-0.1-0.2-0.4-0.1-0.4,0.2c0.6,2.9,1.1,5.8,1.3,8.8l-2,0.1
							c0-0.1-0.2-0.2-0.2,0c-1.3,4.7-2.3,10.4-6.5,13.3c-2.5,1.8-6.1,2.2-8.4-0.1c-0.2-0.2-0.4-0.4-0.5-0.7
							c-0.2-0.3-0.4-0.6-0.5-0.9c-0.6-1.3-0.5-2.8,0.1-4.1c0.1,0,0.1,0.1,0.2,0.1c8.9,3.7,16.3-9,11.2-16.1
							c-0.1-0.2-0.5-0.1-0.5,0.1c0,2.7,0.8,5.2,0.2,7.9c-0.7,3-2.6,5.8-5.6,6.8c-1.5,0.5-3.2,0.5-4.6-0.1c-0.2-0.1-0.4-0.2-0.6-0.3
							c-1.4-0.7-2.5-1.9-2.9-3.6C167,204.4,167.9,202.6,169.4,201.5z"/>
					</defs>
					<use xlink:href="#WLXMLID_23_"  overflow="visible" fill="#D39659"/>
					<clipPath id="WLXMLID_4_">
						<use xlink:href="#WLXMLID_23_"  overflow="visible"/>
					</clipPath>
					<path clip-path="url(#WLXMLID_4_)" fill="#AC6B40" d="M189.5,201.8c0,0,11.7-50.9,10.7-70.6s3.7-33.7,3.7-33.7l26-32.7l-13.7,75
						l-21.7,70.3L189.5,201.8z"/>
					<path clip-path="url(#WLXMLID_4_)" fill="#AC6B40" d="M167.5,203.5c0,0,3.1,7.5,8.8,4.8s5.7-5.9,5.7-5.9s0.6,4.4-2,6.5
						s-4.9,2.6-6,2.6s-5.3-1.3-5.3-1.3l-1.8-2.4L167.5,203.5z"/>
					<path clip-path="url(#WLXMLID_4_)" fill="#AC6B40" d="M185,208.5c0,0-0.1,0.2-0.2,0.5c-0.9,1.8-4.4,8.2-7.2,8.2
						c-3.2,0-6.3,0.8-7.1-1s-1.1-3.8-1.1-3.8s0.3,4.6,0.8,5c0.5,0.4,4.9,3.3,7.6,2.7c2.7-0.6,5.2-3.9,5.2-3.9L185,208.5z"/>
					<path clip-path="url(#WLXMLID_4_)" fill="#AC6B40" d="M221.6,69.7c0,0-36.2,22.8-60.2,25.5s-5,0-5,0l10.5-22.2L221.6,69.7z"/>
				</g>
				<path fill="#272525" d="M170.6,216.7c-0.2,0.4-0.4,0.8-0.5,1.1c-0.3-0.3-0.5-0.6-0.7-1c0.2-0.4,0.4-0.7,0.7-1.1
					C170.2,216.1,170.4,216.4,170.6,216.7z"/>
				<path fill="#272525" d="M170.2,211.6c-0.7,1.3-0.7,2.8-0.1,4.1c-0.3,0.4-0.5,0.7-0.7,1.1c-1-1.8-1.2-3.9,0.1-5.6
					C169.7,211.4,170,211.5,170.2,211.6z"/>
				<path fill="#272525" d="M174.2,224.5c-0.1,0.5-0.1,1.1,0,1.6c-4-1.5-6.8-5.3-4.7-9.3c0.2,0.3,0.4,0.7,0.7,1
					C168.9,221,171.2,223.5,174.2,224.5z"/>
				<path fill="#272525" d="M169.4,211.2c-2.6-1.6-4.1-4.9-3.1-7.8c0.3-1,1-1.9,1.8-2.6c0.4,0.3,0.8,0.5,1.2,0.7
					c-1.5,1.1-2.4,2.9-1.8,5.1c0.5,1.7,1.6,2.9,2.9,3.6C170.1,210.5,169.7,210.8,169.4,211.2z"/>
				<path fill="#272525" d="M168.2,200.8c-3.5-2.8-4.6-12.7-5-15c-1.6-9-3.5-18.2-4.8-27.3c0.6,0.5,1.1,0.9,1.7,1.3
					c1,5.2,1.8,10.4,2.8,15.6c0.8,4.5,1.6,9.1,2.4,13.6c0.7,3.9,0.9,9.6,5.3,10.6C169.7,199.8,168.8,200.2,168.2,200.8z"/>
				<path fill="#272525" d="M159.4,156.6c0.2,1.1,0.4,2.2,0.7,3.2c-0.6-0.4-1.2-0.9-1.7-1.3c-0.1-1.1-0.3-2.1-0.4-3.2
					C158.4,155.8,158.9,156.2,159.4,156.6z"/>
				<path fill="#272525" d="M180.4,63.1c-5.3,9.8-11.2,19.4-17.3,28.7c-2.3,3.5-4.8,6.4-8.9,7.5c-5.6,1.4-11.6-0.4-16.2,4.1
					c-9.5,9.6-1.1,24.7,4.8,33.8c3.2,5,6.7,9.8,10.8,14.1c1.3,1.4,2.8,2.7,4.3,4c0.1,1.1,0.3,2.1,0.4,3.2c-2.3-1.8-4.3-3.9-6.2-5.7
					c-4.1-3.9-7.9-8.2-11.1-12.8c-5.9-8.6-12.5-20.6-8.9-31.3c1.3-4,4.1-7.6,8-9.4c6-2.7,12.8,0.3,18.3-4c2.6-2,4.3-5.8,5.9-8.5
					c2-3.3,3.9-6.6,5.9-9.9c2.9-4.7,5.8-9.4,8.9-14C179.6,63,180,63.1,180.4,63.1z"/>
			</g>
			<g>
				<g>
					<path fill="#272525" d="M241.4,58.1c-7.3,6.3-13.6,14.3-19.9,21.6c-3,3.5-6,7-8.9,10.5c-2.5,3.1-5.6,6-7.1,9.7
						c-0.1,0.2,0.2,0.4,0.3,0.3c3.9-2.3,6.7-6.4,9.7-9.8c3-3.4,6-6.9,9-10.4c5.9-6.9,12.4-14,17.2-21.7
						C241.9,58.1,241.6,57.9,241.4,58.1L241.4,58.1z"/>
				</g>
			</g>
		</g>
		<g id="WLXMLID_2_">
			<g id="WLXMLID_16_">
				<g id="WLXMLID_13_">
					<path d="M300.3-8.9c0.7,0.1,1.4,0.1,2.2,0.1c-6,10.3-13.2,20.1-20.4,29.5c-4.2,5.5-8.6,10.9-13.2,16.2
						c-1.4,1.6-2.8,3.3-4.2,4.9c-0.5-0.5-1.1-0.9-1.6-1.4c1.5-1.6,3-3.2,4.5-4.9c4.8-5.6,9.4-11.3,13.9-17.1
						C288.1,9.6,294.1,0.3,300.3-8.9z"/>
					<path fill="#AC6B40" d="M293.7-9.4c2.2,0.2,4.4,0.3,6.6,0.5c-6.2,9.2-12.1,18.5-18.9,27.3c-4.5,5.9-9.1,11.6-13.9,17.1
						c-1.4,1.7-2.9,3.3-4.5,4.9c-0.1-0.1-0.3-0.2-0.4-0.3c2.1-2.4,4-4.9,5.8-7c4.3-5.2,8.3-10.6,11.8-16.3
						c3.8-6.1,7.2-12.4,10.1-18.9C291.4-4.3,292.6-6.8,293.7-9.4z"/>
					<path d="M290.9-9.6c0.9,0.1,1.8,0.1,2.7,0.2c-1,2.6-2.3,5-3.3,7.3c-2.9,6.5-6.3,12.8-10.1,18.9c-3.6,5.7-7.5,11.1-11.8,16.3
						c-1.7,2.1-3.7,4.6-5.8,7c-0.6-0.5-1.3-1.1-2-1.6c1.9-1.9,3.8-3.8,5.3-5.7c4.5-5.4,8.6-11.2,12.3-17.2
						c3.5-5.6,6.7-11.5,9.5-17.5C289-4.2,289.9-6.9,290.9-9.6z"/>
					<g>
						<defs>
							<path id="WLXMLID_25_" d="M290.9-9.6c-1,2.7-1.9,5.4-3.1,7.9c-2.8,6-6,11.9-9.5,17.5c-3.8,6-7.8,11.7-12.3,17.2
								c-1.6,1.9-3.5,3.8-5.3,5.7c-5.5-4.4-11.3-8.4-17.1-12.5c-4.3-3.1-8.7-6.1-13.2-9c4.8-5.3,9.1-11.1,13.4-16.8
								c3.1-4.1,6.9-8.6,10-13.4C266.1-11.8,278.5-10.6,290.9-9.6z"/>
						</defs>
						<use xlink:href="#WLXMLID_25_"  overflow="visible" fill="#D39659"/>
						<clipPath id="WLXMLID_5_">
							<use xlink:href="#WLXMLID_25_"  overflow="visible"/>
						</clipPath>
						<path clip-path="url(#WLXMLID_5_)" fill="#AC6B40" d="M288.8-12.6c0,0-8,28.5-29.2,46.5l-29.1-16.8l29.2,31.1l31.9-49.8v-11
							H288.8z"/>
						<polygon clip-path="url(#WLXMLID_5_)" fill="#AC6B40" points="307.3,-8.1 293.8,-12.6 250.6,57.4 274.3,40.7 						"/>
					</g>
					<path d="M266.5,43.5c0.2,0.2,0.4,0.3,0.5,0.5c-0.2,0.3-0.3,0.6-0.5,0.8c-0.3-0.2-0.5-0.3-0.8-0.5
						C266.1,44.1,266.3,43.8,266.5,43.5z"/>
					<path d="M265.8,44.3c0.2,0.2,0.5,0.3,0.8,0.5c-1.5,2.6-3.2,5-5.1,7.2c-1.3,1.5-2.8,3.4-4.6,4.9c-0.7-0.5-1.3-1-2-1.5
						c1.6-1.7,3.7-3.2,5.2-4.8C262,48.6,263.9,46.5,265.8,44.3z"/>
					<path d="M266.5,43.5c-0.2,0.3-0.5,0.5-0.7,0.8c-0.7-0.5-1.4-0.9-2.1-1.4c0.3-0.4,0.6-0.7,0.9-1.1
						C265.3,42.4,265.9,43,266.5,43.5z"/>
					<g>
						<defs>
							<path id="WLXMLID_77_" d="M263.7,43c0.7,0.5,1.4,0.9,2.1,1.4c-1.9,2.1-3.8,4.2-5.8,6.3c-1.5,1.6-3.5,3.1-5.2,4.8
								c-1-0.7-1.9-1.4-2.8-2.2c-3.8-3.3-7.6-6.7-11.2-10.2c-0.1-0.1-0.3,0-0.2,0.2c3.1,4,6.4,7.9,10,11.5c0.9,0.8,1.7,1.8,2.6,2.7
								c0.4,0.4,0.8,0.8,1.2,1.2c0.2,0.1,0.3,0.3,0.5,0.5c-3.1,2.6-6.1,5.5-9.5,7.8c-4.2,2.7-8.6,5-13,7.3c-1.5-2.8-3-5.5-4.5-8.2
								c-0.3-0.7-0.7-1.3-1.1-2c-2.1-3.8-4.1-7.5-6.2-11.3c-3.8-6.9-7.1-14.1-11.1-20.9c-0.5-0.8-0.9-1.5-1.4-2.3
								c0-0.1-0.1-0.1-0.1-0.2c1.5-1,2.9-2.1,4.3-3.2c1.2-0.9,2.4-1.9,3.6-3c2.1,1.9,4.4,3.6,6.4,5.4c4.1,3.5,8.1,7.7,12.5,10.7
								c0.1,0.1,0.3-0.1,0.2-0.2c-2.7-4.8-7.3-9.3-11.3-13.1c-1.8-1.7-3.7-3.5-5.8-5c-0.4-0.3-0.9-0.7-1.3-1
								c-0.3-0.2-0.6-0.4-0.9-0.6c1.1-1.1,2.1-2.1,3.3-3.1c0.9-0.7,1.9-1.3,2.9-1.9c1.9,1.2,3.9,2.4,5.8,3.6
								c0.1,0.1,0.2,0.2,0.4,0.2c0.3,0.2,0.6,0.4,0.8,0.6c4.3,2.9,8.7,5.8,12.9,8.7c5.9,4.1,11.7,8.4,17.5,12.5
								c0.7,0.5,1.4,1,2.1,1.5c0.1,0.1,0.3,0.2,0.4,0.3C262.5,42.2,263.1,42.6,263.7,43z"/>
						</defs>
						<use xlink:href="#WLXMLID_77_"  overflow="visible" fill="#F4E7E3"/>
						<clipPath id="WLXMLID_6_">
							<use xlink:href="#WLXMLID_77_"  overflow="visible"/>
						</clipPath>
						<path clip-path="url(#WLXMLID_6_)" fill="#D7D0D1" d="M227.7,17.9l31.4,25.3c0,0,0.1,1.7-7,10.1l-11.4-10.1l10.4,15.9l-22,11.5
							l4,9l24-18.6L276.8,45l-10.7-15.3L227.7,17.9z"/>
						<polygon clip-path="url(#WLXMLID_6_)" fill="#D7D0D1" points="212.3,26.1 235.1,39.1 215.9,23.2 						"/>
					</g>
					<path d="M263.1,40.5c0.6,0.4,1.1,0.9,1.6,1.4c-0.3,0.4-0.6,0.7-0.9,1.1c-0.6-0.4-1.2-0.8-1.8-1.2
						C262.3,41.3,262.7,40.9,263.1,40.5z"/>
					<path d="M263.1,40.5c-0.4,0.4-0.8,0.8-1.1,1.2c-0.1-0.1-0.3-0.2-0.4-0.3c0.4-0.4,0.8-0.8,1.2-1.3
						C262.8,40.3,262.9,40.4,263.1,40.5z"/>
					<path d="M262.7,40.2c-0.4,0.4-0.8,0.8-1.2,1.3c-0.7-0.5-1.4-1-2.1-1.5c0.4-0.5,0.9-0.9,1.3-1.4C261.4,39.1,262,39.7,262.7,40.2
						z"/>
					<path d="M260.7,38.6c-0.4,0.5-0.9,0.9-1.3,1.4c-5.9-4.1-11.6-8.4-17.5-12.5c-4.3-3-8.6-5.8-12.9-8.7c0.5-0.5,1-1.1,1.5-1.6
						c4.5,2.9,8.8,6,13.2,9C249.4,30.2,255.2,34.2,260.7,38.6z"/>
					<path d="M257.3,57.3c0.6,0.5,1.2,1,1.8,1.4c-0.6,0.8-1.3,1.6-2,2.3c-0.7-0.6-1.4-1.2-2.1-1.9C255.7,58.5,256.5,57.9,257.3,57.3
						z"/>
					<path d="M256.9,57c0.1,0.1,0.3,0.2,0.4,0.3c-0.8,0.6-1.6,1.2-2.3,1.9c-0.2-0.2-0.3-0.3-0.5-0.5C255.3,58.3,256.1,57.7,256.9,57
						z"/>
					<path d="M255,59.2c0.7,0.7,1.4,1.3,2.1,1.9c-2.9,3-6.6,5.4-9.8,7.6c-4.5,3-9.1,5.4-14.2,6.7c-0.2-0.4-0.4-0.8-0.6-1.2
						c4.4-2.3,8.8-4.6,13-7.3C248.9,64.7,251.8,61.8,255,59.2z"/>
					<path d="M254.9,55.5c0.7,0.5,1.3,1,2,1.5c-0.8,0.7-1.6,1.2-2.4,1.7c-0.4-0.4-0.8-0.8-1.2-1.2C253.7,56.8,254.3,56.2,254.9,55.5
						z"/>
					<path d="M250.9-13.3c1,0.1,1.9,0.2,2.9,0.3c-3,4.7-6.9,9.2-10,13.4c-4.2,5.7-8.5,11.5-13.4,16.8c-0.2-0.1-0.3-0.2-0.5-0.4
						c-0.3-0.2-0.6-0.4-0.9-0.6c4.4-5.9,9.1-11.6,13.5-17.6c2.6-3.5,5.1-7,7.6-10.6C250.3-12.4,250.6-12.9,250.9-13.3z"/>
					<path d="M254.9,55.5c-0.6,0.6-1.1,1.3-1.6,2c-0.9-0.9-1.8-1.9-2.6-2.7c-3.6-3.6-6.9-7.5-10-11.5c-0.1-0.1,0.1-0.3,0.2-0.2
						c3.6,3.5,7.4,6.9,11.2,10.2C253,54.1,253.9,54.8,254.9,55.5z"/>
					<g>
						<defs>
							<path id="WLXMLID_26_" d="M250.9-13.3c-0.3,0.4-0.6,0.9-0.9,1.3c-2.5,3.6-5,7.1-7.6,10.6c-4.4,6-9.1,11.6-13.5,17.6
								c-1.6-1.1-3.2-2.2-4.9-3.3c-0.6-0.4-1.1-0.7-1.6-1c-0.8,0.4-1.5,0.9-2.2,1.4c-0.8,0.6-1.5,1.2-2.2,1.8
								c-1.1,1-2.5,2.2-3.6,3.6c-0.5,0.6-1,1.2-1.4,1.8c0.3,0.3,0.5,0.6,0.8,0.8c0.2,0.2,0.4,0.4,0.6,0.6c-1,0.9-2,1.9-2.9,2.7
								c-1.4,1.2-3,2.4-4.5,3.6h0c-0.3,0-0.5,0.2-0.6,0.5c0,0.1,0,0.1,0,0.2c0.1,0.4,0.2,0.9,0.4,1.3c-1.1,0.5-2.2,1-3.3,1.4
								c-0.3,0.1-0.5,0.2-0.8,0.4c-3.2,1.4-6.5,2.7-9.7,3.9c0.7-1.1,1.4-2.1,2.1-3.1c4.3-6.1,8.4-12.2,12.4-18.4
								c3.9-6,7.4-12.1,11.1-18.2c2.3-3.9,4.8-7.8,6.9-11.8C234-15,242.4-14.2,250.9-13.3z"/>
						</defs>
						<use xlink:href="#WLXMLID_26_"  overflow="visible" fill="#D39659"/>
						<clipPath id="WLXMLID_7_">
							<use xlink:href="#WLXMLID_26_"  overflow="visible"/>
						</clipPath>
						<path clip-path="url(#WLXMLID_7_)" fill="#AC6B40" d="M199.8,35.7c0,0,12.8-31.5,24.5-48.2s-33.8,49.8-33.8,49.8L199.8,35.7z"/>
					</g>
					<path d="M235.1,39.1c0.1,0.1-0.1,0.3-0.2,0.2c-4.4-3-8.4-7.2-12.5-10.7c-2.1-1.8-4.3-3.5-6.4-5.4c0.8-0.7,1.4-1.4,2-2.2
						c2.1,1.6,4,3.4,5.8,5C227.8,29.8,232.4,34.3,235.1,39.1z"/>
					<path d="M232.4,74.2c0.2,0.4,0.4,0.8,0.6,1.2c-0.3,0.1-0.6,0.2-0.9,0.2c-0.2-0.3-0.5-0.6-0.7-0.9
						C231.8,74.5,232.1,74.4,232.4,74.2z"/>
					<path d="M232.4,74.2c-0.3,0.2-0.6,0.3-1,0.5c-1.9-2.5-3.8-5-5.5-7.5c0.7-0.4,1.3-0.8,2-1.2C229.5,68.7,230.9,71.4,232.4,74.2z"
						/>
					<path d="M229.9,16.8c0.2,0.1,0.4,0.2,0.5,0.4c-0.5,0.6-1,1.1-1.5,1.6c-0.3-0.2-0.6-0.4-0.8-0.6c-0.1-0.1-0.2-0.2-0.4-0.2
						c0.4-0.6,0.9-1.2,1.3-1.8C229.3,16.4,229.6,16.6,229.9,16.8z"/>
					<path d="M229,16.2c-0.4,0.6-0.9,1.2-1.3,1.8c-1.8-1.2-3.8-2.4-5.8-3.6c0.8-0.5,1.5-1,2.2-1.5C225.8,13.9,227.4,15.1,229,16.2z"
						/>
					<path d="M226.9,64c0.4,0.7,0.7,1.3,1.1,2c-0.7,0.4-1.3,0.8-2,1.2c-0.5-0.7-1-1.4-1.4-2.1C225.3,64.7,226.1,64.3,226.9,64z"/>
					<path d="M226.9,64c-0.8,0.3-1.6,0.7-2.4,1c-2.3-3.5-4.5-7.1-6.5-10.8c-3.8-6.9-7.7-14-10.3-21.4c0.6-0.3,1.3-0.7,1.9-1
						c4,6.8,7.3,14,11.1,20.9C222.7,56.4,224.8,60.2,226.9,64z"/>
					<path d="M224.5,65c0.5,0.7,0.9,1.4,1.4,2.1c-8.1,4.8-17.1,8.4-25.9,11.8c-10.6,4.1-21.5,7.4-32.5,10.1c-4.5,1.1-9.1,2.1-13.8,3
						c1.7-1.3,3.3-2.6,4.9-4c6-1.2,11.9-2.7,17.7-4.3c9.3-2.6,18.5-5.8,27.5-9.4C210.9,71.4,217.6,68.1,224.5,65z"/>
					<path d="M224-16c0.5,0,1,0.1,1.6,0.1c-2.2,4-4.6,7.9-6.9,11.8c-3.6,6.1-7.2,12.2-11.1,18.2c-4,6.2-8.2,12.3-12.4,18.4
						c-0.7,1-1.4,2-2.1,3.1c-1.4,0.5-2.8,1-4.2,1.5c1.6-2.3,3.2-4.5,4.6-6.6c3.9-6,7.7-11.9,11.6-17.9c4-6.2,8.2-12.3,12.3-18.5
						c2.2-3.4,4.3-6.8,6.5-10.1C223.9-16,223.9-16,224-16z"/>
					<path d="M222.5,11.8c0.6,0.3,1.1,0.7,1.6,1c-0.7,0.5-1.4,1-2.2,1.5c-0.6-0.4-1.1-0.8-1.7-1.1C220.9,12.7,221.7,12.2,222.5,11.8
						z"/>
					<path d="M220.2,13.2c0.5,0.4,1.1,0.8,1.7,1.1c-1,0.6-2,1.2-2.9,1.9c-1.2,0.9-2.3,2-3.3,3.1c-0.4-0.3-0.9-0.6-1.3-0.8
						c1.2-1.3,2.5-2.6,3.6-3.6C218.7,14.4,219.5,13.7,220.2,13.2z"/>
					<g>
						<defs>
							<path id="WLXMLID_76_" d="M218,54.2c2,3.7,4.2,7.3,6.5,10.8c-6.9,3-13.6,6.4-20.6,9.2c-9,3.6-18.2,6.8-27.5,9.4
								c-5.9,1.6-11.8,3.1-17.7,4.3c-2,0.4-4.1,0.8-6.1,1.2c0,0,0,0,0,0c-11.2,2-22.5,3.3-33.8,3.9c-24,1.2-49.7-0.8-72.5-9.4
								c-1-0.4-2-0.8-3.1-1.2C32,77.8,21.6,71.6,12.5,63.2C2.9,54.5-4.1,44.4-9,33.1c40,15.7,86.3,9.1,119.8-18
								c9.7-7.9,18.8-17.6,25.8-28.5c0.4,3.4,1.6,7,1.9,9.8c0.6,5.6,0.8,11.3,0.5,16.9c0,0.2,0,0.4,0,0.5c0.7,19-7.2,28.1-5.5,28.6
								c-0.2,1.3-0.4,2.7-0.3,4c0,0,0,0,0.1,0c1-0.9,1.7-2.1,2.4-3.4c6.7,1.8,13.6,2.7,20.5,2.6c10.3-0.1,20.5-2.1,30.2-5.1
								c0.2-0.1,0.5-0.2,0.7-0.2c1.1-0.4,2.2-0.7,3.4-1.1c5.6-1.8,11.8-3.9,17.2-6.7C210.3,40.3,214.2,47.4,218,54.2z"/>
						</defs>
						<use xlink:href="#WLXMLID_76_"  overflow="visible" fill="#F4E7E3"/>
						<clipPath id="WLXMLID_8_">
							<use xlink:href="#WLXMLID_76_"  overflow="visible"/>
						</clipPath>
						<path clip-path="url(#WLXMLID_8_)" fill="#D7D0D1" d="M136.1-9.7c0,0,3,29.8-17.8,43.1l17.4,9.9l5.4-21.6v-22L136.1-9.7z"/>
						<path clip-path="url(#WLXMLID_8_)" fill="#D7D0D1" d="M-6.4,43.3c0,0,44,89.4,230.5,19.4l5,8l-83,29c0,0-114-1.5-115.5-2.5
							c-1.5-1-50-37.5-50-37.5L-6.4,43.3z"/>
						<path clip-path="url(#WLXMLID_8_)" fill="#D7D0D1" d="M-43.9-30.8c0,0,11.5,57.7,43,69.9s75,12.6,124-21.1s49.5-62.2,49.5-62.2
							L64.3-34.8L-43.9-30.8z"/>
					</g>
					<path fill="#8FB8D3" d="M223.7-16c-2.2,3.3-4.3,6.8-6.5,10.1C213.2,0.4,209,6.5,205,12.7c-3.9,6-7.7,11.9-11.6,17.9
						c-1.4,2.2-3,4.4-4.6,6.6c-0.5,0.2-1,0.3-1.6,0.5c-9.8,3.1-20,5.3-30.3,5.4c-6.8,0.1-13.6-0.6-20.2-2.3c1.2-3.1,1.8-6.6,2.5-9.4
						c1.3-5.4,2.1-10.8,2.6-16.3c8.1-4.3,16.3-8.5,24.4-12.7c9.9-5.1,19.8-10,29.9-14.8c3.7-1.8,7.4-3.5,11.1-5.2
						C212.7-17,218.2-16.5,223.7-16z"/>
					<path d="M216.6,20c0.4,0.3,0.9,0.6,1.3,1c-0.6,0.8-1.3,1.5-2,2.2c-0.5-0.4-1-0.9-1.5-1.4C215.1,21.2,215.9,20.5,216.6,20z"/>
					<path d="M215.7,19.3c0.3,0.2,0.6,0.4,0.9,0.6c-0.8,0.6-1.5,1.2-2.2,1.8c-0.2-0.2-0.4-0.4-0.6-0.6
						C214.5,20.6,215.1,20,215.7,19.3z"/>
					<path d="M214.4,21.8c0.5,0.5,1,0.9,1.5,1.4c-1.2,1.1-2.4,2-3.6,3c-1.4,1.1-2.8,2.2-4.3,3.2c-0.2-0.3-0.4-0.6-0.6-0.9
						c-0.1-0.2-0.3-0.3-0.5-0.3c1.5-1.2,3.1-2.3,4.5-3.6C212.5,23.7,213.4,22.7,214.4,21.8z"/>
					<path d="M214.4,18.5c0.4,0.2,0.9,0.5,1.3,0.8c-0.6,0.6-1.2,1.3-1.9,1.9c-0.3-0.3-0.6-0.5-0.8-0.8
						C213.4,19.7,213.9,19.1,214.4,18.5z"/>
					<path d="M208.2,29.5c0.5,0.8,0.9,1.5,1.4,2.3c-0.6,0.4-1.2,0.7-1.9,1c-0.3-0.9-0.6-1.8-0.9-2.8l0,0
						C207.3,29.8,207.7,29.7,208.2,29.5z"/>
					<path d="M208.1,29.3c0,0.1,0.1,0.1,0.1,0.2c-0.5,0.2-0.9,0.4-1.3,0.6C207.2,29.8,207.7,29.5,208.1,29.3z"/>
					<path d="M207.5,28.3c0.2,0.3,0.4,0.6,0.6,0.9c-0.4,0.3-0.8,0.5-1.2,0.8l0,0c-0.1-0.4-0.3-0.9-0.4-1.3c0-0.1,0-0.2,0-0.2
						c0.2-0.1,0.4-0.3,0.6-0.5h0C207.2,28.1,207.4,28.2,207.5,28.3z"/>
					<path d="M206.8,30c0.3,0.9,0.5,1.8,0.9,2.8c-5.4,2.8-11.5,4.9-17.2,6.7c0.9-1.3,1.7-2.5,2.5-3.8c3.3-1.2,6.5-2.5,9.7-3.9
						c0.3-0.1,0.5-0.2,0.8-0.4c0.1,0.1,0.2,0.1,0.3,0.1C204.9,31.1,205.9,30.6,206.8,30z"/>
					<path d="M207,28.1c-0.2,0.2-0.4,0.3-0.6,0.5C206.5,28.3,206.7,28.1,207,28.1z"/>
					<path d="M203.6,31.5c1.1-0.5,2.2-1,3.3-1.4c-1,0.6-1.9,1.1-3,1.5C203.8,31.6,203.6,31.6,203.6,31.5z"/>
					<path fill="#8FB8D3" d="M201.9-18c1.8,0.2,3.5,0.3,5.3,0.5c-3.7,1.7-7.4,3.5-11.1,5.2c-10,4.8-20,9.7-29.9,14.8
						c-8.2,4.2-16.3,8.4-24.4,12.7c0-0.3,0.1-0.6,0.1-0.8c0.1-0.7,0.1-1.3,0.1-2c7.8-4.3,15.7-8.5,23.7-12.6
						c10.2-5.2,20.4-10.2,30.7-15.1C198.2-16.2,200-17.1,201.9-18z"/>
					<path fill="#8FB8D3" d="M201.9-18c-1.9,0.9-3.7,1.9-5.6,2.7c-10.3,4.9-20.5,9.9-30.7,15.1c-8,4.1-15.9,8.2-23.7,12.6
						c0.3-5.6,0.2-11.2-0.4-16.7c-0.4-3.8-0.4-9.4-2.5-12.9c1.2-2.1,2.4-4.3,3.5-6.5C162.3-21.8,182.1-19.9,201.9-18z"/>
					<path d="M193,35.7c-0.8,1.2-1.6,2.5-2.5,3.8c-1.1,0.4-2.3,0.7-3.4,1.1c-0.2,0.1-0.5,0.1-0.7,0.2c0.8-1.2,1.6-2.4,2.4-3.6
						C190.2,36.7,191.6,36.3,193,35.7z"/>
					<path d="M187.2,37.7c0.5-0.2,1-0.3,1.6-0.5c-0.8,1.2-1.6,2.4-2.4,3.6c-9.8,3-20,5-30.2,5.1c-6.9,0-13.9-0.8-20.5-2.6
						c0.4-0.8,0.7-1.5,1-2.4c6.6,1.6,13.4,2.4,20.2,2.3C167.2,43,177.4,40.9,187.2,37.7z"/>
					<path d="M152.6,89.1c2-0.4,4.1-0.8,6.1-1.2c-1.6,1.4-3.2,2.8-4.9,4c-2.5,0.5-4.9,0.9-7.4,1.3C148.5,92,150.5,90.6,152.6,89.1
						C152.6,89.1,152.6,89.1,152.6,89.1z"/>
					<path d="M146.3,93.3c2.5-0.4,5-0.8,7.4-1.3c-2.3,1.8-4.7,3.4-7.1,4.8c-10.8,6.4-22.9,10.6-35.3,11.7c-13,1.2-26.3-1.3-38.3-6
						c-6.1-2.4-11.9-5.5-17.3-9.2c-2.5-1.7-5.5-3.8-8.1-6c0.2,0.1,0.5,0.2,0.7,0.3c1.4,0.5,2.7,0.9,4.1,1.4l0,0
						c1.5,1.2,3,2.5,4.6,3.5c5.2,3.4,10.7,6.2,16.4,8.4c11.7,4.4,24.1,5.8,36.5,4.8c12.4-1.1,24.5-5.2,35.1-11.5
						C145.5,93.8,145.9,93.5,146.3,93.3z"/>
					<path d="M152.6,89.1c-2,1.5-4.1,2.9-6.2,4.2c-31.1,5.1-64.2,5.1-93.9-4.4l0,0c-2.1-1.8-4.1-3.6-6.2-5.3
						C69,92.2,94.7,94.1,118.7,93C130.1,92.4,141.4,91.1,152.6,89.1z"/>
					<path fill="#8FB8D3" d="M146.3,93.3c-0.4,0.3-0.8,0.5-1.3,0.8c-10.6,6.4-22.8,10.5-35.1,11.5c-12.4,1-24.8-0.3-36.5-4.8
						c-5.8-2.2-11.3-5-16.4-8.4c-1.6-1-3.1-2.3-4.6-3.5C82.2,98.3,115.2,98.3,146.3,93.3z"/>
					<path d="M141.5-4.4c0.6,5.5,0.7,11.1,0.4,16.7c-1,0.6-2,1.1-3,1.6c0-0.2,0-0.4,0-0.5c0.3-5.6,0.1-11.3-0.5-16.9
						c-0.3-2.8-1.5-6.5-1.9-9.8c0.8-1.3,1.7-2.6,2.4-4C141.2-13.8,141.1-8.1,141.5-4.4z"/>
					<path d="M141.9,12.3c0,0.7-0.1,1.3-0.1,2c0,0.3,0,0.6-0.1,0.8c-1,0.5-2,1-3,1.6c0.1-0.9,0.1-1.8,0.2-2.8
						C140,13.4,140.9,12.9,141.9,12.3z"/>
					<path d="M138.8,16.7c1-0.5,2-1,3-1.6c-0.4,5.5-1.3,10.9-2.6,16.3c-0.7,2.8-1.3,6.3-2.5,9.4c-0.9-0.2-1.8-0.5-2.7-0.7
						c0.8-3.2,2.1-6.4,2.7-9.4C137.7,26.2,138.4,21.5,138.8,16.7z"/>
					<g>
						<defs>
							<path id="WLXMLID_80_" d="M140-24c-1,1.8-2,3.5-3,5.2c-5.7,9.4-12.4,18.1-20.7,26c-15,14.2-33.6,24.4-53.8,29.1
								C38,41.9,12.4,39.4-10.3,30c-1.1-0.5-2.2-0.9-3.2-1.4C-29.4,21.4-43.7,10.8-55-2.9C-65.9-16-74.1-31.3-78.9-47.6
								c12.7,1.6,25.4,3.1,38.1,4.6C-32.3-22-13.5-5.2,7.4,2.6c26.4,9.9,56,4,78-13.3c6.3-4.9,11.9-10.7,16.5-17.2
								C114.6-26.5,127.3-25.3,140-24z"/>
						</defs>
						<use xlink:href="#WLXMLID_80_"  overflow="visible" fill="#DEB54B"/>
						<clipPath id="WLXMLID_9_">
							<use xlink:href="#WLXMLID_80_"  overflow="visible"/>
						</clipPath>
						<path clip-path="url(#WLXMLID_9_)" fill="#A78838" d="M-13.9-9.7c0,0,32,29.9,51,33.4s40.5-5,54.5-13s36.5-27,36.5-27l-15.5-57
							L-13.9-13.8V-9.7z"/>
					</g>
					<path d="M137-18.8c0,0.1-0.1,0.1-0.1,0.2c-0.6,1.5-0.6,3.3-0.3,5.3c-7,10.9-16.1,20.6-25.8,28.5C77.3,42.3,31,48.9-9,33.1
						c-0.4-1-0.9-2.1-1.3-3.2c22.7,9.5,48.3,12,72.8,6.3c20.2-4.7,38.8-14.9,53.8-29.1C124.5-0.7,131.3-9.4,137-18.8L137-18.8z"/>
					<path d="M136.7,40.9c-0.3,0.8-0.6,1.6-1,2.4c-0.7-0.2-1.5-0.4-2.2-0.6c0.1-0.8,0.3-1.6,0.5-2.4
						C134.9,40.4,135.8,40.7,136.7,40.9z"/>
					<path fill="#F4E7E3" d="M133.5,42.6c0.7,0.2,1.4,0.4,2.2,0.6c-0.7,1.3-1.4,2.4-2.4,3.4c0,0-0.1,0-0.1,0
						C133.1,45.3,133.2,44,133.5,42.6z"/>
					<path d="M134,40.2c-0.2,0.8-0.4,1.6-0.5,2.4c-1.8-0.5-3.5-1.2-5.2-1.8c-4-1.6-7.9-3.7-11.5-6.2c-1.4-1-3-2-4.5-3.3
						c0.6-0.3,1.2-0.7,1.9-1c1.4,1.1,2.7,2.2,4.1,3.1c4,2.4,8.2,4.4,12.7,5.9C132,39.6,133,39.9,134,40.2z"/>
					<path d="M112.4,29c0.6,0.4,1.2,0.9,1.7,1.3c-0.6,0.4-1.2,0.7-1.9,1c-0.5-0.4-1-0.9-1.5-1.3C111.4,29.7,111.9,29.3,112.4,29z"/>
					<path d="M99.3-28.1c0.9,0.1,1.8,0.2,2.6,0.3c-4.5,6.5-10.2,12.2-16.5,17.2c-22,17.3-51.5,23.2-78,13.3
						C-13.5-5.2-32.3-22-40.8-43c0.5,0.1,1.1,0.1,1.7,0.2c4.4,9.3,10.3,17.8,17.9,25.1C-1.6,1.3,26.5,10,53.2,3
						C72.1-1.9,87.8-13.1,99.3-28.1z"/>
					<path fill="#F3E064" d="M91.4-28.9c2.6,0.3,5.2,0.6,7.9,0.8C87.8-13.1,72.1-1.9,53.2,3C26.5,10-1.6,1.3-21.2-17.7
						c-7.6-7.3-13.5-15.8-17.9-25.1c2.8,0.3,5.5,0.6,8.3,0.9C-22.6-24-6.2-10,12.3-3.7c22.6,7.6,47.4,2.4,66-12.1
						c4.7-3.7,9-7.9,12.7-12.7C91.2-28.7,91.3-28.8,91.4-28.9z"/>
					<g>
						<defs>
							<path id="WLXMLID_81_" d="M89.3-29.1c-0.1,0.2-0.3,0.4-0.4,0.5c-4.5,5.5-9.9,10.4-15.8,14.4c-12,8.1-26.5,12.7-41,12.3
								C5.9-2.6-17.2-19-29-41.7c30.7,3.5,61.4,6.6,92.1,9.8C71.8-30.9,80.6-30,89.3-29.1z"/>
						</defs>
						<use xlink:href="#WLXMLID_81_"  overflow="visible" fill="#DEB54B"/>
						<clipPath id="WLXMLID_10_">
							<use xlink:href="#WLXMLID_81_"  overflow="visible"/>
						</clipPath>
						<path clip-path="url(#WLXMLID_10_)" fill="#A78838" d="M25.6-2.3c0,0,20.5,2,28.5-15s41.5-17,41.5-17L73.1-9.7l-22,9.9L25.6,3.7
							V-2.3z"/>
					</g>
					<path d="M52.4,88.9c-1.4-0.4-2.7-0.9-4.1-1.4c-0.2-0.1-0.5-0.2-0.7-0.3c-1.7-1.5-3.2-3.1-4.4-4.8c1,0.4,2,0.8,3.1,1.2
						C48.3,85.2,50.3,87.1,52.4,88.9z"/>
					<path d="M43.2,82.4c1.2,1.7,2.7,3.3,4.4,4.8C22.3,78.2-3.8,58.1-12.6,31.7c0.1,0,0.1,0.1,0.2,0.1c1.1,0.5,2.2,0.9,3.4,1.4
						c4.9,11.3,11.9,21.3,21.5,30.1C21.6,71.6,32,77.8,43.2,82.4z"/>
				</g>
			</g>
		</g>
	</g>
</g>
</svg>
