<svg version="1.1" id="wheel_1_" xmlns="http://www.w3.org/2000/svg" xmlns:xlink="http://www.w3.org/1999/xlink" x="0px" y="0px"
	 viewBox="0 0 169.7 396.3" enable-background="new 0 0 169.7 396.3" xml:space="preserve">
<g id="wheel">
	<defs>
		<rect id="WSVGID_1_" y="1.4" width="170.2" height="395.7"/>
	</defs>
	<clipPath id="WSVGID_2_">
		<use xlink:href="#WSVGID_1_"  overflow="visible"/>
	</clipPath>
	<g id="wheel-half" clip-path="url(#WSVGID_2_)">
		<g>
			<path opacity="0.6" fill="#2D4C34" d="M-24,9c-107,0-193.7,86.7-193.7,193.7S-130.9,396.3-24,396.3s193.7-86.7,193.7-193.7
				S83,9-24,9z M17.1,362c-12.6,3.2-25.9,5-39.5,5.1V214.6L17.1,362z M-104.9,345.9l76.3-132.1l-39.5,147.4
				C-81,357.6-93.4,352.4-104.9,345.9z M-25.5,214.6v152.5c-13.6-0.1-26.9-1.9-39.5-5.1L-25.5,214.6z M-22.4,190.7V38.2
				c13.6,0.1,26.9,1.9,39.5,5.1L-22.4,190.7z M20.1,44.2c13,3.6,25.3,8.8,36.8,15.3l-76.3,132.1L20.1,44.2z M119.3,121.8
				c6.5,11.5,11.7,23.8,15.3,36.8l-147.4,39.5L119.3,121.8z M-14.4,195.3L93.4,87.5c9.3,9.5,17.5,20.1,24.3,31.6L-14.4,195.3z
				 M-16.6,193.1L59.6,61c11.5,6.8,22.1,15,31.6,24.3L-16.6,193.1z M-31.3,193.1L-139.2,85.3c9.5-9.3,20.1-17.5,31.6-24.3
				L-31.3,193.1z M-104.9,59.4c11.5-6.5,23.8-11.7,36.8-15.3l39.5,147.4L-104.9,59.4z M-25.5,190.7L-65,43.3
				c12.6-3.2,25.9-5,39.5-5.1V190.7z M-33.5,195.3l-132.1-76.3c6.8-11.5,15-22.1,24.3-31.6L-33.5,195.3z M-35.1,198.1l-147.4-39.5
				c3.6-13,8.8-25.3,15.3-36.8L-35.1,198.1z M-183.3,161.6l147.4,39.5h-152.5C-188.3,187.5-186.5,174.2-183.3,161.6z M-35.9,204.2
				l-147.4,39.5c-3.2-12.6-5-25.9-5.1-39.5H-35.9z M-35.1,207.3l-132.1,76.3c-6.5-11.5-11.7-23.8-15.3-36.8L-35.1,207.3z M-33.5,210
				l-107.9,107.9c-9.3-9.5-17.5-20.1-24.3-31.6L-33.5,210z M-31.3,212.2l-76.3,132.1c-11.5-6.8-22.1-15-31.6-24.3L-31.3,212.2z
				 M-16.6,212.2L91.2,320.1c-9.5,9.3-20.1,17.5-31.6,24.3L-16.6,212.2z M-19.4,213.8l76.3,132.1c-11.5,6.5-23.8,11.7-36.8,15.3
				L-19.4,213.8z M-14.4,210l132.1,76.3c-6.8,11.5-15,22.1-24.3,31.6L-14.4,210z M-12.8,207.3l147.4,39.5
				c-3.6,13-8.8,25.3-15.3,36.8L-12.8,207.3z M135.4,243.7L-12,204.2h152.5C140.4,217.9,138.6,231.1,135.4,243.7z M-12,201.1
				l147.4-39.5c3.2,12.6,5,25.9,5.1,39.5H-12z"/>
		</g>
		<g>
			<path d="M-30,0c-107,0-193.7,86.7-193.7,193.7S-136.9,387.3-30,387.3s193.7-86.7,193.7-193.7S77,0-30,0z M-31.5,366.6
				c-95.3,0-172.5-77.2-172.5-172.5S-126.8,21.6-31.5,21.6s172.5,77.2,172.5,172.5S63.7,366.6-31.5,366.6z"/>
			<path fill="#1F1E26" d="M-30,3.2c-105.2,0-190.5,85.3-190.5,190.5S-135.2,384.2-30,384.2s190.5-85.3,190.5-190.5S75.2,3.2-30,3.2
				z M-31.5,366.6c-95.3,0-172.5-77.2-172.5-172.5S-126.8,21.6-31.5,21.6s172.5,77.2,172.5,172.5S63.7,366.6-31.5,366.6z"/>
			<line fill="none" stroke="#FFFFFF" stroke-width="3.1426" stroke-miterlimit="10" x1="-76.6" y1="19.6" x2="16.7" y2="367.7"/>
			<line fill="none" stroke="#FFFFFF" stroke-width="3.1426" stroke-miterlimit="10" x1="-120.1" y1="37.6" x2="60.1" y2="349.7"/>
			<line fill="none" stroke="#FFFFFF" stroke-width="3.1426" stroke-miterlimit="10" x1="-157.4" y1="66.3" x2="97.4" y2="321.1"/>
			<line fill="none" stroke="#FFFFFF" stroke-width="3.1426" stroke-miterlimit="10" x1="-186" y1="103.6" x2="126.1" y2="283.8"/>
			<line fill="none" stroke="#FFFFFF" stroke-width="3.1426" stroke-miterlimit="10" x1="-204" y1="147" x2="144.1" y2="240.3"/>

				<line fill="none" stroke="#FFFFFF" stroke-width="3.1426" stroke-miterlimit="10" x1="-210.1" y1="193.7" x2="150.2" y2="193.7"/>
			<line fill="none" stroke="#FFFFFF" stroke-width="3.1426" stroke-miterlimit="10" x1="-204" y1="240.3" x2="144.1" y2="147"/>
			<line fill="none" stroke="#FFFFFF" stroke-width="3.1426" stroke-miterlimit="10" x1="-186" y1="283.8" x2="126.1" y2="103.6"/>
			<line fill="none" stroke="#FFFFFF" stroke-width="3.1426" stroke-miterlimit="10" x1="-157.4" y1="321.1" x2="97.4" y2="66.3"/>
			<line fill="none" stroke="#FFFFFF" stroke-width="3.1426" stroke-miterlimit="10" x1="-120.1" y1="349.7" x2="60.1" y2="37.6"/>
			<g>
				<defs>
					<path id="WXMLID_78_" d="M150.2,195.2v-3.1h0c-0.4-48.6-20-92.5-51.7-124.7l0,0l-2.2-2.2l0,0C64.1,33.5,20.2,13.9-28.4,13.5v0
						H-30c0,0,0,0,0,0c0,0,0,0,0,0h-1.6v0c-48.6,0.4-92.5,20-124.7,51.7l0,0l-2.2,2.2l0,0c-31.6,32.2-51.2,76.1-51.7,124.7h0v3.1h0
						c0.4,48.6,20,92.5,51.7,124.7l0,0l2.2,2.2l0,0c32.2,31.6,76.1,51.2,124.7,51.7v0h1.6c0,0,0,0,0,0c0,0,0,0,0,0h1.6v0
						c48.6-0.4,92.5-20,124.7-51.7l0,0l2.2-2.2l0,0C130.1,287.8,149.8,243.8,150.2,195.2L150.2,195.2z M129.4,152.6
						c3.2,12.6,5,25.9,5.1,39.5H-18L129.4,152.6z M-18.8,189.1l132.1-76.3c6.5,11.5,11.7,23.8,15.3,36.8L-18.8,189.1z M111.7,110.1
						l-132.1,76.3L87.4,78.5C96.7,88,104.9,98.6,111.7,110.1z M-22.6,184.1L53.6,52c11.5,6.8,22.1,15,31.6,24.3L-22.6,184.1z
						 M-25.4,182.5L14.1,35.2c13,3.6,25.3,8.8,36.8,15.3L-25.4,182.5z M11.1,34.3l-39.5,147.4V29.2C-14.8,29.3-1.5,31.1,11.1,34.3z
						 M-31.5,181.7L-71,34.3c12.6-3.2,25.9-5,39.5-5.1V181.7z M-34.6,182.5l-76.3-132.1c11.5-6.5,23.8-11.7,36.8-15.3L-34.6,182.5z
						 M-113.6,52l76.3,132.1L-145.2,76.3C-135.7,67-125.1,58.8-113.6,52z M-39.5,186.3l-132.1-76.3c6.8-11.5,15-22.1,24.3-31.6
						L-39.5,186.3z M-41.1,189.1l-147.4-39.5c3.6-13,8.8-25.3,15.3-36.8L-41.1,189.1z M-189.3,152.6l147.4,39.5h-152.5
						C-194.3,178.5-192.5,165.2-189.3,152.6z M-41.9,195.2l-147.4,39.5c-3.2-12.6-5-25.9-5.1-39.5H-41.9z M-41.1,198.3l-132.1,76.3
						c-6.5-11.5-11.7-23.8-15.3-36.8L-41.1,198.3z M-171.6,277.3L-39.5,201l-107.9,107.9C-156.7,299.4-164.8,288.8-171.6,277.3z
						 M-37.3,203.2l-76.3,132.1c-11.5-6.8-22.1-15-31.6-24.3L-37.3,203.2z M-34.6,204.8l-39.5,147.4c-13-3.6-25.3-8.8-36.8-15.3
						L-34.6,204.8z M-71,353l39.5-147.4v152.5C-45.2,358-58.4,356.2-71,353z M-28.4,205.6L11.1,353c-12.6,3.2-25.9,5-39.5,5.1V205.6
						z M-25.4,204.8l76.3,132.1c-11.5,6.5-23.8,11.7-36.8,15.3L-25.4,204.8z M53.6,335.3l-76.3-132.1L85.2,311.1
						C75.7,320.4,65.1,328.5,53.6,335.3z M-20.4,201l132.1,76.3c-6.8,11.5-15,22.1-24.3,31.6L-20.4,201z M-18.8,198.3l147.4,39.5
						c-3.6,13-8.8,25.3-15.3,36.8L-18.8,198.3z M129.4,234.7L-18,195.2h152.5C134.4,208.9,132.6,222.1,129.4,234.7z"/>
				</defs>
				<use xlink:href="#WXMLID_78_"  overflow="visible" fill="#FFFFFF"/>
				<clipPath id="WXMLID_2_">
					<use xlink:href="#WXMLID_78_"  overflow="visible"/>
				</clipPath>
				<polygon clip-path="url(#WXMLID_2_)" fill="#D0D1D3" points="14.1,35.2 -0.3,80.7 11.7,80.7 				"/>
				<polygon clip-path="url(#WXMLID_2_)" fill="#D0D1D3" points="52.3,51.3 53.6,52 3.5,140.7 4.3,135.8 				"/>
				<polygon clip-path="url(#WXMLID_2_)" fill="#D0D1D3" points="86.7,77.8 88,80 2.2,166 3.5,159.8 				"/>
				<polygon clip-path="url(#WXMLID_2_)" fill="#D0D1D3" points="113.5,113.8 113.3,112.8 2.2,175.7 8.8,177.5 				"/>
				<polygon clip-path="url(#WXMLID_2_)" fill="#D0D1D3" points="129,153.5 129,151.7 2.2,185.8 5.7,188.7 				"/>
				<rect y="194.2" clip-path="url(#WXMLID_2_)" fill="#D0D1D3" width="134.2" height="2.3"/>
				<polygon clip-path="url(#WXMLID_2_)" fill="#D0D1D3" points="129,236.8 127.7,239 2.2,204.2 2.8,203.3 				"/>
				<polygon clip-path="url(#WXMLID_2_)" fill="#D0D1D3" points="111,277.3 111.7,276.3 0,212 7.7,218.8 				"/>
				<polygon clip-path="url(#WXMLID_2_)" fill="#D0D1D3" points="86.2,310.5 2.2,226.2 1.2,230.2 82.7,313.2 				"/>
				<polygon clip-path="url(#WXMLID_2_)" fill="#D0D1D3" points="51.5,336 2,249.8 2,260.8 43.7,336 				"/>
				<polyline clip-path="url(#WXMLID_2_)" fill="#D0D1D3" points="-2.3,319.7 4.3,322.2 11.1,353 				"/>
			</g>
		</g>
		<path fill="#D0D1D3" d="M4.3,355.7c0,0,82.7-15.7,116.3-88c0,0-14,68.3-116.3,95.7V355.7z"/>
		<polyline fill="#D0D1D3" points="11.1,353 8.3,353 -2.3,319.7 		"/>
		<path fill="#BBBCBF" d="M4.3,19.3c0,0,102,26.7,129.3,113.3c0,0-40-87.3-129.3-105.3S4.3,19.3,4.3,19.3z"/>
	</g>
</g>
</svg>
