<svg version="1" xmlns="http://www.w3.org/2000/svg" width="360" height="360" viewBox="0 0 270.000000 270.000000"><path d="M8.9 48.7C5 51.1 3.3 54.7 2.5 62c-.3 3.6-.8 8.3-1.1 10.5-.2 2.2-.6 15-.8 28.5-.3 25.9.2 36.5 3 59 .8 6 3.2 10.1 7.4 12.3 3.2 1.7 5.7 1.8 32 1.2 15.7-.3 30.5-.8 33-1 15-1.1 28.2-2.6 29.3-3.2.4-.2.8.4.8 1.4.1 1 .3 4 .4 6.8 1.9 29.7 2.4 34.5 4.6 39.1 1.1 2.2 3 4.6 4.2 5.1 1.3.6 8.5 1.2 16.1 1.2l13.7.2-1.5-3c-2.3-4.3-4.3-13.8-4.2-19.5l.1-4.8 10.6-.5 10.6-.4.6 5.5c.7 7.4 3.1 11.1 9 14.1 4.4 2.2 6.1 2.4 17.2 2.3 18.6-.1 35-3.5 39.3-8.1 3.1-3.4 4.5-9.5 4.1-18.5-.7-15.1-3.9-16.6-35.9-17.7-30.3-1-37.4-2-42.7-6.1-1.8-1.4-3.3-2.9-3.3-3.3 0-.4 4.6-2 10.3-3.3 5.6-1.4 12.6-3.2 15.5-4 2.9-.9 6.3-1.4 7.5-1.3 1.2.2 6.3.6 11.3.9 4.9.4 10.1.8 11.5 1.1 1.3.2 6 .6 10.4 1 4.4.3 8.7.8 9.5 1 .8.2 2.7.6 4.2.9 8.2 1.4 14.6 7.4 16.8 15.8 1.8 6.9 2 23.6.4 30.5-1.1 4.8-1.1 5.4.2 4.9.9-.3 5-1.6 9.2-2.8 8.7-2.4 10.8-3.8 11.7-7.7.3-1.4.8-3.7 1.1-5.1.9-3.9 1.2-46.6.4-55.8-.8-10.4-1.7-11.3-13.5-14.1-4.9-1.2-9.8-2.4-10.9-2.8-1.6-.4-1.8-.2-1.2 2.3.4 1.6 1 4.8 1.3 7.1.6 4.7.3 4.8-6.2 4.2-1.6-.1-4.2-.3-5.7-.3-2.2-.1-2.9-.7-3.4-3.1-1.1-5.1-3.1-7.9-7.1-10.2-4.5-2.5-18.6-5.1-29.5-5.5-4.5-.1-7.8-.7-7.9-1.3 0-.5-.2-7.3-.4-15-.8-31.9-1.1-32.9-11.6-35.8-7.1-2-25.4-6.2-30.9-7.1-1.9-.3-4.6-.8-6-1.1-7.8-1.5-9.9-1.9-26.5-4-11.1-1.4-15.8-1.9-29.5-3-15.3-1.2-21-1.5-44.5-2-21.2-.4-24.3-.3-26.6 1.2zm74.7 8.7c12.2.6 14.8.8 25.7 2.1 2.3.3 6.2.8 8.7 1.1 2.5.3 8.6 1.2 13.5 2 5 .9 10.1 1.8 11.5 2 1.4.3 7.5 1.7 13.5 3.2 15.1 3.7 14.7 2.8 14.8 33.5.1 25.7-.7 41.3-2.4 45-.6 1.4-2.1 3-3.3 3.6-4.1 2.1-27.3 7.3-43.1 9.6-2.2.4-5.1.8-6.5 1-1.4.3-5.6.7-9.5 1.1-3.8.3-7.9.8-9 1.1-4.5 1-59.4 1.2-62.3.2-5.5-1.9-6.2-4.3-7.9-25.9-.9-11.7-.9-43.9 0-58.9.8-12.1 2.2-18.1 4.8-19.6 3.1-2 23.8-2.4 51.5-1.1z"/><path d="M59.1 85.2c-.1 7.3-.4 23.9-.6 37-.4 22-.3 23.6 1.3 23.3.9-.2 4.5-.4 8-.4l6.3-.1-.2-22.3c-.3-23.1.4-28.2 4.3-33.8 4.9-7.2 19.1-5.9 23.3 2 1 2.1 1.4 8.4 1.4 26.6 0 13.2 0 24.4.1 24.9 0 .8 10.6.4 11.4-.5.2-.2.6-9.9.9-21.4.3-11.6 1.1-22.7 1.7-24.8 1.4-4.8 4.6-7.7 8.4-7.8 1.7 0 3.8-.2 4.8-.4.9-.2 3 .5 4.7 1.6 4.5 2.7 5.3 7.3 5.2 30.2l-.1 19.9 4.7-.7c2.7-.4 5-.8 5.3-1 .7-.4.4-44.3-.3-47.2-1.9-7.8-7.9-12.1-18.2-13-7.9-.7-12.5.8-16.5 5.3-1.6 1.9-3 3-3 2.5 0-1.9-5.5-7.4-8.9-8.8-4.7-2-6.7-2.4-13.2-2.5-5.9-.1-8.9 1-13 4.9l-2.6 2.4.1-4c.2-3.1-.2-4.1-1.3-4.2-.9 0-4.3-.3-7.7-.5l-6.1-.5-.2 13.3z"/></svg>