<?xml version="1.0" encoding="utf-8"?>
<!-- Generator: Adobe Illustrator 19.1.0, SVG Export Plug-In . SVG Version: 6.00 Build 0)  -->
<svg version="1.1" id="Foreground" xmlns="http://www.w3.org/2000/svg" xmlns:xlink="http://www.w3.org/1999/xlink" x="0px" y="0px"
	 viewBox="-272 404.2 120.4 32.7" style="enable-background:new -272 404.2 120.4 32.7;" xml:space="preserve">
<style type="text/css">
	.st0{fill:#F36E21;}
	.st1{fill:#FFFFFF;}
	.st2{fill:#231F20;}
</style>
<g>
	<path class="st0" d="M-267.5,425.5l7.4,1.2l13.4-1.6l5.3-1.4l1.8-0.9l-0.4-12.7c0,0-1.3-1.7-3.4-2.1c-6.4-1.2-21.3-2.3-21.3-2.3
		s-3.7-0.5-3.7,2C-268.4,414-267.5,425.5-267.5,425.5z"/>
	<path class="st1" d="M-260.2,422.3v-3l0.2-9.8l2.6,0.2v1.6c0.5-1.2,1.7-1.6,3-1.5c1.7,0.1,3,0.6,3.6,2.2c0.6-1.3,1.5-1.7,3-1.6
		c2.8,0.2,3.6,1.3,3.6,3.9v1.6v5l-1.8,0.3c0-1.7,0-3.4,0-5.1v-1.2c0-1.2-0.2-2.7-1.8-2.7c-0.6,0-1.5,0.1-1.9,0.6
		c-0.9,1.3-0.6,7.1-0.7,8.9c-0.7,0.1-1.4,0.1-2.1,0.2c0-1.3,0.2-8.3-0.1-9c-0.4-0.9-1.3-1.2-2.2-1.3c-3.4-0.2-2.7,4.8-2.7,6.8v3.8
		h-1.3L-260.2,422.3z"/>
	<path d="M-245.2,435.7c-1.4,0-2.8,0-4.3,0c-1,0-1.6-0.8-1.8-1.6c-0.4-3-0.6-6-0.6-9c2.3-0.2,4.5-0.6,6.6-1v0.1
		c0.4,0.9,1.1,1.6,2,2.1c0.6,0.3,2.5,0.6,5.6,0.6c1.3,0,2.4,0.1,3.1,0.1c2,0.1,3.2,0.4,3.7,0.8c0.5,0.5,0.7,1.4,0.7,2.7
		c0,1.4-0.3,2.4-0.9,2.9c-0.6,0.5-2.2,0.9-4.8,1.2c-2.5,0.2-4.2,0.1-5.1-0.4s-1.4-1.5-1.4-2.9v-0.5l-3.8,0.2v0.7
		C-246.1,433.4-245.8,434.7-245.2,435.7z M-228.2,418.2c1.3,0.3,2.5,0.6,3.7,0.9c0.5,0.2,0.8,0.8,0.8,1.3c0.3,3.7,0.3,7.3-0.1,11
		c-0.1,0.6-0.4,1.1-0.8,1.3c-1,0.3-2.1,0.6-3.2,0.9c0.3-0.8,0.5-1.9,0.5-3.4s-0.2-2.6-0.5-3.4c-0.3-0.8-0.9-1.4-1.7-1.8
		c-0.4-0.2-1-0.4-1.9-0.5c-0.9-0.1-2.3-0.2-4-0.4c-0.3,0-0.7,0-1.3-0.1c-2.3-0.1-3.8-0.3-4.5-0.7c-0.1-0.1-0.2-0.2-0.3-0.2
		c0.5-0.2,0.8-0.8,0.8-1.3c0.1-1.5,0.2-3,0.3-4.4c0.9-0.2,2.3-0.2,4.1-0.1c2.4,0.2,3.9,0.5,4.7,1c0.7,0.4,1.1,1.1,1.1,2v0.2l2.7,0.2
		C-227.8,419.7-228,418.9-228.2,418.2z"/>
	<path d="M-263.9,406.9c-0.9,0-1.4,0.8-1.5,1.5c-0.5,5.2-0.5,10.4,0.1,15.5c0.1,0.8,0.7,1.5,1.5,1.5c8.7,0.4,16.2-0.5,22.2-2.3
		c0.4-0.2,0.7-0.7,0.8-1.3c0.3-3.8,0.4-7.5,0.1-11.3c-0.1-0.6-0.3-1.2-0.8-1.3C-247.6,407.5-255.1,406.6-263.9,406.9z M-267.8,405.2
		c11.7,0,21.1,1.2,28.4,3.3c0.5,0.2,0.9,0.8,0.9,1.5c0.3,4.1,0.3,8.3-0.1,12.4c-0.1,0.6-0.4,1.3-0.9,1.5c-7.2,2.2-16.5,3.5-28.1,3.3
		c-1.1-0.1-1.8-0.9-2-1.8c-0.9-6.1-0.9-12.3-0.2-18.4C-269.7,406.1-268.9,405.2-267.8,405.2z"/>
</g>
<g>
	<path class="st2" d="M-210.2,429.5v-4.1c0-0.3,0-0.5-0.1-0.7c-0.1-0.2-0.1-0.3-0.2-0.5c-0.1-0.1-0.2-0.2-0.3-0.2
		c-0.1,0-0.3-0.1-0.4-0.1c-0.2,0-0.4,0.1-0.6,0.2c-0.2,0.1-0.3,0.2-0.4,0.4s-0.2,0.4-0.2,0.6c-0.1,0.2-0.1,0.4-0.1,0.7v3.8h-1.7
		v-4.1c0-0.6-0.1-1-0.3-1.2c-0.2-0.2-0.4-0.3-0.7-0.3c-0.2,0-0.4,0.1-0.6,0.2c-0.2,0.1-0.3,0.2-0.4,0.4s-0.2,0.4-0.2,0.6
		c-0.1,0.2-0.1,0.4-0.1,0.7v3.8h-1.7v-6.5h1.6v1h0c0.4-0.9,1-1.3,2-1.3c0.5,0,0.8,0.1,1.1,0.3c0.3,0.2,0.5,0.6,0.7,1
		c0.3-0.4,0.6-0.7,0.9-1c0.4-0.2,0.8-0.3,1.3-0.3c0.6,0,1.1,0.2,1.4,0.5c0.4,0.3,0.6,0.8,0.6,1.5v4.9H-210.2z"/>
	<path class="st2" d="M-205.8,426.6c0,0.2,0,0.5,0.1,0.7s0.1,0.4,0.3,0.6s0.3,0.3,0.5,0.5s0.4,0.2,0.7,0.2c0.4,0,0.7-0.1,0.9-0.3
		c0.3-0.2,0.4-0.5,0.5-0.8h1.7c-0.1,0.5-0.2,0.8-0.5,1.1s-0.4,0.5-0.7,0.7c-0.3,0.2-0.6,0.3-0.9,0.4s-0.6,0.1-0.9,0.1
		c-0.6,0-1.1-0.1-1.5-0.3c-0.4-0.2-0.8-0.4-1-0.8c-0.3-0.3-0.5-0.7-0.6-1.1s-0.2-0.9-0.2-1.4c0-0.5,0.1-0.9,0.2-1.4s0.3-0.8,0.6-1.1
		c0.3-0.3,0.6-0.6,1-0.8s0.9-0.3,1.4-0.3c0.6,0,1.2,0.1,1.6,0.3c0.4,0.2,0.7,0.5,1,0.8c0.2,0.4,0.4,0.8,0.5,1.2s0.1,1,0.1,1.5
		H-205.8z M-202.7,425.4c0-0.5-0.2-0.8-0.4-1.1c-0.2-0.3-0.6-0.4-1-0.4c-0.5,0-0.9,0.1-1.1,0.4c-0.2,0.3-0.4,0.6-0.5,1.1H-202.7z"/>
	<path class="st2" d="M-195.5,429.5v-1h0c-0.2,0.4-0.5,0.7-0.9,1c-0.4,0.2-0.8,0.3-1.3,0.3c-0.3,0-0.6-0.1-0.9-0.2
		c-0.3-0.2-0.6-0.4-0.9-0.7c-0.3-0.3-0.5-0.7-0.6-1.1c-0.2-0.4-0.3-1-0.3-1.6c0-0.6,0.1-1.1,0.3-1.6c0.2-0.4,0.4-0.8,0.6-1.1
		s0.5-0.5,0.9-0.7c0.3-0.1,0.6-0.2,0.9-0.2c0.5,0,0.9,0.1,1.2,0.3c0.3,0.2,0.6,0.5,0.9,0.9h0v-4.4h1.7v10.1H-195.5z M-195.5,426.2
		c0-0.2,0-0.5-0.1-0.8s-0.1-0.5-0.2-0.8c-0.1-0.2-0.3-0.4-0.5-0.6c-0.2-0.2-0.5-0.2-0.8-0.2c-0.2,0-0.5,0.1-0.6,0.2
		c-0.2,0.1-0.3,0.3-0.5,0.5s-0.2,0.5-0.3,0.7c-0.1,0.3-0.1,0.6-0.1,0.8c0,0.3,0,0.5,0.1,0.8c0.1,0.3,0.2,0.5,0.3,0.8
		c0.1,0.2,0.3,0.4,0.5,0.6c0.2,0.1,0.4,0.2,0.6,0.2c0.3,0,0.6-0.1,0.8-0.2s0.4-0.3,0.5-0.6c0.1-0.2,0.2-0.5,0.2-0.8
		S-195.5,426.5-195.5,426.2z"/>
	<path class="st2" d="M-192.5,421.6v-1.7h1.7v1.7H-192.5z M-190.8,422.9v6.5h-1.7v-6.5H-190.8z"/>
	<path class="st2" d="M-185.1,429.5c-0.1-0.2-0.1-0.3-0.2-0.5s-0.1-0.4,0-0.6h0c-0.2,0.4-0.5,0.8-0.9,1c-0.4,0.2-0.8,0.4-1.3,0.4
		c-0.7,0-1.3-0.2-1.7-0.6c-0.4-0.4-0.6-0.9-0.6-1.6c0-0.5,0.1-0.9,0.3-1.2c0.2-0.3,0.5-0.5,0.8-0.6s0.7-0.2,1.1-0.2s0.7-0.1,1.1-0.1
		c0.3,0,0.6-0.1,0.8-0.2c0.2-0.1,0.3-0.3,0.3-0.6c0-0.3-0.1-0.5-0.4-0.6c-0.2-0.1-0.6-0.2-0.9-0.2c-0.1,0-0.3,0-0.4,0
		c-0.1,0-0.3,0.1-0.4,0.1c-0.1,0.1-0.2,0.2-0.3,0.3c-0.1,0.1-0.1,0.2-0.1,0.4h-1.6c0-0.4,0.1-0.7,0.2-1s0.4-0.5,0.6-0.6
		c0.3-0.2,0.6-0.3,0.9-0.3c0.3-0.1,0.7-0.1,1-0.1c1,0,1.7,0.2,2.2,0.7c0.5,0.5,0.7,1.2,0.7,2.2v2.6c0,0.4,0,0.6,0.1,0.8
		s0.1,0.3,0.3,0.5H-185.1z M-186.9,428.5c0.4,0,0.7-0.1,1-0.3s0.4-0.4,0.4-0.7s0.1-0.6,0.1-0.9c0-0.3,0-0.6,0-0.9h0
		c-0.1,0.2-0.2,0.3-0.4,0.4c-0.2,0.1-0.3,0.2-0.5,0.2c-0.2,0.1-0.4,0.1-0.6,0.1s-0.4,0.1-0.5,0.2c-0.2,0.1-0.3,0.2-0.4,0.3
		s-0.2,0.3-0.2,0.5c0,0.4,0.1,0.6,0.3,0.8C-187.5,428.5-187.2,428.5-186.9,428.5z"/>
	<path class="st2" d="M-179.4,427.5c0,0.2,0,0.4,0.1,0.5s0.2,0.2,0.3,0.3c0.1,0.1,0.3,0.1,0.5,0.2c0.2,0,0.3,0,0.5,0
		c0.4,0,0.8-0.1,1-0.2c0.2-0.1,0.4-0.3,0.4-0.6c0-0.2-0.1-0.4-0.3-0.5c-0.2-0.1-0.5-0.2-0.8-0.3c-0.3-0.1-0.6-0.1-1-0.2
		c-0.4-0.1-0.7-0.2-1-0.3c-0.3-0.1-0.6-0.4-0.8-0.6c-0.2-0.3-0.3-0.6-0.3-1.1c0-0.4,0.1-0.7,0.3-1c0.2-0.3,0.4-0.5,0.7-0.6
		c0.3-0.2,0.6-0.3,1-0.4c0.3-0.1,0.7-0.1,1-0.1c0.4,0,0.7,0,1.1,0.1s0.6,0.2,0.9,0.4c0.3,0.2,0.5,0.4,0.6,0.7c0.2,0.3,0.2,0.6,0.2,1
		h-1.5c0-0.3-0.1-0.6-0.4-0.7c-0.2-0.2-0.5-0.2-0.9-0.2c-0.1,0-0.3,0-0.4,0c-0.1,0-0.3,0.1-0.4,0.1c-0.1,0.1-0.2,0.2-0.3,0.3
		s-0.1,0.2-0.1,0.4c0,0.2,0.1,0.4,0.3,0.5s0.5,0.2,0.8,0.2c0.3,0.1,0.6,0.1,1,0.2c0.4,0.1,0.7,0.2,1,0.3s0.6,0.3,0.8,0.6
		c0.2,0.3,0.3,0.6,0.3,1.1c0,0.4-0.1,0.8-0.3,1.1s-0.4,0.5-0.7,0.7c-0.3,0.2-0.6,0.3-1,0.4c-0.3,0.1-0.7,0.1-0.9,0.1
		c-0.4,0-0.8,0-1.2-0.1c-0.4-0.1-0.7-0.2-1-0.4c-0.3-0.2-0.5-0.4-0.7-0.7s-0.3-0.6-0.3-1v0H-179.4z"/>
	<path class="st2" d="M-167.9,422.9v6.5h-1.6v-1.1h0c-0.2,0.5-0.5,0.8-0.9,1c-0.4,0.2-0.8,0.3-1.4,0.3c-0.3,0-0.6,0-0.9-0.1
		s-0.5-0.2-0.7-0.4c-0.2-0.2-0.3-0.5-0.4-0.8c-0.1-0.3-0.2-0.7-0.2-1.2v-4.3h1.7v4.1c0,0.4,0.1,0.8,0.3,1c0.2,0.3,0.5,0.4,1,0.4
		c0.5,0,0.8-0.2,1.1-0.5c0.3-0.3,0.4-0.8,0.4-1.3v-3.8H-167.9z"/>
	<path class="st2" d="M-166.5,421.6v-1.7h1.7v1.7H-166.5z M-164.8,422.9v6.5h-1.7v-6.5H-164.8z"/>
	<path class="st2" d="M-161.5,420.6v2.3h1.6v1.3h-1.6v2.7c0,0.2,0,0.4,0,0.6s0.1,0.3,0.1,0.4c0.1,0.1,0.1,0.1,0.3,0.2
		c0.1,0,0.3,0.1,0.4,0.1c0.1,0,0.2,0,0.3,0c0.1,0,0.2,0,0.3,0v1.4c-0.2,0-0.4,0-0.6,0c-0.2,0-0.4,0-0.6,0c-0.5,0-0.8,0-1.1-0.1
		c-0.3-0.1-0.5-0.2-0.6-0.4c-0.1-0.2-0.2-0.4-0.3-0.8c0-0.3,0-0.7,0-1.2v-2.8h-0.9v-1.3h0.9v-2.3H-161.5z"/>
	<path class="st2" d="M-158,426.6c0,0.2,0,0.5,0.1,0.7s0.1,0.4,0.3,0.6s0.3,0.3,0.5,0.5s0.4,0.2,0.7,0.2c0.4,0,0.7-0.1,0.9-0.3
		c0.3-0.2,0.4-0.5,0.5-0.8h1.7c-0.1,0.5-0.2,0.8-0.5,1.1s-0.4,0.5-0.7,0.7c-0.3,0.2-0.6,0.3-0.9,0.4s-0.6,0.1-0.9,0.1
		c-0.6,0-1.1-0.1-1.5-0.3c-0.4-0.2-0.8-0.4-1-0.8c-0.3-0.3-0.5-0.7-0.6-1.1s-0.2-0.9-0.2-1.4c0-0.5,0.1-0.9,0.2-1.4s0.3-0.8,0.6-1.1
		c0.3-0.3,0.6-0.6,1-0.8s0.9-0.3,1.4-0.3c0.6,0,1.2,0.1,1.6,0.3c0.4,0.2,0.7,0.5,1,0.8c0.2,0.4,0.4,0.8,0.5,1.2s0.1,1,0.1,1.5H-158z
		 M-154.9,425.4c0-0.5-0.2-0.8-0.4-1.1c-0.2-0.3-0.6-0.4-1-0.4c-0.5,0-0.9,0.1-1.1,0.4c-0.2,0.3-0.4,0.6-0.5,1.1H-154.9z"/>
</g>
</svg>
