<?xml version="1.0" encoding="utf-8"?>
<!-- Generator: Adobe Illustrator 19.1.0, SVG Export Plug-In . SVG Version: 6.00 Build 0)  -->
<svg version="1.1" id="Foreground" xmlns="http://www.w3.org/2000/svg" xmlns:xlink="http://www.w3.org/1999/xlink" x="0px" y="0px"
	 viewBox="0 0 49.6 32.7" style="enable-background:new 0 0 49.6 32.7;" xml:space="preserve">
<style type="text/css">
	.st0{fill-rule:evenodd;clip-rule:evenodd;fill:#F36E21;}
	.st1{fill-rule:evenodd;clip-rule:evenodd;fill:#FFFFFF;}
	.st2{fill-rule:evenodd;clip-rule:evenodd;}
</style>
<g>
	<path class="st0" d="M4.5,21.3l7.4,1.2l13.4-1.6l5.3-1.4l1.8-0.9L32,5.9c0,0-1.3-1.7-3.4-2.1C22.2,2.6,7.3,1.5,7.3,1.5
		S3.6,1,3.6,3.5C3.6,9.8,4.5,21.3,4.5,21.3z"/>
	<path class="st1" d="M11.8,18.1l0-3L12,5.3l2.6,0.2l0,1.6c0.5-1.2,1.7-1.6,3-1.5c1.7,0.1,3,0.6,3.6,2.2c0.6-1.3,1.5-1.7,3-1.6
		c2.8,0.2,3.6,1.3,3.6,3.9v1.6l0,5L26,17c0-1.7,0-3.4,0-5.1l0-1.2C26,9.5,25.8,8,24.2,8c-0.6,0-1.5,0.1-1.9,0.6
		c-0.9,1.3-0.6,7.1-0.7,8.9c-0.7,0.1-1.4,0.1-2.1,0.2c0-1.3,0.2-8.3-0.1-9c-0.4-0.9-1.3-1.2-2.2-1.3c-3.4-0.2-2.7,4.8-2.7,6.8l0,3.8
		l-1.3,0L11.8,18.1z"/>
	<path class="st2" d="M26.8,31.5c-1.4,0-2.8,0-4.3,0c-1,0-1.6-0.8-1.8-1.6c-0.4-3-0.6-6-0.6-9c2.3-0.2,4.5-0.6,6.6-1l0,0.1
		c0.4,0.9,1.1,1.6,2,2.1c0.6,0.3,2.5,0.6,5.6,0.6c1.3,0,2.4,0.1,3.1,0.1c2,0.1,3.2,0.4,3.7,0.8c0.5,0.5,0.7,1.4,0.7,2.7
		c0,1.4-0.3,2.4-0.9,2.9c-0.6,0.5-2.2,0.9-4.8,1.2c-2.5,0.2-4.2,0.1-5.1-0.4c-0.9-0.5-1.4-1.5-1.4-2.9v-0.5l-3.8,0.2v0.7
		C25.9,29.2,26.2,30.5,26.8,31.5z M43.8,14c1.3,0.3,2.5,0.6,3.7,0.9c0.5,0.2,0.8,0.8,0.8,1.3c0.3,3.7,0.3,7.3-0.1,11
		c-0.1,0.6-0.4,1.1-0.8,1.3c-1,0.3-2.1,0.6-3.2,0.9c0.3-0.8,0.5-1.9,0.5-3.4c0-1.5-0.2-2.6-0.5-3.4c-0.3-0.8-0.9-1.4-1.7-1.8
		c-0.4-0.2-1-0.4-1.9-0.5c-0.9-0.1-2.3-0.2-4-0.4c-0.3,0-0.7,0-1.3-0.1c-2.3-0.1-3.8-0.3-4.5-0.7c-0.1-0.1-0.2-0.2-0.3-0.2
		c0.5-0.2,0.8-0.8,0.8-1.3c0.1-1.5,0.2-3,0.3-4.4c0.9-0.2,2.3-0.2,4.1-0.1c2.4,0.2,3.9,0.5,4.7,1c0.7,0.4,1.1,1.1,1.1,2v0.2l2.7,0.2
		C44.2,15.5,44,14.7,43.8,14z"/>
	<path class="st2" d="M8.1,2.7C7.2,2.7,6.7,3.5,6.6,4.2C6.1,9.4,6.1,14.6,6.7,19.7c0.1,0.8,0.7,1.5,1.5,1.5
		c8.7,0.4,16.2-0.5,22.2-2.3c0.4-0.2,0.7-0.7,0.8-1.3c0.3-3.8,0.4-7.5,0.1-11.3c-0.1-0.6-0.3-1.2-0.8-1.3C24.4,3.3,16.9,2.4,8.1,2.7
		z M4.2,1c11.7,0,21.1,1.2,28.4,3.3c0.5,0.2,0.9,0.8,0.9,1.5c0.3,4.1,0.3,8.3-0.1,12.4c-0.1,0.6-0.4,1.3-0.9,1.5
		c-7.2,2.2-16.5,3.5-28.1,3.3c-1.1-0.1-1.8-0.9-2-1.8C1.5,15.1,1.5,8.9,2.2,2.8C2.3,1.9,3.1,1,4.2,1z"/>
</g>
</svg>
